<?xml version="1.0" standalone="no"?> <!DOCTYPE svg PUBLIC "-//W3C//DTD SVG 1.0//EN" "http://www.w3.org/TR/2001/REC-SVG-20010904/DTD/svg10.dtd" > <svg xmlns="http://www.w3.org/2000/svg" width="100%" height="100%">
<defs >
<font id="cmunui" horiz-adv-x="477" ><font-face
    font-family="CMU Serif Upright Italic"
    units-per-em="1000"
    panose-1="2 0 6 3 0 0 0 0 0 0"
    ascent="936"
    descent="-250"
    alphabetic="0" />
<missing-glyph horiz-adv-x="760" d="M10 10V765H750V10H10ZM70 112L346 388L70 663V112ZM105 70H655L380 346L105 70ZM105 705L380 429L655 705H105ZM414 388L690 112V663L414 388Z" />
<glyph unicode=" " glyph-name="space" horiz-adv-x="389" />
<glyph unicode="!" glyph-name="exclam" horiz-adv-x="333" d="M113 665Q113 688 128 702T166 716Q187 716 203 702T219 665Q219 663 219 659T218 653L180 211Q180 188 166 188Q154 188 152 210L114 650Q114 652 114 657T113 665ZM114 32T114 53T129 90T167 106Q190
106 205 90T220 53T205 16T167 0Q144 0 129 16Z" />
<glyph unicode="&quot;" glyph-name="quotedbl" horiz-adv-x="555" d="M147 664Q147 689 161 699T193 710Q212 710 225 698T239 665L204 347H181Q179 364 171 442T155 590T147 664ZM314 665Q314 686 327 698T360 710Q381 710 393 698T406 664Q406 659 399 590T383
442T372 347H349Q348 348 331 504T314 665Z" />
<glyph unicode="#" glyph-name="numbersign" horiz-adv-x="889" d="M85 142T85 153T111 164H289L290 165L336 336H108Q85 336 85 347T108 358H343V359Q344 366 348 378T353 397L424 656Q425 658 427 665T430 676T433 683T437 690T443 692Q453 692 453 680Q453
676 436 612L366 358H581L582 359Q584 366 587 378T592 397L663 656Q664 658 666 665T669 676T672 683T676 690T682 692Q691 692 691 680Q691 676 674 612L605 358H777Q802 358 802 347T776 336H598V335L551 164H779Q802 164 802 153T779 142H545L544 141Q538 115
534 102L463 -156Q462 -158 460 -165T457 -176T454 -183T450 -190T444 -192Q435 -192 435 -180Q435 -176 452 -112L521 142H306V141Q304 134 300 122T295 103L224 -156Q223 -158 221 -165T218 -176T215 -183T211 -190T205 -192Q196 -192 196 -180Q196 -176 213
-112L283 142H110Q85 142 85 153ZM313 164H528V165L575 336H360L359 335L313 164Z" />
<glyph unicode="$" glyph-name="dollar" horiz-adv-x="555" d="M83 177Q83 202 96 215T129 228Q147 228 161 216T175 183Q175 163 163 150T129 137Q125 137 113 139Q127 87 161 57T262 20V319Q218 330 199 338Q152 358 118 404T83 513Q83 580 128 637T262 705V750H293V705Q336
702 369 688T421 655T451 612T467 569T471 530Q471 503 457 492T425 480Q406 480 393 493T379 526Q379 546 391 558T426 571Q435 571 440 570Q415 663 293 674V403Q363 387 400 355Q430 329 449 291Q471 247 471 195Q471 117 422 57T293 -10V-56H262V-11Q208 -7
170 14T115 67T90 124T83 177ZM135 543Q135 499 160 468T220 423Q238 416 262 411V674Q207 667 171 631T135 543ZM293 20Q350 27 384 69T419 165Q419 213 394 248T333 299Q327 302 321 304T306 308T293 311V20Z" />
<glyph unicode="%" glyph-name="percent" horiz-adv-x="889" d="M83 459T83 548T128 693T230 750Q251 750 271 739T310 711T353 679T411 652T491 640Q521 640 548 646T594 662T630 685T657 708T675 728T685 740Q693 748 702 748Q720 748 720 730Q720 721 695 684L210
-37Q197 -54 186 -54Q178 -54 173 -49T167 -35Q167 -28 194 12L626 654Q561 618 491 618Q410 618 339 661Q360 606 360 548Q360 465 324 406T230 347Q175 347 129 403ZM146 541Q146 449 172 410T231 370Q268 370 301 418T335 548Q335 633 302 680T232 727Q199 727
173 687T146 549V541ZM527 146Q527 234 572 290T674 347T767 287T804 145Q804 64 767 5T674 -55Q614 -55 571 3T527 146ZM590 138Q590 46 616 7T675 -33Q712 -33 745 15T779 145Q779 230 746 277T676 324Q643 324 617 284T590 147V138Z" />
<glyph unicode="&amp;" glyph-name="ampersand" horiz-adv-x="833" d="M83 223Q83 311 136 386Q97 442 97 513Q97 599 148 657T268 716Q335 716 375 669T416 565Q416 543 403 530T370 517Q350 517 337 530T324 562T337 594T370 608Q379 608 383 607Q367 653 335
673T271 694Q226 694 197 650Q167 606 167 512Q167 462 176 426Q225 461 275 461Q314 461 337 438T360 385Q360 357 338 333T275 309Q228 309 179 341Q167 297 167 228Q167 166 190 120T252 48T332 12T419 0Q486 0 537 16T617 58T665 116T690 179T696 239Q696 258
693 276T686 307T673 337T659 362T640 388T622 409T600 432T581 452H580Q571 446 551 433T519 412T495 392T475 365T469 335Q469 314 482 288H483Q490 325 524 325Q542 325 554 313T566 283T554 254T523 242Q490 242 467 270T444 335Q444 362 459 386T491 422T538
454T580 482Q643 530 664 612Q660 611 652 611Q634 611 622 622T610 652T622 682T651 694Q667 694 680 684T693 647Q693 629 689 607T663 541T602 467Q665 405 693 355T721 240Q721 202 713 167T683 97T628 36T540 -6T418 -22Q277 -22 180 48T83 223ZM199 381Q199
369 223 351T276 332Q300 332 317 346T335 385Q335 408 318 423T277 438Q248 438 224 416T199 381Z" />
<glyph unicode="&apos;" glyph-name="quotesingle" horiz-adv-x="333" d="M120 665Q120 690 134 700T166 710Q187 710 199 698T212 665Q212 657 205 594T189 454T178 347H155Q153 377 144 453T128 593T120 665Z" />
<glyph unicode="(" glyph-name="parenleft" horiz-adv-x="444" d="M127 250Q127 321 138 386T168 500T209 591T254 661T297 710T331 739T348 748Q358 748 358 740Q358 736 341 717T298 663T247 576T204 438T186 248Q186 168 198 97T226 -22T265 -111T304 -173T337
-212T354 -231Q358 -236 357 -242T348 -248T318 -230T263 -171T200 -74T149 67T127 250Z" />
<glyph unicode=")" glyph-name="parenright" horiz-adv-x="444" d="M85 -240Q85 -236 102 -217T145 -163T196 -76T239 62T257 253Q257 355 240 440T197 577T147 663T104 716T86 740Q86 748 95 748Q102 748 124 730T180 671T243 575T294 434T316 251Q316 167 301
92T263 -34T211 -129T159 -196T113 -239Q100 -248 95 -248Q85 -248 85 -240Z" />
<glyph unicode="*" glyph-name="asterisk" horiz-adv-x="555" d="M94 442Q94 455 107 464T192 506Q230 523 254 535Q111 603 103 609T94 628Q94 638 102 646T121 655Q129 655 145 644T265 556Q263 582 259 621T253 687T250 720Q250 735 259 742T277 749T295 742T304
720Q304 713 302 687T296 622T290 556Q315 575 352 602Q406 642 416 648T434 655Q444 655 452 647T461 628Q461 615 448 606T363 564Q325 547 301 535Q444 467 452 461T461 442Q461 431 453 423T434 414Q426 414 412 424T290 513Q292 488 295 448T301 382T304 349Q304
334 295 327T277 320T259 327T250 349Q250 356 252 382T259 447T265 513Q134 417 127 415Q125 414 121 414Q111 414 103 422T94 442Z" />
<glyph unicode="+" glyph-name="plus" horiz-adv-x="833" d="M85 239T85 250T108 261H405V558Q405 581 416 581Q428 581 428 558Q428 556 428 551T427 543V261H709Q710 261 715 261T723 262Q747 262 747 250T723 238Q720 238 715 238T709 239H427V-43Q427 -46
427 -51T428 -58Q428 -81 416 -81Q405 -81 405 -58V239H108Q85 239 85 250Z" />
<glyph unicode="," glyph-name="comma" horiz-adv-x="333" d="M113 53Q113 75 128 90T166 106Q200 106 215 75T230 2Q230 -48 211 -95T171 -167T140 -192T130 -183Q130 -178 142 -163T168 -130T195 -75T207 4V18Q187 0 166 0Q144 0 129 15T113 53Z" />
<glyph unicode="-" glyph-name="hyphen" horiz-adv-x="389" d="M38 186V245H304V186H38Z" />
<glyph unicode="." glyph-name="period" horiz-adv-x="333" d="M113 32T113 53T128 90T166 106Q189 106 204 90T219 53T204 16T166 0Q143 0 128 16Z" />
<glyph unicode="/" glyph-name="slash" horiz-adv-x="555" d="M85 -237Q85 -232 89 -220L434 702Q450 744 455 747Q457 748 460 748Q469 748 469 737Q469 729 466 723L113 -220Q99 -246 94 -248Q85 -248 85 -237Z" />
<glyph unicode="0" glyph-name="zero" horiz-adv-x="555" d="M69 316Q69 355 70 382T79 458T101 540T144 607T214 655Q242 666 277 666Q361 666 414 605Q486 524 486 322Q486 291 485 269T480 208T467 141T442 80T401 25T341 -11Q312 -22 277 -22Q195 -22 142
37Q69 117 69 316ZM153 294Q153 118 181 65Q214 1 277 1T373 64Q386 89 393 136T401 225T402 338Q402 452 395 507T369 591Q335 643 278 643Q214 643 180 580Q153 529 153 338V294Z" />
<glyph unicode="1" glyph-name="one" horiz-adv-x="555" d="M117 507V538Q182 539 228 576T300 667Q315 667 319 661T323 639V79Q323 47 341 39T432 31H447V0Q362 3 278 3Q261 3 123 0V31H136Q208 31 228 38T248 77Q248 79 248 83T247 89V562Q186 508 117 507Z" />
<glyph unicode="2" glyph-name="two" horiz-adv-x="555" d="M70 434Q70 487 88 538T149 627T251 666Q341 666 405 600T470 443Q470 408 453 376T406 318T349 272T285 232T236 200Q165 148 137 71Q154 78 170 78Q205 78 278 65T382 52Q428 52 454 82T485 151Q486
173 499 173Q511 173 511 154Q511 131 505 104T487 47T448 -2T387 -22Q346 -22 273 17T173 56Q168 56 158 54Q143 50 135 38T126 12T122 -11T110 -21Q98 -21 98 -1Q98 16 102 37Q107 65 117 91T142 138T170 174T200 203T227 224T249 239T262 247Q386 332 386 444Q386
492 376 529T352 587T318 621T281 639T248 644Q177 644 136 578T95 435Q95 394 109 377T140 359Q164 359 186 387T209 470Q209 493 197 512T185 536Q185 546 194 546Q206 546 219 521T232 470Q232 415 206 376T139 336Q109 336 90 361T70 434Z" />
<glyph unicode="3" glyph-name="three" horiz-adv-x="555" d="M69 140Q69 166 84 177T115 189Q134 189 147 177T161 144Q161 125 148 112T115 98Q107 98 102 99Q118 61 146 38T199 8T248 1Q270 1 290 7T334 29T372 79T387 163Q387 235 361 273Q328 320 266 320H236Q218
320 214 326Q212 330 212 336T216 346T240 350H268Q340 350 370 392T401 495Q401 576 362 610T275 644Q210 644 159 603T108 502Q108 475 122 455T159 435Q177 435 193 448T209 481Q209 499 197 515T185 536Q185 544 191 545T206 540Q232 514 232 481Q232 450 210
431T159 412Q126 412 105 439T83 503Q83 570 139 618T277 666Q360 666 415 615T471 495Q471 444 440 400T345 330Q405 309 438 262T471 162Q471 86 406 32T251 -22Q171 -22 120 27T69 140Z" />
<glyph unicode="4" glyph-name="four" horiz-adv-x="555" d="M43 19Q43 29 49 35T67 49T100 79T146 139Q193 209 222 299T257 452T267 575T270 637Q272 649 281 657T304 666Q339 666 339 623Q339 475 289 328T133 66Q139 66 151 66T169 67Q191 67 212 64T244 58T284
46T325 33V198Q325 241 360 241T395 197V17Q401 16 413 16Q439 16 464 22T493 29Q500 29 505 24T510 14Q510 2 477 -6T416 -15Q412 -15 405 -15T395 -14V-151Q395 -194 360 -194T325 -150V1Q312 4 281 14T225 30T172 36Q141 36 122 33T98 29T83 18T70 7Q65 3 59
3Q52 3 48 8T43 19Z" />
<glyph unicode="5" glyph-name="five" horiz-adv-x="555" d="M77 162Q77 190 93 202T127 214Q147 214 161 200T175 165T161 130T126 116Q115 116 109 118Q127 61 170 34T255 6Q300 6 327 30T368 83Q387 124 387 210Q387 267 378 306T340 374Q314 398 284 398Q207
398 160 334Q150 320 141 320Q128 320 128 347V638Q128 665 140 665Q143 665 161 658T212 643T283 635Q320 635 353 642T404 657T426 665Q436 665 436 656Q436 644 414 621T345 574T245 551Q206 551 159 565V369Q214 420 286 420Q369 420 422 354T476 201Q476 105
411 42T258 -22Q178 -22 128 35T77 162Z" />
<glyph unicode="6" glyph-name="six" horiz-adv-x="555" d="M69 318Q69 472 148 569T332 666Q397 666 428 633T460 561Q460 533 446 522T413 510T382 523T368 556Q368 575 381 588T415 602Q416 602 418 602T422 601Q391 641 334 641Q260 641 209 567Q177 520 168
464T159 329H160Q198 426 287 426Q365 426 424 363Q485 296 485 202Q485 114 429 50Q366 -22 279 -22Q251 -22 225 -14T169 17T119 76T83 174T69 318ZM162 225Q162 130 180 83Q191 55 215 31T279 6Q345 6 377 71Q394 106 394 203V224Q394 300 379 335Q348 404 283
404Q228 404 195 355T162 225Z" />
<glyph unicode="7" glyph-name="seven" horiz-adv-x="555" d="M44 434Q44 434 96 650Q100 665 110 665Q121 665 121 654Q121 647 115 622T106 582Q163 666 246 666Q273 666 289 648T312 608T330 568T363 549Q392 549 417 573T458 629T476 661Q482 665 485 665Q496
665 496 655Q496 651 487 630T462 571T432 481T402 349T382 177Q379 137 379 102T378 52T378 23T375 4T365 -9Q352 -22 333 -22Q317 -22 303 -11T288 29Q288 124 314 236T363 406T420 545Q388 526 363 526Q334 526 301 559T246 592Q192 592 143 552T72 443Q66 421
56 421Q52 421 48 425T44 434Z" />
<glyph unicode="8" glyph-name="eight" horiz-adv-x="555" d="M69 151Q69 266 214 335V336Q195 347 187 352T158 374T127 406T106 446T96 499Q96 570 149 618T278 666Q347 666 402 626T457 518Q457 423 337 363V362Q382 333 396 324T423 303T450 273Q485 222 485
168Q485 91 425 35T275 -22Q195 -22 132 25T69 151ZM120 151Q120 88 167 47T279 6Q338 6 386 40T434 132Q434 146 431 158T423 180T408 201T388 220T359 242T326 264T285 290T238 320Q181 291 151 247T120 151ZM141 537Q141 526 143 516T151 497T162 482T174 469T186
460T198 452L205 447Q219 438 235 428T259 412T277 400T292 391T302 386T309 382T315 381Q320 381 334 391T367 417T398 461T412 518Q412 572 371 606T276 641T182 612T141 537Z" />
<glyph unicode="9" glyph-name="nine" horiz-adv-x="555" d="M69 443Q69 546 149 617Q203 666 279 666Q306 666 332 659T386 628T436 570T471 472T485 328Q485 175 411 77T233 -22Q169 -22 132 7T94 85Q94 111 109 122T140 134Q159 134 172 121T186 88T173 56T138
43H133Q168 6 231 6Q297 6 343 70Q366 103 378 152T392 233T394 316Q357 218 266 218Q187 218 129 282Q69 348 69 443ZM159 434Q159 351 172 317Q200 241 271 241Q326 241 359 291T392 423V453Q388 571 343 614Q314 641 280 641Q206 641 174 565Q159 529 159 446V434Z"
/>
<glyph unicode=":" glyph-name="colon" horiz-adv-x="333" d="M113 32T113 53T128 90T166 106Q189 106 204 90T219 53T204 16T166 0Q143 0 128 16ZM113 356T113 377T128 414T166 430Q189 430 204 414T219 377T204 340T166 324Q143 324 128 340Z" />
<glyph unicode=";" glyph-name="semicolon" horiz-adv-x="333" d="M113 356T113 377T128 414T166 430Q189 430 204 414T219 377T204 340T166 324Q143 324 128 340ZM113 53Q113 75 128 90T166 106Q200 106 215 75T230 2Q230 -48 211 -95T171 -167T140 -192T130
-183Q130 -178 142 -163T168 -130T195 -75T207 4V18Q187 0 166 0Q144 0 129 15T113 53Z" />
<glyph unicode="&lt;" glyph-name="less" horiz-adv-x="833" d="M112 250Q112 256 117 259T141 272L683 520Q701 529 708 529Q719 529 719 519Q719 510 695 500L207 277Q158 254 149 250Q168 242 206 224L695 0L700 -2Q705 -4 708 -6T715 -11T719 -19Q719 -29
708 -29Q701 -29 683 -20L141 228Q114 244 112 250Z" />
<glyph unicode="=" glyph-name="equal" horiz-adv-x="833" d="M85 409Q85 420 105 420H726Q746 420 746 409T722 398H138Q134 398 127 398T115 397H109Q85 397 85 409ZM85 347Q85 358 105 358H726Q746 358 746 347T722 336H138Q134 336 127 336T115 335H109Q85
335 85 347Z" />
<glyph unicode="&gt;" glyph-name="greater" horiz-adv-x="833" d="M112 -19Q112 -15 115 -12T122 -6T131 -2L136 0L682 250Q654 262 624 276L136 500L131 502Q126 504 123 506T116 511T112 519Q112 529 123 529Q130 529 148 520L690 272Q717 256 719 250Q719
244 714 241T690 228L148 -20Q130 -29 123 -29Q112 -29 112 -19Z" />
<glyph unicode="?" glyph-name="question" horiz-adv-x="555" d="M83 482Q83 569 136 642T276 716Q346 716 394 668T443 551Q443 495 408 450Q395 434 265 315Q236 289 236 262Q236 241 248 226T280 210Q301 210 321 226T347 275Q350 291 361 291T372 274Q372
243 344 215T278 187Q244 187 219 214T194 284Q194 333 236 371Q256 389 283 414T323 450T352 477T375 503T389 525T399 549T401 574Q401 620 366 657T276 694Q209 694 166 642T112 520Q118 522 129 522Q150 522 162 509T175 476T162 444T129 431Q112 431 98 442T83
482ZM224 32T224 53T239 90T277 106Q300 106 315 90T330 53T315 16T277 0Q254 0 239 16Z" />
<glyph unicode="@" glyph-name="at" horiz-adv-x="833" d="M83 347Q83 498 182 602T416 706Q477 706 536 681T642 611T719 495T749 340Q749 308 748 285T741 230T725 178T694 143T646 128Q614 128 585 144T546 198Q494 128 415 128T276 190T216 347T276 504T415
567Q503 567 556 482H594Q609 482 612 477T616 459V217Q616 150 652 150Q672 150 686 164T707 196T718 243T722 291T723 337Q723 493 631 588T416 683Q291 683 200 586T108 347Q108 208 198 110T420 11Q461 11 501 16T573 31T628 49T671 66L692 76Q704 79 722 79Q746
79 746 70Q746 62 723 52Q574 -11 421 -11Q273 -11 178 95T83 347ZM286 346Q286 264 325 207T418 150Q464 150 505 187T546 262V433Q546 471 505 507T417 544Q362 544 324 487T286 346Z" />
<glyph unicode="A" glyph-name="A" horiz-adv-x="805" d="M60 0V31Q92 32 114 39T148 60T165 83T176 110Q177 113 178 115L377 692Q386 716 402 716T427 692L642 74Q652 45 669 38T740 31H745V0Q688 3 616 3T470 0V31H474Q552 31 552 60Q552 71 497 228H250Q202
90 202 82Q202 75 205 68T215 52T238 38T276 31V0Q218 3 160 3Q105 3 60 0ZM260 259H486L373 584L260 259Z" />
<glyph unicode="B" glyph-name="B" horiz-adv-x="764" d="M63 0V31H75Q132 31 149 38T166 73V609Q166 638 149 645T76 652H63V683H414Q496 683 550 656Q596 632 623 595T651 515Q651 498 646 480T624 437T571 390T480 357Q563 351 621 301T679 183T625 64T491
2Q474 0 440 0H63ZM249 70Q249 45 258 38T302 31H420Q497 31 538 77T579 184Q579 243 543 293T433 344H249V70ZM249 367H390Q436 367 470 382T522 422T546 469T554 514Q554 533 548 554T529 598T486 637T416 652H300Q271 652 260 646T249 615V367Z" />
<glyph unicode="C" glyph-name="C" horiz-adv-x="778" d="M83 188T83 342T187 600T431 705Q542 705 615 619Q669 698 674 702Q678 704 681 704Q693 704 693 682V440Q693 419 679 419Q668 419 663 428Q661 433 659 452T648 499Q639 529 623 557T581 613T520 657T442
674Q415 674 386 668T320 639T255 583T206 487T186 343Q186 265 204 204T250 107T313 48T381 17T444 9Q532 9 595 70T667 220Q669 244 673 247Q679 251 681 251Q693 251 693 229Q693 193 677 151T631 70T548 4T432 -22Q292 -22 188 83Z" />
<glyph unicode="D" glyph-name="D" horiz-adv-x="819" d="M62 0V31H74Q130 31 147 38T165 73V609Q165 637 148 644T75 652H62V683H412Q507 683 575 641Q650 595 692 513T735 337Q735 202 655 109T464 2Q448 0 414 0H62ZM251 70Q251 44 260 38T304 31H393Q522 31
586 125Q635 196 635 328V342Q635 518 552 595Q490 652 391 652H304Q273 652 262 646T251 615V70Z" />
<glyph unicode="E" glyph-name="E" horiz-adv-x="736" d="M60 0V31H73Q130 31 146 38T163 73V607Q163 635 146 642T73 650H60V680H623L651 455H626Q620 500 616 524T596 578T558 623Q517 650 404 650H322Q276 650 265 645T252 614V369H332Q407 369 428 391T450
485H475V221H450Q450 294 428 316T331 338H252V69Q252 42 263 37T325 31H418Q457 31 481 33T537 45T590 76Q609 95 623 132T642 190T654 258H679L637 0H60Z" />
<glyph unicode="F" glyph-name="F" horiz-adv-x="708" d="M60 0V31H73Q130 31 146 38T163 73V607Q163 636 146 643T73 650H60V680H610L637 455H612Q598 570 564 607Q546 627 516 637T462 648T401 650H305Q274 650 263 644T252 613V356H332Q355 356 368 357T399
363T428 383T442 421Q444 432 444 472H470V208H444Q444 280 423 302T328 325H252V81Q252 58 257 50T287 36T367 31H380V0Q296 3 211 3Q135 3 60 0Z" />
<glyph unicode="G" glyph-name="G" horiz-adv-x="840" d="M83 341Q83 496 188 600T432 705Q538 705 616 619Q672 699 677 702Q679 704 682 704Q693 704 693 682V440Q693 419 679 419Q669 419 666 424T661 444Q648 537 590 605T442 674Q412 674 381 666T314 635T251
577T205 481T186 341Q186 266 203 207T248 111T311 51T380 18T448 9Q502 9 548 34T602 103Q604 113 604 134V193Q604 225 587 233T493 241H480V272L637 270H684L763 272V241H760Q718 241 706 234T693 199V24Q693 2 684 2Q679 2 666 12Q638 35 621 64H620Q596 22
545 0T433 -22Q292 -22 188 82T83 341Z" />
<glyph unicode="H" glyph-name="H" horiz-adv-x="805" d="M60 0V31H74Q128 31 145 38T163 73V610Q163 637 147 644T71 652H60V683Q134 680 207 680T354 683V652H345Q286 652 269 645T252 607V370H551V607Q551 637 535 644T459 652H449V683Q522 680 596 680T743
683V652H730Q674 652 658 645T640 610V73Q641 46 657 39T730 31H743V0Q670 3 596 3T449 0V31H459Q519 31 535 38T551 76V340H252V76Q252 46 268 39T344 31H354V0Q280 3 207 3T60 0Z" />
<glyph unicode="I" glyph-name="I" horiz-adv-x="417" d="M55 0V31H71Q128 31 145 38T163 74V609Q163 637 146 644T70 652H55V683Q187 680 201 680Q280 680 360 683V652H345Q287 652 270 645T252 609V74Q253 47 269 39T344 31H360V0Q282 3 202 3Q187 3 55 0Z" />
<glyph unicode="J" glyph-name="J" horiz-adv-x="569" d="M69 112Q69 138 85 153T125 169Q147 169 163 153T180 114T165 75T123 58Q122 58 120 58T116 59Q158 1 226 1Q265 1 297 38T329 155V607Q329 637 308 644T214 652H196V683L363 680H410L493 683V652H489Q441
652 429 645T416 608V156Q416 108 398 72T350 16T290 -12T230 -22Q160 -22 115 18T69 112Z" />
<glyph unicode="K" glyph-name="K" horiz-adv-x="833" d="M60 0V31H72Q128 31 145 38T163 73V609Q163 638 146 645T73 652H60V683Q134 680 207 680T354 683V652H344Q283 652 268 644T252 605V288L559 580Q582 603 582 618Q582 648 537 652V683Q597 680 656 680Q702
680 749 683V652Q730 651 713 648T679 638T653 626T628 609T608 592T587 573T570 556Q435 427 427 420L655 83Q679 49 698 40T759 31H763V0L688 3H648L505 0V31Q563 31 563 61Q563 75 546 99L368 363Q265 265 262 262Q252 250 252 233V77Q252 46 267 39T345 31H354V0Q280
3 207 3T60 0Z" />
<glyph unicode="L" glyph-name="L" horiz-adv-x="680" d="M60 0V31H73Q128 31 145 38T163 73V609Q163 637 146 644T73 652H60V683Q126 680 206 680Q293 680 380 683V652H363Q293 652 273 644T252 607V69Q252 44 263 38T303 31H374Q412 31 442 38T493 56T529 85T553
120T569 164T578 209T584 258H610L582 0H60Z" />
<glyph unicode="M" glyph-name="M" horiz-adv-x="972" d="M65 0V31Q123 31 145 50T168 105V609Q168 637 151 644T76 652H65V683H235Q249 683 255 680T268 662L485 101L703 662Q709 676 715 679T735 683H906V652H893Q837 652 821 644T804 610V74Q805 46 821 39T893
31H906V0Q834 3 763 3T620 0V31H633Q689 31 706 38T723 75V653H722L698 589L478 23Q469 2 458 2T438 22L221 582Q217 593 209 614T196 647H195V106Q195 90 198 80T210 57T242 38T298 31V0Q240 3 182 3Q124 3 65 0Z" />
<glyph unicode="N" glyph-name="N" horiz-adv-x="805" d="M60 0V31Q120 31 141 50T163 106V645Q130 652 76 652H60V683H233Q242 683 247 681T254 676T263 665L613 152V578Q613 614 592 633T510 652V683Q580 680 620 680Q682 680 743 683V652Q684 652 662 634T640
578V42Q640 40 640 35T641 27Q641 1 627 1Q618 1 604 20L191 626H190V106Q190 91 193 80T205 57T237 38T293 31V0Q233 3 172 3Q162 3 60 0Z" />
<glyph unicode="O" glyph-name="O" horiz-adv-x="833" d="M83 339Q83 493 181 599T416 705Q551 705 650 599T749 339T650 82T416 -22Q282 -22 183 82T83 339ZM186 355Q186 259 208 187T267 78T340 23T416 5T491 23T565 78T623 188T646 356Q646 443 624 509T565
611T492 663T416 680T341 663T267 611T209 510T186 355Z" />
<glyph unicode="P" glyph-name="P" horiz-adv-x="736" d="M62 0V31H75Q132 31 148 38T165 73V609Q165 637 148 644T75 652H62V683H397Q493 683 556 647Q600 621 626 581T652 497Q652 430 590 373T409 315H254V76Q254 46 270 39T347 31H356V0Q282 3 209 3T62 0ZM251
342H379Q425 342 458 352T508 376T535 412T547 453T549 497Q549 522 547 539T536 579T510 617T460 641T381 652H318Q273 652 262 647T251 613V342Z" />
<glyph unicode="Q" glyph-name="Q" horiz-adv-x="833" d="M83 186T83 339T181 598T416 705Q553 705 651 599T749 340Q749 226 692 137T545 6Q555 -17 559 -26T576 -55T605 -82T641 -91Q678 -91 701 -68T730 -21L734 2Q738 9 743 9Q754 9 754 -9Q754 -35 749 -63T731
-123T693 -174T633 -194Q557 -194 530 -103Q524 -81 511 -7Q466 -22 416 -22Q281 -22 182 82ZM183 339Q183 309 185 282T197 212T223 135T272 68T349 16Q335 42 335 64Q335 96 358 122T417 148Q441 148 460 138T494 108T514 76T530 42Q648 132 648 339Q648 431
626 500T567 607T492 662T416 680T340 663T266 609T206 502T183 339ZM358 86T358 64T372 23T418 3Q455 3 505 26Q499 54 492 73T465 108T418 125Q389 125 374 106Z" />
<glyph unicode="R" glyph-name="R" horiz-adv-x="791" d="M62 0V31H75Q131 31 147 38T165 73V610Q165 637 149 644T75 652H62V683H357Q460 683 525 651Q578 625 608 586T638 503Q638 456 603 416T507 353Q499 350 463 340Q507 326 534 304T574 250T591 191T601
122T615 54Q631 1 669 1Q690 1 705 15T725 46T734 80L737 96Q740 103 748 103Q760 103 760 86Q760 74 756 58T743 23T713 -9T664 -22Q635 -22 609 -15T556 7T514 54T498 128V199Q498 251 467 290T362 330H251V76Q251 46 268 39T344 31H354V0Q280 3 208 3T62 0ZM251
353H344Q388 353 419 358T478 379T520 425T535 501Q535 575 496 613T361 652H317Q273 652 262 647T251 614V353Z" />
<glyph unicode="S" glyph-name="S" horiz-adv-x="611" d="M83 5V207Q83 227 95 227Q106 227 108 212Q113 120 164 69Q224 9 328 9Q389 9 427 52T466 154Q466 200 443 236T380 289Q367 294 298 311T213 333Q159 352 121 400T83 514Q83 594 140 649T279 705Q322
705 359 690T408 664T437 635Q476 698 481 702Q484 704 487 704Q499 704 499 678V474Q499 457 486 457Q476 457 474 469T466 512T445 574Q394 677 280 677Q220 677 182 637T143 545Q143 500 169 467T233 420Q245 416 317 399T411 371Q459 349 492 299T526 183Q526
99 471 39T328 -22Q219 -22 145 48Q106 -21 95 -21Q94 -21 93 -21T91 -20Q83 -17 83 5Z" />
<glyph unicode="T" glyph-name="T" horiz-adv-x="778" d="M63 452L83 677H693L712 452H687Q683 494 680 516T670 565T653 603T626 627T583 643T523 647H483Q455 647 444 641T432 609V78Q432 47 454 39T556 31H577V0Q470 3 400 3Q300 3 198 0V31H220Q298 31 320
39T343 78V609Q343 634 332 640T292 647H253Q210 647 182 639T137 619T110 579T96 526T88 452H63Z" />
<glyph unicode="U" glyph-name="U" horiz-adv-x="805" d="M60 652V683Q134 680 207 680T354 683V652H341Q284 652 268 644T252 608V238Q252 138 281 89Q290 74 303 59T348 26T417 9Q488 9 541 59T606 186Q610 213 610 247V579Q610 621 585 636T507 652V683Q568
680 631 680Q641 680 743 683V652Q721 652 706 650T674 641T649 619T640 579V245Q640 202 638 189Q626 101 564 40T416 -22Q316 -22 240 48T163 234V606Q163 636 147 644T69 652H60Z" />
<glyph unicode="V" glyph-name="V" horiz-adv-x="805" d="M46 652V683Q115 680 144 680H171Q244 680 316 683V652H313Q236 652 236 622Q236 616 239 608L432 100L612 576Q619 595 619 602Q619 620 602 635T546 652V683Q604 680 662 680Q701 680 758 683V652Q728
651 707 645T674 624T656 600T643 570L427 0Q419 -22 402 -22T377 0L146 610Q136 637 120 644T50 652H46Z" />
<glyph unicode="W" glyph-name="W" horiz-adv-x="1083" d="M46 652V683Q108 680 170 680Q240 680 310 683V652Q310 652 301 652Q227 652 227 622Q227 616 268 488L372 167Q374 158 380 142T388 117H389L401 157L521 524Q526 539 526 545Q526 549 507 609Q497 638
482 645T416 652V683Q492 680 533 680Q606 680 680 683V652H670Q597 652 597 620Q597 616 599 608L758 118L909 580Q913 596 913 599Q913 618 892 634T826 652V683Q884 680 942 680Q990 680 1036 683V652Q1008 651 989 645T959 624T944 600T932 569L747 3Q746 2
745 -3T742 -10T739 -15T734 -19T726 -21Q713 -21 704 4L541 504Q538 496 517 430L378 4Q369 -21 357 -21Q353 -21 350 -20T346 -18T342 -13T339 -8T337 -2T335 3L137 610Q127 639 112 645T46 652Z" />
<glyph unicode="X" glyph-name="X" horiz-adv-x="805" d="M51 0V31Q144 32 187 83Q357 327 357 339Q357 343 340 369L181 610Q161 639 143 645T65 652V683Q131 680 197 680Q268 680 340 683V652Q314 651 296 643T277 621Q277 616 411 414H412Q432 446 465 494T516
569T534 606Q534 624 518 637T473 652V683Q539 680 603 680Q640 680 711 683V652Q680 652 655 646T617 634T587 610T567 588T548 560Q435 391 434 386Q434 382 439 372L636 75Q657 44 676 38T750 31H753V0Q688 3 623 3Q552 3 478 0V31Q506 32 523 41T540 62Q540
69 524 94T379 311L245 113Q244 112 239 104T231 90T228 77Q228 60 245 46T290 31V0Q226 3 161 3Q100 3 51 0Z" />
<glyph unicode="Y" glyph-name="Y" horiz-adv-x="805" d="M39 652V683Q120 680 165 680Q241 680 316 683V652H311Q249 652 249 628Q249 618 258 603L414 349Q424 333 434 315H435L599 583Q610 601 610 613Q610 649 553 652V683Q612 680 670 680Q709 680 766 683V652Q726
652 698 639T657 611T628 570L455 289Q446 273 446 257V77Q446 46 462 39T539 31H548V0Q419 3 406 3Q331 3 256 0V31H267Q328 31 343 38T359 77V260Q359 274 349 290L155 606Q142 628 134 635T105 647T40 652H39Z" />
<glyph unicode="Z" glyph-name="Z" horiz-adv-x="667" d="M83 17Q83 25 95 44L480 652H330Q269 652 229 640T166 600T135 540T122 458H97L108 683H556Q582 683 582 667Q582 656 574 646L186 33H332Q405 33 449 45T518 90T550 160T563 267H588L571 0H106Q83 0 83 17Z" />
<glyph unicode="[" glyph-name="bracketleft" horiz-adv-x="333" d="M132 -250V750H283V727H199V-227H283V-250H132Z" />
<glyph unicode="\" glyph-name="backslash" horiz-adv-x="555" d="M85 736Q85 748 94 748T111 727L464 -218Q469 -233 469 -236Q469 -248 459 -248Q456 -248 454 -246T449 -241T446 -235T444 -229T442 -224L89 721Q85 731 85 736Z" />
<glyph unicode="]" glyph-name="bracketright" horiz-adv-x="333" d="M49 -227H132V727H49V750H200V-250H49V-227Z" />
<glyph unicode="^" glyph-name="asciicircum" horiz-adv-x="667" d="M145 483V484L332 628H333L520 484V483L506 463Q492 471 351 563Q338 571 333 571Q327 571 300 554T229 508T159 463L145 483Z" />
<glyph unicode="_" glyph-name="underscore" horiz-adv-x="833" d="M111 -233T111 -213T140 -193H690Q720 -193 720 -213T691 -233H140Q111 -233 111 -213Z" />
<glyph unicode="`" glyph-name="grave" horiz-adv-x="555" d="M128 605Q128 618 138 630T163 642Q173 642 183 634T249 571Q286 535 312 510L297 490Q147 575 139 582Q128 590 128 605Z" />
<glyph unicode="a" glyph-name="a" horiz-adv-x="555" d="M69 215Q69 310 122 376T249 442Q304 442 353 381Q354 421 388 421Q424 421 423 376V121Q423 12 472 12Q514 12 514 118V129Q514 142 517 147T526 152T536 148Q539 144 539 126Q539 57 525 23T470 -11Q442
-11 411 6T362 63Q317 -11 249 -11Q178 -11 124 53T69 215ZM153 216Q153 173 155 148T168 88T201 33Q224 12 251 12Q289 12 321 47T353 113V317Q353 348 321 383T251 419Q196 419 168 344Q153 303 153 216Z" />
<glyph unicode="b" glyph-name="b" horiz-adv-x="500" d="M-1 652V683L147 694V381Q191 442 252 442Q322 442 376 378T431 215Q431 117 377 53T251 -11Q184 -11 136 44T79 178Q77 196 77 232V599Q77 634 62 643T-1 652ZM147 223Q147 116 175 65Q205 12 250 12Q304
12 332 86Q347 127 347 215Q347 258 345 283T332 342T299 397Q276 419 250 419Q219 419 191 394T150 337Q147 330 147 308V223Z" />
<glyph unicode="c" glyph-name="c" horiz-adv-x="500" d="M69 216Q69 312 131 377T277 442Q334 442 375 413T416 338Q416 313 401 302T370 290Q350 290 337 303T324 336Q324 352 334 366T372 382Q335 419 280 419Q216 419 179 353Q153 306 153 215Q153 103 195
53Q231 11 284 11Q328 11 375 33T449 98Q460 116 466 118Q471 119 475 115T479 106Q479 97 467 79T431 40T368 4T279 -11Q190 -11 130 55T69 216Z" />
<glyph unicode="d" glyph-name="d" horiz-adv-x="555" d="M69 117T69 215T123 377T248 442Q309 442 353 381V566Q353 570 353 578T354 590Q354 632 341 642T276 652V683L423 694V121Q423 12 471 12Q495 12 505 42T515 107T517 146Q520 151 526 152T536 148Q539
145 539 126Q539 57 524 23T469 -11Q441 -11 410 6T362 63Q319 -11 248 -11Q179 -11 124 53ZM153 216Q153 173 155 148T168 88T201 33Q224 12 251 12Q289 12 321 47T353 113V317Q353 348 321 383T251 419Q196 419 168 344Q153 303 153 216Z" />
<glyph unicode="e" glyph-name="e" horiz-adv-x="500" d="M69 239Q69 328 132 385T276 442Q330 442 367 412T405 335Q405 310 395 292T364 262T323 244T273 234T223 231T174 230H153Q155 117 191 65Q228 11 281 11Q328 11 374 33T446 94Q447 95 451 103T459 114T466
118Q471 119 475 115T479 106Q479 96 466 78T430 40T367 4T280 -11Q190 -11 130 64T69 239ZM153 253H184Q220 253 246 255T304 264T353 289T371 335Q371 369 345 394T278 419Q241 419 212 397T168 341Q155 310 153 253Z" />
<glyph unicode="f" glyph-name="f" horiz-adv-x="333" d="M8 -121Q8 -100 21 -87T54 -74T86 -87T100 -119Q100 -157 57 -165V-166Q85 -183 108 -183Q150 -183 150 -103Q150 -67 143 59T128 292L121 400H35V430H120Q113 534 113 557Q113 611 124 640Q133 666 157
685T214 705Q255 705 286 681T318 620Q318 599 304 586T272 573T241 586T227 619Q227 657 269 666Q235 683 218 683Q204 683 196 676Q179 663 179 626Q179 609 181 570T186 486T190 430H294V400H192Q194 357 200 270T209 117T213 9Q213 -205 109 -205Q71 -205 40
-182T8 -121Z" />
<glyph unicode="g" glyph-name="g" horiz-adv-x="500" d="M69 125T69 221T124 379T248 442Q307 442 353 382Q354 403 365 412T388 421Q423 421 423 379V-52Q423 -96 406 -127T359 -175T302 -199T243 -206Q93 -206 93 -130Q93 -109 106 -96T139 -83Q157 -83 170
-96T184 -129Q184 -158 155 -172Q189 -183 242 -183Q285 -183 319 -153T353 -54V60Q309 0 248 0Q178 0 124 62ZM153 221Q153 181 155 156T168 98T200 45Q224 22 251 22Q285 22 319 56T353 123V320Q353 351 321 385T251 419Q221 419 200 397T168 346Q153 306 153
221Z" />
<glyph unicode="h" glyph-name="h" horiz-adv-x="555" d="M-1 652V683L147 694V364Q190 442 278 442Q339 442 381 404T424 274Q424 229 416 158T408 78Q408 12 447 12Q470 12 490 38T515 130Q516 153 527 153Q532 153 536 148T540 135Q540 105 533 75T503 17T444
-11Q399 -11 370 21T340 93Q340 94 347 163T354 279Q354 419 274 419Q216 419 182 374T147 283V37Q147 -11 112 -11T77 35V597Q77 633 63 642T3 652H-1Z" />
<glyph unicode="i" glyph-name="i" horiz-adv-x="333" d="M15 296Q15 326 22 356T52 414T112 442Q155 442 185 410T216 336Q216 325 201 211T185 77Q185 12 224 12Q231 12 239 15T258 26T278 56T290 108Q291 114 291 122T291 135T293 144T296 150T304 152Q317
152 317 135Q317 105 310 75T280 17T221 -11Q177 -11 147 20T117 95Q117 106 132 220T147 353Q147 419 109 419Q102 419 94 416T75 405T54 375T42 322Q42 318 42 310T41 298T39 288T36 281T28 278Q15 278 15 296ZM120 597T120 615T133 647T166 661Q186 661 199
647T212 615Q212 598 199 584T166 570Q146 570 133 583Z" />
<glyph unicode="j" glyph-name="j" horiz-adv-x="333" d="M0 -129Q0 -108 13 -96T46 -83T78 -96T92 -129Q92 -161 58 -173Q84 -183 99 -183Q133 -183 160 -152T187 -44V309Q187 419 136 419Q108 419 88 399T59 354T44 307L38 284Q35 279 29 279T19 282Q16 286
18 306Q29 362 59 402T139 442Q178 442 217 412T257 313V-36Q257 -110 220 -152Q174 -206 102 -206Q60 -206 30 -185T0 -129ZM165 597T165 615T178 647T210 661Q230 661 243 647T256 615Q256 598 243 584T211 570Q191 570 178 583Z" />
<glyph unicode="k" glyph-name="k" horiz-adv-x="500" d="M-1 652V683L147 694V260Q170 273 192 297T230 345T265 391T307 428T360 442Q399 442 421 417T444 361Q444 336 429 325T398 314Q380 314 367 327T353 360Q353 368 355 377T369 395T398 406V407L396 408Q394
409 391 411T383 415T372 418T358 419Q323 419 293 388T232 313T175 250Q226 245 262 232T315 204T342 170T353 139T355 111Q355 107 355 105Q360 12 406 12Q434 12 446 40T459 106T462 145Q468 156 478 151Q485 147 485 130Q485 -11 404 -11Q361 -11 326 22T286
111Q284 154 264 177Q230 217 147 228V33Q147 -11 112 -11T77 34V593Q77 631 65 641T3 652H-1Z" />
<glyph unicode="l" glyph-name="l" horiz-adv-x="278" d="M-1 652V683L147 694V125Q147 12 195 12Q238 12 238 119V126Q236 153 251 153Q263 153 263 133Q263 103 262 84T254 40T233 2T193 -11Q154 -11 116 19T77 116V596Q77 633 63 642T-1 652Z" />
<glyph unicode="m" glyph-name="m" horiz-adv-x="889" d="M15 298Q15 330 17 351T25 395T47 429T86 441Q118 441 151 420T197 356Q212 381 223 395T264 426T333 442Q378 442 416 420T470 346Q513 442 610 442Q671 442 713 404T756 274Q756 228 749 157T741 77Q741
12 779 12Q803 12 819 32T839 74T846 120L849 144Q852 152 861 152Q873 152 873 135Q873 105 866 75T835 17T775 -11Q732 -11 702 21T672 95Q672 96 679 163T686 281Q686 419 605 419Q547 419 513 373T479 290V33Q479 -11 444 -11Q420 -11 411 13Q409 19 409 42V278Q409
419 329 419Q296 419 270 404T231 367T211 329T203 303Q202 298 202 275V34Q202 -11 167 -11Q143 -11 134 13Q132 19 132 41V303Q132 418 84 418Q70 418 61 408T48 381T43 349T41 315T40 291Q39 278 27 278T15 298Z" />
<glyph unicode="n" glyph-name="n" horiz-adv-x="611" d="M15 303Q15 333 17 353T25 396T47 430T85 442Q117 442 149 421T197 355Q244 442 333 442Q394 442 436 404T479 274Q479 223 471 156T463 78Q463 12 501 12Q525 12 545 39T569 128Q571 153 581 153Q584
153 589 150Q595 146 595 135Q595 105 588 75T558 17T498 -11Q456 -11 425 20T394 94Q394 97 401 166T409 278Q409 419 328 419Q270 419 236 374T201 285V32Q201 7 190 -2T166 -11Q131 -11 131 37V312Q131 418 83 418Q58 418 49 387T40 320T35 281Q30 278 27 278Q15
278 15 303Z" />
<glyph unicode="o" glyph-name="o" horiz-adv-x="555" d="M69 215Q69 312 131 377T277 442Q364 442 424 375T485 215Q485 118 423 54T277 -11Q190 -11 130 55T69 215ZM153 214Q153 135 171 93Q184 61 211 37T277 12Q326 12 361 55Q402 106 402 218Q402 293 384
337Q371 369 343 394T277 419Q228 419 193 375Q153 326 153 214Z" />
<glyph unicode="p" glyph-name="p" horiz-adv-x="555" d="M15 305Q15 374 30 408T85 442Q156 442 193 367Q237 442 307 442Q378 442 431 377T485 215Q485 117 431 53T306 -11Q246 -11 202 50H201V-114Q201 -147 212 -155T274 -163H279V-194Q242 -192 167 -192Q104
-192 73 -194V-163H83Q112 -162 121 -156T131 -123V320Q131 369 118 394T84 419Q77 419 71 416Q58 410 51 392T43 356T41 316T40 292Q39 281 31 279T19 282Q15 286 15 305ZM201 113Q201 82 234 47T304 12Q334 12 355 34T387 86Q402 127 402 215Q402 257 400 283T387
342T353 397Q329 419 303 419Q265 419 233 384T201 317V113Z" />
<glyph unicode="q" glyph-name="q" horiz-adv-x="500" d="M69 215Q69 314 123 378T248 442Q312 442 359 373Q369 400 386 419T413 439Q423 439 423 412V-120Q423 -148 435 -155T492 -163H501V-194Q465 -192 391 -192Q314 -192 276 -194V-163H281Q330 -163 341
-155T353 -114V50Q309 -11 248 -11Q178 -11 124 53T69 215ZM153 216Q153 173 155 148T168 88T201 33Q224 12 252 12Q290 12 321 47T353 113V317Q353 348 321 383T251 419Q228 419 209 404T182 374T168 344Q153 303 153 216Z" />
<glyph unicode="r" glyph-name="r" horiz-adv-x="458" d="M15 297Q15 327 16 347T24 392T46 429T85 442Q113 442 144 425T193 366Q207 390 217 402T251 428T308 442Q354 442 392 422T430 361Q430 341 417 328T384 314Q364 314 351 327T338 360Q338 378 348 389T373
405Q340 419 307 419Q278 419 256 405T223 371T207 333T201 304V32Q201 -11 166 -11Q139 -11 133 13Q131 19 131 41V307Q131 401 95 416Q80 422 66 413Q51 403 46 373T41 315T36 282Q33 278 28 278Q15 278 15 297Z" />
<glyph unicode="s" glyph-name="s" horiz-adv-x="444" d="M55 106Q55 128 68 140T101 153T134 141T147 108Q147 92 136 77T97 62H95Q141 11 223 11Q292 11 318 40T345 104Q345 129 328 152T281 187Q264 194 226 201T179 211Q142 221 113 250T83 325Q83 370 115
406T220 442Q280 442 319 412T359 339Q359 318 347 308T322 298Q307 298 296 309T285 336Q285 370 323 373Q286 419 220 419Q175 419 150 398T125 347Q125 323 141 302T187 272Q196 270 231 263T274 254Q319 242 353 209T387 124Q387 72 350 31T223 -11Q152 -11
104 21T55 106Z" />
<glyph unicode="t" glyph-name="t" horiz-adv-x="361" d="M-13 400V430H104V582Q104 626 139 626T174 581V430H292V400H174V123Q174 12 225 12Q234 12 245 16T270 30T298 66T318 127Q323 147 327 150Q333 154 339 151T345 138Q345 130 340 110T322 60T284 10T222
-11Q206 -11 189 -6T151 13T117 53T104 120V400H-13Z" />
<glyph unicode="u" glyph-name="u" horiz-adv-x="583" d="M15 296Q15 317 19 340T34 387T64 426T112 442Q155 442 185 410T216 337Q216 331 209 270T201 170Q201 82 229 47T293 12Q327 12 350 36T380 83Q381 86 381 112V378Q381 398 384 407Q392 430 416 430Q451
430 451 382V120Q451 12 499 12Q517 12 527 29T539 66T541 111T542 139Q543 149 550 151T563 148Q567 144 567 126Q567 57 552 23T497 -11Q434 -11 393 54Q356 -11 289 -11Q263 -11 239 -4T189 22T147 80T131 173Q131 214 139 277T147 353Q147 419 109 419Q84 419
64 392T41 303Q40 277 28 277Q23 277 19 282T15 296Z" />
<glyph unicode="v" glyph-name="v" horiz-adv-x="500" d="M15 295Q15 350 38 396T112 442Q157 442 186 410T216 336Q216 327 209 268T202 170Q202 84 233 48T305 12Q337 12 361 34T396 92T413 165T419 239Q419 304 369 350Q365 354 356 361T343 372T336 383T332
399Q332 414 344 428T374 442Q396 442 414 418Q444 378 444 252Q444 179 431 122T385 27T302 -11Q275 -11 249 -4T195 22T150 79T132 175Q132 210 139 275T147 353Q147 419 109 419Q85 419 65 392T41 304Q41 303 41 299T40 293T39 288T37 283T34 280T28 278Q15
278 15 295Z" />
<glyph unicode="w" glyph-name="w" horiz-adv-x="722" d="M15 296Q15 327 22 357T52 415T112 442Q153 442 184 411T216 336Q216 329 209 270T202 173Q202 84 235 48T311 12Q342 12 357 32T381 90Q367 129 367 180V384Q367 430 402 430T437 382V186Q437 129 446
95Q455 62 478 37T541 12Q597 12 619 71T641 237Q641 274 628 302T598 343T568 370T554 399Q554 414 566 428T596 442Q633 442 652 387Q666 347 666 245Q666 121 638 55T538 -11Q448 -11 397 57Q373 -11 309 -11Q277 -11 249 -3T193 25T149 84T132 176Q132 210
139 274T147 354Q147 419 109 419Q85 419 65 391T41 302Q39 278 28 278Q15 278 15 296Z" />
<glyph unicode="x" glyph-name="x" horiz-adv-x="508" d="M15 295Q15 345 48 393T142 442Q222 442 268 365Q294 442 357 442Q397 442 431 421T465 361Q465 340 452 327T420 314T388 327T374 360Q374 393 411 405V406Q382 419 356 419Q288 419 288 309V143Q288
73 312 41Q335 12 369 12Q394 12 417 29T453 76Q461 93 464 110T468 137T473 150Q478 155 485 151T492 136Q492 86 459 38T365 -11Q297 -11 253 44L238 66Q217 -11 151 -11Q109 -11 76 11T42 69Q42 89 54 102T87 116Q106 116 119 103T133 70Q133 34 97 25Q126 12
151 12Q218 12 218 122V159Q218 174 218 204T219 249V284Q219 358 194 390Q169 419 139 419Q101 419 73 386T41 299Q39 283 34 280Q28 275 22 280T15 295Z" />
<glyph unicode="y" glyph-name="y" horiz-adv-x="528" d="M15 296Q15 316 19 338T33 385T63 426T112 442Q154 442 185 411T216 336Q216 331 209 270T202 170Q202 82 229 47T293 12Q327 12 350 35T379 81Q381 88 381 111V387Q381 430 416 430T451 383V18Q451 -13
449 -29Q439 -101 389 -153T264 -206Q207 -206 171 -173T134 -99Q134 -77 147 -65T180 -52T212 -64T226 -97Q226 -114 215 -128T177 -143H175Q213 -183 261 -183Q307 -183 344 -139T381 13V34Q342 -11 289 -11Q263 -11 239 -4T189 22T148 79T132 173Q132 214 139
277T147 353Q147 419 109 419Q84 419 65 393T41 301Q41 278 29 278Q15 278 15 296Z" />
<glyph unicode="z" glyph-name="z" horiz-adv-x="444" d="M70 333Q70 372 97 406T165 441Q196 441 238 404T303 367Q324 367 337 385T359 422T375 441Q385 441 385 430T378 405Q355 350 312 295T217 182T137 81Q154 86 168 86Q192 86 236 73T304 59Q339 59 367
78T402 136Q405 152 415 152Q427 152 427 135Q427 84 394 37T306 -11Q279 -11 255 7T208 44T165 63Q124 63 100 7Q92 -10 83 -10Q72 -10 72 0Q72 11 79 25Q102 79 143 132T237 243T318 345Q312 344 302 344Q277 344 233 358T165 372Q136 372 118 360T96 336L93
323Q90 317 82 317Q70 317 70 333Z" />
<glyph unicode="{" glyph-name="braceleft" horiz-adv-x="555" d="M101 250Q101 257 108 259T131 264T163 271Q220 292 237 343Q242 358 242 384V602Q242 643 253 665Q273 705 323 726T435 750Q453 750 453 739Q453 732 447 730T426 726T401 721Q363 710 342 686T316
646T312 613V379Q312 279 193 250Q237 240 269 214T310 149Q312 138 312 114V-103Q312 -131 316 -145T330 -174T368 -206T435 -227Q453 -229 453 -239Q453 -250 435 -250Q396 -250 358 -240T285 -204T244 -137Q242 -127 242 -107V113Q242 148 229 173T195 212T157
230T122 238Q101 240 101 250Z" />
<glyph unicode="|" glyph-name="bar" horiz-adv-x="333" d="M146 -219V720Q146 749 166 749T186 719V-219Q186 -249 166 -249T146 -219Z" />
<glyph unicode="}" glyph-name="braceright" horiz-adv-x="555" d="M101 -239Q101 -232 106 -230T126 -226T152 -221Q190 -211 212 -187T238 -146T242 -113V115Q242 134 244 147T257 181T293 219T361 250Q319 263 293 281T256 320T244 354T242 385V609Q242 623
239 637T225 672T187 708T118 727Q101 729 101 739Q101 750 119 750Q158 750 196 740T269 704T310 637Q312 627 312 607V387Q312 324 348 295T432 262Q453 260 453 250Q453 243 446 241T423 236T391 229Q312 199 312 118V-102Q312 -144 301 -166Q281 -206 230 -228T119
-250Q101 -250 101 -239Z" />
<glyph unicode="~" glyph-name="asciitilde" horiz-adv-x="667" d="M110 589Q112 591 122 603T137 621T155 637T177 653T203 663T235 668Q270 668 337 644T439 620H440Q492 620 537 668L554 653Q551 650 541 638T526 621T512 607T495 593T477 584T454 576T429
574Q394 574 327 598T225 622H224Q172 622 127 574L110 589Z" />
</font>
</defs>
</svg>
