<?xml version="1.0" standalone="no"?> <!DOCTYPE svg PUBLIC "-//W3C//DTD SVG 1.0//EN" "http://www.w3.org/TR/2001/REC-SVG-20010904/DTD/svg10.dtd" > <svg xmlns="http://www.w3.org/2000/svg" width="100%" height="100%">
<defs >
<font id="cmunvt" horiz-adv-x="463" ><font-face
    font-family="CMU Typewriter Text Variable Width"
    units-per-em="1000"
    panose-1="2 0 6 3 0 0 0 0 0 0"
    ascent="827"
    descent="-233"
    alphabetic="0" />
<missing-glyph horiz-adv-x="525" d="M10 10V765H515V10H10ZM70 112L232 388L70 663V112ZM105 70H420L262 337L105 70ZM105 705L262 438L420 705H105ZM292 388L455 112V663L292 388Z" />
<glyph unicode=" " glyph-name="space" horiz-adv-x="350" />
<glyph unicode="!" glyph-name="exclam" horiz-adv-x="292" d="M95 50Q95 72 110 86T145 100Q167 100 181 85T195 50Q195 31 181 16T145 0Q123 0 109 15T95 50ZM95 569Q95 595 111 608T145 622Q164 622 179 609T195 568L186 216Q185 183 149 183H142Q128 183 120
186T109 198T106 214T104 238L95 569Z" />
<glyph unicode="&quot;" glyph-name="quotedbl" horiz-adv-x="525" d="M129 575Q129 597 142 609T174 621Q191 621 204 609T218 575L206 368Q203 335 186 330Q181 328 174 328Q146 328 142 365Q140 394 137 446T132 535T129 575ZM305 579Q305 596 318 608T350
621Q365 621 379 610T394 575Q394 572 392 536T386 449T381 368Q380 356 379 350T371 336T349 328Q318 328 318 365Q315 412 312 467T307 548T305 579Z" />
<glyph unicode="#" glyph-name="numbersign" horiz-adv-x="875" d="M58 199T58 230T96 261H269L306 350H94Q73 350 66 360T58 381Q58 412 98 412H333Q409 594 413 599Q422 610 437 610Q449 610 458 602T467 580Q467 573 400 412H564Q640 594 644 599Q653 610 668
610Q680 610 689 602T698 580Q698 573 631 412H772Q815 412 815 381T777 350H604L567 261H779Q800 261 807 251T815 230Q815 199 775 199H541Q466 20 460 11Q451 0 437 0Q424 0 415 9T406 31Q406 38 474 199H310Q235 20 229 11Q220 0 205 0Q192 0 184 9T175 31Q175
38 243 199H101Q58 199 58 230ZM336 261H500L538 350H373L336 261Z" />
<glyph unicode="$" glyph-name="dollar" horiz-adv-x="525" d="M58 168Q58 194 72 205T102 216Q121 216 134 204T147 172Q147 160 141 150T135 134Q135 127 139 115T168 84T231 58V288Q176 299 139 320T85 368T64 413T58 451Q58 506 101 554T231 615V653Q231 662
231 665T234 677T243 690T262 694Q293 694 293 654V615Q373 606 419 566T466 455Q466 430 452 419T421 407Q403 407 390 419T377 452Q377 459 379 465T383 475T388 482L391 485Q369 544 293 553V347Q378 333 422 282T466 172Q466 110 420 59T293 -3V-42Q293 -83
262 -83T231 -43V-4Q153 2 106 50T58 168ZM123 456Q123 425 150 398T231 360V552Q182 545 153 517T123 456ZM293 59Q344 68 372 100T401 167T374 233T293 275V59Z" />
<glyph unicode="%" glyph-name="percent" horiz-adv-x="875" d="M58 500Q58 582 101 638T204 694T307 639T350 499Q350 417 307 361T204 305T101 360T58 500ZM114 499Q114 443 141 405T204 366T266 404T294 500Q294 556 267 594T204 633T142 595T114 499ZM169
-48Q169 -38 179 -22L639 676Q651 694 670 694Q685 694 695 684T705 659Q705 647 695 633L236 -62Q223 -83 204 -83Q190 -83 180 -73T169 -48ZM524 112Q524 194 567 250T670 306T773 251T816 111Q816 29 773 -27T670 -83T567 -28T524 112ZM580 111Q580 55 607 17T670
-22T732 16T760 112Q760 168 733 206T670 245T608 207T580 111Z" />
<glyph unicode="&amp;" glyph-name="ampersand" horiz-adv-x="816" d="M44 138Q44 204 103 247Q116 257 160 287T210 322Q176 402 176 479Q176 546 219 584T314 622Q369 622 402 580T435 485Q435 441 399 399T284 299Q331 212 419 135Q463 178 495 224T588 370H512Q472
370 472 400Q472 414 479 421T493 430T512 431H724Q736 431 742 430T756 422T764 400Q764 370 724 370H655L572 236Q554 207 523 167Q492 125 466 99Q538 50 610 50Q644 50 671 64T702 105Q705 138 730 138Q734 138 738 137T750 128T758 106Q758 61 718 25T610
-11Q521 -11 421 58Q334 -11 234 -11Q155 -11 100 31T44 138ZM113 140Q113 102 148 76T235 50Q305 50 375 98Q347 121 305 171Q259 226 238 266Q162 217 138 195T113 140ZM232 479Q232 417 257 356Q379 440 379 485Q379 512 362 536T314 561Q286 561 259 541T232
479Z" />
<glyph unicode="&apos;" glyph-name="quotesingle" horiz-adv-x="292" d="M100 575Q100 596 113 608T145 621Q164 621 176 609T189 575Q189 572 187 536T181 449T176 368Q176 367 176 364T175 358T175 352T173 346T171 341T167 336T161 332T154 329T145 328T136
329T129 332T124 336T120 341T117 346T115 352T114 357T114 362L113 365Q111 394 108 446T103 535T100 575Z" />
<glyph unicode="(" glyph-name="parenleft" horiz-adv-x="408" d="M85 306Q85 378 106 444T158 554T223 631T282 679T318 694Q335 694 342 685T349 666Q349 659 346 654T340 646T326 636Q263 593 223 532T168 417T154 306Q154 213 195 125T324 -23Q335 -31 339
-33T346 -41T349 -54Q349 -63 342 -72T318 -82Q298 -82 251 -44T166 47Q85 163 85 306Z" />
<glyph unicode=")" glyph-name="parenright" horiz-adv-x="408" d="M58 -54Q58 -39 81 -24Q173 38 213 127T253 306Q253 338 248 372T226 455T171 553T74 641Q58 651 58 666Q58 675 65 684T89 694Q109 694 156 656T241 565Q322 449 322 306Q322 234 301 168T249
58T184 -19T125 -67T89 -82Q73 -82 66 -73T58 -54Z" />
<glyph unicode="*" glyph-name="asterisk" horiz-adv-x="525" d="M68 214Q68 223 72 230T80 239T93 247L201 306L92 365Q68 378 68 397Q68 409 77 419T101 430Q110 430 124 421L232 358Q229 397 229 479Q229 521 262 521T295 479Q295 397 292 358L416 430Q456
430 456 397Q456 379 431 364L323 305Q330 301 357 287T408 261T442 241Q456 234 456 214Q456 202 447 192T423 181Q413 181 386 197Q301 248 292 253Q295 214 295 132Q295 90 262 90T229 132Q229 214 232 253L108 181Q68 181 68 214Z" />
<glyph unicode="+" glyph-name="plus" horiz-adv-x="816" d="M58 305Q58 337 101 337H377V612Q377 625 379 632Q386 655 408 655T437 632Q439 625 439 612V337H711Q757 337 757 305Q757 283 735 276Q732 275 715 275H439V-1Q439 -44 408 -44Q386 -44 379 -21Q377
-14 377 -1V275H101Q84 275 81 276Q58 283 58 305Z" />
<glyph unicode="," glyph-name="comma" horiz-adv-x="291" d="M87 -108Q87 -95 102 -82Q140 -51 146 0Q124 2 112 14T98 34T96 50Q96 71 110 85T146 100Q172 100 190 78T208 10Q208 -49 175 -94T119 -139Q107 -139 97 -129T87 -108Z" />
<glyph unicode="-" glyph-name="hyphen" horiz-adv-x="350" d="M11 216Q11 246 47 246H256Q290 246 290 215Q290 185 255 185H46Q11 185 11 216Z" />
<glyph unicode="." glyph-name="period" horiz-adv-x="292" d="M95 50Q95 72 110 86T145 100Q167 100 181 85T195 50Q195 31 181 16T145 0Q123 0 109 15T95 50Z" />
<glyph unicode="/" glyph-name="slash" horiz-adv-x="525" d="M58 -53Q58 -44 67 -26L404 669Q418 694 435 694Q447 694 456 686T465 664Q465 656 458 640L121 -57Q107 -83 89 -83Q77 -83 68 -75T58 -53Z" />
<glyph unicode="0" glyph-name="zero" horiz-adv-x="525" d="M50 306Q50 329 50 345T55 396T66 458T89 517T127 571T183 607T262 622Q474 622 474 305Q474 282 474 266T469 215T458 153T435 94T397 40T341 4T262 -11Q50 -11 50 306ZM119 315Q119 50 262 50T405
315Q405 561 262 561T119 315Z" />
<glyph unicode="1" glyph-name="one" horiz-adv-x="525" d="M105 530Q105 559 134 561Q216 565 253 605Q267 622 281 622Q311 622 311 581V61H402Q414 61 420 60T434 52T442 30Q442 0 402 0H151Q111 0 111 30Q111 44 118 51T132 60T151 61H242V524Q197 500 140
500Q105 500 105 530Z" />
<glyph unicode="2" glyph-name="two" horiz-adv-x="525" d="M52 31Q52 45 67 58L288 244Q403 340 403 427Q403 490 357 525T244 561Q203 561 171 540T127 484Q141 473 141 452Q141 432 128 420T97 407Q81 407 67 418T52 455Q52 521 107 571T249 622Q343 622 407
569T472 427Q472 324 363 227Q339 205 264 143T165 61H403Q403 79 404 86T413 101T438 108Q461 108 466 98T472 67V41Q472 17 464 9T432 0H93Q52 0 52 31Z" />
<glyph unicode="3" glyph-name="three" horiz-adv-x="525" d="M44 136Q44 159 57 171T89 183T120 170T133 139Q133 120 121 108Q138 77 181 64T264 50Q329 50 370 87T411 174Q411 222 371 260T261 299H215Q203 299 197 300T183 308T175 330Q175 350 187 355T247
363Q307 366 340 393Q382 427 382 480Q382 514 349 537T264 561Q184 561 153 530Q162 521 162 503Q162 483 149 471T118 458T87 470T73 505Q73 558 123 590T263 622Q346 622 398 581T451 481Q451 439 430 400T367 334Q418 311 449 269T480 174Q480 101 420 45T264
-11Q170 -11 107 29T44 136Z" />
<glyph unicode="4" glyph-name="four" horiz-adv-x="525" d="M29 209Q29 231 38 244L266 602Q275 617 282 620T308 623H336Q361 623 369 615T377 582V230H455Q467 230 473 229T487 221T495 199Q495 169 455 169H377V61H439Q451 61 457 60T471 52T479 30Q479 0
439 0H259Q219 0 219 30Q219 44 226 51T240 60T259 61H321V169H69Q45 169 37 177T29 209ZM99 230H321V579L99 230Z" />
<glyph unicode="5" glyph-name="five" horiz-adv-x="525" d="M52 142Q52 168 66 179T97 190Q114 190 127 178T141 145Q141 126 128 113Q160 50 248 50Q312 50 357 90T403 190Q403 243 369 285T276 328Q192 328 150 278Q138 263 120 263Q105 263 98 270T89 284T88
304V570Q88 594 96 602T128 611H397Q409 611 415 610T429 602T437 580Q437 550 397 550H157V360Q211 389 277 389Q362 389 417 329T472 190Q472 107 407 48T248 -11Q165 -11 109 34T52 142Z" />
<glyph unicode="6" glyph-name="six" horiz-adv-x="525" d="M53 299Q53 444 133 533T321 622Q388 622 421 592T454 519Q454 497 441 485T409 472T378 485T365 516Q365 535 375 545Q359 561 320 561Q250 561 192 500T124 338Q188 396 273 396Q356 396 413 337T471
193Q471 105 410 47T264 -11Q224 -11 189 5T122 54T72 151T53 299ZM132 222Q132 212 135 191L134 182L135 178Q136 175 137 169T140 160Q176 50 264 50Q320 50 361 90T402 193Q402 251 365 292T268 334Q211 334 172 302T132 222Z" />
<glyph unicode="7" glyph-name="seven" horiz-adv-x="525" d="M44 544V586Q44 599 45 606T54 620T78 627Q104 627 110 611H440Q452 611 458 610T472 602T480 580Q480 570 477 565T458 546Q435 523 412 497T357 421T300 317T258 187T239 29Q239 9 229 -1T205 -11Q170
-11 170 36Q170 84 178 138T208 263T272 409T377 550H113Q113 532 112 525T103 510T78 503Q55 503 50 513T44 544Z" />
<glyph unicode="8" glyph-name="eight" horiz-adv-x="525" d="M44 174Q44 228 84 270T183 329Q124 348 91 383T58 462Q58 525 116 573T262 622T407 574T466 462Q466 419 434 384T341 329Q400 312 440 270T480 174Q480 100 418 45T262 -11Q170 -11 107 44T44 174ZM113
175Q113 123 156 87T262 50T367 86T411 175Q411 224 370 261T262 299Q197 299 155 261T113 175ZM127 461Q127 419 167 390T262 360T357 389T397 461Q397 501 358 531T262 561Q204 561 166 531T127 461Z" />
<glyph unicode="9" glyph-name="nine" horiz-adv-x="525" d="M53 418Q53 506 116 564T265 622Q303 622 337 607T403 559T452 462T471 312Q471 169 395 79T216 -11Q171 -11 140 0T95 29T76 62T70 92Q70 114 83 126T115 139T146 126T159 95Q159 78 150 67Q172 50
216 50Q287 50 339 114T400 273Q336 215 251 215Q168 215 111 274T53 418ZM122 418Q122 360 159 319T256 277Q316 277 354 311T393 389Q393 394 391 405T389 419Q389 422 389 424T390 428Q390 432 386 446T373 481T352 518Q318 561 265 561Q208 561 165 521T122
418Z" />
<glyph unicode=":" glyph-name="colon" horiz-adv-x="291" d="M96 29T96 50T110 85T146 100T181 86T196 50T182 15T146 0T111 14ZM96 360T96 381T110 416T146 431T181 417T196 381T182 346T146 331T111 345Z" />
<glyph unicode=";" glyph-name="semicolon" horiz-adv-x="292" d="M87 -108Q87 -95 102 -82Q140 -51 146 0Q124 2 112 14T98 34T96 50Q96 71 110 85T146 100Q172 100 190 78T208 10Q208 -49 175 -94T119 -139Q107 -139 97 -129T87 -108ZM95 380Q95 399 109 414T145
430Q167 430 181 415T195 380T181 345T146 330Q124 330 110 345T95 380Z" />
<glyph unicode="&lt;" glyph-name="less" horiz-adv-x="816" d="M87 306Q87 327 122 340L678 547Q690 551 698 551Q710 551 719 543T728 521Q728 498 692 486L206 305Q226 299 236 295L692 125L696 124Q699 123 701 122T708 119T715 114T722 108T726 100T728 89Q728
79 720 70T698 60Q691 60 679 64L122 271Q87 283 87 306Z" />
<glyph unicode="=" glyph-name="equal" horiz-adv-x="816" d="M58 230Q58 240 66 250T92 261H718Q757 261 757 230T716 199H98Q82 199 73 205T61 218T58 230ZM58 381Q58 412 99 412H716Q757 412 757 381T720 350H95Q74 350 66 360T58 381Z" />
<glyph unicode="&gt;" glyph-name="greater" horiz-adv-x="816" d="M87 521Q87 535 97 543T118 551Q125 551 137 547L693 340Q728 328 728 306Q728 283 694 271L137 64Q125 60 118 60Q106 60 97 69T88 90Q88 101 94 108T105 117T123 125L609 306Q599 309 579 317L123
486Q111 490 106 493T94 503T87 521Z" />
<glyph unicode="?" glyph-name="question" horiz-adv-x="495" d="M58 495Q58 545 104 581T238 617Q297 617 338 605T400 572T428 532T437 493Q437 433 377 398Q329 369 301 333T273 241V224Q273 199 265 192T233 184Q205 184 199 194T193 236Q193 263 196 282T213
331T257 389T337 448Q368 469 368 493Q368 520 336 538T238 556Q166 556 137 521Q147 509 147 493Q147 473 134 461T103 448Q85 448 72 460T58 495ZM183 29T183 50T197 85T233 100T268 86T283 50T269 15T233 0T198 14Z" />
<glyph unicode="@" glyph-name="at" horiz-adv-x="700" d="M58 178T58 306T160 525T406 617Q641 617 641 316Q641 214 582 160T452 106Q375 106 320 164T264 306Q264 388 319 446T453 505Q509 505 557 472Q537 514 503 533Q464 556 406 556Q286 556 200 483T114
305Q114 204 199 130T407 55Q494 55 570 98Q586 108 603 108Q641 108 641 80Q641 68 635 62T613 48Q518 -6 408 -6Q261 -6 160 86ZM320 305Q320 249 358 208T453 167Q506 167 545 207T585 306Q585 362 547 403T452 444Q399 444 360 404T320 305Z" />
<glyph unicode="A" glyph-name="A" horiz-adv-x="758" d="M41 31Q41 61 81 61H127L316 590Q322 605 332 613T349 622T369 623H388Q402 623 409 622T425 613T441 589L630 61H676Q688 61 694 60T708 52T716 30Q716 0 676 0H517Q476 0 476 31Q476 61 517 61H557L517
172H240L200 61H240Q281 61 281 30Q281 0 240 0H81Q69 0 63 1T49 9T41 31ZM262 233H495L378 559L262 233Z" />
<glyph unicode="B" glyph-name="B" horiz-adv-x="729" d="M46 30Q46 44 53 51T67 60T86 61H140V550H86Q46 550 46 580Q46 594 53 601T67 610T86 611H409Q507 611 574 565T641 456Q641 406 597 371T492 320Q575 305 622 263T670 167Q670 100 603 50T437 0H86Q46
0 46 30ZM209 61H409Q488 61 544 92T601 169Q601 216 550 251T425 287H209V61ZM209 348H375Q461 348 516 380T572 455Q572 493 525 521T407 550H209V348Z" />
<glyph unicode="C" glyph-name="C" horiz-adv-x="758" d="M58 306Q58 434 159 528T408 622Q541 622 620 560Q633 588 638 597Q644 611 650 616T669 622Q699 622 699 581V442Q699 429 698 422T689 408T664 401Q636 401 631 424Q626 445 622 457T600 490T555 527Q497
561 415 561Q293 561 210 485T127 306Q127 202 210 126T417 50Q503 50 559 78Q582 89 597 102T618 129T627 151T630 172Q632 201 664 201Q699 201 699 168Q699 90 621 40T410 -11Q259 -11 159 83T58 306Z" />
<glyph unicode="D" glyph-name="D" horiz-adv-x="787" d="M46 30Q46 44 53 51T67 60T86 61H140V550H86Q46 550 46 580Q46 594 53 601T67 610T86 611H408Q540 611 634 520T728 300Q728 177 635 89T408 0H86Q46 0 46 30ZM209 61H390Q503 61 581 131T659 301Q659
401 582 475T389 550H209V61Z" />
<glyph unicode="E" glyph-name="E" horiz-adv-x="700" d="M46 30Q46 44 53 51T67 60T86 61H140V550H86Q46 550 46 580Q46 594 53 601T67 610T86 611H601Q626 611 633 603T641 570V497Q641 484 640 477T631 463T606 456Q583 456 578 466T572 497V550H209V347H408Q408
372 409 381T418 397T443 404Q466 404 471 394T477 363V270Q477 257 476 250T467 236T443 229Q419 229 414 240T408 286H209V61H601V130Q601 143 602 150T611 164T636 171Q659 171 664 161T670 130V41Q670 17 662 9T630 0H86Q46 0 46 30Z" />
<glyph unicode="F" glyph-name="F" horiz-adv-x="670" d="M46 30Q46 44 53 51T67 60T86 61H140V550H86Q46 550 46 580Q46 594 53 601T67 610T86 611H586Q611 611 618 603T626 570V497Q626 484 625 477T616 463T591 456Q568 456 563 466T557 497V550H209V336H402Q402
361 403 370T412 386T437 393Q460 393 465 383T471 352V259Q471 246 470 239T461 225T437 218Q413 218 408 229T402 275H209V61H287Q299 61 305 60T319 52T327 30Q327 0 287 0H86Q46 0 46 30Z" />
<glyph unicode="G" glyph-name="G" horiz-adv-x="816" d="M58 306Q58 434 159 528T408 622Q541 622 620 560Q633 588 638 597Q644 611 650 616T669 622Q699 622 699 581V442Q699 429 698 422T689 408T664 401Q636 401 631 424Q626 445 622 457T600 490T555 527Q497
561 415 561Q294 561 211 486T127 305T210 125T411 50Q492 50 552 94T627 209H539Q527 209 521 210T507 218T499 240Q499 270 539 270H731Q772 270 772 239Q772 209 731 209H699V41Q699 28 698 21T689 7T665 0T641 7T631 21T630 41V77Q542 -11 406 -11Q262 -11
160 82T58 306Z" />
<glyph unicode="H" glyph-name="H" horiz-adv-x="758" d="M46 30Q46 44 53 51T67 60T86 61H140V550H86Q46 550 46 580Q46 594 53 601T67 610T86 611H263Q275 611 281 610T295 602T303 580Q303 550 263 550H209V348H548V550H494Q454 550 454 580Q454 594 461 601T475
610T494 611H671Q683 611 689 610T703 602T711 580Q711 550 671 550H617V61H671Q683 61 689 60T703 52T711 30Q711 0 671 0H494Q454 0 454 30Q454 44 461 51T475 60T494 61H548V287H209V61H263Q275 61 281 60T295 52T303 30Q303 0 263 0H86Q46 0 46 30Z" />
<glyph unicode="I" glyph-name="I" horiz-adv-x="350" d="M41 30Q41 44 48 51T62 60T81 61H140V550H81Q41 550 41 580Q41 594 48 601T62 610T81 611H268Q280 611 286 610T300 602T308 580Q308 550 268 550H209V61H268Q280 61 286 60T300 52T308 30Q308 0 268 0H81Q41
0 41 30Z" />
<glyph unicode="J" glyph-name="J" horiz-adv-x="525" d="M71 99Q71 122 84 134T116 146T147 133T160 102Q160 86 152 76Q181 50 237 50Q249 50 261 52T293 62T325 90T338 140V550H256Q215 550 215 581Q215 611 256 611H437Q478 611 478 581Q478 550 437 550H407V134Q407
68 357 29T237 -11Q163 -11 117 20T71 99Z" />
<glyph unicode="K" glyph-name="K" horiz-adv-x="787" d="M53 30Q53 44 60 51T74 60T93 61H147V550H93Q53 550 53 580Q53 594 60 601T74 610T93 611H257Q269 611 275 610T289 602T297 580Q297 550 257 550H203V262L557 550Q535 550 526 551T510 559T502 581Q502
611 542 611H687Q728 611 728 580Q728 550 687 550H647L409 357L666 61H702Q743 61 743 30Q743 0 702 0H576Q536 0 536 30Q536 45 543 52T560 60T592 61L365 322L203 190V61H257Q269 61 275 60T289 52T297 30Q297 0 257 0H93Q53 0 53 30Z" />
<glyph unicode="L" glyph-name="L" horiz-adv-x="641" d="M46 30Q46 44 53 51T67 60T86 61H140V550H86Q46 550 46 580Q46 594 53 601T67 610T86 611H287Q299 611 305 610T319 602T327 580Q327 550 287 550H209V61H528V130Q528 144 529 151T538 164T563 171Q586
171 591 161T597 130V41Q597 17 589 9T557 0H86Q46 0 46 30Z" />
<glyph unicode="M" glyph-name="M" horiz-adv-x="933" d="M53 30Q53 44 60 51T74 60T93 61H147V550H93Q53 550 53 580Q53 594 60 601T74 610T93 611H189Q214 611 225 604T247 574L466 75L685 576Q692 592 703 600T721 610T743 611H839Q851 611 857 610T871 602T879
580Q879 550 839 550H785V61H839Q851 61 857 60T871 52T879 30Q879 0 839 0H675Q663 0 657 1T643 9T635 31Q635 61 675 61H729V545H728L510 46Q494 11 466 11Q437 11 422 48L204 545H203V61H257Q269 61 275 60T289 52T297 30Q297 0 257 0H93Q53 0 53 30Z" />
<glyph unicode="N" glyph-name="N" horiz-adv-x="758" d="M53 30Q53 44 60 51T74 60T93 61H147V550H93Q53 550 53 580Q53 594 60 601T74 610T93 611H188Q202 611 210 610T230 601T251 577L553 51H554V550H500Q460 550 460 580Q460 594 467 601T481 610T500 611H664Q676
611 682 610T696 602T704 580Q704 550 664 550H610V41Q610 15 602 8T569 0Q555 0 547 1T527 10T506 34L204 560H203V61H257Q269 61 275 60T289 52T297 30Q297 0 257 0H93Q53 0 53 30Z" />
<glyph unicode="O" glyph-name="O" horiz-adv-x="816" d="M58 306Q58 434 159 528T408 622Q554 622 656 529T758 305Q758 177 657 83T408 -11Q262 -11 160 82T58 306ZM127 317Q127 208 209 129T408 50T607 129T689 317Q689 417 607 489T408 561T209 489T127 317Z" />
<glyph unicode="P" glyph-name="P" horiz-adv-x="700" d="M46 30Q46 44 53 51T67 60T86 61H140V550H86Q46 550 46 580Q46 594 53 601T67 610T86 611H394Q499 611 570 557T641 428T570 300T394 245H209V61H263Q275 61 281 60T295 52T303 30Q303 0 263 0H86Q46 0
46 30ZM209 306H377Q458 306 515 342T572 428Q572 478 516 514T377 550H209V306Z" />
<glyph unicode="Q" glyph-name="Q" horiz-adv-x="816" d="M58 306Q58 434 159 528T408 622Q554 622 656 529T758 305Q758 284 755 263T741 209T712 147T659 86T578 28L686 -91Q708 -115 708 -122Q708 -139 677 -139Q659 -139 651 -136T631 -121L532 -12L517 4Q514
4 510 2Q458 -11 408 -11Q262 -11 160 82T58 306ZM127 305Q127 201 208 126T408 50Q441 50 471 56L390 149Q390 160 394 164T403 170T422 171Q439 171 443 170T457 160Q461 156 469 146T495 118T533 77Q603 108 646 170T689 306Q689 410 608 485T408 561Q291 561
209 486T127 305Z" />
<glyph unicode="R" glyph-name="R" horiz-adv-x="758" d="M46 30Q46 44 53 51T67 60T86 61H140V550H86Q46 550 46 580Q46 594 53 601T67 610T86 611H354Q464 611 545 562T626 443Q626 402 596 366T511 307Q548 289 567 261Q581 240 584 223T587 161Q587 137 587
126T590 97T598 71T614 57T641 50Q658 50 670 61T685 95Q688 125 719 125Q754 125 754 94Q754 55 723 22T641 -11Q577 -11 544 34Q526 59 522 82T518 157Q518 205 513 220T478 252Q432 275 352 275H209V61H263Q275 61 281 60T295 52T303 30Q303 0 263 0H86Q46 0
46 30ZM209 336H345Q428 336 492 366T557 443T493 519T345 550H209V336Z" />
<glyph unicode="S" glyph-name="S" horiz-adv-x="583" d="M58 30V162Q58 175 59 182T68 196T93 203Q108 203 116 197T125 186T127 170Q131 109 182 78Q231 50 316 50Q381 50 420 84T459 162Q459 181 451 199T436 225T427 233Q404 253 386 259T317 277L274 286Q219
298 197 303T151 320T107 350Q58 397 58 458Q58 524 116 573T264 622Q366 622 426 571Q438 606 443 614T465 622Q495 622 495 581V449Q495 436 494 429T485 415T460 408Q446 408 439 413T429 423T425 440Q402 561 263 561Q202 561 163 531T123 462Q123 422 156
398T222 367L370 336Q437 322 480 274T524 166Q524 96 467 43T315 -11Q193 -11 127 37Q119 14 116 7T106 -6T88 -11Q58 -11 58 30Z" />
<glyph unicode="T" glyph-name="T" horiz-adv-x="758" d="M38 497V570Q38 595 46 603T79 611H679Q704 611 711 603T719 570V497Q719 484 718 477T709 463T684 456Q661 456 656 466T650 497V550H413V61H506Q547 61 547 30Q547 0 506 0H251Q210 0 210 31Q210 61
251 61H344V550H107V497Q107 484 106 477T97 463T72 456Q49 456 44 466T38 497Z" />
<glyph unicode="U" glyph-name="U" horiz-adv-x="758" d="M46 580Q46 594 53 601T67 610T86 611H263Q275 611 281 610T295 602T303 580Q303 550 263 550H209V212Q209 134 261 92T379 50Q442 50 495 92T548 212V550H494Q454 550 454 580Q454 594 461 601T475 610T494
611H671Q683 611 689 610T703 602T711 580Q711 550 671 550H617V206Q617 114 547 52T378 -11Q281 -11 211 51T140 206V550H86Q46 550 46 580Z" />
<glyph unicode="V" glyph-name="V" horiz-adv-x="758" d="M28 581Q28 611 68 611H222Q263 611 263 580Q263 550 222 550H183L379 51L574 550H535Q494 550 494 580Q494 611 535 611H689Q701 611 707 610T721 602T729 580Q729 550 689 550H648L443 27Q437 11 428
3T411 -6T388 -8H369Q342 -8 332 -1T314 28L109 550H68Q56 550 50 551T36 559T28 581Z" />
<glyph unicode="W" glyph-name="W" horiz-adv-x="1050" d="M24 581Q24 611 65 611H200Q241 611 241 580Q241 550 200 550H158L310 43L471 577Q478 600 489 605T525 611Q540 611 547 610T564 601T579 577L739 43L891 550H849Q808 550 808 580Q808 611 849 611H984Q1025
611 1025 580Q1025 550 984 550H950L793 26Q786 3 774 -2T739 -8Q712 -8 702 -1T685 30L524 562L364 29Q356 4 345 -2T310 -8Q271 -8 260 14L99 550H65Q24 550 24 581Z" />
<glyph unicode="X" glyph-name="X" horiz-adv-x="758" d="M42 30Q42 61 83 61H132L332 324L149 550H100Q59 550 59 581Q59 611 100 611H256Q297 611 297 580Q297 550 256 550H237L371 382L496 550H474Q433 550 433 581Q433 611 474 611H630Q671 611 671 580Q671
550 630 550H581L410 324L622 61H672Q713 61 713 30Q713 0 672 0H515Q475 0 475 30Q475 44 482 51T496 60T515 61H536L371 273L216 61H239Q280 61 280 30Q280 0 239 0H83Q42 0 42 30Z" />
<glyph unicode="Y" glyph-name="Y" horiz-adv-x="758" d="M30 581Q30 611 71 611H227Q268 611 268 580Q268 550 227 550H204L378 314L553 550H530Q489 550 489 581Q489 611 530 611H686Q727 611 727 580Q727 550 686 550H638L413 244V61H467Q479 61 485 60T499
52T507 30Q507 0 467 0H290Q250 0 250 30Q250 44 257 51T271 60T290 61H344V244L119 550H71Q30 550 30 581Z" />
<glyph unicode="Z" glyph-name="Z" horiz-adv-x="641" d="M58 34Q58 52 70 65L486 550H142V497Q142 484 141 477T132 463T107 456Q84 456 79 466T73 497V570Q73 595 81 603T114 611H542Q555 611 562 610T576 601T583 577Q583 559 571 546L155 61H520V133Q520 146
521 153T530 167T555 174Q578 174 583 164T589 133V41Q589 17 581 9T549 0H99Q86 0 79 1T65 10T58 34Z" />
<glyph unicode="[" glyph-name="bracketleft" horiz-adv-x="297" d="M110 -45V658Q110 694 146 694H237Q274 694 274 663T238 632H180V-22H239Q274 -22 274 -52Q274 -83 237 -83H147Q110 -83 110 -45Z" />
<glyph unicode="\" glyph-name="backslash" horiz-adv-x="525" d="M58 663Q58 676 68 685T89 694Q93 694 96 693T102 691T107 688T111 684T115 678T118 673T121 668T123 663L456 -24Q465 -42 465 -53Q465 -66 456 -74T435 -83Q414 -83 399 -50L67 638Q58 659 58 663Z" />
<glyph unicode="]" glyph-name="bracketright" horiz-adv-x="297" d="M22 -53Q22 -22 57 -22H116V632H57Q22 632 22 663T59 694H146Q171 694 178 686T186 656V-47Q186 -83 150 -83H59Q22 -83 22 -53Z" />
<glyph unicode="^" glyph-name="asciicircum" horiz-adv-x="642" d="M100 462Q100 481 132 494Q314 565 320 565H321Q327 565 508 494Q540 483 540 463Q540 453 532 438T507 422H506Q497 422 412 459T320 496Q317 496 231 459T133 422Q116 422 108 437T100 462Z" />
<glyph unicode="_" glyph-name="underscore" horiz-adv-x="816" d="M87 -60Q87 -53 89 -47T101 -33T129 -25H687Q704 -25 714 -32T726 -47T728 -60Q728 -72 719 -83T689 -95H131Q87 -95 87 -60Z" />
<glyph unicode="`" glyph-name="grave" horiz-adv-x="525" d="M108 604Q108 619 118 629T142 639H144Q150 639 293 577Q321 564 321 546Q321 533 312 520T288 506H287Q282 506 139 568Q129 573 125 575T115 586T108 604Z" />
<glyph unicode="a" glyph-name="a" horiz-adv-x="510" d="M53 128Q53 196 130 235T344 277Q344 328 311 353T221 379Q196 379 184 378T170 375T167 367Q166 343 153 332T123 321Q104 321 91 333T78 367Q78 440 220 440Q316 440 364 394T413 285V69Q431 61 469
61Q509 61 509 31Q509 16 502 9T486 1T460 0Q377 0 355 32Q300 -6 213 -6Q143 -6 98 33T53 128ZM122 128Q122 98 149 77T221 55Q270 55 305 71Q323 79 332 91T342 111T344 134V218Q233 214 178 189T122 128Z" />
<glyph unicode="b" glyph-name="b" horiz-adv-x="583" d="M17 580Q17 594 24 601T38 610T57 611H140Q165 611 172 603T180 570V383Q242 437 325 437Q414 437 476 372T538 216Q538 123 472 59T314 -6Q235 -6 180 53Q180 37 180 30T176 14T166 3T146 0Q130 0 122
7T112 21T111 41V550H57Q17 550 17 580ZM180 195Q180 147 216 101T310 55Q374 55 421 101T469 216Q469 281 426 328T319 376Q265 376 223 342T180 262V195Z" />
<glyph unicode="c" glyph-name="c" horiz-adv-x="466" d="M44 216Q44 252 56 288T95 360T168 418T276 440Q425 440 425 367Q425 346 412 334T380 321Q337 321 336 370Q336 379 276 379Q229 379 195 361T144 315T120 263T113 216Q113 148 159 102T270 55Q341 55
369 115Q374 129 381 133T402 137Q437 137 437 109Q437 100 429 84T404 46T349 9T264 -6Q171 -6 108 59T44 216Z" />
<glyph unicode="d" glyph-name="d" horiz-adv-x="583" d="M44 215Q44 308 109 372T268 437Q344 437 402 386V550H348Q336 550 330 551T316 559T308 581Q308 611 348 611H431Q456 611 463 603T471 570V61H525Q537 61 543 60T557 52T565 30Q565 0 525 0H442Q417
0 410 8T402 41V58Q343 -6 257 -6Q170 -6 107 58T44 215ZM113 215Q113 149 156 102T262 55Q322 55 362 101T402 197V263Q402 308 364 342T273 376Q208 376 161 329T113 215Z" />
<glyph unicode="e" glyph-name="e" horiz-adv-x="466" d="M38 218Q38 309 99 374T248 440Q337 440 387 381T437 228Q437 215 434 207T425 196T413 192T397 191H109Q119 131 165 93T269 55Q344 55 369 115Q374 129 381 133T402 137Q437 137 437 109Q437 78 392
36T263 -6Q169 -6 104 59T38 218ZM110 251H366Q361 321 327 350T248 379Q198 379 159 343T110 251Z" />
<glyph unicode="f" glyph-name="f" horiz-adv-x="320" d="M17 30Q17 44 24 51T38 60T57 61H111V370H68Q28 370 28 400Q28 431 69 431H111V484Q111 546 157 581T267 617Q362 617 362 557Q362 537 349 525T319 513T293 523T279 543T275 556Q258 556 247 555T218
547T190 523T180 478V431H261Q273 431 279 430T293 422T301 400Q301 370 261 370H180V61H258Q270 61 276 60T290 52T298 30Q298 0 258 0H57Q17 0 17 30Z" />
<glyph unicode="g" glyph-name="g" horiz-adv-x="525" d="M29 -82Q29 -3 103 42Q80 73 80 114Q80 153 100 182Q68 223 68 277Q68 342 116 389T233 437Q286 437 330 407Q377 442 436 442Q473 442 491 426T509 388Q509 368 497 358T469 347Q458 347 446 355T430
381Q397 378 372 364Q398 321 398 277Q398 210 350 163T233 116Q180 116 143 141Q137 126 137 113Q137 92 149 77Q161 63 182 63Q190 61 211 61H281Q372 61 426 32Q461 13 478 -18T495 -82Q495 -145 427 -187T262 -229T97 -188T29 -82ZM87 -82Q87 -116 138 -142T262
-169T386 -143T437 -82Q437 -52 420 -33T367 -7T306 2T235 4Q178 4 162 2T128 -12Q87 -38 87 -82ZM137 276Q137 236 165 206T233 176Q272 176 300 205T329 277Q329 317 301 347T233 377Q194 377 166 348T137 276Z" />
<glyph unicode="h" glyph-name="h" horiz-adv-x="583" d="M17 30Q17 44 24 51T38 60T57 61H111V550H57Q17 550 17 580Q17 594 24 601T38 610T57 611H140Q165 611 172 603T180 570V380Q242 437 327 437Q471 437 471 291V61H525Q537 61 543 60T557 52T565 30Q565
0 525 0H348Q336 0 330 1T316 9T308 31Q308 61 348 61H402V285Q402 332 386 354T321 376Q290 376 260 364T205 319T180 237V61H234Q246 61 252 60T266 52T274 30Q274 0 234 0H57Q17 0 17 30Z" />
<glyph unicode="i" glyph-name="i" horiz-adv-x="291" d="M17 30Q17 44 24 51T38 60T57 61H111V370H62Q21 370 21 401Q21 431 62 431H140Q165 431 172 423T180 390V61H224Q265 61 265 30Q265 0 225 0H57Q17 0 17 30ZM80 541T80 562T94 597T130 612T165 598T180
562T166 527T130 512T95 526Z" />
<glyph unicode="j" glyph-name="j" horiz-adv-x="320" d="M-46 -152Q-46 -131 -33 -119T-1 -106Q43 -106 43 -159Q43 -162 44 -162Q48 -167 74 -167Q140 -167 140 -43V370H77Q36 370 36 401Q36 431 77 431H169Q194 431 201 423T209 390V-47Q209 -88 198 -126T153
-196T71 -228Q17 -228 -14 -208T-46 -152ZM109 541T109 562T123 597T159 612T194 598T209 562T195 527T159 512T124 526Z" />
<glyph unicode="k" glyph-name="k" horiz-adv-x="554" d="M24 30Q24 44 31 51T45 60T64 61H118V550H64Q24 550 24 580Q24 594 31 601T45 610T64 611H134Q159 611 166 603T174 570V216L348 370H308Q268 370 268 400Q268 414 275 421T289 430T308 431H472Q513 431
513 400Q513 370 472 370H433L303 255L460 61H495Q536 61 536 30Q536 0 495 0H369Q357 0 351 1T337 9T329 31Q329 61 369 61H388L261 218L174 141V61H228Q240 61 246 60T260 52T268 30Q268 0 228 0H64Q24 0 24 30Z" />
<glyph unicode="l" glyph-name="l" horiz-adv-x="291" d="M17 30Q17 44 24 51T38 60T57 61H111V550H57Q17 550 17 580Q17 594 24 601T38 610T57 611H140Q165 611 172 603T180 570V61H234Q246 61 252 60T266 52T274 30Q274 0 234 0H57Q17 0 17 30Z" />
<glyph unicode="m" glyph-name="m" horiz-adv-x="875" d="M17 30Q17 44 24 51T38 60T57 61H111V370H57Q17 370 17 400Q17 414 24 421T38 430T57 431H140Q168 431 174 421T180 380Q243 437 327 437Q426 437 458 366Q525 437 619 437Q764 437 764 291V61H818Q830
61 836 60T850 52T858 30Q858 0 818 0H641Q601 0 601 30Q601 44 608 51T622 60T641 61H695V285Q695 333 679 354T613 376Q562 376 517 342T472 237V61H526Q538 61 544 60T558 52T566 30Q566 0 526 0H349Q309 0 309 30Q309 44 316 51T330 60T349 61H403V285Q403
333 387 354T321 376Q270 376 225 342T180 237V61H234Q246 61 252 60T266 52T274 30Q274 0 234 0H57Q17 0 17 30Z" />
<glyph unicode="n" glyph-name="n" horiz-adv-x="583" d="M17 30Q17 44 24 51T38 60T57 61H111V370H57Q17 370 17 400Q17 414 24 421T38 430T57 431H140Q168 431 174 421T180 380Q242 437 327 437Q471 437 471 291V61H525Q537 61 543 60T557 52T565 30Q565 0 525
0H348Q336 0 330 1T316 9T308 31Q308 61 348 61H402V285Q402 332 386 354T321 376Q290 376 260 364T205 319T180 237V61H234Q246 61 252 60T266 52T274 30Q274 0 234 0H57Q17 0 17 30Z" />
<glyph unicode="o" glyph-name="o" horiz-adv-x="525" d="M38 216Q38 308 103 374T262 440T420 374T486 216Q486 123 421 59T262 -6T104 58T38 216ZM107 223Q107 154 152 105T262 55Q326 55 371 104T417 223Q417 289 371 334T262 379T153 334T107 223Z" />
<glyph unicode="p" glyph-name="p" horiz-adv-x="583" d="M17 -192Q17 -178 24 -171T38 -162T57 -161H111V370H57Q17 370 17 400Q17 414 24 421T38 430T57 431H140Q168 431 174 422T180 383Q242 437 325 437Q414 437 476 372T538 216Q538 123 472 59T314 -6Q235
-6 180 53V-161H234Q246 -161 252 -162T266 -170T274 -192Q274 -222 234 -222H57Q17 -222 17 -192ZM180 195Q180 147 216 101T310 55Q374 55 421 101T469 216Q469 281 426 328T319 376Q265 376 223 342T180 262V195Z" />
<glyph unicode="q" glyph-name="q" horiz-adv-x="554" d="M44 215Q44 308 110 372T268 437Q343 437 402 378V396Q402 409 403 416T412 430T437 437Q460 437 465 427T471 396V-161H525Q537 -161 543 -162T557 -170T565 -192Q565 -222 525 -222H348Q336 -222 330
-221T316 -213T308 -191Q308 -161 348 -161H402V57Q337 -6 257 -6Q170 -6 107 58T44 215ZM113 215Q113 149 156 102T262 55Q322 55 362 100T402 195V232Q402 286 366 331T272 376Q208 376 161 330T113 215Z" />
<glyph unicode="r" glyph-name="r" horiz-adv-x="408" d="M17 30Q17 44 24 51T38 60T57 61H111V370H57Q17 370 17 400Q17 414 24 421T38 430T57 431H140Q168 431 174 421T180 376Q232 437 303 437Q338 437 358 418T378 375Q378 356 366 344T336 332Q322 332 309
341T294 375Q257 371 231 342T192 274T180 188V61H258Q270 61 276 60T290 52T298 30Q298 0 258 0H57Q17 0 17 30Z" />
<glyph unicode="s" glyph-name="s" horiz-adv-x="414" d="M35 35V131Q35 144 36 151T45 165T70 172Q98 172 104 147Q110 127 115 114T132 86T163 63T210 55Q222 55 234 56T268 63T303 85T317 125Q317 152 295 169T241 193Q224 193 180 204Q35 231 35 322Q35 339
41 357T64 395T116 427T203 440Q258 440 293 420Q300 440 322 440Q352 440 352 399V330Q352 317 351 310T342 296T317 289Q303 289 295 294T286 306T283 321Q282 332 280 339T270 357T245 373T201 379Q148 379 122 363T96 322Q96 294 126 282T227 257Q378 229 378
125Q378 74 338 34T209 -6Q142 -6 100 28Q92 -6 65 -6Q35 -6 35 35Z" />
<glyph unicode="t" glyph-name="t" horiz-adv-x="408" d="M19 400Q19 431 60 431H111V513Q111 526 112 533T121 547T146 554Q169 554 174 544T180 513V431H291Q303 431 309 430T323 422T331 400Q331 370 291 370H180V129Q180 55 229 55Q250 55 265 73T280 126Q280
138 281 144T290 158T314 165T338 158T348 145T349 125Q349 68 313 31T225 -6Q181 -6 146 24T111 123V370H59Q19 370 19 400Z" />
<glyph unicode="u" glyph-name="u" horiz-adv-x="583" d="M17 400Q17 414 24 421T38 430T57 431H140Q165 431 172 423T180 390V121Q180 105 181 97T191 78T219 61T271 55Q289 55 307 58T348 70T387 101T402 157V370H348Q336 370 330 371T316 379T308 401Q308 431
348 431H431Q456 431 463 423T471 390V61H525Q537 61 543 60T557 52T565 30Q565 0 525 0H442Q429 0 423 1T409 10T402 35Q349 -6 265 -6Q111 -6 111 115V370H57Q17 370 17 400Z" />
<glyph unicode="v" glyph-name="v" horiz-adv-x="554" d="M26 400Q26 414 33 421T47 430T66 431H206Q247 431 247 400Q247 370 206 370H165L277 42L388 370H347Q306 370 306 401Q306 431 347 431H487Q499 431 505 430T519 422T527 400Q527 370 487 370H447L332
30Q325 7 312 2T277 -4Q261 -4 254 -3T237 6T221 31L106 370H66Q26 370 26 400Z" />
<glyph unicode="w" glyph-name="w" horiz-adv-x="758" d="M23 401Q23 431 64 431H199Q240 431 240 400Q240 370 199 370H155L242 52L335 395Q341 415 350 423T381 431Q397 431 407 425T420 414T426 396L518 60L602 370H558Q517 370 517 401Q517 431 558 431H693Q734
431 734 400Q734 370 693 370H660L567 30Q561 7 550 2T515 -4Q485 -4 476 5T459 45Q431 147 418 198L380 360Q377 330 356 246T315 90T293 15Q283 -4 244 -4Q227 -4 219 -3T203 7T189 32L97 370H64Q23 370 23 401Z" />
<glyph unicode="x" glyph-name="x" horiz-adv-x="554" d="M28 30Q28 61 69 61H119L245 223L126 370H76Q35 370 35 401Q35 431 76 431H216Q228 431 234 430T248 422T256 400Q256 370 216 370H195L274 270L349 370H327Q286 370 286 401Q286 431 327 431H467Q479
431 485 430T499 422T507 400Q507 370 467 370H417L302 223L433 61H483Q524 61 524 30Q524 0 483 0H343Q331 0 325 1T311 9T303 31Q303 61 343 61H366L273 186L184 61H209Q221 61 227 60T241 52T249 30Q249 0 209 0H69Q28 0 28 30Z" />
<glyph unicode="y" glyph-name="y" horiz-adv-x="554" d="M20 -146Q20 -126 32 -114T64 -102Q82 -102 94 -114T107 -146Q107 -151 106 -156T105 -162Q105 -167 120 -167Q207 -167 239 -62Q259 -5 261 0L110 370H69Q28 370 28 401Q28 431 69 431H209Q221 431 227
430T241 422T249 400Q249 370 209 370H171L266 132Q282 90 289 69L387 370H346Q306 370 306 400Q306 414 313 421T327 430T346 431H487Q499 431 505 430T519 422T527 400Q527 370 487 370H447L292 -83Q273 -138 227 -183T118 -228Q76 -228 48 -204T20 -146Z" />
<glyph unicode="z" glyph-name="z" horiz-adv-x="466" d="M29 35Q29 48 32 55L321 370H113V344Q113 331 112 324T103 310T78 303Q55 303 50 313T44 344V390Q44 415 52 423T85 431H378Q391 431 398 430T412 421T419 396Q419 384 416 376L127 61H353V99Q353 112
354 119T363 133T388 140Q411 140 416 130T422 99V41Q422 17 414 9T382 0H70Q57 0 50 1T36 10T29 35Z" />
<glyph unicode="{" glyph-name="braceleft" horiz-adv-x="525" d="M56 305Q56 330 78 335Q79 335 95 335T131 338T171 346T207 362T226 389Q227 396 227 409V568Q227 629 274 661T432 694Q467 694 467 664Q467 641 450 636T395 630T329 617Q297 604 297 570V409Q297
337 239 306V305Q297 273 297 202V45Q297 32 297 27T306 11T333 -7Q359 -17 395 -18T449 -25T467 -52Q467 -82 434 -83H423Q317 -81 272 -49T227 42V202Q227 215 226 222T217 240T191 258Q164 270 128 271T74 278T56 305Z" />
<glyph unicode="|" glyph-name="bar" horiz-adv-x="292" d="M110 -42V648Q110 659 111 665Q113 676 122 685T145 694Q151 694 158 692T172 680T180 653V-37Q180 -49 179 -55Q177 -65 168 -74T145 -83Q139 -83 132 -81T118 -68T110 -42Z" />
<glyph unicode="}" glyph-name="braceright" horiz-adv-x="525" d="M56 -52Q56 -31 73 -24Q75 -23 112 -22T184 -10T225 23Q227 30 227 46V202Q227 222 229 236T244 270T284 305V306Q227 337 227 403V565Q227 579 225 586T212 606T171 624T92 632Q56 632 56 663Q56
693 89 694H101Q208 692 252 660T297 568V409Q297 399 297 396T301 381T312 365T334 352T373 341T431 336H432Q467 336 467 306Q467 281 445 276Q444 276 420 274T372 269T325 254T298 222Q297 215 297 202V43Q297 -27 243 -54T91 -83Q56 -83 56 -52Z" />
<glyph unicode="~" glyph-name="asciitilde" horiz-adv-x="642" d="M87 522Q87 533 107 553Q171 611 233 611Q272 611 328 584T410 557Q443 557 478 583T522 610Q533 610 543 601T553 579Q553 564 536 550Q471 490 408 490Q370 490 313 517T230 545Q198 545 163
518T119 491Q107 491 97 500T87 522Z" />
</font>
</defs>
</svg>
