<?xml version="1.0" standalone="no"?> <!DOCTYPE svg PUBLIC "-//W3C//DTD SVG 1.0//EN" "http://www.w3.org/TR/2001/REC-SVG-20010904/DTD/svg10.dtd" > <svg xmlns="http://www.w3.org/2000/svg" width="100%" height="100%">
<defs >
<font id="cmunvi" horiz-adv-x="526" ><font-face
    font-family="CMU Typewriter Text Variable Width"
    units-per-em="1000"
    panose-1="2 0 6 3 0 0 0 0 0 0"
    ascent="827"
    descent="-233"
    alphabetic="0" />
<missing-glyph horiz-adv-x="525" d="M10 10V765H515V10H10ZM70 112L232 388L70 663V112ZM105 70H420L262 337L105 70ZM105 705L262 438L420 705H105ZM292 388L455 112V663L292 388Z" />
<glyph unicode=" " glyph-name="space" horiz-adv-x="433" />
<glyph unicode="!" glyph-name="exclam" horiz-adv-x="375" d="M149 45Q149 67 166 83T204 100Q223 100 236 88T250 55Q250 33 233 17T194 0Q175 0 162 13T149 45ZM200 212Q200 217 202 225L277 567L278 570Q279 574 280 578T284 589T291 601T302 611T316 619T335
622Q354 622 367 609T380 578Q380 570 375 550L284 222Q281 210 280 206T274 195T262 186T243 183H236Q200 183 200 212Z" />
<glyph unicode="&quot;" glyph-name="quotedbl" horiz-adv-x="608" d="M275 356Q275 363 311 557L312 562Q313 568 313 571T316 582T320 593T327 603T336 612T348 618T364 621Q381 621 393 610T405 581Q405 573 339 362Q339 361 338 357T335 350T331 343T325 335T317
330T305 328Q292 328 284 335T275 356ZM450 356Q450 360 487 557L488 562Q489 568 489 571T492 582T496 593T503 603T512 612T524 618T540 621Q558 621 569 610T581 581Q581 572 515 362Q515 361 514 357T511 350T507 343T501 335T493 330T481 328Q467 328 459
336T450 356Z" />
<glyph unicode="#" glyph-name="numbersign" horiz-adv-x="958" d="M158 230Q158 261 194 261H354Q370 262 376 267Q380 272 432 350H232Q195 350 195 381T235 412H474L587 581Q588 582 591 587T597 596T603 602T612 608T623 610Q636 610 645 601T654 580Q654
572 648 562T603 494Q571 446 548 412H705L818 582L820 586Q823 590 824 591T828 596T833 602T839 606T846 609T854 610Q867 610 876 601T885 580Q885 572 879 562T834 494Q802 446 779 412H906Q929 412 936 407Q952 396 952 381Q952 350 914 350H737L678 261H823Q829
261 841 261T860 262Q914 262 914 230Q914 208 893 201Q887 199 864 199H636Q516 20 511 14Q499 0 486 0T465 10T456 31Q456 39 462 49T507 117Q539 165 562 199H404Q373 153 332 90Q287 22 278 11T255 0T233 10T224 31Q224 39 230 49T275 117Q307 165 330 199H202Q188
199 181 201Q158 207 158 230ZM447 261H590Q600 261 604 265T626 295Q637 311 644 322Q645 324 652 334T663 350H506L447 261Z" />
<glyph unicode="$" glyph-name="dollar" horiz-adv-x="608" d="M137 131Q137 216 191 216Q209 216 220 205T232 176Q232 159 220 145T208 125Q208 69 286 57L344 290Q301 298 272 316T230 357T213 395T209 425Q209 498 275 552T426 615Q440 677 449 686Q456 694
470 694T492 686T501 666Q501 660 489 614Q625 594 625 487Q625 407 572 407Q553 407 542 419T531 447Q531 471 555 489Q552 515 536 531T474 553L422 345Q486 334 520 294T554 203Q554 134 495 72T334 -4V-5Q324 -54 317 -68T290 -83Q274 -83 267 -74T260 -55Q260
-46 271 -3Q213 4 175 38T137 131ZM275 432Q275 376 362 359L410 551Q350 538 313 504T275 432ZM351 61Q410 73 449 113T488 196Q488 259 405 277L351 61Z" />
<glyph unicode="%" glyph-name="percent" horiz-adv-x="958" d="M198 -48Q198 -33 219 -12L842 674Q861 694 876 694T900 684T910 659Q910 644 893 627L267 -62Q246 -83 232 -83Q217 -83 208 -73T198 -48ZM217 444Q217 536 277 615T410 694Q460 694 491 656T523
555Q523 462 463 384T329 306Q279 306 248 345T217 444ZM274 448Q274 411 289 389T330 367Q377 367 421 426T465 552Q465 592 449 612T409 632Q362 632 318 574T274 448ZM586 56Q586 147 646 226T780 305Q830 305 861 267T892 167Q892 74 831 -4T698 -83Q648 -83
617 -44T586 56ZM643 59Q643 23 658 1T699 -21Q746 -21 790 37T835 163Q835 200 820 221T778 243Q730 243 687 184T643 59Z" />
<glyph unicode="&amp;" glyph-name="ampersand" horiz-adv-x="900" d="M148 180Q148 222 172 271T233 355Q221 384 221 413Q221 492 288 557T444 622Q477 622 506 615T558 588T581 535Q581 505 565 491T531 476T502 488T490 517Q490 531 501 548Q471 560 443 560Q384
560 338 513T291 412Q291 410 291 406T292 399Q349 431 402 431Q440 431 459 410T479 362Q479 328 450 299T375 270Q315 270 275 303H274Q266 294 256 280T232 235T218 181Q218 126 284 88T455 50Q586 50 666 103Q708 130 734 174T760 262Q760 272 759 282T754
301T747 318T739 334T731 348T722 361T715 371Q703 366 685 359T659 349T643 338T630 322Q628 318 628 310Q628 300 634 293T650 286Q653 286 660 287T672 289Q687 289 696 278T705 256Q705 220 658 220Q622 220 590 244T557 309Q557 332 565 351T594 384T626 406T666
425T698 439Q726 452 747 471T781 510T801 546T814 576L818 591Q828 610 850 610Q864 610 874 601T884 578Q884 551 855 498T777 407Q793 382 800 370T819 327T830 267Q830 231 819 195T780 122T711 55T604 8T455 -11Q309 -11 229 46T148 180ZM326 345Q351 331
370 331Q388 331 398 340T409 360Q409 369 394 369Q366 369 326 345Z" />
<glyph unicode="&apos;" glyph-name="quotesingle" horiz-adv-x="375" d="M246 356Q246 363 282 557Q282 557 283 562Q284 568 284 571T287 582T291 593T298 603T307 612T319 618T335 621Q352 621 364 610T376 581Q376 573 310 362Q310 361 309 357T306 350T302
343T296 335T288 330T276 328Q263 328 255 335T246 356Z" />
<glyph unicode="(" glyph-name="parenleft" horiz-adv-x="492" d="M190 204Q190 286 220 366T294 503T386 604T472 671T526 694Q539 694 547 687T556 666Q556 649 530 634Q412 565 336 445T259 197Q259 59 360 -28Q376 -40 376 -55Q376 -68 368 -75T346 -83Q324
-83 283 -41Q190 52 190 204Z" />
<glyph unicode=")" glyph-name="parenright" horiz-adv-x="492" d="M87 -54Q87 -49 88 -45T92 -39T98 -33T104 -28T110 -24T116 -21Q232 47 308 166T384 414Q384 556 282 639Q267 652 267 666Q267 681 277 687T297 694Q309 694 328 680Q453 585 453 409Q453 325
423 244T348 106T255 5T169 -61T117 -83Q103 -83 95 -75T87 -54Z" />
<glyph unicode="*" glyph-name="asterisk" horiz-adv-x="608" d="M162 207Q162 226 178 237T267 282Q299 297 318 306Q300 316 227 362Q208 375 208 389Q208 402 220 416T250 430Q252 430 254 430T257 430T261 428T267 425T274 420T284 414T297 404T313 392T335
377T362 358Q366 377 371 402T380 440T387 468T395 492T404 507T417 517T433 520Q459 520 459 496Q458 488 423 358Q556 427 566 429Q568 430 571 430Q581 430 589 423T597 405Q597 386 581 375T494 330Q461 315 441 305Q459 295 532 249Q551 236 551 223Q551 209
539 195T509 181Q500 181 460 209Q425 234 397 253Q397 252 390 221T375 154T363 114Q351 91 326 91Q316 91 308 97T300 115Q300 119 336 253Q320 245 303 236T275 222T253 210T234 200T220 193T208 187T200 184T193 182T188 181Q177 181 170 188T162 207Z" />
<glyph unicode="+" glyph-name="plus" horiz-adv-x="900" d="M177 306Q177 330 199 335Q206 337 221 337H502Q504 343 506 354T510 372L572 618L573 622Q574 626 575 628T577 635T581 643T587 649T595 653T606 655Q618 655 627 647T636 625Q636 618 618 546T582
406L565 337H835Q875 337 875 306Q875 282 853 276Q850 275 831 275H550L479 -7Q473 -44 446 -44Q434 -44 425 -35T416 -13Q416 -6 433 66T468 206L486 275H214Q194 275 186 284T177 306Z" />
<glyph unicode="," glyph-name="comma" horiz-adv-x="375" d="M102 -118T102 -107T110 -88T129 -73T157 -47T186 1Q149 10 149 45Q149 67 165 83T205 100Q224 100 240 86T256 41Q256 -21 209 -79T132 -138Q119 -138 111 -128Z" />
<glyph unicode="-" glyph-name="hyphen" horiz-adv-x="433" d="M106 213Q106 220 108 226T119 239T143 246H351Q386 246 386 217Q386 211 384 205T374 192T350 185H141Q106 185 106 213Z" />
<glyph unicode="." glyph-name="period" horiz-adv-x="375" d="M149 45Q149 67 166 83T204 100Q223 100 236 88T250 55Q250 33 233 17T194 0Q175 0 162 13T149 45Z" />
<glyph unicode="/" glyph-name="slash" horiz-adv-x="608" d="M87 -64T87 -53T102 -20L610 672Q610 673 613 677T619 683T625 688T633 692T642 694Q654 694 663 685T673 663Q673 654 660 635L150 -60Q133 -83 117 -83Q104 -83 96 -74Z" />
<glyph unicode="0" glyph-name="zero" horiz-adv-x="608" d="M148 158Q148 226 176 330T250 501Q332 622 459 622Q488 622 513 614T562 588T598 536T612 452Q612 409 600 342T552 190T466 57Q394 -11 301 -11Q237 -11 193 27T148 158ZM221 179Q221 114 246 83T316
51Q376 51 423 101T494 222T530 349T542 438Q542 508 513 534T444 560Q382 560 335 511T265 392T232 267T221 179Z" />
<glyph unicode="1" glyph-name="one" horiz-adv-x="608" d="M160 29Q160 62 196 62H298L401 473Q341 435 297 435Q278 435 270 444T262 465Q262 487 284 495Q285 495 297 496T323 502T355 515T396 546T441 599Q457 619 471 619Q487 619 493 610T500 590Q500 583
498 575L383 114Q378 92 369 62H457Q492 62 492 33Q492 1 457 0H194Q160 0 160 29Z" />
<glyph unicode="2" glyph-name="two" horiz-adv-x="608" d="M99 18Q99 30 108 54T138 110T197 179T286 241Q302 249 334 262T391 287T446 315T497 350T531 394T545 449Q545 499 511 529T423 560T318 526T245 434Q245 433 243 428T240 421T237 415T231 408T222
404T210 402H207Q189 402 181 410T173 430Q173 451 191 482T239 545T319 599T424 622Q506 622 560 574T614 448Q614 415 605 386T575 334T536 293T484 258T433 231T380 208T336 189Q272 160 218 104Q260 101 326 79T424 57Q466 57 497 89T541 161Q546 177 553 184T576
192H577Q612 192 612 163Q612 149 600 122T566 65T506 12T422 -11Q380 -11 310 15T209 42Q183 42 170 16T135 -11Q99 -11 99 18Z" />
<glyph unicode="3" glyph-name="three" horiz-adv-x="608" d="M117 118Q117 156 133 172T169 188Q187 188 198 177T210 148Q210 125 188 107Q205 51 282 51Q324 51 367 65T445 112T480 192Q480 234 453 260T380 287H329Q310 288 303 297T296 316Q296 348 330 348H368Q458
348 506 392T554 481Q554 517 525 538T449 560Q398 560 351 538T290 477Q285 462 279 456T255 450H253Q220 450 220 479Q220 524 283 573T450 622Q526 622 575 583T624 481Q624 431 590 387T494 311Q550 267 550 191Q550 141 524 101T457 38T370 2T280 -11Q209
-11 163 24T117 118Z" />
<glyph unicode="4" glyph-name="four" horiz-adv-x="608" d="M65 32Q65 40 70 47T79 58T95 68T110 78Q174 123 228 182T315 294T376 403T416 497T438 566L447 598Q458 622 481 622Q494 622 504 613T514 589Q514 583 507 554T479 469T426 352T339 216T212 80Q234
80 257 76T292 69T332 57T367 46Q375 76 385 121Q400 185 408 202T438 219Q454 219 463 209T472 187Q472 179 435 31H442Q473 31 497 39T525 47Q535 47 545 38T555 16Q555 -8 517 -19T448 -31Q439 -31 419 -29Q416 -44 397 -120T376 -199Q365 -222 343 -222Q327
-222 318 -212T309 -191Q309 -188 352 -14Q341 -11 320 -4T285 7T250 14T209 18Q169 18 146 15T117 9T107 3T95 0Q85 0 75 10T65 32Z" />
<glyph unicode="5" glyph-name="five" horiz-adv-x="608" d="M127 120Q127 158 143 173T179 189Q196 189 208 178T220 150Q220 126 198 109Q214 51 295 51Q372 51 434 106T496 233Q496 274 473 300T407 327Q380 327 356 322T314 308T285 291T264 275L255 267Q247
262 234 262Q210 262 203 282Q201 288 206 310L272 577Q277 597 284 604T312 611H589Q624 611 624 582Q624 549 587 549H337L291 364Q351 389 409 389Q480 389 523 344T566 232Q566 134 483 62T293 -11Q221 -11 174 25T127 120Z" />
<glyph unicode="6" glyph-name="six" horiz-adv-x="608" d="M151 175Q151 227 165 286T196 384Q243 488 330 555T511 622Q561 622 594 601T628 536Q628 502 612 487T577 472Q560 472 548 483T536 512T553 549Q534 560 509 560Q443 560 369 504T254 345Q325 395
406 395T527 345T568 240Q568 141 490 65T310 -11Q283 -11 258 -3T207 24T167 82T151 175ZM221 166Q221 141 226 118T253 73T311 50Q368 50 424 95Q498 155 498 239Q498 256 492 275T462 314T401 334Q339 334 290 298T229 218L221 166Z" />
<glyph unicode="7" glyph-name="seven" horiz-adv-x="608" d="M144 431Q144 440 227 595Q232 605 235 610T246 618T263 622H267Q297 622 300 592Q364 622 420 622Q444 622 461 611T486 587T505 563T529 552Q550 552 580 565T635 604Q651 622 671 622H672Q705 622
705 594Q705 586 701 579T670 539Q607 457 557 376T480 232T435 124T410 45T400 11Q389 -11 366 -11Q352 -11 343 -2T333 22Q333 32 344 75T397 216T500 413L552 492Q534 490 523 490Q500 490 483 500T458 522T438 544T414 554Q374 554 314 523T213 422Q201 402
180 402H179Q144 402 144 431Z" />
<glyph unicode="8" glyph-name="eight" horiz-adv-x="608" d="M124 137Q124 156 130 177T153 227T210 283T309 330Q274 340 243 367T212 437Q212 503 286 562T461 622H462Q533 621 580 586T627 492Q627 441 586 398T464 330Q516 314 543 280T570 206Q570 127 489
58T301 -11Q224 -11 174 30T124 137ZM196 149Q196 105 229 78T316 50Q387 50 443 96T499 199Q499 243 465 271T379 299Q307 299 252 253T196 149ZM283 443Q283 406 314 384T395 361Q458 361 506 397T555 478Q555 516 523 538T443 560Q379 560 331 524T283 443Z"
/>
<glyph unicode="9" glyph-name="nine" horiz-adv-x="608" d="M132 76Q132 109 148 124T183 139Q201 139 212 128T224 99T208 62Q230 51 263 51Q334 51 403 113T506 266Q430 215 353 215Q272 215 232 265T192 371Q192 470 271 546T456 622Q517 622 563 580T609
439Q609 396 597 335T564 226Q519 121 436 55T262 -11Q189 -11 161 15T132 76ZM262 371Q262 340 285 309T359 277Q422 277 475 317T534 410Q534 414 537 427T540 452Q540 467 537 483T525 518T499 548T454 560Q393 560 336 515Q262 456 262 371Z" />
<glyph unicode=":" glyph-name="colon" horiz-adv-x="375" d="M231 375Q231 397 248 413T286 430Q305 430 318 418T332 385Q332 363 315 347T276 330Q257 330 244 343T231 375ZM149 45Q149 67 166 83T204 100Q223 100 236 88T250 55Q250 33 233 17T194 0Q175 0
162 13T149 45Z" />
<glyph unicode=";" glyph-name="semicolon" horiz-adv-x="375" d="M102 -118T102 -107T110 -88T129 -73T157 -47T186 1Q149 10 149 45Q149 67 165 83T205 100Q224 100 240 86T256 41Q256 -21 209 -79T132 -138Q119 -138 111 -128ZM232 375Q232 397 248 413T287
430Q307 430 320 417T333 385Q333 363 316 347T277 330Q258 330 245 343T232 375Z" />
<glyph unicode="&lt;" glyph-name="less" horiz-adv-x="900" d="M206 306Q206 313 209 319T217 328T227 334T237 338T245 341L852 548Q861 551 869 551Q881 551 890 543T899 521Q899 499 872 489L324 303L760 124Q792 111 792 91Q792 79 784 70T761 60Q751 60
741 65L235 273Q206 284 206 306Z" />
<glyph unicode="=" glyph-name="equal" horiz-adv-x="900" d="M158 230Q158 241 166 251T192 261H817Q856 261 856 230T815 199H197Q158 199 158 230ZM195 350T195 381T236 412H854Q893 412 893 381T857 350H232Q195 350 195 381Z" />
<glyph unicode="&gt;" glyph-name="greater" horiz-adv-x="900" d="M152 90Q152 114 179 122L695 298Q702 301 726 308Q723 309 697 320L290 487Q259 499 259 521Q259 534 268 542T289 551Q299 551 309 546L817 338Q845 327 845 306Q845 290 835 283T805 270L200
64Q188 60 182 60Q170 60 161 68T152 90Z" />
<glyph unicode="?" glyph-name="question" horiz-adv-x="608" d="M218 471Q218 519 282 570T450 622Q527 622 564 584T601 502Q601 435 532 383Q517 373 378 295Q348 279 348 258Q348 245 364 245Q378 245 395 253T421 274Q422 275 426 286T438 301T459 305Q494
305 494 278Q494 243 454 213T359 183Q324 183 304 204T283 258Q283 308 326 342Q332 347 473 425Q536 459 536 503Q536 527 513 543T449 560Q363 560 303 500Q308 485 308 479Q308 460 294 446T259 431Q242 431 230 442T218 471ZM266 45Q266 67 283 83T321 100Q340
100 353 88T367 55Q367 33 350 17T311 0Q292 0 279 13T266 45Z" />
<glyph unicode="@" glyph-name="at" horiz-adv-x="783" d="M168 245Q168 338 228 424T388 563T594 616Q779 616 779 434Q779 396 769 346T747 267Q721 202 660 155T527 107Q460 107 418 151T375 262Q375 356 448 430T612 504Q678 504 720 462Q717 479 713 490T697
518T659 545T594 554Q451 554 338 459T225 248Q225 163 290 110T456 56Q492 56 528 64T587 81T627 99T648 108Q656 110 665 110Q702 110 702 81Q702 74 699 69T691 60T681 53T669 47T659 42Q560 -5 455 -5Q330 -5 249 65T168 245ZM432 264Q432 221 458 195T529
168Q595 168 651 223T707 347Q707 390 681 416T610 442Q543 442 488 387T432 264Z" />
<glyph unicode="A" glyph-name="A" horiz-adv-x="841" d="M90 29Q90 62 129 62H172Q183 62 190 72L498 578Q515 607 528 615T564 623H594Q601 623 606 622T614 619T621 613T625 607T628 600T630 593T631 587T632 581L688 62H726Q766 62 766 33Q766 0 729 0H561Q525
0 525 29Q525 62 563 62H614L602 171H333Q326 171 318 160T281 101Q267 77 258 62H292Q331 62 331 33Q331 0 294 0H125Q90 0 90 29ZM362 232H595L560 558L362 232Z" />
<glyph unicode="B" glyph-name="B" horiz-adv-x="812" d="M95 29Q95 61 129 62H196L318 549H268Q232 549 232 578Q232 611 269 611H595Q697 611 748 572T800 481T753 387T612 320Q674 310 715 277T757 194Q757 126 682 68T506 1Q492 0 463 0H128Q95 0 95 29ZM268
62H459Q555 62 620 99T686 187Q686 202 680 217T658 249T608 276T526 287H324L268 62ZM339 348H493Q509 348 541 350Q619 357 673 392T728 468Q728 498 693 523T582 549H389L339 348Z" />
<glyph unicode="C" glyph-name="C" horiz-adv-x="841" d="M168 244Q168 339 229 427T390 568T598 622Q728 622 796 560H797Q801 566 807 574T817 587T824 597T831 605T836 611T842 616T847 619T853 621T859 622Q872 622 880 614T889 594Q889 589 849 429Q842 400
814 400Q792 400 785 409T778 434V441Q778 483 749 511T682 550T604 560Q463 560 351 461T238 243Q238 164 297 107T465 50Q544 50 617 80T712 171Q712 172 713 174Q716 184 718 188T728 197T748 202H749Q784 202 784 173Q784 151 766 122T711 62T608 10T456 -11Q330
-11 249 59T168 244Z" />
<glyph unicode="D" glyph-name="D" horiz-adv-x="871" d="M94 29Q94 40 101 51T129 62H196L317 549H268Q232 549 232 578Q232 611 267 611H589Q680 611 742 575Q766 561 788 541T832 474T854 373Q854 281 799 195T648 55T443 0H129Q94 0 94 29ZM267 62H441Q581
62 681 153T781 356Q781 388 771 419T737 480T667 530T558 549H389L267 62Z" />
<glyph unicode="E" glyph-name="E" horiz-adv-x="783" d="M95 29Q95 61 129 62H196L318 549H269Q232 549 232 578Q232 611 269 611H794Q828 611 828 582Q828 578 804 482Q797 455 770 455H769Q735 455 735 483Q735 493 749 549H389L339 348H535Q536 349 538 364T549
391T577 404Q613 404 613 375Q613 371 585 259Q583 250 581 246T571 235T551 229H549Q515 229 515 259Q515 266 520 286H324V285L268 62H657Q674 139 681 155T710 172H712Q747 172 747 143Q747 139 733 80T714 14Q705 0 684 0H129Q95 0 95 29Z" />
<glyph unicode="F" glyph-name="F" horiz-adv-x="754" d="M95 29Q95 61 129 62H196L318 549H270Q232 549 232 578Q232 611 269 611H776Q813 611 813 582Q813 574 801 525T786 471Q777 454 754 454Q740 454 730 462T719 483Q719 486 734 549H389L336 336H527Q535
372 542 382T568 393H569Q604 393 604 364Q604 354 576 248Q574 239 572 235T562 224T542 218H541Q506 218 506 247Q506 257 511 275H321L268 62H343Q377 62 377 33Q377 26 375 20T364 7T341 0H129Q95 0 95 29Z" />
<glyph unicode="G" glyph-name="G" horiz-adv-x="900" d="M168 243Q168 337 227 425T387 567T598 622Q727 622 796 560H797Q801 566 807 574T817 587T824 597T831 605T836 611T842 616T847 619T853 621T859 622Q872 622 880 614T888 594Q888 588 848 428Q841 400
813 400Q778 400 778 432V442Q778 498 728 529T603 560Q462 560 350 461T238 243Q238 158 300 105T459 51Q538 51 610 95T717 208H633Q599 208 599 236Q599 269 635 269H836Q873 269 873 240Q873 207 835 207Q834 207 832 208H793V207Q789 190 751 38Q751 37 750
32T748 25T745 19T742 12T738 7T732 3T725 1T715 0H713Q699 0 690 6T680 17T678 27Q678 32 687 69Q575 -11 452 -11Q331 -11 250 60T168 243Z" />
<glyph unicode="H" glyph-name="H" horiz-adv-x="841" d="M95 29Q95 61 129 62H196L318 549H268Q232 549 232 578Q232 611 269 611H455Q491 611 491 582Q491 550 456 549H389L339 348H676L726 549H676Q640 549 640 578Q640 611 677 611H863Q899 611 899 582Q899
550 864 549H797L676 62H725Q762 62 762 33Q762 0 724 0H538Q503 0 503 29Q503 61 537 62H604L660 287H324L268 62H318Q354 62 354 33Q354 0 317 0H130Q95 0 95 29Z" />
<glyph unicode="I" glyph-name="I" horiz-adv-x="433" d="M90 29Q90 62 125 62H196L317 549H264Q227 549 227 578Q227 611 264 611H459Q495 611 495 582Q495 550 460 549H389L267 62Q267 62 321 62Q358 62 358 33Q358 0 322 0H125Q90 0 90 29Z" />
<glyph unicode="J" glyph-name="J" horiz-adv-x="608" d="M136 86Q136 117 152 131T187 146Q205 146 216 134T228 106Q228 86 213 71V70Q242 51 285 51Q325 51 364 74T415 146L516 549H436Q419 549 410 557T401 578Q401 611 439 611H630Q665 611 665 582Q665 563
649 553Q641 549 624 549H587Q581 521 577 507L483 130Q467 67 412 28T282 -11Q226 -11 181 12T136 86Z" />
<glyph unicode="K" glyph-name="K" horiz-adv-x="871" d="M101 29Q101 61 136 62H203L324 549H275Q239 549 239 578Q239 611 276 611H447Q484 611 484 582Q484 550 449 549H383L312 264L736 549H723Q688 549 688 578Q688 611 725 611H881Q915 611 915 582Q915
549 879 549H836Q826 549 796 529L540 357L723 62H756Q792 62 792 33Q792 0 755 0H621Q584 0 584 29Q584 62 620 62H648L487 321L293 191L261 62H310Q347 62 347 33Q347 0 310 0H138Q101 0 101 29Z" />
<glyph unicode="L" glyph-name="L" horiz-adv-x="725" d="M95 29Q95 61 129 62H196L318 549H268Q232 549 232 578Q232 611 268 611H478Q515 611 515 582Q515 549 479 549H389L268 62H584Q604 151 614 163Q621 172 638 172H639Q674 172 674 143Q674 137 649 37Q644
16 637 8T610 0H130Q95 0 95 29Z" />
<glyph unicode="M" glyph-name="M" horiz-adv-x="1016" d="M101 29Q101 35 103 41T113 55T136 62H203L324 549H281Q262 549 254 553Q239 561 239 578Q239 611 275 611H348Q362 611 369 610Q375 611 387 611H389Q426 611 432 578L517 128Q524 90 527 76Q545 104
555 118L870 575Q895 611 934 611H1030Q1067 611 1067 582Q1067 576 1065 570T1055 556T1032 549H965L843 62H893Q929 62 929 33Q929 0 892 0H721Q684 0 684 29Q684 35 686 41T696 55T719 62H785L905 543L564 47Q540 12 511 12Q481 12 474 55L391 493Q385 527 381
544L261 62H310Q347 62 347 33Q347 0 310 0H138Q101 0 101 29Z" />
<glyph unicode="N" glyph-name="N" horiz-adv-x="841" d="M101 29Q101 61 135 62H202L324 549H275Q238 549 238 578Q238 611 274 611H347Q362 611 369 610Q375 611 386 611H388Q426 611 436 577L600 74Q603 64 608 51L732 549H682Q646 549 646 578Q646 611 683
611H855Q892 611 892 582Q892 550 857 549H790Q788 540 784 522T777 495L661 31Q652 0 629 0Q628 0 627 0T624 1Q618 0 606 0H603Q593 0 585 3T573 9T564 18T558 28T554 40T551 49L405 500Q399 520 385 560L260 62H310Q346 62 346 33Q346 0 309 0H137Q101 0 101
29Z" />
<glyph unicode="O" glyph-name="O" horiz-adv-x="900" d="M167 236Q167 332 228 421T392 566T605 622Q726 622 805 554T884 375Q884 280 823 191T660 45T446 -11Q325 -11 246 57T167 236ZM241 256Q241 164 303 107T461 50Q553 50 636 99T766 222T814 368Q814 453
751 506T590 560Q456 560 349 470T241 256Z" />
<glyph unicode="P" glyph-name="P" horiz-adv-x="783" d="M95 29Q95 61 129 62H196L318 549H268Q232 549 232 578Q232 611 269 611H576Q692 611 743 564T794 460Q794 381 707 313T491 244H313L268 62H318Q354 62 354 33Q354 0 317 0H130Q95 0 95 29ZM329 305H482Q594
305 658 350T722 446Q722 485 681 517T545 549H389L329 305Z" />
<glyph unicode="Q" glyph-name="Q" horiz-adv-x="900" d="M167 236Q167 331 228 421T392 566T605 622Q726 622 805 554T884 375Q884 266 807 169T625 28Q649 -9 680 -55Q717 -111 717 -119Q717 -139 687 -139H676Q660 -139 652 -134T634 -113Q567 -8 560 4Q499
-11 445 -11Q325 -11 246 57T167 236ZM239 249Q239 160 301 105T462 50Q490 50 525 57Q515 74 503 92T484 120T474 137T470 151Q470 171 501 171H505Q513 171 516 171T524 170T532 166T539 159T547 147T558 131T573 108T593 77Q686 114 749 194T812 362T749 505T589
560Q454 560 347 464T239 249Z" />
<glyph unicode="R" glyph-name="R" horiz-adv-x="841" d="M95 29Q95 61 129 62H196L318 549H269Q232 549 232 578Q232 585 234 591T245 604T268 611H532Q662 611 722 567T782 468Q782 420 741 378T626 305Q681 274 681 217Q681 198 668 151T655 86Q655 51 689
51Q725 51 747 92Q749 95 752 104T758 116T767 122T786 126Q804 126 812 118T820 98Q820 67 782 28T688 -11Q642 -11 614 15T585 88Q585 110 598 158T611 216Q611 245 573 260T476 275H321L268 62H318Q354 62 354 33Q354 0 316 0H133Q95 0 95 29ZM336 336H455Q494
337 512 338T563 347T626 367Q640 372 655 380T690 410T710 456Q710 491 661 520T509 549H389L336 336Z" />
<glyph unicode="S" glyph-name="S" horiz-adv-x="667" d="M105 17Q105 22 143 174Q147 192 154 197T180 203Q197 203 205 195T213 175Q213 168 211 159T209 137Q209 90 254 70T364 50Q439 50 491 95T544 190Q544 217 529 235T487 262T431 278T366 291T306 307Q267
321 239 352T211 431Q211 506 284 564T454 622Q550 622 607 570Q625 603 633 612T655 622Q667 622 676 614T685 594Q685 588 647 437Q640 412 623 408Q619 407 613 407Q612 407 612 408H611Q577 408 577 438V462Q577 560 452 560Q383 560 331 522T278 438Q278 403
312 384T390 358T486 338T566 298Q611 257 611 196Q611 119 540 54T362 -11Q244 -11 181 38Q165 8 157 -1T134 -11Q119 -11 112 -2T105 17Z" />
<glyph unicode="T" glyph-name="T" horiz-adv-x="841" d="M200 483Q200 488 224 582Q232 611 258 611H871Q906 611 906 583Q906 574 883 482Q877 455 848 455Q813 455 813 483Q813 489 828 549H593L472 62H562Q597 62 597 33Q597 27 595 21T585 7T561 0H296Q260
0 260 29Q260 62 297 62H400L522 549H287Q273 484 265 470T237 455H236Q200 455 200 483Z" />
<glyph unicode="U" glyph-name="U" horiz-adv-x="841" d="M227 164Q227 185 239 235L317 549H268Q232 549 232 578Q232 611 268 611H455Q491 611 491 582Q491 575 489 569T478 556T455 549H389Q387 539 306 216Q297 180 297 163Q297 113 333 82T425 51Q490 51
549 89T632 186Q639 203 646 232L725 549H676Q640 549 640 578Q640 611 676 611H863Q899 611 899 582Q899 550 864 549H797L788 514L716 223Q698 149 663 104T572 28Q503 -11 425 -11Q340 -11 284 37T227 164Z" />
<glyph unicode="V" glyph-name="V" horiz-adv-x="841" d="M213 578Q213 611 251 611H414Q450 611 450 582Q450 563 434 553Q428 549 408 549H363L429 79L433 52L751 549H718Q680 549 680 578Q680 611 716 611H880Q916 611 916 582Q916 563 900 553Q894 549 873
549H826Q819 537 810 523L498 37Q489 23 485 16T466 1T434 -8H403Q389 -8 380 -5T367 8T363 21T360 38L288 549H250Q213 549 213 578Z" />
<glyph unicode="W" glyph-name="W" horiz-adv-x="1133" d="M211 578Q211 611 248 611H392Q428 611 428 582Q428 549 390 549H337L361 76L363 44Q363 44 396 104L649 565Q650 566 654 573T659 582T665 591T673 599T683 604T696 609T712 611H726Q732 611 736 610T744
608T751 605T756 601T759 596T761 591T762 585T763 579T764 572T764 566L788 98L791 44L1069 549H1030Q994 549 994 578Q994 611 1032 611H1175Q1211 611 1211 582Q1211 549 1173 549H1128Q1122 534 1115 524L847 37Q846 36 844 32T841 26T837 20T833 13T828 8T822
3T815 -1T806 -5T797 -7T785 -8H771Q761 -8 754 -6T743 -1T737 8T734 17T733 28T732 39L707 535Q707 542 705 558Q703 554 701 550T696 541T691 533L412 26Q393 -8 357 -8H342Q318 -8 312 2T304 33L281 493Q281 494 280 516T278 549H246Q211 549 211 578Z" />
<glyph unicode="X" glyph-name="X" horiz-adv-x="841" d="M91 29Q91 62 131 62H168Q174 62 177 62T184 63T190 65T196 70T203 76T213 87T228 101L454 324L328 549H282Q245 549 245 578Q245 611 282 611H448Q484 611 484 582Q484 549 448 549H417L508 383L673 549H654Q619
549 619 578Q619 590 627 600T655 611H823Q858 611 858 582Q858 549 819 549H781Q773 549 770 549T763 548T756 544T749 537T737 526T720 509L533 325L679 62H725Q762 62 762 33Q762 0 726 0H558Q523 0 523 29Q523 62 562 62H591L480 272L274 62H294Q330 62 330
33Q330 0 295 0H126Q106 0 99 9T91 29Z" />
<glyph unicode="Y" glyph-name="Y" horiz-adv-x="841" d="M217 578Q217 611 253 611H420Q455 611 455 582Q455 549 416 549H385L499 314L730 549H710Q675 549 675 578Q675 611 711 611H879Q913 611 913 582Q913 549 876 549Q876 549 828 549Q818 549 806 537L529
258Q528 257 526 255Q517 246 509 214Q506 203 498 169Q483 109 471 62H521Q557 62 557 33Q557 0 520 0H334Q298 0 298 29Q298 35 300 41T310 55T333 62H401L446 245L298 549H253Q217 549 217 578Z" />
<glyph unicode="Z" glyph-name="Z" horiz-adv-x="725" d="M106 0T106 22T128 66L663 549H322Q309 487 301 471T269 454Q236 454 236 483Q236 491 259 582Q266 611 297 611H739Q770 611 770 589Q770 566 749 545L214 62H575Q593 141 601 158T630 175H632Q666 175
666 146Q666 143 664 133Q659 112 651 80Q638 24 631 12T601 0H139Q106 0 106 22Z" />
<glyph unicode="[" glyph-name="bracketleft" horiz-adv-x="380" d="M137 -55Q137 -52 137 -50T139 -44T140 -38L315 662Q320 680 328 687T352 694H444Q480 694 480 665Q480 658 478 652T467 639T444 632H380L216 -22H263Q301 -22 301 -51Q301 -83 264 -83H174Q137
-83 137 -55Z" />
<glyph unicode="\" glyph-name="backslash" horiz-adv-x="608" d="M265 663Q265 676 275 685T296 694Q314 694 321 681T335 633Q337 624 338 620L490 -34Q490 -36 492 -42T494 -52Q494 -65 484 -74T463 -83Q455 -83 449 -80T440 -71T434 -60T431 -48T429 -40L269
645Q269 647 267 653T265 663Z" />
<glyph unicode="]" glyph-name="bracketright" horiz-adv-x="380" d="M50 -55Q50 -48 52 -42T63 -29T87 -22H151L315 632H266Q229 632 229 661Q229 694 267 694H354Q393 694 393 666Q393 661 391 649L216 -52Q212 -69 205 -76T178 -83H87Q50 -83 50 -55Z" />
<glyph unicode="^" glyph-name="asciicircum" horiz-adv-x="725" d="M258 461Q258 471 264 478T274 487T291 494Q489 565 496 565H497Q504 565 668 494Q697 482 697 462Q697 451 686 437T661 422H660Q650 422 573 459T492 496Q487 496 392 459T287 422Q258 422 258 461Z" />
<glyph unicode="_" glyph-name="underscore" horiz-adv-x="900" d="M114 -60Q114 -53 116 -47T128 -33T156 -25H714Q730 -25 739 -32T751 -46T754 -60T752 -73T740 -87T713 -95H158Q114 -95 114 -60Z" />
<glyph unicode="`" glyph-name="grave" horiz-adv-x="608" d="M301 602Q301 618 312 628T337 639H339Q348 639 474 577Q500 565 500 546Q500 535 489 521T464 506H463Q455 506 329 568L325 570Q321 572 320 573T316 576T311 579T308 583T304 588T302 594T301 602Z" />
<glyph unicode="a" glyph-name="a" horiz-adv-x="608" d="M140 157Q140 261 213 348T376 436Q435 436 481 386Q489 421 518 421Q532 421 542 412T552 388Q552 384 549 372L482 105Q480 98 480 88T488 65Q500 57 513 57Q530 57 545 84Q555 103 561 129T575 163T603
172Q636 172 636 143Q636 137 630 116T610 67T571 17T512 -5T453 11T416 54Q350 -5 280 -5Q218 -5 179 41T140 157ZM210 153Q210 132 215 112T238 74T282 56Q340 56 393 126T447 275Q447 320 427 347T374 374Q319 374 265 307T210 153Z" />
<glyph unicode="b" glyph-name="b" horiz-adv-x="550" d="M128 578Q128 611 164 611H274Q309 611 309 582Q309 577 264 396Q320 436 376 436Q438 436 477 390T516 274Q516 168 442 82T280 -5Q217 -5 179 40T140 157Q140 188 153 240L230 549H163Q128 549 128 578ZM210
153Q210 132 215 112T238 74T282 56Q340 56 393 125T446 275Q446 320 426 347T374 374Q318 374 264 307T210 153Z" />
<glyph unicode="c" glyph-name="c" horiz-adv-x="550" d="M141 166Q141 270 222 353T405 436Q461 436 496 410T532 341Q532 310 517 296T482 281Q464 281 453 292T441 321Q441 340 456 357Q433 374 404 374Q333 374 272 309T211 165Q211 123 235 90T315 56H319Q380
56 420 64T472 82T495 100T517 109Q530 109 541 97T553 73Q553 58 536 44Q507 21 463 10T393 -3T319 -5Q268 -5 231 12T176 56T149 111T141 166Z" />
<glyph unicode="d" glyph-name="d" horiz-adv-x="608" d="M140 157Q140 261 213 348T376 436Q435 436 481 386L521 549H452Q434 549 427 558T419 578Q419 611 456 611H566Q600 611 600 582Q600 579 599 574T597 566L482 106Q480 99 480 89T488 65Q501 57 512 57Q522
57 530 64Q547 81 554 109T570 155T601 172Q636 172 636 143Q636 137 630 116T610 67T571 17T512 -5T453 11T416 54Q350 -5 280 -5Q218 -5 179 41T140 157ZM210 153Q210 132 215 112T238 74T282 56Q340 56 393 126T447 275Q447 320 427 347T374 374Q319 374 265
307T210 153Z" />
<glyph unicode="e" glyph-name="e" horiz-adv-x="550" d="M142 168Q142 275 224 355T406 436Q462 436 498 407T535 331Q535 316 531 301T513 264T469 224T390 198Q339 189 244 189H213Q212 181 212 166Q212 121 237 89T320 56Q382 56 422 64T474 83T496 101T518
109T541 98T553 73Q553 67 549 59T529 39T491 18T426 2T328 -5H314Q233 -5 188 45T142 168ZM232 250H263Q465 250 465 331Q465 350 448 362T404 374Q353 374 304 338T232 250Z" />
<glyph unicode="f" glyph-name="f" horiz-adv-x="375" d="M-16 -155Q-16 -128 -1 -114T34 -100Q50 -100 62 -111T75 -140Q75 -150 69 -163Q71 -163 76 -164T85 -166Q120 -166 142 -84T209 242Q215 279 219 298Q221 310 225 333T232 369H176Q139 369 139 398Q139
429 174 430H243Q244 438 248 462T254 495T260 522T269 549T280 571T295 590T315 603T342 613T375 616Q418 616 450 599T482 543Q482 515 466 502T433 489T404 500T392 528Q392 542 397 552Q381 554 374 554T361 553T351 549T343 543T337 532T332 520T328 503T324
483T319 458T314 430H391Q425 430 425 402Q425 395 423 389T412 376T389 369H303Q238 -16 210 -105Q197 -149 166 -188T85 -227Q46 -227 15 -209T-16 -155Z" />
<glyph unicode="g" glyph-name="g" horiz-adv-x="550" d="M73 -163Q73 -142 87 -127T123 -111Q141 -111 152 -122T163 -152Q163 -159 162 -163Q188 -166 213 -166H218Q314 -166 356 -92Q368 -71 393 40Q337 0 282 0Q219 0 180 46T141 162Q141 264 213 350T376
436Q439 436 480 387Q489 421 518 421Q531 421 541 412T551 389L548 371L442 -55Q431 -97 424 -111Q398 -164 342 -196T220 -228H213Q186 -228 169 -227T126 -220T87 -200T73 -163ZM210 159Q210 115 230 89T283 62Q339 62 393 128T447 278Q447 316 429 345T374
374Q317 374 264 308T210 159Z" />
<glyph unicode="h" glyph-name="h" horiz-adv-x="608" d="M102 28Q102 32 104 42L217 494Q221 508 230 549H163Q128 549 128 578Q128 611 165 611H273Q309 611 309 582Q309 577 258 373Q325 436 406 436Q462 436 496 407T531 323Q531 278 497 182T463 81Q463 70
470 64T487 57Q510 57 532 81T566 143Q571 160 578 166T601 172H606Q619 172 627 164T636 143Q636 108 592 52T484 -5Q445 -5 419 19T392 81Q392 99 426 192T461 323Q461 374 404 374Q357 374 317 341T252 256T209 157T181 65T168 17Q157 -5 135 -5Q121 -5 112
4T102 28Z" />
<glyph unicode="i" glyph-name="i" horiz-adv-x="375" d="M79 287Q79 305 95 338T148 404T231 436Q269 436 295 412T322 350V344Q322 327 276 210T229 80Q229 57 253 57Q271 57 292 75T328 130Q329 133 332 142T338 157T348 167T366 172H367Q403 172 403 143Q403
108 359 52T251 -5Q212 -5 186 19T159 81V87Q159 103 205 220T252 350Q252 374 229 374T182 347Q165 328 157 304T141 270T116 259H114Q79 259 79 287ZM266 563Q266 581 280 596T315 611Q331 611 343 600T355 571Q355 551 340 537T307 522T278 534T266 563Z" />
<glyph unicode="j" glyph-name="j" horiz-adv-x="375" d="M-27 -164Q-27 -141 -12 -126T22 -111Q40 -111 52 -122T64 -151Q64 -155 62 -165Q63 -165 65 -165T68 -166Q102 -166 134 -142Q184 -104 204 -24Q205 -21 205 -19L291 325Q294 340 294 342Q294 356 284
365T258 374Q235 374 204 354T151 285Q144 271 138 265T117 259H113Q84 259 80 282Q78 302 100 337T167 404T261 436Q305 436 334 410T364 342Q364 327 355 291L274 -32Q268 -59 259 -82Q236 -140 186 -183T69 -227Q29 -227 1 -212T-27 -164ZM306 563Q306 583 321
597T355 611Q371 611 383 600T396 571Q396 551 381 537T347 522Q330 522 318 534T306 563Z" />
<glyph unicode="k" glyph-name="k" horiz-adv-x="550" d="M101 28Q101 31 101 33T103 39T104 45L218 500L230 549H161Q144 549 136 558T128 578Q128 611 166 611H273Q309 611 309 582Q309 580 307 570L231 263Q256 276 290 307T351 366T416 414T491 436Q525 436
543 412T562 353Q562 272 509 272Q491 272 480 284T468 313Q468 339 494 355L492 374Q459 372 435 357T370 302T303 239Q349 229 381 203T413 133Q413 120 410 107T407 90Q407 76 418 66T442 56Q468 56 489 96Q497 111 504 134T518 165T545 172Q578 172 578 143Q578
133 570 111T546 61T503 15T442 -5Q399 -5 368 21T337 91Q337 101 339 113T342 131Q342 183 212 188Q204 156 193 108Q175 33 166 14T135 -5Q121 -5 111 5T101 28Z" />
<glyph unicode="l" glyph-name="l" horiz-adv-x="317" d="M118 89Q118 105 127 138L230 549H160Q143 549 135 558T127 578Q127 611 165 611H274Q308 611 308 582Q308 578 306 566L193 114Q188 94 188 88Q188 72 199 65T221 57Q234 57 245 72T260 101T273 142Q282
172 307 172H308Q344 172 344 143Q344 137 338 116T319 67T280 17T220 -5Q179 -5 149 20T118 89Z" />
<glyph unicode="m" glyph-name="m" horiz-adv-x="958" d="M79 287Q79 294 85 315T105 364T144 414T203 436Q240 436 268 416T303 360Q325 382 342 395T393 422T465 436Q510 436 544 415T586 350Q662 436 755 436Q811 436 845 407T880 323Q880 278 846 182T812
80Q812 70 818 64T835 57Q859 57 881 81T915 143Q920 161 928 166T951 172Q972 172 979 163T986 144Q986 107 942 51T834 -5Q795 -5 769 19T742 81Q742 98 776 193T810 323Q810 374 753 374Q714 374 679 350T621 290T578 209T548 126T529 56T518 19Q506 -5 484
-5Q469 -5 460 5T451 28Q451 35 485 169T519 323Q519 374 462 374Q403 374 356 321T286 208T245 83T225 15Q214 -5 193 -5Q180 -5 171 3T160 27Q160 36 164 50L232 322Q235 331 235 342Q235 358 225 366T202 374Q185 374 173 352T153 303T142 271Q133 259 116 259H114Q79
259 79 287Z" />
<glyph unicode="n" glyph-name="n" horiz-adv-x="667" d="M79 287Q79 294 85 315T105 364T144 414T203 436Q240 436 268 416T303 360Q340 396 376 416T464 436Q520 436 554 407T589 323Q589 280 555 182T521 80Q521 57 544 57Q569 57 590 81T620 130L628 155Q636
172 660 172Q674 172 684 165T695 144Q695 107 651 51T543 -5Q504 -5 478 19T451 81Q451 100 485 192T519 323Q519 374 462 374Q403 374 356 321T286 208T246 84T226 16Q216 -5 193 -5Q179 -5 170 4T160 25Q159 32 163 48L232 322Q235 331 235 342Q235 358 225
366T202 374Q185 374 173 352T153 302T142 271Q133 259 116 259H114Q79 259 79 287Z" />
<glyph unicode="o" glyph-name="o" horiz-adv-x="608" d="M141 166Q141 270 223 353T405 436Q480 436 526 387T573 265Q573 160 491 78T309 -5Q234 -5 188 43T141 166ZM211 165Q211 116 238 86T311 56Q380 56 441 121T503 266Q503 315 476 344T403 374Q332 374
272 309T211 165Z" />
<glyph unicode="p" glyph-name="p" horiz-adv-x="608" d="M20 -193Q20 -160 59 -160H111L123 -110L231 320Q236 341 234 350Q232 360 223 367T203 374Q184 374 172 353T153 304T142 271Q133 259 115 259H113Q79 259 79 286Q79 296 86 318T106 368T145 416T203
436T261 420T298 377Q364 436 434 436Q496 436 535 390T574 274Q574 168 501 82T338 -5Q276 -5 234 44L182 -160H251Q285 -160 285 -189Q285 -222 248 -222H56Q20 -222 20 -193ZM268 153Q268 132 273 112T296 74T340 56Q398 56 451 126T504 275Q504 320 484 347T432
374Q377 374 323 307T268 153Z" />
<glyph unicode="q" glyph-name="q" horiz-adv-x="550" d="M140 157Q140 261 213 348T376 436Q444 436 485 380Q487 385 491 393T496 406T501 416T506 424T512 430T520 434T529 435Q539 435 547 427T556 407Q556 402 554 392L416 -160H484Q518 -160 518 -189Q518
-222 482 -222H262Q226 -222 226 -193Q226 -187 228 -181T238 -167T262 -160H344L393 35Q334 -5 280 -5Q218 -5 179 41T140 157ZM210 153Q210 115 228 86T282 56Q340 56 393 126T447 275Q447 320 427 347T374 374Q319 374 265 307T210 153Z" />
<glyph unicode="r" glyph-name="r" horiz-adv-x="506" d="M79 287Q79 294 85 315T104 364T143 414T203 436Q271 436 299 375Q354 436 434 436Q487 436 522 408T558 335Q558 303 542 288T507 272Q489 272 478 283T466 312Q466 336 484 350Q466 374 432 374Q381
374 340 321T280 205T244 80T224 12Q212 -5 193 -5Q179 -5 170 5T160 28Q160 36 164 52L230 315Q235 338 235 341Q235 356 226 364T204 373Q173 373 150 293Q149 290 149 288Q147 282 147 281T144 274T138 266T129 262T116 259H114Q79 259 79 287Z" />
<glyph unicode="s" glyph-name="s" horiz-adv-x="492" d="M95 91Q95 122 111 137T146 152Q162 152 174 141T187 112T172 77Q202 56 253 56Q328 56 360 85T392 144Q392 162 376 174T340 191T293 201T252 210Q215 222 196 247T177 302Q177 349 218 392T345 436Q414
436 445 410T476 349Q476 321 462 308T429 294Q413 294 402 304T390 331Q390 345 400 361Q378 374 345 374Q289 374 265 351T240 303Q240 285 257 276T313 260T364 250Q408 236 431 208T454 146Q454 90 404 43T252 -5Q167 -5 131 24T95 91Z" />
<glyph unicode="t" glyph-name="t" horiz-adv-x="404" d="M98 397Q98 430 134 430H230Q237 460 248 506Q265 579 274 597T305 616Q318 616 328 607T338 583Q338 576 333 553T317 492T302 430H384Q418 430 418 402Q418 369 382 369H286Q282 351 265 283T233 155T218
89Q218 75 227 66T253 56Q284 56 314 82T361 145Q368 160 374 166T395 172H397Q432 172 432 144Q432 111 378 53T252 -5Q209 -5 179 21T148 88Q148 105 153 123L214 369H132Q98 369 98 397Z" />
<glyph unicode="u" glyph-name="u" horiz-adv-x="637" d="M79 287Q79 300 89 323T117 372T165 417T231 436Q271 436 296 411T322 349Q322 330 291 247T259 122Q259 56 324 56Q375 56 411 106T469 227Q480 263 489 301T502 359T513 398T527 423T549 430Q564 430
573 421T583 397Q583 392 578 372L513 110Q509 94 509 90Q509 78 517 65Q529 57 542 57Q572 57 595 143Q600 161 608 166T631 172H632Q665 172 665 143Q665 136 659 115T639 66T600 16T541 -5Q474 -5 447 50Q390 -5 323 -5Q271 -5 230 24T189 123Q189 173 220 258T252
350Q252 374 229 374Q212 374 192 357Q173 340 163 321T151 289T140 268T114 259Q79 259 79 287Z" />
<glyph unicode="v" glyph-name="v" horiz-adv-x="550" d="M79 287Q79 322 123 379T231 436Q272 436 297 411T323 349Q323 328 292 247T260 127Q260 56 338 56Q373 56 403 95T451 187T478 285T488 352Q488 368 484 381T480 399Q480 413 490 424T516 435Q540 435
549 410T559 356Q559 333 552 294T528 202T487 104T423 27T336 -5Q279 -5 235 25T190 127Q190 175 221 259T252 350Q252 374 229 374Q205 374 181 347Q167 331 159 313T148 285T138 267T116 259H114Q79 259 79 287Z" />
<glyph unicode="w" glyph-name="w" horiz-adv-x="783" d="M79 287Q79 322 123 379T231 436Q270 436 296 412T322 349Q322 330 291 249T260 130Q260 88 286 72T345 56Q394 56 424 126Q442 168 486 346Q491 369 496 387Q505 430 535 430Q549 430 558 420T568 398Q568
388 538 273T507 127Q507 56 585 56Q629 56 659 115Q678 152 700 234T722 353Q722 368 718 381T713 400Q713 413 723 424T749 435Q772 435 782 411T792 356Q792 320 775 247T736 124Q682 -5 584 -5Q495 -5 457 54H456Q412 -5 344 -5Q284 -5 238 26T191 130Q191
177 221 259T252 352Q252 361 246 367T229 374Q206 374 184 350T150 288Q144 270 137 265T113 259H111Q94 259 87 268T79 287Z" />
<glyph unicode="x" glyph-name="x" horiz-adv-x="551" d="M79 287Q79 327 132 381T260 436Q324 436 359 392H360Q405 436 469 436Q514 436 545 408T576 337Q576 303 560 288T525 272Q507 272 496 283T484 312Q484 334 504 352Q491 374 467 374Q445 374 423 360T392
322Q389 314 366 221T342 114Q342 88 358 72T399 56Q431 56 462 80T507 139L509 145Q511 151 512 154T517 162T527 169T541 172H544Q579 172 579 143Q579 103 526 49T398 -5Q338 -5 299 38H298Q253 -5 189 -5Q144 -5 113 22T82 93Q82 127 98 142T133 158Q150 158
162 147T174 118Q174 97 154 79Q167 57 191 57Q213 57 237 73T271 127Q315 308 315 317Q315 342 300 358T258 374Q226 374 195 350T151 292L149 286Q147 279 146 278T143 272T139 266T133 263T124 260T113 259Q79 259 79 287Z" />
<glyph unicode="y" glyph-name="y" horiz-adv-x="579" d="M79 287Q79 323 122 379T231 436Q270 436 296 412T323 350Q323 330 291 248T259 122Q259 56 324 56Q374 56 410 106T469 225Q480 260 489 298T502 357T513 396T527 422T550 430Q563 430 573 421T583 397Q583
388 579 374L488 13Q477 -30 472 -42Q441 -123 376 -175T240 -227Q191 -227 159 -201T127 -130Q127 -96 143 -82T178 -67Q195 -67 207 -78T219 -107Q219 -128 200 -145Q214 -166 242 -166Q259 -166 280 -159T328 -132T381 -72T420 28Q372 -5 323 -5Q271 -5 230
24T189 123Q189 173 220 258T252 350Q252 374 229 374Q208 374 188 354Q171 337 161 318T149 287T139 267T114 259Q79 259 79 287Z" />
<glyph unicode="z" glyph-name="z" horiz-adv-x="492" d="M70 23Q70 33 81 48Q114 98 160 141T273 239T380 331Q363 336 333 351T286 366Q264 366 243 350T213 308Q207 292 201 286T177 279Q142 279 142 307Q142 345 186 390T288 436Q322 436 363 412T417 387Q431
387 447 411T487 436H488Q521 436 521 407Q521 395 511 382Q481 336 448 303T339 208T218 105Q244 102 283 84T342 65Q377 65 408 93T452 159Q455 169 457 174T467 185T487 190H492Q509 190 516 181T524 162Q524 120 469 58T339 -5Q305 -5 263 19T203 44Q166 44
140 14Q132 4 130 2T122 -2T104 -5H103Q89 -5 80 2T70 23Z" />
<glyph unicode="{" glyph-name="braceleft" horiz-adv-x="608" d="M174 303Q174 314 181 323T198 335Q199 335 225 336T274 341T325 357T363 390Q367 398 411 573Q415 588 419 599T438 629T476 661T541 684T640 694Q675 694 675 665Q675 647 663 640T634 632T586
629T531 616Q512 609 501 598T486 580T479 557Q442 408 437 389T424 358Q401 320 357 302Q395 272 395 232Q395 220 349 34Q344 15 348 8Q356 -7 384 -13T443 -21T476 -23Q496 -30 496 -51Q496 -83 459 -83Q275 -81 275 17Q275 34 299 127T324 235Q324 244 315
252T279 266T212 274Q174 274 174 303Z" />
<glyph unicode="|" glyph-name="bar" horiz-adv-x="375" d="M140 -49Q140 -42 144 -28L315 657Q324 694 352 694Q366 694 376 684T386 659Q386 656 385 650T383 643L212 -44Q204 -83 175 -83Q161 -83 151 -74T140 -49Z" />
<glyph unicode="}" glyph-name="braceright" horiz-adv-x="608" d="M85 -54Q85 -31 104 -24Q104 -24 146 -22Q187 -20 226 -7T276 35Q279 43 321 212Q338 280 404 309Q366 338 366 379Q366 396 390 490T414 592Q414 612 387 621T323 631T284 634Q263 641 263 662Q263
694 300 694Q485 694 485 594Q485 577 461 485T437 376V372Q450 336 557 336Q569 335 577 327T585 307Q585 281 562 276Q561 276 535 274T486 269T435 254T397 221Q391 211 348 36Q322 -81 126 -83H120Q85 -83 85 -54Z" />
<glyph unicode="~" glyph-name="asciitilde" horiz-adv-x="725" d="M260 523Q260 537 281 553Q358 611 419 611Q458 611 508 584T584 557Q618 557 660 583T711 610H714Q725 608 732 599T739 579Q739 565 720 550Q643 491 579 491Q541 491 490 518T415 545Q382
545 340 518T290 491Q277 491 269 501T260 523Z" />
</font>
</defs>
</svg>
