<svg xmlns="http://www.w3.org/2000/svg" viewBox="0 0 600 120" xml:space="preserve"><path d="M114.986 106.097h-.891a.385.385 0 0 1-.258-.09.55.55 0 0 1-.157-.215l-1.867-4.625h-7.819l-1.867 4.625a.506.506 0 0 1-.157.209.413.413 0 0 1-.271.096h-.878l6.513-15.918h1.138l6.514 15.918zm-3.522-5.785-3.239-8.043a8.536 8.536 0 0 1-.328-.942 7.5 7.5 0 0 1-.145.507c-.053.16-.107.313-.17.445l-3.24 8.033h7.122zm15.458-5.59c.804 0 1.521.137 2.152.414a4.361 4.361 0 0 1 1.604 1.161c.436.503.769 1.106.994 1.817.229.707.342 1.505.342 2.377 0 .881-.11 1.67-.342 2.378a5.217 5.217 0 0 1-.994 1.81c-.439.503-.988.9-1.604 1.16-.634.27-1.354.405-2.152.405-.803 0-1.521-.14-2.153-.405a4.407 4.407 0 0 1-1.609-1.16c-.439-.498-.771-1.104-1-1.81-.23-.708-.346-1.5-.346-2.378 0-.875.115-1.67.346-2.377a5.154 5.154 0 0 1 1-1.817 4.418 4.418 0 0 1 1.609-1.161c.63-.283 1.35-.414 2.153-.414zm0 10.674c.667 0 1.25-.111 1.75-.344.49-.223.919-.561 1.25-.986.332-.43.582-.941.747-1.549.165-.6.248-1.277.248-2.029a7.665 7.665 0 0 0-.248-2.023 4.4 4.4 0 0 0-.747-1.557 3.24 3.24 0 0 0-1.25-.996c-.5-.232-1.083-.354-1.75-.354-.668 0-1.25.117-1.75.354a3.308 3.308 0 0 0-1.25.996c-.333.43-.585.945-.753 1.557a7.591 7.591 0 0 0-.252 2.023c0 .752.085 1.43.252 2.029.168.605.42 1.119.753 1.549.335.432.75.759 1.25.986.497.232 1.082.344 1.75.344zm9.143-8.542a6.393 6.393 0 0 1 1.795-1.553 4.477 4.477 0 0 1 2.269-.584c.615 0 1.158.098 1.625.293.47.193.856.479 1.165.844s.54.813.698 1.328c.155.52.235 1.104.235 1.752v7.158h-1.082v-7.158c0-1.049-.238-1.869-.721-2.465-.479-.596-1.21-.893-2.191-.893-.729 0-1.406.186-2.043.559-.635.371-1.196.885-1.691 1.541v8.418h-1.08V94.897h.6c.188 0 .297.094.324.283l.097 1.674zm11.739 3.202v.211c0 .84.098 1.582.293 2.217.192.641.471 1.173.832 1.603.358.435.795.759 1.305.978.511.215 1.08.328 1.709.328.563 0 1.052-.063 1.464-.186a5.633 5.633 0 0 0 1.713-.835c.165-.122.284-.185.358-.185.099 0 .174.039.227.11l.292.362a2.988 2.988 0 0 1-.715.63 5.04 5.04 0 0 1-.99.497c-.364.145-.755.25-1.17.333s-.832.128-1.252.128a5.433 5.433 0 0 1-2.093-.398 4.459 4.459 0 0 1-1.62-1.168c-.45-.509-.796-1.134-1.04-1.869-.245-.738-.365-1.588-.365-2.541 0-.799.115-1.543.346-2.224a5.052 5.052 0 0 1 .989-1.753 4.42 4.42 0 0 1 1.585-1.15c.625-.277 1.338-.42 2.133-.42.631 0 1.215.11 1.756.326a4.066 4.066 0 0 1 1.406.951c.4.416.711.93.94 1.533.228.607.343 1.308.343 2.095 0 .165-.021.278-.066.338s-.121.095-.227.095h-8.152v-.006h-.001zm7.467-.69a4.88 4.88 0 0 0-.252-1.615 3.365 3.365 0 0 0-.715-1.204 3.135 3.135 0 0 0-1.099-.763 3.551 3.551 0 0 0-1.399-.264c-.578 0-1.096.088-1.554.269a3.431 3.431 0 0 0-1.188.776 3.906 3.906 0 0 0-.805 1.217c-.201.472-.337 1-.404 1.587h7.414v-.003h.002zm3.587-.404h5.229v.912h-5.229v-.912zm14.774-2.676a.284.284 0 0 1-.26.156c-.083 0-.188-.051-.314-.143a4.489 4.489 0 0 0-.514-.313 3.983 3.983 0 0 0-.792-.317 4.097 4.097 0 0 0-1.146-.144c-.405 0-.775.059-1.107.176-.335.117-.62.271-.855.471-.232.194-.416.42-.545.678a1.854 1.854 0 0 0-.188.814c0 .352.09.645.271.88a2.4 2.4 0 0 0 .7.595c.288.166.62.31.995.426.375.121.755.244 1.145.361.385.123.768.256 1.143.4s.708.328.995.547c.286.216.522.482.702.796.181.317.271.697.271 1.147 0 .485-.088.94-.26 1.36a3.093 3.093 0 0 1-.761 1.097 3.634 3.634 0 0 1-1.232.728c-.486.181-1.045.272-1.675.272-.787 0-1.468-.127-2.035-.381a5.626 5.626 0 0 1-1.528-.981l.246-.386a.397.397 0 0 1 .131-.133.367.367 0 0 1 .196-.045c.099 0 .216.059.354.176.139.123.322.256.559.391.232.137.52.268.859.385.341.123.763.18 1.266.18a3.68 3.68 0 0 0 1.25-.193c.332-.115.638-.296.898-.532.24-.229.42-.492.545-.795.123-.302.188-.625.188-.962 0-.375-.091-.686-.271-.936a2.246 2.246 0 0 0-.711-.629 5.233 5.233 0 0 0-.993-.438c-.37-.122-.753-.24-1.144-.362a15.85 15.85 0 0 1-1.144-.391 4.076 4.076 0 0 1-.995-.543 2.64 2.64 0 0 1-.71-.789c-.183-.313-.271-.703-.271-1.168 0-.396.088-.782.26-1.146.174-.365.418-.688.738-.97a3.623 3.623 0 0 1 1.166-.664c.457-.165.969-.25 1.539-.25.682 0 1.287.099 1.816.292.525.195 1.01.497 1.443.902l-.225.381zm5.058-5.244a.774.774 0 0 1-.086.375 1.217 1.217 0 0 1-.219.313 1.04 1.04 0 0 1-.313.209.923.923 0 0 1-.384.078.918.918 0 0 1-.383-.078.945.945 0 0 1-.313-.209 1.068 1.068 0 0 1-.218-.313.99.99 0 0 1 .218-1.083 1.01 1.01 0 0 1 .313-.215.917.917 0 0 1 .383-.077c.136 0 .264.023.384.077.239.104.431.298.532.538a.84.84 0 0 1 .086.385zm-.461 3.855v11.197h-1.065V94.897h1.065zm11.165 0v.449c0 .16-.055.303-.158.432l-7.008 9.473h6.887v.848h-8.178v-.432c0-.128.055-.264.166-.416l7.032-9.507h-6.827v-.847h8.086zm2.789 5.159v.211c0 .84.099 1.582.293 2.217.193.641.474 1.173.832 1.603.359.435.795.759 1.307.978.51.215 1.078.328 1.71.328.563 0 1.05-.063 1.462-.186a5.588 5.588 0 0 0 1.713-.835c.165-.122.285-.185.359-.185.098 0 .173.039.226.11l.292.362c-.18.226-.417.438-.715.63a4.986 4.986 0 0 1-.99.497c-.363.145-.755.25-1.17.333s-.832.128-1.252.128a5.436 5.436 0 0 1-2.093-.398 4.459 4.459 0 0 1-1.62-1.168c-.45-.509-.795-1.134-1.04-1.869-.245-.738-.365-1.588-.365-2.541 0-.799.115-1.543.347-2.224a5.065 5.065 0 0 1 .988-1.753c.432-.491.961-.88 1.586-1.15.625-.277 1.338-.42 2.133-.42.629 0 1.215.11 1.754.326a4.047 4.047 0 0 1 1.408.951c.399.416.711.93.939 1.533.229.607.343 1.308.343 2.095 0 .165-.022.278-.067.338s-.119.095-.226.095h-8.151v-.006h-.003zm7.466-.69c0-.602-.084-1.139-.252-1.615a3.351 3.351 0 0 0-.715-1.204 3.118 3.118 0 0 0-1.098-.763 3.553 3.553 0 0 0-1.4-.264c-.576 0-1.095.088-1.551.269-.459.183-.854.438-1.188.776s-.604.742-.807 1.217a5.58 5.58 0 0 0-.404 1.587h7.414v-.003h.001zm3.59-.404h5.229v.912h-5.229v-.912zm9.305 7.135V96.071l-1.572-.104c-.212-.021-.315-.116-.315-.276v-.439h1.89v-.957c0-.688.104-1.313.303-1.859.203-.554.5-1.021.89-1.408a3.85 3.85 0 0 1 1.415-.887c.558-.211 1.188-.313 1.9-.313.24 0 .492.021.761.063.267.039.493.099.682.174l-.045.537c-.017.061-.047.094-.092.104a1.685 1.685 0 0 1-.201 0c-.09-.011-.205-.021-.344-.041a3.218 3.218 0 0 0-.5-.028c-1.186 0-2.104.303-2.751.911-.647.604-.973 1.533-.973 2.777v.923h6.562v10.845h-1.069v-10.05h-5.457v10.05h-1.078v.005h-.006v-.001zm14.49.177c-.759 0-1.35-.209-1.771-.629-.426-.42-.636-1.068-.636-1.946v-7.652h-1.608a.3.3 0 0 1-.202-.065c-.054-.045-.077-.107-.077-.19v-.415l1.911-.137.271-4.006a.431.431 0 0 1 .09-.18c.045-.053.107-.078.192-.078h.508v4.275h3.532v.796h-3.532v7.595c0 .307.04.572.117.795.08.22.188.397.328.547.137.143.302.244.489.313s.391.104.605.104c.271 0 .503-.041.698-.116.192-.077.362-.165.505-.263.144-.092.26-.18.351-.26s.159-.117.213-.117c.061 0 .119.035.181.112l.293.47a3.112 3.112 0 0 1-1.085.766 3.484 3.484 0 0 1-1.373.281zm10.8-9.988a.285.285 0 0 1-.26.156c-.082 0-.188-.051-.314-.143a4.622 4.622 0 0 0-.513-.313 3.931 3.931 0 0 0-1.94-.461 3.291 3.291 0 0 0-1.105.176 2.608 2.608 0 0 0-.854.471c-.233.194-.418.42-.545.678a1.827 1.827 0 0 0-.188.814c0 .352.09.645.27.88.183.229.415.431.703.595.287.166.62.31.995.426.375.121.755.244 1.144.361.386.123.769.256 1.144.4s.707.328.994.547c.287.216.521.482.703.796.18.317.27.697.27 1.147 0 .485-.087.94-.26 1.36a3.12 3.12 0 0 1-.76 1.097c-.337.311-.746.547-1.232.728-.488.181-1.045.272-1.676.272-.787 0-1.467-.127-2.034-.381a5.651 5.651 0 0 1-1.53-.981l.247-.386a.403.403 0 0 1 .13-.133.374.374 0 0 1 .198-.045c.099 0 .215.059.354.176.138.123.321.256.558.391a4.7 4.7 0 0 0 .86.385c.34.123.763.18 1.265.18a3.68 3.68 0 0 0 1.25-.193c.36-.133.66-.309.898-.532.24-.229.421-.492.546-.795.123-.302.186-.625.186-.962 0-.375-.09-.686-.27-.936a2.286 2.286 0 0 0-.711-.629 5.31 5.31 0 0 0-.994-.438c-.37-.122-.754-.24-1.145-.362-.39-.115-.771-.25-1.143-.391a4.11 4.11 0 0 1-.995-.543 2.627 2.627 0 0 1-.71-.789c-.182-.313-.271-.703-.271-1.168 0-.396.088-.782.261-1.146.172-.365.418-.688.737-.97a3.643 3.643 0 0 1 1.164-.664c.457-.165.972-.25 1.54-.25.684 0 1.287.099 1.817.292.526.195 1.01.497 1.445.902l-.229.381zm3.115 2.676h5.229v.912h-5.229v-.912zm8.303-2.477a6.528 6.528 0 0 1 1.846-1.326c.646-.297 1.375-.45 2.191-.45.602 0 1.125.099 1.575.288.45.188.82.465 1.12.818.298.354.52.785.67 1.295a6 6 0 0 1 .225 1.695v7.289h-.427c-.227 0-.365-.105-.418-.316l-.157-1.439c-.309.305-.615.572-.918.813a5.032 5.032 0 0 1-2.018.99 5.751 5.751 0 0 1-1.261.137c-.383 0-.752-.057-1.112-.17a2.715 2.715 0 0 1-.961-.52 2.526 2.526 0 0 1-.677-.893c-.17-.365-.255-.801-.255-1.313 0-.47.136-.905.404-1.313.271-.403.691-.758 1.271-1.061.578-.298 1.316-.537 2.224-.718.901-.181 1.985-.282 3.258-.317v-1.166c0-1.035-.223-1.83-.67-2.394-.445-.558-1.107-.836-1.984-.836-.541 0-1 .073-1.378.226a4.756 4.756 0 0 0-.963.493 6.628 6.628 0 0 0-.64.492c-.165.151-.308.226-.418.226a.342.342 0 0 1-.202-.054.477.477 0 0 1-.136-.147l-.189-.329zm6.582 4.202c-.922.022-1.841.105-2.752.25-.769.131-1.402.313-1.9.537-.5.225-.866.49-1.105.805-.24.308-.36.664-.36 1.061 0 .375.063.702.187.977.125.273.291.498.496.678.204.178.443.303.715.385.27.082.553.127.843.127a4.495 4.495 0 0 0 2.21-.538c.313-.163.604-.364.872-.6.271-.235.538-.481.8-.752v-2.929h-.006v-.001zm5.807-10.961v16.373h-1.08V89.726h1.08zm4.968 0v16.373h-1.08V89.726h1.08zm14.515 11.056c0 .893-.106 1.68-.324 2.359-.218.686-.532 1.256-.943 1.725a3.979 3.979 0 0 1-1.498 1.051 5.296 5.296 0 0 1-1.979.355 7.343 7.343 0 0 1-2.091-.326l.026-.317c.011-.104.024-.209.04-.313a.474.474 0 0 1 .085-.18c.043-.054.114-.078.222-.078.066 0 .146.01.241.039.256.074.518.13.782.166a3.7 3.7 0 0 0 .599.039c.569 0 1.085-.087 1.54-.268.457-.18.848-.455 1.17-.824.321-.37.566-.84.736-1.408.169-.566.253-1.229.253-1.996V90.175h1.146v10.605l-.005.002zm3.972-.726v.211c0 .84.097 1.582.291 2.217.195.641.474 1.173.834 1.603.351.427.798.762 1.306.978a4.333 4.333 0 0 0 1.709.328c.564 0 1.051-.063 1.464-.186.411-.127.76-.264 1.04-.42a6.08 6.08 0 0 0 .672-.415c.163-.122.281-.185.358-.185.1 0 .173.039.227.11l.293.362a3.01 3.01 0 0 1-.715.63 4.986 4.986 0 0 1-.99.497c-.364.145-.755.25-1.17.333a6.533 6.533 0 0 1-1.255.128 5.438 5.438 0 0 1-2.094-.398 4.464 4.464 0 0 1-1.619-1.168c-.45-.509-.795-1.134-1.04-1.869-.245-.738-.365-1.588-.365-2.541 0-.799.115-1.543.347-2.224a5.024 5.024 0 0 1 .988-1.753c.434-.49.96-.88 1.588-1.15.625-.277 1.338-.42 2.133-.42.631 0 1.215.11 1.756.326.531.215 1.01.539 1.406.951.4.416.711.93.94 1.533.229.607.342 1.308.342 2.095 0 .165-.022.278-.063.338-.05.06-.121.095-.228.095h-8.154l-.001-.006zm7.467-.69c0-.602-.084-1.139-.256-1.615a3.36 3.36 0 0 0-.713-1.204 3.156 3.156 0 0 0-1.095-.763 3.634 3.634 0 0 0-1.401-.264c-.578 0-1.097.088-1.554.269-.458.183-.854.438-1.188.776s-.604.742-.806 1.217a5.546 5.546 0 0 0-.403 1.587h7.413v-.003h.003zm4.96-9.64v9.979h.519c.104 0 .205-.018.298-.045a.826.826 0 0 0 .312-.217l4.489-4.262a.76.76 0 0 1 .25-.211.665.665 0 0 1 .336-.072h.942l-4.938 4.692c-.136.157-.28.282-.438.37.12.057.224.133.308.21.089.077.171.17.257.272l5.185 5.649h-.933a.803.803 0 0 1-.287-.054.612.612 0 0 1-.24-.205l-4.705-5.04c-.061-.065-.117-.128-.172-.171a1.049 1.049 0 0 0-.176-.105.78.78 0 0 0-.207-.054 1.624 1.624 0 0 0-.287-.021h-.506v5.649h-1.079V89.72h1.075v.006h-.003zm18.679 5.171-6.438 14.795a.778.778 0 0 1-.175.262c-.066.066-.17.104-.308.104h-.769l1.974-4.375-4.737-10.781h.888a.4.4 0 0 1 .27.088.415.415 0 0 1 .137.185l3.767 8.704c.05.113.086.227.121.344s.063.234.095.357c.039-.123.075-.24.116-.357l.134-.344 3.72-8.704a.51.51 0 0 1 .16-.2.384.384 0 0 1 .225-.072h.822l-.002-.006zm3.422-5.171v16.373h-1.085V89.726h1.085zm4.972 0v16.373h-1.08V89.726h1.08zm12.959 16.548c-.758 0-1.348-.209-1.771-.629-.426-.42-.638-1.068-.638-1.946v-7.652h-1.61a.306.306 0 0 1-.2-.065c-.052-.045-.077-.107-.077-.19v-.415l1.91-.137.271-4.006a.448.448 0 0 1 .089-.18.227.227 0 0 1 .188-.078h.508v4.275h3.529v.796h-3.529v7.595c0 .307.041.572.117.795.077.22.187.397.327.547.138.143.304.244.488.313.188.068.39.104.607.104.27 0 .498-.041.692-.116.313-.128.603-.305.86-.522.09-.076.16-.117.211-.117.063 0 .123.035.181.112l.293.47a3.069 3.069 0 0 1-1.085.766c-.439.185-.89.28-1.361.28zm5.726-9.485a6.248 6.248 0 0 1 1.772-1.505 4.457 4.457 0 0 1 2.231-.567c.614 0 1.157.099 1.625.294.467.193.854.479 1.162.846.307.367.543.81.695 1.326.16.519.24 1.104.24 1.754v7.155h-1.085v-7.155c0-1.051-.239-1.871-.718-2.465-.479-.598-1.21-.895-2.191-.895-.729 0-1.41.186-2.041.559-.635.368-1.198.885-1.693 1.543v8.418h-1.08V89.724h1.08l.003 7.065zm11.676 3.267v.211c0 .84.098 1.582.292 2.217.194.641.474 1.173.835 1.603.363.435.795.759 1.303.978a4.35 4.35 0 0 0 1.711.328c.566 0 1.05-.063 1.466-.186a5.578 5.578 0 0 0 1.709-.835c.168-.122.282-.185.362-.185a.27.27 0 0 1 .226.11l.293.362c-.181.226-.42.438-.72.63a4.912 4.912 0 0 1-.984.497 6.843 6.843 0 0 1-1.175.333 6.446 6.446 0 0 1-1.255.128 5.425 5.425 0 0 1-2.09-.398 4.44 4.44 0 0 1-1.621-1.168c-.448-.509-.795-1.134-1.039-1.869-.245-.738-.363-1.588-.363-2.541 0-.799.111-1.543.342-2.224.21-.644.547-1.24.99-1.753.43-.49.957-.88 1.588-1.15.625-.277 1.338-.42 2.13-.42a4.7 4.7 0 0 1 1.757.326 4.111 4.111 0 0 1 1.408.951c.396.416.707.93.938 1.533.229.607.343 1.308.343 2.095 0 .165-.021.278-.063.338-.049.06-.122.095-.225.095h-8.154l-.004-.006zm7.471-.69c0-.602-.084-1.139-.256-1.615a3.332 3.332 0 0 0-.713-1.204 3.165 3.165 0 0 0-1.095-.763 3.647 3.647 0 0 0-1.403-.264c-.579 0-1.097.088-1.552.269-.46.183-.854.438-1.188.776-.344.35-.618.764-.806 1.217-.205.472-.337 1-.403 1.587h7.414v-.003h.002zm3.881 6.731v-11.2h.598c.188 0 .297.094.327.283l.103 1.619c.438-.625.933-1.128 1.495-1.511a3.315 3.315 0 0 1 1.904-.575c.813 0 1.471.24 1.964.715.484.469.818 1.127.993 1.967.134-.459.321-.854.567-1.191.244-.344.521-.621.84-.84a3.242 3.242 0 0 1 1.024-.488c.37-.107.753-.16 1.144-.16a3.89 3.89 0 0 1 1.5.277c.439.186.814.455 1.121.814.311.359.543.801.709 1.328.164.521.25 1.121.25 1.797v7.156h-1.069v-7.156c0-1.096-.235-1.929-.707-2.5-.474-.574-1.147-.859-2.028-.859-.39 0-.762.068-1.117.211a2.767 2.767 0 0 0-.946.635 3.127 3.127 0 0 0-.649 1.055c-.162.42-.244.907-.244 1.461v7.156h-1.08v-7.156c0-1.086-.215-1.92-.646-2.496-.436-.572-1.064-.863-1.898-.863a2.888 2.888 0 0 0-1.686.537c-.52.361-.982.859-1.388 1.5v8.482h-1.076v.002h-.005zm18.49-6.041v.211c0 .84.099 1.582.293 2.217.195.641.474 1.173.836 1.603.361.435.795.759 1.302.978a4.378 4.378 0 0 0 1.711.328c.566 0 1.051-.063 1.466-.186a5.64 5.64 0 0 0 1.71-.835c.167-.122.281-.185.361-.185a.27.27 0 0 1 .226.11l.293.362c-.181.226-.42.438-.718.63-.31.202-.641.369-.987.497-.364.145-.758.25-1.172.333a6.535 6.535 0 0 1-1.256.128c-.763 0-1.46-.139-2.091-.398a4.435 4.435 0 0 1-1.619-1.168c-.45-.509-.795-1.134-1.04-1.869-.244-.738-.365-1.588-.365-2.541 0-.799.112-1.543.343-2.224a5.12 5.12 0 0 1 .99-1.753c.432-.49.958-.88 1.587-1.15.625-.277 1.338-.42 2.131-.42.63 0 1.216.11 1.759.326a4.1 4.1 0 0 1 1.405.951c.396.416.708.93.938 1.533.229.607.344 1.308.344 2.095 0 .165-.021.278-.063.338a.287.287 0 0 1-.227.095H384.8l-.001-.006zm7.472-.69c0-.602-.082-1.139-.256-1.615a3.313 3.313 0 0 0-.711-1.204 3.177 3.177 0 0 0-1.097-.763 3.634 3.634 0 0 0-1.401-.264c-.58 0-1.099.088-1.554.269-.46.183-.854.438-1.188.776a3.82 3.82 0 0 0-.805 1.217c-.205.472-.338 1-.404 1.587h7.414v-.003h.002zm10.659 6.731V96.071l-1.578-.104c-.21-.021-.315-.116-.315-.276v-.439h1.896v-1.42c0-.635.077-1.197.244-1.68.168-.482.4-.889.697-1.211.298-.322.66-.563 1.08-.724.42-.159.885-.243 1.396-.243.234 0 .472.02.702.063.235.04.45.098.637.175l-.035.513c-.017.067-.045.112-.095.133a.566.566 0 0 1-.209.024 5.12 5.12 0 0 1-.348-.034 3.762 3.762 0 0 0-.498-.031c-.365 0-.707.055-1.015.16a2.05 2.05 0 0 0-.808.523c-.24.271-.418.593-.521.941-.128.386-.188.86-.188 1.42v1.389h3.635v.795h-3.6v10.051h-1.082l.005.001zm10.976-11.375c.805 0 1.521.137 2.157.414a4.368 4.368 0 0 1 1.603 1.161c.436.503.768 1.106.996 1.817.227.71.342 1.505.342 2.377 0 .881-.112 1.67-.342 2.378-.23.702-.563 1.31-.996 1.81a4.42 4.42 0 0 1-1.603 1.16c-.636.27-1.354.405-2.157.405-.8 0-1.52-.14-2.152-.405a4.405 4.405 0 0 1-1.606-1.16 4.984 4.984 0 0 1-1-1.81c-.229-.708-.349-1.5-.349-2.378 0-.875.117-1.67.349-2.377a5.114 5.114 0 0 1 1-1.817c.44-.505.99-.901 1.606-1.161.633-.283 1.352-.414 2.152-.414zm0 10.674c.67 0 1.25-.111 1.753-.344a3.301 3.301 0 0 0 1.245-.986c.338-.43.585-.941.752-1.549.159-.6.245-1.277.245-2.029 0-.743-.082-1.416-.245-2.023-.164-.607-.414-1.127-.752-1.557a3.225 3.225 0 0 0-1.245-.996c-.503-.232-1.085-.354-1.753-.354-.664 0-1.25.117-1.747.354a3.327 3.327 0 0 0-1.25.996c-.333.43-.58.945-.753 1.557a7.429 7.429 0 0 0-.254 2.023c0 .752.081 1.43.254 2.029.17.605.42 1.119.753 1.549.337.432.753.759 1.25.986.497.232 1.083.344 1.747.344zm9.146-7.795c.175-.455.37-.865.59-1.222a3.9 3.9 0 0 1 .77-.901c.288-.25.608-.439.968-.571a3.483 3.483 0 0 1 1.188-.195c.232 0 .465.021.688.063.225.039.42.111.595.22l-.093.743c-.035.117-.105.18-.21.18-.093 0-.229-.029-.415-.077a2.629 2.629 0 0 0-.723-.083c-.437 0-.82.067-1.152.2a2.672 2.672 0 0 0-.902.59 3.682 3.682 0 0 0-.69.974c-.2.386-.38.83-.548 1.332v7.246h-1.08V94.899h.572c.128 0 .221.031.268.078.053.054.088.147.104.272l.07 2.352zm26.875-2.704-3.733 11.197h-.796c-.128 0-.216-.078-.261-.24l-3.063-9.088c-.04-.109-.067-.225-.104-.336a6.578 6.578 0 0 1-.076-.344c-.034.23-.094.455-.164.678l-3.105 9.088c-.045.16-.138.24-.268.24h-.77l-3.734-11.197h.812c.103 0 .188.029.26.088a.372.372 0 0 1 .133.186l2.827 8.828c.045.175.083.342.123.502s.067.316.092.479c.047-.16.09-.316.135-.479s.098-.327.155-.502l2.993-8.91c.052-.158.16-.245.317-.245h.438c.16 0 .272.083.328.245l2.97 8.91c.052.175.104.337.147.497.045.155.083.313.123.47.028-.156.063-.313.097-.47.035-.16.073-.322.128-.497l2.85-8.828a.394.394 0 0 1 .38-.271h.766v-.001zm3.432 2.704a7.31 7.31 0 0 1 .59-1.222c.225-.356.478-.657.768-.901.287-.25.609-.439.967-.571a3.483 3.483 0 0 1 1.188-.195c.234 0 .465.021.687.063.228.039.423.111.598.22l-.094.743c-.034.117-.106.18-.21.18-.094 0-.229-.029-.415-.077a2.632 2.632 0 0 0-.724-.083c-.435 0-.818.067-1.151.2a2.653 2.653 0 0 0-.901.59 3.65 3.65 0 0 0-.692.974c-.2.386-.38.83-.548 1.332v7.246h-1.08V94.899h.573c.127 0 .22.031.267.078.055.054.089.147.104.272l.073 2.352zm8.585-6.559a.81.81 0 0 1-.083.375 1.18 1.18 0 0 1-.222.313.99.99 0 0 1-1.395 0 1.043 1.043 0 0 1-.293-.688c0-.135.029-.263.083-.385a.934.934 0 0 1 .21-.323c.092-.093.193-.159.316-.215a.924.924 0 0 1 .381-.077c.138 0 .263.023.385.077.239.104.431.298.534.538.058.12.086.252.084.385zm-.46 3.855v11.197h-1.07V94.897h1.07zm6.87 11.377c-.759 0-1.349-.209-1.771-.629-.42-.42-.636-1.068-.636-1.946v-7.652h-1.607a.322.322 0 0 1-.205-.065.244.244 0 0 1-.077-.19v-.415l1.915-.137.27-4.006a.399.399 0 0 1 .093-.18.227.227 0 0 1 .188-.078h.504v4.275h3.534v.796h-3.534v7.595c0 .307.039.572.121.795.077.22.187.397.321.547.145.143.304.244.493.313.186.068.391.104.604.104.269 0 .504-.041.696-.116.195-.077.363-.165.509-.263.144-.092.261-.18.349-.26s.16-.117.215-.117c.058 0 .117.035.181.112l.292.47a3.122 3.122 0 0 1-1.09.766 3.467 3.467 0 0 1-1.365.281zm4.996-6.218v.211c0 .84.099 1.582.292 2.217.195.641.475 1.173.835 1.603.351.426.798.761 1.305.978.513.215 1.08.328 1.71.328.565 0 1.05-.063 1.465-.186a5.617 5.617 0 0 0 1.71-.835c.168-.122.282-.185.362-.185a.271.271 0 0 1 .226.11l.292.362c-.18.226-.42.438-.718.63a4.91 4.91 0 0 1-.987.497c-.364.145-.757.25-1.172.333s-.835.128-1.255.128a5.441 5.441 0 0 1-2.091-.398 4.447 4.447 0 0 1-1.62-1.168c-.449-.509-.795-1.134-1.039-1.869-.245-.738-.365-1.588-.365-2.541 0-.799.112-1.543.342-2.224.23-.681.563-1.265.99-1.753a4.395 4.395 0 0 1 1.588-1.15c.625-.277 1.337-.42 2.13-.42.631 0 1.217.11 1.76.326a4.118 4.118 0 0 1 1.405.951c.396.416.707.93.938 1.533.229.607.343 1.308.343 2.095 0 .165-.021.278-.063.338a.29.29 0 0 1-.228.095h-8.153v-.006h-.002zm7.471-.69c0-.602-.082-1.139-.256-1.615a3.33 3.33 0 0 0-.712-1.204 3.163 3.163 0 0 0-1.097-.763 3.632 3.632 0 0 0-1.4-.264c-.58 0-1.1.088-1.555.269-.46.183-.854.438-1.188.776-.345.35-.618.764-.807 1.217-.204.472-.338 1-.403 1.587h7.415l.003-.003zm4.906-1.765c.155-.427.354-.836.592-1.222.22-.356.473-.657.763-.901.293-.25.615-.439.973-.571a3.46 3.46 0 0 1 1.188-.195c.229 0 .46.021.683.063.227.039.425.111.596.22l-.089.743c-.04.117-.105.18-.215.18-.087 0-.225-.029-.41-.077a2.66 2.66 0 0 0-.728-.083 3.1 3.1 0 0 0-1.152.2 2.647 2.647 0 0 0-.896.59c-.284.284-.52.614-.697.974-.2.389-.38.83-.548 1.332v7.246h-1.08V94.899h.575c.128 0 .215.031.268.078.053.054.088.147.104.272l.073 2.352zm12.959-1.315a.28.28 0 0 1-.26.156c-.083 0-.188-.051-.315-.143a4.737 4.737 0 0 0-.51-.313 3.948 3.948 0 0 0-1.941-.461 3.307 3.307 0 0 0-1.107.176 2.636 2.636 0 0 0-.854.471c-.234.197-.42.42-.547.678-.128.258-.19.531-.19.814 0 .352.093.645.27.88.18.229.413.431.7.595.293.166.625.31.995.426.375.121.758.244 1.145.361.385.123.768.256 1.143.4s.708.328.995.547c.287.216.521.482.702.796.181.317.268.697.268 1.147 0 .486-.082.94-.26 1.361-.17.42-.425.784-.758 1.096-.36.32-.779.567-1.234.728-.48.181-1.045.272-1.675.272-.785 0-1.466-.127-2.035-.381a5.473 5.473 0 0 1-1.525-.981l.242-.386a.353.353 0 0 1 .328-.178c.1 0 .215.059.357.176.138.123.32.256.558.391.234.135.52.268.859.385.343.123.763.18 1.266.18.475 0 .889-.063 1.25-.193.332-.114.638-.295.897-.532.245-.229.425-.491.547-.795.128-.302.186-.625.186-.962 0-.375-.088-.686-.268-.936a2.252 2.252 0 0 0-.708-.629 5.214 5.214 0 0 0-.994-.438c-.37-.122-.753-.24-1.144-.362a15.85 15.85 0 0 1-1.144-.391 4.04 4.04 0 0 1-.995-.542 2.624 2.624 0 0 1-.708-.79c-.18-.313-.267-.703-.267-1.168 0-.396.082-.782.26-1.146.175-.371.426-.701.737-.97a3.605 3.605 0 0 1 1.162-.664c.46-.168.973-.25 1.543-.25.683 0 1.289.099 1.815.292a4.299 4.299 0 0 1 1.445.902l-.231.381zm-274.075-55.14v38.242h-7.823V57.396c0-.508.017-1.061.04-1.653a25.41 25.41 0 0 1 .146-1.813l-10.159 19.66c-.313.612-.736 1.075-1.271 1.39a3.525 3.525 0 0 1-1.821.475h-1.207c-.682 0-1.293-.157-1.822-.475-.535-.313-.961-.775-1.275-1.39l-10.156-19.715c.053.63.098 1.247.131 1.851.035.604.055 1.16.055 1.668v21.994h-7.825V41.146h6.774c.384 0 .721.008 1.011.024.286.019.545.07.774.157.229.088.434.224.614.408.185.182.364.441.54.773l9.846 19.396c.351.664.686 1.354 1.01 2.074.322.719.634 1.451.931 2.205.298-.771.606-1.521.935-2.258a26.24 26.24 0 0 1 1.037-2.101l9.816-19.32c.175-.331.354-.59.536-.772.175-.179.386-.317.619-.408.227-.087.482-.141.772-.157s.628-.024 1.01-.024l6.762.003zm15.252 3.571c0 .647-.131 1.257-.394 1.825a4.735 4.735 0 0 1-1.078 1.495c-.454.43-.983.771-1.588 1.022a4.9 4.9 0 0 1-1.927.381c-.668 0-1.288-.127-1.864-.381s-1.091-.595-1.535-1.022a4.787 4.787 0 0 1-1.051-1.495 4.411 4.411 0 0 1-.383-1.825c0-.663.128-1.284.38-1.864a4.84 4.84 0 0 1 1.05-1.521c.443-.434.964-.78 1.535-1.021.58-.244 1.2-.367 1.865-.367a5.1 5.1 0 0 1 1.928.367 4.921 4.921 0 0 1 2.666 2.543c.265.584.4 1.22.396 1.863zm-.84 7.455v27.222h-8.14V52.172h8.14zm13.205 2.94c.523-.49 1.066-.945 1.627-1.365a9.521 9.521 0 0 1 1.799-1.063c.64-.289 1.33-.519 2.074-.684.741-.168 1.553-.25 2.428-.25 1.485 0 2.806.262 3.949.773 1.146.519 2.114 1.232 2.899 2.152.787.92 1.385 2.012 1.787 3.282.4 1.271.604 2.647.604 4.136V79.39h-8.14V62.095c0-1.33-.308-2.369-.92-3.111-.611-.743-1.513-1.113-2.702-1.113-.893 0-1.728.188-2.508.564s-1.535.889-2.271 1.535v19.422h-8.138v-27.22h5.039c1.017 0 1.681.455 1.995 1.365l.478 1.575zm31.579-10.395c0 .647-.131 1.257-.394 1.825a4.717 4.717 0 0 1-1.077 1.495c-.455.43-.984.771-1.587 1.022a4.924 4.924 0 0 1-1.928.381 4.549 4.549 0 0 1-1.865-.381 5.267 5.267 0 0 1-1.535-1.022c-.446-.429-.795-.929-1.05-1.495s-.38-1.178-.38-1.825c0-.663.127-1.284.38-1.864a4.84 4.84 0 0 1 1.05-1.521c.447-.438.96-.777 1.535-1.021a4.736 4.736 0 0 1 1.865-.367 5.1 5.1 0 0 1 1.928.367 5.01 5.01 0 0 1 1.587 1.021 4.91 4.91 0 0 1 1.078 1.521c.263.585.398 1.222.393 1.864zm-.841 7.455v27.222h-8.138V52.172h8.138zm5.695 27.222V52.172h5.04c1.015 0 1.68.455 1.995 1.365l.445 1.47c.457-.473.93-.904 1.418-1.3a8.864 8.864 0 0 1 1.589-1.021 8.724 8.724 0 0 1 1.838-.685 8.763 8.763 0 0 1 2.164-.25c1.646 0 3.006.427 4.082 1.271 1.078.852 1.896 1.982 2.453 3.4a8.008 8.008 0 0 1 1.668-2.152 8.859 8.859 0 0 1 2.127-1.443c.769-.37 1.58-.644 2.416-.813.85-.176 1.692-.264 2.532-.264 1.561 0 2.94.23 4.148.695 1.205.465 2.217 1.137 3.029 2.021.813.885 1.43 1.969 1.851 3.254.42 1.287.63 2.746.63 4.373V79.39h-8.138V62.095c0-2.818-1.205-4.227-3.62-4.227-1.102 0-2.02.361-2.744 1.09-.729.729-1.091 1.771-1.091 3.139v17.295h-8.138V62.095c0-1.559-.308-2.654-.92-3.283-.612-.631-1.515-.943-2.702-.943a4.57 4.57 0 0 0-2.089.497 7.617 7.617 0 0 0-1.851 1.34v19.687h-8.138v.002h.006v-.001zm44.075-23.442a16.573 16.573 0 0 1 5.47-3.243c2.006-.707 4.151-1.063 6.444-1.063 1.646 0 3.128.269 4.45.802 1.318.532 2.439 1.276 3.359 2.231a9.768 9.768 0 0 1 2.111 3.398c.489 1.313.733 2.748.733 4.306V79.39h-3.725c-.771 0-1.354-.103-1.745-.313-.396-.21-.723-.646-.987-1.313l-.573-1.496a25.919 25.919 0 0 1-1.972 1.521c-.63.438-1.28.813-1.955 1.115a9.698 9.698 0 0 1-2.148.683 13.42 13.42 0 0 1-2.534.222c-1.243 0-2.371-.16-3.386-.482-1.016-.322-1.878-.801-2.585-1.43a6.328 6.328 0 0 1-1.642-2.35c-.386-.935-.573-2.018-.573-3.24 0-.98.243-1.975.732-2.98.488-1.005 1.339-1.926 2.548-2.758 1.205-.829 2.836-1.524 4.881-2.084 2.048-.563 4.632-.875 7.744-.945v-1.157c0-1.593-.326-2.743-.983-3.45-.656-.709-1.588-1.063-2.795-1.063-.964 0-1.75.104-2.361.314a10.36 10.36 0 0 0-1.641.707c-.481.264-.95.5-1.405.711-.454.209-.995.313-1.628.313-.562 0-1.031-.141-1.414-.42a3.633 3.633 0 0 1-.945-.997l-1.475-2.546zm14.646 12.363c-1.625.07-2.968.211-4.016.422-1.048.21-1.88.472-2.492.785-.612.315-1.037.677-1.274 1.078-.233.401-.354.84-.354 1.313 0 .928.256 1.58.764 1.955.508.378 1.25.563 2.232.563 1.049 0 1.967-.186 2.757-.553.785-.367 1.583-.963 2.388-1.785v-3.779h-.005zm44.395-13.991-10.601 24.647h-1.102l-10.6-24.647h.975c.168 0 .301.05.4.147.1.103.166.2.2.301l9.147 21.324c.103.233.184.473.25.713.064.242.125.479.176.713.065-.231.133-.471.199-.713.064-.24.148-.479.25-.713l9.148-21.324a1 1 0 0 1 .25-.323.567.567 0 0 1 .375-.125h.933zm5.451-1.625c.198-1.45.597-2.746 1.188-3.89a9.843 9.843 0 0 1 2.262-2.912 9.66 9.66 0 0 1 3.178-1.836c1.197-.426 2.508-.64 3.924-.64 1.268 0 2.479.177 3.639.525a8.871 8.871 0 0 1 3.074 1.612c.893.725 1.604 1.642 2.139 2.75.533 1.106.799 2.42.799 3.938 0 1.148-.197 2.2-.6 3.148a8.376 8.376 0 0 1-1.625 2.514 8.961 8.961 0 0 1-2.387 1.8c-.91.476-1.863.821-2.863 1.038 1.367.184 2.574.523 3.625 1.023s1.934 1.131 2.65 1.889a7.435 7.435 0 0 1 1.609 2.625c.359.992.539 2.07.539 3.236a8.937 8.937 0 0 1-.838 3.826 9.794 9.794 0 0 1-2.313 3.137c-.983.893-2.149 1.597-3.5 2.113s-2.825.773-4.427.773c-1.383 0-2.6-.135-3.648-.398-1.05-.269-1.969-.625-2.75-1.076a8.024 8.024 0 0 1-1.986-1.573c-.543-.601-1-1.229-1.375-1.888-.375-.66-.68-1.33-.912-2.015a22.877 22.877 0 0 1-.576-1.948l.428-.201c.133-.049.299-.063.5-.037.197.024.35.181.447.464.053.133.141.416.266.85a10.424 10.424 0 0 0 1.636 3.25c.449.617 1.033 1.185 1.75 1.7s1.578.941 2.588 1.273c1.008.334 2.213.5 3.611.5 1.635 0 3.063-.271 4.289-.813 1.225-.541 2.244-1.235 3.063-2.087a8.666 8.666 0 0 0 1.836-2.825c.408-1.032.613-2.032.613-3 0-1.149-.195-2.221-.588-3.213-.393-.99-1.018-1.854-1.875-2.587s-1.967-1.311-3.324-1.727c-1.359-.416-3.014-.633-4.963-.648v-.926c1.533-.051 2.908-.274 4.125-.676 1.217-.398 2.246-.953 3.088-1.662s1.482-1.547 1.924-2.514c.441-.966.664-2.033.664-3.199 0-1.365-.232-2.551-.701-3.551-.467-1-1.088-1.814-1.859-2.449a7.782 7.782 0 0 0-2.678-1.412 10.74 10.74 0 0 0-3.16-.463c-1.234 0-2.367.188-3.4.563s-1.945.899-2.738 1.575a8.593 8.593 0 0 0-1.961 2.425 10.058 10.058 0 0 0-1.076 3.112c-.064.232-.148.396-.25.486-.1.092-.25.121-.447.088l-.634-.067z"/></svg>
