<?xml version="1.0" standalone="no"?> <!DOCTYPE svg PUBLIC "-//W3C//DTD SVG 1.0//EN" "http://www.w3.org/TR/2001/REC-SVG-20010904/DTD/svg10.dtd" > <svg xmlns="http://www.w3.org/2000/svg" width="100%" height="100%">
<defs >
<font id="cmunso" horiz-adv-x="462" ><font-face
    font-family="CMU Sans Serif"
    units-per-em="1000"
    panose-1="2 0 8 3 0 0 0 0 0 0"
    ascent="928"
    descent="-336"
    alphabetic="0" />
<missing-glyph horiz-adv-x="760" d="M10 10V765H750V10H10ZM70 112L346 388L70 663V112ZM105 70H655L380 346L105 70ZM105 705L380 429L655 705H105ZM414 388L690 112V663L414 388Z" />
<glyph unicode=" " glyph-name="space" horiz-adv-x="367" />
<glyph unicode="!" glyph-name="exclam" horiz-adv-x="367" d="M125 29T125 36T126 48L138 98Q146 131 183 131H227Q249 131 258 120T268 94Q268 90 266 80L257 38Q252 15 241 8T211 0H170Q151 0 140 7T127 22ZM175 210Q175 213 177 221T179 233L266 702Q270 722
290 722H376Q398 722 398 708Q398 705 396 697T394 685L281 215Q278 202 274 199T258 195H198Q175 195 175 210Z" />
<glyph unicode="&quot;" glyph-name="quotedbl" horiz-adv-x="550" d="M230 394Q230 396 230 401T231 409L263 692Q263 694 264 701T266 710T269 716T276 721T288 722H375Q392 722 400 713Q401 707 398 696L310 415Q309 411 306 399T299 381Q291 378 277 378H251Q230
378 230 394ZM414 395Q414 403 415 408L448 697Q450 713 456 719Q461 722 471 722H563Q585 722 585 708Q585 705 583 700T581 694L489 396Q485 385 480 382T464 378H439Q424 379 419 382T414 395Z" />
<glyph unicode="#" glyph-name="numbersign" horiz-adv-x="916" d="M89 135Q89 150 98 159T119 170Q125 171 137 171H313L389 329H183Q138 329 138 365T185 401H424L563 687Q580 722 603 722Q618 722 628 711T639 686Q639 677 630 657L505 401H663L802 687Q808
698 810 703T822 715T842 722Q857 722 867 711T877 686Q877 677 868 657L744 401H880Q900 401 904 400Q932 393 932 365Q932 351 923 342T902 330Q896 329 884 329H708L633 171H849Q864 170 873 160T883 135Q883 99 836 99H597L458 -188Q441 -222 418 -222Q403
-222 393 -211T382 -186Q382 -178 391 -158L516 99H358L219 -188Q202 -222 179 -222Q164 -222 154 -211T144 -186Q144 -176 152 -158L277 99H140Q122 99 118 100Q106 103 98 113T89 135ZM394 171H552L627 329H469L394 171Z" />
<glyph unicode="$" glyph-name="dollar" horiz-adv-x="550" d="M65 75Q65 82 82 126T108 171Q113 171 128 155T177 119T257 92L304 312Q240 329 208 366Q167 413 167 480Q167 497 170 520T188 580T225 647T292 702T395 732Q409 750 426 750T457 732Q511 727 555
706T609 666V661Q583 571 567 571Q561 571 549 583T511 610T446 631L405 439Q474 424 506 374T539 263Q539 236 532 204T509 135T465 66T399 15Q359 -4 308 -10Q294 -27 276 -27Q259 -27 245 -10Q152 -3 83 52Q66 65 65 75ZM289 522Q289 478 334 457L371 629Q327
616 308 585T289 522ZM332 95Q363 104 383 129T410 178T417 221Q417 268 374 293L332 95Z" />
<glyph unicode="%" glyph-name="percent" horiz-adv-x="1029" d="M171 494Q171 517 175 544T193 610T231 678T298 729T399 750Q462 750 504 720T547 618Q547 593 543 566T525 500T487 432T420 382T321 361Q248 361 210 395T171 494ZM204 15Q204 29 213 40T273
102Q303 132 323 152L899 729Q920 750 937 750Q955 750 967 737T979 708Q979 695 968 682T899 610Q855 566 824 535L284 -6Q263 -27 245 -27T216 -15T204 15ZM287 481Q287 434 332 434Q361 434 382 457T413 513T428 572T433 617Q433 677 388 677Q330 677 306 591Q300
569 289 508Q287 490 287 481ZM633 105Q633 129 637 156T656 222T694 289T760 340T861 361Q933 361 971 327T1009 229Q1009 204 1005 176T986 109T948 42T882 -7T783 -28Q743 -28 712 -18T657 24T633 105ZM749 92Q749 45 794 45Q822 45 843 68T875 124T890 184T895
228Q895 288 849 288Q825 288 809 277T782 240T766 193T753 131Q752 124 751 120Q749 102 749 92Z" />
<glyph unicode="&amp;" glyph-name="ampersand" horiz-adv-x="830" d="M75 126Q75 214 156 276Q164 282 275 353Q264 410 264 459Q264 599 339 676Q408 745 493 745Q554 745 595 705T636 602Q636 578 630 559T603 508T532 437T405 350Q437 265 505 167H506Q543
196 570 221T642 302T721 426Q728 438 736 438Q738 438 802 420Q817 416 817 405Q817 396 795 355T719 246T603 125L573 100Q617 78 654 78Q694 78 734 88L774 99Q786 99 786 86Q786 80 773 19Q769 1 764 -2T727 -13Q686 -22 644 -22Q546 -22 472 36Q358 -22 249
-22Q172 -22 124 20T75 126ZM216 137Q216 78 258 78Q333 81 400 107Q361 159 340 194T298 281H297Q296 280 290 276T282 271T275 266T268 260T261 253T253 245T247 236T240 226T233 213Q216 178 216 137ZM382 482Q382 450 386 426Q523 515 523 620Q523 671 491
671Q476 671 460 663T425 635T394 576T382 482Z" />
<glyph unicode="&apos;" glyph-name="quotesingle" horiz-adv-x="305" d="M200 395Q200 397 200 401T201 407L234 697Q236 712 241 719Q246 722 256 722H349Q370 722 370 708Q370 706 367 694L274 396Q270 385 266 382T250 378H225Q216 378 213 378T205 383T200 395Z" />
<glyph unicode="(" glyph-name="parenleft" horiz-adv-x="428" d="M120 87Q120 257 196 432T411 716Q440 740 449 745T472 750H500Q521 750 521 737Q521 731 504 715T459 665T400 584T334 451T277 261Q247 125 247 21Q247 -42 257 -93T280 -170T303 -213T314 -236Q314
-250 295 -250H265Q254 -250 249 -248T233 -234Q120 -117 120 87Z" />
<glyph unicode=")" glyph-name="parenright" horiz-adv-x="428" d="M11 -237Q11 -231 28 -215T74 -165T134 -83T199 52T256 243Q285 376 285 478Q285 557 269 617T236 706T219 737Q219 750 237 750H269Q276 750 281 748T297 735T325 703Q412 589 412 413Q412 250
339 74T118 -218Q86 -243 80 -246T58 -250H32Q11 -250 11 -237Z" />
<glyph unicode="*" glyph-name="asterisk" horiz-adv-x="550" d="M159 425Q159 460 189 478Q198 483 309 520Q217 558 208 565Q195 574 195 593Q195 620 217 642T266 665Q270 665 272 665T278 663T284 660T291 655T299 648T310 637T324 624T340 607T361 586Q366
695 368 704Q374 724 393 737T433 750Q451 750 465 739T480 710Q480 699 437 586Q452 596 467 607T491 624T510 638T525 648T536 655T545 660T552 663T558 664T565 665Q585 665 597 652T610 617Q610 605 608 597T599 581T586 569T564 558T538 548T502 536T460 521Q473
516 487 510T510 501T529 493T544 487T555 481T563 476T569 471T573 465T574 458T575 449Q575 422 552 400T504 377Q500 377 498 377T492 378T486 381T480 386T472 393T461 404T448 417T431 434T409 456Q404 347 402 338Q396 318 377 305T337 292Q319 292 305 302T290
332Q290 341 334 456Q318 445 293 427Q244 392 231 385T205 377Q185 377 172 391T159 425Z" />
<glyph unicode="+" glyph-name="plus" horiz-adv-x="855" d="M114 250Q114 277 141 285Q145 286 166 286H451L512 570Q512 571 513 576T515 584T517 592T521 599T526 606T532 611T540 614T551 616Q586 616 586 578Q586 571 584 559L526 286H806Q828 286 837 275T847
250Q847 223 820 215Q816 214 795 214H510V213L449 -73Q440 -116 411 -116Q406 -116 401 -115T393 -112T387 -107T382 -102T379 -96T377 -90T376 -86L375 -84Q374 -76 378 -58L436 214H158Q140 214 130 221T117 236T114 250Z" />
<glyph unicode="," glyph-name="comma" horiz-adv-x="305" d="M68 -92Q68 -88 120 0H114Q91 0 91 14Q91 17 111 113Q113 120 114 123T120 129T133 131H221Q242 131 242 116Q242 109 232 62T219 9T138 -91Q137 -92 135 -94T132 -97T130 -99T127 -101T125 -103T122
-104T118 -104T114 -105T109 -105H96Q95 -105 93 -105T89 -106Q68 -106 68 -92Z" />
<glyph unicode="-" glyph-name="hyphen" horiz-adv-x="367" d="M61 229Q61 266 105 266Q107 266 109 266L111 265H308Q334 265 343 254T352 230Q352 223 350 216T338 201T309 193H104Q86 193 76 200T63 215T61 229Z" />
<glyph unicode="." glyph-name="period" horiz-adv-x="305" d="M91 14Q91 14 94 35Q97 48 101 68Q111 114 115 122T135 131H222Q242 131 242 116Q242 113 242 110T240 103T239 96Q235 79 230 53Q222 15 218 8T199 0H112Q91 0 91 14Z" />
<glyph unicode="/" glyph-name="slash" horiz-adv-x="550" d="M16 -214Q16 -204 31 -176L565 720Q582 750 603 750Q617 750 628 740T639 714Q639 700 626 680L91 -219Q72 -250 51 -250Q37 -250 27 -239T16 -214Z" />
<glyph unicode="0" glyph-name="zero" horiz-adv-x="550" d="M90 165Q90 226 116 348Q124 386 129 409T148 476T176 548T215 611T268 666T337 701T426 716Q605 716 605 526Q605 465 579 342Q550 205 517 139Q437 -22 270 -22Q90 -22 90 165ZM219 136Q219 90 239
71T285 51Q335 51 377 114Q406 165 442 336T479 562Q479 602 460 622T412 643Q360 643 324 590Q294 545 257 370T219 136Z" />
<glyph unicode="1" glyph-name="one" horiz-adv-x="550" d="M100 29T100 36T102 50T114 65T143 73H235L344 586Q298 574 251 574Q233 574 223 581T210 596T207 611Q207 637 234 645Q236 645 270 647T343 661T417 701Q438 716 449 716Q450 716 452 716T456 715Q458
715 460 715T464 716Q478 716 489 706T500 680Q500 675 498 663L373 73H437Q480 73 480 36Q480 0 437 0H143Q125 0 115 7T102 22Z" />
<glyph unicode="2" glyph-name="two" horiz-adv-x="550" d="M62 36Q62 53 72 83L71 76L269 249Q271 251 294 270T328 300T364 334T402 376T431 421T454 472T462 524Q462 561 443 588T376 616Q345 616 320 604T275 567T249 531T230 497Q225 489 219 487L214 488Q204
493 186 526T167 566Q167 570 175 585T203 622T248 665T317 701T408 716Q497 716 549 667T602 535Q602 500 592 468T570 415T529 365T484 322T426 277T368 232L208 106L297 107H341L463 108Q509 108 509 72Q509 63 504 43T495 17Q484 0 459 0H107Q62 0 62 36Z"
/>
<glyph unicode="3" glyph-name="three" horiz-adv-x="550" d="M61 71Q61 74 85 136Q90 148 97 150H101Q105 148 119 135T150 108T200 84T272 73Q334 73 361 107T403 203Q412 248 412 268Q412 299 397 316T366 336T326 339H288Q276 339 271 339T262 343T258 354T265
391Q268 402 273 406T285 411T308 413T339 417Q388 426 422 478T456 582Q456 627 396 627Q360 627 329 614T280 586T248 557T229 544L224 545Q216 551 204 576T191 609Q192 619 215 639Q304 716 414 716Q592 716 592 584Q592 521 555 467T446 376Q551 346 551 247Q551
225 546 197T522 128T474 56T389 1T261 -22Q225 -22 192 -14T136 6T96 31T70 54T61 71Z" />
<glyph unicode="4" glyph-name="four" horiz-adv-x="550" d="M71 180T71 189T76 221T84 248Q85 251 101 272L396 663Q406 676 411 681T425 690T449 694H529Q567 694 567 665Q567 664 564 646L480 248H516Q563 248 563 211Q563 200 560 191Q555 166 544 160T513
153H460Q456 135 452 114T446 81T440 56T435 35T430 21T423 10T415 4T404 1T390 0H358Q340 0 329 7T316 20T313 33Q313 43 337 153H120Q94 153 79 167Q71 180 71 189ZM187 248H363L436 592Q422 568 360 482T242 322L187 248Z" />
<glyph unicode="5" glyph-name="five" horiz-adv-x="550" d="M57 94Q57 97 60 102T69 114T80 129T94 145T107 160Q117 171 124 171Q129 171 131 168T135 158T144 138T165 107Q182 94 189 90T215 79T256 73Q352 73 384 164Q390 182 400 228Q414 293 414 323Q414
378 366 378Q313 378 266 332Q239 303 232 299T204 295H200Q153 295 153 331Q153 336 155 348L219 653Q225 679 235 686T269 694H550Q596 694 596 658Q596 636 588 617Q578 594 547 594H337L336 593L304 440Q342 451 377 451Q462 451 506 412T550 297Q550 261 536
199Q480 -22 242 -22Q197 -22 159 -7T100 29T68 68T57 94Z" />
<glyph unicode="6" glyph-name="six" horiz-adv-x="550" d="M96 180Q96 244 121 361T196 557Q297 716 483 716Q520 716 549 706T578 681Q568 618 558 607L553 605Q549 605 527 616T472 627Q441 627 415 618T370 596T336 561T311 524T293 483T281 449T274 421Q295
439 307 448T348 468T408 480Q453 480 485 466T534 429T558 380T565 326Q565 291 553 232T523 134Q502 88 465 50T379 -6Q336 -22 275 -22Q196 -22 146 24T96 180ZM226 148Q226 73 292 73Q306 73 318 76T339 82T357 94T371 108T382 127T391 146T398 169T405 193T411
218T416 243Q431 314 431 345Q431 407 373 407Q332 407 301 377T255 302T233 218T226 148Z" />
<glyph unicode="7" glyph-name="seven" horiz-adv-x="550" d="M149 25Q149 33 155 60T180 143T228 258T308 394T425 537L477 587H342L320 586H223Q178 586 178 623Q178 647 188 672Q198 695 230 695H501L523 694H598Q617 694 627 686T640 672T642 658Q642 647
633 611V614Q630 610 597 576T524 494T439 380T353 220T289 26Q281 -11 244 -11H196Q149 -11 149 25Z" />
<glyph unicode="8" glyph-name="eight" horiz-adv-x="550" d="M81 133Q81 252 150 321Q185 355 248 375Q167 403 167 482Q167 501 171 524T191 583T233 647T308 695T424 716Q605 716 605 578Q605 555 601 532T585 480T550 426T490 386L460 375Q552 347 552 252Q552
202 527 139T456 37Q390 -22 269 -22Q81 -22 81 133ZM215 134Q215 102 233 88T291 73Q318 73 338 81T369 99T389 132T402 170T413 218Q421 263 421 274Q421 338 346 338Q322 338 304 333T273 314T252 290T237 255T228 218T219 175Q215 149 215 134ZM291 466Q291
411 364 411Q393 411 412 418T443 442T459 473T469 510Q478 555 478 574Q478 606 459 616T407 627Q352 627 332 604T301 529Q291 479 291 466Z" />
<glyph unicode="9" glyph-name="nine" horiz-adv-x="550" d="M88 40Q88 46 114 79T149 112Q154 112 161 106T176 93T201 79T240 73Q371 73 421 269Q422 273 422 274Q360 214 286 214Q240 214 208 229T159 268T137 317T130 368Q130 407 145 474T183 582Q226 658
303 694Q351 716 426 716Q503 716 551 671T600 518Q600 484 592 429T566 297T508 149T411 36Q330 -22 227 -22Q184 -22 150 -9T102 18T88 40ZM264 348Q264 287 324 287Q365 287 396 318T443 397T465 484T472 554Q472 627 409 627Q338 627 307 553Q294 521 270 400Q264
367 264 348Z" />
<glyph unicode=":" glyph-name="colon" horiz-adv-x="305" d="M91 14L94 35Q97 48 101 68Q111 114 115 122T135 131H222Q242 131 242 116Q242 113 242 110T240 103T239 96Q235 79 230 53Q222 15 218 8T199 0H112Q91 0 91 14ZM160 342Q160 345 162 352T164 362Q181
445 185 451T204 458H291Q311 458 311 442Q311 436 294 354Q290 336 286 332T268 327H181Q160 327 160 342Z" />
<glyph unicode=";" glyph-name="semicolon" horiz-adv-x="305" d="M68 -92Q68 -88 120 0H114Q91 0 91 14Q91 17 111 113Q113 120 114 123T120 129T133 131H221Q242 131 242 116Q242 109 232 62T219 9T138 -91Q137 -92 135 -94T132 -97T130 -99T127 -101T125 -103T122
-104T118 -104T114 -105T109 -105H96Q95 -105 93 -105T89 -106Q68 -106 68 -92ZM160 342Q160 345 162 352T164 362Q181 445 185 451T204 458H291Q311 458 311 442Q311 440 293 354Q289 336 285 332T268 327H181Q160 327 160 342Z" />
<glyph unicode="&lt;" glyph-name="less" horiz-adv-x="855" d="M146 248Q146 261 152 269T164 281T188 293L822 594Q836 601 847 601Q862 601 872 590T883 565Q883 561 883 558T880 551T877 545T872 540T867 536T860 532T854 529T848 526L842 523L259 247V246Q273
238 298 223T330 204L718 -26Q749 -45 749 -65Q749 -82 738 -91T713 -101T686 -92L177 210Q146 229 146 248Z" />
<glyph unicode="=" glyph-name="equal" horiz-adv-x="855" d="M90 135Q90 165 120 171H779Q797 171 807 164T820 149T822 135Q822 99 775 99H136Q90 99 90 135ZM138 364Q138 402 194 401Q196 401 197 401H825Q852 401 861 389T871 365Q871 358 869 351T857 337T828
329H181Q163 329 153 336T140 350T138 364Z" />
<glyph unicode="&gt;" glyph-name="greater" horiz-adv-x="855" d="M78 -65Q78 -53 85 -44T98 -32T118 -23L702 253V254L242 526Q241 526 237 529T232 533T226 537T221 542T217 548T213 556T212 565Q212 580 223 590T248 601Q261 601 275 592L783 290Q798 281
805 273T813 261T815 247Q812 232 806 226T773 207L138 -94Q124 -101 113 -101Q99 -101 89 -91T78 -65Z" />
<glyph unicode="?" glyph-name="question" horiz-adv-x="519" d="M186 36Q186 45 192 74T203 110Q212 129 244 131H288Q310 131 319 120T329 93Q329 87 320 46Q315 24 308 14T295 3T272 0H231Q212 0 201 8T188 23T186 36ZM203 665Q203 669 205 673Q219 691 276
712T400 733Q426 733 446 732T494 723T540 704T571 669T584 612Q584 571 567 531T516 464L502 454Q488 444 483 441T464 426T442 407T421 386T399 360T381 332T365 300T353 264Q351 255 349 245T345 230T342 218T340 209T337 203T334 199T331 197T326 195T319 195H258Q236
195 236 211Q236 222 249 273Q261 322 288 368T341 441T392 493T422 524Q450 561 450 620Q450 632 447 639T430 653T390 660Q345 660 308 642T251 605T224 586H223L222 587Q216 589 211 608T204 646L203 665Z" />
<glyph unicode="@" glyph-name="at" horiz-adv-x="733" d="M124 244Q124 323 152 422T241 594Q357 733 578 733Q686 733 730 683T775 544Q775 495 761 420T734 304Q673 123 488 123Q413 123 363 159T313 282Q313 312 325 375Q378 598 581 599H583Q618 599 653
590Q641 660 566 660Q564 660 562 660T559 661Q552 661 523 657Q454 648 403 614T321 527T273 416T246 287Q246 280 245 267T243 246Q243 62 437 62Q483 62 522 73T586 94T619 105H673Q690 103 690 93Q690 81 654 57T552 11T425 -11Q364 -11 314 0T220 39T150 119T124
244ZM431 281Q431 196 498 196Q530 196 556 217T597 268T622 334T635 397T639 441Q639 526 573 526Q561 526 549 523T518 509T483 472T454 406Q431 323 431 281Z" />
<glyph unicode="A" glyph-name="A" horiz-adv-x="733" d="M47 22Q47 30 69 69L395 647Q410 673 426 683T469 694H557Q575 694 586 690T602 676T608 660T612 638L695 46Q695 44 695 40T696 34Q696 0 656 0H600Q591 0 585 1T573 3T563 9T556 17T551 29T548 43T544
63T541 87T537 116T533 150H247Q237 132 225 109T206 75T192 50T178 29T166 16T152 7T137 2T118 0H76Q47 0 47 22ZM296 237H521L483 519L479 569L296 237Z" />
<glyph unicode="B" glyph-name="B" horiz-adv-x="733" d="M100 36Q100 37 103 58L228 648Q233 673 242 683T275 694H521Q590 694 638 684T720 640T754 551Q754 529 749 508T727 457T671 402T571 363Q716 339 716 230Q716 214 712 193T696 144T660 87T598 39Q524
0 388 0H144Q100 0 100 36ZM247 86H379Q493 86 540 129Q582 166 582 224Q582 304 489 320Q459 325 417 325H298L247 86ZM314 397H413Q453 398 473 399T531 414T590 455Q620 498 620 529Q620 555 607 572T568 596T519 605T464 608H358L314 397Z" />
<glyph unicode="C" glyph-name="C" horiz-adv-x="703" d="M121 235Q121 301 144 391T217 551Q331 716 580 716Q651 716 706 702T773 676L776 670Q776 660 735 560Q730 551 724 551Q717 551 706 561T681 583T636 606T562 616Q324 616 272 322Q264 280 264 245Q264
78 436 78Q504 78 542 89T637 136Q648 142 656 142Q666 142 666 127Q666 121 658 59Q658 58 658 54T657 48T656 44T654 40T652 37T648 34T642 30Q581 0 539 -11T434 -22H394Q336 -18 293 -6T208 32T144 110T121 235Z" />
<glyph unicode="D" glyph-name="D" horiz-adv-x="794" d="M99 37Q99 41 104 66L229 654Q231 664 233 669T240 681T253 691T275 694H530Q593 694 641 684T731 650T796 577T819 459Q819 375 787 274T690 107Q623 39 543 20T349 0H144Q99 0 99 37ZM250 86H360Q363
86 367 86T387 87T426 89Q485 95 527 116T596 173T638 247T664 338Q680 410 680 453T666 527T632 573T581 596T528 606T475 608H361L250 86Z" />
<glyph unicode="E" glyph-name="E" horiz-adv-x="642" d="M100 36Q100 43 102 55L227 644Q230 657 232 663T239 677T252 688T274 691H674Q692 691 702 684T715 670T718 655Q718 632 709 610Q699 587 667 587Q656 587 633 587T538 588T360 590H359L321 405H582Q627
405 627 368Q627 361 625 353Q619 327 609 319T578 310H300L257 107Q302 107 377 108T508 110T567 111Q591 111 600 100T610 76Q610 67 605 45T595 16Q583 0 557 0H143Q100 0 100 36Z" />
<glyph unicode="F" glyph-name="F" horiz-adv-x="611" d="M99 37Q99 42 104 64L226 638Q226 640 227 647T229 656T232 665T236 673T241 680T249 686T260 689T274 691H656Q703 691 703 655Q703 629 692 607Q682 589 651 587L360 590H359L318 393H550Q593 393 593
355Q593 298 545 298H298L245 50Q241 31 239 24T226 8T198 0H144Q126 0 115 7T102 22T99 37Z" />
<glyph unicode="G" glyph-name="G" horiz-adv-x="733" d="M121 232Q121 324 156 431T264 607Q378 716 574 716Q686 716 769 674Q788 666 788 654Q788 647 749 550Q745 541 739 538L733 537Q727 539 709 560T654 598T560 616Q492 616 438 590T353 525T300 433T272
335T264 245Q264 78 443 78Q471 78 541 90H542L571 228H496Q479 229 479 244Q479 250 490 300Q492 311 496 316T503 322T516 323H696Q708 323 712 323T720 319T724 309Q724 303 723 299L670 49Q668 37 665 33T650 23Q538 -22 422 -22Q374 -22 333 -16T252 9T184
55T138 128T121 232Z" />
<glyph unicode="H" glyph-name="H" horiz-adv-x="794" d="M99 37Q99 44 103 60L229 654Q234 676 244 685T276 694H330Q355 694 364 683T373 658Q373 649 321 409H645Q656 460 671 535Q697 663 708 680Q718 694 744 694H797Q815 694 825 687T838 672T841 657T837
633L711 40Q707 19 698 10T665 0H610Q586 0 577 12T567 37Q567 42 572 64L625 314H301L245 49Q242 31 240 24T227 8T197 0H143Q125 0 115 7T102 22T99 37Z" />
<glyph unicode="I" glyph-name="I" horiz-adv-x="325" d="M100 37Q100 47 104 65L228 648Q235 680 244 687T277 694H327Q373 694 373 657Q373 652 368 629L244 45Q239 23 231 13T217 2T195 0H145Q100 0 100 37Z" />
<glyph unicode="J" glyph-name="J" horiz-adv-x="519" d="M53 33Q53 35 86 121Q92 140 102 140Q107 140 114 131T130 109T160 88T209 78Q243 78 271 91T312 130Q314 134 343 270L425 652Q432 681 441 687T472 694H522Q566 694 566 658Q566 657 563 639L457 138Q437
61 377 20T233 -22Q172 -22 113 -3T53 33Z" />
<glyph unicode="K" glyph-name="K" horiz-adv-x="764" d="M99 37Q99 40 103 60L230 655Q235 680 246 687T276 694H316Q333 694 344 684T356 657Q356 653 355 648L354 643L295 368L683 671Q714 694 750 694H816Q835 693 839 677Q839 673 838 670T835 664T829 658T824
653T816 647T807 640L505 404L697 51Q706 33 706 26Q706 0 670 0H610Q592 0 583 5T563 28L403 324L263 215Q255 177 243 120Q227 36 218 18T180 0H141Q120 0 110 11T99 37Z" />
<glyph unicode="L" glyph-name="L" horiz-adv-x="580" d="M99 37Q99 40 104 63L230 655Q235 678 245 686T276 694H329Q372 694 372 656Q372 646 371 641L256 102Q451 105 500 105H505Q548 105 548 69Q548 48 538 23Q528 0 497 0H143Q125 0 115 7T102 22T99 37Z" />
<glyph unicode="M" glyph-name="M" horiz-adv-x="978" d="M99 36Q99 39 99 41T101 47T102 53L230 656Q235 681 246 687T276 694H367Q385 694 396 690T413 676T420 661T425 640L489 309Q515 168 517 148Q548 214 815 636Q815 637 817 641T822 648T828 656T835 666T844
675T855 683T868 689T884 693L905 694H982Q1006 694 1015 682T1024 658L1021 637L896 49Q896 47 894 38T891 27T888 18T882 10T874 5T862 1T845 0H815Q770 0 770 36Q770 39 770 41T772 47T773 53L881 565Q862 525 784 400L583 75Q563 44 547 33T500 22H480Q457
22 445 30T429 47T422 75L365 374Q339 513 334 564L226 54Q217 16 210 9Q200 0 174 0H143Q125 0 115 7T102 21T99 36Z" />
<glyph unicode="N" glyph-name="N" horiz-adv-x="794" d="M100 36Q100 43 102 55L230 656Q235 679 246 686T276 694H376Q394 694 406 691T425 677T434 661T442 639L603 120L715 645Q718 660 720 665T727 679T741 691T764 694H795Q841 694 841 658Q841 654 839
646T837 636L712 47Q712 45 711 40T709 32T707 25T704 18T700 13T694 8T687 4T677 1T664 0H562Q544 0 533 4T514 18T506 31T500 47L337 575L226 52Q226 50 225 44T223 36T221 29T218 22T215 16T211 10T205 6T197 3T188 1T176 0H144Q100 0 100 36Z" />
<glyph unicode="O" glyph-name="O" horiz-adv-x="794" d="M118 217Q118 296 147 397Q238 716 550 716Q593 716 630 710T703 686T764 643T804 573T820 472Q820 406 798 310T726 141Q616 -22 390 -22Q118 -22 118 217ZM260 221Q260 132 302 96T409 59Q602 59 662
341Q663 347 664 350Q683 442 683 483Q683 568 640 603T532 638Q339 638 281 373Q281 370 280 365Q279 360 278 357Q260 267 260 221Z" />
<glyph unicode="P" glyph-name="P" horiz-adv-x="703" d="M99 36Q99 43 103 59L228 648Q233 673 242 683T275 694H507Q588 694 640 681T723 626Q749 590 749 536Q749 479 726 423T657 330Q608 290 551 279T412 268H291Q239 23 235 17Q223 0 199 0H144Q99 0 99
36ZM305 347H417Q452 347 474 349T526 363T576 399Q596 424 605 463T614 525Q614 574 581 591T484 608H361L305 347Z" />
<glyph unicode="Q" glyph-name="Q" horiz-adv-x="794" d="M118 217Q118 299 150 409T247 593Q355 716 549 716Q820 716 820 473Q820 427 810 371T778 247T711 120T603 27Q611 12 620 -3T634 -27T644 -45T651 -58T656 -67T659 -75T660 -80Q660 -105 624 -105H550Q548
-105 546 -105T542 -106Q519 -106 510 -96T480 -41Q473 -26 469 -17Q424 -22 388 -22Q345 -22 308 -16T235 7T174 50T134 118T118 217ZM255 211Q256 126 299 91T408 56Q425 56 433 57Q384 161 384 168Q384 178 393 186T423 195H488Q503 195 509 188T537 144Q548
123 556 110Q602 149 633 233T674 378T684 476Q684 565 641 601T532 638Q412 638 349 544T258 257L256 231L255 211Z" />
<glyph unicode="R" glyph-name="R" horiz-adv-x="703" d="M99 36Q99 38 102 53L228 647Q231 664 234 671T247 686T275 694H495Q549 694 584 691T662 672T727 625Q751 591 751 541Q751 525 749 507T734 459T703 403T643 355T549 320L653 49Q657 37 658 30Q655 0
624 0H562Q543 0 535 5T519 26L415 311H298L240 39Q234 15 224 8T194 0H145Q120 0 110 11T99 36ZM313 384H430Q467 384 491 387T541 399T584 430T610 487Q616 514 616 532Q616 577 584 592T488 608H361L313 384Z" />
<glyph unicode="S" glyph-name="S" horiz-adv-x="611" d="M62 60Q62 71 103 169Q108 178 114 178Q119 178 134 164T170 132T231 101T323 86Q368 86 399 101T443 138T460 177T465 206Q465 255 416 275Q406 280 354 291T285 309Q235 327 200 368T164 469Q164 490
168 514T191 577T238 644T324 694T456 716Q559 716 637 671Q651 663 651 654Q651 652 614 556Q607 540 600 537Q591 538 581 550T558 576T517 601T447 613Q395 613 359 600T305 546Q297 529 297 510Q297 465 348 446Q360 441 412 431T504 401T569 339Q596 296 596
242Q596 220 591 193T568 126T520 55T434 1T304 -22Q220 -22 144 7T62 60Z" />
<glyph unicode="T" glyph-name="T" horiz-adv-x="733" d="M172 621Q172 642 181 665Q191 689 224 689H786Q831 689 831 652Q831 630 822 607Q812 584 780 584Q695 584 563 587L448 45Q445 28 443 21T429 7T399 0H348Q304 0 304 36Q304 42 306 56L419 587Q352 586
306 586T245 585T223 584Q172 584 172 621Z" />
<glyph unicode="U" glyph-name="U" horiz-adv-x="764" d="M134 172Q134 200 153 293L230 655Q234 674 243 683T258 692T278 694H328Q373 694 373 657Q373 648 369 630L287 245Q274 180 274 155Q274 110 299 87T389 64Q436 64 471 77T525 108T560 157T580 210T594
268Q595 275 596 278L676 655Q681 680 691 687T724 694H768Q786 694 796 686T809 671T811 658Q811 653 809 643L723 240Q715 204 706 176T672 108T614 42T521 -3T387 -22H376Q352 -22 330 -20T269 -7T203 23T155 80T134 172Z" />
<glyph unicode="V" glyph-name="V" horiz-adv-x="733" d="M169 661Q169 668 171 674T183 687T209 694H265Q278 694 287 691T302 685T311 673T316 661T319 645T322 630L389 200L399 125L426 175L709 661L718 673Q743 694 772 694H816Q847 694 847 673Q847 666 840
652L494 58Q481 35 473 26T449 8T410 0H319Q296 0 284 9T266 46L170 648Q169 652 169 661Z" />
<glyph unicode="W" glyph-name="W" horiz-adv-x="1039" d="M165 655Q165 694 210 694H245Q268 694 283 679Q290 669 293 638Q293 630 308 362Q314 243 317 125Q330 162 559 638Q569 658 573 665T594 683T632 694H703Q713 694 720 693T732 689T741 682T747 670T751
654T754 633T755 608T756 576T758 538L774 243L780 125Q806 184 863 302L1029 647Q1042 674 1057 684T1099 694H1124Q1156 694 1156 671Q1156 666 1145 641L859 48Q846 20 831 10T791 0H713Q696 0 686 4T672 17T667 33T665 52L644 433L637 569L393 59Q375 22 360
11T313 0H249Q220 0 211 11T199 47L166 641Q166 643 166 648T165 655Z" />
<glyph unicode="X" glyph-name="X" horiz-adv-x="733" d="M42 19Q42 30 57 45L362 368L206 643Q195 662 197 671Q201 694 232 694H318Q338 694 346 688T364 664L460 484Q498 526 553 586Q623 663 640 678T672 694H765Q791 694 791 674Q791 665 775 648L510 367L688
51Q698 31 698 26Q698 6 674 1L661 0H576Q570 0 566 0T557 2T551 5T544 10T538 18T532 29T525 42T516 59T506 80L414 264L209 35Q189 13 178 7T147 0H72Q42 0 42 19Z" />
<glyph unicode="Y" glyph-name="Y" horiz-adv-x="733" d="M167 667Q167 672 169 677T180 688T204 694H271Q315 694 335 665Q340 657 393 547T459 403Q477 429 670 640Q701 673 721 683T773 694H824Q845 694 851 675Q848 662 835 648L501 283Q495 275 489 249T446
49Q441 22 429 11T392 0H342Q326 0 321 3T307 16Q304 22 304 29Q304 42 356 278L177 639Q167 659 167 667Z" />
<glyph unicode="Z" glyph-name="Z" horiz-adv-x="672" d="M68 29Q68 49 74 65T86 88L92 95L563 598L256 595H253Q210 595 210 631Q210 650 219 671Q229 694 259 694H717Q750 694 750 665Q750 646 744 630T732 608L725 601L257 102Q495 105 575 105Q599 105 608
102Q630 92 630 69T621 23Q611 0 580 0H106Q68 0 68 29Z" />
<glyph unicode="[" glyph-name="bracketleft" horiz-adv-x="343" d="M40 -213Q40 -212 43 -194L235 709Q238 723 241 730T254 744T283 750H425Q470 750 470 714Q470 707 468 700T454 685T425 677H364L182 -177H224Q243 -177 252 -181Q273 -192 273 -213Q273 -221
271 -228T257 -242T228 -250H84Q59 -250 50 -238T40 -213Z" />
<glyph unicode="\" glyph-name="backslash" horiz-adv-x="550" d="M212 713Q212 730 223 740T248 750Q263 750 272 740T284 721T286 710L439 -191Q442 -212 442 -213Q442 -229 432 -239T406 -250T382 -240T370 -220L369 -211L215 690Q212 711 212 713Z" />
<glyph unicode="]" glyph-name="bracketright" horiz-adv-x="343" d="M-21 -214Q-21 -207 -19 -200T-5 -185T24 -177H86L267 677H226Q206 677 197 681Q177 691 177 713Q177 750 222 750H365Q383 750 393 743T406 728T409 713Q409 709 408 703T406 694L214 -209Q211
-224 208 -231T195 -244T166 -250H24Q-21 -250 -21 -214Z" />
<glyph unicode="^" glyph-name="asciicircum" horiz-adv-x="672" d="M270 471Q270 477 294 503Q300 508 315 524Q363 576 405 620Q419 634 432 634H504Q515 634 519 632T529 618Q601 474 601 470Q598 461 591 459Q588 458 584 458H551Q538 459 528 469Q524 473
455 553Q440 541 425 529T400 510T381 494T365 482T353 473T344 466T338 462T332 460T327 459T321 458H293Q270 458 270 471Z" />
<glyph unicode="_" glyph-name="underscore" horiz-adv-x="855" d="M30 -294Q30 -286 32 -278T47 -261T79 -252H650Q670 -252 682 -261T697 -278T700 -294T697 -310T683 -327T652 -336H80Q30 -336 30 -294Z" />
<glyph unicode="`" glyph-name="grave" horiz-adv-x="550" d="M249 665Q250 679 270 679H363Q377 678 384 668T450 555L454 545L455 541Q452 528 436 528H401Q394 528 387 533T341 575Q298 615 264 646Q249 660 249 665Z" />
<glyph unicode="a" glyph-name="a" horiz-adv-x="525" d="M56 109Q56 161 87 198T171 255T277 282T390 291Q400 344 400 356Q400 404 346 404Q309 404 275 394T221 371T186 348T166 335Q153 335 153 351Q153 358 160 409Q162 425 166 429T185 440Q268 475 360
475H370Q393 475 414 472T467 459T517 421T536 354Q536 343 536 342T535 332T533 319T528 296T520 258T507 198T489 110Q487 100 484 86T480 65T477 48T473 34T469 23T464 14T458 8T450 3T440 1T427 0H379Q341 0 338 39Q257 -11 176 -11Q119 -11 88 24T56 109ZM188
118Q188 97 200 80T241 62Q274 62 305 80T351 126Q355 134 376 231Q275 226 232 193T188 118Z" />
<glyph unicode="b" glyph-name="b" horiz-adv-x="561" d="M68 37Q68 42 73 64L203 675Q207 692 210 700T223 715T251 722H294Q339 722 339 686Q339 674 286 431Q360 469 431 469Q496 469 539 435T583 316L582 291Q548 -11 310 -11Q250 -11 203 28Q196 12 188 6T160
0H118Q68 0 68 37ZM218 98Q244 62 285 62Q313 62 336 69T374 93T399 122T416 159T426 191T433 220Q449 294 449 321Q449 396 373 396Q326 396 274 360L218 98Z" />
<glyph unicode="c" glyph-name="c" horiz-adv-x="489" d="M76 156Q76 182 88 244Q143 475 373 475Q429 475 461 466T531 434L536 429L539 424V419Q538 409 511 347Q506 339 501 339Q495 339 473 359T431 387Q406 396 359 396Q269 396 235 285Q229 266 217 208Q210
175 210 149Q210 67 288 67Q333 67 371 81T433 113T462 131H465Q475 127 475 118Q475 112 469 59Q467 44 463 40T441 27Q358 -11 273 -11Q178 -11 127 31T76 156Z" />
<glyph unicode="d" glyph-name="d" horiz-adv-x="561" d="M75 145Q75 200 96 275T165 400Q230 469 338 469Q404 469 457 432Q469 488 486 570Q511 693 521 710Q532 722 557 722H602Q627 722 636 710T645 686Q645 680 643 670L509 39Q506 28 504 21T491 7T464 0H417Q378
0 371 32Q299 -11 237 -11Q169 -11 122 24T75 145ZM209 135Q209 62 284 62Q338 62 386 110Q439 359 439 363Q439 374 420 385T372 396Q339 396 313 384T273 357T248 316T234 280T226 247Q209 172 209 135Z" />
<glyph unicode="e" glyph-name="e" horiz-adv-x="511" d="M72 169Q72 198 77 231T102 309T150 390T235 450T363 475Q459 475 500 432T541 320Q541 301 534 254Q530 236 522 227T507 216T488 214H204Q197 167 197 152Q197 110 218 86T293 62Q341 62 382 77T448
110T478 128Q491 125 491 113Q491 108 485 60Q483 44 478 40T444 23Q367 -11 286 -11Q245 -11 210 -3T143 25T91 80T72 169ZM221 279H426Q432 313 432 331Q432 365 417 383T362 402Q262 402 221 279Z" />
<glyph unicode="f" glyph-name="f" horiz-adv-x="336" d="M93 36Q93 37 166 385Q120 385 120 422Q120 458 166 458H183Q185 466 191 500T201 548T214 592T235 637T264 674T305 706T361 724T435 733Q531 733 531 707Q531 704 519 649Q514 625 504 623H501L494 625Q467
660 424 660Q412 660 403 658T386 654T372 645T361 633T352 616T344 595T337 568T331 538T323 501T314 458H360Q404 458 404 422Q404 415 402 408T389 393T360 385H302L228 40Q225 27 222 20T209 7T183 0H138Q120 0 109 7T96 22T93 36Z" />
<glyph unicode="g" glyph-name="g" horiz-adv-x="550" d="M8 -87Q8 -56 26 -24T88 30Q75 58 75 82Q75 140 123 193V194Q103 222 103 264Q103 287 107 310T127 363T167 415T236 453T338 469Q426 467 465 442Q553 469 601 469Q622 469 622 449Q622 414 619 404T604
393Q602 393 593 394T567 396T531 397Q514 397 505 396Q515 367 515 343Q515 321 511 298T491 245T451 193T380 154T274 138Q206 138 163 159Q154 143 154 128Q154 92 196 92H299Q337 92 361 91T418 83T469 64T501 29T515 -28Q515 -103 463 -147T320 -202L289 -205L250
-206H221Q8 -206 8 -87ZM113 -77Q113 -134 243 -134Q332 -134 370 -111T408 -57Q408 -33 378 -25T268 -17H189Q149 -17 134 -30Q113 -47 113 -77ZM228 254Q228 230 241 221T281 211H293Q317 212 333 219T359 240T372 266T381 299Q389 344 389 353Q389 374 377 385T332
397Q284 397 266 376T237 310Q228 259 228 254Z" />
<glyph unicode="h" glyph-name="h" horiz-adv-x="561" d="M67 37Q67 41 70 56L203 681Q205 692 208 699T220 714T246 722H298Q319 722 328 711T338 686L335 665L280 406Q360 469 449 469Q509 469 542 448T576 375Q576 370 576 365T575 354T573 339T570 322T565
298T558 268T550 228T540 181T527 121T512 50Q512 48 511 43T510 36T508 29T505 22T502 17T498 11T493 7T486 3T477 1T466 0H417Q399 0 388 7T375 22T372 36Q372 44 376 60L432 323Q437 343 437 361Q437 396 392 396Q351 396 314 368T260 293Q258 286 207 49Q204
34 203 29T196 15T181 3T158 0H111Q86 0 77 12T67 37Z" />
<glyph unicode="i" glyph-name="i" horiz-adv-x="255" d="M444 617Q444 624 451 660T463 704Q473 721 504 723H555Q582 723 591 711T600 687Q600 680 593 643T579 597Q567 580 540 580H488Q444 580 444 617ZM68 37Q68 42 71 57L148 418Q153 437 161 446T174 456T196
458H238Q283 458 283 422Q283 418 282 411T280 402L203 40Q199 21 190 12T175 2T156 0H112Q68 0 68 37Z" />
<glyph unicode="j" glyph-name="j" horiz-adv-x="286" d="M-103 -158Q-103 -153 -91 -127T-69 -100Q-67 -100 -47 -110T1 -120Q64 -120 78 -64L180 419Q184 438 193 447T207 456T227 458H274Q295 458 305 447T315 422Q315 419 315 417T313 411T312 405L219 -35Q200
-113 158 -159T34 -206Q-7 -206 -55 -190T-103 -158ZM215 617Q215 624 222 660T234 704Q244 721 275 723H326Q353 723 362 711T371 687Q371 680 364 643T350 597Q338 580 311 580H259Q215 580 215 617Z" />
<glyph unicode="k" glyph-name="k" horiz-adv-x="530" d="M76 36Q76 37 79 55L212 678Q214 690 216 695T223 708T237 719T260 722H285Q330 722 330 686Q330 679 328 667L251 305Q281 328 327 364Q417 434 437 446T489 458H490H549H554Q559 457 561 457T567 454T572
449T574 441V440Q574 431 563 421T478 355Q415 307 370 272L492 48Q499 35 499 25Q499 0 466 0H410Q391 0 382 5T362 30L271 195L216 153Q212 133 205 100Q192 33 184 17T147 0H120Q102 0 92 7T79 22T76 36Z" />
<glyph unicode="l" glyph-name="l" horiz-adv-x="255" d="M69 36Q69 41 71 53L203 675Q210 707 219 714T252 722H299Q319 722 329 712T339 686Q339 680 337 670L205 46Q201 29 197 20T185 6T172 2T155 0H113Q69 0 69 36Z" />
<glyph unicode="m" glyph-name="m" horiz-adv-x="866" d="M67 37Q67 37 73 67L149 428Q157 464 194 464H240Q260 464 270 453T281 428Q281 419 277 403Q358 469 449 469Q506 469 535 453T575 396Q655 469 755 469Q815 469 848 448T882 375Q882 368 882 361T879
341T874 314T865 273T853 217T837 139T815 37Q810 17 801 9T770 0H725Q678 0 678 37Q678 42 683 64L737 319Q744 347 744 359Q744 379 733 387T698 396Q654 396 616 364T564 289Q544 207 524 106Q510 33 502 17T465 0H417Q399 0 389 7T376 21T373 36Q373 40 374
47T376 56L433 324Q438 342 438 359Q438 396 393 396Q344 396 308 363T258 289Q256 282 230 156T200 23Q190 0 159 0H112Q67 0 67 37Z" />
<glyph unicode="n" glyph-name="n" horiz-adv-x="561" d="M67 36Q67 41 69 51L149 428Q157 464 194 464H236Q280 464 280 427Q280 422 277 404Q359 469 449 469Q509 469 542 448T576 375Q576 348 538 172Q521 92 510 40Q505 19 496 10T463 0H417Q373 0 373 36Q373
41 375 53L431 320Q438 348 438 359Q438 396 393 396Q349 396 311 364T258 286L206 44Q200 14 188 6Q177 0 159 0H113Q67 0 67 36Z" />
<glyph unicode="o" glyph-name="o" horiz-adv-x="550" d="M69 151Q69 209 94 284T174 408Q247 474 374 474Q576 474 576 306Q576 280 572 251T557 184T525 113T473 52T394 6T285 -11H274Q69 -11 69 151ZM204 146Q204 67 288 67Q320 67 344 78T382 105T409 153T427
210T441 281Q445 317 445 324Q445 402 359 402Q286 402 256 352T207 185Q204 152 204 146Z" />
<glyph unicode="p" glyph-name="p" horiz-adv-x="561" d="M27 -158Q27 -157 30 -142L149 421Q156 458 193 458H233Q235 458 244 458T259 456T272 448T283 428Q361 469 438 469Q500 469 541 435T583 319L582 293Q577 254 571 223T546 145T500 67T424 13T311 -11Q249
-11 204 28Q195 -14 183 -75Q166 -159 157 -177T119 -195H70Q45 -195 36 -183T27 -158ZM219 98Q245 62 285 62Q332 62 366 92T416 166T438 244T445 303Q445 391 370 391Q322 391 273 356L219 98Z" />
<glyph unicode="q" glyph-name="q" horiz-adv-x="561" d="M75 146Q75 204 96 277T164 398Q231 469 343 469Q413 469 454 421Q454 422 456 433T461 447T468 457T481 466T502 469H545Q591 469 591 433Q591 425 587 409L465 -162Q457 -195 421 -195H374Q356 -195
346 -188T333 -173T330 -158Q330 -152 369 32Q305 -11 241 -11Q171 -11 123 25T75 146ZM211 150Q211 62 285 62Q329 62 367 95Q382 108 386 114T393 135L435 333Q435 348 420 369T370 391Q332 391 302 371T255 321T228 256T214 195T211 150Z" />
<glyph unicode="r" glyph-name="r" horiz-adv-x="372" d="M68 36Q68 38 74 68L150 427Q155 451 166 457T198 464H230Q258 464 272 449Q279 439 279 428Q279 423 273 391Q352 469 433 469Q452 469 452 454Q452 449 445 414T434 375Q431 370 423 369T397 365T362
356Q320 341 288 311T246 242Q230 171 213 89Q202 35 199 25T187 8Q177 0 156 0H115Q68 0 68 36Z" />
<glyph unicode="s" glyph-name="s" horiz-adv-x="422" d="M41 49Q41 63 75 137Q78 142 85 144L89 143Q93 141 104 128T127 102T168 79T231 68Q281 68 302 88T323 132T298 167T241 182T171 203T116 255Q104 279 104 305Q104 337 120 375T166 435Q217 475 313 475Q354
475 391 467T448 449T468 429Q468 424 456 392T438 349Q430 347 429 347Q422 347 414 354T397 371T364 390T305 401H287Q256 400 238 389T216 366T211 344Q211 322 233 312T285 300T351 282T408 236Q429 205 429 169Q429 136 412 95T360 27Q309 -11 220 -11Q121
-11 51 34Q41 42 41 49Z" />
<glyph unicode="t" glyph-name="t" horiz-adv-x="404" d="M108 78Q108 84 108 88T109 99T111 112T114 131T120 156T128 193T138 241T151 305T168 385H154Q128 385 119 397T110 422Q110 440 125 451Q135 458 157 458H186Q206 553 208 562T223 582Q233 589 252 589H290Q316
589 325 577T335 552Q335 547 316 458H400Q425 458 434 446T443 422Q443 415 441 408T428 393T399 385H300Q243 115 243 102Q243 68 271 68Q302 68 334 85T368 102Q376 102 378 96T381 66Q382 59 382 55Q381 48 381 47T380 41T375 35T364 29Q277 -11 191 -11Q108
-11 108 78Z" />
<glyph unicode="u" glyph-name="u" horiz-adv-x="561" d="M80 83Q80 103 89 148L147 419Q152 441 161 449T194 458H240Q284 458 284 421Q284 417 282 405L223 127Q215 87 215 80Q215 63 226 57T266 51Q317 51 350 84T396 157L450 411Q454 428 456 435T468 450T498
458H546Q589 458 589 422Q589 410 586 400L511 47Q508 34 506 28T499 14T485 3T462 0H416Q373 0 375 42Q360 30 345 21T316 7T291 -2T267 -7T249 -10T232 -11H220Q154 -11 117 9T80 83Z" />
<glyph unicode="v" glyph-name="v" horiz-adv-x="500" d="M116 425Q119 435 121 440T133 452T159 458H190Q203 458 212 455T226 449T234 437T239 425T241 410T243 397L275 113L436 412Q452 442 468 450T508 458H534Q565 458 565 436Q565 430 555 410L363 53Q353
35 346 26T325 8T289 0H209Q188 0 176 9T162 27T158 52L116 425Z" />
<glyph unicode="w" glyph-name="w" horiz-adv-x="744" d="M115 421Q115 429 117 436T131 451T159 458H189Q211 458 223 449T237 413Q252 172 257 129L395 410Q409 437 422 447T464 458H469Q490 458 501 450T514 433T517 412Q517 409 517 408L535 149Q538 115 538
114L685 414Q699 442 715 450T754 458H777Q811 458 811 435Q811 428 805 416L628 56Q621 41 618 35T605 19T584 4T555 0H476Q459 0 449 4T435 18T430 33T428 50Q418 236 418 267Q418 272 420 320Q408 274 298 51Q282 20 267 10T227 0H189Q162 0 152 11T140 44L116
414Q116 415 116 417T115 421Z" />
<glyph unicode="x" glyph-name="x" horiz-adv-x="500" d="M29 18Q29 27 48 47T242 237Q129 417 125 427Q124 430 124 433Q124 437 125 441T135 452T156 458H209Q216 458 220 458T228 457T236 454T242 449T250 440T258 429T268 412T280 390T296 362T315 328H316Q334
347 362 376Q421 438 435 448T476 458H523Q548 458 548 440Q548 431 535 417T434 318Q384 269 351 237Q355 231 470 46Q477 34 477 25Q477 0 444 0H393Q369 0 359 13T313 98Q294 139 281 165Q253 133 212 86Q156 22 143 11T110 0Q105 0 102 0H60H52Q43 1 40 1T33
6T29 18Z" />
<glyph unicode="y" glyph-name="y" horiz-adv-x="500" d="M4 -185Q7 -97 25 -97Q28 -97 45 -106T102 -120Q142 -115 162 -95T214 -17Q220 -6 223 0L126 402Q121 422 121 427Q121 433 123 439T135 451T161 458H193Q206 458 216 455T231 450T241 439T247 428T251
414T255 400Q297 227 299 167L298 137Q311 190 427 396Q428 399 433 407T439 418T445 428T452 437T459 444T468 450T479 454T492 457T508 458H533Q564 458 564 437Q564 427 558 415L303 -41Q291 -62 285 -72T256 -111T211 -158T154 -190T80 -205Q9 -205 4 -185Z"
/>
<glyph unicode="z" glyph-name="z" horiz-adv-x="476" d="M38 29Q38 56 68 86L373 385L177 383Q160 383 150 391T137 405T135 419T137 434T150 450T179 458H496Q529 457 529 429Q529 403 500 374L194 74L281 75H307L408 76Q432 75 441 64T450 39Q450 32 448 24T435
8T406 0H71Q38 1 38 29Z" />
<glyph unicode="{" glyph-name="braceleft" horiz-adv-x="550" d="M104 229Q110 276 119 283Q122 286 128 286T147 288T173 292Q211 301 241 323T285 377Q289 389 314 509T346 647Q362 683 397 706T477 738T543 748T584 750H627Q649 750 649 734Q649 723 642 695Q639
683 634 680T617 677Q586 676 568 675T523 665T484 640Q478 632 461 552Q443 470 428 401Q415 339 379 307T264 249Q368 217 368 134Q368 120 342 0T316 -133Q316 -157 345 -166T433 -177Q452 -178 452 -192Q448 -236 436 -247Q428 -250 422 -250H389Q178 -250
178 -142Q178 -127 205 -5T232 131Q232 169 201 189T130 213Q129 213 125 213T118 214T113 215T109 217T106 222T104 229Z" />
<glyph unicode="|" glyph-name="bar" horiz-adv-x="305" d="M66 -208Q66 -199 70 -183L259 704Q267 750 302 750Q318 750 331 738T344 708L341 687L152 -200Q152 -200 151 -204Q150 -209 150 -211T147 -219T144 -228T139 -236T131 -243T121 -248T108 -250Q92 -250
79 -238T66 -208Z" />
<glyph unicode="}" glyph-name="braceright" horiz-adv-x="550" d="M6 -234Q6 -232 14 -195Q17 -183 22 -180T39 -177Q70 -176 88 -175T132 -165T171 -140Q178 -131 202 -19Q216 49 227 98Q240 156 274 190T391 251Q349 264 318 292T287 366Q287 382 336 611Q340
625 340 633Q340 659 308 667T222 677Q204 678 204 692Q204 698 211 733Q216 750 233 750H266Q477 750 477 642Q477 627 451 505T424 369Q424 331 455 311T525 287Q526 287 531 287T538 286T544 284T549 279T551 271Q546 224 537 217Q534 214 528 214T509 212T483
208Q445 199 415 177T371 123Q367 111 342 -10T309 -148Q298 -173 278 -191T231 -220T181 -238T131 -247T93 -249T71 -250H28Q6 -250 6 -234Z" />
<glyph unicode="~" glyph-name="asciitilde" horiz-adv-x="672" d="M219 597Q219 632 267 676T384 720Q439 720 494 688T582 655Q604 657 624 669T653 699Q654 701 655 705T657 710T660 714T664 717T669 719T678 720H709Q729 720 729 705Q729 670 681 626T564
582Q523 582 489 597T427 628T379 647H365Q343 645 324 633T295 603Q294 600 292 596T289 590T286 586T279 583T269 582H239Q219 582 219 597Z" />
</font>
</defs>
</svg>
