<?xml version="1.0" standalone="no"?> <!DOCTYPE svg PUBLIC "-//W3C//DTD SVG 1.0//EN" "http://www.w3.org/TR/2001/REC-SVG-20010904/DTD/svg10.dtd" > <svg xmlns="http://www.w3.org/2000/svg" width="100%" height="100%">
<defs >
<font id="cmunci" horiz-adv-x="439" ><font-face
    font-family="CMU Classical Serif"
    units-per-em="1000"
    panose-1="2 0 6 3 0 0 0 0 0 0"
    ascent="930"
    descent="-250"
    alphabetic="0" />
<missing-glyph horiz-adv-x="760" d="M10 10V765H750V10H10ZM70 112L346 388L70 663V112ZM105 70H655L380 346L105 70ZM105 705L380 429L655 705H105ZM414 388L690 112V663L414 388Z" />
<glyph unicode=" " glyph-name="space" horiz-adv-x="358" />
<glyph unicode="!" glyph-name="exclam" horiz-adv-x="307" d="M112 43Q112 68 132 87T176 106Q194 106 207 94T220 63Q220 40 201 20T156 0Q137 0 125 12T112 43ZM188 201Q188 208 189 211L264 652Q275 716 329 716Q347 716 360 705T373 676Q373 669 366 646L222
207Q215 187 202 187Q188 187 188 201Z" />
<glyph unicode="&quot;" glyph-name="quotedbl" horiz-adv-x="511" d="M254 352Q254 359 278 513T306 675Q318 703 350 705Q365 705 375 697T385 673Q385 660 377 640L278 353Q273 338 264 338Q254 338 254 352ZM409 354Q409 361 433 513T461 675Q473 703 503
705H504Q519 705 529 696T539 673Q539 667 531 640L433 353Q428 338 419 338Q409 338 409 354Z" />
<glyph unicode="#" glyph-name="numbersign" horiz-adv-x="818" d="M116 142T116 153T141 164H305L391 336H191Q165 336 165 347T188 358H403Q555 663 564 679Q572 692 578 692Q595 692 584 669L428 358H622Q773 663 782 679Q790 692 797 692Q813 692 802 669L647
358H801Q824 358 824 347T800 336H635L549 164H750Q776 164 776 153T752 142H537L388 -157Q370 -192 362 -192Q353 -192 353 -184Q353 -174 386 -110L512 142H319L170 -157Q152 -192 144 -192Q135 -192 135 -184Q135 -172 167 -110L294 142H139Q116 142 116 153ZM331
164H524L610 336H416L331 164Z" />
<glyph unicode="$" glyph-name="dollar" horiz-adv-x="511" d="M113 123Q113 222 169 222Q185 222 193 213T202 189Q202 171 189 157T151 143H145V127Q145 30 244 20L320 324Q199 352 199 468Q199 551 261 623T415 705Q424 742 431 747Q434 749 439 749Q453 749
453 737Q453 735 446 705Q503 700 537 668T571 578Q571 486 517 486Q501 486 492 495T483 519Q483 537 496 551T534 565H540Q540 582 538 594T528 626T497 658T439 674L370 398Q432 381 460 344Q488 306 488 248Q488 157 424 79T267 -11Q263 -29 261 -36T255 -49T243
-55Q230 -55 230 -41Q230 -34 236 -10Q176 -5 145 30T113 123ZM255 506Q255 428 337 408Q339 407 340 407L407 673Q339 661 297 611T255 506ZM276 21Q340 31 386 88T432 211Q432 242 422 263T394 296T369 309T349 315L276 21Z" />
<glyph unicode="%" glyph-name="percent" horiz-adv-x="818" d="M145 -35Q145 -28 160 -10L730 651Q666 621 606 621Q532 621 475 663Q478 644 478 623Q478 528 422 438T299 347Q257 347 231 384T204 479Q204 577 264 663T394 750Q416 750 430 741T459 713T483
686Q532 643 605 643H606Q657 643 707 665T792 723L800 732Q808 741 813 745T825 749Q832 749 838 744T844 730Q844 720 826 700L189 -38Q175 -54 164 -54Q145 -54 145 -35ZM256 449Q256 412 268 391T302 370Q352 370 400 456T448 629Q448 670 435 698T394 727Q356
727 323 673T273 555T256 449ZM512 78Q512 174 572 260T702 347Q746 347 766 309T786 223Q786 125 730 35T607 -55Q564 -55 538 -19T512 78ZM564 45Q564 15 574 -9T610 -33Q659 -33 707 52T756 225Q756 271 741 297T701 324Q663 324 630 270T580 152T564 45Z" />
<glyph unicode="&amp;" glyph-name="ampersand" horiz-adv-x="766" d="M125 176Q125 226 152 285T222 388Q210 419 210 455Q210 551 277 633T423 716Q470 716 499 684T528 602Q528 558 512 540T475 522Q461 522 452 531T442 554Q442 572 455 587T492 602H498Q496
654 473 674T423 694Q379 694 335 638Q302 595 286 530T268 427Q321 461 366 461H367Q395 461 412 444T429 401Q429 366 401 338T333 309Q292 309 252 341Q201 235 201 156Q201 81 252 41T383 1Q455 1 513 25T605 84T661 163T692 243T701 309Q701 351 689 381T649
448Q610 424 597 415T560 387T528 351T520 311Q520 296 522 288H523Q538 319 567 319Q581 319 590 311T600 288Q600 271 586 257T551 242Q524 242 507 262T489 312Q489 343 508 371T545 414T603 454T652 486Q724 539 757 616Q723 620 723 648Q723 668 737 681T769
694Q783 694 792 685T802 662T792 620T751 546T675 466Q733 397 733 311Q733 276 723 236T688 149T624 65T523 3T380 -22Q270 -22 198 33T125 176ZM278 376Q278 363 294 348T334 332Q362 332 380 355T399 404Q399 438 366 438Q340 438 309 414T278 376Z" />
<glyph unicode="&apos;" glyph-name="quotesingle" horiz-adv-x="307" d="M229 352Q229 355 231 367T233 383L274 641L275 648Q276 656 277 661T282 675T290 690T304 700T324 705H325Q340 705 350 697T360 673Q360 667 352 640L253 353Q248 338 240 338Q229 338 229 352Z" />
<glyph unicode="(" glyph-name="parenleft" horiz-adv-x="409" d="M151 46Q151 125 170 215T227 400T331 585T483 738Q495 748 504 748Q514 748 514 740Q514 735 495 718T445 668T378 586T305 454T239 266Q201 122 201 10Q201 -27 205 -61T216 -120T232 -165T247
-198T260 -220T267 -232Q270 -239 268 -243T259 -248T241 -237T214 -200T184 -141T161 -58T151 46Z" />
<glyph unicode=")" glyph-name="parenright" horiz-adv-x="409" d="M18 -240Q18 -235 37 -218T89 -165T158 -80T232 57T298 251Q331 380 331 490Q331 550 321 599T297 673T274 716T263 740Q263 748 273 748Q280 748 292 736T320 697T349 638T372 555T381 453Q381
374 362 284T305 98T199 -87T46 -240Q34 -248 28 -248Q18 -248 18 -240Z" />
<glyph unicode="*" glyph-name="asterisk" horiz-adv-x="511" d="M195 436Q195 450 210 460T302 505Q342 523 367 535Q252 605 247 610Q241 616 241 624Q241 635 252 644T273 653H275Q282 653 294 642T382 557Q411 729 416 735Q426 749 441 749Q461 749 461 730Q461
725 406 557Q545 648 554 651Q558 653 562 653Q581 653 581 634Q581 619 566 610T468 562Q432 545 410 535Q523 465 529 459Q534 454 534 446Q534 435 524 426T503 416H501Q493 416 469 440Q460 448 435 472T394 513Q384 457 374 395Q365 340 361 335Q350 320 335
320Q315 320 315 339Q315 344 371 513Q337 491 291 460Q225 416 215 416Q207 416 201 421T195 436Z" />
<glyph unicode="+" glyph-name="plus" horiz-adv-x="766" d="M141 238T141 250T164 262Q167 262 171 262T176 261H437Q438 265 471 400T507 542Q511 554 519 554Q529 554 529 542L524 517L460 261H715Q716 261 720 261T727 262Q750 262 750 250Q750 242 743 241T715
239H454L389 -22Q381 -54 372 -54Q362 -54 362 -42Q362 -36 374 12T404 130T431 239H176Q175 239 170 239T163 238Q141 238 141 250Z" />
<glyph unicode="," glyph-name="comma" horiz-adv-x="307" d="M73 -182Q73 -177 88 -162T123 -127T164 -69T196 15Q174 0 156 0Q136 0 124 11T112 42Q112 66 131 86T176 106Q222 106 222 47Q222 7 204 -38T161 -115T115 -170T83 -192Q73 -192 73 -182Z" />
<glyph unicode="-" glyph-name="hyphen" horiz-adv-x="358" d="M86 201Q90 236 103 241Q107 243 116 243H315Q337 243 337 229Q337 227 336 220T332 203T323 190Q317 187 308 187H108Q86 187 86 201Z" />
<glyph unicode="." glyph-name="period" horiz-adv-x="307" d="M112 43Q112 66 131 86T176 106Q195 106 207 94T219 63Q219 40 200 20T155 0Q136 0 124 12T112 43Z" />
<glyph unicode="/" glyph-name="slash" horiz-adv-x="511" d="M18 -238Q18 -230 27 -217L570 700Q573 705 578 714T586 728T592 738T599 745T606 748Q616 748 616 737Q616 733 609 721L66 -196Q44 -234 39 -241T27 -248Q18 -248 18 -238Z" />
<glyph unicode="0" glyph-name="zero" horiz-adv-x="511" d="M116 149Q116 194 130 272T184 451T277 602Q343 666 421 666Q444 666 465 660T507 636T542 583T555 494Q555 465 547 412T517 281T463 138T375 25T250 -22Q226 -22 206 -16T164 8T129 61T116 149ZM180
97Q180 46 203 24T256 1Q272 1 291 7T338 39T383 105Q410 164 451 327T493 549Q493 593 472 618T415 644Q360 644 314 584Q274 533 229 352Q180 156 180 97Z" />
<glyph unicode="1" glyph-name="one" horiz-adv-x="511" d="M118 13Q118 31 143 31H153Q212 32 226 41T249 87L365 547Q303 507 259 507Q243 507 240 515Q237 524 243 532Q247 537 264 539T302 547T359 579T433 655Q441 665 448 665Q459 665 459 652Q459 647 457
639L315 73Q312 60 312 52Q312 31 363 31Q366 31 372 31T381 32Q402 32 409 28Q420 20 411 7Q406 0 394 0Q390 0 374 1T329 2T266 3T203 3T157 1T136 0Q118 0 118 13Z" />
<glyph unicode="2" glyph-name="two" horiz-adv-x="511" d="M84 -9Q84 5 98 40T154 130T255 223Q256 223 287 242T336 274T384 315T433 372T464 443T479 535Q479 585 455 614T391 644Q337 644 289 595T218 488T194 391Q194 359 217 359Q253 359 283 408T313 493Q313
504 308 519T303 536Q303 540 306 543T315 546Q323 544 329 528T335 494Q335 450 300 393T215 336Q190 336 177 353T164 398Q164 427 180 470T223 558T296 634T394 666Q462 666 506 619T550 498Q550 419 501 361T330 233Q328 232 315 224T297 214T280 203T261 191T243
178T223 162T205 145T186 124T169 101T151 74Q163 77 175 77Q206 77 269 63T362 48Q386 48 406 58T440 85T462 115T475 140Q478 146 481 154T485 165T489 170T499 173Q513 173 513 160Q513 149 503 122T474 61T423 3T353 -22Q313 -22 258 16T172 54Q155 54 143
42Q134 33 128 21T119 0T111 -15T98 -22Q84 -22 84 -9Z" />
<glyph unicode="3" glyph-name="three" horiz-adv-x="511" d="M94 106Q94 149 109 166T146 183Q162 183 171 174T180 151Q180 135 168 119T127 103H125Q127 63 146 39T185 8T226 1Q268 1 307 26T369 93Q387 127 397 171T407 237Q407 320 327 320H298Q277 320 277
333Q277 351 302 351Q304 351 308 351T314 350H325Q370 350 404 369T456 413T485 471T498 522T501 555Q501 597 478 620T416 644Q345 644 287 589T228 473Q228 435 256 435Q275 435 294 453T314 496Q314 506 309 519T303 536Q303 546 313 546Q320 546 328 531T337
497Q337 463 311 438T253 413Q228 413 213 430T198 476Q198 543 265 605T419 667Q479 667 520 631T562 532Q562 472 520 417T400 330Q435 314 457 281T479 203Q479 113 401 46T228 -22Q168 -22 131 13T94 106Z" />
<glyph unicode="4" glyph-name="four" horiz-adv-x="511" d="M44 18Q44 27 50 33T69 47T108 78T167 138Q217 195 258 262T325 391T367 501T395 592T408 639Q418 666 444 666Q456 666 463 659T471 642Q471 631 462 594T427 493T367 360T273 211T142 67H171Q183
67 193 67T213 64T230 60T248 55T265 49T285 41T307 32Q312 53 345 186Q355 232 377 239Q383 241 389 241Q400 241 408 234T416 214Q416 201 368 17Q370 17 375 17T383 16Q405 16 430 22T458 29Q464 29 468 24T473 14Q473 2 440 -6T381 -15Q367 -15 360 -14Q322
-166 320 -170Q310 -194 286 -194Q274 -194 266 -187T258 -167Q258 -161 264 -138T280 -74T299 2Q283 7 263 15T233 26T206 33T167 36Q156 36 148 36T133 35T121 34T111 32T103 30T97 26T91 22T84 17T77 12Q65 3 57 3Q44 3 44 18Z" />
<glyph unicode="5" glyph-name="five" horiz-adv-x="511" d="M106 116Q106 208 163 208Q180 208 189 198T199 173Q199 155 186 139T144 122Q143 122 141 122T137 123Q138 59 167 33T235 6Q270 6 302 28T357 81Q384 120 404 193T425 309Q425 345 410 371T363 398Q332
398 304 386T260 359T231 332T212 320Q200 320 200 334Q200 337 202 344T204 353L277 643Q284 664 292 664Q295 664 310 657T353 642T415 634T481 642T532 657T554 665Q564 665 564 655T538 623T464 579T367 558Q328 558 290 572L241 373Q302 420 364 420T461 376T496
265Q496 153 414 66T234 -22Q175 -22 141 16T106 116Z" />
<glyph unicode="6" glyph-name="six" horiz-adv-x="511" d="M119 158Q119 209 133 276T165 392Q209 507 295 587T471 667Q514 667 540 647T567 588Q567 554 551 538T516 522Q502 522 492 531T482 554Q482 569 493 585T534 602Q519 641 469 641Q452 641 433 636T385
611T331 561T278 473T233 340Q287 426 367 426Q406 426 435 409T478 366T499 315T506 270Q506 161 429 70T254 -22Q231 -22 210 -15T167 11T132 66T119 158ZM186 98Q186 60 203 33T256 6Q306 6 348 53Q388 98 410 190T433 317Q433 354 417 378T363 403Q317 403
276 362T212 248Q186 164 186 98Z" />
<glyph unicode="7" glyph-name="seven" horiz-adv-x="511" d="M145 432Q145 435 239 638Q239 639 241 643T244 649T247 654T250 659T254 662T259 665T265 666Q277 666 277 656Q277 647 256 603Q327 666 390 666Q417 666 428 648T439 608T444 568T469 549Q517 549
584 645Q599 666 610 666Q623 666 623 656Q623 651 607 626T562 552T500 437T427 263T356 30L355 26Q354 21 353 17T348 7T342 -3T333 -12T320 -19T304 -22Q290 -22 279 -13T268 12Q268 25 281 71T344 232T470 470L512 537Q486 527 468 527Q449 527 436 538T418
561T401 585T374 596H370Q314 592 264 548T181 442Q180 441 178 436T174 429T169 424T160 421Q145 421 145 432Z" />
<glyph unicode="8" glyph-name="eight" horiz-adv-x="511" d="M96 114Q96 180 148 241T284 338Q282 340 273 347T260 358T248 369T235 383T225 398T217 417T212 438T209 463Q209 539 273 602T419 666Q476 666 514 633T553 548Q553 493 511 444T396 360Q400 356
417 342T441 323T459 303T477 277T487 247T492 209Q492 122 419 50T251 -22Q184 -22 140 15T96 114ZM146 112Q146 64 176 35T254 6Q322 6 377 56T433 167Q433 179 432 188T425 207T415 223T397 242T374 263T342 289T304 321Q236 288 191 231T146 112ZM264 508Q264
498 265 491T271 475T280 462T295 446T315 428T342 405T376 377Q430 403 469 451T508 551Q508 591 483 616T416 641Q358 641 311 600T264 508Z" />
<glyph unicode="9" glyph-name="nine" horiz-adv-x="511" d="M104 58Q104 91 120 107T155 123Q169 123 179 114T189 90T177 60T138 42Q158 6 214 6Q290 6 359 106Q407 178 438 304H437Q381 218 302 218Q266 218 238 234T195 275T172 325T164 375Q164 450 203 520Q231
570 290 618T422 666Q444 666 464 659T506 634T539 579T552 490Q552 373 503 245Q459 133 378 56T212 -22Q164 -22 134 -2T104 58ZM238 328Q238 293 254 267T307 241Q359 241 398 286T459 398Q487 491 487 553Q487 594 469 617T421 641Q377 641 343 612T290 539T265
471T255 428V427Q238 360 238 328Z" />
<glyph unicode=":" glyph-name="colon" horiz-adv-x="307" d="M192 368Q192 391 212 410T257 430Q276 430 288 418T300 388Q300 364 280 345T236 325Q217 325 205 337T192 368ZM112 43Q112 66 131 86T176 106Q195 106 207 94T219 63Q219 40 200 20T155 0Q136 0
124 12T112 43Z" />
<glyph unicode=";" glyph-name="semicolon" horiz-adv-x="307" d="M194 368Q194 391 213 411T258 431Q277 431 289 419T301 388Q301 365 282 345T237 325Q218 325 206 337T194 368ZM73 -182Q73 -177 88 -162T123 -127T164 -69T196 15Q174 0 156 0Q136 0 124 11T112
42Q112 66 131 86T176 106Q222 106 222 47Q222 7 204 -38T161 -115T115 -170T83 -192Q73 -192 73 -182Z" />
<glyph unicode="&lt;" glyph-name="less" horiz-adv-x="766" d="M166 242T166 250T194 271L765 524Q776 529 780 529Q791 529 791 519Q791 510 771 502Q767 500 765 499L261 276Q254 273 242 268T220 258T201 249V248Q215 241 230 232L641 -3Q656 -13 656 -20Q656
-29 646 -29Q640 -29 627 -21L192 227Q166 242 166 250Z" />
<glyph unicode="=" glyph-name="equal" horiz-adv-x="766" d="M116 142T116 153T141 164H699Q715 164 719 162Q724 160 725 155T722 146T697 142H138Q116 142 116 153ZM165 347Q165 358 185 358H754Q773 358 773 347T748 336H214Q210 336 203 336T192 335H189Q165
335 165 347Z" />
<glyph unicode="&gt;" glyph-name="greater" horiz-adv-x="766" d="M99 -19Q99 -10 119 -2Q123 0 125 1L629 224Q636 227 648 232T670 242T689 251V252Q679 257 621 290L249 502Q234 511 234 520T244 529Q247 529 259 523L698 273Q724 258 724 250T696 229L138
-18Q113 -29 110 -29Q99 -29 99 -19Z" />
<glyph unicode="?" glyph-name="question" horiz-adv-x="511" d="M194 463Q194 481 210 520T253 604T329 682T431 716Q486 716 518 682T551 593Q551 512 487 448Q475 436 393 371T302 296Q282 274 282 243Q282 210 309 210Q328 210 350 227T383 271Q389 286 390
287Q395 292 403 292T415 285Q416 284 416 280Q416 257 383 222T306 187Q278 187 262 206T246 256Q246 304 279 343Q288 353 417 456L426 463Q436 470 443 476T461 492T481 514T498 540T511 571T516 606Q516 644 492 669T430 694Q373 694 321 643T238 511Q275 509
275 478Q275 458 260 445T227 431Q213 431 204 440T194 463ZM215 43Q215 68 235 87T279 106Q297 106 309 94T322 63Q322 40 303 20T258 0Q239 0 227 12T215 43Z" />
<glyph unicode="@" glyph-name="at" horiz-adv-x="766" d="M150 248Q150 333 185 417T278 565T409 667T557 706Q660 706 724 633T789 446Q789 390 770 319T733 210Q693 127 627 127Q612 127 598 131T569 151T552 193Q483 128 416 128Q354 128 316 172T278 287Q278
393 354 480T520 567Q603 567 634 482H655Q666 482 670 482T679 478T683 469Q683 467 681 457L619 210Q614 187 614 176Q614 151 633 151Q662 151 687 188T726 276T749 374T758 448Q758 551 702 617T556 683T379 620T236 455T181 246Q181 146 235 79T387 11Q458
11 521 28T625 62T680 79Q705 79 705 70Q705 67 699 61Q691 55 651 39T535 6T387 -11Q275 -11 213 63T150 248ZM340 271Q340 222 359 186T418 150Q465 150 508 188T564 254Q567 260 589 348T612 446Q612 476 588 510T521 544Q456 544 398 456T340 271Z" />
<glyph unicode="A" glyph-name="A" horiz-adv-x="743" d="M59 1T59 14T70 30T98 33T141 52T190 113L517 689Q532 716 549 716Q553 716 556 716T561 713T564 709T566 704T567 699T568 693V688L611 67Q612 44 622 38T663 31Q690 31 690 17Q690 0 670 0Q665 0 634
1T567 3Q537 3 503 2T464 1Q439 1 439 13Q439 19 443 24Q447 30 469 30T509 39T528 73Q528 74 526 102T521 168T517 230H289Q278 210 265 187T245 152T229 125T218 104T210 88T205 75T204 65Q204 51 212 44T231 35T249 30T259 19Q260 11 255 6T239 0Q236 0 225
1T193 2T150 3Q131 3 109 2T81 1Q59 1 59 14ZM307 260H515L493 587L307 260Z" />
<glyph unicode="B" glyph-name="B" horiz-adv-x="704" d="M65 14Q65 25 73 28T101 31H109Q142 31 155 41Q167 49 179 100L307 610Q311 628 311 633Q311 652 267 652H259Q238 652 233 655Q221 662 230 675Q234 683 253 683H556Q651 683 692 641T733 547Q733 528
726 506T700 454T638 398T533 357Q603 351 640 310T677 219Q677 144 611 79T456 2Q439 0 403 0H85Q65 0 65 14ZM243 52T243 44T249 34T272 31H389Q447 31 492 60Q536 89 561 135T587 233Q587 281 563 312T492 344H316Q243 52 243 44ZM322 367H426Q430 367 439 367T452
366Q539 366 592 426T645 554Q645 592 623 622T549 652H441Q408 652 400 647T384 616Q324 378 322 367Z" />
<glyph unicode="C" glyph-name="C" horiz-adv-x="715" d="M149 245Q149 360 212 468T372 640T569 705Q672 705 719 620Q789 700 793 702Q796 704 800 704Q810 704 810 692Q810 688 748 440Q743 419 730 419Q715 419 715 434Q715 435 717 452T719 490Q719 567 684
620T577 674Q505 674 437 627T325 510Q286 447 262 359T237 206Q237 104 289 57T407 9Q485 9 557 68T661 223Q662 225 663 230T665 237T668 243T674 249Q680 253 688 250T696 239Q696 224 684 194T645 127T585 57T500 1T394 -22Q285 -22 217 53T149 245Z" />
<glyph unicode="D" glyph-name="D" horiz-adv-x="755" d="M63 13Q63 24 69 27T96 31T131 33Q138 34 143 36T151 39T158 45T163 51T167 60T169 70T172 82T176 96L304 609Q309 626 309 633Q309 644 299 647T254 652Q234 652 230 656Q226 659 226 666Q226 683 249
683H562Q662 683 718 614T774 438Q774 280 666 148T420 1Q406 0 379 0H85Q63 0 63 13ZM244 43Q244 35 251 33T283 31H372Q491 31 574 127Q632 194 661 304T691 478Q691 511 683 540T658 595T606 636T524 652H438Q407 652 399 645T382 602L247 64Q244 50 244 43Z"
/>
<glyph unicode="E" glyph-name="E" horiz-adv-x="678" d="M62 14Q62 32 98 32H107Q139 32 151 40Q162 48 172 84L302 602Q307 624 307 631Q307 649 267 649H254Q233 649 228 653Q219 660 228 674Q233 680 243 680H723Q742 680 742 664Q742 664 718 473Q716 456
703 456Q688 456 688 472Q688 476 691 501T694 548Q694 614 660 632T541 650H441Q411 650 402 644T385 609L325 369H403Q460 369 485 385T526 460Q531 484 545 484T559 470Q559 461 556 452Q502 235 499 230Q497 225 491 223Q484 221 478 224T472 235Q472 240 476
261T481 295Q481 323 461 330T396 338H317Q245 49 245 43Q245 31 269 31H381Q464 31 509 48T584 105T652 236Q653 237 654 241T656 246T659 250T662 254T667 256T673 257Q686 257 686 245Q686 240 595 18Q592 12 590 9T584 3T579 1T569 0T558 0H88Q62 0 62 14Z"
/>
<glyph unicode="F" glyph-name="F" horiz-adv-x="653" d="M62 14Q62 32 100 32H105Q138 32 150 40Q164 48 176 99L290 556Q307 622 307 630Q307 649 268 649H254Q224 649 224 663Q224 679 243 680H710Q729 680 729 664Q729 664 705 474Q702 456 690 456Q675 456
675 472Q675 476 678 501T681 549Q681 614 647 632T532 650H444Q433 650 428 650T415 649T406 647T399 642T394 635T389 624T385 610T381 591T375 567Q326 371 322 356H396Q454 356 478 372T518 448Q523 471 537 471T551 458Q551 454 548 439Q495 224 490 215Q488
212 483 210Q476 207 469 211T463 224Q463 226 467 247T472 283Q472 310 453 317T390 325H314Q307 294 290 228T261 111T248 53Q248 40 263 36T327 31H332Q354 31 354 17Q354 0 333 0Q329 0 312 1T263 2T196 3Q141 3 112 2T80 1Q62 1 62 14Z" />
<glyph unicode="G" glyph-name="G" horiz-adv-x="773" d="M149 244Q149 331 186 416T283 564T418 666T569 705Q671 705 719 620Q789 700 793 702Q796 704 800 704Q810 704 810 692Q810 688 748 440Q743 419 730 419Q725 419 720 423T715 434L717 452Q719 469 719
492Q719 568 684 621T577 674Q516 674 446 634T323 508Q280 439 259 351T237 207Q237 154 253 114T296 52T352 20T412 9Q467 9 514 36T581 106Q587 120 598 165T609 219Q609 231 597 236T544 241H533Q506 241 506 253Q506 259 508 263Q512 272 528 272Q532 272
548 271T593 270T656 269Q680 269 700 269T733 270T747 271Q765 271 765 259Q765 249 757 245T739 241T717 239T699 228Q694 221 687 195T667 114T643 19Q638 2 630 2Q621 2 609 21T589 61Q555 20 503 -1T395 -22Q286 -22 218 53T149 244Z" />
<glyph unicode="H" glyph-name="H" horiz-adv-x="743" d="M62 13Q62 20 64 24T73 29T85 30T104 31T126 33Q153 36 159 47T181 118L302 604Q308 630 308 633Q308 651 269 651H259Q227 651 225 664Q224 673 229 678T245 683Q248 683 263 683T304 681T360 680Q395
680 420 681T458 682T474 683Q493 683 493 669Q493 664 490 659Q485 652 449 652T400 639Q393 633 388 616T363 519Q342 434 326 370H601Q665 623 665 633Q665 652 629 652Q626 652 620 652T611 651Q593 651 587 656Q578 664 585 675Q590 683 603 683Q606 683 621
683T662 681T719 680Q753 680 778 681T816 682T832 683Q851 683 851 670Q851 651 812 651H807Q798 651 791 651T778 650T768 646T760 642T754 635T749 627T745 616T741 602T737 585T732 565L610 79Q605 57 605 50Q605 47 606 44T609 39T613 36T620 34T628 33T637
32T647 31T658 31T670 31Q688 31 688 17Q688 0 668 0H666Q663 0 648 1T607 2T551 3Q516 3 491 3T454 1T438 0Q419 0 419 14Q419 17 420 20T422 24T425 27T429 29T435 30T439 31T444 31H449Q485 32 499 37T519 52T531 90L593 340H318L250 66Q250 64 249 59T247 50Q247
31 293 31H298Q322 31 326 28Q336 20 328 8Q323 0 310 0Q307 0 292 1T250 2T192 3Q158 3 133 3T96 1T81 0Q62 0 62 13Z" />
<glyph unicode="I" glyph-name="I" horiz-adv-x="385" d="M57 13Q57 20 59 24T68 29T81 31T100 31T123 33T139 35T151 41T159 47T165 56T169 67T172 80T176 96L296 577Q308 625 308 633Q308 645 297 648T249 652Q229 652 225 656Q220 659 220 666T225 678T240
683Q242 683 246 683T253 682Q297 680 363 680Q394 680 420 681T461 682T479 683Q498 683 498 669Q498 662 496 658T487 653T473 652T454 651T433 650Q422 649 414 646T402 641T393 631T388 620T384 605T380 587L260 107Q248 57 248 50Q248 38 259 35T307 31Q327
31 331 27Q336 22 336 18Q336 12 330 6T316 0Q314 0 310 0T303 1Q239 3 196 3Q164 3 138 3T96 1T77 0Q57 0 57 13Z" />
<glyph unicode="J" glyph-name="J" horiz-adv-x="525" d="M93 86Q93 125 112 143T155 162Q173 162 184 152T195 124Q195 104 179 85T133 66H125Q144 1 209 1Q247 1 283 39T336 133Q339 142 343 159T348 179L456 610Q459 624 459 630Q459 644 443 648T375 652H370Q349
652 349 666Q349 683 369 683Q373 683 390 683T437 681T504 680Q529 680 551 680T586 681T602 682H603Q619 682 619 669Q619 659 611 655T592 651T569 650T549 641T535 611L424 166L422 159Q421 152 419 145T414 127T404 105T391 81T373 56T349 33T319 11T282 -8Q248
-22 211 -22Q159 -22 126 8T93 86Z" />
<glyph unicode="K" glyph-name="K" horiz-adv-x="769" d="M62 13Q62 24 72 28T95 32T125 32T151 40Q154 42 156 45T161 52T165 61T169 72T172 84T176 99T180 115L302 603Q308 629 308 633Q308 652 266 652H255Q236 652 231 655Q225 658 225 666Q225 673 230 678T245
683Q248 683 263 683T304 681T361 680Q395 680 420 681T458 682T474 683Q494 683 494 669Q494 665 490 659Q484 652 470 652H463Q417 652 404 643T385 608L306 293L633 564Q634 565 643 572T659 585T674 599T687 616T692 631Q692 645 673 650T654 667Q654 683 674
683Q677 683 691 683T729 681T781 680Q796 680 814 681T837 682Q857 682 857 669Q857 662 854 659T846 654T833 652T819 649Q808 646 798 643T775 632T752 619T724 600T694 577T656 547T613 512T561 468T499 417L611 120Q636 54 646 44Q657 33 683 31Q684 31 688
31T693 30T698 29T702 27T705 23T707 17Q707 0 687 0Q684 0 663 1T600 3Q572 3 548 3T511 2T494 1Q476 1 476 13Q476 26 485 28T509 32T533 42Q544 51 544 63Q544 70 539 83L434 363Q305 256 300 251Q295 244 291 230Q247 57 247 49Q247 39 259 36T305 31Q330 31
330 17Q330 0 310 0Q307 0 292 1T251 2T193 3Q157 3 132 3T95 1T80 0Q62 0 62 13Z" />
<glyph unicode="L" glyph-name="L" horiz-adv-x="627" d="M61 13Q61 31 85 31H90Q102 31 111 31T127 32T139 35T149 39T156 44T161 50T165 58T168 68T171 80T174 93L293 570Q307 626 307 632Q307 644 297 647T252 652Q232 652 228 656Q224 659 224 666T229 678T244
683Q247 683 257 683T295 681T365 680Q406 680 433 680T471 681T487 682T497 683Q516 683 516 670Q516 652 492 652H481Q424 651 408 643T383 603L254 84Q246 52 246 44Q246 35 251 33T272 31H345Q437 31 492 74Q523 98 546 140T581 215T598 253Q604 257 608 257Q622
257 622 244Q622 242 543 20Q538 8 534 5T519 0H82Q61 0 61 13Z" />
<glyph unicode="M" glyph-name="M" horiz-adv-x="896" d="M65 14Q65 24 71 27T94 32T117 35Q128 38 136 42T151 50T163 63T171 75T178 91T183 106T187 124T191 141L307 607Q312 630 312 632Q312 651 273 651T230 660Q229 662 229 666Q229 683 252 683H390Q406
683 410 678T416 652L466 155Q471 103 472 100Q480 115 498 143L798 642Q815 671 821 677T843 683H972Q1000 683 1000 669Q1000 652 974 652H970Q922 651 910 643T889 600L758 74Q753 56 753 50Q753 37 770 34T807 31T833 26Q837 22 837 18Q837 11 831 6T816 0Q813
0 799 1T759 2T703 3Q669 3 645 3T610 2T595 1Q576 1 576 14Q576 20 579 23Q584 31 622 32T672 46Q679 54 691 100L798 527L826 640H825Q817 627 803 603T785 573L456 25Q441 1 427 1Q411 1 409 30L348 634Q346 626 342 609T335 583L216 107Q210 77 210 74Q210
55 221 45T245 34T271 31T286 22Q287 20 287 16Q287 1 264 1Q261 1 232 2T173 3Q137 3 113 2T85 1H82Q65 1 65 14Z" />
<glyph unicode="N" glyph-name="N" horiz-adv-x="743" d="M62 14Q62 19 64 23T70 28T77 30T86 32H93Q109 34 122 37T144 49T158 64T169 84T177 105T183 130T190 156L313 647Q287 652 248 652Q224 652 224 665Q224 670 227 675Q232 683 246 683H378Q381 683 384
683T389 682T393 681T396 680T398 677T400 674T402 670T404 666T406 660T409 653L593 146L701 581Q706 604 706 610Q706 629 695 639T671 649T645 652T630 661V666Q630 683 651 683Q653 683 682 682T743 680Q767 680 794 681T827 682Q851 682 851 669Q851 659 845
656T824 651T804 649Q785 645 771 636T750 614T739 591T732 567L596 24Q594 17 594 15T591 8T585 2T576 0Q562 0 555 20L340 615H339L212 106Q206 86 206 73Q206 53 218 43T244 33T271 29T283 17Q283 0 263 0Q260 0 248 1T213 2T165 3Q143 3 124 3T94 2T80 1Q62
1 62 14Z" />
<glyph unicode="O" glyph-name="O" horiz-adv-x="766" d="M147 237Q147 352 207 461T363 637T558 705Q660 705 723 633T787 444Q787 327 727 218T571 44T377 -22Q274 -22 211 50T147 237ZM238 203Q238 113 278 59T384 5Q474 5 556 96Q627 173 664 289T701 488Q701
574 660 627T552 680Q502 680 455 653T375 588Q306 513 272 402T238 203Z" />
<glyph unicode="P" glyph-name="P" horiz-adv-x="678" d="M63 14Q63 29 81 30T124 33T159 46Q166 55 173 82L303 603Q309 629 309 632Q309 644 298 647T252 652H246Q226 652 226 666Q226 683 249 683H542Q642 683 685 638T729 536Q729 453 650 384T455 315H313L251
68Q248 58 248 50Q248 32 287 32H298Q331 32 331 17Q331 0 311 0Q308 0 293 1T251 2T193 3Q164 3 140 3T100 2T81 1Q63 1 63 14ZM317 342H434Q554 342 601 420Q617 447 628 490T640 563Q640 606 609 629Q579 652 508 652H440Q409 652 401 646T385 613L317 342Z"
/>
<glyph unicode="Q" glyph-name="Q" horiz-adv-x="766" d="M147 237Q147 322 183 407T276 558T408 664T558 705Q660 705 723 632T787 444Q787 361 754 277T655 119T500 5Q501 -19 503 -33T511 -65T529 -91T561 -100Q592 -100 622 -76T667 -14Q674 6 680 8Q684 10
688 7T692 0Q692 -11 683 -40T656 -105T606 -167T536 -194Q458 -194 458 -102Q458 -77 467 -7Q418 -22 377 -22Q274 -22 211 50T147 237ZM233 202Q233 58 325 16Q321 28 321 43Q321 81 349 114T418 148Q491 148 498 42Q563 83 611 165T680 329T701 480Q701 571
660 625T552 680Q467 680 384 596T258 361Q233 264 233 202ZM343 44Q343 3 384 3Q422 3 471 26Q473 46 473 55Q473 125 419 125Q387 125 365 99T343 44Z" />
<glyph unicode="R" glyph-name="R" horiz-adv-x="729" d="M63 14Q63 24 72 28T93 32T122 32T148 38Q164 45 173 84L303 604Q309 628 309 633Q309 645 298 648T251 652H246Q226 652 226 666Q226 683 249 683H503Q617 683 667 637T717 535Q717 473 663 419T508 339Q593
303 593 221Q593 211 587 147T580 61Q580 1 613 1Q630 1 651 18T687 79Q694 104 708 104T722 91Q722 68 691 23T608 -22Q561 -22 523 2T484 84Q484 107 499 165T515 243Q515 278 494 304T421 330H314Q246 62 246 51Q246 31 285 31H296Q325 31 328 21V20Q329 18
329 17Q329 0 307 0Q303 0 289 1T250 2T191 3Q162 3 137 3T98 2T81 1Q63 1 63 14ZM320 353H410Q469 353 510 368T573 410T603 458T619 507Q627 541 627 559Q627 589 615 608T581 637T537 649T487 652H439Q408 652 400 646T385 615Q322 363 320 353Z" />
<glyph unicode="S" glyph-name="S" horiz-adv-x="562" d="M74 -9Q74 -9 128 208Q133 227 145 227Q159 227 159 215Q159 211 156 189T152 149Q152 97 177 64T234 20T302 9Q368 9 419 69T470 200Q470 265 423 290Q413 296 352 313T276 337Q246 351 223 383T199 467Q199
558 270 631T431 705Q520 705 560 637Q567 645 575 655T587 671T597 683T605 692T611 699T616 703T621 704Q631 704 631 692Q631 688 578 475Q573 456 561 456Q546 456 546 471Q546 473 548 493T551 535Q551 579 539 609T506 653T467 672T429 677Q367 677 317 624T266
506Q266 468 284 446T331 414T391 397T454 376T505 339Q537 299 537 238Q537 142 465 60T299 -22Q199 -22 147 47Q98 -15 90 -19Q87 -21 84 -21Q74 -21 74 -9Z" />
<glyph unicode="T" glyph-name="T" horiz-adv-x="715" d="M176 466Q176 466 240 661Q246 677 265 677H782Q794 677 799 675T804 662Q804 659 799 627T785 546T773 473Q771 460 767 457Q763 453 755 453Q742 453 742 469Q742 475 747 509T753 570Q753 589 750 600T737
624T705 641T647 647H602Q571 647 564 640T546 591L416 71Q413 60 413 54Q413 40 429 36T496 31H512Q534 31 534 17Q534 0 514 0Q510 0 490 1T435 2T360 3Q307 3 257 2L207 0Q187 0 187 13Q188 31 211 31H226Q291 32 309 39T336 79L464 590Q473 623 473 634Q473
643 465 645T432 647H397Q351 647 321 638T272 605T242 559T215 490Q213 484 212 481Q212 480 211 476T209 471T207 466T204 462T202 458T198 455T194 454T189 453Q176 453 176 466Z" />
<glyph unicode="U" glyph-name="U" horiz-adv-x="743" d="M201 165Q201 200 213 248L306 617Q308 629 308 632Q308 644 297 647T251 652H247Q225 652 225 666Q225 683 246 683Q249 683 263 683T304 681T360 680Q396 680 422 681T460 682T475 683Q494 683 494 669Q494
656 478 654T439 651T404 643Q392 635 384 604L288 218Q276 167 276 133Q276 68 309 39T384 9Q450 9 512 60T604 191Q612 212 625 263L704 580Q709 602 709 609Q709 631 695 640T661 651T638 655Q626 664 636 677Q641 683 652 683Q654 683 666 683T699 681T745
680T789 680T820 681T834 682Q851 682 851 669Q851 660 845 656T829 652T805 649T777 639Q761 630 751 615T739 591T731 562L658 269Q657 266 653 251T648 231T643 211T636 190T628 169T618 147T606 127T592 104T575 83T554 60Q472 -22 380 -22Q303 -22 252 30T201
165Z" />
<glyph unicode="V" glyph-name="V" horiz-adv-x="743" d="M210 666Q210 683 230 683Q233 683 245 683T278 681T326 680Q355 680 380 681T419 682T437 683Q455 683 455 670Q455 659 447 655Q445 654 424 653T386 643T369 617Q369 608 371 590L416 137Q418 109 420
97L703 570Q724 606 724 619Q724 637 711 644T684 654T670 666Q670 683 690 683Q693 683 704 683T734 681T777 680Q796 680 812 680T837 681T849 682Q865 682 865 669T855 653T828 650T785 629T734 567L399 7L394 -1Q390 -9 388 -11T379 -18T366 -22Q362 -22 359
-21T353 -18T350 -14T348 -8T347 -3T347 3T346 8L286 617Q285 626 285 629T278 640T261 650Q254 651 246 651T232 652T221 654T213 658T210 666Z" />
<glyph unicode="W" glyph-name="W" horiz-adv-x="999" d="M209 666Q209 683 229 683Q233 683 258 682T323 680Q359 680 393 681T430 682Q447 682 448 673Q448 672 448 671T449 668Q449 657 435 654T403 650T372 639T359 603L380 155Q380 148 381 135T382 116Q389
130 405 158L609 533Q620 554 620 567Q620 572 619 588T617 619Q616 640 608 645T574 652Q559 652 554 655Q549 659 549 666T553 677Q558 683 569 683Q571 683 583 683T616 681T662 680Q691 680 715 680T754 681T771 682Q789 682 789 670T780 655T752 651T721 645Q699
636 699 614Q699 610 699 604T700 594L716 239Q717 225 718 200T721 155T722 116Q728 129 742 153L958 548Q987 600 987 616Q987 645 944 651Q921 653 921 666Q921 683 942 683Q944 683 956 683T989 681T1035 680Q1053 680 1074 681T1100 682Q1122 682 1122 669Q1122
664 1121 661T1117 656T1110 653T1104 651T1098 651T1093 650Q1073 646 1059 638T1028 608T1004 573T974 519L696 9Q696 8 692 0T685 -11T677 -18T664 -22Q660 -22 658 -22T653 -19T650 -16T648 -11T647 -6T647 -1T646 4L629 365Q628 380 627 407T624 456T623 499Q618
489 608 471T595 447L353 3Q341 -17 332 -20Q328 -22 323 -22Q307 -22 305 3L279 591Q279 596 279 606T278 618T277 628T275 636T272 642T266 646T258 649T247 651T233 652Q209 652 209 666Z" />
<glyph unicode="X" glyph-name="X" horiz-adv-x="743" d="M52 13Q52 24 61 28T85 32T126 41T177 72T306 212T419 341Q382 436 343 548Q316 625 305 638T257 652Q253 652 251 652Q227 652 227 666Q227 683 247 683Q250 683 262 683T296 681T344 680Q380 680 415
681T453 682Q477 682 477 671Q477 666 473 660T465 653L454 651Q443 649 434 646T415 637T406 621Q406 616 419 580T452 492T481 413Q485 418 490 423T505 440T528 467T568 512T626 578Q651 609 651 622T643 642T622 652T608 657Q605 660 605 666Q605 683 625 683Q628
683 640 683T673 681T721 680Q743 680 769 681T800 682Q814 682 818 680T823 670Q823 659 814 655T792 651T754 643T707 618Q686 603 648 561T563 463T492 383L607 73Q617 48 620 45Q632 32 663 32T698 21Q699 19 699 16Q699 1 676 1Q674 1 643 2T580 3Q541 3 507
2T468 1Q450 1 450 13Q450 22 455 26T468 31T487 35T508 45Q520 53 520 63Q520 68 503 114T463 222T430 312L254 110Q225 76 225 61Q225 41 247 34T270 19Q270 0 251 0Q246 0 216 1T149 3Q128 3 104 2T74 1Q61 1 57 3T52 13Z" />
<glyph unicode="Y" glyph-name="Y" horiz-adv-x="743" d="M203 666Q203 683 223 683Q226 683 239 683T275 681T325 680Q364 680 399 681T435 682Q442 682 448 680Q454 676 454 669T449 657Q447 655 413 650T379 626Q379 621 403 544T452 390L477 315Q490 332 683
567Q720 614 720 628Q720 645 698 650T676 665Q676 683 695 683H697Q700 683 711 683T742 681T785 680Q803 680 824 681T851 682Q873 682 873 670Q873 652 850 652Q819 649 792 632T747 597T697 539L494 292Q481 276 477 265Q474 255 430 80Q425 58 425 50Q425
35 445 33T487 30T508 18Q508 0 488 0H487Q484 0 469 1T428 2T371 3Q342 3 317 3T277 1T260 0Q242 0 242 13T255 29T290 32T326 37T344 58T372 162Q386 217 395 253Q399 267 399 271Q399 274 395 288L292 612Q284 639 274 644T231 652Q203 652 203 666Z" />
<glyph unicode="Z" glyph-name="Z" horiz-adv-x="613" d="M80 12Q80 18 97 43L608 652H465Q406 652 363 635T299 591T265 538T245 489T233 462Q227 458 222 458Q208 458 208 472Q208 477 264 663Q271 683 289 683H679Q703 683 703 672Q703 663 682 637L177 33H308Q391
33 439 54T514 117T569 243Q576 266 590 266Q603 266 603 253L531 17Q525 0 506 0H100Q80 0 80 12Z" />
<glyph unicode="[" glyph-name="bracketleft" horiz-adv-x="307" d="M63 -236Q63 -231 65 -223L298 709Q306 743 312 747Q317 750 329 750H421Q443 750 443 739Q443 727 420 727H365L127 -227H174Q198 -227 198 -238Q198 -250 177 -250H85Q63 -250 63 -236Z" />
<glyph unicode="\" glyph-name="backslash" horiz-adv-x="511" d="M262 722V732Q262 748 272 748Q283 748 285 723L373 -223V-233Q373 -248 363 -248Q352 -248 350 -223L262 722Z" />
<glyph unicode="]" glyph-name="bracketright" horiz-adv-x="307" d="M-11 -239Q-11 -227 12 -227H67L305 727H256Q233 727 233 738Q233 750 255 750H347Q369 750 369 736Q369 732 367 724L133 -210Q125 -243 120 -247Q115 -250 103 -250H10Q-11 -250 -11 -239Z" />
<glyph unicode="^" glyph-name="asciicircum" horiz-adv-x="613" d="M248 476Q248 485 269 499Q308 526 362 563Q453 626 460 626H461Q466 626 475 618T521 570Q560 529 589 498Q603 481 603 477Q603 472 598 467T587 461H586Q580 461 567 472T453 575H452L281
469Q268 461 262 461T252 466T248 476Z" />
<glyph unicode="_" glyph-name="underscore" horiz-adv-x="766" d="M50 -233T50 -213T79 -193H580Q609 -193 609 -213T581 -233H79Q50 -233 50 -213Z" />
<glyph unicode="`" glyph-name="grave" horiz-adv-x="511" d="M274 614Q274 629 287 640T312 651Q319 651 325 648T334 641T342 631T347 623Q359 607 370 591T388 566T401 548T411 535T416 526T420 519T421 515Q421 508 416 504T404 499H403Q397 499 335 550Q308
572 290 587Q274 603 274 614Z" />
<glyph unicode="a" glyph-name="a" horiz-adv-x="511" d="M107 144Q107 254 179 348T336 442Q388 442 420 383Q429 421 459 421Q471 421 479 413T487 394Q487 390 483 375L420 123Q408 77 408 52Q408 12 434 12Q450 12 463 31T484 72T499 123Q501 131 502 135Q507
153 519 153Q534 153 534 140Q532 128 528 110T507 53T469 0Q454 -11 431 -11Q403 -11 381 6T350 59Q287 -11 229 -11Q174 -11 141 32T107 144ZM175 100Q175 66 188 39T231 12Q265 12 301 46T350 108Q352 113 378 215T405 328Q405 352 388 385T336 419Q293 419
251 358Q219 312 197 226T175 100Z" />
<glyph unicode="b" glyph-name="b" horiz-adv-x="460" d="M113 142Q113 177 128 237L220 607Q225 625 225 633Q225 651 189 651T153 666Q153 671 155 674T159 679T165 682T171 684T177 684T183 685Q196 686 223 688T267 692T287 694Q303 694 303 680Q303 674 298
657L231 388Q287 442 337 442Q391 442 425 398T459 286Q459 176 387 83T229 -11Q177 -11 145 31T113 142ZM170 107Q170 70 184 41T230 12Q274 12 315 71Q347 117 368 203T390 331Q390 373 376 396T336 419T281 398T226 340Q220 331 216 323T211 308T204 280T194
240Q170 147 170 107Z" />
<glyph unicode="c" glyph-name="c" horiz-adv-x="460" d="M108 153Q108 263 188 352T362 442Q408 442 438 418T469 356Q469 325 453 311T418 296Q404 296 395 305T385 328Q385 336 388 345T403 364T435 377Q415 419 363 419Q347 419 329 412T285 387T237 327T197
225Q179 159 179 115Q179 72 198 42T258 12Q294 12 328 25T388 60T424 92T444 115L445 116Q452 121 459 116T467 103Q467 91 442 65T364 14T256 -11Q190 -11 149 35T108 153Z" />
<glyph unicode="d" glyph-name="d" horiz-adv-x="511" d="M107 144Q107 254 180 348T336 442Q393 442 420 383Q428 418 444 479T470 583T481 633Q481 651 445 651T409 666Q409 682 440 685Q542 694 543 694Q559 694 559 680Q559 672 555 660L422 131Q408 76 408
52Q408 12 434 12Q449 12 462 29T481 63T494 107T503 139Q507 153 520 153Q534 153 534 140Q534 135 532 127Q515 61 494 25T431 -11Q403 -11 381 6T350 59Q287 -11 229 -11Q175 -11 141 32T107 144ZM175 100Q175 66 188 39T231 12Q265 12 301 46T350 108Q352 113
378 215T405 328Q405 352 388 385T336 419Q292 419 251 358Q219 312 197 226T175 100Z" />
<glyph unicode="e" glyph-name="e" horiz-adv-x="460" d="M113 166Q113 287 192 364T362 442Q405 442 433 419T462 357Q462 344 458 331T444 299T406 264T340 240Q288 230 199 230Q182 156 182 122Q182 77 200 44T259 11Q300 11 347 34T430 99Q445 118 453 118Q458
118 462 114T467 104Q467 91 441 65T364 14T257 -11Q192 -11 153 37T113 166ZM205 253Q425 253 425 358Q425 385 408 402T362 419Q347 419 329 413T286 391T240 339T205 253Z" />
<glyph unicode="f" glyph-name="f" horiz-adv-x="307" d="M-25 -139Q-25 -115 -10 -100T25 -85Q41 -85 49 -94T58 -118Q58 -156 14 -165Q34 -183 53 -183Q67 -183 77 -175T96 -146T107 -113T118 -70Q130 -18 153 99T194 308L212 400Q205 400 191 400T170 399H157Q126
399 126 415Q126 430 154 430H218Q247 579 261 616Q272 646 288 663Q325 705 370 705Q403 705 427 687T451 639Q451 617 437 601T402 585Q387 585 378 594T368 617Q368 633 379 647T412 665Q392 682 374 682Q362 682 354 678T338 662T327 638T317 601T307 555T296
497T283 430H363Q385 430 385 417Q385 399 354 399H352Q349 399 343 399T333 400H277Q272 372 243 222T208 47Q198 -1 188 -37T159 -115T114 -181T54 -205Q23 -205 -1 -188T-25 -139Z" />
<glyph unicode="g" glyph-name="g" horiz-adv-x="460" d="M52 -147Q52 -128 66 -111T101 -94Q117 -94 126 -103T135 -127Q135 -157 103 -172Q132 -183 175 -183Q225 -183 256 -151T302 -83Q316 -50 338 53Q281 0 231 0Q177 0 143 43T109 153Q109 261 181 351T336
442Q387 442 421 385Q429 421 460 421Q472 421 479 414T487 395Q487 390 485 382L378 -47Q368 -83 365 -91Q347 -132 299 -169T175 -206Q52 -206 52 -147ZM178 109Q178 76 191 50T234 23Q285 23 338 95Q351 113 356 128Q359 137 399 296Q406 322 406 330Q406 353
389 386T337 419Q294 419 252 360Q220 315 199 232T178 109Z" />
<glyph unicode="h" glyph-name="h" horiz-adv-x="511" d="M75 16Q75 22 86 68L219 599Q225 622 225 633Q225 649 208 650T172 652T154 666Q154 678 168 682T226 689Q251 691 267 692Q281 694 287 694Q303 694 303 681Q303 675 290 623T257 493T228 375Q289 442
361 442H362Q404 442 435 418T467 338Q467 288 428 175T388 40Q388 12 411 12Q467 12 500 129Q504 145 511 150T526 152T534 140Q534 134 527 112T505 62T465 11T407 -11Q374 -11 353 11T332 69Q332 89 369 195T406 354Q406 419 359 419Q327 419 298 402T250 358T221
314T206 284L145 41Q133 -11 102 -11Q91 -11 83 -4T75 16Z" />
<glyph unicode="i" glyph-name="i" horiz-adv-x="307" d="M127 69Q127 98 173 232T219 375Q219 385 206 387T176 390T155 393Q145 400 153 413Q157 418 166 420T196 423T231 427Q236 428 239 429T245 430T254 431T275 432H279Q302 432 302 419Q302 417 290 366Q286
350 284 344T280 338T275 329T265 303Q246 246 220 169Q183 59 183 41Q183 12 206 12Q218 12 231 18T263 54T296 132Q302 153 315 153Q329 153 329 140Q329 133 322 111T300 61T260 11T203 -11Q169 -11 148 11T127 69ZM243 608Q243 625 257 640T290 655Q304 655
314 646T324 622Q324 604 310 590T277 575Q262 575 253 584T243 608Z" />
<glyph unicode="j" glyph-name="j" horiz-adv-x="307" d="M-35 -147Q-35 -126 -21 -110T16 -93Q31 -93 41 -102T51 -127Q51 -159 15 -174Q31 -181 46 -181Q58 -181 70 -177T99 -159T133 -114T162 -35L255 340Q261 364 261 370Q261 385 243 387T207 391T189 403Q189
416 204 420T278 427L279 428Q280 428 282 429T287 430T295 431T308 432H316Q341 432 341 417Q341 409 339 403L230 -33Q224 -58 221 -69T208 -98T186 -132Q160 -164 123 -185T46 -207Q10 -207 -12 -191T-35 -147ZM276 608Q276 625 290 640T324 655Q338 655 348
646T358 622Q358 603 343 589T310 575Q295 575 286 585T276 608Z" />
<glyph unicode="k" glyph-name="k" horiz-adv-x="460" d="M75 16Q75 21 77 31L220 603Q225 625 225 632Q225 652 192 652H182Q157 652 154 662V667Q154 672 156 675T164 680T176 684T195 687T217 688T245 690T277 693Q278 693 281 693T287 694Q303 694 303 680Q303
676 301 666L200 261Q229 276 261 308T316 369T371 420T438 442Q466 442 483 425T501 381Q501 358 487 342T452 326Q438 326 428 335T418 358Q418 397 464 406Q449 419 437 419Q403 419 370 391T297 318T224 249Q254 245 281 237T333 204T358 146Q358 133 352 103T345
52Q345 12 374 12Q390 12 403 22T425 56T439 91T450 131Q454 153 469 153Q483 153 483 140Q483 135 477 114T460 63T425 11T371 -11Q333 -11 310 16T287 85Q287 98 290 117T294 145Q294 172 275 191T235 218T191 228Q180 186 165 122Q143 31 134 10T102 -11Q91
-11 83 -4T75 16Z" />
<glyph unicode="l" glyph-name="l" horiz-adv-x="255" d="M93 79Q93 91 103 134L219 597Q226 625 226 633Q226 651 191 651T154 663Q153 672 159 677T168 682T180 684Q195 685 221 687T266 692T287 694Q304 694 304 680Q304 676 302 670T300 663L162 107Q153 68
153 51Q153 12 179 12Q187 12 195 17T209 32T221 52T230 76T237 99T243 121T247 136Q252 153 264 153Q278 153 278 140Q278 118 257 61Q228 -11 176 -11Q139 -11 116 15T93 79Z" />
<glyph unicode="m" glyph-name="m" horiz-adv-x="818" d="M125 16Q125 20 130 45L207 353Q207 356 208 361T210 370Q210 388 174 388T138 403Q138 416 153 420T227 427Q239 433 262 433Q290 433 290 418Q290 413 281 377Q343 442 414 442Q504 442 518 356Q518
354 518 353Q578 442 668 442Q716 442 744 415T773 338Q773 290 734 175T694 39Q694 12 717 12Q747 12 769 44T802 113T817 151Q822 154 827 154Q841 154 841 141Q841 134 834 112T812 62T772 11T714 -11Q680 -11 659 12T638 70Q638 87 675 196T712 357Q712 419
663 419Q634 419 607 403T560 362T530 318T513 284Q509 272 451 39L450 33Q448 27 447 23T443 12T435 1T424 -7T409 -11Q397 -11 389 -3T381 17Q381 30 419 173T457 355Q457 419 410 419Q380 419 352 402T304 361T275 319T260 290Q257 283 193 26Q184 -12 153 -12Q141
-12 133 -4T125 16Z" />
<glyph unicode="n" glyph-name="n" horiz-adv-x="562" d="M125 16Q125 27 131 47L207 352Q207 354 208 360T210 370Q210 385 192 387T156 390T138 402Q138 416 153 420T227 427Q236 432 254 432H267Q290 432 290 417Q290 413 281 377Q342 442 413 442H414Q455
442 486 418T518 337Q518 287 479 174T439 39Q439 12 462 12Q492 12 514 44T547 113T562 151Q566 154 572 154Q585 154 585 141Q585 134 578 112T556 61T516 11T459 -11Q425 -11 404 12T383 70Q383 87 420 195T457 354Q457 419 408 419Q379 419 352 403T307 365T277
323T260 290Q258 284 196 37Q188 -12 153 -12Q141 -12 133 -5T125 16Z" />
<glyph unicode="o" glyph-name="o" horiz-adv-x="511" d="M108 153Q108 262 188 352T362 442Q428 442 468 396T508 277Q508 168 428 79T254 -11Q189 -11 149 35T108 153ZM179 114Q179 66 199 39T255 12Q308 12 355 67Q391 110 414 187T438 316Q438 364 417 391T361
419Q310 419 262 363Q226 321 203 243T179 114Z" />
<glyph unicode="p" glyph-name="p" horiz-adv-x="511" d="M14 -181Q14 -165 41 -164T77 -152Q82 -145 92 -112L201 328Q209 358 209 369Q209 384 192 386T156 390T138 403Q138 416 154 420T226 427Q235 432 253 432H261Q277 432 283 430T290 418Q290 416 284 392Q339
443 389 443Q444 443 477 399T511 287Q511 176 438 82T281 -12Q229 -12 196 44Q192 26 180 -20T159 -104T150 -146Q150 -163 183 -163T221 -171Q223 -175 223 -177Q223 -183 217 -188T202 -194Q197 -194 169 -193T108 -192Q88 -192 65 -192T36 -193Q23 -193 19
-191T14 -181ZM213 104Q213 91 218 72T240 33T281 13Q318 13 350 52T400 147T429 252T440 331Q440 372 426 395T386 418Q333 418 277 337Q267 321 260 295Q258 291 217 127Q213 107 213 104Z" />
<glyph unicode="q" glyph-name="q" horiz-adv-x="460" d="M107 144Q107 254 180 348T336 442Q394 442 423 377H424Q437 399 456 419T485 440Q495 440 495 428Q495 421 489 397L360 -120Q355 -138 355 -146Q355 -163 391 -163T427 -177Q427 -194 407 -194Q404 -194
392 -194T356 -193T307 -192Q283 -192 262 -192T229 -193T215 -194Q197 -194 197 -182Q197 -167 213 -165T252 -162T284 -148Q288 -142 335 43Q279 -11 229 -11Q175 -11 141 32T107 144ZM175 100Q175 66 188 39T231 12Q265 12 301 46T350 108Q352 113 378 215T405
328Q405 352 388 385T336 419Q292 419 251 358Q219 312 197 226T175 100Z" />
<glyph unicode="r" glyph-name="r" horiz-adv-x="422" d="M125 24Q125 27 132 55L203 337Q209 360 209 370Q209 385 191 387T155 391T137 403Q137 418 158 422Q168 424 225 427Q239 453 263 453Q278 453 284 445T291 428Q291 421 284 390Q334 442 390 442Q427
442 457 427T488 378Q488 358 474 342T439 326Q425 326 415 335T405 358Q405 389 442 405Q416 419 389 419Q324 419 274 327Q264 309 258 284T197 42Q192 20 188 15T169 10H148Q125 10 125 24Z" />
<glyph unicode="s" glyph-name="s" horiz-adv-x="409" d="M75 86Q75 117 91 132T125 148Q140 148 149 139T159 115Q159 100 147 84T108 67Q130 11 206 11Q268 11 301 47T335 123Q335 147 321 163T293 184T252 195T218 203Q192 211 173 233T153 293Q153 345 194
393T311 442Q358 442 388 419T418 356Q418 328 405 315T376 302Q364 302 356 310T347 330Q347 343 357 354T385 370Q369 419 310 419Q262 419 236 390T210 328Q210 321 211 315T215 305T220 296T227 289T234 284T242 280T251 277T258 275T264 273T269 272T278 271T292
268T309 263T328 256T346 245T364 231T378 212T388 188T392 158Q392 133 382 106T351 51T292 7T205 -11Q148 -11 112 16T75 86Z" />
<glyph unicode="t" glyph-name="t" horiz-adv-x="332" d="M92 413Q92 430 114 430Q119 430 129 430T144 431Q154 431 173 431T203 430L239 575Q242 587 243 589T247 597T254 603T267 604H285Q307 604 307 591Q307 574 268 430H350Q371 430 371 417Q371 406 363
403T335 399H319Q309 399 290 399T260 400Q258 394 255 380T250 360L190 117Q179 71 179 52Q179 12 207 12Q273 12 324 140Q329 153 342 153T355 142Q355 115 310 52T204 -11Q166 -11 143 14T119 79Q119 100 126 123L195 400H114Q92 400 92 413Z" />
<glyph unicode="u" glyph-name="u" horiz-adv-x="537" d="M138 403Q138 421 159 421Q249 431 274 431Q289 431 289 417Q289 410 276 360Q273 349 253 280T224 168T215 90Q215 12 270 12Q297 12 322 30T358 64T373 90L381 122L445 380Q456 431 487 431Q499 431
506 423T514 407T452 147Q433 69 433 52Q433 12 459 12Q496 12 526 130Q533 154 545 154Q551 154 555 150T559 140Q559 136 557 128Q546 84 537 59T507 11T457 -11Q398 -11 378 49Q326 -11 266 -11Q222 -11 188 15T154 105Q154 157 181 254T209 371Q209 385 192
387T156 390T138 403Z" />
<glyph unicode="v" glyph-name="v" horiz-adv-x="460" d="M151 403Q151 415 162 418T216 425Q246 427 266 429L272 430Q279 431 284 431Q303 431 303 418Q303 410 290 361Q283 339 274 334Q217 147 217 94Q217 48 236 30T282 12Q320 12 353 49T405 137T434 230T444
290Q444 320 434 340T414 373T404 396Q404 415 419 428T451 442T479 427T492 375Q492 358 486 318T464 221T425 112T363 25T278 -11Q230 -11 193 16T155 109Q155 140 171 203T204 319T220 374Q220 389 186 389T151 403Z" />
<glyph unicode="w" glyph-name="w" horiz-adv-x="664" d="M151 403Q151 410 153 413T163 419T178 422T201 424T230 427Q232 427 241 429T270 432H281Q303 432 303 418Q293 346 275 334Q219 148 219 97Q219 50 240 32T286 13Q310 13 330 34T359 72T369 99Q370 103
371 122T377 163Q387 207 432 385Q444 431 475 431Q487 431 495 423T503 403Q503 394 469 263T435 94Q435 51 453 32T498 13Q521 13 541 27T574 60T600 110T619 162T633 214Q647 270 647 292Q647 331 628 360T608 397Q608 412 622 427T655 442Q671 442 684 426T697
372Q697 335 677 251T637 118Q586 -13 495 -13Q411 -13 382 50Q361 19 340 4T284 -12Q234 -12 194 16T154 111Q154 140 170 204T202 322T219 376Q219 388 185 389T151 403Z" />
<glyph unicode="x" glyph-name="x" horiz-adv-x="464" d="M53 52Q53 73 66 89T101 105Q116 105 125 96T135 72Q135 38 96 25Q119 12 140 12Q156 12 169 19T194 42T212 73T228 118T242 168T256 226T270 287Q282 340 282 355Q282 384 269 401T233 419Q199 419 168
387T118 303Q117 301 116 297T114 292T112 287T108 282T104 279T97 278Q83 278 83 291Q83 307 99 341T153 408T236 442H237Q304 441 333 373Q371 442 431 442Q462 442 489 426T517 379Q517 356 502 341T468 326Q454 326 445 335T435 358Q435 373 445 386T473 405Q454
419 430 419Q417 419 404 414T372 380T340 304Q331 269 323 233T310 180T300 143T294 116T291 99T289 86T288 74Q288 47 301 30T337 12Q371 12 403 44T452 128Q453 130 454 134T456 140T458 145T462 149T466 152T473 153Q487 153 487 140Q487 124 471 90T416 23T334
-11Q306 -11 279 4T238 57Q225 38 216 27T185 2T139 -11Q106 -11 80 5T53 52Z" />
<glyph unicode="y" glyph-name="y" horiz-adv-x="485" d="M98 -119Q98 -88 113 -73T148 -57Q163 -57 172 -66T182 -89Q182 -104 171 -120T131 -137Q148 -183 194 -183Q239 -183 279 -141T343 -24Q348 -8 356 26Q312 -11 266 -11Q221 -11 188 15T154 104Q154 137
170 201T203 318T220 375Q220 385 207 387T176 390T155 393Q146 399 153 412Q158 420 175 422Q275 431 286 431H287Q302 431 302 418Q302 409 290 361Q283 339 274 334Q215 136 215 87Q215 12 270 12Q304 12 333 38T371 87Q373 93 375 103T379 118L445 379L446
384Q447 389 448 392T451 402T456 412T464 421T474 427T487 430Q498 430 506 423T514 403Q514 400 513 394T511 387L419 18Q405 -37 381 -79T332 -145T279 -183T231 -202T194 -206Q152 -206 125 -182T98 -119Z" />
<glyph unicode="z" glyph-name="z" horiz-adv-x="409" d="M62 0Q62 5 74 24Q107 76 149 121T256 229T369 344Q343 345 306 361T249 377Q224 377 204 364T177 336L170 322Q166 316 157 316Q144 316 144 330Q144 355 178 398T259 442Q279 442 295 431T320 405T341
379T368 367Q383 367 396 380T420 413T434 435Q440 441 449 441Q462 441 462 431Q462 423 447 400T417 358T400 337Q363 293 282 215T154 85Q160 86 172 86Q197 86 234 70T291 53Q323 53 353 76T398 132Q405 151 414 152Q421 153 426 150T431 137Q425 95 382 42T282
-11Q256 -11 238 7T205 44T170 63Q155 63 141 54T117 33T100 10T89 -5Q83 -11 76 -11Q62 -11 62 0Z" />
<glyph unicode="{" glyph-name="braceleft" horiz-adv-x="511" d="M155 249Q155 256 159 258T178 263T201 267Q236 276 267 302T312 363Q318 380 374 604Q374 605 375 611T378 620T381 629T385 640T390 651T397 662T406 674T417 686T430 698T447 710Q509 750 586
750Q603 750 603 739Q603 732 596 730T572 725T540 717Q524 711 510 703T487 687T469 668T457 650T448 633T443 618T440 606L438 600Q378 362 374 352Q344 280 238 249Q322 220 322 152Q322 132 289 2T255 -145Q255 -161 260 -174T273 -196T292 -211T313 -221T332
-226T346 -228L352 -229Q358 -232 358 -238Q358 -250 339 -250T298 -245T250 -229T208 -196T191 -143Q191 -124 224 6T258 154Q258 188 237 209T182 237Q180 237 174 238T165 239T158 242T155 249Z" />
<glyph unicode="|" glyph-name="bar" horiz-adv-x="307" d="M76 -228Q76 -228 79 -210L312 720Q319 749 335 749Q342 749 348 743T354 728Q354 723 314 564L119 -218Q110 -249 95 -249Q76 -249 76 -228Z" />
<glyph unicode="}" glyph-name="braceright" horiz-adv-x="511" d="M32 -239Q32 -231 38 -229T61 -225T94 -217Q107 -212 118 -206T138 -194T154 -179T167 -165T177 -150T184 -137T190 -124T194 -114T196 -105L197 -100Q257 139 261 148Q290 218 397 251Q363 262
338 285T313 349Q313 369 346 497T380 644Q380 660 375 673T362 695T343 710T322 720T303 726T289 728L283 729Q270 736 279 745Q284 750 295 750Q315 750 338 745T386 729T427 695T444 642Q444 622 411 493T377 346Q377 311 399 290T453 263Q455 263 459 263T467
261T473 259T478 256T480 250Q480 243 475 241T455 237T433 233Q396 223 366 198T323 138Q315 116 286 -6T247 -146Q222 -197 164 -223T49 -250Q32 -250 32 -239Z" />
<glyph unicode="~" glyph-name="asciitilde" horiz-adv-x="613" d="M248 577Q248 591 298 629T390 668Q424 668 470 635T542 602Q566 602 590 615T634 646T656 664Q662 667 667 665T672 656T661 639Q588 566 530 566Q496 566 450 599T376 632Q351 632 325 616T281
585T257 569Q248 569 248 577Z" />
</font>
</defs>
</svg>
