<?xml version="1.0" encoding="UTF-8" standalone="no"?>
<!-- Created with Inkscape (http://www.inkscape.org/) -->

<svg
   version="1.1"
   id="svg2"
   xml:space="preserve"
   width="772.35974"
   height="688.13531"
   viewBox="0 0 772.35974 688.13531"
   sodipodi:docname="acfas.svg"
   inkscape:version="1.1.1 (3bf5ae0d25, 2021-09-20)"
   xmlns:inkscape="http://www.inkscape.org/namespaces/inkscape"
   xmlns:sodipodi="http://sodipodi.sourceforge.net/DTD/sodipodi-0.dtd"
   xmlns="http://www.w3.org/2000/svg"
   xmlns:svg="http://www.w3.org/2000/svg"><defs
     id="defs6"><clipPath
       clipPathUnits="userSpaceOnUse"
       id="clipPath20"><path
         d="M 0,864 H 1296 V 0 H 0 Z"
         id="path18" /></clipPath></defs><sodipodi:namedview
     id="namedview4"
     pagecolor="#ffffff"
     bordercolor="#666666"
     borderopacity="1.0"
     inkscape:pageshadow="2"
     inkscape:pageopacity="0.0"
     inkscape:pagecheckerboard="0"
     showgrid="false"
     fit-margin-top="0"
     fit-margin-left="0"
     fit-margin-right="0"
     fit-margin-bottom="0"
     inkscape:zoom="0.72829861"
     inkscape:cx="174.37902"
     inkscape:cy="329.53516"
     inkscape:window-width="1920"
     inkscape:window-height="1043"
     inkscape:window-x="303"
     inkscape:window-y="0"
     inkscape:window-maximized="1"
     inkscape:current-layer="g14" /><g
     id="g8"
     inkscape:groupmode="layer"
     inkscape:label="ACFAS_Vertical_CMYK"
     transform="matrix(1.3333333,0,0,-1.3333333,-480.64505,920.08331)"><g
       id="g10"
       transform="translate(568.6748,265.7666)"><path
         d="M 0,0 H -16.635 V 12.852 H 4 v 7.353 h -28.845 v -49.979 h 8.21 v 22.42 H 0 Z"
         style="fill:#231f20;fill-opacity:1;fill-rule:nonzero;stroke:none"
         id="path12" /></g><g
       id="g14"><g
         id="g16"
         clip-path="url(#clipPath20)"><g
           id="g22"
           transform="translate(589.2744,263.1953)"><path
             d="m 0,0 c 6.639,0 9.853,-4.855 9.853,-10.567 0,-5.712 -3.214,-10.567 -9.853,-10.567 -6.069,0 -9.711,4.497 -9.711,10.567 C -9.711,-4.498 -6.069,0 0,0 m -1.142,-28.061 c 4.069,0 8.638,2 10.639,5.355 v -4.497 h 7.781 V 6.069 H 9.497 V 1.57 C 7.496,4.927 3.499,6.926 -0.927,6.926 c -10.354,0 -16.567,-7.711 -16.567,-17.493 0,-9.782 5.64,-17.494 16.352,-17.494"
             style="fill:#231f20;fill-opacity:1;fill-rule:nonzero;stroke:none"
             id="path24" /></g><path
           d="m 613.08,235.992 h 7.783 v 33.272 h -7.783 z"
           style="fill:#231f20;fill-opacity:1;fill-rule:nonzero;stroke:none"
           id="path26" /><g
           id="g28"
           transform="translate(617.0063,284.6152)"><path
             d="m 0,0 c -3.428,0 -5.784,-2.571 -5.784,-5.783 0,-3.214 2.356,-5.783 5.784,-5.783 3.428,0 5.784,2.569 5.784,5.783 C 5.784,-2.571 3.428,0 0,0"
             style="fill:#231f20;fill-opacity:1;fill-rule:nonzero;stroke:none"
             id="path30" /></g><g
           id="g32"
           transform="translate(635.1353,250.7002)"><path
             d="m 0,0 c 0,7.568 3.355,11.71 8.852,11.71 1.215,0 1.857,0 3.072,-0.144 v 7.141 c -0.857,0.214 -1.857,0.286 -3.072,0.286 -3.64,0 -7.64,-2.142 -8.852,-6.854 v 6.425 H -7.783 V -14.708 H 0 Z"
             style="fill:#231f20;fill-opacity:1;fill-rule:nonzero;stroke:none"
             id="path34" /></g><g
           id="g36"
           transform="translate(717.25,263.1953)"><path
             d="m 0,0 c 6.639,0 9.853,-4.855 9.853,-10.567 0,-5.712 -3.214,-10.567 -9.853,-10.567 -6.069,0 -9.711,4.497 -9.711,10.567 C -9.711,-4.498 -6.069,0 0,0 m -1.142,-28.061 c 4.068,0 8.638,2 10.639,5.355 v -4.497 h 7.78 V 6.069 H 9.497 V 1.57 C 7.496,4.927 3.498,6.926 -0.928,6.926 c -10.354,0 -16.566,-7.711 -16.566,-17.493 0,-9.782 5.64,-17.494 16.352,-17.494"
             style="fill:#231f20;fill-opacity:1;fill-rule:nonzero;stroke:none"
             id="path38" /></g><g
           id="g40"
           transform="translate(758.542,235.9922)"><path
             d="M 0,0 14.422,33.272 H 6.069 l -9.21,-22.848 -9.212,22.848 h -8.353 L -6.283,0 Z"
             style="fill:#231f20;fill-opacity:1;fill-rule:nonzero;stroke:none"
             id="path42" /></g><g
           id="g44"
           transform="translate(790.123,263.1953)"><path
             d="m 0,0 c 6.639,0 9.853,-4.855 9.853,-10.567 0,-5.712 -3.214,-10.567 -9.853,-10.567 -6.069,0 -9.711,4.497 -9.711,10.567 C -9.711,-4.498 -6.069,0 0,0 m -1.142,-28.061 c 4.069,0 8.638,2 10.639,5.355 v -4.497 h 7.781 V 6.069 H 9.497 V 1.57 C 7.496,4.927 3.498,6.926 -0.928,6.926 c -10.353,0 -16.566,-7.711 -16.566,-17.493 0,-9.782 5.64,-17.494 16.352,-17.494"
             style="fill:#231f20;fill-opacity:1;fill-rule:nonzero;stroke:none"
             id="path46" /></g><g
           id="g48"
           transform="translate(831.2803,270.1211)"><path
             d="m 0,0 c -4.928,0 -8.783,-1.928 -10.853,-5.498 v 4.642 h -7.783 v -33.273 h 7.783 v 18.278 c 0,5.855 2.856,9.211 7.924,9.211 5.427,0 7.284,-3.071 7.284,-10.139 v -17.35 h 7.782 v 20.92 C 12.137,-4.499 7.995,0 0,0"
             style="fill:#231f20;fill-opacity:1;fill-rule:nonzero;stroke:none"
             id="path50" /></g><g
           id="g52"
           transform="translate(862.9053,263.1953)"><path
             d="m 0,0 c 4.711,0 7.139,-1.999 7.995,-5.783 h 7.783 C 15.065,1.856 9.281,6.926 0,6.926 c -10.354,0 -16.566,-7.14 -16.566,-17.493 0,-10.353 6.212,-17.494 16.566,-17.494 9.281,0 15.065,4.927 15.778,12.353 H 7.995 C 7.139,-19.207 4.711,-21.134 0,-21.134 c -5.499,0 -8.783,3.784 -8.783,10.567 C -8.783,-3.784 -5.499,0 0,0"
             style="fill:#231f20;fill-opacity:1;fill-rule:nonzero;stroke:none"
             id="path54" /></g><g
           id="g56"
           transform="translate(890.3037,255.9844)"><path
             d="m 0,0 c 0.071,4.712 3.355,7.996 8.854,7.996 5.354,0 8.354,-2.855 8.424,-7.996 z m 8.996,14.137 c -10.138,0 -16.708,-6.855 -16.708,-17.493 0,-10.782 6.498,-17.494 16.995,-17.494 7.995,0 14.279,4.356 15.279,10.568 h -7.853 c -1.286,-2.571 -3.572,-3.784 -7.426,-3.784 -5.64,0 -9.068,2.856 -9.283,8.139 h 24.704 c 0.144,2 0.214,2.785 0.214,4.284 0,9.354 -6.425,15.78 -15.922,15.78"
             style="fill:#231f20;fill-opacity:1;fill-rule:nonzero;stroke:none"
             id="path58" /></g><g
           id="g60"
           transform="translate(936.6816,269.6934)"><path
             d="m 0,0 c -3.64,0 -7.64,-2.143 -8.852,-6.854 v 6.425 h -7.783 v -33.272 h 7.783 v 14.708 c 0,7.568 3.355,11.71 8.852,11.71 1.215,0 1.857,0 3.072,-0.144 v 7.141 C 2.216,-0.072 1.215,0 0,0"
             style="fill:#231f20;fill-opacity:1;fill-rule:nonzero;stroke:none"
             id="path62" /></g><path
           d="m 543.83,174.928 h 7.783 v 49.98 h -7.783 z"
           style="fill:#231f20;fill-opacity:1;fill-rule:nonzero;stroke:none"
           id="path64" /><g
           id="g66"
           transform="translate(562.5303,194.9209)"><path
             d="m 0,0 c 0.071,4.712 3.355,7.996 8.854,7.996 5.354,0 8.353,-2.856 8.424,-7.996 z m 8.996,14.137 c -10.138,0 -16.708,-6.855 -16.708,-17.493 0,-10.782 6.497,-17.494 16.995,-17.494 7.995,0 14.279,4.356 15.279,10.568 h -7.854 c -1.285,-2.571 -3.571,-3.785 -7.425,-3.785 -5.641,0 -9.069,2.857 -9.283,8.14 h 24.703 c 0.144,1.999 0.214,2.784 0.214,4.284 0,9.354 -6.424,15.78 -15.921,15.78"
             style="fill:#231f20;fill-opacity:1;fill-rule:nonzero;stroke:none"
             id="path68" /></g><g
           id="g70"
           transform="translate(591.2339,185.0459)"><path
             d="m 0,0 c 0,-10.188 10.705,-10.954 10.705,-10.954 0,0 5.497,-0.707 10.201,1.165 4.703,1.871 5.409,6.607 5.409,6.607 0,0 1.103,3.506 -0.844,7.342 -1.775,3.497 -7.587,4.741 -7.587,4.741 0,0 -3.207,0.88 -7.135,1.949 -3.251,0.883 -2.501,3.935 -2.501,3.935 0,0 0.229,3.709 5.744,3.47 5.211,-0.225 4.996,-4.533 4.996,-4.533 V 13.69 h 7.055 c -0.26,9.656 -9.624,10.262 -9.624,10.262 0,0 -4.914,0.803 -9.618,-1.082 -4.703,-1.884 -5.902,-6.149 -5.902,-6.149 0,0 -1.178,-3.569 0.844,-7.393 1.892,-3.575 7.588,-4.773 7.588,-4.773 0,0 4.104,-1.075 7.135,-1.962 2.794,-0.819 2.501,-3.963 2.501,-3.963 0,0 -0.165,-3.579 -5.744,-3.494 C 7.613,-4.779 7.313,0 7.313,0 H 0.258 Z"
             style="fill:#231f20;fill-opacity:1;fill-rule:nonzero;stroke:none"
             id="path72" /></g><g
           id="g74"
           transform="translate(685.1797,180.9971)"><path
             d="m 0,0 c -6.069,0 -9.711,4.498 -9.711,10.567 0,6.07 3.642,10.568 9.711,10.568 6.64,0 9.853,-4.856 9.853,-10.568 C 9.853,4.854 6.64,0 0,0 m 9.497,22.705 c -2.001,3.356 -5.999,5.356 -10.425,5.356 -10.353,0 -16.566,-7.711 -16.566,-17.494 0,-9.782 5.64,-17.493 16.352,-17.493 4.069,0 8.638,2 10.639,5.355 v -4.498 h 7.781 V 27.204 H 9.497 Z"
             style="fill:#231f20;fill-opacity:1;fill-rule:nonzero;stroke:none"
             id="path76" /></g><g
           id="g78"
           transform="translate(732.5391,208.2012)"><path
             d="M 0,0 -9.21,-22.849 -18.422,0 h -8.353 l 14.422,-33.273 h 6.284 L 8.353,0 Z"
             style="fill:#231f20;fill-opacity:1;fill-rule:nonzero;stroke:none"
             id="path80" /></g><g
           id="g82"
           transform="translate(758.0859,180.9971)"><path
             d="m 0,0 c -6.283,0 -9.782,4.498 -9.782,10.567 0,6.07 3.499,10.568 9.782,10.568 6.283,0 9.782,-4.498 9.782,-10.568 C 9.782,4.498 6.283,0 0,0 m 0,28.061 c -10.994,0 -17.565,-7.711 -17.565,-17.494 0,-9.782 6.571,-17.493 17.565,-17.493 10.997,0 17.565,7.711 17.565,17.493 0,9.783 -6.568,17.494 -17.565,17.494"
             style="fill:#231f20;fill-opacity:1;fill-rule:nonzero;stroke:none"
             id="path84" /></g><g
           id="g86"
           transform="translate(783.7041,223.5508)"><path
             d="m 0,0 c -3.428,0 -5.784,-2.57 -5.784,-5.783 0,-3.213 2.356,-5.783 5.784,-5.783 3.428,0 5.784,2.57 5.784,5.783 C 5.784,-2.57 3.428,0 0,0"
             style="fill:#231f20;fill-opacity:1;fill-rule:nonzero;stroke:none"
             id="path88" /></g><path
           d="m 779.777,174.928 h 7.783 v 33.273 h -7.783 z"
           style="fill:#231f20;fill-opacity:1;fill-rule:nonzero;stroke:none"
           id="path90" /><g
           id="g92"
           transform="translate(801.833,201.7754)"><path
             d="M 0,0 V 6.426 H -7.783 V -26.848 H 0 v 14.709 c 0,7.569 3.354,11.71 8.853,11.71 1.213,0 1.857,0 3.071,-0.143 v 7.14 C 11.067,6.782 10.066,6.854 8.853,6.854 5.212,6.854 1.213,4.712 0,0"
             style="fill:#231f20;fill-opacity:1;fill-rule:nonzero;stroke:none"
             id="path94" /></g><g
           id="g96"
           transform="translate(638.5371,185.0459)"><path
             d="m 0,0 c 0,-10.188 10.704,-10.954 10.704,-10.954 0,0 5.498,-0.707 10.201,1.165 4.704,1.871 5.41,6.607 5.41,6.607 0,0 1.103,3.506 -0.844,7.342 -1.775,3.497 -7.587,4.741 -7.587,4.741 0,0 -3.207,0.88 -7.135,1.949 -3.251,0.883 -2.501,3.935 -2.501,3.935 0,0 0.228,3.709 5.743,3.47 5.212,-0.225 4.997,-4.533 4.997,-4.533 V 13.69 h 7.055 c -0.26,9.656 -9.624,10.262 -9.624,10.262 0,0 -4.914,0.803 -9.618,-1.082 -4.703,-1.884 -5.902,-6.149 -5.902,-6.149 0,0 -1.178,-3.569 0.844,-7.393 1.892,-3.575 7.588,-4.773 7.588,-4.773 0,0 4.105,-1.075 7.135,-1.962 2.795,-0.819 2.501,-3.963 2.501,-3.963 0,0 -0.165,-3.579 -5.744,-3.494 C 7.613,-4.779 7.313,0 7.313,0 H 0.258 Z"
             style="fill:#231f20;fill-opacity:1;fill-rule:nonzero;stroke:none"
             id="path98" /></g><g
           id="g100"
           transform="translate(815.4121,185.0459)"><path
             d="m 0,0 c 0,-10.188 10.704,-10.954 10.704,-10.954 0,0 5.498,-0.707 10.201,1.165 4.704,1.871 5.41,6.607 5.41,6.607 0,0 1.103,3.506 -0.844,7.342 -1.775,3.497 -7.587,4.741 -7.587,4.741 0,0 -3.207,0.88 -7.135,1.949 -3.251,0.883 -2.502,3.935 -2.502,3.935 0,0 0.23,3.709 5.744,3.47 5.212,-0.225 4.997,-4.533 4.997,-4.533 V 13.69 h 7.055 c -0.26,9.656 -9.624,10.262 -9.624,10.262 0,0 -4.914,0.803 -9.618,-1.082 -4.703,-1.884 -5.902,-6.149 -5.902,-6.149 0,0 -1.178,-3.569 0.844,-7.393 1.892,-3.575 7.588,-4.773 7.588,-4.773 0,0 4.105,-1.075 7.135,-1.962 2.795,-0.819 2.501,-3.963 2.501,-3.963 0,0 -0.165,-3.579 -5.744,-3.494 C 7.612,-4.779 7.313,0 7.313,0 H 0.258 Z"
             style="fill:#231f20;fill-opacity:1;fill-rule:nonzero;stroke:none"
             id="path102" /></g><g
           id="g104"
           transform="translate(665.415,263.9805)"><path
             d="M 0,0 C 5.354,0 8.353,-2.855 8.424,-7.996 H -8.854 C -8.784,-3.284 -5.5,0 0,0 m 0.429,-28.846 c 7.995,0 14.278,4.356 15.279,10.568 H 7.854 c -1.286,-2.571 -3.572,-3.784 -7.425,-3.784 -5.642,0 -9.07,2.856 -9.283,8.139 h 24.703 c 0.143,2 0.214,2.785 0.214,4.284 0,9.354 -6.424,15.78 -15.921,15.78 -10.138,0 -16.708,-6.855 -16.708,-17.494 0,-10.781 6.497,-17.493 16.995,-17.493"
             style="fill:#231f20;fill-opacity:1;fill-rule:nonzero;stroke:none"
             id="path106" /></g><g
           id="g108"
           transform="translate(493.5586,399.2246)"><path
             d="m 0,0 c 11.021,0 16.697,-4.676 18.701,-13.525 h 18.2 C 35.232,4.341 21.707,16.196 0,16.196 c -24.212,0 -38.739,-16.697 -38.739,-40.909 0,-24.212 14.527,-40.909 38.739,-40.909 21.707,0 35.232,11.521 36.901,28.887 h -18.2 C 16.697,-44.917 11.021,-49.426 0,-49.426 c -12.857,0 -20.538,8.851 -20.538,24.713 C -20.538,-8.85 -12.857,0 0,0"
             style="fill:#231f20;fill-opacity:1;fill-rule:nonzero;stroke:none"
             id="path110" /></g><g
           id="g112"
           transform="translate(562.1807,425.1055)"><path
             d="m 0,0 c 0,11.355 7.682,12.19 13.191,12.19 2.672,0 4.666,-0.219 7.181,-0.668 V 26.884 C 17.867,27.719 13.859,28.387 8.183,28.387 0,28.387 -18.2,24.713 -18.2,-0.334 v -11.354 h -9.233 V -27.883 H -18.2 V -89.499 H 0 v 61.616 h 15.456 v 16.195 H 0 Z"
             style="fill:#231f20;fill-opacity:1;fill-rule:nonzero;stroke:none"
             id="path114" /></g><g
           id="g116"
           transform="translate(668.3584,359.3457)"><path
             d="m 0,0 c 0,-23.704 24.906,-25.486 24.906,-25.486 0,0 12.791,-1.646 23.735,2.709 10.943,4.355 12.587,15.375 12.587,15.375 0,0 2.565,8.155 -1.964,17.082 -4.13,8.136 -17.655,11.03 -17.655,11.03 0,0 -7.461,2.047 -16.6,4.533 -7.563,2.058 -5.82,9.157 -5.82,9.157 0,0 0.533,8.628 13.365,8.074 C 44.68,41.949 44.18,31.927 44.18,31.927 V 31.854 H 60.594 C 59.99,54.318 38.202,55.728 38.202,55.728 c 0,0 -11.434,1.869 -22.378,-2.516 C 4.881,48.827 2.092,38.904 2.092,38.904 c 0,0 -2.741,-8.302 1.965,-17.2 4.4,-8.32 17.653,-11.107 17.653,-11.107 0,0 9.55,-2.5 16.601,-4.565 6.502,-1.903 5.819,-9.22 5.819,-9.22 0,0 -0.384,-8.327 -13.364,-8.129 C 17.712,-11.12 17.016,0 17.016,0 H 0.6 Z"
             style="fill:#231f20;fill-opacity:1;fill-rule:nonzero;stroke:none"
             id="path118" /></g><g
           id="g120"
           transform="translate(409.3818,379.1104)"><path
             d="M 0,0 H -13.654 L 0,41.256 13.654,0 Z M 9.653,66.38 H -9.653 L -48.898,-43.504 h 20.845 l 8.761,26.47 h 38.584 l 8.761,-26.47 h 20.845 z"
             style="fill:#231f20;fill-opacity:1;fill-rule:nonzero;stroke:none"
             id="path122" /></g><g
           id="g124"
           transform="translate(619.2036,349.1973)"><path
             d="m 0,0 c -13.944,0 -22.31,10.775 -22.31,25.314 0,14.54 8.366,25.315 22.31,25.315 15.255,0 22.637,-11.631 22.637,-25.315 C 22.637,11.631 15.255,0 0,0 M 22.852,64.22 V 55.7 c 0,0 -7.385,10.524 -24.379,10.524 -26.256,0 -38.739,-20.47 -38.739,-40.91 0,-22.876 13.191,-40.909 38.238,-40.909 9.581,0.349 20.204,3.675 24.88,11.524 v -9.52 h 18.2 V 64.22 Z"
             style="fill:#231f20;fill-opacity:1;fill-rule:nonzero;stroke:none"
             id="path126" /></g><g
           id="g128"
           transform="translate(546.5527,690.0625)"><path
             d="M 0,0 V -70.706 L 100.278,-106.828 0.035,-144.539 v 73.81 l -179.918,70.706 v -70.706 l 104.21,-36.123 -104.21,-37.723 v -71.762 L 0,-144.589 v -71.725 l 179.919,71.762 v 73.846 z"
             style="fill:#3f3f9f;fill-opacity:1;fill-rule:nonzero;stroke:none"
             id="path130" /></g></g></g></g></svg>
