<?xml version="1.0" encoding="UTF-8" standalone="no"?>
<!-- Created with Inkscape (http://www.inkscape.org/) -->

<svg
   version="1.1"
   id="svg2"
   xml:space="preserve"
   width="256.54666"
   height="105.86667"
   viewBox="0 0 256.54666 105.86667"
   xmlns="http://www.w3.org/2000/svg"
   xmlns:svg="http://www.w3.org/2000/svg"><defs
     id="defs6" /><g
     id="g8"
     transform="matrix(1.3333333,0,0,-1.3333333,0,105.86667)"><g
       id="g10"
       transform="scale(0.1)"><path
         d="M 13.2539,264.648 V 168.711 H 0 v 95.937 h 13.2539"
         style="fill:#7b7979;fill-opacity:1;fill-rule:nonzero;stroke:none"
         id="path12" /><path
         d="m 36.4258,168.711 v 95.937 H 50.8945 L 83.793,216.113 c 7.6172,-11.25 13.5547,-21.355 18.434,-31.172 l 0.308,0.137 c -1.222,12.813 -1.527,24.485 -1.527,39.426 v 40.144 H 113.5 v -95.937 h -13.406 l -32.5979,48.684 c -7.1641,10.671 -14.0156,21.628 -19.1914,32.019 l -0.457,-0.137 c 0.7539,-12.097 1.0664,-23.632 1.0664,-39.57 V 168.711 H 36.4258"
         style="fill:#7b7979;fill-opacity:1;fill-rule:nonzero;stroke:none"
         id="path14" /><path
         d="m 134.863,183.801 c 5.938,-3.418 14.617,-6.27 23.758,-6.27 13.559,0 21.481,6.688 21.481,16.375 0,8.965 -5.485,14.082 -19.344,19.074 -16.758,5.547 -27.113,13.661 -27.113,27.176 0,14.953 13.25,26.055 33.207,26.055 10.511,0 18.125,-2.285 22.695,-4.695 l -3.656,-10.102 c -3.352,1.703 -10.207,4.555 -19.504,4.555 -14.008,0 -19.34,-7.824 -19.34,-14.375 0,-8.977 6.242,-13.391 20.41,-18.508 17.367,-6.27 26.199,-14.094 26.199,-28.184 0,-14.793 -11.726,-27.617 -35.953,-27.617 -9.894,0 -20.711,2.707 -26.195,6.125 l 3.355,10.391"
         style="fill:#7b7979;fill-opacity:1;fill-rule:nonzero;stroke:none"
         id="path16" /><path
         d="m 231.305,254.121 h -31.223 v 10.527 h 76.012 v -10.527 h -31.383 v -85.41 h -13.406 v 85.41"
         style="fill:#7b7979;fill-opacity:1;fill-rule:nonzero;stroke:none"
         id="path18" /><path
         d="m 300.797,264.648 v -95.937 h -13.254 v 95.937 h 13.254"
         style="fill:#7b7979;fill-opacity:1;fill-rule:nonzero;stroke:none"
         id="path20" /><path
         d="m 343.461,254.121 h -31.227 v 10.527 h 76.012 v -10.527 h -31.375 v -85.41 h -13.41 v 85.41"
         style="fill:#7b7979;fill-opacity:1;fill-rule:nonzero;stroke:none"
         id="path22" /><path
         d="m 412.945,264.648 v -56.785 c 0,-21.496 10.207,-30.605 23.918,-30.605 15.231,0 24.985,9.383 24.985,30.605 v 56.785 h 13.402 v -55.937 c 0,-29.465 -16.602,-41.563 -38.84,-41.563 -21.023,0 -36.863,11.243 -36.863,40.997 v 56.503 h 13.398"
         style="fill:#7b7979;fill-opacity:1;fill-rule:nonzero;stroke:none"
         id="path24" /><path
         d="m 517.781,254.121 h -31.222 v 10.527 h 76.007 v -10.527 h -31.375 v -85.41 h -13.41 v 85.41"
         style="fill:#7b7979;fill-opacity:1;fill-rule:nonzero;stroke:none"
         id="path26" /><path
         d="m 619.574,254.121 h -31.222 v 10.527 h 76.011 v -10.527 h -31.379 v -85.41 h -13.41 v 85.41"
         style="fill:#7b7979;fill-opacity:1;fill-rule:nonzero;stroke:none"
         id="path28" /><path
         d="m 689.063,219.668 h 13.554 c 14.168,0 23.16,7.258 23.16,18.223 0,12.382 -9.601,17.793 -23.609,17.929 -6.402,0 -10.969,-0.578 -13.105,-1.132 z m -13.247,43.691 c 6.7,1.289 16.297,2.004 25.434,2.004 14.172,0 23.313,-2.422 29.707,-7.832 5.176,-4.269 8.074,-10.82 8.074,-18.222 0,-12.668 -8.535,-21.067 -19.347,-24.485 v -0.418 c 7.918,-2.57 12.64,-9.394 15.078,-19.367 3.351,-13.367 5.785,-22.629 7.926,-26.328 h -13.711 c -1.672,2.703 -3.961,10.969 -6.86,22.922 -3.047,13.23 -8.523,18.211 -20.562,18.64 h -12.492 v -41.562 h -13.247 v 94.648"
         style="fill:#7b7979;fill-opacity:1;fill-rule:nonzero;stroke:none"
         id="path30" /><path
         d="m 808.816,208.566 -10.05,27.606 c -2.286,6.269 -3.805,11.973 -5.328,17.519 h -0.309 c -1.524,-5.703 -3.195,-11.531 -5.18,-17.363 l -10.051,-27.762 z m -33.66,-9.679 -10.664,-30.176 h -13.707 l 34.879,95.937 h 15.996 l 35.039,-95.937 h -14.172 l -10.964,30.176 h -36.407"
         style="fill:#7b7979;fill-opacity:1;fill-rule:nonzero;stroke:none"
         id="path32" /><path
         d="m 851.813,168.711 v 95.937 h 14.464 l 32.907,-48.535 c 7.613,-11.25 13.554,-21.355 18.429,-31.172 l 0.313,0.137 c -1.227,12.813 -1.531,24.485 -1.531,39.426 v 40.144 h 12.496 v -95.937 h -13.407 l -32.597,48.684 c -7.16,10.671 -14.02,21.628 -19.192,32.019 l -0.457,-0.137 c 0.754,-12.097 1.063,-23.632 1.063,-39.57 v -40.996 h -12.488"
         style="fill:#7b7979;fill-opacity:1;fill-rule:nonzero;stroke:none"
         id="path34" /><path
         d="m 950.254,183.801 c 5.941,-3.418 14.617,-6.27 23.762,-6.27 13.55,0 21.48,6.688 21.48,16.375 0,8.965 -5.484,14.082 -19.344,19.074 -16.761,5.547 -27.113,13.661 -27.113,27.176 0,14.953 13.25,26.055 33.207,26.055 10.508,0 18.124,-2.285 22.694,-4.695 l -3.66,-10.102 c -3.342,1.703 -10.206,4.555 -19.495,4.555 -14.012,0 -19.347,-7.824 -19.347,-14.375 0,-8.977 6.246,-13.391 20.406,-18.508 17.366,-6.27 26.206,-14.094 26.206,-28.184 0,-14.793 -11.737,-27.617 -35.952,-27.617 -9.895,0 -20.711,2.707 -26.2,6.125 l 3.356,10.391"
         style="fill:#7b7979;fill-opacity:1;fill-rule:nonzero;stroke:none"
         id="path36" /><path
         d="m 1040.46,178.535 c 3.35,-0.566 8.22,-0.711 13.4,-0.711 28.34,0 43.72,14.793 43.72,40.703 0.15,22.633 -13.57,37 -41.59,37 -6.86,0 -12.03,-0.566 -15.53,-1.269 z m -13.26,84.824 c 8.07,1.145 17.67,2.004 28.18,2.004 19.04,0 32.6,-4.133 41.58,-11.965 9.15,-7.832 14.48,-18.925 14.48,-34.433 0,-15.664 -5.18,-28.477 -14.78,-37.293 -9.59,-8.977 -25.44,-13.809 -45.38,-13.809 -9.45,0 -17.37,0.418 -24.08,1.141 v 94.355"
         style="fill:#7b7979;fill-opacity:1;fill-rule:nonzero;stroke:none"
         id="path38" /><path
         d="m 1141.94,264.648 v -95.937 h -13.25 v 95.937 h 13.25"
         style="fill:#7b7979;fill-opacity:1;fill-rule:nonzero;stroke:none"
         id="path40" /><path
         d="m 1163.27,183.801 c 5.95,-3.418 14.63,-6.27 23.77,-6.27 13.56,0 21.49,6.688 21.49,16.375 0,8.965 -5.49,14.082 -19.36,19.074 -16.75,5.547 -27.11,13.661 -27.11,27.176 0,14.953 13.25,26.055 33.2,26.055 10.51,0 18.13,-2.285 22.7,-4.695 l -3.65,-10.102 c -3.35,1.703 -10.2,4.555 -19.5,4.555 -14.02,0 -19.35,-7.824 -19.35,-14.375 0,-8.977 6.25,-13.391 20.42,-18.508 17.36,-6.27 26.2,-14.094 26.2,-28.184 0,-14.793 -11.73,-27.617 -35.96,-27.617 -9.9,0 -20.71,2.707 -26.19,6.125 l 3.34,10.391"
         style="fill:#7b7979;fill-opacity:1;fill-rule:nonzero;stroke:none"
         id="path42" /><path
         d="m 1311.98,171.848 c -4.88,-2.278 -14.63,-4.563 -27.11,-4.563 -28.94,0 -50.73,17.09 -50.73,48.535 0,30.039 21.79,50.391 53.62,50.391 12.8,0 20.86,-2.559 24.38,-4.266 l -3.2,-10.109 c -5.03,2.285 -12.19,3.984 -20.73,3.984 -24.06,0 -40.06,-14.375 -40.06,-39.57 0,-23.477 14.48,-38.562 39.46,-38.562 8.07,0 16.3,1.558 21.63,3.984 l 2.74,-9.824"
         style="fill:#7b7979;fill-opacity:1;fill-rule:nonzero;stroke:none"
         id="path44" /><path
         d="m 1341.87,264.648 v -95.937 h -13.26 v 95.937 h 13.26"
         style="fill:#7b7979;fill-opacity:1;fill-rule:nonzero;stroke:none"
         id="path46" /><path
         d="m 1378.28,217.246 c 2.9,-0.703 6.55,-0.996 10.97,-0.996 15.99,0 25.74,7.258 25.74,20.496 0,12.668 -9.59,18.781 -24.22,18.781 -5.79,0 -10.19,-0.418 -12.49,-0.988 z m -13.25,46.262 c 6.41,0.996 14.78,1.855 25.44,1.855 13.09,0 22.7,-2.843 28.8,-7.98 5.62,-4.559 8.98,-11.524 8.98,-20.067 0,-8.683 -2.75,-15.519 -7.93,-20.5 -7,-6.972 -18.43,-10.527 -31.37,-10.527 -3.97,0 -7.61,0.137 -10.67,0.859 v -38.437 h -13.25 v 94.797"
         style="fill:#7b7979;fill-opacity:1;fill-rule:nonzero;stroke:none"
         id="path48" /><path
         d="m 1446.1,264.648 h 13.25 v -85.546 h 43.86 v -10.391 h -57.11 v 95.937"
         style="fill:#7b7979;fill-opacity:1;fill-rule:nonzero;stroke:none"
         id="path50" /><path
         d="m 1531.28,264.648 v -95.937 h -13.26 v 95.937 h 13.26"
         style="fill:#7b7979;fill-opacity:1;fill-rule:nonzero;stroke:none"
         id="path52" /><path
         d="m 1554.44,168.711 v 95.937 h 14.48 l 32.89,-48.535 c 7.62,-11.25 13.56,-21.355 18.43,-31.172 l 0.32,0.137 c -1.23,12.813 -1.53,24.485 -1.53,39.426 v 40.144 h 12.48 v -95.937 h -13.4 l -32.59,48.684 c -7.17,10.671 -14.03,21.628 -19.2,32.019 l -0.45,-0.137 c 0.75,-12.097 1.06,-23.632 1.06,-39.57 v -40.996 h -12.49"
         style="fill:#7b7979;fill-opacity:1;fill-rule:nonzero;stroke:none"
         id="path54" /><path
         d="m 1704.97,208.566 -10.06,27.606 c -2.27,6.269 -3.8,11.973 -5.33,17.519 h -0.29 c -1.54,-5.703 -3.21,-11.531 -5.19,-17.363 l -10.05,-27.762 z m -33.66,-9.679 -10.66,-30.176 h -13.71 l 34.88,95.937 h 15.99 l 35.03,-95.937 h -14.16 l -10.96,30.176 h -36.41"
         style="fill:#7b7979;fill-opacity:1;fill-rule:nonzero;stroke:none"
         id="path56" /><path
         d="m 1761.21,264.648 v -95.937 h -13.25 v 95.937 h 13.25"
         style="fill:#7b7979;fill-opacity:1;fill-rule:nonzero;stroke:none"
         id="path58" /><path
         d="m 1797.63,219.668 h 13.56 c 14.17,0 23.16,7.258 23.16,18.223 0,12.382 -9.59,17.793 -23.61,17.929 -6.39,0 -10.96,-0.578 -13.11,-1.132 z m -13.25,43.691 c 6.7,1.289 16.3,2.004 25.45,2.004 14.15,0 23.3,-2.422 29.69,-7.832 5.19,-4.269 8.09,-10.82 8.09,-18.222 0,-12.668 -8.54,-21.067 -19.35,-24.485 v -0.418 c 7.92,-2.57 12.64,-9.394 15.08,-19.367 3.35,-13.367 5.79,-22.629 7.92,-26.328 h -13.71 c -1.67,2.703 -3.97,10.969 -6.86,22.922 -3.04,13.23 -8.53,18.211 -20.56,18.64 h -12.5 v -41.562 h -13.25 v 94.648"
         style="fill:#7b7979;fill-opacity:1;fill-rule:nonzero;stroke:none"
         id="path60" /><path
         d="m 1919.53,213.691 h -39.91 v -34.589 h 44.47 v -10.391 h -57.72 v 95.937 h 55.44 v -10.39 h -42.19 v -30.32 h 39.91 v -10.247"
         style="fill:#7b7979;fill-opacity:1;fill-rule:nonzero;stroke:none"
         id="path62" /><path
         d="m 13.2539,23.9141 c 3.3477,-0.5743 8.2266,-0.711 13.4024,-0.711 28.332,0 43.7187,14.793 43.7187,40.7032 0.1523,22.6367 -13.5586,37.0117 -41.5859,37.0117 -6.8555,0 -12.0313,-0.566 -15.5352,-1.2774 z M 0,108.742 c 8.07031,1.141 17.6719,2 28.1836,2 19.0391,0 32.5937,-4.129 41.582,-11.9607 9.1407,-7.8243 14.4688,-18.9258 14.4688,-34.4454 0,-15.664 -5.1758,-28.4687 -14.7696,-37.2968 C 59.8633,18.0664 44.0234,13.2422 24.0742,13.2422 14.625,13.2422 6.70313,13.6602 0,14.375 v 94.367"
         style="fill:#7b7979;fill-opacity:1;fill-rule:nonzero;stroke:none"
         id="path64" /><path
         d="M 122.355,111.582 C 118.848,99.6406 112.301,84.4063 108.031,77.8516 l -8.5271,-0.9961 c 3.3551,8.4101 7.3121,23.2035 8.9921,33.4575 l 13.859,1.269"
         style="fill:#7b7979;fill-opacity:1;fill-rule:nonzero;stroke:none"
         id="path66" /><path
         d="M 153.746,110.02 V 14.082 h -13.254 v 95.938 h 13.254"
         style="fill:#7b7979;fill-opacity:1;fill-rule:nonzero;stroke:none"
         id="path68" /><path
         d="m 179.961,14.082 v 95.938 h 14.469 l 32.906,-48.5278 c 7.609,-11.2578 13.555,-21.3555 18.426,-31.1797 l 0.308,0.1484 c -1.222,12.8125 -1.523,24.4805 -1.523,39.4336 V 110.02 h 12.488 V 14.082 h -13.402 l -32.598,48.6836 c -7.156,10.6719 -14.019,21.6407 -19.195,32.0391 l -0.453,-0.1563 c 0.758,-12.0898 1.062,-23.6132 1.062,-39.5703 V 14.082 h -12.488"
         style="fill:#7b7979;fill-opacity:1;fill-rule:nonzero;stroke:none"
         id="path70" /><path
         d="m 283.27,110.02 h 55.293 V 99.6406 h -42.04 V 67.7539 h 38.844 V 57.5 H 296.523 V 14.082 H 283.27 v 95.938"
         style="fill:#7b7979;fill-opacity:1;fill-rule:nonzero;stroke:none"
         id="path72" /><path
         d="m 368.605,61.4922 c 0,-20.4961 11.879,-38.8555 32.747,-38.8555 21.019,0 32.902,18.0664 32.902,39.8438 0,19.082 -10.656,39.0035 -32.75,39.0035 -21.934,0 -32.899,-18.9254 -32.899,-39.9918 z m 79.665,1.5664 c 0,-33.0273 -21.477,-50.5391 -47.68,-50.5391 -27.113,0 -46.152,19.6485 -46.152,48.6797 0,30.461 20.257,50.3828 47.679,50.3828 28.024,0 46.153,-20.0586 46.153,-48.5234"
         style="fill:#7b7979;fill-opacity:1;fill-rule:nonzero;stroke:none"
         id="path74" /><path
         d="m 481.82,65.0508 h 13.563 c 14.164,0 23.152,7.2539 23.152,18.2109 0,12.3828 -9.594,17.7933 -23.613,17.9373 -6.399,0 -10.961,-0.574 -13.102,-1.14 z m -13.25,43.6912 c 6.703,1.278 16.301,2 25.438,2 14.172,0 23.312,-2.429 29.703,-7.832 5.184,-4.2772 8.074,-10.8202 8.074,-18.2225 0,-12.6641 -8.523,-21.0664 -19.34,-24.4844 v -0.4258 c 7.914,-2.5585 12.645,-9.3867 15.075,-19.3554 3.355,-13.3828 5.793,-22.6289 7.918,-26.3399 h -13.704 c -1.675,2.7149 -3.964,10.9766 -6.855,22.9297 -3.047,13.2227 -8.527,18.2149 -20.563,18.6328 H 481.82 V 14.082 h -13.25 v 94.66"
         style="fill:#7b7979;fill-opacity:1;fill-rule:nonzero;stroke:none"
         id="path76" /><path
         d="m 640.121,56.2109 c -0.762,13.3907 -1.676,29.4727 -1.527,41.4258 h -0.449 C 634.641,86.4063 630.371,74.4336 625.191,61.1992 L 607.066,14.6484 h -10.058 l -16.602,45.7032 c -4.879,13.5156 -8.984,25.8984 -11.883,37.2851 h -0.3 C 567.922,85.6836 567.152,69.6016 566.238,55.2266 L 563.5,14.082 h -12.645 l 7.157,95.938 h 16.914 l 17.515,-46.3989 c 4.27,-11.8125 7.774,-22.3398 10.364,-32.3125 h 0.453 c 2.586,9.6875 6.246,20.2266 10.812,32.3125 l 18.285,46.3989 h 16.903 l 6.402,-95.938 h -12.949 l -2.59,42.1289"
         style="fill:#7b7979;fill-opacity:1;fill-rule:nonzero;stroke:none"
         id="path78" /><path
         d="m 727.906,53.9453 -10.054,27.6172 c -2.286,6.25 -3.809,11.9531 -5.332,17.5117 h -0.309 c -1.52,-5.707 -3.191,-11.5429 -5.176,-17.375 L 696.98,53.9453 Z M 694.238,44.2695 683.574,14.082 h -13.707 l 34.891,95.938 h 15.988 l 35.035,-95.938 h -14.164 l -10.969,30.1875 h -36.41"
         style="fill:#7b7979;fill-opacity:1;fill-rule:nonzero;stroke:none"
         id="path80" /><path
         d="M 781.711,99.4922 H 750.484 V 110.02 h 76.008 V 99.4922 H 795.113 V 14.082 h -13.402 v 85.4102"
         style="fill:#7b7979;fill-opacity:1;fill-rule:nonzero;stroke:none"
         id="path82" /><path
         d="M 854.242,110.02 V 14.082 h -13.246 v 95.938 h 13.246"
         style="fill:#7b7979;fill-opacity:1;fill-rule:nonzero;stroke:none"
         id="path84" /><path
         d="m 888.535,61.4922 c 0,-20.4961 11.879,-38.8555 32.75,-38.8555 21.02,0 32.903,18.0664 32.903,39.8438 0,19.082 -10.665,39.0035 -32.75,39.0035 -21.942,0 -32.903,-18.9254 -32.903,-39.9918 z m 79.668,1.5664 c 0,-33.0273 -21.48,-50.5391 -47.68,-50.5391 -27.117,0 -46.152,19.6485 -46.152,48.6797 0,30.461 20.258,50.3828 47.68,50.3828 28.023,0 46.152,-20.0586 46.152,-48.5234"
         style="fill:#7b7979;fill-opacity:1;fill-rule:nonzero;stroke:none"
         id="path86" /><path
         d="m 988.496,14.082 v 95.938 h 14.474 l 32.9,-48.5278 c 7.62,-11.2578 13.55,-21.3555 18.44,-31.1797 l 0.3,0.1484 c -1.22,12.8125 -1.52,24.4805 -1.52,39.4336 V 110.02 h 12.49 V 14.082 h -13.4 l -32.61,48.6836 c -7.16,10.6719 -14.01,21.6407 -19.19,32.0391 l -0.446,-0.1563 c 0.746,-12.0898 1.056,-23.6132 1.056,-39.5703 V 14.082 h -12.494"
         style="fill:#7b7979;fill-opacity:1;fill-rule:nonzero;stroke:none"
         id="path88" /><path
         d="m 1200.89,62.4805 c 0,19.2187 -10.67,39.0035 -32.44,39.0035 -22.41,0 -33.36,-19.3668 -33.22,-40.1442 -0.14,-20.3437 11.89,-38.7031 32.6,-38.7031 21.17,0 33.06,17.9297 33.06,39.8438 z M 1211.86,0 c -13.86,3.41797 -27.42,7.26563 -39.31,11.0938 -2.13,0.7226 -4.26,1.4257 -6.24,1.4257 -24.38,0.8594 -45.25,17.6563 -45.25,48.5352 0,30.7539 20.12,50.5273 47.84,50.5273 27.87,0 46,-20.2031 46,-48.5234 0,-24.6289 -12.19,-40.4219 -29.25,-45.9805 v -0.5742 c 10.21,-2.4219 21.33,-4.6875 30.01,-6.1133 L 1211.86,0"
         style="fill:#7b7979;fill-opacity:1;fill-rule:nonzero;stroke:none"
         id="path90" /><path
         d="M 1248.45,110.02 V 53.2344 c 0,-21.4883 10.21,-30.5977 23.92,-30.5977 15.24,0 24.98,9.3867 24.98,30.5977 V 110.02 h 13.4 V 54.082 c 0,-29.4648 -16.6,-41.5625 -38.83,-41.5625 -21.03,0 -36.87,11.25 -36.87,40.9961 V 110.02 h 13.4"
         style="fill:#7b7979;fill-opacity:1;fill-rule:nonzero;stroke:none"
         id="path92" /><path
         d="m 1381.92,53.9453 -10.04,27.6172 c -2.29,6.25 -3.81,11.9531 -5.34,17.5117 h -0.3 c -1.52,-5.707 -3.2,-11.5429 -5.18,-17.375 L 1351.01,53.9453 Z M 1348.26,44.2695 1337.6,14.082 h -13.7 l 34.88,95.938 h 15.99 l 35.03,-95.938 h -14.16 l -10.96,30.1875 h -36.42"
         style="fill:#7b7979;fill-opacity:1;fill-rule:nonzero;stroke:none"
         id="path94" /><path
         d="m 1427.96,14.082 v 95.938 h 14.47 l 32.91,-48.5278 c 7.62,-11.2578 13.56,-21.3555 18.43,-31.1797 l 0.3,0.1484 c -1.21,12.8125 -1.52,24.4805 -1.52,39.4336 V 110.02 h 12.5 V 14.082 h -13.41 l -32.6,48.6836 c -7.16,10.6719 -14.01,21.6407 -19.2,32.0391 l -0.45,-0.1563 c 0.76,-12.0898 1.07,-23.6132 1.07,-39.5703 V 14.082 h -12.5"
         style="fill:#7b7979;fill-opacity:1;fill-rule:nonzero;stroke:none"
         id="path96" /><path
         d="m 1550.78,99.4922 h -31.23 V 110.02 h 76.01 V 99.4922 h -31.37 V 14.082 h -13.41 v 85.4102"
         style="fill:#7b7979;fill-opacity:1;fill-rule:nonzero;stroke:none"
         id="path98" /><path
         d="M 1623.31,110.02 V 14.082 h -13.25 v 95.938 h 13.25"
         style="fill:#7b7979;fill-opacity:1;fill-rule:nonzero;stroke:none"
         id="path100" /><path
         d="m 1723.25,62.4805 c 0,19.2187 -10.66,39.0035 -32.44,39.0035 -22.39,0 -33.36,-19.3668 -33.21,-40.1442 -0.15,-20.3437 11.88,-38.7031 32.61,-38.7031 21.17,0 33.04,17.9297 33.04,39.8438 z M 1734.22,0 c -13.86,3.41797 -27.41,7.26563 -39.31,11.0938 -2.13,0.7226 -4.26,1.4257 -6.23,1.4257 -24.37,0.8594 -45.23,17.6563 -45.23,48.5352 0,30.7539 20.09,50.5273 47.81,50.5273 27.88,0 46.02,-20.2031 46.02,-48.5234 0,-24.6289 -12.2,-40.4219 -29.26,-45.9805 v -0.5742 c 10.21,-2.4219 21.33,-4.6875 30.01,-6.1133 L 1734.22,0"
         style="fill:#7b7979;fill-opacity:1;fill-rule:nonzero;stroke:none"
         id="path102" /><path
         d="M 1770.81,110.02 V 53.2344 c 0,-21.4883 10.22,-30.5977 23.92,-30.5977 15.24,0 24.99,9.3867 24.99,30.5977 V 110.02 h 13.41 V 54.082 c 0,-29.4648 -16.62,-41.5625 -38.85,-41.5625 -21.03,0 -36.87,11.25 -36.87,40.9961 V 110.02 h 13.4"
         style="fill:#7b7979;fill-opacity:1;fill-rule:nonzero;stroke:none"
         id="path104" /><path
         d="m 1912.37,59.0742 h -39.92 V 24.4844 h 44.47 V 14.082 h -57.71 v 95.938 h 55.44 V 99.6406 h -42.2 V 69.3164 h 39.92 V 59.0742"
         style="fill:#7b7979;fill-opacity:1;fill-rule:nonzero;stroke:none"
         id="path106" /><path
         d="m 162.379,677.344 h 43.234 v -233.43 h -43.234 v 233.43"
         style="fill:#cf2d3a;fill-opacity:1;fill-rule:nonzero;stroke:none"
         id="path108" /><path
         d="m 247.988,587.813 -63.57,63.585 -63.598,-63.585 v 53.925 l 63.598,63.614 63.57,-63.614 v -53.925"
         style="fill:#cf2d3a;fill-opacity:1;fill-rule:nonzero;stroke:none"
         id="path110" /><path
         d="m 1258.34,468.906 h -43.24 v 230.547 h 43.24 V 468.906"
         style="fill:#f7a92c;fill-opacity:1;fill-rule:nonzero;stroke:none"
         id="path112" /><path
         d="m 1172.72,558.449 63.58,-63.594 63.61,63.594 v -53.937 l -63.61,-63.594 -63.58,63.594 v 53.937"
         style="fill:#f7a92c;fill-opacity:1;fill-rule:nonzero;stroke:none"
         id="path114" /><path
         d="m 1650.36,350.535 102.77,220.09 -102.77,220.078 h 42.34 l 102.8,-220.078 -102.8,-220.09 h -42.34"
         style="fill:#3c66a0;fill-opacity:1;fill-rule:nonzero;stroke:none"
         id="path116" /><path
         d="M 41.8594,348.289 H 1.17969 V 794.016 H 41.8594 V 348.289"
         style="fill:#3c66a0;fill-opacity:1;fill-rule:nonzero;stroke:none"
         id="path118" /><path
         d="m 573.965,470.957 c 0,-19.441 -7.633,-29.172 -22.91,-29.172 -7.028,0 -14.977,4.113 -23.875,12.375 L 332.289,639.043 V 460.051 c 0,-8.242 -2.992,-13.438 -9.027,-15.528 -1.739,-0.293 -4.125,-0.531 -7.145,-0.753 -3.008,-0.204 -6.64,-0.313 -10.906,-0.313 -9.762,0 -14.641,5.527 -14.641,16.594 v 213.172 c 0,18.476 7.133,27.687 21.434,27.687 9.031,0 18.309,-4.453 27.836,-13.41 L 532.25,504.727 v 177.949 c 0,8.105 2.992,13.222 8.988,15.312 1.735,0.285 4.121,0.52 7.09,0.742 2.996,0.196 6.637,0.293 10.856,0.293 9.855,0 14.781,-5.449 14.781,-16.347 V 470.957"
         style="fill:#777c7f;fill-opacity:1;fill-rule:nonzero;stroke:none"
         id="path120" /><path
         d="m 844.844,677.637 c 0,-11.055 -4.899,-16.582 -14.656,-16.582 H 737.523 V 460.051 c 0,-11.067 -4.851,-16.594 -14.531,-16.594 -9.824,0 -15.926,0.422 -18.308,1.27 -5.914,1.964 -8.871,7.082 -8.871,15.324 v 201.004 h -91.918 c -9.891,0 -14.829,5.527 -14.829,16.582 0,7.558 0.762,12.726 2.247,15.527 2.011,3.906 6.203,5.859 12.582,5.859 h 226.293 c 9.757,0 14.656,-7.117 14.656,-21.386"
         style="fill:#777c7f;fill-opacity:1;fill-rule:nonzero;stroke:none"
         id="path122" /><path
         d="m 1103.39,603.156 v 32.293 c 0,17.071 -19.54,25.606 -58.61,25.606 H 904 V 579.23 h 148.28 c 34.08,0 51.11,7.958 51.11,23.926 m 41.72,0.418 c 0,-23.113 -10.9,-39.929 -32.68,-50.578 -17.3,-7.84 -37.22,-11.746 -59.76,-11.746 h -68.803 l 139.453,-66.102 c 7.39,-3.644 11.08,-9.015 11.08,-16.156 0,-10.484 -8.21,-15.738 -24.61,-15.738 -6.51,0 -11.66,0.555 -15.41,1.687 L 904,535.813 v -75.762 c 0,-11.067 -4.902,-16.594 -14.664,-16.594 -10.395,0 -16.426,0.496 -18.031,1.484 -6.028,2.082 -9.043,7.137 -9.043,15.11 v 222.625 c 0,10.898 4.906,16.347 14.668,16.347 h 168.01 c 26.07,0 47.5,-3.757 64.29,-11.308 23.92,-10.781 35.88,-28.555 35.88,-53.301 v -30.84"
         style="fill:#777c7f;fill-opacity:1;fill-rule:nonzero;stroke:none"
         id="path124" /><path
         d="m 1572.67,510.227 v 122.468 c 0,18.907 -22.5,28.36 -67.53,28.36 h -65.27 c -19.7,0 -33.18,-0.828 -40.45,-2.52 -17.82,-3.918 -26.72,-12.527 -26.72,-25.84 V 510.656 c 0,-13.047 8.34,-21.515 25.04,-25.429 6,-1.829 18.86,-2.727 38.54,-2.727 h 72.24 c 42.78,0 64.15,9.238 64.15,27.727 m 41.72,1.386 c 0,-27.433 -12.48,-46.32 -37.41,-56.664 4.38,-2.633 7.74,-4.734 10.15,-6.265 2.36,-1.516 3.88,-2.493 4.51,-2.911 6.25,-4.914 9.37,-9.582 9.37,-14.062 0,-6.137 -2.36,-11.106 -7.12,-14.902 -4.4,-3.352 -9.41,-5.032 -15.05,-5.032 -3.87,0 -7.81,1.192 -11.85,3.586 l -46.8,28.731 h -80.32 c -72.59,0 -108.9,22.519 -108.9,67.578 v 120.43 c 0,29.082 12.66,48.543 37.97,58.328 16.17,5.734 39.72,8.593 70.66,8.593 h 66.91 c 31.83,0 55.38,-2.644 70.67,-7.957 24.81,-9.523 37.21,-29.113 37.21,-58.781 V 511.613"
         style="fill:#777c7f;fill-opacity:1;fill-rule:nonzero;stroke:none"
         id="path126" /><path
         d="m 1489.53,487.473 59.49,-36.34"
         style="fill:#777c7f;fill-opacity:1;fill-rule:nonzero;stroke:none"
         id="path128" /><path
         d="m 1489.53,487.473 59.49,-36.34"
         style="fill:none;stroke:#777c7f;stroke-width:45;stroke-linecap:round;stroke-linejoin:miter;stroke-miterlimit:10;stroke-dasharray:none;stroke-opacity:1"
         id="path130" /></g></g></svg>
