<?xml version="1.0" encoding="UTF-8" standalone="no"?>
<svg xmlns:dc="http://purl.org/dc/elements/1.1/" xmlns:cc="http://creativecommons.org/ns#" xmlns:rdf="http://www.w3.org/1999/02/22-rdf-syntax-ns#" xmlns:svg="http://www.w3.org/2000/svg" xmlns="http://www.w3.org/2000/svg" viewBox="0 0 498.66666 213.33333" height="206.835075765" width="483.476990691" xml:space="preserve" id="svg2" version="1.1"><metadata id="metadata8"><rdf:RDF><cc:Work rdf:about=""><dc:format>image/svg+xml</dc:format><dc:type rdf:resource="http://purl.org/dc/dcmitype/StillImage"/></cc:Work></rdf:RDF></metadata><defs id="defs6"><clipPath id="clipPath18" clipPathUnits="userSpaceOnUse"><path id="path16" d="M 0,160 H 374 V 0 H 0 Z"/></clipPath></defs><g transform="matrix(1.3333333,0,0,-1.3333333,0,213.33333)" id="g10"><g id="g12"><g clip-path="url(#clipPath18)" id="g14"><g transform="translate(154.2446,79.9023)" id="g20"><path id="path22" style="fill:#ffffff;fill-opacity:1;fill-rule:nonzero;stroke:none" d="m 0,0 c 0,-35.827 -29.047,-64.88 -64.876,-64.88 -35.827,0 -64.877,29.053 -64.877,64.88 0,35.829 29.05,64.876 64.877,64.876 C -29.047,64.876 0,35.829 0,0"/></g><g transform="translate(89.5078,145.5391)" id="g24"><path id="path26" style="fill:#ed3729;fill-opacity:1;fill-rule:nonzero;stroke:none" d="m 0,0 c -36.195,0 -65.539,-29.344 -65.539,-65.539 0,-36.198 29.344,-65.539 65.539,-65.539 36.199,0 65.542,29.341 65.542,65.539 C 65.542,-29.344 36.199,0 0,0 M 32.328,-106.883 H 18.542 l -3.814,26.962 c -0.017,0.129 -0.128,0.227 -0.257,0.227 -0.132,0 -0.241,-0.098 -0.257,-0.227 l -3.821,-26.962 H 5.106 l -4.852,44.509 c -0.013,0.129 -0.126,0.225 -0.254,0.225 -0.132,0 -0.24,-0.096 -0.257,-0.225 l -4.852,-44.509 h -5.254 l -3.821,26.979 c -0.013,0.131 -0.125,0.23 -0.257,0.23 -0.132,0 -0.241,-0.099 -0.254,-0.23 l -3.821,-26.979 h -13.809 l 5.505,10.765 -25.381,20.404 4.971,4.262 -4.329,17.192 15.021,-2.085 4.322,8.126 17.442,-13.298 -6.809,30.368 10.947,-4.776 10.636,18.532 10.637,-18.532 10.946,4.776 -6.812,-30.368 17.445,13.298 4.322,-8.126 15.021,2.085 -4.325,-17.192 4.967,-4.262 -25.381,-20.404 z"/></g><g transform="translate(181.4756,113.9966)" id="g28"><path id="path30" style="fill:#231f20;fill-opacity:1;fill-rule:nonzero;stroke:none" d="m 0,0 h 14.395 l 2.517,-18.345 h 0.082 L 20.901,0 h 9.734 l -6.44,-30.306 H 9.796 l -2.493,18.47 H 7.22 l -3.929,-18.47 h -9.738 z"/></g><g transform="translate(234.8984,105.3911)" id="g32"><path id="path34" style="fill:#231f20;fill-opacity:1;fill-rule:nonzero;stroke:none" d="m 0,0 c 0.356,1.887 -0.557,2.52 -2.111,2.52 -1.934,0 -2.952,-0.84 -3.146,-1.766 -0.234,-1.09 0.385,-1.555 1.561,-1.93 2.168,-0.669 6.229,-1.509 9.012,-2.813 3.482,-1.594 4.582,-4.319 3.809,-7.972 -1.585,-7.428 -8.288,-10.535 -16.85,-10.535 -7.302,0 -13.535,2.267 -11.858,10.156 H -8.08 c -0.182,-0.84 -0.191,-1.677 0.138,-2.312 0.336,-0.583 1.005,-0.962 2.141,-0.962 1.766,0 3.139,1.133 3.423,2.48 0.24,1.13 -0.511,1.72 -1.575,2.052 l -7.985,2.52 c -4.364,1.384 -5.402,4.197 -4.575,8.097 1.341,6.298 7.178,9.866 16.032,9.866 7.557,0 12.722,-2.349 11.226,-9.401 z"/></g><g transform="translate(255.9946,113.9966)" id="g36"><path id="path38" style="fill:#231f20;fill-opacity:1;fill-rule:nonzero;stroke:none" d="M 0,0 H 23.042 L 21.365,-7.893 H 9.82 l -0.686,-3.231 h 10.657 l -1.677,-7.89 H 7.458 l -0.725,-3.403 h 11.918 l -1.677,-7.889 h -23.42 z"/></g><g transform="translate(287.5977,113.9966)" id="g40"><path id="path42" style="fill:#231f20;fill-opacity:1;fill-rule:nonzero;stroke:none" d="m 0,0 h 17.923 c 6.502,0 9.902,-1.974 8.69,-7.682 -0.745,-3.482 -2.771,-6.131 -7.54,-7.221 l -0.014,-0.082 c 2.882,-0.25 4.2,-1.551 4.299,-3.861 0.119,-2.605 -0.879,-6.884 -0.464,-11.46 H 11.14 c -0.23,2.27 0.201,6.088 0.336,8.69 0.073,1.512 -0.563,2.095 -2.493,2.095 H 7.603 L 5.307,-30.306 H -6.447 Z m 8.795,-12.636 c 2.309,0 4.157,0.8 4.638,3.067 0.474,2.22 -0.981,2.681 -3.327,2.681 H 9.009 l -1.216,-5.748 z"/></g><g transform="translate(348.0063,94.8999)" id="g44"><path id="path46" style="fill:#231f20;fill-opacity:1;fill-rule:nonzero;stroke:none" d="m 0,0 c -1.775,-8.354 -9.227,-12.004 -16.74,-12.004 -10.617,0 -14.152,6.463 -12.106,16.075 1.713,9.441 8.693,15.822 18.934,15.822 7.636,0 13.443,-3.107 11.589,-12.004 H -9.319 c 0.567,3.442 -0.553,4.114 -2.019,4.114 -3.106,0 -4.081,-3.188 -5.113,-8.06 -0.981,-4.615 -1.462,-8.057 1.558,-8.057 1.552,0 2.797,0.925 3.644,4.114 z"/></g><g transform="translate(201.1333,52.0908)" id="g48"><path id="path50" style="fill:#231f20;fill-opacity:1;fill-rule:nonzero;stroke:none" d="m 0,0 c -1.775,-8.354 -9.227,-12.003 -16.734,-12.003 -10.617,0 -14.154,6.459 -12.112,16.074 1.716,9.438 8.696,15.822 18.934,15.822 7.642,0 13.443,-3.106 11.595,-12.004 H -9.315 c 0.563,3.443 -0.551,4.115 -2.02,4.115 -3.109,0 -4.078,-3.189 -5.112,-8.061 -0.985,-4.615 -1.463,-8.057 1.558,-8.057 1.555,0 2.8,0.926 3.643,4.114 z"/></g><g transform="translate(212.5688,71.1851)" id="g52"><path id="path54" style="fill:#231f20;fill-opacity:1;fill-rule:nonzero;stroke:none" d="m 0,0 h 17.923 c 6.506,0 9.909,-1.97 8.69,-7.679 -0.745,-3.485 -2.771,-6.127 -7.534,-7.22 l -0.019,-0.083 c 2.882,-0.253 4.203,-1.551 4.295,-3.86 0.119,-2.606 -0.876,-6.885 -0.464,-11.46 h -11.75 c -0.231,2.266 0.2,6.084 0.342,8.689 0.066,1.506 -0.57,2.102 -2.494,2.102 H 7.603 L 5.31,-30.302 H -6.44 Z m 10.073,-12.633 c 2.313,0 4.161,0.8 4.638,3.067 0.471,2.223 -0.978,2.681 -3.327,2.681 h -1.093 l -1.222,-5.748 z"/></g><g transform="translate(261.9761,62.582)" id="g56"><path id="path58" style="fill:#231f20;fill-opacity:1;fill-rule:nonzero;stroke:none" d="m 0,0 c 0.355,1.888 -0.553,2.52 -2.105,2.52 -1.937,0 -2.952,-0.843 -3.149,-1.766 -0.231,-1.09 0.389,-1.555 1.558,-1.93 2.167,-0.672 6.229,-1.509 9.016,-2.813 3.485,-1.594 4.582,-4.325 3.805,-7.972 -1.582,-7.428 -8.285,-10.534 -16.846,-10.534 -7.3,0 -13.535,2.266 -11.859,10.155 h 11.5 c -0.178,-0.84 -0.188,-1.676 0.138,-2.306 0.339,-0.589 1.011,-0.971 2.141,-0.971 1.766,0 3.143,1.136 3.426,2.477 0.244,1.136 -0.514,1.726 -1.578,2.058 l -7.985,2.52 c -4.358,1.384 -5.402,4.197 -4.572,8.104 1.338,6.295 7.175,9.859 16.035,9.859 7.551,0 12.716,-2.352 11.22,-9.401 z"/></g><g transform="translate(282.6431,71.1851)" id="g60"><path id="path62" style="fill:#231f20;fill-opacity:1;fill-rule:nonzero;stroke:none" d="m 0,0 h 14.398 l 2.517,-18.342 h 0.089 L 20.901,0 h 9.737 L 24.192,-30.302 H 9.8 L 7.306,-11.833 H 7.221 L 3.294,-30.302 h -9.74 z"/></g><g transform="translate(333.2632,57.9634)" id="g64"><path id="path66" style="fill:#231f20;fill-opacity:1;fill-rule:nonzero;stroke:none" d="M 0,0 H 15.61 L 12.234,-15.864 C 7.276,-17.08 1.65,-17.877 -3.304,-17.877 c -10.907,0 -14.82,6.674 -12.847,15.946 1.97,9.28 8.719,15.951 19.968,15.951 9.316,0 13.539,-3.064 12.156,-10.159 H 4.723 C 4.888,4.829 4.638,5.461 4.216,5.837 3.791,6.212 3.116,6.384 2.365,6.384 0.556,6.384 -0.814,5.461 -1.661,4.243 -2.507,3.024 -3.308,0.042 -3.854,-2.52 -4.48,-5.455 -4.655,-7.468 -4.315,-8.433 c 0.444,-1.258 1.502,-1.805 3.056,-1.805 1.134,0 2.26,0.171 3.324,0.629 l 0.777,3.653 h -4.111 z"/></g></g></g></g></svg>