<?xml version="1.0" encoding="UTF-8" standalone="no"?>
<!-- Created with Inkscape (http://www.inkscape.org/) -->
<svg xmlns:dc="http://purl.org/dc/elements/1.1/" xmlns:cc="http://creativecommons.org/ns#" xmlns:rdf="http://www.w3.org/1999/02/22-rdf-syntax-ns#" xmlns:svg="http://www.w3.org/2000/svg" xmlns="http://www.w3.org/2000/svg" xmlns:sodipodi="http://sodipodi.sourceforge.net/DTD/sodipodi-0.dtd" xmlns:inkscape="http://www.inkscape.org/namespaces/inkscape" width="100" height="101.99136" id="svg3058" sodipodi:version="0.32" inkscape:version="0.47 r22583" version="1.0" sodipodi:docname="École Polytechnique de Montréal Logo.svg" inkscape:output_extension="org.inkscape.output.svg.inkscape">
  <defs id="defs3060">
    <clipPath clipPathUnits="userSpaceOnUse" id="clipPath2536">
      <path d="M 0,792 612,792 612,0 0,0 0,792 z" id="path2538"/>
    </clipPath>
    <inkscape:perspective sodipodi:type="inkscape:persp3d" inkscape:vp_x="0 : 526.18109 : 1" inkscape:vp_y="0 : 1000 : 0" inkscape:vp_z="744.09448 : 526.18109 : 1" inkscape:persp3d-origin="372.04724 : 350.78739 : 1" id="perspective3066"/>
  </defs>
  <sodipodi:namedview id="base" pagecolor="#ffffff" bordercolor="#666666" borderopacity="1.0" inkscape:pageopacity="0.0" inkscape:pageshadow="2" inkscape:zoom="1.4" inkscape:cx="322.04401" inkscape:cy="154.27879" inkscape:document-units="px" inkscape:current-layer="layer1" showgrid="false" inkscape:window-width="1280" inkscape:window-height="778" inkscape:window-x="-4" inkscape:window-y="-4" inkscape:window-maximized="0"/>
  <metadata id="metadata3063">
    <rdf:RDF>
      <cc:Work rdf:about="">
        <dc:format>image/svg+xml</dc:format>
        <dc:type rdf:resource="http://purl.org/dc/dcmitype/StillImage"/>
      </cc:Work>
    </rdf:RDF>
  </metadata>
  <g inkscape:label="Calque 1" inkscape:groupmode="layer" id="layer1" transform="translate(-119.41308,-492.46381)">
    <g transform="matrix(3.0402529,0,0,-3.0402529,57.388879,777.28686)" id="g2532">
      <g id="g2534" clip-path="url(#clipPath2536)">
        <path d="m 37.471,66.322 c 0.198,0 0.358,0.16 0.358,0.358 l 0,0.927 0.18,0 0,-0.616 1.413,0.755 0.088,-0.162 -0.049,-0.023 -1.451,-0.774 -10e-4,-0.001 0,-0.104 0.002,0 1.479,0.826 0.044,0.029 0.135,-0.133 -1.716,-0.961 c -0.087,-0.177 -0.27,-0.304 -0.482,-0.304 l 0,0.183 z" style="fill:#231f20;fill-opacity:1;fill-rule:nonzero;stroke:none" id="path2540"/>
        <path d="m 36.223,66.139 c -0.213,0 -0.395,0.127 -0.483,0.304 l -1.716,0.961 0.135,0.133 0.045,-0.029 1.478,-0.826 0.002,0 0,0.104 -10e-4,0.001 -1.451,0.774 -0.048,0.023 0.086,0.162 1.414,-0.755 0,0.616 0.179,0 0,-0.927 c 0,-0.198 0.162,-0.358 0.36,-0.358 l 0,-0.183 z" style="fill:#231f20;fill-opacity:1;fill-rule:nonzero;stroke:none" id="path2542"/>
        <path d="m 37.189,74.531 0.002,0 0.005,0 0.289,0.03 0,-1.559 c 0,-0.164 0.091,-0.209 0.247,-0.239 l 2.024,-0.336 c 0.479,-0.098 0.523,-0.314 0.523,-0.509 0,-0.045 -0.029,-0.074 -0.105,-0.074 l -6.423,0 c -0.076,0 -0.105,0.029 -0.105,0.074 0,0.195 0.044,0.411 0.523,0.509 l 2.024,0.336 c 0.157,0.03 0.247,0.075 0.247,0.239 l 0,0.475 0.358,-0.014 c 0.036,-0.002 0.073,0.014 0.096,0.043 0.155,0.185 0.227,0.342 0.223,0.481 l 0.072,0.544 z" style="fill:#231f20;fill-opacity:1;fill-rule:nonzero;stroke:none" id="path2544"/>
        <path d="m 39.939,92.109 -6.424,0 c -0.075,0 -0.104,-0.031 -0.104,-0.075 0,-0.194 0.044,-0.411 0.523,-0.509 l 2.024,-0.336 c 0.157,-0.029 0.247,-0.074 0.247,-0.238 l 0,-0.433 0.342,0.025 c 0.037,0.002 0.073,-0.013 0.099,-0.041 0.16,-0.18 0.237,-0.335 0.236,-0.474 l 0.093,-0.553 0.003,0 0.272,-0.002 0,1.478 c 0,0.164 0.09,0.209 0.247,0.238 l 2.024,0.336 c 0.478,0.098 0.523,0.315 0.523,0.509 0,0.044 -0.03,0.075 -0.105,0.075" style="fill:#231f20;fill-opacity:1;fill-rule:nonzero;stroke:none" id="path2546"/>
        <path d="m 43.566,82.004 c 0,-3.711 -3.008,-6.72 -6.72,-6.72 -3.71,0 -6.718,3.009 -6.718,6.72 0,3.71 3.008,6.719 6.718,6.719 3.712,0 6.72,-3.009 6.72,-6.719 l 0.642,-0.061 -0.016,0.328 c -0.003,0.059 0.032,0.106 0.065,0.119 l 0.583,0.13 c 0.153,0 0.321,0.154 0.397,0.23 l -0.072,0.574 c -0.092,0.054 -0.293,0.162 -0.441,0.125 l -0.597,-0.017 c -0.039,-0.004 -0.063,0.033 -0.078,0.095 l -0.086,0.317 c -0.015,0.057 0.008,0.11 0.037,0.13 l 0.543,0.253 c 0.149,0.031 0.279,0.218 0.338,0.309 l -0.193,0.544 c -0.103,0.035 -0.322,0.098 -0.458,0.028 l -0.58,-0.145 c -0.037,-0.012 -0.068,0.018 -0.096,0.076 l -0.153,0.291 c -0.027,0.053 -0.015,0.111 0.009,0.137 l 0.476,0.361 c 0.138,0.065 0.225,0.276 0.263,0.375 l -0.307,0.49 c -0.106,0.012 -0.334,0.027 -0.452,-0.07 l -0.536,-0.266 c -0.033,-0.019 -0.07,0.003 -0.109,0.053 l -0.212,0.252 c -0.038,0.045 -0.039,0.104 -0.02,0.134 l 0.386,0.457 c 0.122,0.091 0.161,0.315 0.176,0.423 L 42.67,88.09 C 42.564,88.076 42.338,88.041 42.244,87.922 L 41.779,87.547 C 41.75,87.521 41.708,87.535 41.66,87.576 l -0.261,0.199 c -0.047,0.037 -0.061,0.094 -0.048,0.127 l 0.279,0.529 c 0.098,0.116 0.089,0.344 0.081,0.451 l -0.484,0.317 C 41.125,89.164 40.913,89.082 40.846,88.943 L 40.472,88.478 C 40.45,88.445 40.407,88.451 40.35,88.48 l -0.298,0.139 c -0.054,0.026 -0.078,0.078 -0.075,0.113 l 0.16,0.578 c 0.071,0.133 0.013,0.354 -0.018,0.458 l -0.541,0.205 C 39.486,89.916 39.295,89.789 39.261,89.642 L 38.996,89.105 C 38.98,89.07 38.938,89.065 38.875,89.082 l -0.319,0.072 c -0.059,0.014 -0.095,0.059 -0.098,0.095 l 0.031,0.597 c 0.041,0.146 -0.063,0.349 -0.115,0.443 l -0.573,0.084 C 37.724,90.299 37.565,90.135 37.562,89.982 L 37.418,89.401 C 37.413,89.363 37.371,89.35 37.307,89.353 l -0.329,0.001 c -0.061,0 -0.104,0.037 -0.117,0.072 l -0.097,0.589 c 0.008,0.152 -0.137,0.327 -0.208,0.409 l -0.577,-0.041 c -0.06,-0.09 -0.179,-0.285 -0.15,-0.434 l -0.014,-0.597 c 0.001,-0.039 -0.036,-0.061 -0.1,-0.073 l -0.32,-0.068 c -0.059,-0.014 -0.11,0.014 -0.128,0.044 l -0.224,0.556 c -0.023,0.149 -0.204,0.29 -0.291,0.353 L 34.198,90 c -0.039,-0.1 -0.114,-0.315 -0.053,-0.455 l 0.115,-0.588 c 0.009,-0.037 -0.023,-0.066 -0.082,-0.091 l -0.299,-0.137 c -0.054,-0.024 -0.11,-0.008 -0.134,0.017 l -0.337,0.494 c -0.056,0.142 -0.261,0.24 -0.36,0.283 l -0.507,-0.279 c -0.017,-0.107 -0.043,-0.334 0.047,-0.455 l 0.237,-0.551 c 0.017,-0.033 -0.008,-0.068 -0.06,-0.107 l -0.262,-0.195 c -0.048,-0.038 -0.105,-0.035 -0.135,-0.014 l -0.435,0.41 c -0.085,0.127 -0.307,0.179 -0.412,0.199 L 31.085,88.15 c 0.007,-0.109 0.029,-0.336 0.144,-0.436 l 0.351,-0.485 c 0.024,-0.03 0.007,-0.07 -0.037,-0.118 L 31.33,86.863 C 31.291,86.816 31.233,86.807 31.2,86.82 l -0.512,0.307 c -0.11,0.105 -0.338,0.109 -0.446,0.105 l -0.343,-0.464 c 0.03,-0.104 0.101,-0.321 0.234,-0.395 l 0.445,-0.398 c 0.031,-0.024 0.025,-0.068 -0.009,-0.123 L 30.415,85.563 C 30.386,85.51 30.332,85.489 30.297,85.495 l -0.567,0.189 c -0.13,0.08 -0.353,0.033 -0.458,0.007 l -0.234,-0.528 c 0.051,-0.095 0.167,-0.292 0.313,-0.335 l 0.521,-0.293 c 0.034,-0.017 0.037,-0.06 0.017,-0.122 L 29.8,84.098 C 29.784,84.04 29.736,84.006 29.7,84.006 l -0.594,0.062 c -0.145,0.05 -0.353,-0.044 -0.449,-0.09 L 28.541,83.41 c 0.071,-0.081 0.227,-0.248 0.377,-0.26 l 0.573,-0.173 c 0.038,-0.01 0.049,-0.051 0.043,-0.116 l -0.02,-0.328 c -0.003,-0.058 -0.043,-0.101 -0.077,-0.111 l -0.594,-0.066 c -0.152,0.018 -0.335,-0.118 -0.42,-0.185 l 0.011,-0.579 c 0.086,-0.064 0.274,-0.194 0.424,-0.172 l 0.596,-0.047 c 0.039,-0.002 0.059,-0.039 0.067,-0.103 l 0.052,-0.325 c 0.009,-0.058 -0.021,-0.108 -0.052,-0.125 l -0.566,-0.191 c -0.153,-0.018 -0.302,-0.19 -0.37,-0.273 l 0.134,-0.563 c 0.098,-0.043 0.308,-0.131 0.452,-0.076 l 0.592,0.081 c 0.038,0.007 0.066,-0.027 0.088,-0.086 l 0.119,-0.306 c 0.022,-0.054 0.004,-0.11 -0.024,-0.133 l -0.511,-0.31 C 29.29,78.916 29.181,78.715 29.133,78.619 l 0.251,-0.521 c 0.105,-0.022 0.33,-0.061 0.458,0.022 l 0.561,0.207 c 0.035,0.015 0.07,-0.011 0.103,-0.065 l 0.183,-0.274 c 0.033,-0.049 0.028,-0.107 0.005,-0.134 l -0.432,-0.413 c -0.131,-0.078 -0.195,-0.296 -0.221,-0.402 l 0.357,-0.453 c 0.108,0 0.336,0.011 0.443,0.119 l 0.503,0.323 c 0.031,0.023 0.071,0.004 0.115,-0.042 l 0.237,-0.226 c 0.043,-0.041 0.051,-0.1 0.035,-0.131 l -0.335,-0.496 c -0.11,-0.104 -0.126,-0.332 -0.129,-0.44 l 0.447,-0.367 c 0.105,0.024 0.325,0.082 0.406,0.212 l 0.422,0.423 c 0.026,0.029 0.069,0.019 0.122,-0.016 l 0.28,-0.17 c 0.052,-0.031 0.07,-0.086 0.062,-0.121 l -0.22,-0.555 C 32.7,74.973 32.734,74.746 32.754,74.641 l 0.515,-0.262 c 0.098,0.047 0.3,0.15 0.352,0.294 l 0.321,0.505 c 0.018,0.033 0.062,0.033 0.123,0.01 l 0.31,-0.106 c 0.056,-0.019 0.087,-0.069 0.086,-0.103 l -0.096,-0.592 c -0.056,-0.141 0.026,-0.354 0.068,-0.452 l 0.559,-0.147 c 0.086,0.066 0.261,0.212 0.281,0.362 l 0.205,0.563 c 0.011,0.037 0.053,0.046 0.116,0.037 l 0.326,-0.038 c 0.059,-0.006 0.101,-0.048 0.108,-0.083 l 0.033,-0.596 c -0.026,-0.152 0.101,-0.342 0.163,-0.429 l 0.578,-0.022 c 0.069,0.082 0.209,0.264 0.195,0.414 l 0.08,0.593 c 0.003,0.038 0.043,0.057 0.106,0.061 l 0.326,0.034 c 0.06,0.005 0.109,-0.026 0.123,-0.059 l 0.161,-0.576 c 0.008,-0.151 0.171,-0.311 0.251,-0.383 l 0.569,0.104 c 0.05,0.095 0.148,0.301 0.103,0.446 l -0.05,0.596 c -0.006,0.038 0.028,0.065 0.09,0.083 l 0.311,0.103 c 0.058,0.02 0.112,-0.002 0.133,-0.031 l 0.281,-0.528 c 0.04,-0.146 0.234,-0.267 0.328,-0.32 l 0.534,0.223 c 0.028,0.104 0.079,0.326 0.003,0.458 l -0.177,0.571 c -0.014,0.036 0.015,0.069 0.072,0.101 l 0.28,0.167 c 0.052,0.031 0.11,0.022 0.137,-10e-4 l 0.387,-0.455 c 0.072,-0.136 0.287,-0.211 0.39,-0.244 l 0.473,0.333 c 0.005,0.107 0.008,0.336 -0.095,0.449 l -0.295,0.519 c -0.021,0.033 -10e-4,0.071 0.047,0.114 l 0.24,0.224 c 0.043,0.041 0.101,0.045 0.133,0.027 l 0.476,-0.361 c 0.099,-0.115 0.324,-0.142 0.432,-0.152 l 0.391,0.426 c -0.019,0.105 -0.065,0.33 -0.189,0.418 l -0.4,0.443 c -0.028,0.027 -0.017,0.069 0.022,0.121 l 0.185,0.271 c 0.034,0.049 0.09,0.065 0.124,0.055 l 0.543,-0.25 c 0.121,-0.092 0.348,-0.07 0.455,-0.056 l 0.29,0.501 c -0.04,0.099 -0.135,0.307 -0.275,0.366 l -0.487,0.347 c -0.031,0.022 -0.03,0.065 -0.003,0.123 l 0.123,0.304 c 0.022,0.056 0.074,0.084 0.108,0.081 l 0.585,-0.127 c 0.138,-0.064 0.355,0.006 0.456,0.043 l 0.177,0.551 c -0.062,0.088 -0.199,0.271 -0.348,0.299 l -0.549,0.235 c -0.037,0.013 -0.044,0.056 -0.031,0.118 l 0.055,0.325 c 0.009,0.058 0.053,0.096 0.089,0.101 l 0.598,0.002 c 0.148,-0.033 0.345,0.082 0.436,0.139 l 0.053,0.576 c -0.079,0.074 -0.251,0.223 -0.403,0.218 l -0.587,0.112 c -0.039,0.004 -0.055,0.045 -0.056,0.109 l -0.642,0.061 z" style="fill:#231f20;fill-opacity:1;fill-rule:nonzero;stroke:none" id="path2548"/>
        <path d="m 35.546,81.869 c 0.009,0.291 -0.038,1.002 -0.014,1.143 0.01,0.058 0.01,0.32 -0.066,0.322 -0.059,0 -0.122,-0.033 -0.21,-0.111 -0.409,-0.368 -0.989,-0.815 -1.578,-1.222 -0.872,-0.603 -1.725,-1.181 -1.729,-1.796 -0.001,-0.193 0.147,-0.404 0.489,-0.406 l -0.015,-0.195 c -0.397,0.003 -0.715,0.259 -0.714,0.619 0.005,0.646 0.882,1.314 1.824,2.024 0.628,0.473 1.298,0.993 1.712,1.432 0.047,0.05 0.309,0.342 0.346,0.385 0.038,0.045 0.106,0.202 0.137,0.284 0.029,0.082 0.142,0.066 0.142,0.066 l 0.001,0.053 c -0.18,0.023 -0.195,-0.067 -0.317,-0.305 -0.046,-0.119 -0.241,-0.311 -0.293,-0.311 -0.104,0.001 -0.396,0.04 -0.441,-0.005 -0.045,-0.044 -0.339,-0.341 -0.405,-0.364 -0.068,-0.021 -0.509,-0.078 -0.569,-0.033 -0.059,0.045 -0.097,0.053 -0.141,0.024 -0.046,-0.03 -0.165,-0.178 -0.197,-0.268 -0.03,-0.089 -0.12,-0.119 -0.165,-0.133 -0.082,-0.029 -0.525,-0.25 -0.667,-0.271 -0.068,-0.011 -0.134,0.008 -0.163,0.023 -0.083,-0.029 -0.263,-0.088 -0.278,-0.118 -0.015,-0.029 -0.032,-0.276 -0.032,-0.335 0,-0.038 -0.083,-0.038 -0.098,-0.016 -0.014,0.069 0.025,0.389 0.025,0.412 0,0.022 -0.006,0.046 0.016,0.059 0.045,0.045 0.247,0.125 0.292,0.14 0.046,0.014 0.09,0.038 0.105,0.081 0.123,0.35 0.939,0.599 1.081,0.65 0.007,0.037 0.038,0.09 0.105,0.105 0.059,0.012 0.697,0.233 0.771,0.262 0.075,0.031 0.143,0.067 0.225,0.059 0.225,-0.002 0.269,0.021 0.508,0.057 0.053,0.008 0.127,0.029 0.142,0.073 0.016,0.045 0.047,0.21 0.16,0.276 0.005,0.121 0.111,0.186 0.211,0.219 -0.025,10e-4 -0.05,0.02 -0.082,0.063 -0.06,0.084 -0.373,0.191 -0.41,0.206 -0.037,0.014 -0.06,0.03 -0.082,0.082 -0.022,0.051 -0.117,0.359 -0.168,0.442 -0.051,0.082 -0.036,0.156 0.009,0.224 -0.059,0.089 -0.089,0.173 -0.088,0.315 0.001,0.141 0.123,0.342 0.123,0.424 10e-4,0.082 -0.082,0.113 -0.126,0.121 -0.045,0.008 -0.149,0.023 -0.149,0.067 0,0.046 0.12,0.105 0.143,0.126 0.022,0.022 0.052,0.037 0.089,-0.007 0.037,-0.045 0.097,-0.12 0.141,-0.165 0.044,-0.045 0.021,-0.187 0.021,-0.233 0,-0.044 0.027,-0.276 0.027,-0.365 -0.001,-0.09 -0.024,-0.194 -0.047,-0.329 0.162,-0.285 0.438,-0.295 0.556,-0.504 0.069,-0.123 0.103,-0.36 0.103,-0.442 -0.008,-0.005 -0.014,-0.01 -0.02,-0.013 0.062,0.015 0.115,0.019 0.131,0.019 0.045,0 0.173,0.051 0.24,0.051 0.067,0 0.232,-0.001 0.313,-0.002 0.083,0 0.248,0.051 0.375,0.049 0.127,0.002 0.292,-0.049 0.374,-0.049 0.083,10e-4 0.246,0.002 0.314,0.002 0.067,0 0.195,-0.051 0.239,-0.051 0.017,0 0.07,-0.004 0.131,-0.019 -0.006,0.003 -0.012,0.008 -0.019,0.013 0,0.082 0.033,0.319 0.102,0.442 0.118,0.209 0.394,0.219 0.557,0.504 -0.023,0.135 -0.046,0.239 -0.048,0.329 0,0.089 0.028,0.321 0.028,0.365 -0.001,0.046 -0.023,0.188 0.02,0.233 0.045,0.045 0.105,0.12 0.142,0.165 0.037,0.044 0.067,0.029 0.089,0.007 0.023,-0.021 0.143,-0.08 0.143,-0.126 0,-0.044 -0.104,-0.059 -0.148,-0.067 -0.046,-0.008 -0.127,-0.039 -0.127,-0.121 10e-4,-0.082 0.121,-0.283 0.122,-0.424 0.002,-0.142 -0.028,-0.226 -0.088,-0.315 0.046,-0.068 0.062,-0.142 0.01,-0.224 -0.052,-0.083 -0.147,-0.391 -0.169,-0.442 -0.022,-0.052 -0.044,-0.068 -0.081,-0.082 -0.038,-0.015 -0.351,-0.122 -0.411,-0.206 -0.031,-0.043 -0.057,-0.062 -0.081,-0.063 0.1,-0.033 0.206,-0.098 0.211,-0.219 0.112,-0.066 0.144,-0.231 0.159,-0.276 0.015,-0.044 0.09,-0.065 0.142,-0.073 0.24,-0.036 0.285,-0.059 0.509,-0.057 0.081,0.008 0.149,-0.028 0.224,-0.059 0.075,-0.029 0.713,-0.25 0.771,-0.262 0.068,-0.015 0.098,-0.068 0.105,-0.105 0.143,-0.051 0.959,-0.3 1.081,-0.65 0.015,-0.043 0.061,-0.067 0.105,-0.081 0.045,-0.015 0.248,-0.095 0.293,-0.14 0.022,-0.013 0.015,-0.037 0.015,-0.059 0,-0.023 0.039,-0.343 0.025,-0.412 -0.014,-0.022 -0.097,-0.022 -0.098,0.016 0,0.059 -0.016,0.306 -0.031,0.335 -0.015,0.03 -0.195,0.089 -0.278,0.118 -0.03,-0.015 -0.095,-0.034 -0.164,-0.023 -0.142,0.021 -0.584,0.242 -0.666,0.271 -0.046,0.014 -0.135,0.044 -0.166,0.133 -0.03,0.09 -0.151,0.238 -0.195,0.268 -0.046,0.029 -0.084,0.021 -0.142,-0.024 -0.06,-0.045 -0.502,0.012 -0.568,0.033 -0.068,0.023 -0.361,0.32 -0.406,0.364 -0.046,0.045 -0.336,0.006 -0.441,0.005 -0.053,0 -0.248,0.192 -0.294,0.311 -0.121,0.238 -0.136,0.328 -0.316,0.305 l 10e-4,-0.053 c 0,0 0.112,0.016 0.142,-0.066 0.03,-0.082 0.098,-0.239 0.136,-0.284 0.038,-0.043 0.299,-0.335 0.347,-0.385 0.415,-0.439 1.085,-0.959 1.711,-1.432 0.943,-0.71 1.82,-1.378 1.824,-2.024 l -0.239,-0.018 c -0.004,0.615 -0.856,1.193 -1.729,1.796 -0.59,0.407 -1.17,0.854 -1.579,1.222 -0.086,0.078 -0.15,0.111 -0.21,0.111 -0.075,-0.002 -0.075,-0.264 -0.064,-0.322 0.022,-0.141 -0.025,-0.852 -0.015,-1.143 l -0.221,-0.034 c -0.003,0.388 0.052,0.63 0.051,0.766 0,0.133 -0.019,0.701 -0.185,0.999 -0.106,0.058 -0.232,0.174 -0.248,0.294 -0.172,-0.163 0.248,-0.37 0.251,-0.847 0,-0.09 -0.073,-0.209 -0.177,-0.33 0.135,-0.104 0.234,-0.207 0.236,-0.327 0,-0.119 -0.059,-0.419 -0.058,-0.538 0,-0.12 0.046,-0.448 0.138,-0.612 -0.306,0.028 -0.877,0.084 -1.086,0.082 -0.209,0.002 -0.78,-0.054 -1.085,-0.082 0.091,0.164 0.136,0.492 0.136,0.612 0.002,0.119 -0.057,0.419 -0.057,0.538 0.002,0.12 0.1,0.223 0.236,0.327 -0.104,0.121 -0.178,0.24 -0.177,0.33 0.003,0.477 0.423,0.684 0.25,0.847 -0.015,-0.12 -0.141,-0.236 -0.246,-0.294 -0.167,-0.298 -0.185,-0.866 -0.187,-0.999 -0.001,-0.136 0.055,-0.378 0.052,-0.766 l -0.221,0.034 z m 0.221,-0.034 c -0.002,-0.317 -0.169,-0.661 -0.389,-0.958 l 0.004,-10e-4 c 0.319,-0.353 1.134,-0.276 1.463,-0.278 0.329,0.002 1.144,-0.075 1.463,0.278 l 0.004,10e-4 c -0.22,0.297 -0.387,0.641 -0.389,0.958 l 0.221,0.034 c 0.021,-0.621 0.63,-1.432 1.056,-1.441 0.261,-0.006 0.328,0.092 0.326,0.285 -0.004,0.568 -0.514,1.25 -0.682,1.49 -0.068,0.096 -0.046,0.133 0.013,0.074 0.828,-0.711 0.834,-1.578 0.834,-1.681 0.002,-0.106 -0.028,-0.248 0.062,-0.344 0.316,-0.282 1.005,-0.457 1.498,-0.453 0.344,0.002 0.492,0.213 0.49,0.406 l 0.239,0.018 c 0.002,-0.36 -0.317,-0.616 -0.712,-0.619 -0.725,-0.004 -1.489,0.312 -1.708,0.586 -0.08,-0.04 -0.187,-0.063 -0.29,-0.063 0.068,-0.064 0.126,-0.072 0.164,-0.064 0.037,0.007 0.156,0.015 0.157,-0.088 0,-0.106 10e-4,-0.135 0.046,-0.135 0.045,0 0.113,-0.014 0.113,-0.074 0,-0.061 0.197,-0.498 0.228,-0.574 0.03,-0.074 0.151,-0.253 0.151,-0.342 0.001,-0.09 0.017,-0.254 -0.012,-0.291 -0.03,-0.038 -0.104,-0.098 -0.104,-0.136 0,-0.037 0.139,-0.568 0.184,-0.634 0.045,-0.066 0.112,-0.059 0.165,-0.074 0.052,-0.014 0.164,-0.072 0.164,-0.11 10e-4,-0.038 -0.013,-0.164 -0.073,-0.171 -0.06,-0.009 -0.217,-0.002 -0.262,0.004 -0.044,0.007 -0.097,0.007 -0.127,0.126 -0.032,0.12 -0.214,0.633 -0.245,0.716 -0.03,0.081 -0.126,0.044 -0.187,0.05 -0.03,0.008 -0.045,0.045 -0.045,0.076 0,0.03 -0.269,1.08 -0.314,1.185 -0.015,0.03 -0.15,0.066 -0.195,0.081 -0.037,0.037 -0.167,0.432 -0.109,0.558 l 0.007,0.003 c -0.135,0.085 -0.289,0.216 -0.438,0.373 -0.01,-0.085 -0.043,-0.253 -0.137,-0.349 L 38.074,80.15 c -0.06,-0.001 -0.826,-0.05 -1.229,-0.053 -0.404,0.003 -1.169,0.052 -1.229,0.053 -0.046,-0.127 -0.025,-0.359 0.17,-0.404 0.138,-0.033 0.701,-0.095 1.059,-0.098 0.359,0.003 0.922,0.065 1.06,0.098 0.193,0.045 0.214,0.277 0.169,0.404 l 0.327,0.107 c 0.033,-0.38 -0.032,-0.702 -0.151,-0.816 L 37.9,79.35 c -0.124,-0.03 -0.711,-0.08 -1.055,-0.082 -0.345,0.002 -0.932,0.052 -1.056,0.082 -0.045,-0.127 -0.046,-0.291 0.193,-0.323 0.18,-0.023 0.617,-0.123 0.863,-0.125 0.246,0.002 0.682,0.102 0.863,0.125 0.239,0.032 0.238,0.196 0.192,0.323 l 0.35,0.091 c 0.017,-0.238 0.042,-0.476 -0.145,-0.568 l -0.283,-0.174 c -0.067,-0.008 -0.171,-0.023 -0.231,-0.023 -0.195,-0.002 -0.507,-0.123 -0.746,-0.125 -0.239,0.002 -0.552,0.123 -0.746,0.125 -0.06,0 -0.165,0.015 -0.231,0.023 -0.031,-0.105 -0.002,-0.261 0.274,-0.293 0.276,-0.032 0.553,-0.131 0.703,-0.132 0.149,0.001 0.427,0.1 0.703,0.132 0.276,0.032 0.306,0.188 0.274,0.293 l 0.283,0.174 C 38.129,78.598 38.057,78.29 37.84,78.221 l -0.372,-0.166 c -0.097,-0.001 -0.519,-0.057 -0.623,-0.057 -0.104,0 -0.526,0.056 -0.623,0.057 0.029,-0.053 0.059,-0.12 0.149,-0.129 0.088,-0.008 0.355,-0.075 0.474,-0.076 0.119,0.001 0.385,0.068 0.475,0.076 0.09,0.009 0.118,0.076 0.148,0.129 l 0.372,0.166 c -0.065,-0.262 -0.228,-0.45 -0.518,-0.578 -0.09,-0.039 -0.141,-0.159 -0.178,-0.189 -0.038,-0.03 -0.127,-0.099 -0.299,-0.099 -0.173,0 -0.262,0.069 -0.299,0.099 -0.036,0.03 -0.088,0.15 -0.178,0.189 -0.29,0.128 -0.453,0.316 -0.518,0.578 -0.217,0.069 -0.289,0.377 -0.265,0.652 -0.186,0.092 -0.162,0.33 -0.146,0.568 -0.118,0.114 -0.183,0.436 -0.151,0.816 -0.094,0.096 -0.125,0.264 -0.136,0.349 -0.15,-0.157 -0.303,-0.288 -0.438,-0.373 L 34.72,80.23 c 0.059,-0.126 -0.071,-0.521 -0.109,-0.558 -0.044,-0.015 -0.179,-0.051 -0.194,-0.081 -0.045,-0.105 -0.314,-1.155 -0.314,-1.185 0,-0.031 -0.016,-0.068 -0.046,-0.076 -0.059,-0.006 -0.157,0.031 -0.187,-0.05 -0.03,-0.083 -0.213,-0.596 -0.244,-0.716 -0.031,-0.119 -0.083,-0.119 -0.127,-0.126 -0.046,-0.006 -0.203,-0.013 -0.262,-0.004 -0.06,0.007 -0.073,0.133 -0.073,0.171 0,0.038 0.112,0.096 0.164,0.11 0.053,0.015 0.12,0.008 0.165,0.074 0.046,0.066 0.184,0.597 0.184,0.634 0,0.038 -0.074,0.098 -0.104,0.136 -0.029,0.037 -0.013,0.201 -0.012,0.291 0,0.089 0.12,0.268 0.151,0.342 0.031,0.076 0.227,0.513 0.228,0.574 0.001,0.06 0.067,0.074 0.113,0.074 0.045,0 0.045,0.029 0.045,0.135 0.002,0.103 0.121,0.095 0.158,0.088 0.037,-0.008 0.097,0 0.163,0.064 -0.101,0 -0.21,0.023 -0.289,0.063 -0.218,-0.274 -0.983,-0.59 -1.707,-0.586 l 0.015,0.195 c 0.494,-0.004 1.183,0.171 1.499,0.453 0.089,0.096 0.061,0.238 0.062,0.344 0,0.103 0.006,0.97 0.833,1.681 0.06,0.059 0.082,0.022 0.014,-0.074 -0.168,-0.24 -0.679,-0.922 -0.683,-1.49 -10e-4,-0.193 0.066,-0.291 0.328,-0.285 0.425,0.009 1.035,0.82 1.055,1.441 l 0.221,-0.034 z" style="fill:#231f20;fill-opacity:1;fill-rule:nonzero;stroke:none" id="path2550"/>
        <path d="m 36.636,84.947 c 0.033,0.03 0.178,0.112 0.209,0.151 0.03,-0.039 0.175,-0.121 0.209,-0.151 0.06,-0.051 0.147,-0.015 0.097,0.053 -0.051,0.07 -0.132,0.428 -0.134,0.617 -0.002,0.19 0.097,0.488 0.116,0.529 0.02,0.04 -0.01,0.081 -0.041,0.081 -0.03,-0.002 -0.173,-0.122 -0.247,-0.186 -0.074,0.064 -0.218,0.184 -0.248,0.186 -0.03,0 -0.059,-0.041 -0.041,-0.081 0.02,-0.041 0.118,-0.339 0.116,-0.529 C 36.671,85.428 36.589,85.07 36.539,85 c -0.051,-0.068 0.037,-0.104 0.097,-0.053" style="fill:#231f20;fill-opacity:1;fill-rule:nonzero;stroke:none" id="path2552"/>
        <path d="m 34.815,87.395 c 0.037,-0.016 0.961,-0.425 1.02,-0.463 0.06,-0.037 0.111,-0.083 0.156,-0.165 0.037,-0.068 0.108,-0.212 0.135,-0.287 -0.395,-0.22 -0.507,-0.558 -0.509,-0.761 -10e-4,-0.24 0.107,-0.823 0.528,-0.826 0.198,-0.002 0.371,0.266 0.342,0.505 -0.056,-0.088 -0.126,-0.128 -0.2,-0.128 -0.075,0.001 -0.223,0.151 -0.222,0.345 0.001,0.196 0.122,0.313 0.212,0.313 0.089,-10e-4 0.104,-0.032 0.149,-0.046 0.035,0.184 -0.148,0.27 -0.148,0.404 0.001,0.06 0.076,0.089 0.152,0.089 0.073,-0.001 0.133,-0.076 0.208,-0.076 0.074,0 0.146,0.089 0.207,0.193 0.06,-0.104 0.133,-0.193 0.207,-0.193 0.075,0 0.134,0.075 0.209,0.076 0.074,0 0.149,-0.029 0.15,-0.089 10e-4,-0.134 -0.182,-0.22 -0.146,-0.404 0.043,0.014 0.058,0.045 0.148,0.046 0.09,0 0.21,-0.117 0.212,-0.313 0,-0.194 -0.147,-0.344 -0.222,-0.345 -0.075,0 -0.145,0.04 -0.2,0.128 -0.028,-0.239 0.143,-0.507 0.342,-0.505 0.42,0.003 0.529,0.586 0.527,0.826 -0.001,0.203 -0.114,0.541 -0.509,0.761 0.028,0.075 0.1,0.219 0.136,0.287 0.044,0.082 0.095,0.128 0.156,0.165 0.059,0.038 0.983,0.447 1.019,0.463 0.038,0.015 0.038,0.076 -0.015,0.052 -0.111,-0.052 -0.975,-0.358 -1.021,-0.373 -0.044,-0.015 -0.104,-0.023 -0.134,-0.069 -0.027,-0.042 -0.255,-0.286 -0.335,-0.435 -0.013,0.006 -0.023,0.01 -0.035,0.014 -0.119,0.042 -0.119,0 -0.239,0.059 -0.12,0.058 -0.131,0.139 -0.25,0.138 -0.119,10e-4 -0.13,-0.08 -0.249,-0.138 -0.121,-0.059 -0.121,-0.017 -0.241,-0.059 -0.012,-0.004 -0.022,-0.008 -0.034,-0.014 -0.08,0.149 -0.308,0.393 -0.336,0.435 -0.029,0.046 -0.089,0.054 -0.134,0.069 -0.044,0.015 -0.909,0.321 -1.02,0.373 -0.053,0.024 -0.054,-0.037 -0.016,-0.052" style="fill:#231f20;fill-opacity:1;fill-rule:nonzero;stroke:none" id="path2554"/>
        <path d="m 22.98,63.436 c 0.074,-0.37 -0.097,-0.606 -0.462,-0.68 -0.378,-0.076 -0.636,0.053 -0.715,0.441 l -0.19,0.934 0.195,0.041 0.19,-0.936 c 0.052,-0.257 0.229,-0.369 0.486,-0.318 0.246,0.051 0.353,0.221 0.301,0.478 l -0.19,0.936 0.195,0.039 0.19,-0.935 z" style="fill:#231f20;fill-opacity:1;fill-rule:nonzero;stroke:none" id="path2556"/>
        <path d="m 23.416,64.426 -0.463,-0.182 -0.061,0.156 1.112,0.436 0.061,-0.156 -0.464,-0.182 0.482,-1.234 -0.185,-0.073 -0.482,1.235 z" style="fill:#231f20;fill-opacity:1;fill-rule:nonzero;stroke:none" id="path2558"/>
        <path d="m 25.128,65.199 -0.439,-0.236 -0.078,0.148 1.052,0.563 0.08,-0.147 -0.439,-0.236 0.625,-1.168 -0.175,-0.094 -0.626,1.17 z" style="fill:#231f20;fill-opacity:1;fill-rule:nonzero;stroke:none" id="path2560"/>
        <path d="m 25.858,65.781 0.916,0.475 0.078,-0.15 -0.74,-0.381 0.218,-0.422 0.689,0.355 0.077,-0.148 -0.689,-0.356 0.238,-0.459 0.744,0.385 0.077,-0.148 -0.921,-0.477 -0.687,1.326 z" style="fill:#231f20;fill-opacity:1;fill-rule:nonzero;stroke:none" id="path2562"/>
        <path d="m 27.066,66.386 0.195,0.084 1.203,-0.798 0.003,0.002 -0.482,1.111 0.173,0.074 0.594,-1.369 -0.199,-0.088 -1.193,0.789 -0.004,-0.001 0.478,-1.1 -0.173,-0.074 -0.595,1.37 z" style="fill:#231f20;fill-opacity:1;fill-rule:nonzero;stroke:none" id="path2564"/>
        <path d="m 29.447,66.795 c -0.081,0.199 -0.243,0.248 -0.441,0.191 -0.16,-0.047 -0.305,-0.15 -0.251,-0.338 0.051,-0.175 0.287,-0.136 0.534,-0.123 0.244,0.014 0.497,0 0.577,-0.282 0.088,-0.305 -0.177,-0.514 -0.438,-0.589 -0.322,-0.093 -0.637,-0.013 -0.739,0.336 l 0.182,0.053 c 0.069,-0.242 0.3,-0.289 0.517,-0.227 0.173,0.051 0.348,0.159 0.289,0.366 -0.056,0.198 -0.296,0.166 -0.539,0.15 -0.243,-0.016 -0.494,-0.016 -0.57,0.248 -0.084,0.291 0.14,0.494 0.401,0.57 0.292,0.084 0.556,0.009 0.658,-0.302 l -0.18,-0.053 z" style="fill:#231f20;fill-opacity:1;fill-rule:nonzero;stroke:none" id="path2566"/>
        <path d="m 29.974,67.338 0.199,0.014 0.112,-1.489 -0.198,-0.015 -0.113,1.49 z" style="fill:#231f20;fill-opacity:1;fill-rule:nonzero;stroke:none" id="path2568"/>
        <path d="m 31.062,66.039 c 0.362,-0.016 0.528,0.291 0.542,0.593 0.012,0.301 -0.127,0.62 -0.491,0.636 -0.364,0.015 -0.53,-0.291 -0.542,-0.592 -0.012,-0.303 0.126,-0.621 0.491,-0.637 m 0.058,1.397 c 0.474,-0.021 0.699,-0.407 0.681,-0.813 -0.016,-0.404 -0.273,-0.771 -0.747,-0.75 -0.474,0.02 -0.7,0.404 -0.682,0.811 0.018,0.406 0.274,0.771 0.748,0.752" style="fill:#231f20;fill-opacity:1;fill-rule:nonzero;stroke:none" id="path2570"/>
        <path d="m 44.512,66.729 c 0.024,0.212 -0.095,0.334 -0.295,0.378 -0.163,0.038 -0.34,0.014 -0.383,-0.175 -0.039,-0.18 0.188,-0.259 0.411,-0.366 0.221,-0.103 0.435,-0.238 0.372,-0.523 -0.07,-0.311 -0.402,-0.367 -0.668,-0.309 -0.326,0.075 -0.566,0.295 -0.487,0.651 l 0.184,-0.042 c -0.055,-0.245 0.126,-0.396 0.346,-0.447 0.176,-0.039 0.382,-0.025 0.428,0.184 0.046,0.2 -0.179,0.287 -0.401,0.39 -0.221,0.103 -0.441,0.222 -0.381,0.489 0.066,0.297 0.358,0.369 0.624,0.31 0.298,-0.067 0.493,-0.257 0.433,-0.581 l -0.183,0.041 z" style="fill:#231f20;fill-opacity:1;fill-rule:nonzero;stroke:none" id="path2572"/>
        <path d="m 45.211,66.963 0.188,-0.065 -0.495,-1.41 -0.188,0.067 0.495,1.408 z" style="fill:#231f20;fill-opacity:1;fill-rule:nonzero;stroke:none" id="path2574"/>
        <path d="m 46.578,65.914 c 0.048,0.211 -0.062,0.377 -0.252,0.462 -0.324,0.145 -0.581,-0.062 -0.708,-0.345 -0.139,-0.31 -0.118,-0.633 0.208,-0.779 0.239,-0.106 0.452,0 0.57,0.219 l 0.181,-0.082 c -0.186,-0.325 -0.491,-0.436 -0.834,-0.282 -0.424,0.188 -0.491,0.594 -0.312,0.993 0.176,0.394 0.546,0.616 0.966,0.427 0.284,-0.127 0.451,-0.384 0.362,-0.693 l -0.181,0.08 z" style="fill:#231f20;fill-opacity:1;fill-rule:nonzero;stroke:none" id="path2576"/>
        <path d="m 47.857,64.082 -0.2,0.106 0.231,1.566 0.19,-0.102 -0.227,-1.343 0.005,-0.002 0.984,0.945 0.183,-0.098 -1.166,-1.072 z" style="fill:#231f20;fill-opacity:1;fill-rule:nonzero;stroke:none" id="path2578"/>
        <path d="m 49.165,65.084 0.177,-0.088 -0.674,-1.334 -0.177,0.09 0.674,1.332 z" style="fill:#231f20;fill-opacity:1;fill-rule:nonzero;stroke:none" id="path2580"/>
        <path d="m 50.229,64.1 c 0.065,0.205 -0.027,0.345 -0.215,0.429 -0.153,0.067 -0.329,0.08 -0.408,-0.099 -0.075,-0.168 0.132,-0.289 0.331,-0.436 0.195,-0.146 0.38,-0.318 0.261,-0.586 -0.129,-0.291 -0.465,-0.283 -0.714,-0.172 -0.305,0.135 -0.498,0.399 -0.351,0.731 l 0.172,-0.076 c -0.101,-0.229 0.046,-0.412 0.253,-0.506 0.164,-0.072 0.369,-0.1 0.456,0.097 0.083,0.188 -0.121,0.315 -0.318,0.461 -0.197,0.143 -0.389,0.303 -0.278,0.555 0.122,0.277 0.423,0.291 0.672,0.18 0.279,-0.123 0.433,-0.348 0.312,-0.655 L 50.229,64.1 z" style="fill:#231f20;fill-opacity:1;fill-rule:nonzero;stroke:none" id="path2582"/>
        <path d="m 37.206,67.354 c 0,0.098 -0.081,0.177 -0.18,0.177 l -0.359,0 c -0.099,0 -0.179,-0.079 -0.179,-0.177 l 0,-0.42 c 0,-0.098 0.08,-0.179 0.179,-0.179 l 0.359,0 c 0.099,0 0.18,0.081 0.18,0.179 l 0,0.42 0.179,0 0,-0.42 c 0,-0.198 -0.161,-0.358 -0.359,-0.358 l -0.359,0 c -0.197,0 -0.358,0.16 -0.358,0.358 l 0,0.42 c 0,0.197 0.161,0.357 0.358,0.357 l 0.359,0 c 0.198,0 0.359,-0.16 0.359,-0.357 l -0.179,0 z" style="fill:#231f20;fill-opacity:1;fill-rule:nonzero;stroke:none" id="path2584"/>
        <path d="m 35.682,67.607 0,0.104 c 0,0.17 -0.405,0.447 -0.797,0.717 -0.636,0.435 -1.43,0.979 -1.43,1.629 0,0.545 0.292,0.822 0.866,0.822 0.409,0 0.849,-0.272 1.275,-0.532 0.423,-0.26 0.859,-0.529 1.25,-0.529 l 0,-0.179 c -0.441,0 -0.9,0.282 -1.344,0.555 -0.422,0.259 -0.823,0.505 -1.181,0.505 -0.608,0 -0.687,-0.344 -0.687,-0.642 0,-0.555 0.75,-1.069 1.353,-1.482 0.36,-0.247 0.665,-0.456 0.799,-0.655 0.05,0.07 0.116,0.127 0.193,0.166 -0.08,0.248 -0.279,0.402 -0.472,0.553 -0.21,0.162 -0.408,0.314 -0.408,0.566 0,0.18 0.14,0.373 0.448,0.373 0.279,0 0.46,-0.201 0.635,-0.396 0.187,-0.211 0.365,-0.411 0.664,-0.411 l 0,-0.178 c -0.38,0 -0.602,0.249 -0.799,0.469 -0.161,0.18 -0.301,0.338 -0.5,0.338 -0.164,0 -0.269,-0.078 -0.269,-0.195 0,-0.163 0.149,-0.279 0.338,-0.426 0.206,-0.158 0.439,-0.339 0.534,-0.64 0.024,0.004 0.048,0.006 0.073,0.006 l 1.248,0 c 0.025,0 0.049,-0.002 0.072,-0.006 0.096,0.301 0.327,0.482 0.534,0.64 0.19,0.147 0.338,0.263 0.338,0.426 0,0.117 -0.105,0.195 -0.269,0.195 -0.199,0 -0.338,-0.158 -0.5,-0.338 -0.196,-0.22 -0.419,-0.469 -0.8,-0.469 l 0,0.178 c 0.301,0 0.478,0.2 0.666,0.411 0.175,0.195 0.355,0.396 0.634,0.396 0.309,0 0.449,-0.193 0.449,-0.373 0,-0.252 -0.198,-0.404 -0.408,-0.566 -0.194,-0.151 -0.393,-0.305 -0.473,-0.553 0.078,-0.039 0.143,-0.096 0.194,-0.166 0.134,0.199 0.438,0.408 0.799,0.655 0.602,0.413 1.352,0.927 1.352,1.482 0,0.298 -0.078,0.642 -0.687,0.642 -0.358,0 -0.757,-0.246 -1.181,-0.505 -0.443,-0.273 -0.902,-0.555 -1.345,-0.555 l 0,0.179 c 0.392,0 0.829,0.269 1.251,0.529 0.426,0.26 0.866,0.532 1.275,0.532 0.574,0 0.866,-0.277 0.866,-0.822 0,-0.65 -0.793,-1.194 -1.43,-1.629 -0.391,-0.27 -0.796,-0.547 -0.796,-0.717 l -0.003,-0.104 -0.18,0 c 0,0.198 -0.16,0.358 -0.358,0.358 l -1.248,0 c -0.198,0 -0.36,-0.16 -0.36,-0.358 l -0.181,0 z" style="fill:#231f20;fill-opacity:1;fill-rule:nonzero;stroke:none" id="path2586"/>
        <path d="m 41.334,63.977 c 0.257,0.121 0.452,0.242 0.61,0.353 -0.327,0.08 -0.59,0.201 -0.599,0.539 -0.06,0.154 -0.048,0.424 -0.032,0.764 0.007,0.166 0.016,0.338 0.016,0.51 0,0.22 -0.048,0.407 -0.082,0.543 -0.022,0.082 -0.038,0.14 -0.038,0.189 0,0.452 0.319,0.992 1.838,0.992 1.875,0 3.939,-1.047 5.759,-1.969 0.061,-0.031 0.12,-0.06 0.18,-0.091 0.161,0.28 0.353,0.653 0.449,0.939 0.02,0.059 0.052,0.211 0.047,0.267 -0.002,0.03 0.005,0.071 0.027,0.071 0.022,0 0.042,-0.065 0.052,-0.09 0.03,-0.07 0.105,-0.138 0.172,-0.189 0.746,-0.579 1.967,-1.035 2.801,-1.035 l 0,-0.18 c -0.892,0 -2.151,0.473 -2.931,1.092 -0.113,-0.295 -0.312,-0.702 -0.457,-0.955 1.211,-0.612 2.252,-1.108 2.97,-1.108 0.736,0 0.998,0.317 0.998,0.613 0,0.332 -0.445,0.358 -0.58,0.358 l 0,0.18 c 0.468,0 0.759,-0.207 0.759,-0.538 0,-0.072 -0.017,-0.3 -0.211,-0.492 l 0.006,-0.004 c -0.143,-0.23 -0.614,-1.257 -0.614,-1.865 0,-0.314 -0.227,-0.648 -0.866,-0.648 l 0,0.179 c 0.436,0 0.687,0.17 0.687,0.469 0,0.506 0.291,1.254 0.495,1.682 -0.165,-0.069 -0.384,-0.114 -0.674,-0.114 -0.826,0 -2.015,0.602 -3.39,1.299 -1.804,0.914 -3.847,1.95 -5.679,1.95 -1.1,0 -1.659,-0.274 -1.659,-0.813 0,-0.025 0.015,-0.084 0.032,-0.145 0.035,-0.137 0.088,-0.343 0.088,-0.587 0,-0.176 -0.008,-0.35 -0.016,-0.518 -0.006,-0.137 -0.013,-0.268 -0.013,-0.381 0.219,0.256 0.692,0.406 1.344,0.406 1.496,0 3.111,-0.865 4.672,-1.703 1.484,-0.795 2.885,-1.545 4.113,-1.545 l 0,-0.179 c -1.273,0 -2.694,0.761 -4.198,1.568 -1.155,0.619 -2.34,1.252 -3.472,1.531 -0.164,-0.345 -0.099,-0.875 -0.055,-1.23 L 43.706,64.07 c -0.046,0.366 -0.112,0.903 0.053,1.295 -0.317,0.067 -0.63,0.106 -0.936,0.106 -0.79,0 -1.3,-0.229 -1.3,-0.582 0,-0.282 0.243,-0.344 0.709,-0.44 0.366,-0.072 0.821,-0.166 1.165,-0.474 0.131,-0.118 0.255,-0.287 0.318,-0.489 0.013,0.092 0.019,0.186 0.019,0.282 0,0.07 -0.013,0.177 -0.028,0.302 l 0.177,0.022 c 0.016,-0.131 0.03,-0.244 0.03,-0.324 0,-0.37 -0.084,-0.717 -0.251,-1.034 l -0.173,0.092 0.029,0.067 c 0.169,0.388 -0.024,0.753 -0.241,0.949 -0.308,0.275 -0.734,0.367 -1.096,0.441 l -0.022,-0.019 c -0.153,-0.114 -0.356,-0.252 -0.63,-0.391 l -0.195,0.104 z" style="fill:#231f20;fill-opacity:1;fill-rule:nonzero;stroke:none" id="path2588"/>
        <path d="m 36.226,64.205 -0.003,0" style="fill:#231f20;fill-opacity:1;fill-rule:nonzero;stroke:none" id="path2590"/>
        <path d="m 36.264,64.066 c 0.256,0 0.469,0.237 0.582,0.498 0.115,-0.261 0.328,-0.498 0.583,-0.498 l 0,0.178 c -0.249,0 -0.492,0.404 -0.492,0.703 l 0,1.192 0.356,0 c 0,-0.739 0.233,-0.907 0.435,-0.907 0.051,0 0.1,0.008 0.148,0.02 0.155,0.047 0.336,0.187 0.467,0.32 0.062,0.061 0.123,0.127 0.185,0.196 0.306,0.33 0.623,0.673 1.097,0.673 l 0,0.18 c -0.552,0 -0.912,-0.389 -1.229,-0.732 -0.075,-0.082 -0.147,-0.16 -0.218,-0.229 l -0.145,-0.127 c -0.042,-0.035 -0.087,-0.064 -0.13,-0.092 l -0.389,0.217 c -0.014,0.053 -0.023,0.11 -0.031,0.166 l 0.55,-0.291 0.145,0.127 -0.712,0.376 c 0,0.03 10e-4,0.069 0.002,0.103 l 0.003,0.183 -1.248,0 0.003,-0.183 0.175,0 0.356,0 0,-1.192 c 0,-0.299 -0.244,-0.703 -0.493,-0.703 l 0,-0.178 z" style="fill:#231f20;fill-opacity:1;fill-rule:nonzero;stroke:none" id="path2592"/>
        <path d="m 36.846,63.096 c 0.318,0 0.621,0.006 0.914,0.017 0.091,-0.42 0.568,-0.586 0.995,-0.732 0.402,-0.139 0.781,-0.27 0.781,-0.57 0,-0.163 -0.249,-0.286 -0.373,-0.286 -0.071,0 -0.244,0.016 -0.295,0.028 -0.053,0.011 -0.094,0.008 -0.101,-0.016 -0.008,-0.023 0.054,-0.043 0.082,-0.057 0.04,-0.017 0.157,-0.064 0.22,-0.08 0.195,-0.068 0.405,-0.322 0.504,-0.515 l 0.078,-0.17 c 0.033,-0.078 0.055,-0.145 0.069,-0.188 0.015,-0.06 0.089,-0.312 0.089,-0.341 0,-0.03 0.018,-0.049 0.037,-0.049 0.019,0 0.037,0.004 0.029,0.045 -0.006,0.041 -0.002,0.228 0.024,0.297 0.052,0.132 0.136,0.209 0.2,0.314 1.545,0.287 2.672,0.805 3.279,1.521 l -0.007,0.008 c 0.136,0.012 0.379,0.004 0.813,-0.062 l -0.455,0.236 c -0.197,0.016 -0.385,0.016 -0.509,-0.019 l -4.611,2.572 c 0.051,0.041 0.096,0.074 0.146,0.099 l 4.974,-2.652 0.455,-0.236 c 0.113,-0.014 0.365,-0.069 0.394,-0.076 0.03,-0.008 0.045,0.045 0.005,0.064 l -0.921,0.486 -0.173,0.092 -1.96,1.047 -0.195,0.104 -1.381,0.736 c 0.252,0.307 0.449,0.656 0.449,1.086 0,0.534 -0.4,0.822 -0.777,0.822 l 0,-0.18 c 0.291,0 0.599,-0.224 0.599,-0.642 0,-0.385 -0.192,-0.711 -0.433,-1 L 39.416,65 39.21,65.109 38.991,65.227 c 0.027,0.002 0.054,0.005 0.082,0.005 0.072,0 0.114,-0.06 0.137,-0.123 L 39.416,65 c -0.009,0.178 -0.116,0.41 -0.343,0.41 -0.115,0 -0.22,-0.021 -0.314,-0.058 -0.199,-0.077 -0.348,-0.219 -0.446,-0.344 -0.067,-0.086 -0.14,-0.166 -0.205,-0.25 -0.206,-0.264 -0.4,-0.514 -0.679,-0.514 l 0,-0.178 c 0.367,0 0.596,0.295 0.82,0.582 0.074,0.094 0.148,0.188 0.224,0.272 l 0.531,-0.297 0.168,-0.094 0.237,-0.142 c -0.317,-0.323 -0.591,-0.604 -0.591,-0.918 l 0.18,0 c 0,0.242 0.25,0.496 0.539,0.793 0.014,0.013 0.027,0.027 0.041,0.041 l 1.06,-0.592 0.214,-0.119 2.285,-1.276 c -0.583,-0.609 -1.586,-1.054 -2.931,-1.322 0.113,0.244 0.166,0.49 0.166,0.682 0,0.617 -0.481,0.961 -0.868,1.236 -0.152,0.108 -0.293,0.207 -0.387,0.309 0.668,0.084 1.248,0.207 1.735,0.371 l -0.214,0.119 c -0.464,-0.143 -1.007,-0.25 -1.626,-0.322 -0.01,0.025 -0.014,0.052 -0.014,0.08 l -0.18,0 c 0,-0.291 0.283,-0.49 0.582,-0.703 0.371,-0.266 0.794,-0.567 0.794,-1.09 0,-0.25 -0.112,-0.635 -0.356,-0.946 -0.081,0.211 -0.223,0.502 -0.442,0.676 0.163,0.074 0.319,0.215 0.319,0.405 0,0.429 -0.459,0.587 -0.902,0.74 -0.458,0.156 -0.89,0.306 -0.89,0.709 0,0.461 0.417,0.72 0.82,0.972 0.155,0.098 0.308,0.194 0.429,0.297 l -0.168,0.094 c -0.1,-0.078 -0.225,-0.156 -0.356,-0.24 -0.416,-0.258 -0.884,-0.553 -0.903,-1.092 -0.288,-0.012 -0.587,-0.018 -0.899,-0.018 l 0,-0.177 z" style="fill:#231f20;fill-opacity:1;fill-rule:nonzero;stroke:none" id="path2594"/>
        <path d="m 32.165,63.873 c -0.274,0.139 -0.478,0.277 -0.63,0.391 l -0.024,0.019 c -0.362,-0.074 -0.787,-0.166 -1.095,-0.441 -0.217,-0.196 -0.409,-0.561 -0.24,-0.949 l 0.029,-0.067 -0.173,-0.092 c -0.166,0.317 -0.253,0.664 -0.253,1.034 0,0.08 0.015,0.193 0.032,0.324 l 0.177,-0.022 c -0.015,-0.125 -0.029,-0.232 -0.029,-0.302 0,-0.096 0.006,-0.19 0.018,-0.282 0.065,0.202 0.188,0.371 0.319,0.489 0.344,0.308 0.799,0.402 1.165,0.474 0.466,0.096 0.709,0.158 0.709,0.44 0,0.353 -0.51,0.582 -1.299,0.582 -0.307,0 -0.62,-0.039 -0.937,-0.106 0.166,-0.392 0.099,-0.929 0.054,-1.295 l -0.177,0.022 c 0.043,0.355 0.108,0.885 -0.056,1.23 -1.131,-0.279 -2.316,-0.912 -3.471,-1.531 -1.505,-0.807 -2.927,-1.568 -4.198,-1.568 l 0,0.179 c 1.227,0 2.629,0.75 4.113,1.545 1.561,0.838 3.176,1.703 4.672,1.703 0.651,0 1.125,-0.15 1.343,-0.406 -10e-4,0.113 -0.006,0.244 -0.012,0.381 -0.008,0.168 -0.017,0.342 -0.017,0.518 0,0.244 0.053,0.45 0.089,0.587 0.016,0.061 0.031,0.12 0.031,0.145 0,0.539 -0.558,0.813 -1.659,0.813 -1.832,0 -3.875,-1.036 -5.678,-1.95 -1.376,-0.697 -2.564,-1.299 -3.39,-1.299 -0.291,0 -0.509,0.045 -0.674,0.114 0.203,-0.428 0.495,-1.176 0.495,-1.682 0,-0.299 0.25,-0.469 0.687,-0.469 l 0,-0.179 c -0.639,0 -0.867,0.334 -0.867,0.648 0,0.608 -0.471,1.635 -0.614,1.865 l 0.007,0.004 c -0.195,0.192 -0.211,0.42 -0.211,0.492 0,0.331 0.289,0.538 0.758,0.538 l 0,-0.18 c -0.136,0 -0.579,-0.026 -0.579,-0.358 0,-0.296 0.262,-0.613 0.998,-0.613 0.716,0 1.758,0.496 2.969,1.108 -0.145,0.253 -0.342,0.66 -0.456,0.955 -0.78,-0.619 -2.04,-1.092 -2.932,-1.092 l 0,0.18 c 0.835,0 2.056,0.456 2.801,1.035 0.068,0.051 0.143,0.119 0.172,0.189 0.01,0.025 0.03,0.09 0.053,0.09 0.023,0 0.028,-0.041 0.025,-0.071 -0.002,-0.056 0.029,-0.208 0.049,-0.267 0.095,-0.286 0.287,-0.659 0.449,-0.939 0.059,0.031 0.119,0.06 0.179,0.091 1.821,0.922 3.884,1.969 5.759,1.969 1.519,0 1.838,-0.54 1.838,-0.992 0,-0.049 -0.015,-0.107 -0.036,-0.189 -0.035,-0.136 -0.083,-0.323 -0.083,-0.543 0,-0.172 0.008,-0.344 0.015,-0.51 0.016,-0.34 0.028,-0.61 -0.031,-0.764 -0.009,-0.338 -0.273,-0.459 -0.599,-0.539 0.159,-0.111 0.353,-0.232 0.61,-0.353 l -0.195,-0.104 z" style="fill:#231f20;fill-opacity:1;fill-rule:nonzero;stroke:none" id="path2596"/>
        <path d="m 37.429,64.244 c -0.249,0 -0.492,0.404 -0.492,0.703 l 0,1.192 0.356,0 0.175,0 0.003,0.183 -1.248,0 0.003,-0.183 c 10e-4,-0.034 10e-4,-0.073 10e-4,-0.103 l -0.711,-0.376 0.145,-0.127 0.549,0.291 c -0.007,-0.056 -0.016,-0.113 -0.03,-0.166 l -0.389,-0.217 c -0.044,0.028 -0.088,0.057 -0.13,0.092 l -0.145,0.127 c -0.071,0.069 -0.143,0.147 -0.219,0.229 -0.317,0.343 -0.676,0.732 -1.229,0.732 l 0,-0.18 c 0.474,0 0.791,-0.343 1.098,-0.673 0.062,-0.069 0.123,-0.135 0.184,-0.196 0.131,-0.133 0.313,-0.273 0.468,-0.32 0.047,-0.012 0.097,-0.02 0.147,-0.02 0.202,0 0.435,0.168 0.435,0.907 l 0.357,0 0,-1.192 c 0,-0.299 -0.244,-0.703 -0.493,-0.703 l 0,-0.178 c 0.256,0 0.469,0.237 0.582,0.498 0.115,-0.261 0.328,-0.498 0.583,-0.498 l 0,0.178 z" style="fill:#231f20;fill-opacity:1;fill-rule:nonzero;stroke:none" id="path2598"/>
        <path d="m 39.573,60.885 c -0.809,-0.119 -1.722,-0.18 -2.727,-0.18 -1.004,0 -1.916,0.061 -2.726,0.18 l -0.078,-0.17 c 0.833,-0.125 1.771,-0.19 2.804,-0.19 1.034,0 1.972,0.065 2.805,0.19 l -0.078,0.17 z" style="fill:#231f20;fill-opacity:1;fill-rule:nonzero;stroke:none" id="path2600"/>
        <path d="m 36.846,63.273 c -0.311,0 -0.61,0.006 -0.897,0.018 -0.019,0.539 -0.488,0.834 -0.903,1.092 -0.132,0.084 -0.256,0.162 -0.356,0.24 l -0.168,-0.094 c 0.121,-0.103 0.273,-0.199 0.429,-0.297 0.403,-0.252 0.82,-0.511 0.82,-0.972 0,-0.403 -0.433,-0.553 -0.891,-0.709 -0.444,-0.153 -0.902,-0.311 -0.902,-0.74 0,-0.19 0.156,-0.331 0.318,-0.405 -0.217,-0.174 -0.36,-0.465 -0.441,-0.676 -0.243,0.311 -0.355,0.696 -0.355,0.946 0,0.523 0.421,0.824 0.794,1.09 0.299,0.213 0.58,0.412 0.58,0.703 l -0.179,0 c 0,-0.028 -0.005,-0.055 -0.012,-0.08 -0.62,0.072 -1.163,0.179 -1.628,0.322 l -0.213,-0.119 c 0.488,-0.164 1.067,-0.287 1.734,-0.371 -0.095,-0.102 -0.234,-0.201 -0.386,-0.309 -0.387,-0.275 -0.87,-0.619 -0.87,-1.236 0,-0.192 0.054,-0.438 0.166,-0.682 -1.345,0.268 -2.347,0.713 -2.93,1.322 l 2.286,1.276 0.213,0.119 1.061,0.592 c 0.014,-0.014 0.028,-0.028 0.041,-0.041 0.288,-0.297 0.538,-0.551 0.538,-0.793 l 0.179,0 c 0,0.314 -0.273,0.595 -0.589,0.918 l 0.237,0.142 0.168,0.094 0.53,0.297 c 0.077,-0.084 0.15,-0.178 0.224,-0.272 0.223,-0.287 0.454,-0.582 0.82,-0.582 l 0,0.178 c -0.279,0 -0.473,0.25 -0.679,0.514 -0.064,0.084 -0.137,0.164 -0.205,0.25 -0.097,0.125 -0.246,0.267 -0.445,0.344 -0.096,0.037 -0.198,0.058 -0.314,0.058 -0.228,0 -0.335,-0.232 -0.343,-0.41 l 0.205,0.109 c 0.024,0.063 0.065,0.123 0.138,0.123 0.028,0 0.055,-0.003 0.081,-0.005 L 34.483,65.109 34.278,65 33.902,64.799 c -0.24,0.289 -0.432,0.615 -0.432,1 0,0.418 0.308,0.642 0.598,0.642 l 0,0.18 c -0.377,0 -0.777,-0.288 -0.777,-0.822 0,-0.43 0.199,-0.779 0.449,-1.086 l -1.38,-0.736 -0.195,-0.104 -1.96,-1.047 -0.173,-0.092 -0.922,-0.486 c -0.04,-0.019 -0.025,-0.072 0.005,-0.064 0.03,0.007 0.281,0.062 0.394,0.076 l 0.454,0.236 4.975,2.652 c 0.051,-0.025 0.095,-0.058 0.146,-0.099 l -4.611,-2.572 c -0.123,0.035 -0.311,0.035 -0.51,0.019 L 29.509,62.26 c 0.434,0.066 0.678,0.074 0.814,0.062 l -0.008,-0.008 c 0.607,-0.716 1.735,-1.234 3.279,-1.521 0.065,-0.105 0.149,-0.182 0.2,-0.314 0.028,-0.069 0.031,-0.256 0.023,-0.297 -0.007,-0.041 0.012,-0.045 0.03,-0.045 0.019,0 0.038,0.019 0.038,0.049 0,0.029 0.074,0.281 0.089,0.341 0.014,0.043 0.036,0.11 0.068,0.188 l 0.078,0.17 c 0.1,0.193 0.31,0.447 0.504,0.515 0.063,0.016 0.179,0.063 0.221,0.08 0.028,0.014 0.09,0.034 0.082,0.057 -0.008,0.024 -0.048,0.027 -0.101,0.016 -0.052,-0.012 -0.223,-0.028 -0.295,-0.028 -0.125,0 -0.374,0.123 -0.374,0.286 0,0.3 0.381,0.431 0.782,0.57 0.428,0.146 0.905,0.312 0.995,0.732 0.293,-0.011 0.597,-0.017 0.912,-0.017 l 0,0.177 z" style="fill:#231f20;fill-opacity:1;fill-rule:nonzero;stroke:none" id="path2602"/>
        <path d="m 46.732,86.482 c 0,0.168 0.138,0.305 0.305,0.305 0.068,0 0.131,-0.024 0.182,-0.062 l -0.012,0.033 c -0.055,0.14 -0.166,0.433 -1.37,0.921 -1.249,0.506 -1.58,1.606 -1.475,2.468 l 0.031,0.257 0.135,-0.22 c 0.203,-0.335 0.762,-0.826 1.238,-0.995 l -0.06,-0.168 c -0.428,0.152 -0.903,0.53 -1.182,0.866 -0.013,-0.751 0.339,-1.621 1.38,-2.042 0.856,-0.347 1.203,-0.607 1.365,-0.827 0.012,0.064 0.021,0.136 0.021,0.207 0,1.009 -1.172,1.651 -1.584,1.796 l 0.06,0.168 c 0.186,-0.064 0.516,-0.226 0.837,-0.473 -0.028,0.055 -0.057,0.108 -0.086,0.163 -0.011,0.01 -0.02,0.019 -0.031,0.03 -0.327,0.333 -0.685,0.7 -0.86,1.171 -0.035,-0.129 -0.151,-0.226 -0.292,-0.226 l 0,0.179 c 0.068,0 0.124,0.057 0.124,0.125 0,0.069 -0.056,0.125 -0.124,0.125 -0.069,0 -0.126,-0.056 -0.126,-0.125 0,-0.068 0.057,-0.125 0.126,-0.125 l 0,-0.179 c -0.167,0 -0.304,0.136 -0.304,0.304 0,0.168 0.137,0.303 0.304,0.303 0.083,0 0.158,-0.033 0.213,-0.087 -0.003,0.015 -0.006,0.026 -0.008,0.042 -0.033,0.044 -0.065,0.088 -0.099,0.131 l -0.062,0.142 -0.045,0.07 c -0.151,0.063 -0.359,0.11 -0.585,0.159 l 0.039,0.176 c 0.275,-0.084 0.559,-0.119 0.701,-0.209 -0.389,1.377 -1.261,1.672 -1.909,1.891 -0.267,0.09 -0.509,0.173 -0.67,0.314 -0.072,-1.567 1.004,-1.805 1.878,-1.996 l -0.039,-0.176 c -0.448,0.1 -1.007,0.222 -1.418,0.56 -0.484,0.399 -0.675,1.009 -0.581,1.866 l 0.037,0.34 0.134,-0.315 c 0.092,-0.212 0.367,-0.305 0.716,-0.424 0.624,-0.211 1.445,-0.489 1.899,-1.638 0.027,0.411 0.078,0.722 0.183,0.984 l 0.142,0.373 0.039,-0.447 c 0.051,-0.268 0.549,-0.819 1.011,-1.315 l -0.132,-0.121 c -0.478,0.512 -0.808,0.893 -0.962,1.17 -0.073,-0.246 -0.118,-0.601 -0.12,-1.244 0,-0.021 0.002,-0.059 0.002,-0.064 0.013,-0.689 0.472,-1.157 0.916,-1.608 0.203,-0.206 0.399,-0.406 0.545,-0.619 10e-4,0.229 0.02,0.447 0.035,0.626 0.011,0.134 0.021,0.249 0.021,0.333 0,0.607 -0.148,1.08 -0.437,1.406 l 0.132,0.121 c 0.322,-0.361 0.485,-0.874 0.485,-1.527 0,-0.092 -0.01,-0.211 -0.022,-0.348 -0.023,-0.261 -0.05,-0.577 -0.025,-0.889 0.159,-0.358 0.305,-0.724 0.437,-1.101 0.063,0.261 0.122,0.555 0.16,0.904 -0.002,0.155 -0.016,0.409 -0.03,0.465 0.071,-0.039 0.258,-0.221 0.332,-0.329 0.338,-0.366 0.642,-1.141 0.642,-2.094 l -0.18,0 c 0,0.89 -0.282,1.626 -0.584,1.962 -0.056,-0.549 -0.165,-0.959 -0.262,-1.324 -0.091,-0.34 -0.17,-0.633 -0.17,-0.936 l -0.178,0 c 0,0.202 0.03,0.395 0.076,0.595 -0.058,0.191 -0.119,0.379 -0.183,0.566 -0.012,-0.037 -0.025,-0.071 -0.038,-0.096 l -0.064,-0.129 c 0.021,-0.042 0.035,-0.089 0.035,-0.139 0,-0.168 -0.137,-0.302 -0.304,-0.302 -0.167,0 -0.305,0.134 -0.305,0.302 l 0.18,0 c 0,-0.068 0.056,-0.123 0.125,-0.123 0.068,0 0.124,0.055 0.124,0.123 0,0.071 -0.056,0.125 -0.124,0.125 -0.069,0 -0.125,-0.054 -0.125,-0.125 l -0.18,0 z" style="fill:#231f20;fill-opacity:1;fill-rule:nonzero;stroke:none" id="path2604"/>
        <path d="m 45.335,72.27 c 0.052,0.064 0.103,0.129 0.155,0.195 0.218,0.096 0.452,0.145 0.682,0.194 0.366,0.077 0.711,0.152 0.957,0.398 0.234,0.234 0.493,0.59 0.744,0.935 l -0.146,0.106 c -0.246,-0.34 -0.499,-0.691 -0.725,-0.914 -0.208,-0.209 -0.528,-0.278 -0.868,-0.35 -0.166,-0.035 -0.335,-0.071 -0.5,-0.124 0.218,0.27 0.493,0.686 0.808,1.278 0.507,0.95 1.512,1.088 2,0.991 -0.203,-0.174 -0.446,-0.508 -0.715,-0.881 l 0.146,-0.106 c 0.307,0.427 0.627,0.869 0.806,0.932 l 0.208,0.072 -0.199,0.094 c -0.212,0.098 -0.657,0.142 -1.133,0.008 -0.141,-0.041 -0.302,-0.104 -0.466,-0.195 0.015,0.029 0.031,0.056 0.046,0.083 l 0.011,0.004 c 1.715,0.388 2.007,1.427 2.242,2.264 l -0.173,0.048 c -0.226,-0.806 -0.482,-1.715 -1.963,-2.103 l 0.009,0.053 c 0.008,-0.002 0.014,-0.003 0.014,-0.003 0.344,0.522 1.031,0.762 1.142,1.292 -0.298,-0.491 -0.826,-0.65 -1.134,-1.143 0.008,0.066 0.015,0.131 0.022,0.191 0.008,0.091 0.018,0.177 0.027,0.214 0.043,0.167 0.093,0.324 0.151,0.47 0.35,0.28 0.498,0.636 0.553,0.944 0.534,0.637 1.186,0.898 1.537,0.98 -0.174,-0.244 -0.264,-0.563 -0.358,-0.895 l 0.173,-0.048 c 0.117,0.417 0.219,0.779 0.471,0.998 l 0.168,0.145 -0.223,0.011 c -0.165,0.009 -0.687,-0.099 -1.248,-0.484 -0.103,-0.07 -0.213,-0.155 -0.325,-0.256 0.037,0.126 0.072,0.252 0.103,0.379 0.07,0.057 0.148,0.119 0.231,0.185 0.49,0.387 1.16,0.916 1.16,1.7 l -0.18,0 c 0,-0.696 -0.605,-1.175 -1.091,-1.559 -0.127,-0.102 -0.244,-0.193 -0.338,-0.282 l -0.158,0.176 c -0.128,0.349 -0.338,0.674 -0.536,0.948 0.055,-0.055 0.13,-0.088 0.213,-0.088 0.166,0 0.304,0.137 0.304,0.304 0,0.168 -0.138,0.303 -0.304,0.303 l 0,-0.178 c 0.068,0 0.124,-0.056 0.124,-0.125 0,-0.069 -0.056,-0.124 -0.124,-0.124 -0.069,0 -0.125,0.055 -0.125,0.124 0,0.069 0.056,0.125 0.125,0.125 l 0,0.178 c -0.168,0 -0.305,-0.135 -0.305,-0.303 0,-0.052 0.015,-0.099 0.037,-0.142 -0.05,0.068 -0.098,0.132 -0.144,0.191 -0.117,0.157 -0.218,0.29 -0.255,0.371 0,0 -0.086,0.188 -0.086,0.187 l -0.079,-0.192 -0.021,-0.051 c -0.084,-0.205 -0.311,-0.753 -0.311,-1.183 0,-0.366 0.204,-0.685 0.42,-1.022 l 0.151,0.098 c -0.201,0.313 -0.391,0.611 -0.391,0.924 0,0.334 0.155,0.76 0.251,1.002 0.049,-0.07 0.11,-0.151 0.179,-0.241 0.327,-0.434 0.822,-1.086 0.822,-1.741 0,-0.382 -0.128,-0.708 -0.388,-0.995 -0.014,0.101 -0.038,0.198 -0.07,0.291 0.13,0.756 -0.36,0.933 -0.439,1.57 0.03,-0.719 0.47,-0.977 0.364,-1.383 -0.091,0.201 -0.21,0.389 -0.328,0.573 L 46.891,77.59 c 0.225,-0.352 0.459,-0.717 0.459,-1.153 l 0,-0.015 c -0.004,-0.009 -0.008,-0.018 -0.011,-0.027 -0.058,-0.138 -0.119,-0.278 -0.182,-0.415 -0.043,0.116 -0.154,0.2 -0.284,0.2 l 0,-0.18 c 0.068,0 0.124,-0.056 0.124,-0.125 0,-0.068 -0.056,-0.124 -0.124,-0.124 -0.07,0 -0.125,0.056 -0.125,0.124 0,0.069 0.055,0.125 0.125,0.125 l 0,0.18 c -0.144,0 -0.263,-0.1 -0.295,-0.233 -0.037,0.117 -0.077,0.227 -0.115,0.332 l -0.014,0.039 0.001,0.002 c -0.017,0.042 -0.054,0.289 -0.052,0.442 -0.042,-0.132 -0.107,-0.378 -0.205,-0.552 -0.042,-0.065 -0.099,-0.14 -0.154,-0.216 -0.305,-0.41 -0.766,-1.029 -0.766,-1.844 l 0.18,0 c 0,0.754 0.438,1.346 0.73,1.737 0.06,0.082 0.113,0.152 0.154,0.215 0.115,-0.322 0.221,-0.668 0.221,-1.16 l 0.174,0.179 c -0.01,0.201 -0.039,0.379 -0.077,0.543 0.056,-0.057 0.133,-0.093 0.218,-0.093 0.035,0 0.068,0.007 0.099,0.019 -0.077,-0.156 -0.157,-0.313 -0.24,-0.469 l -0.174,-0.179 c 0,-0.516 -0.667,-1.831 -1.289,-2.317 0.76,1.099 0.564,1.533 0.535,1.75 0,-0.404 -0.083,-0.912 -0.388,-1.36 -0.041,-0.058 -0.074,-0.124 -0.103,-0.192 0.092,0.469 0.14,1.077 0.14,1.327 l -0.18,0 c 0,-0.281 -0.066,-1.074 -0.189,-1.523 -0.012,-0.016 -0.025,-0.031 -0.037,-0.047 0.024,0.042 0.038,0.09 0.038,0.143 0,0.168 -0.137,0.304 -0.304,0.304 l 0,-0.179 c 0.068,0 0.124,-0.057 0.124,-0.125 0,-0.069 -0.056,-0.125 -0.124,-0.125 -0.069,0 -0.125,0.056 -0.125,0.125 0,0.068 0.056,0.125 0.125,0.125 l 0,0.179 c -0.167,0 -0.304,-0.136 -0.304,-0.304 0,-0.167 0.137,-0.305 0.304,-0.305 0.076,0 0.146,0.031 0.2,0.078 l 0.354,-0.226 z" style="fill:#231f20;fill-opacity:1;fill-rule:nonzero;stroke:none" id="path2606"/>
        <path d="m 47.958,78.267 c 0.07,0.282 0.13,0.566 0.179,0.848 l -0.085,0.013 c -0.035,0.622 -0.382,1.069 -0.717,1.502 l 0.142,0.11 c 0.278,-0.361 0.565,-0.732 0.69,-1.207 0.022,0.091 0.044,0.194 0.063,0.305 -0.179,0.429 -0.407,1.088 -0.742,1.469 0.372,-0.314 0.621,-0.84 0.768,-1.292 0.021,0.17 0.035,0.356 0.035,0.561 0,0.93 -0.345,1.242 -0.709,1.571 -0.208,0.189 -0.422,0.382 -0.575,0.691 -0.082,-0.154 -0.194,-0.363 -0.194,-0.664 0,-0.575 0.322,-0.992 0.664,-1.434 l -0.142,-0.11 c -0.346,0.446 -0.702,0.907 -0.702,1.544 0,0.333 0.095,0.525 0.181,0.684 0.048,0.081 0.159,0.365 0.182,0.484 0.007,-0.068 0.082,-0.209 0.112,-0.277 l -0.004,-0.001 c 0.105,-0.281 0.263,-0.466 0.436,-0.634 0.006,0.162 0.139,0.293 0.304,0.293 l 0,-0.179 c -0.07,0 -0.126,-0.056 -0.126,-0.124 0,-0.069 0.056,-0.125 0.126,-0.125 0.069,0 0.124,0.056 0.124,0.125 0,0.068 -0.055,0.124 -0.124,0.124 l 0,0.179 c 0.092,0 0.173,-0.041 0.229,-0.106 -0.233,0.436 -0.547,0.627 -0.849,0.809 l 0.093,0.154 c 0.265,-0.16 0.559,-0.339 0.799,-0.689 0.007,0.082 0.01,0.155 0.009,0.221 -0.183,0.426 -1.254,1.572 -1.175,2.23 0.092,-0.698 0.913,-1.508 1.158,-2.008 -0.011,0.075 -0.024,0.138 -0.036,0.193 -0.019,0.082 -0.035,0.153 -0.035,0.23 0,0.876 -0.553,1.413 -0.996,1.844 -0.123,0.12 -0.235,0.227 -0.322,0.333 -0.047,-0.25 -0.116,-0.723 -0.116,-1.22 0,-0.703 0.315,-0.894 0.714,-1.134 l -0.093,-0.154 c -0.411,0.249 -0.801,0.484 -0.801,1.288 0,0.718 0.136,1.38 0.171,1.467 l 0.071,0.176 0.091,-0.166 c 0.074,-0.134 0.229,-0.287 0.41,-0.462 0.118,-0.114 0.246,-0.239 0.372,-0.379 -0.016,0.118 -0.023,0.231 -0.023,0.335 l 0.178,0 c 0,-0.169 0.025,-0.364 0.065,-0.566 0.133,-0.183 0.329,-0.531 0.424,-1.017 0.045,0.169 0.116,0.349 0.193,0.542 0.157,0.389 0.334,0.832 0.334,1.339 l 0.18,0 c 0,-0.542 -0.184,-1.002 -0.347,-1.406 -0.028,-0.071 -0.055,-0.139 -0.081,-0.206 0.024,-0.142 0.047,-0.288 0.067,-0.434 0.136,0.276 0.314,0.536 0.481,0.779 0.041,0.059 0.08,0.116 0.118,0.173 0.083,0.15 0.157,0.601 0.157,0.699 0.052,-0.143 0.127,-0.4 0.189,-0.563 0.023,-0.049 0.034,-0.08 0.064,-0.142 0.176,-0.37 0.442,-0.93 0.442,-1.588 l -0.179,0 c 0,0.617 -0.256,1.155 -0.425,1.512 -0.013,0.026 -0.025,0.05 -0.037,0.076 -0.056,-0.087 -0.117,-0.176 -0.181,-0.27 -0.325,-0.47 -0.694,-1.006 -0.672,-1.585 0.015,-0.417 0.118,-0.942 0.192,-1.327 0.007,-0.036 0.014,-0.072 0.02,-0.105 L 48.3,81.533 c -0.007,0.35 -0.023,0.695 -0.047,1.034 l -0.039,-0.227 -0.075,0.148 c 0.005,-0.022 0.008,-0.046 0.008,-0.068 0,-0.157 -0.119,-0.285 -0.27,-0.301 0.162,-0.158 0.314,-0.335 0.423,-0.586 l 0.397,0.063 c 0.279,0.533 0.256,0.904 0.453,1.543 -0.05,-0.618 -0.086,-1.079 -0.382,-1.572 0.102,0.126 0.216,0.24 0.329,0.351 0.346,0.338 0.703,0.689 0.703,1.377 l 0.179,0 c 0,-0.763 -0.402,-1.157 -0.757,-1.506 -0.185,-0.182 -0.362,-0.355 -0.478,-0.57 l -0.021,-0.036 c 10e-4,-0.038 10e-4,-0.076 10e-4,-0.115 l 0,-0.018 c 0.112,0.153 0.234,0.274 0.349,0.368 0.399,0.324 0.859,0.442 1.071,0.442 l 0.268,0 -0.214,-0.161 c -0.148,-0.111 -0.473,-0.71 -0.473,-1.767 l -0.18,0 c 0,0.802 0.192,1.404 0.382,1.714 -0.477,-0.119 -1.442,-0.596 -1.442,-1.998 0,-0.364 -0.101,-0.652 -0.197,-0.929 -0.017,-0.049 -0.034,-0.096 -0.049,-0.141 0.277,0.401 0.592,0.545 0.769,1.115 -0.052,-0.65 -0.5,-0.851 -0.844,-1.374 l -0.002,0 C 48.143,78.246 48.127,78.17 48.116,78.091 l -0.158,0.176 z" style="fill:#231f20;fill-opacity:1;fill-rule:nonzero;stroke:none" id="path2608"/>
        <path d="m 39.534,67.537 -0.024,0.047 -0.088,0.162 c 0.278,0.149 0.582,0.326 0.906,0.535 0.403,0.451 0.57,0.993 0.634,1.201 l 0.014,0.045 c 0.185,0.872 0.553,1.448 1.146,1.785 l 0.073,-0.166 c -0.538,-0.314 -0.873,-0.849 -1.045,-1.661 0,-0.003 -0.002,-0.006 -0.003,-0.008 L 41.133,69.43 c -0.059,-0.192 -0.199,-0.653 -0.522,-1.086 0.763,0.263 1.226,1.049 1.288,1.312 0.032,0.164 0.056,0.34 0.078,0.51 0.044,0.34 0.09,0.687 0.218,0.98 l -0.073,0.166 c 0.211,0.147 0.541,0.439 0.673,0.545 -0.047,-0.063 -0.185,-0.33 -0.289,-0.516 -0.002,-0.013 -0.006,-0.027 -0.015,-0.038 -0.014,-0.019 -0.027,-0.038 -0.039,-0.058 -0.005,-0.009 -0.011,-0.016 -0.015,-0.024 l -0.002,0 c -0.116,-0.189 -0.178,-0.419 -0.222,-0.67 0.053,0.095 0.152,0.16 0.267,0.16 l 0,-0.18 c -0.068,0 -0.125,-0.055 -0.125,-0.124 0,-0.069 0.057,-0.124 0.125,-0.124 0.069,0 0.124,0.055 0.124,0.124 0,0.069 -0.055,0.124 -0.124,0.124 l 0,0.18 c 0.168,0 0.304,-0.137 0.304,-0.304 0,-0.168 -0.136,-0.303 -0.304,-0.303 -0.147,0 -0.27,0.103 -0.298,0.244 -0.01,-0.069 -0.019,-0.137 -0.028,-0.207 -0.023,-0.172 -0.045,-0.35 -0.08,-0.52 -0.005,-0.023 -0.011,-0.047 -0.018,-0.072 0.277,0.228 0.558,0.472 0.84,0.73 0.088,0.248 0.166,0.75 0.166,0.839 0,1.172 0.532,1.591 0.96,1.927 l 0.11,-0.141 c -0.418,-0.329 -0.891,-0.701 -0.891,-1.786 0,-0.063 -0.037,-0.345 -0.095,-0.606 0.006,0.006 0.013,0.011 0.021,0.015 0.448,0.299 0.149,0.95 0.47,1.315 -0.262,-0.492 0.134,-0.852 -0.433,-1.442 -0.02,-0.023 -0.062,-0.063 -0.105,-0.106 1.243,0.519 1.21,1.362 1.179,2.112 -0.008,0.219 -0.017,0.43 0.008,0.621 -0.05,-0.041 -0.101,-0.082 -0.154,-0.123 l -0.11,0.141 c 0.091,0.072 0.175,0.139 0.248,0.207 0.149,0.149 0.288,0.404 0.328,0.609 0.029,-0.095 0.01,-0.461 -0.046,-0.56 -0.121,-0.223 -0.109,-0.531 -0.094,-0.888 0.006,-0.171 0.014,-0.35 0.006,-0.532 0.175,0.199 0.348,0.404 0.517,0.615 l 0.354,-0.226 c 0.233,0.067 0.447,0.086 0.657,0.106 0.286,0.026 0.582,0.052 0.935,0.199 l 0.214,0.089 -0.099,-0.209 C 46.13,70.509 45.094,70.51 44.336,70.51 l 0,0.178 c 0.722,0 1.611,10e-4 2.448,1.645 -0.286,-0.09 -0.535,-0.114 -0.777,-0.136 -0.334,-0.03 -0.65,-0.058 -1.036,-0.272 -0.226,-0.126 -0.401,-0.329 -0.596,-0.616 -0.067,-0.202 -0.178,-0.427 -0.359,-0.627 0.103,0.006 0.21,0.006 0.32,0.006 l 0,-0.178 c -0.19,0 -0.372,0 -0.523,-0.033 L 43.777,70.47 c -0.07,-0.054 -0.148,-0.105 -0.233,-0.156 -0.276,-0.265 -0.553,-0.517 -0.828,-0.755 0.086,0.004 0.172,0.005 0.256,0.005 0.456,0 0.84,0.077 1.03,0.161 0.023,0.012 0.047,0.025 0.071,0.039 0.005,0.002 0.009,0.004 0.012,0.007 0.005,0.003 0.011,0.006 0.017,0.008 0.142,0.077 0.299,0.17 0.356,0.215 -0.053,-0.185 -0.374,-0.545 -0.493,-0.663 -0.482,-0.604 -1.224,-1.411 -2.053,-1.411 l 0,0.18 c 0.771,0 1.488,0.804 1.949,1.388 -0.241,-0.064 -0.561,-0.103 -0.889,-0.103 -0.357,0 -0.75,-0.023 -1.066,-0.169 -0.173,-0.324 -0.829,-0.999 -1.39,-1.103 0.25,0.049 0.487,0.032 0.768,0.013 0.18,-0.013 0.385,-0.026 0.628,-0.026 l 0,-0.18 c -0.249,0 -0.457,0.016 -0.64,0.027 -0.267,0.018 -0.481,0.032 -0.701,-0.006 -0.322,-0.209 -0.625,-0.386 -0.903,-0.537 l -0.134,0.133 z" style="fill:#231f20;fill-opacity:1;fill-rule:nonzero;stroke:none" id="path2610"/>
        <path d="m 41.352,68.459 c 0.425,0.283 1.09,-0.045 1.382,0.426 -0.464,-0.315 -0.972,-0.053 -1.42,-0.352 -0.052,-0.059 0.038,-0.074 0.038,-0.074" style="fill:#231f20;fill-opacity:1;fill-rule:nonzero;stroke:none" id="path2612"/>
        <path d="m 41.426,69.826 c -0.052,-0.255 -0.314,-0.941 -0.493,-1.211 l 0.105,0.061 c 0.216,0.223 0.411,1.008 0.433,1.09 0.022,0.082 -0.037,0.082 -0.045,0.06" style="fill:#231f20;fill-opacity:1;fill-rule:nonzero;stroke:none" id="path2614"/>
        <path d="m 44.28,70.9 c 0.426,0.285 0.814,0.061 1.27,0.674 -0.494,-0.463 -0.859,-0.3 -1.308,-0.597 C 44.189,70.916 44.28,70.9 44.28,70.9" style="fill:#231f20;fill-opacity:1;fill-rule:nonzero;stroke:none" id="path2616"/>
        <path d="m 46.02,73.068 c 0.425,0.284 0.777,0.268 1.039,0.813 -0.314,-0.402 -0.718,-0.529 -1.077,-0.738 -0.051,-0.061 0.038,-0.075 0.038,-0.075" style="fill:#231f20;fill-opacity:1;fill-rule:nonzero;stroke:none" id="path2618"/>
        <path d="m 48.202,84.512 c -0.015,0.545 0.134,1.248 0.149,1.793 -0.164,-0.696 -0.307,-1.405 -0.247,-1.756 0.023,-0.106 0.098,-0.037 0.098,-0.037" style="fill:#231f20;fill-opacity:1;fill-rule:nonzero;stroke:none" id="path2620"/>
        <path d="m 46.365,88.244 c -0.414,0.311 -0.77,0.354 -0.962,0.541 0.042,-0.194 0.42,-0.228 0.878,-0.58 0.234,-0.18 0.374,-0.504 0.714,-0.795 0,0 0.101,-0.008 0.045,0.075 -0.317,0.307 -0.447,0.589 -0.675,0.759" style="fill:#231f20;fill-opacity:1;fill-rule:nonzero;stroke:none" id="path2622"/>
        <path d="m 46.901,88.807 c 0,0 0.09,0.03 0.061,0.12 -0.03,0.09 -0.091,0.432 -0.091,0.731 0,0.412 -0.229,0.612 -0.475,0.845 l -0.103,-0.011 c 0.245,-0.293 0.474,-0.418 0.474,-0.744 0,-0.433 0.075,-0.792 0.134,-0.941" style="fill:#231f20;fill-opacity:1;fill-rule:nonzero;stroke:none" id="path2624"/>
        <path d="m 46.198,90.613 0.055,0.034 c -0.106,0.111 -0.209,0.239 -0.293,0.402 0.072,-0.18 0.155,-0.32 0.238,-0.436" style="fill:#231f20;fill-opacity:1;fill-rule:nonzero;stroke:none" id="path2626"/>
        <path d="m 45.198,91.152 c -0.373,0.614 -0.851,0.479 -1.27,0.733 0.284,-0.389 0.763,-0.164 1.27,-0.733" style="fill:#231f20;fill-opacity:1;fill-rule:nonzero;stroke:none" id="path2628"/>
        <path d="m 40.284,68.938 c 0.069,0 0.124,0.056 0.124,0.125 0,0.068 -0.055,0.125 -0.124,0.125 -0.069,0 -0.125,-0.057 -0.125,-0.125 0,-0.069 0.056,-0.125 0.125,-0.125 l 0,-0.18 c -0.168,0 -0.305,0.137 -0.305,0.305 0,0.167 0.137,0.304 0.305,0.304 0.168,0 0.304,-0.137 0.304,-0.304 0,-0.168 -0.136,-0.305 -0.304,-0.305 l 0,0.18 z" style="fill:#231f20;fill-opacity:1;fill-rule:nonzero;stroke:none" id="path2630"/>
        <path d="m 26.781,86.482 c 0,0.071 -0.055,0.125 -0.124,0.125 -0.069,0 -0.125,-0.054 -0.125,-0.125 0,-0.068 0.056,-0.123 0.125,-0.123 0.069,0 0.124,0.055 0.124,0.123 l 0.179,0 c 0,-0.168 -0.136,-0.302 -0.303,-0.302 -0.168,0 -0.304,0.134 -0.304,0.302 0,0.05 0.013,0.097 0.035,0.139 l -0.065,0.129 c -0.012,0.025 -0.026,0.059 -0.038,0.096 -0.064,-0.187 -0.125,-0.375 -0.182,-0.566 0.045,-0.2 0.077,-0.393 0.077,-0.595 l -0.18,0 c 0,0.303 -0.079,0.596 -0.169,0.936 -0.098,0.365 -0.207,0.775 -0.263,1.324 -0.302,-0.336 -0.584,-1.072 -0.584,-1.962 l -0.178,0 c 0,0.953 0.303,1.728 0.64,2.094 0.075,0.108 0.262,0.29 0.333,0.329 -0.015,-0.056 -0.029,-0.31 -0.03,-0.465 0.037,-0.349 0.096,-0.643 0.16,-0.904 0.132,0.377 0.278,0.743 0.437,1.101 0.024,0.312 -0.003,0.628 -0.025,0.889 -0.011,0.137 -0.022,0.256 -0.022,0.348 0,0.653 0.163,1.166 0.485,1.527 l 0.133,-0.121 c -0.292,-0.326 -0.438,-0.799 -0.438,-1.406 0,-0.084 0.009,-0.199 0.021,-0.333 0.015,-0.179 0.034,-0.397 0.034,-0.626 0.146,0.213 0.342,0.413 0.546,0.619 0.443,0.451 0.902,0.919 0.916,1.608 0,0.005 0.001,0.043 0.001,0.064 -0.002,0.643 -0.046,0.998 -0.119,1.244 -0.154,-0.277 -0.484,-0.658 -0.961,-1.17 l -0.133,0.121 c 0.462,0.496 0.959,1.047 1.01,1.315 l 0.039,0.447 0.142,-0.373 c 0.105,-0.262 0.155,-0.573 0.183,-0.984 0.455,1.149 1.276,1.427 1.899,1.638 0.349,0.119 0.626,0.212 0.716,0.424 l 0.134,0.315 0.038,-0.34 c 0.094,-0.857 -0.096,-1.467 -0.581,-1.866 -0.412,-0.338 -0.969,-0.46 -1.418,-0.56 l -0.039,0.176 c 0.873,0.191 1.949,0.429 1.877,1.996 -0.161,-0.141 -0.402,-0.224 -0.669,-0.314 -0.648,-0.219 -1.519,-0.514 -1.91,-1.891 0.142,0.09 0.426,0.125 0.702,0.209 l 0.039,-0.176 C 28.719,90.869 28.513,90.822 28.36,90.759 l -0.044,-0.07 -0.063,-0.142 C 28.22,90.504 28.188,90.46 28.155,90.416 28.152,90.4 28.149,90.389 28.147,90.374 c 0.055,0.054 0.13,0.087 0.213,0.087 0.168,0 0.304,-0.135 0.304,-0.303 0,-0.168 -0.136,-0.304 -0.304,-0.304 l 0,0.179 c 0.069,0 0.124,0.057 0.124,0.125 0,0.069 -0.055,0.125 -0.124,0.125 -0.068,0 -0.125,-0.056 -0.125,-0.125 0,-0.068 0.057,-0.125 0.125,-0.125 l 0,-0.179 c -0.14,0 -0.258,0.097 -0.293,0.226 -0.173,-0.471 -0.531,-0.838 -0.859,-1.171 -0.011,-0.011 -0.021,-0.02 -0.032,-0.03 -0.029,-0.055 -0.057,-0.108 -0.086,-0.163 0.322,0.247 0.652,0.409 0.837,0.473 l 0.06,-0.168 c -0.411,-0.145 -1.584,-0.787 -1.584,-1.796 0,-0.071 0.009,-0.143 0.023,-0.207 0.16,0.22 0.507,0.48 1.363,0.827 1.042,0.421 1.394,1.291 1.38,2.042 -0.279,-0.336 -0.754,-0.714 -1.182,-0.866 l -0.06,0.168 c 0.476,0.169 1.035,0.66 1.239,0.995 l 0.133,0.22 0.032,-0.257 c 0.106,-0.862 -0.226,-1.962 -1.475,-2.468 -1.202,-0.488 -1.315,-0.781 -1.368,-0.921 l -0.014,-0.033 c 0.051,0.038 0.114,0.062 0.183,0.062 0.167,0 0.303,-0.137 0.303,-0.305 l -0.179,0 z" style="fill:#231f20;fill-opacity:1;fill-rule:nonzero;stroke:none" id="path2714"/>
        <path d="m 28.713,72.496 c 0.053,-0.047 0.122,-0.078 0.2,-0.078 0.167,0 0.303,0.138 0.303,0.305 0,0.168 -0.136,0.304 -0.303,0.304 l 0,-0.179 c 0.068,0 0.124,-0.057 0.124,-0.125 0,-0.069 -0.056,-0.125 -0.124,-0.125 -0.069,0 -0.125,0.056 -0.125,0.125 0,0.068 0.056,0.125 0.125,0.125 l 0,0.179 c -0.168,0 -0.304,-0.136 -0.304,-0.304 0,-0.053 0.014,-0.101 0.037,-0.143 -0.012,0.016 -0.025,0.031 -0.037,0.047 -0.123,0.449 -0.189,1.242 -0.189,1.523 l -0.179,0 c 0,-0.25 0.047,-0.858 0.14,-1.327 -0.029,0.068 -0.062,0.134 -0.103,0.192 -0.306,0.448 -0.388,0.956 -0.388,1.36 -0.029,-0.217 -0.226,-0.651 0.534,-1.75 -0.622,0.486 -1.289,1.801 -1.289,2.317 l -0.173,0.179 c -0.084,0.156 -0.163,0.313 -0.24,0.469 0.031,-0.012 0.065,-0.019 0.099,-0.019 0.085,0 0.162,0.036 0.217,0.093 -0.037,-0.164 -0.066,-0.342 -0.076,-0.543 l 0.173,-0.179 c 0,0.492 0.107,0.838 0.222,1.16 0.041,-0.063 0.093,-0.133 0.154,-0.215 0.291,-0.391 0.73,-0.983 0.73,-1.737 l 0.179,0 c 0,0.815 -0.46,1.434 -0.765,1.844 -0.056,0.076 -0.112,0.151 -0.154,0.216 -0.098,0.174 -0.163,0.42 -0.206,0.552 0.003,-0.153 -0.034,-0.4 -0.052,-0.442 l 0.001,-0.002 -0.014,-0.039 c -0.037,-0.105 -0.077,-0.215 -0.114,-0.332 -0.033,0.133 -0.152,0.233 -0.295,0.233 l 0,-0.18 c 0.068,0 0.124,-0.056 0.124,-0.125 0,-0.068 -0.056,-0.124 -0.124,-0.124 -0.069,0 -0.125,0.056 -0.125,0.124 0,0.069 0.056,0.125 0.125,0.125 l 0,0.18 c -0.131,0 -0.241,-0.084 -0.284,-0.2 -0.063,0.137 -0.125,0.277 -0.183,0.415 -0.003,0.009 -0.007,0.018 -0.01,0.027 l 0,0.015 c 0,0.436 0.233,0.801 0.459,1.153 l -0.151,0.098 c -0.118,-0.184 -0.237,-0.372 -0.329,-0.573 -0.106,0.406 0.335,0.664 0.364,1.383 -0.079,-0.637 -0.568,-0.814 -0.438,-1.57 -0.032,-0.093 -0.056,-0.19 -0.07,-0.291 -0.261,0.287 -0.387,0.613 -0.387,0.995 0,0.655 0.493,1.307 0.821,1.741 0.069,0.09 0.13,0.171 0.178,0.241 0.097,-0.242 0.252,-0.668 0.252,-1.002 0,-0.313 -0.19,-0.611 -0.391,-0.924 l 0.151,-0.098 c 0.216,0.337 0.419,0.656 0.419,1.022 0,0.43 -0.225,0.978 -0.311,1.183 l -0.021,0.051 -0.078,0.192 c -0.001,0.001 -0.086,-0.187 -0.086,-0.187 -0.038,-0.081 -0.139,-0.214 -0.257,-0.371 -0.045,-0.059 -0.093,-0.123 -0.143,-0.191 0.023,0.043 0.037,0.09 0.037,0.142 0,0.168 -0.136,0.303 -0.304,0.303 l 0,-0.178 c 0.069,0 0.125,-0.056 0.125,-0.125 0,-0.069 -0.056,-0.124 -0.125,-0.124 -0.068,0 -0.124,0.055 -0.124,0.124 0,0.069 0.056,0.125 0.124,0.125 l 0,0.178 c -0.168,0 -0.304,-0.135 -0.304,-0.303 0,-0.167 0.136,-0.304 0.304,-0.304 0.083,0 0.157,0.033 0.212,0.088 -0.197,-0.274 -0.407,-0.599 -0.536,-0.948 l -0.158,-0.176 c -0.094,0.089 -0.211,0.18 -0.337,0.282 -0.488,0.384 -1.093,0.863 -1.093,1.559 l -0.179,0 c 0,-0.784 0.671,-1.313 1.16,-1.7 0.083,-0.066 0.162,-0.128 0.23,-0.185 0.033,-0.127 0.068,-0.253 0.104,-0.379 -0.111,0.101 -0.222,0.186 -0.324,0.256 -0.561,0.385 -1.084,0.493 -1.249,0.484 l -0.222,-0.011 0.167,-0.145 c 0.252,-0.219 0.354,-0.581 0.472,-0.998 l 0.172,0.048 c -0.094,0.332 -0.183,0.651 -0.356,0.895 0.35,-0.082 1.001,-0.343 1.535,-0.98 0.055,-0.308 0.204,-0.664 0.553,-0.944 0.058,-0.146 0.108,-0.303 0.151,-0.47 0.01,-0.037 0.018,-0.123 0.029,-0.214 0.006,-0.06 0.012,-0.125 0.021,-0.191 -0.308,0.493 -0.837,0.652 -1.136,1.143 0.113,-0.53 0.8,-0.77 1.143,-1.292 0,0 0.006,0.001 0.015,0.003 0.003,-0.018 0.006,-0.035 0.009,-0.053 -1.482,0.388 -1.738,1.297 -1.964,2.103 l -0.172,-0.048 c 0.235,-0.837 0.527,-1.876 2.242,-2.264 l 0.011,-0.004 c 0.015,-0.027 0.03,-0.054 0.045,-0.083 -0.163,0.091 -0.324,0.154 -0.465,0.195 -0.476,0.134 -0.921,0.09 -1.133,-0.008 l -0.199,-0.094 0.207,-0.072 c 0.179,-0.063 0.499,-0.505 0.808,-0.932 l 0.145,0.106 c -0.271,0.373 -0.512,0.707 -0.715,0.881 0.487,0.097 1.492,-0.041 1.998,-0.991 0.316,-0.592 0.592,-1.008 0.81,-1.278 -0.166,0.053 -0.335,0.089 -0.501,0.124 -0.339,0.072 -0.659,0.141 -0.868,0.35 -0.225,0.223 -0.478,0.574 -0.724,0.914 l -0.145,-0.106 c 0.249,-0.345 0.507,-0.701 0.742,-0.935 0.247,-0.246 0.592,-0.321 0.958,-0.398 0.229,-0.049 0.463,-0.098 0.683,-0.194 0.049,-0.066 0.101,-0.131 0.153,-0.195 l 0.355,0.226 z" style="fill:#231f20;fill-opacity:1;fill-rule:nonzero;stroke:none" id="path2716"/>
        <path d="m 25.577,78.091 c -0.011,0.079 -0.027,0.155 -0.045,0.228 l -0.003,0 c -0.343,0.523 -0.792,0.724 -0.843,1.374 0.177,-0.57 0.492,-0.714 0.769,-1.115 -0.017,0.045 -0.033,0.092 -0.049,0.141 -0.098,0.277 -0.198,0.565 -0.198,0.929 0,1.402 -0.964,1.879 -1.442,1.998 0.191,-0.31 0.381,-0.912 0.381,-1.714 l -0.179,0 c 0,1.057 -0.324,1.656 -0.472,1.767 l -0.215,0.161 0.269,0 c 0.212,0 0.672,-0.118 1.071,-0.442 0.114,-0.094 0.236,-0.215 0.349,-0.368 0,0.006 -10e-4,0.012 -10e-4,0.018 0,0.039 10e-4,0.077 10e-4,0.115 l -0.02,0.036 c -0.117,0.215 -0.293,0.388 -0.479,0.57 -0.355,0.349 -0.757,0.743 -0.757,1.506 l 0.18,0 c 0,-0.688 0.357,-1.039 0.702,-1.377 0.113,-0.111 0.228,-0.225 0.33,-0.351 -0.297,0.493 -0.334,0.954 -0.383,1.572 0.198,-0.639 0.174,-1.01 0.454,-1.543 l 0.396,-0.063 c 0.11,0.251 0.263,0.428 0.424,0.586 -0.152,0.016 -0.271,0.144 -0.271,0.301 0,0.022 0.004,0.046 0.008,0.068 L 25.479,82.34 25.44,82.567 C 25.416,82.228 25.4,81.883 25.393,81.533 l -0.396,0.063 c 0.006,0.033 0.012,0.069 0.02,0.105 0.074,0.385 0.176,0.91 0.191,1.327 0.022,0.579 -0.347,1.115 -0.671,1.585 -0.064,0.094 -0.126,0.183 -0.182,0.27 -0.012,-0.026 -0.024,-0.05 -0.036,-0.076 -0.17,-0.357 -0.425,-0.895 -0.425,-1.512 l -0.18,0 c 0,0.658 0.267,1.218 0.443,1.588 0.03,0.062 0.041,0.093 0.063,0.142 0.063,0.163 0.137,0.42 0.19,0.563 0,-0.098 0.073,-0.549 0.156,-0.699 0.038,-0.057 0.078,-0.114 0.119,-0.173 0.167,-0.243 0.345,-0.503 0.48,-0.779 0.021,0.146 0.043,0.292 0.068,0.434 -0.026,0.067 -0.053,0.135 -0.082,0.206 -0.162,0.404 -0.345,0.864 -0.345,1.406 l 0.178,0 c 0,-0.507 0.178,-0.95 0.333,-1.339 0.078,-0.193 0.15,-0.373 0.195,-0.542 0.094,0.486 0.29,0.834 0.425,1.017 0.039,0.202 0.063,0.397 0.063,0.566 l 0.18,0 c 0,-0.104 -0.01,-0.217 -0.025,-0.335 0.127,0.14 0.256,0.265 0.373,0.379 0.18,0.175 0.336,0.328 0.41,0.462 l 0.09,0.166 0.071,-0.176 c 0.035,-0.087 0.171,-0.749 0.171,-1.467 0,-0.804 -0.388,-1.039 -0.801,-1.288 l -0.092,0.154 c 0.399,0.24 0.714,0.431 0.714,1.134 0,0.497 -0.07,0.97 -0.117,1.22 -0.088,-0.106 -0.199,-0.213 -0.322,-0.333 -0.443,-0.431 -0.996,-0.968 -0.996,-1.844 0,-0.077 -0.015,-0.148 -0.033,-0.23 -0.013,-0.055 -0.027,-0.118 -0.037,-0.193 0.244,0.5 1.065,1.31 1.158,2.008 0.077,-0.658 -0.992,-1.804 -1.175,-2.23 -10e-4,-0.066 0.001,-0.139 0.008,-0.221 0.24,0.35 0.535,0.529 0.8,0.689 l 0.092,-0.154 c -0.302,-0.182 -0.615,-0.373 -0.848,-0.809 0.056,0.065 0.137,0.106 0.23,0.106 l 0,-0.179 c -0.07,0 -0.126,-0.056 -0.126,-0.124 0,-0.069 0.056,-0.125 0.126,-0.125 0.067,0 0.123,0.056 0.123,0.125 0,0.068 -0.056,0.124 -0.123,0.124 l 0,0.179 c 0.163,0 0.296,-0.131 0.301,-0.293 0.176,0.168 0.332,0.353 0.437,0.634 l -0.003,0.001 c 0.03,0.068 0.104,0.209 0.111,0.277 0.023,-0.119 0.134,-0.403 0.182,-0.484 0.087,-0.159 0.183,-0.351 0.183,-0.684 0,-0.637 -0.358,-1.098 -0.703,-1.544 l -0.142,0.11 c 0.342,0.442 0.665,0.859 0.665,1.434 0,0.301 -0.113,0.51 -0.195,0.664 -0.153,-0.309 -0.367,-0.502 -0.575,-0.691 -0.365,-0.329 -0.71,-0.641 -0.71,-1.571 0,-0.205 0.014,-0.391 0.036,-0.561 0.145,0.452 0.395,0.978 0.767,1.292 -0.334,-0.381 -0.561,-1.04 -0.741,-1.469 0.018,-0.111 0.039,-0.214 0.062,-0.305 0.126,0.475 0.412,0.846 0.691,1.207 l 0.142,-0.11 c -0.335,-0.433 -0.682,-0.88 -0.718,-1.502 l -0.084,-0.013 c 0.049,-0.282 0.108,-0.566 0.178,-0.848 l -0.158,-0.176 z" style="fill:#231f20;fill-opacity:1;fill-rule:nonzero;stroke:none" id="path2718"/>
        <path d="m 34.024,67.404 c -0.277,0.151 -0.58,0.328 -0.901,0.537 -0.219,0.038 -0.434,0.024 -0.701,0.006 -0.184,-0.011 -0.391,-0.027 -0.64,-0.027 l 0,0.18 c 0.243,0 0.447,0.013 0.628,0.026 0.281,0.019 0.518,0.036 0.768,-0.013 -0.561,0.104 -1.217,0.779 -1.391,1.103 -0.315,0.146 -0.709,0.169 -1.065,0.169 -0.329,0 -0.649,0.039 -0.89,0.103 0.461,-0.584 1.18,-1.388 1.95,-1.388 l 0,-0.18 c -0.83,0 -1.571,0.807 -2.054,1.411 -0.119,0.118 -0.439,0.478 -0.493,0.663 0.058,-0.045 0.215,-0.138 0.357,-0.215 0.006,-0.002 0.011,-0.005 0.017,-0.008 0.003,-0.003 0.007,-0.005 0.01,-0.007 0.026,-0.014 0.05,-0.027 0.073,-0.039 0.19,-0.084 0.572,-0.161 1.03,-0.161 0.084,0 0.169,-10e-4 0.257,-0.005 -0.275,0.238 -0.553,0.49 -0.83,0.755 -0.084,0.051 -0.163,0.102 -0.233,0.156 l -0.036,0.007 c -0.151,0.033 -0.332,0.033 -0.524,0.033 l 0,0.178 c 0.112,0 0.22,0 0.322,-0.006 -0.181,0.2 -0.293,0.425 -0.359,0.627 -0.195,0.287 -0.37,0.49 -0.597,0.616 -0.386,0.214 -0.702,0.242 -1.036,0.272 -0.241,0.022 -0.49,0.046 -0.776,0.136 0.836,-1.644 1.726,-1.645 2.446,-1.645 l 0,-0.178 c -0.756,0 -1.793,-0.001 -2.705,1.945 l -0.098,0.209 0.214,-0.089 c 0.353,-0.147 0.649,-0.173 0.935,-0.199 0.21,-0.02 0.424,-0.039 0.656,-0.106 l 0.355,0.226 c 0.169,-0.211 0.342,-0.416 0.517,-0.615 -0.008,0.182 -0.002,0.361 0.006,0.532 0.014,0.357 0.025,0.665 -0.094,0.888 -0.057,0.099 -0.075,0.465 -0.047,0.56 0.04,-0.205 0.18,-0.46 0.329,-0.609 l 0,0 c 0.072,-0.068 0.156,-0.135 0.248,-0.207 l -0.111,-0.141 c -0.053,0.041 -0.105,0.082 -0.154,0.123 0.025,-0.191 0.017,-0.402 0.008,-0.621 -0.03,-0.75 -0.064,-1.593 1.18,-2.112 -0.044,0.043 -0.085,0.083 -0.105,0.106 -0.568,0.59 -0.172,0.95 -0.433,1.442 0.32,-0.365 0.022,-1.016 0.47,-1.315 0.007,-0.004 0.014,-0.009 0.021,-0.015 -0.059,0.261 -0.095,0.543 -0.095,0.606 0,1.085 -0.474,1.457 -0.892,1.786 l 0.111,0.141 c 0.428,-0.336 0.959,-0.755 0.959,-1.927 0,-0.089 0.078,-0.591 0.167,-0.839 0.282,-0.258 0.562,-0.502 0.84,-0.73 -0.007,0.025 -0.013,0.049 -0.019,0.072 -0.034,0.17 -0.057,0.348 -0.079,0.52 -0.01,0.07 -0.019,0.138 -0.029,0.207 -0.028,-0.141 -0.151,-0.244 -0.297,-0.244 -0.168,0 -0.304,0.135 -0.304,0.303 0,0.167 0.136,0.304 0.304,0.304 l 0,-0.18 c -0.069,0 -0.126,-0.055 -0.126,-0.124 0,-0.069 0.057,-0.124 0.126,-0.124 0.068,0 0.124,0.055 0.124,0.124 0,0.069 -0.056,0.124 -0.124,0.124 l 0,0.18 c 0.115,0 0.214,-0.065 0.265,-0.16 -0.043,0.251 -0.105,0.481 -0.221,0.67 l -10e-4,0 c -0.005,0.008 -0.01,0.015 -0.015,0.024 -0.013,0.02 -0.025,0.039 -0.039,0.058 -0.009,0.011 -0.013,0.025 -0.016,0.038 -0.104,0.186 -0.24,0.453 -0.289,0.516 0.132,-0.106 0.462,-0.398 0.674,-0.545 l -0.073,-0.166 c 0.127,-0.293 0.173,-0.64 0.218,-0.98 0.022,-0.17 0.045,-0.346 0.078,-0.51 0.062,-0.263 0.525,-1.049 1.287,-1.312 -0.323,0.433 -0.464,0.894 -0.522,1.086 l -0.014,0.047 c -10e-4,0.002 -0.002,0.005 -0.003,0.008 -0.171,0.812 -0.506,1.347 -1.044,1.661 l 0.073,0.166 c 0.593,-0.337 0.96,-0.913 1.146,-1.785 l 0.013,-0.045 c 0.064,-0.208 0.23,-0.75 0.635,-1.201 0.323,-0.209 0.628,-0.386 0.904,-0.535 l -0.086,-0.162 -0.025,-0.047 -0.135,-0.133 z" style="fill:#231f20;fill-opacity:1;fill-rule:nonzero;stroke:none" id="path2720"/>
        <path d="m 32.342,68.459 c -0.426,0.283 -1.091,-0.045 -1.382,0.426 0.464,-0.315 0.971,-0.053 1.42,-0.352 0.052,-0.059 -0.038,-0.074 -0.038,-0.074" style="fill:#231f20;fill-opacity:1;fill-rule:nonzero;stroke:none" id="path2722"/>
        <path d="m 32.268,69.826 c 0.052,-0.255 0.313,-0.941 0.492,-1.211 l -0.104,0.061 c -0.217,0.223 -0.411,1.008 -0.433,1.09 -0.023,0.082 0.037,0.082 0.045,0.06" style="fill:#231f20;fill-opacity:1;fill-rule:nonzero;stroke:none" id="path2724"/>
        <path d="m 29.414,70.9 c -0.426,0.285 -0.814,0.061 -1.27,0.674 0.493,-0.463 0.859,-0.3 1.308,-0.597 C 29.503,70.916 29.414,70.9 29.414,70.9" style="fill:#231f20;fill-opacity:1;fill-rule:nonzero;stroke:none" id="path2726"/>
        <path d="m 27.673,73.068 c -0.426,0.284 -0.776,0.268 -1.037,0.813 0.313,-0.402 0.716,-0.529 1.074,-0.738 0.054,-0.061 -0.037,-0.075 -0.037,-0.075" style="fill:#231f20;fill-opacity:1;fill-rule:nonzero;stroke:none" id="path2728"/>
        <path d="m 25.493,84.512 c 0.015,0.545 -0.135,1.248 -0.15,1.793 0.165,-0.696 0.306,-1.405 0.246,-1.756 -0.023,-0.106 -0.096,-0.037 -0.096,-0.037" style="fill:#231f20;fill-opacity:1;fill-rule:nonzero;stroke:none" id="path2730"/>
        <path d="m 27.329,88.244 c 0.413,0.311 0.77,0.354 0.961,0.541 -0.042,-0.194 -0.419,-0.228 -0.877,-0.58 -0.235,-0.18 -0.374,-0.504 -0.714,-0.795 0,0 -0.101,-0.008 -0.045,0.075 0.317,0.307 0.447,0.589 0.675,0.759" style="fill:#231f20;fill-opacity:1;fill-rule:nonzero;stroke:none" id="path2732"/>
        <path d="m 26.792,88.807 c 0,0 -0.09,0.03 -0.06,0.12 0.03,0.09 0.089,0.432 0.089,0.731 0,0.412 0.231,0.612 0.477,0.845 l 0.103,-0.011 c -0.246,-0.293 -0.475,-0.418 -0.475,-0.744 0,-0.433 -0.074,-0.792 -0.134,-0.941" style="fill:#231f20;fill-opacity:1;fill-rule:nonzero;stroke:none" id="path2734"/>
        <path d="m 27.496,90.613 -0.057,0.034 c 0.107,0.111 0.211,0.239 0.294,0.402 -0.072,-0.18 -0.154,-0.32 -0.237,-0.436" style="fill:#231f20;fill-opacity:1;fill-rule:nonzero;stroke:none" id="path2736"/>
        <path d="m 28.495,91.152 c 0.374,0.614 0.852,0.479 1.27,0.733 -0.284,-0.389 -0.762,-0.164 -1.27,-0.733" style="fill:#231f20;fill-opacity:1;fill-rule:nonzero;stroke:none" id="path2738"/>
        <path d="m 33.41,68.758 c -0.168,0 -0.304,0.137 -0.304,0.305 0,0.167 0.136,0.304 0.304,0.304 0.167,0 0.304,-0.137 0.304,-0.304 0,-0.168 -0.137,-0.305 -0.304,-0.305 l 0,0.18 c 0.069,0 0.125,0.056 0.125,0.125 0,0.068 -0.056,0.125 -0.125,0.125 -0.069,0 -0.124,-0.057 -0.124,-0.125 0,-0.069 0.055,-0.125 0.124,-0.125 l 0,-0.18 z" style="fill:#231f20;fill-opacity:1;fill-rule:nonzero;stroke:none" id="path2740"/>
      </g>
    </g>
  </g>
</svg>