<?xml version="1.0" standalone="no"?> <!DOCTYPE svg PUBLIC "-//W3C//DTD SVG 1.0//EN" "http://www.w3.org/TR/2001/REC-SVG-20010904/DTD/svg10.dtd" > <svg xmlns="http://www.w3.org/2000/svg" width="100%" height="100%">
<defs >
<font id="cmunbto" horiz-adv-x="525" ><font-face
    font-family="CMU Typewriter Text"
    units-per-em="1000"
    panose-1="2 0 3 9 0 0 0 0 0 0"
    ascent="828"
    descent="-231"
    alphabetic="0" />
<missing-glyph d="M10 10V765H515V10H10ZM70 112L232 388L70 663V112ZM105 70H420L262 337L105 70ZM105 705L262 438L420 705H105ZM292 388L455 112V663L292 388Z" />
<glyph unicode=" " glyph-name="space" />
<glyph unicode="!" glyph-name="exclam" d="M217 49Q217 74 235 91T276 108Q297 108 311 94T325 59Q325 35 307 18T267 0Q243 0 230 15T217 49ZM255 216Q255 222 257 234L301 557Q309 619 361 619Q381 619 396 606T411 571Q411 560 408 549L342 217Q339 204 334
198T323 190T307 189H286Q255 190 255 216Z" />
<glyph unicode="&quot;" glyph-name="quotedbl" d="M206 354Q206 357 210 395T221 490T231 577Q234 601 247 610T273 620Q287 620 298 610T310 584Q310 577 262 361Q254 327 232 327Q221 327 214 334T206 354ZM382 352L407 577Q410 601 423 610T449 620Q463 620
474 610T485 584Q485 577 437 361L436 356Q435 352 435 351T433 345T430 340T427 335T422 331T416 328T408 327Q397 327 390 334T382 352Z" />
<glyph unicode="#" glyph-name="numbersign" d="M69 198Q69 224 100 224H169L219 387H136Q104 387 104 414Q104 440 138 440H235Q237 447 280 586Q288 610 307 610Q318 610 325 602T333 585T291 440H419Q427 470 463 586Q471 610 491 610Q502 610 509 602T517
585Q517 580 474 440H525Q540 440 549 433T558 413Q558 387 527 387H457L408 224H489Q522 224 522 198Q522 171 489 171H391Q346 25 343 18Q335 0 319 0Q308 0 301 7T293 27Q293 33 336 171H208Q198 139 184 92Q165 27 158 14T136 0Q125 0 118 7T110 27Q110 33
153 171H102Q69 171 69 198ZM225 224H353L402 387H274L225 224Z" />
<glyph unicode="$" glyph-name="dollar" d="M84 142Q84 209 128 209Q142 209 153 199T164 172Q164 151 145 138Q148 64 244 50L284 293Q243 300 213 315T168 347T144 382T134 413T132 435Q132 504 193 555T338 614Q339 622 341 634T344 651T346 665T350 678T355
686T363 692T374 694Q385 694 392 687T399 670T391 614Q475 606 509 567T544 478Q544 415 500 415Q486 415 475 425T464 451Q464 473 482 485Q477 552 383 561L346 343Q349 343 362 340T399 327T444 302T480 257T496 191Q496 126 441 67T288 -3Q279 -64 273 -73Q267
-83 253 -83Q242 -83 234 -76T226 -57Q226 -53 227 -47T230 -29T235 -3L230 -2Q224 -2 216 -1T196 4T172 12T147 25T123 43T103 68T89 101T84 142ZM189 441Q189 376 294 354L329 560Q273 552 231 518T189 441ZM298 51Q354 60 396 98T439 185Q439 208 429 226T403
255T373 271T346 280L336 282L298 51Z" />
<glyph unicode="%" glyph-name="percent" d="M83 -53Q83 -46 94 -24L481 671Q492 694 512 694Q524 694 533 686T542 664Q542 653 534 639L146 -58Q131 -83 113 -83Q101 -83 92 -75T83 -53ZM125 530Q125 593 158 643T233 694Q265 694 285 666T306 592Q306 530 274
479T198 428Q165 428 145 456T125 530ZM175 533Q175 482 199 482Q217 482 236 515T256 589Q256 639 233 639Q214 639 195 607T175 533ZM320 19Q320 82 352 132T428 183Q460 183 480 155T500 81Q500 18 467 -32T392 -83Q360 -83 340 -55T320 19ZM370 22Q370 -28
393 -28Q412 -28 431 4T450 79Q450 128 427 128Q408 128 389 96T370 22Z" />
<glyph unicode="&amp;" glyph-name="ampersand" d="M48 110Q48 131 53 151T64 184T82 213T100 235T117 252T130 264Q183 316 185 321Q186 323 186 326Q186 328 185 338T182 367T180 407Q180 467 192 511T224 577T264 609T305 619Q341 619 359 592T377 525Q377
467 352 425T252 308Q245 299 245 294Q245 269 296 152H297Q340 214 429 378H411Q379 378 379 403Q379 431 413 431H526Q558 431 558 405Q558 378 523 378H486Q439 292 422 260T375 179T323 104Q357 45 395 45Q408 45 419 52Q435 62 443 77T454 104T462 125T480
134Q490 134 497 127T505 109Q505 80 476 36T396 -8Q336 -8 289 63H288Q223 -8 153 -8Q103 -8 76 27T48 110ZM110 110Q110 45 156 45Q201 45 262 109L226 192L211 232L202 259Q167 227 154 214T125 172T110 110ZM230 407Q230 377 232 363Q292 425 309 454T327 521Q327
566 303 566Q287 566 272 554T243 503T230 407Z" />
<glyph unicode="&apos;" glyph-name="quotesingle" d="M295 353Q295 357 299 394T309 491T319 577Q322 602 335 611T361 620Q376 620 387 610T398 583Q398 577 350 362Q348 351 347 346T339 334T321 327T303 333T295 353Z" />
<glyph unicode="(" glyph-name="parenleft" d="M222 236Q222 316 249 392T316 520T399 614T476 674T522 694Q533 694 540 687T548 670Q548 666 547 663T544 658T541 653T536 649T532 645T527 642T523 640Q415 575 349 464T283 232Q283 67 410 -33Q426 -45 426
-58Q426 -68 419 -75T401 -83Q392 -83 373 -71T327 -32T278 30T238 120T222 236Z" />
<glyph unicode=")" glyph-name="parenright" d="M77 -58Q77 -51 81 -46T88 -38T99 -31T107 -26Q214 40 278 149T342 379Q342 551 214 645Q199 656 199 670Q199 681 207 687T225 694Q234 694 254 682T299 642T348 579T387 489T403 376Q403 295 376 219T308 90T225
-3T149 -63T103 -83Q92 -83 85 -76T77 -58Z" />
<glyph unicode="*" glyph-name="asterisk" d="M104 208Q104 224 120 235T208 281Q240 296 260 306Q147 373 140 380Q135 385 135 395Q135 406 145 417T169 428H171Q177 428 230 393Q267 369 294 351Q297 369 299 389T303 423T307 450T311 473T315 491T321 505T328
514T336 519T348 521Q373 521 373 496Q373 490 370 474T360 422T347 351Q489 425 498 427Q509 427 515 420T522 404Q522 400 522 397T519 390T515 385T508 379T500 374T489 367T476 361T459 353T440 343L366 306V305L467 245Q490 231 490 217Q490 206 482 195T459
184Q448 184 435 193L332 261Q328 239 325 214T320 174T315 143T310 119T303 104T292 94T277 91Q266 91 260 98T253 113Q253 123 279 261Q135 185 129 184Q116 185 110 192T104 208Z" />
<glyph unicode="+" glyph-name="plus" d="M88 306Q88 331 121 332H291Q298 372 307 430Q317 499 323 514T346 530Q357 530 364 522T372 505Q372 501 365 458T351 374L344 332H502Q537 332 537 305Q537 279 505 279H336Q306 98 302 93Q293 81 280 81Q269 81 262
89T254 106Q254 110 261 153T275 238L282 279H118Q106 279 99 285T90 296T88 306Z" />
<glyph unicode="," glyph-name="comma" d="M165 -112Q165 -99 178 -92T208 -79T247 -53T282 2Q272 0 266 0Q245 0 231 14T217 49Q217 72 234 90T276 108Q305 108 323 86T341 31Q341 -37 286 -88T192 -139Q182 -139 174 -131T165 -112Z" />
<glyph unicode="-" glyph-name="hyphen" d="M123 215Q123 242 156 242H442Q473 242 473 216Q473 189 441 189H153Q123 190 123 215Z" />
<glyph unicode="." glyph-name="period" d="M217 49Q217 74 235 91T276 108Q297 108 311 94T325 59Q325 35 307 18T267 0Q243 0 230 15T217 49Z" />
<glyph unicode="/" glyph-name="slash" d="M49 -57Q49 -48 64 -25L523 673Q538 694 551 694Q561 694 569 686T577 668Q577 659 565 640L105 -60Q91 -83 75 -83Q64 -83 57 -76T49 -57Z" />
<glyph unicode="0" glyph-name="zero" d="M98 227Q98 377 181 498T365 619Q437 619 482 552T528 384Q528 232 445 112T261 -8Q189 -8 144 59T98 227ZM161 236Q161 155 190 100T270 45Q320 45 366 98T440 231T468 387Q468 463 438 514T356 566Q282 566 222 467T161 236Z" />
<glyph unicode="1" glyph-name="one" d="M119 26Q119 53 153 53H255L327 490Q270 444 219 444Q187 444 187 469Q187 491 206 496Q207 496 219 497T242 501T273 515T311 545Q330 564 342 584T361 611T380 619Q390 619 398 612T406 594Q406 588 404 579T402 566L325
105Q324 97 321 79T317 53H411Q443 53 443 27T412 0H152Q119 0 119 26Z" />
<glyph unicode="2" glyph-name="two" d="M57 26Q57 41 73 53L283 207Q330 241 357 263T418 319T469 387T485 458Q485 515 442 540T345 566Q298 566 257 541T196 472Q204 459 204 448Q204 431 192 420T164 408T137 418T126 444Q126 466 140 495T181 552T252 599T347
619Q436 619 491 575T546 458Q546 435 542 414T526 372T506 335T477 298T446 266T409 234T374 206T335 178T299 152L163 53H419Q421 72 423 80T433 94T454 100H455Q469 100 476 93T484 76L476 21Q471 0 443 0H88Q57 0 57 26Z" />
<glyph unicode="3" glyph-name="three" d="M66 127Q66 183 109 183Q125 183 135 172T145 146Q145 127 129 113Q136 91 154 77T196 56T236 47T269 45Q344 45 397 92T450 196Q450 238 417 270T319 303H261Q230 303 230 329Q230 349 246 354T297 360T351 366Q404
379 437 420T471 497Q471 523 445 544T365 566Q269 566 228 520Q233 511 233 500Q233 483 221 471T192 459Q177 459 167 469T156 495Q156 543 211 581T365 619Q446 619 489 582T533 497Q533 476 525 451T490 391T418 333Q457 314 484 280T511 195Q511 118 441 55T269
-8Q183 -8 125 27T66 127Z" />
<glyph unicode="4" glyph-name="four" d="M62 193Q62 219 76 233L377 603Q395 624 417 624H447Q474 624 474 601Q474 592 473 587L418 261L412 221H498Q528 221 528 195Q528 168 497 168H403L384 53H451Q467 53 474 45T481 27Q481 16 474 9T451 0H261Q228 0 228
26Q228 53 259 53H334L353 168H94Q62 168 62 193ZM128 221H362L422 581L128 221Z" />
<glyph unicode="5" glyph-name="five" d="M75 130Q75 186 118 186Q133 186 143 176T154 151Q154 139 147 128T140 111Q140 102 149 88T186 60T253 45Q325 45 385 95T445 219Q445 263 419 298T333 333Q250 333 197 284Q182 271 169 271Q142 271 142 297Q142 305
143 310L188 580Q190 591 192 596T201 606T221 611H506Q518 611 526 604T534 586Q534 558 503 558H246L213 358Q270 386 339 386Q416 386 461 337T506 218Q506 123 429 58T252 -8Q176 -8 126 30T75 130Z" />
<glyph unicode="6" glyph-name="six" d="M98 203Q98 301 127 382T205 513T309 591T421 619Q472 619 507 598T542 532Q542 503 529 492T500 481Q484 481 474 491T463 516Q463 534 477 548Q459 566 420 566Q344 566 273 500T175 331Q244 392 333 392H334Q413 391
458 340T503 227Q503 121 419 50Q350 -8 267 -8Q182 -8 140 51T98 203ZM160 173Q160 166 161 154T170 122T187 86T219 57T268 45Q329 45 383 94Q442 149 442 227Q442 265 415 302T330 339Q265 339 215 299T163 207Q162 196 162 189T161 181T160 178T160 173Z" />
<glyph unicode="7" glyph-name="seven" d="M133 537Q133 539 133 542T136 560T142 592Q144 604 145 609T154 621T173 627Q193 627 203 611H547Q578 611 578 585Q578 570 558 554Q444 460 359 329T242 41L241 34Q240 27 240 26T238 18T235 10T231 3T225 -3T217
-6T207 -8Q195 -8 186 0T177 22Q178 33 181 52T201 129T244 244T321 377T439 520Q465 546 479 558H198Q198 556 197 549T196 540T194 533T191 525T188 520T182 515T175 512T165 511H164Q133 511 133 537Z" />
<glyph unicode="8" glyph-name="eight" d="M70 150Q70 207 115 257T245 330Q192 344 163 376T133 445Q133 509 200 564T365 619Q441 619 492 581T544 481Q544 433 504 392T389 330Q449 314 480 276T511 194Q511 118 436 55T260 -8Q180 -8 125 36T70 150ZM132 157Q132
108 172 77T269 45Q343 45 396 90T449 191Q449 241 410 272T312 303Q238 303 185 258T132 157ZM195 449Q195 408 231 382T321 356Q384 356 433 391T482 474Q482 516 445 541T355 566Q293 566 244 532T195 449Z" />
<glyph unicode="9" glyph-name="nine" d="M84 78Q84 107 98 118T127 130T152 120T163 95T150 64Q172 45 220 45Q292 45 359 110T452 280Q383 219 293 219Q208 219 160 282Q123 328 123 384Q123 489 210 561Q280 619 365 619Q393 619 419 610T471 579T513 513T529
408Q529 230 436 111T217 -8Q84 -8 84 78ZM185 384Q185 345 213 309T297 272Q362 272 412 312T464 405Q465 416 465 423T466 431T467 434T467 438Q467 449 464 465T451 507T420 549T364 566Q300 566 246 518Q185 464 185 384Z" />
<glyph unicode=":" glyph-name="colon" d="M271 372Q271 395 288 412T330 430Q351 430 365 416T380 381Q380 358 362 341T321 323T285 337T271 372ZM217 49Q217 74 235 91T276 108Q297 108 311 94T325 59Q325 35 307 18T267 0Q243 0 230 15T217 49Z" />
<glyph unicode=";" glyph-name="semicolon" d="M270 372Q270 395 287 412T329 430Q350 430 364 416T379 381Q379 358 361 341T320 323T284 337T270 372ZM165 -112Q165 -99 178 -92T208 -79T247 -53T282 2Q272 0 266 0Q245 0 231 14T217 49Q217 72 234 90T276 108Q305
108 323 86T341 31Q341 -37 286 -88T192 -139Q182 -139 174 -131T165 -112Z" />
<glyph unicode="&lt;" glyph-name="less" d="M108 306Q108 324 133 336L509 541Q521 547 528 547Q539 547 546 539T554 521Q554 505 530 492L185 304V303L464 117Q482 105 482 90Q482 79 475 72T457 64T435 73L128 277Q108 291 108 306Z" />
<glyph unicode="=" glyph-name="equal" d="M76 230Q76 247 90 254Q96 257 115 257H490Q524 257 524 230Q524 219 516 212T493 204H108Q76 204 76 230ZM101 381Q101 408 135 408H517Q550 408 550 381Q550 355 518 355H134Q101 355 101 381Z" />
<glyph unicode="&gt;" glyph-name="greater" d="M72 90Q72 108 96 120L416 294Q420 296 428 301T441 308Q432 314 416 325T395 339L162 494Q143 506 143 522Q143 532 151 539T169 547T191 539L498 334Q518 320 518 306Q518 288 493 275L117 70Q105 64 97 64Q86
64 79 72T72 90Z" />
<glyph unicode="?" glyph-name="question" d="M143 488Q143 504 153 524T184 565T248 601T346 615Q406 615 448 604T509 575T537 540T545 502Q545 434 460 391Q413 367 382 339T340 285T323 239T315 202T307 181Q299 173 279 173H275Q246 173 246 197Q246 238
261 275Q296 367 424 435L430 438Q435 441 437 442T446 447T455 453T464 460T472 469T478 478T482 490T484 502Q484 531 448 546T348 562Q256 562 216 513Q221 506 221 494Q221 477 209 465T180 452Q162 452 153 464T143 488ZM211 40Q211 58 225 72T257 86Q273
86 285 75T297 47Q297 29 284 15T251 0Q234 0 223 11T211 40Z" />
<glyph unicode="@" glyph-name="at" d="M89 249Q89 397 187 506T403 615Q428 615 450 608T495 582T531 525T545 430Q545 395 538 342T521 260Q500 192 455 151T359 109Q307 109 274 153T241 264Q241 355 293 428T416 502Q457 502 492 469Q485 515 464 538T401
562Q305 562 222 468T139 250Q139 164 186 107T309 49Q372 49 426 89Q445 104 461 104Q493 104 493 78Q493 56 432 26T310 -4Q213 -4 151 68T89 249ZM291 266Q291 218 310 190T361 162Q408 162 446 220T485 345Q485 392 465 420T415 449Q371 449 331 394T291 266Z"
/>
<glyph unicode="A" glyph-name="A" d="M31 26Q31 53 66 53H94L314 592Q327 624 359 624H374Q386 624 393 622T403 611T406 600T408 584L444 111Q446 71 448 53H469Q502 53 502 27Q502 0 469 0H355Q323 0 323 26Q323 53 357 53H385L376 176H207L157 53H178Q210
53 210 27Q210 0 177 0H63Q31 0 31 26ZM229 229H372Q369 262 362 383T354 535V550L337 501L229 229Z" />
<glyph unicode="B" glyph-name="B" d="M31 26Q31 53 64 53Q64 53 103 53L187 558H159Q124 558 124 584Q124 595 132 603T155 611H388Q465 611 502 571T539 479Q539 429 504 386T402 320Q457 308 484 272T512 191Q512 164 500 133T465 72T399 21T302 0H62Q31 0
31 26ZM165 53H297Q364 53 407 94T450 189Q450 204 446 219T431 252T397 280T342 291H205L165 53ZM214 344H321Q396 344 436 386T477 472Q477 504 455 531T377 558H249L214 344Z" />
<glyph unicode="C" glyph-name="C" d="M85 241Q85 389 176 504T380 619Q456 619 509 565Q528 600 536 609T556 619Q567 619 574 612T582 593Q582 587 557 438Q557 437 557 434T556 429T554 423T551 417T548 412T542 408T535 405T525 404H524Q510 404 503 410T495
425T494 448T491 473Q483 512 455 539T383 566Q296 566 221 467T146 240Q146 156 185 101T288 45Q343 45 390 81T450 169Q456 198 481 198H482Q512 198 512 172Q512 118 447 55T285 -8Q196 -8 141 63T85 241Z" />
<glyph unicode="D" glyph-name="D" d="M27 26Q27 53 64 53H94L178 558H152Q120 558 120 584Q120 611 153 611H363Q404 611 436 595T488 555T520 498T537 435T542 375Q542 278 504 191T401 52T266 0H59Q27 0 27 26ZM156 53H262Q347 53 413 147T480 366Q480 397
474 428T453 489T409 539T341 558H240L156 53Z" />
<glyph unicode="E" glyph-name="E" d="M34 26Q34 53 68 53H109L193 558H160Q127 558 127 584Q127 611 160 611H546Q578 611 578 585Q578 581 570 533T561 481Q554 463 531 463Q519 463 511 470T502 488Q502 498 512 558H255L220 343H359Q365 387 373 394Q379 400
394 400Q425 400 425 373Q409 257 401 245Q394 234 376 234H375Q345 234 345 258Q345 260 350 290H211L171 53H450Q460 128 466 145T494 163H497Q525 163 525 138Q525 131 508 30Q505 11 498 6T475 0H66Q34 0 34 26Z" />
<glyph unicode="F" glyph-name="F" d="M36 26Q36 53 70 53H114L198 558H164Q129 558 129 584Q129 611 162 611H555Q587 611 587 585Q587 581 579 533T569 481Q562 463 541 463Q529 463 520 470T510 488Q510 492 521 558H260L223 332H366Q373 375 380 382Q387 389
402 389Q432 389 432 362Q417 246 409 234Q402 222 383 222H381Q367 222 360 229T353 246T357 279H214L176 53H234Q264 52 264 27Q264 0 231 0H68Q36 0 36 26Z" />
<glyph unicode="G" glyph-name="G" d="M82 235Q82 333 121 422T225 565T360 619Q435 619 476 569Q478 573 482 579T487 589T492 596T496 603T500 609T505 613T510 616T516 618T522 619Q533 619 540 612T548 593Q548 587 523 438Q521 427 520 422T511 411T490 404Q469
404 462 420Q461 422 461 447T451 500T418 547Q396 566 363 566Q283 566 213 464T143 234Q143 154 177 100T266 45Q282 45 298 50T337 70T383 122T422 213H380Q344 213 344 238Q344 266 376 266H505Q536 266 536 240Q536 213 503 213H485L454 26Q448 0 424 0H421Q393
0 393 26Q393 30 394 39T396 49Q335 -8 264 -8Q183 -8 133 61T82 235Z" />
<glyph unicode="H" glyph-name="H" d="M30 26Q30 53 62 53H99L183 558H155Q123 558 123 584Q123 611 156 611H282Q314 611 314 585Q314 558 282 558H245L209 344H430L466 558H438Q405 558 405 584Q405 611 439 611H565Q597 611 597 585Q597 558 565 558H528L444
53Q444 53 471 53Q504 53 504 27Q504 0 470 0H345Q312 0 312 26Q312 53 344 53H382L421 291H201L161 53H189Q221 53 221 27Q221 0 187 0H62Q30 0 30 26Z" />
<glyph unicode="I" glyph-name="I" d="M88 26Q88 53 121 53H240L324 558H217Q181 558 181 584Q181 611 212 611H507Q539 611 539 585Q539 558 506 558H386L302 53H411Q446 53 446 27Q446 0 415 0H119Q88 0 88 26Z" />
<glyph unicode="J" glyph-name="J" d="M98 91Q98 118 111 129T140 140T166 130T177 104Q177 90 164 74V73Q192 45 247 45Q286 45 316 64T360 110Q363 116 373 165L439 558H353Q321 558 321 584Q321 594 328 602T348 611H547Q562 611 569 603T576 585Q576 558 542
558H501L430 134Q419 65 365 29T246 -8Q182 -8 140 18T98 91Z" />
<glyph unicode="K" glyph-name="K" d="M33 26Q33 53 65 53H100L184 558H158Q126 558 126 584Q126 611 160 611H270Q302 611 302 585Q302 558 269 558H235L188 275L462 558H451Q420 559 420 584Q420 611 451 611H552Q568 611 575 603T583 585Q583 559 552 558H541Q527
558 516 548L333 359L454 53H469Q500 53 500 27Q500 0 468 0H380Q350 0 350 26Q350 53 382 53H397L293 317Q289 313 189 211Q188 210 184 207T180 202T177 196T173 185T170 168T165 142T159 105T151 53H175Q209 53 209 27Q209 0 175 0H65Q33 0 33 26Z" />
<glyph unicode="L" glyph-name="L" d="M39 26Q39 53 73 53Q73 53 121 53L205 558H167Q132 558 132 584Q132 611 164 611H335Q367 611 367 585T336 558H267L183 53H436Q448 140 455 152Q462 163 481 163Q511 163 511 137Q511 132 502 77T490 16Q483 0 461 0H71Q39
0 39 26Z" />
<glyph unicode="M" glyph-name="M" d="M24 26Q24 53 58 53H82L166 558H149Q117 558 117 584Q117 594 124 602T148 611H216Q249 611 255 579Q304 288 306 265Q323 311 461 578Q478 611 508 611H570Q586 611 593 603T601 585Q601 558 567 558H544L460 53H476Q508
53 508 27Q508 0 476 0H383Q352 1 352 26Q352 53 386 53H409L488 524L491 547Q485 532 338 238Q323 204 296 204Q289 204 285 205T276 212T270 221T266 234T263 248T259 267T256 287Q215 530 214 549L132 53H148Q180 53 180 27Q180 0 148 0H55Q24 1 24 26Z" />
<glyph unicode="N" glyph-name="N" d="M36 26Q36 53 68 53H105L189 558H163Q129 558 129 584Q129 611 160 611H240Q274 611 279 582L361 199L389 62L471 558H445Q411 558 411 584Q411 611 444 611H559Q591 611 591 585Q591 558 559 558H522L434 35Q432 22 430
16T420 5T400 0H388Q363 0 356 12T337 80Q331 105 328 121L238 549L155 53H183Q216 53 216 27Q216 0 182 0H67Q36 0 36 26Z" />
<glyph unicode="O" glyph-name="O" d="M84 113Q84 174 105 298T143 482Q161 542 184 570T252 610Q288 619 364 619H381Q477 619 509 594T541 498Q541 430 511 261Q498 187 486 143T458 66T415 19T357 -2T272 -8H249Q148 -8 116 16T84 113ZM149 138Q149 84 171
65T271 45H282Q350 45 383 72Q425 106 451 262T478 477Q478 531 455 548T364 566H351Q312 566 290 562T249 546T217 508T195 443T174 340Q149 197 149 138Z" />
<glyph unicode="P" glyph-name="P" d="M34 26Q34 53 68 53H109L193 558H159Q127 558 127 584Q127 611 159 611H391Q472 611 513 565T555 460Q555 385 494 319T325 253H204L171 53H203Q237 53 237 27Q237 0 203 0H67Q34 0 34 26ZM213 306H321Q402 306 447 352T493
450Q493 491 462 524T368 558H255L213 306Z" />
<glyph unicode="Q" glyph-name="Q" d="M84 114Q84 175 108 324T163 537Q188 589 232 604T361 619H373Q472 619 506 596T541 497Q541 436 517 290T464 79Q440 26 389 6Q435 -113 435 -121Q435 -139 409 -139H393Q375 -139 368 -128T341 -61Q330 -28 322 -7Q293
-8 277 -8H250Q149 -8 117 16T84 114ZM148 134Q148 83 170 64T263 45H302Q295 65 285 92T270 132T265 153Q265 171 291 171H309Q321 171 325 164T347 111Q359 81 367 60Q389 72 402 92T431 174T465 354Q477 441 477 477Q477 530 453 548T357 566Q321 566 300 564T258
550T228 525T206 477T187 407T168 305Q148 187 148 134Z" />
<glyph unicode="R" glyph-name="R" d="M30 26Q30 53 62 53H99L183 558H154Q123 558 123 584Q123 595 130 603T152 611H339Q420 611 465 569T510 469Q510 419 479 375T392 303Q441 266 441 210Q441 198 432 148T423 80Q423 45 442 45Q451 45 458 53T469 72T476
93T480 106Q488 120 508 120Q521 120 529 113T538 94Q538 69 513 31T442 -8Q411 -8 387 13T362 85Q362 106 370 153T379 210Q379 236 357 257T285 279H198L161 53H189Q221 53 221 27Q221 0 187 0H62Q30 0 30 26ZM207 332H278Q357 332 402 371T448 460Q448 497 418
527T320 558H245L207 332Z" />
<glyph unicode="S" glyph-name="S" d="M56 18Q56 24 81 172Q83 183 85 189T94 199T113 203Q129 203 136 195T143 178Q143 175 142 165T141 148Q141 93 186 69T288 45Q355 45 399 88T443 182Q443 238 392 264Q380 270 309 287T222 310Q183 325 155 358T127 439Q127
509 188 564T336 619Q427 619 477 566Q479 570 482 578T486 589T491 597T495 605T500 611T505 615T511 618T519 619Q529 619 537 612T545 594Q545 593 519 436Q514 408 488 408H487Q468 408 462 419T456 445T453 484T433 527Q401 566 336 566Q273 566 229 528T185
445Q185 412 209 391T263 362T338 344T405 326Q445 311 473 275T502 188Q502 112 440 52T288 -8Q184 -8 123 44Q121 39 117 29T111 16T106 6T99 -2T92 -6T82 -8Q71 -8 64 -1T56 18Z" />
<glyph unicode="T" glyph-name="T" d="M108 490Q108 495 122 578Q124 590 126 596T135 606T155 611H563Q595 611 595 585Q595 583 593 567T586 527T580 490Q577 464 550 464H548Q518 464 518 488Q518 492 529 558H386L302 53H359Q389 52 389 27Q389 0 357 0H175Q143
0 143 26Q143 36 150 44T174 53H240L324 558H180Q178 548 177 536T174 517T172 502T169 490T166 480T162 473T156 468T149 465T140 464H136Q108 464 108 490Z" />
<glyph unicode="U" glyph-name="U" d="M105 584Q105 611 137 611H276Q308 611 308 585Q308 558 275 558H233L175 209Q171 181 171 165Q171 113 197 79T266 45Q312 45 355 85T415 190Q419 204 423 234L477 558H443Q411 558 411 584Q411 611 445 611H582Q614 611
614 585Q614 558 581 558H539L483 222Q478 190 474 172T452 118T406 55Q343 -8 265 -8Q196 -8 153 42T110 167Q110 191 116 227L171 558H137Q105 558 105 584Z" />
<glyph unicode="V" glyph-name="V" d="M114 584Q114 611 147 611H258Q290 611 290 585Q290 558 256 558H229L257 261L271 97L272 62L283 92L342 235L480 558H460Q428 558 428 584Q428 611 461 611H572Q604 611 604 585Q604 558 570 558H544Q541 549 533 533L313
23Q300 -8 267 -8H253Q247 -8 243 -8T235 -5T229 -2T224 3T221 8T220 14T219 20T218 26T217 33L170 507Q169 516 168 533T165 558H147Q114 558 114 584Z" />
<glyph unicode="W" glyph-name="W" d="M108 584Q108 611 141 611H232Q248 611 255 603T262 585Q262 564 241 559Q236 558 226 558H191L185 284L180 127L178 88L176 63Q182 91 230 213T285 347Q297 367 322 367H325Q332 367 337 366T346 360T352 351T355 339T357
325T358 307T359 289Q370 125 370 92Q370 84 370 74T369 61L376 92L418 231L519 558H489Q457 558 457 584Q457 611 488 611H579Q610 611 610 585T579 558H569H568Q568 557 568 555T567 551T565 545T562 535L402 22Q394 -8 362 -8H361Q346 -8 339 0T330 13T328 31Q312
239 312 291L313 305Q307 282 203 24Q190 -8 160 -8H158Q129 -8 129 23Q129 26 129 32T130 42L141 558H139Q122 558 115 566T108 584Z" />
<glyph unicode="X" glyph-name="X" d="M29 26Q29 53 64 53H95L280 325L191 558H167Q134 558 134 584Q134 611 166 611H279Q311 611 311 585Q311 558 278 558H260L322 393L432 558H419Q389 558 389 584Q389 611 420 611H534Q565 611 565 585Q565 558 534 558H519Q508
558 504 557T497 553T489 542L341 325L445 53H468Q502 53 502 27Q502 0 469 0H357Q325 0 325 26Q325 53 357 53H376L300 263L162 53H175Q206 53 206 27Q206 0 173 0H61Q29 0 29 26Z" />
<glyph unicode="Y" glyph-name="Y" d="M114 584Q114 611 147 611H259Q291 611 291 585Q291 558 258 558H238L288 401L302 354L311 321L313 306Q324 332 472 558H459Q428 558 428 584Q428 611 461 611H573Q604 611 604 585Q604 558 570 558H540L343 259L334 244L302
53H330Q362 53 362 27Q362 0 328 0H203Q171 0 171 26Q171 53 203 53H240L271 244L170 558H147Q114 558 114 584Z" />
<glyph unicode="Z" glyph-name="Z" d="M52 22Q52 39 70 61L491 558H214Q213 549 211 537T208 519T206 504T203 491T200 481T196 474T190 469T183 465T173 464Q141 464 141 490Q141 491 156 584Q160 611 191 611H549Q574 611 574 589Q574 572 555 549L135 53H429Q440
130 447 148T473 166H474Q504 166 504 140Q504 136 486 29Q482 0 452 0H80Q52 0 52 22Z" />
<glyph unicode="[" glyph-name="bracketleft" d="M220 -57Q220 -56 220 -53T221 -49L340 666Q344 694 375 694H561Q594 694 594 669Q594 641 561 641H398L286 -30H441Q473 -30 473 -56Q473 -83 440 -83H252Q220 -83 220 -57Z" />
<glyph unicode="\" glyph-name="backslash" d="M170 667Q170 678 178 686T195 694Q213 694 224 665L449 -29Q456 -50 456 -57Q456 -67 449 -75T430 -83Q421 -83 415 -77T406 -66T399 -49L175 645Q170 662 170 667Z" />
<glyph unicode="]" glyph-name="bracketright" d="M32 -58Q32 -30 66 -30H228L340 641H186Q153 641 153 667Q153 694 187 694H375Q406 694 406 669Q406 668 406 665T405 660L286 -55Q283 -73 275 -78T250 -83H65Q32 -83 32 -58Z" />
<glyph unicode="^" glyph-name="asciicircum" d="M157 463Q157 479 184 491Q346 565 352 565Q362 565 497 491Q521 478 521 462Q521 452 512 440T490 428Q479 428 417 465T349 503T207 436Q188 428 185 428Q171 428 164 441T157 463Z" />
<glyph unicode="_" glyph-name="underscore" d="M46 -60Q46 -30 84 -30H419Q457 -30 457 -60Q457 -91 419 -91H83Q62 -90 54 -80T46 -60Z" />
<glyph unicode="`" glyph-name="grave" d="M208 604Q208 616 218 625T240 635Q249 635 264 627T383 559Q384 559 387 557T393 553T398 549T402 544T405 538T407 530Q407 521 398 509T376 496Q365 496 233 572Q208 586 208 604Z" />
<glyph unicode="a" glyph-name="a" d="M78 108Q78 182 165 225T403 270Q408 299 408 306Q408 335 383 359T302 384Q246 384 224 377Q224 375 224 373T225 369Q225 349 213 338T184 326Q169 326 158 336T147 363Q147 384 164 403T213 430Q242 437 300 437Q387 437
428 396T469 306Q469 296 461 249T443 143T430 61Q452 53 481 53H491Q528 53 528 27Q528 0 495 0H475Q431 1 409 8T374 35Q311 -4 224 -4Q160 -4 119 27T78 108ZM140 108Q140 81 165 65T231 49Q276 49 320 65T376 114Q382 134 394 218Q323 216 271 205T191 177T152
143T140 108Z" />
<glyph unicode="b" glyph-name="b" d="M105 26Q105 34 106 38L193 558H142Q128 558 121 565T113 584Q113 611 147 611H226Q258 611 258 587Q258 574 226 384Q291 435 359 435Q432 435 477 383T523 252Q523 146 449 71T285 -4Q209 -4 171 56Q170 50 168 39T165
23T160 12T151 3T136 0H134Q105 0 105 26ZM190 164Q190 125 211 87T282 49Q349 49 405 110T462 253Q462 310 433 346T355 382Q310 382 268 351T210 279Q207 271 199 223T190 164Z" />
<glyph unicode="c" glyph-name="c" d="M110 182Q110 225 128 269T178 351T260 413T369 437Q388 437 399 437T431 435T463 429T489 418T509 399T516 371Q516 347 502 337T474 326Q459 326 448 336T437 363Q437 368 440 379Q419 385 375 385Q323 385 282 364T218
311T184 245T172 182Q172 125 207 87T301 49Q384 49 422 114Q434 134 453 134Q484 134 484 109Q484 100 473 83T442 46T382 11T296 -4Q213 -4 162 50T110 182Z" />
<glyph unicode="d" glyph-name="d" d="M72 177Q72 282 145 358T310 435Q380 435 426 381L455 558H404Q375 559 375 583Q375 611 408 611H489Q521 611 521 585Q521 583 518 565L441 100Q435 66 433 53H482Q513 53 513 27Q513 0 482 0H399Q367 0 367 26Q367 34 371
54Q309 -4 236 -4Q164 -4 118 48T72 177ZM133 177Q133 122 163 86T240 49Q294 49 339 95T394 192Q409 285 409 288Q409 315 386 348T313 382Q246 382 190 321T133 177Z" />
<glyph unicode="e" glyph-name="e" d="M92 185Q92 280 165 358T339 437Q368 437 395 429T448 404T489 352T505 269Q505 222 497 209T467 195H154V187Q154 125 194 87T293 49Q332 49 366 66T419 113Q431 131 442 133Q446 134 451 134Q482 134 482 111Q482 80 426
38T288 -4Q204 -4 148 49T92 185ZM165 247H443Q444 256 444 272Q444 333 414 358T338 384Q285 384 236 346T165 247Z" />
<glyph unicode="f" glyph-name="f" d="M50 26Q50 53 82 53H196L250 378H143Q110 378 110 403Q110 431 141 431H259Q260 432 262 450T269 491T278 525Q293 559 334 587T441 615H448Q530 615 530 564Q530 546 519 535T491 523Q484 523 477 525T463 537T456 562H436Q396
562 371 545T336 506Q333 499 321 431H450Q482 431 482 405Q482 400 481 395T471 384T450 378H312L258 53H363Q395 53 395 27T363 0H83Q50 0 50 26Z" />
<glyph unicode="g" glyph-name="g" d="M14 -96Q14 -57 42 -17T117 44Q101 71 101 99Q101 146 135 185Q116 223 116 256Q116 328 172 381T301 435Q350 435 395 404Q450 439 510 439Q545 439 560 425T575 393Q575 376 564 366T538 355Q526 355 517 363T505 386L487
384L464 379L444 372L427 364Q443 329 443 299Q443 227 387 174T258 120Q213 120 169 148Q151 119 151 99Q151 80 161 71T181 60T212 58H283Q483 58 483 -67Q483 -119 442 -157T344 -211T228 -227Q138 -227 76 -191T14 -96ZM66 -94Q66 -130 114 -152T229 -175Q310
-175 371 -144T432 -67Q432 -24 392 -8T267 8H198Q133 8 100 -28T66 -94ZM177 255Q177 219 199 196T258 172Q304 172 343 210T382 300Q382 336 359 359T300 383Q253 383 215 345T177 255Z" />
<glyph unicode="h" glyph-name="h" d="M19 0T19 26T50 53H108L192 558H142Q128 558 120 565T112 584Q112 611 146 611H226Q258 611 258 586Q258 562 225 380Q290 435 362 435Q416 435 446 408T476 329Q476 312 468 263T449 148T433 53H481Q498 53 505 45T513 27Q513
0 481 0H314Q282 0 282 26T312 53H371Q374 73 385 139T405 260T414 329Q414 355 402 368T357 382Q305 382 264 346T207 264Q204 255 195 203T178 102T170 53H219Q250 53 250 27Q250 0 218 0H51Q19 0 19 26Z" />
<glyph unicode="i" glyph-name="i" d="M87 26Q87 39 94 45T107 52T125 53H252L306 378H192Q157 378 157 404Q157 431 191 431H340Q372 431 372 404L369 383L314 53H423Q455 53 455 27Q455 0 424 0H118Q87 0 87 26ZM313 565Q313 584 327 597T359 611Q375 611 387
600T400 571Q400 552 386 539T354 525T325 537T313 565Z" />
<glyph unicode="j" glyph-name="j" d="M373 565Q373 584 387 597T419 611T448 599T460 571Q460 552 446 539T414 525T385 537T373 565ZM21 -185T21 -163T34 -130T63 -118T89 -127T99 -154Q99 -164 97 -169Q125 -174 154 -174H162Q218 -174 253 -133T297 -37L359
335Q363 366 366 378H236Q201 378 201 403Q201 431 234 431H400Q432 431 432 405Q432 400 430 392L361 -26Q354 -65 351 -75Q335 -134 285 -180T163 -227H158Q131 -227 114 -226T72 -219T34 -199Z" />
<glyph unicode="k" glyph-name="k" d="M28 26Q28 36 35 44T59 53H122L206 558H151Q137 558 130 566T122 585Q122 611 157 611H228Q260 611 260 584Q260 575 259 571L199 211L404 378H354Q339 378 332 386T325 403Q325 431 358 431H523Q553 431 553 405Q553 378
520 378H493Q485 378 480 377T474 375T467 370T458 363Q413 327 382 302T342 268T327 256L448 53H481Q512 53 512 27Q512 0 479 0H353Q320 0 320 26Q320 53 355 53H385L285 222Q269 209 253 197T229 177T212 163T200 153T193 146T188 139T186 133T184 124T182 113Q180
103 177 83T172 53H219Q257 53 257 27Q257 0 224 0H62Q28 0 28 26Z" />
<glyph unicode="l" glyph-name="l" d="M66 26Q66 53 96 53H240L324 558H202Q179 558 173 561Q159 568 159 583Q159 593 166 602T191 611H361Q390 611 390 585Q390 576 389 571L310 102Q304 72 302 53H437Q453 53 460 45T467 27Q467 0 438 0H98Q66 0 66 26Z" />
<glyph unicode="m" glyph-name="m" d="M4 26Q4 53 38 53H65L119 378H100Q74 378 68 396Q67 398 67 403Q67 414 75 422T99 431H140Q173 431 173 404V398Q217 435 263 435Q318 435 336 380Q386 435 444 435Q474 435 498 415T522 342Q522 324 514 273T494 153T477
53H497Q529 53 529 27Q529 0 496 0H397Q366 0 366 26Q366 53 400 53H427Q430 74 441 141T462 266T472 338Q472 382 441 382Q404 382 370 342T325 229L296 53H316Q348 53 348 27Q348 0 315 0H216Q185 0 185 26Q185 53 219 53H246Q249 74 260 141T281 266T291 338Q291
382 260 382Q223 382 190 341T145 229L115 53H135Q167 53 167 27Q167 0 134 0H35Q4 0 4 26Z" />
<glyph unicode="n" glyph-name="n" d="M19 0T19 26T50 53H108L162 378H113Q82 379 82 403Q82 409 84 414T93 425T114 431H196Q227 431 227 405Q227 398 225 380Q290 435 362 435Q416 435 446 408T476 329Q476 312 468 263T449 148T433 53H481Q498 53 505 45T513
27Q513 0 481 0H314Q282 0 282 26T312 53H371Q374 73 385 139T405 260T414 329Q414 355 402 368T357 382Q305 382 264 346T207 264Q204 255 195 203T178 102T170 53H219Q250 53 250 27Q250 0 218 0H51Q19 0 19 26Z" />
<glyph unicode="o" glyph-name="o" d="M94 176Q94 279 168 358T335 437Q410 437 456 386T503 256Q503 154 430 75T262 -4Q187 -4 141 47T94 176ZM157 187Q157 125 189 87T271 49Q339 49 390 115T442 255Q442 310 410 347T326 384Q264 384 211 328T157 187Z" />
<glyph unicode="p" glyph-name="p" d="M-16 -197Q-16 -170 14 -169H72L164 378H114Q84 379 84 403Q84 431 118 431H201Q228 431 228 404Q228 391 227 384Q292 435 360 435Q433 435 478 383T524 252Q524 146 450 71T286 -4Q210 -4 172 56L134 -169H183Q215 -169
215 -195Q215 -222 182 -222H16Q-16 -222 -16 -197ZM191 164Q191 125 212 87T283 49Q350 49 406 110T463 253Q463 310 434 346T356 382Q311 382 269 351T211 279Q208 271 200 223T191 164Z" />
<glyph unicode="q" glyph-name="q" d="M77 179Q77 286 154 360T323 435Q396 435 445 371Q449 400 451 410T461 428T481 435H483Q499 435 506 427T513 409Q513 402 512 398L417 -169H466Q502 -169 502 -195Q502 -222 470 -222H294Q262 -222 262 -197Q262 -169 292
-169H355L393 59Q328 -4 249 -4Q173 -4 125 49T77 179ZM138 179Q138 123 170 86T253 49Q317 49 371 108T425 265Q425 306 402 344T327 382Q257 382 198 321T138 179Z" />
<glyph unicode="r" glyph-name="r" d="M40 26Q40 53 73 53H165L219 378H138Q136 377 133 377Q120 377 112 384T103 403Q103 431 136 431H254Q271 431 277 425T284 404Q284 394 276 350Q361 435 463 435Q550 435 550 382Q550 364 539 352T511 340Q496 340 486 350T476
381Q474 381 469 381T461 382Q391 382 327 327T248 179Q241 135 236 107T230 67T227 53H343Q374 53 374 27Q374 0 342 0H70Q40 1 40 26Z" />
<glyph unicode="s" glyph-name="s" d="M76 21Q76 27 86 91T100 162Q108 177 128 177Q149 177 156 161Q157 159 161 137T173 97T205 65T272 49Q352 49 389 76T427 136T384 184T275 209T178 234Q125 261 125 312Q125 333 135 353T166 393T230 425T331 437Q399 437
440 411Q441 412 443 415T445 420T448 424T451 428T455 432T459 435T465 436T471 437Q481 437 489 430T497 412Q497 408 489 357T478 301Q471 285 449 285Q437 285 429 292T420 312Q420 314 420 319T421 328Q421 384 328 384Q284 384 253 377T206 357T185 333T178
312Q178 288 217 275T318 253T403 234Q480 202 480 137Q480 114 470 91T437 46T372 10T272 -4Q188 -4 142 41Q130 14 122 5T101 -4Q91 -4 84 3T76 21Z" />
<glyph unicode="t" glyph-name="t" d="M93 403Q93 431 124 431H228Q228 431 244 525Q249 554 274 554H276Q305 554 305 527Q305 502 290 431H463Q494 431 494 405Q494 378 462 378H281L238 119Q238 119 235 95Q235 49 305 49Q339 49 367 64T405 107Q407 113 409
132T418 158T440 165H442Q472 165 472 140Q472 75 425 36T301 -4Q231 -4 203 26T174 95Q174 101 185 171T208 310L219 378H126Q93 378 93 403Z" />
<glyph unicode="u" glyph-name="u" d="M83 403Q83 431 115 431H196Q228 431 228 405Q228 395 227 390L180 113Q178 99 178 91Q178 70 193 60T249 49Q297 49 332 73T382 131Q386 141 390 167T405 257T425 378H374Q359 378 352 386T345 403Q345 431 378 431H460Q491
431 491 403Q491 401 491 397T490 392L439 87L433 53H483Q513 53 513 27Q513 0 480 0H397Q368 1 368 27V35Q311 -4 245 -4Q117 -4 117 91Q117 103 128 174T152 312L163 378H113Q83 379 83 403Z" />
<glyph unicode="v" glyph-name="v" d="M90 403Q90 431 124 431H248Q281 431 281 405Q281 378 247 378H207L269 44L442 378H409Q378 378 378 403Q378 431 412 431H536Q568 431 568 405Q568 378 535 378H495L317 34Q310 20 305 14T290 2T263 -4H259Q238 -4 230 3T218
32L162 337L154 378H121Q90 378 90 403Z" />
<glyph unicode="w" glyph-name="w" d="M82 403Q82 431 114 431H247Q262 431 269 423T276 405Q276 379 245 378H179L183 181L185 61Q189 73 226 151T267 236Q280 258 306 258Q330 258 337 238Q341 228 354 134Q358 107 361 62L471 378H413Q383 379 383 403Q383
431 415 431H544Q576 431 576 405Q576 378 543 378H521L509 341L397 27Q387 -4 354 -4Q348 -4 344 -4T336 -3T329 0T324 4T321 11T318 19T315 29T314 41T312 57T309 75Q296 172 296 197Q291 180 255 102T212 13Q199 -4 174 -4H167Q159 -4 153 -2T144 3T138 12T136
21T136 32T135 42L128 378H113Q82 378 82 403Z" />
<glyph unicode="x" glyph-name="x" d="M29 26Q29 53 60 53H97Q110 53 121 64Q265 217 267 220Q268 221 268 223Q268 228 245 263Q208 320 171 378H131Q98 378 98 403Q98 431 131 431H257Q289 431 289 405Q289 378 256 378H233L303 263L409 378H392Q361 378 361
403Q361 431 393 431H520Q551 431 551 405Q551 378 517 378H482Q473 378 460 366T397 302Q353 255 321 222Q422 66 424 63Q432 53 440 53H469Q503 53 503 28Q503 0 471 0H343Q312 0 312 26Q312 53 346 53H370L291 189L170 53H189Q220 53 220 27Q220 0 188 0H61Q29
0 29 26Z" />
<glyph unicode="y" glyph-name="y" d="M16 -163Q16 -137 31 -125T61 -113Q75 -113 84 -121T93 -144Q93 -154 85 -170Q92 -173 101 -173Q114 -173 126 -168T151 -151T171 -130T191 -100T208 -71T225 -38T240 -10Q245 1 242 15L157 378H123Q92 378 92 403Q92 431
123 431H250Q282 431 282 405Q282 378 246 378H211L272 108L281 61Q288 80 443 378H410Q378 378 378 403Q378 431 412 431H536Q569 431 569 405Q569 378 536 378H495L483 354L271 -52L264 -65Q258 -78 254 -86T240 -110T223 -137T203 -163T179 -188T152 -207T121
-222T88 -227Q58 -227 37 -209T16 -163Z" />
<glyph unicode="z" glyph-name="z" d="M37 0T37 22T60 62L444 378H174Q173 371 171 360T169 344T166 332T162 322T157 316T148 311T136 310Q106 310 106 338Q106 344 115 396Q118 416 125 423T150 431H513Q539 431 539 409T516 368L132 53H422Q430 114 439 124Q446
132 461 132H463Q476 132 484 125T492 107Q492 101 481 37Q479 25 478 22T474 11T464 2T446 0H64Q37 0 37 22Z" />
<glyph unicode="{" glyph-name="braceleft" d="M111 304Q111 332 145 332H147Q268 334 293 387Q298 398 313 492T333 602Q366 694 543 694Q574 694 574 669Q574 652 562 646T532 640T484 637T429 621Q422 618 418 615T409 609T401 601T395 590T390 575T386 556T381
530T376 497T369 455T360 403Q351 334 281 304V303Q328 276 328 226Q328 210 313 121T297 19Q297 -26 422 -30Q453 -30 453 -56Q453 -83 424 -83Q316 -83 276 -53T235 18Q235 31 251 125T267 225Q267 251 236 263T166 278L128 281Q111 288 111 304Z" />
<glyph unicode="|" glyph-name="bar" d="M223 -52Q223 -51 226 -33L341 659Q345 694 373 694Q385 694 394 686T403 663Q403 658 401 648L286 -44V-48Q285 -51 285 -54T283 -61T279 -69T273 -76T265 -81T254 -83Q241 -83 232 -75T223 -52Z" />
<glyph unicode="}" glyph-name="braceright" d="M51 -58Q51 -30 83 -30H86Q127 -30 157 -23T203 -7T226 15T237 35T239 47V49Q243 75 249 116T258 173T267 213T278 248T293 271T315 292T345 307Q297 338 297 385Q297 400 312 487T328 594Q328 600 327 602Q312
639 203 641Q172 642 172 666Q172 694 205 694Q390 694 390 592Q390 581 374 487T358 386Q358 336 480 332Q514 332 514 307Q514 285 495 280Q494 280 470 279T422 274T372 258T334 227Q328 217 314 123T295 15Q268 -77 92 -83H81Q51 -82 51 -58Z" />
<glyph unicode="~" glyph-name="asciitilde" d="M160 526Q160 545 204 578T289 611Q322 611 364 584T423 556Q448 556 481 583T524 611T541 603T549 584Q549 571 533 557Q473 499 420 499Q388 499 346 526T286 554Q261 554 228 527T186 500Q175 500 168 508T160 526Z" />
</font>
</defs>
</svg>
