<?xml version="1.0" standalone="no"?> <!DOCTYPE svg PUBLIC "-//W3C//DTD SVG 1.0//EN" "http://www.w3.org/TR/2001/REC-SVG-20010904/DTD/svg10.dtd" > <svg xmlns="http://www.w3.org/2000/svg" width="100%" height="100%">
<defs >
<font id="cmunbtl" horiz-adv-x="525" ><font-face
    font-family="CMU Typewriter Text"
    units-per-em="1000"
    panose-1="2 0 3 9 0 0 0 0 0 0"
    ascent="828"
    descent="-231"
    alphabetic="0" />
<missing-glyph d="M10 10V765H515V10H10ZM70 112L232 388L70 663V112ZM105 70H420L262 337L105 70ZM105 705L262 438L420 705H105ZM292 388L455 112V663L292 388Z" />
<glyph unicode=" " glyph-name="space" />
<glyph unicode="!" glyph-name="exclam" d="M208 33T208 54T223 91T262 108Q284 108 300 93T316 54Q316 33 301 17T262 0T224 16ZM208 553V563Q208 590 225 604T262 619Q284 619 300 605T316 564V554L305 221Q304 200 296 195T272 189H250Q243 189 238 190T229
195T224 200T220 208T219 215T219 224T218 232L208 553Z" />
<glyph unicode="&quot;" glyph-name="quotedbl" d="M135 579Q135 598 146 609T174 620Q188 620 200 610T213 578Q213 577 201 361Q201 327 174 327Q154 327 150 347T141 453Q138 520 136 565Q136 568 136 572T135 579ZM311 579Q311 597 322 608T350 620Q364 620
376 610T389 578Q389 577 377 361Q375 327 350 327Q330 327 326 347T317 453Q314 520 312 565Q312 568 312 572T311 579Z" />
<glyph unicode="#" glyph-name="numbersign" d="M35 198Q35 224 67 224H133L155 387H69Q36 387 36 413Q36 440 68 440H163Q163 443 165 455T171 498T182 578Q182 582 183 588T191 602T210 610T229 603T236 585Q236 580 216 440H346Q346 443 348 455T354 498T365
578Q365 582 366 588T374 602T393 610T412 603T419 585Q419 573 400 440H458Q476 439 482 431T489 414Q489 387 458 387H392L370 224H455Q489 224 489 198T456 171H362L343 33Q343 29 342 23T334 9T315 1T296 8T289 26Q289 38 308 171H178L159 33Q159 29 158 23T150
9T131 1T112 8T105 26Q105 31 125 171H67Q48 172 42 181T35 198ZM186 224H316L338 387H209L186 224Z" />
<glyph unicode="$" glyph-name="dollar" d="M58 166Q58 189 71 199T97 209Q113 209 124 198T136 170Q136 154 122 140Q141 64 236 50V292Q204 297 181 305Q121 325 90 365T58 453Q58 516 109 561T236 614V665Q237 694 262 694Q289 694 289 656V614Q383 607 424
561T466 457Q466 434 454 425T427 415Q411 415 400 425T388 453Q388 468 401 483Q381 550 289 561V343Q335 334 369 317T421 280T450 237T463 199T466 170Q466 111 421 60T289 -3V-44Q289 -83 262 -83Q236 -83 236 -50V-3Q181 3 143 23T87 72T64 122T58 166ZM114
457Q114 446 118 435T132 407T170 377T236 355V561Q180 554 147 523T114 457ZM289 51Q346 60 378 93T410 166Q410 178 406 191T391 223T354 257T289 281V51Z" />
<glyph unicode="%" glyph-name="percent" d="M35 561Q35 617 59 655T122 694Q161 694 185 655T210 561Q210 505 186 467T123 428Q84 428 60 467T35 561ZM85 562Q85 529 96 506T123 482T149 506T160 560Q160 591 149 615T122 640T96 616T85 562ZM93 -53Q93 -44
99 -28L371 668Q381 694 402 694Q414 694 423 686T432 664Q432 654 427 642L154 -57Q144 -83 123 -83Q111 -83 102 -75T93 -53ZM315 50Q315 106 339 144T402 183Q441 183 465 144T490 50T465 -44T402 -83Q363 -83 339 -44T315 50ZM364 51Q364 20 376 -4T403 -29T429
-5T440 49Q440 80 429 104T402 129T376 105T364 51Z" />
<glyph unicode="&amp;" glyph-name="ampersand" d="M28 134Q28 149 29 161T36 187T46 208T62 231T80 254T106 283T135 316Q106 402 106 481Q106 545 135 582T206 619Q238 619 259 596T286 546T293 490Q293 411 193 303Q219 240 273 152H274Q290 184 302 211T320
252T342 309T368 378H345Q312 378 312 404Q312 431 346 431H459Q491 431 491 404Q491 378 459 378H421Q370 241 350 193T305 106Q358 45 392 45Q412 45 423 61T437 99T442 122Q449 134 463 134Q487 134 487 104Q487 65 463 29T393 -8Q334 -8 276 63H275Q219 -8
150 -8Q96 -7 62 35T28 134ZM89 138Q89 98 106 72T151 45Q199 45 244 105Q183 201 157 261Q152 255 139 240T121 220T109 203T97 184T92 164T89 138ZM156 483Q156 429 173 361Q244 446 244 490Q244 517 235 541T206 566Q184 566 170 543T156 483Z" />
<glyph unicode="&apos;" glyph-name="quotesingle" d="M223 579Q223 601 236 610T262 620T288 610T301 578Q301 577 289 361Q289 327 262 327Q242 327 238 347T229 453Q226 520 224 565Q224 568 224 572T223 579Z" />
<glyph unicode="(" glyph-name="parenleft" d="M177 306Q177 377 198 443T250 552T315 629T374 678T410 694Q421 694 428 687T436 670Q436 665 435 661T430 654T425 649T418 644L412 640Q330 585 284 496T238 306Q238 194 287 109T407 -25Q436 -44 436 -58Q436
-68 429 -75T410 -83Q400 -83 375 -68T315 -19T251 59T199 168T177 306Z" />
<glyph unicode=")" glyph-name="parenright" d="M88 -58Q88 -52 92 -46T100 -37T110 -30T117 -25Q197 31 241 118T285 306Q285 407 239 497T110 641Q109 641 104 644T98 649T93 654T89 661T88 670Q88 678 95 686T114 694Q124 694 149 679T209 630T273 552T325
443T347 305T326 168T273 58T208 -19T149 -67T113 -83Q102 -83 95 -76T88 -58Z" />
<glyph unicode="*" glyph-name="asterisk" d="M70 213Q70 222 75 229T85 238T100 246L209 305V306Q204 308 100 365Q70 380 70 399Q70 409 77 418T97 427H99Q108 427 196 375Q221 360 236 351Q234 414 234 459Q234 500 236 504Q244 521 262 521Q291 521 291 486V481Q289
360 288 351Q386 410 402 418T428 427Q440 427 447 419T455 399Q455 380 425 365L315 306V305L425 246Q455 230 455 212Q455 202 448 193T427 184H425Q417 184 357 220Q317 244 288 261V254Q289 246 289 235T290 210T290 181T291 152Q291 113 288 107Q280 91 262
91Q233 91 233 126Q233 127 234 129V131Q235 165 235 192T235 231T235 249T236 261Q201 240 157 214Q107 184 97 184Q85 184 78 193T70 213Z" />
<glyph unicode="+" glyph-name="plus" d="M37 305Q37 315 44 323T70 332H236V497Q236 530 262 530Q273 530 281 522T289 497V332H453Q486 332 486 306T455 279H289V114Q289 81 262 81T236 114V279H69Q37 279 37 305Z" />
<glyph unicode="," glyph-name="comma" d="M184 -112Q184 -99 197 -91T227 -78T261 -52T284 4Q272 0 262 0Q240 0 225 15T209 54Q209 76 224 92T263 108Q296 108 316 82T337 16Q337 -33 311 -70T257 -123T212 -138Q200 -138 192 -130T184 -112Z" />
<glyph unicode="-" glyph-name="hyphen" d="M87 190T87 216T120 242H405Q437 242 437 215Q437 189 405 189H117Q87 190 87 216Z" />
<glyph unicode="." glyph-name="period" d="M208 33T208 54T223 91T262 108Q284 108 300 93T316 54Q316 33 301 17T262 0T224 16Z" />
<glyph unicode="/" glyph-name="slash" d="M59 -57Q59 -47 68 -29L409 667Q409 667 412 672Q414 676 415 678T419 683T424 689T431 692T439 694Q450 694 457 687T465 668Q465 663 457 644L116 -53Q116 -54 114 -58T111 -63T108 -68T104 -74T99 -78T93 -82T85 -83Q75
-83 67 -76T59 -57Z" />
<glyph unicode="0" glyph-name="zero" d="M54 306Q54 432 114 525T263 619Q348 619 409 529T471 305Q471 179 411 86T262 -8Q177 -8 116 82T54 306ZM115 316Q115 252 131 191T183 88T263 45Q325 45 367 125T409 316Q409 422 366 494T262 566T159 496T115 316Z" />
<glyph unicode="1" glyph-name="one" d="M109 470Q109 498 142 498Q213 505 253 597Q263 619 281 619Q307 619 307 586V53H404Q438 53 438 26Q438 1 408 0H148Q115 0 115 27Q115 53 148 53H246V493Q194 444 141 444Q109 444 109 470Z" />
<glyph unicode="2" glyph-name="two" d="M52 26Q52 39 68 54Q104 85 154 126T229 188T286 237T335 282T368 319T394 357T406 391T411 431Q411 495 362 530T246 566Q189 566 154 533T119 479Q119 476 124 465T130 446Q130 430 119 419T91 408Q77 408 65 417T52
449Q52 515 107 567T249 619Q345 619 408 567T472 432Q472 320 344 213L151 53H411V68Q411 100 442 100H443Q472 100 472 63V33Q472 23 470 17T461 5T439 0H86Q52 0 52 26Z" />
<glyph unicode="3" glyph-name="three" d="M43 141Q43 163 56 173T82 183Q98 183 109 172T121 145Q121 131 110 117Q126 81 171 63T266 45Q334 45 376 85T419 174Q419 224 378 263T261 303H209Q175 303 175 330Q175 341 181 347T199 356T223 358T254 360T286 364Q334
373 362 408T390 483Q390 518 354 542T266 566Q183 566 141 524V523Q150 510 150 497Q150 481 139 470T111 459T84 470T72 500Q72 554 125 586T266 619Q344 619 397 581T451 483Q451 391 361 335Q408 316 444 274T480 173Q480 100 419 46T266 -8Q171 -8 107 33T43
141Z" />
<glyph unicode="4" glyph-name="four" d="M29 201Q29 211 30 217T32 225T37 235T45 246L277 602Q287 616 293 620T313 624H344Q359 624 366 617T374 604T375 587V221H464Q495 221 495 195T465 168H375V53H446Q476 53 476 27Q476 2 449 0H252Q238 0 231 7T223 26Q223
36 230 44T254 53H325V168H63Q29 168 29 201ZM91 221H325V581L91 221Z" />
<glyph unicode="5" glyph-name="five" d="M52 145Q52 167 64 176T91 186Q108 186 119 175T130 148Q130 138 126 129T121 117Q121 107 134 91T179 60T249 45Q318 45 364 88T411 190Q411 246 374 289T277 333Q237 333 208 324T167 302T143 281T120 271Q91 271 91
306V577Q91 589 94 596T103 606T114 610T126 611H408Q423 611 430 603T437 585Q437 558 403 558H153V355Q210 386 279 386Q364 386 418 327T472 190Q472 108 408 50T249 -8Q167 -8 110 36T52 145Z" />
<glyph unicode="6" glyph-name="six" d="M56 300Q56 440 135 529T321 619Q392 619 423 589T454 522Q454 503 443 492T415 481T388 491T376 519Q376 530 385 544Q363 566 321 566Q290 566 258 553T196 512T144 436T118 327Q179 392 272 392Q354 392 413 330Q467
273 467 191Q467 108 407 50Q348 -8 263 -8Q228 -8 195 5T129 50T76 146T56 300ZM127 222Q127 213 128 205T130 192V185Q130 174 137 154T158 107T200 63T265 44Q318 44 362 84T406 192Q406 256 360 302Q323 339 269 339Q208 339 168 304T127 222Z" />
<glyph unicode="7" glyph-name="seven" d="M43 540V595Q43 627 73 627Q93 627 103 611H449Q480 611 480 585Q480 575 473 566T442 534T395 481Q345 418 311 349T262 223T242 120T234 44T231 10Q224 -8 204 -8Q173 -8 173 29Q173 80 181 135T211 263T277 412T388
558H104V544Q106 511 75 511H74Q44 511 43 540Z" />
<glyph unicode="8" glyph-name="eight" d="M43 173Q43 223 80 266T190 330Q140 343 99 377T58 462Q58 523 115 571T262 619T408 571T466 462Q466 449 462 435T446 400T405 362T334 330Q390 316 435 275T480 173Q480 101 418 47T261 -8T105 47T43 173ZM104 174Q104
120 151 83T262 45Q328 45 373 83T419 174Q419 227 374 265T261 303Q196 303 150 265T104 174ZM119 461Q119 416 162 386T262 356Q322 356 363 387T404 461Q404 505 362 535T262 566Q202 566 161 536T119 461Z" />
<glyph unicode="9" glyph-name="nine" d="M56 419Q56 500 115 558Q177 619 266 619Q293 619 318 612T371 583T419 529T453 440T467 310Q467 166 391 79T216 -8H215Q133 -8 101 21T69 89Q69 111 81 120T108 130Q124 130 135 120T147 92Q147 79 139 67V66Q165 45
215 45Q289 45 343 113T405 284Q344 219 252 219Q169 219 111 281Q56 339 56 419ZM117 419Q117 353 163 309Q202 272 255 272Q312 272 354 306T397 390Q397 401 396 406T394 421V428Q394 435 388 454T369 500T328 546T264 566Q204 566 161 523Q117 480 117 419Z"
/>
<glyph unicode=":" glyph-name="colon" d="M208 33T208 54T223 91T262 108Q284 108 300 93T316 54Q316 33 301 17T262 0T224 16ZM208 356T208 377T223 414T262 431Q284 431 300 416T316 377Q316 356 301 340T262 323T224 339Z" />
<glyph unicode=";" glyph-name="semicolon" d="M184 -112Q184 -99 197 -91T227 -78T261 -52T284 4Q272 0 262 0Q240 0 225 15T209 54Q209 76 224 92T263 108Q296 108 316 82T337 16Q337 -33 311 -70T257 -123T212 -138Q200 -138 192 -130T184 -112ZM209 356T209
377T224 414T262 430T300 414T316 377T301 340T262 323T224 339Z" />
<glyph unicode="&lt;" glyph-name="less" d="M56 306Q56 311 57 314T61 321T66 326T74 332L80 335L422 540Q436 547 441 547Q452 547 460 539T468 521Q468 504 446 493L157 320Q137 308 134 306V305L185 275L446 118Q467 105 467 90Q467 80 460 72T441 64Q436
64 422 71L80 276Q56 291 56 306Z" />
<glyph unicode="=" glyph-name="equal" d="M37 230Q37 246 52 254Q58 257 77 257H452Q486 257 486 230Q486 204 455 204H70Q37 204 37 230ZM37 381Q37 408 72 408H450Q486 408 486 381Q486 355 455 355H70Q37 355 37 381Z" />
<glyph unicode="&gt;" glyph-name="greater" d="M56 90Q56 107 78 118L390 305V306Q387 308 367 320L78 493Q57 506 57 521Q57 531 64 539T83 547Q89 547 103 540L444 335Q446 334 449 332T453 329T458 326T462 322T465 318T467 313T468 306T468 299T465 294T462
290T458 286T454 282T449 279T444 276L102 71Q88 64 83 64Q72 64 64 72T56 90Z" />
<glyph unicode="?" glyph-name="question" d="M61 494Q61 540 106 577T250 615Q367 615 414 577T462 491Q462 429 391 391Q281 329 281 230V208Q281 197 280 192T271 180T246 173H245Q235 173 230 174T218 182T212 205V228Q212 268 224 302T261 361T302 400T346
430T375 447Q401 468 401 491Q401 519 367 540T251 562Q163 562 129 518V517Q139 503 139 491Q139 474 128 463T100 452T73 463T61 494ZM203 42Q203 60 215 72T246 85Q263 85 276 73T289 42T276 12T246 0Q227 0 215 12T203 42Z" />
<glyph unicode="@" glyph-name="at" d="M43 305Q43 437 121 526T304 615Q388 615 433 546Q480 474 480 314V308Q480 221 438 165T337 109Q277 109 235 166T193 305Q193 387 234 444T337 502Q376 502 412 474Q380 562 304 562Q220 562 157 488T93 306Q93 199 155
124T308 49Q367 49 413 88Q415 90 419 93T424 98T430 101T438 103T449 104Q480 104 480 79Q480 56 425 26T306 -4Q199 -4 121 85T43 305ZM243 306Q243 246 271 204T337 162Q377 162 404 205T431 305Q431 365 403 407T337 449Q297 449 270 406T243 306Z" />
<glyph unicode="A" glyph-name="A" d="M27 27Q27 53 61 53H85Q87 65 93 86T100 112L214 587Q219 607 227 615T256 624H269Q277 624 283 623T293 619T300 613T305 606T308 598T311 588T313 578L426 107Q428 98 432 80T439 53H464Q497 53 497 27Q497 0 465 0H351Q319
0 319 26Q319 53 352 53H376L347 176H178L148 53H173Q206 53 206 26Q206 0 174 0H59Q27 0 27 27ZM191 229H334Q266 520 263 550L236 422L191 229Z" />
<glyph unicode="B" glyph-name="B" d="M27 26Q27 53 59 53H95V558H63Q27 558 27 585Q27 611 58 611H287Q371 611 416 563T461 457Q461 413 432 375T349 320Q415 305 448 261T482 166Q482 140 473 113T444 60T388 17T302 0H58Q27 1 27 26ZM156 53H289Q351 53 386
88T421 168Q421 214 389 252T297 291H156V53ZM156 344H266Q334 344 366 380T400 455Q400 493 373 525T284 558H156V344Z" />
<glyph unicode="C" glyph-name="C" d="M40 175T40 305T110 527T282 619Q352 619 417 566Q426 590 430 598T441 612T458 619Q484 619 484 583V437Q484 404 453 404Q436 404 430 410T421 436T412 470Q398 508 365 537T284 566Q213 566 157 492T101 305T157 119T285
45Q338 45 378 78T422 164V168Q423 172 423 174T425 180T428 187T433 192T440 196T451 198H453Q484 198 484 169Q484 98 425 45T282 -8Q181 -8 111 83Z" />
<glyph unicode="D" glyph-name="D" d="M23 26Q23 53 55 53H86V558H57Q23 558 23 584Q23 611 56 611H266Q363 611 424 520T486 300Q486 177 424 89T266 0H56Q23 0 23 26ZM147 53H247Q306 53 348 94T407 188T424 300Q424 403 377 480T247 558H147V53Z" />
<glyph unicode="E" glyph-name="E" d="M30 26Q30 53 63 53H101V558H64Q30 558 30 584Q30 611 62 611H448Q467 611 474 604T481 579V497Q482 464 452 464H450Q421 464 420 494V558H162V343H302V367Q302 400 331 400H334Q363 400 363 367V265Q363 234 334 234H331Q302
234 302 267V290H162V53H441V131Q441 163 472 163H474Q503 163 503 132V34Q503 0 472 0H62Q30 0 30 26Z" />
<glyph unicode="F" glyph-name="F" d="M32 27Q32 53 66 53Q66 53 106 53V558H68Q32 558 32 584Q32 611 65 611H457Q476 611 483 604T490 579V497Q490 464 462 464H459Q430 464 429 494V558H167V332H311V355Q311 389 340 389H344Q373 389 373 356V254Q373 222 343
222H341Q311 222 311 256V279H167V53H229Q247 52 253 44T260 27Q260 0 226 0H64Q32 0 32 27Z" />
<glyph unicode="G" glyph-name="G" d="M37 306Q37 436 101 527T261 619Q329 619 384 570Q386 574 390 583T395 596T400 605T406 613T413 617T423 619Q449 619 449 583V442Q449 433 449 429T446 417T436 407T417 404T399 409T390 420T386 440T381 462Q369 502 340
534T264 566Q200 566 149 492T98 306T148 120T263 45Q316 45 348 94T387 213H337Q304 213 304 240Q304 266 336 266H463Q496 266 496 239Q496 213 465 213H449V30Q449 0 418 0H416Q388 0 388 34V53Q336 -8 261 -8Q167 -8 102 83T37 306Z" />
<glyph unicode="H" glyph-name="H" d="M25 26Q25 53 57 53Q57 53 90 53V558H58Q25 558 25 584Q25 611 56 611H185Q217 611 217 584Q217 558 185 558Q185 558 152 558V344H373V558H342Q308 558 308 584Q308 611 341 611H466Q499 611 499 584Q499 558 468 558H434V53H465Q499
53 499 26Q499 0 466 0H341Q308 0 308 27Q308 53 339 53H373V291H152V53H184Q217 53 217 26Q217 0 184 0H58Q25 0 25 26Z" />
<glyph unicode="I" glyph-name="I" d="M83 27Q83 53 116 53H232V558H115Q83 558 83 584Q83 611 115 611H409Q441 611 441 584Q441 558 409 558H293V53H410Q441 53 441 27Q441 0 409 0H116Q83 0 83 27Z" />
<glyph unicode="J" glyph-name="J" d="M82 100Q82 119 93 129T121 140T148 130T160 101Q160 89 152 78Q180 45 243 45Q281 45 313 67T346 139V558H256Q224 558 224 584Q224 611 258 611H449Q478 611 478 584Q478 558 446 558H408V137Q408 67 359 30T244 -8Q174
-8 128 21T82 100Z" />
<glyph unicode="K" glyph-name="K" d="M28 27Q28 53 62 53H91V558H62Q28 558 28 584Q28 611 60 611H171Q203 611 203 585Q203 558 172 558H141V275L368 558H353Q322 558 322 584Q322 596 330 603T351 611H452Q485 611 485 584Q485 558 453 558H440Q434 558 422
545T349 455Q303 398 272 359L445 53H462Q494 53 494 27Q494 0 464 0H376Q345 0 345 27Q345 53 376 53H388L239 317Q223 297 207 277T183 247T166 226T154 211T147 201T143 192T142 186T141 177V53H170Q203 53 203 26Q203 0 171 0H60Q28 0 28 27Z" />
<glyph unicode="L" glyph-name="L" d="M35 26Q35 53 68 53H112V558H66Q35 558 35 585Q35 611 67 611H237Q270 611 270 584Q270 559 240 558H174V53H428V131Q428 163 458 163Q489 163 489 132V35Q489 0 457 0H67Q35 0 35 26Z" />
<glyph unicode="M" glyph-name="M" d="M20 27Q20 53 53 53H73V558H53Q20 558 20 585Q20 611 52 611H116Q148 611 159 578L245 323Q255 293 262 265Q266 287 365 579Q375 611 406 611H472Q490 611 496 602T503 584Q503 558 471 558H450V53H471Q503 53 503 27Q503
0 472 0H379Q348 0 348 26Q348 53 380 53H401V523L400 550Q396 532 347 382T292 223Q281 204 261 204Q242 204 231 223Q226 232 179 376T123 550V53H143Q176 53 176 26Q176 1 145 0H52Q20 0 20 27Z" />
<glyph unicode="N" glyph-name="N" d="M31 27Q31 53 63 53Q63 53 96 53V558H66Q31 558 31 585Q31 611 63 611H137Q172 611 183 580L379 61V558H347Q314 558 314 585Q314 611 345 611H461Q493 611 493 584Q493 558 462 558H428V38Q428 37 428 31T428 22T425 14T420
7T411 2T397 0H384Q354 0 341 33L146 550V53H178Q211 53 211 26Q211 0 178 0H63Q31 0 31 27Z" />
<glyph unicode="O" glyph-name="O" d="M56 298V345Q56 532 95 577Q111 596 143 606T197 617T257 619H261Q310 619 336 617T389 605T429 578T451 528T465 449T468 333V238Q467 151 457 102T429 33T378 2T249 -8Q203 -8 174 -4T121 14T87 46T68 103T58 183T56 298ZM117
322Q117 255 118 219T124 146T137 94T163 65T202 49T260 45H281Q375 45 391 108Q392 110 392 111Q407 166 407 321Q407 391 405 429T395 498T372 541T332 560T269 566Q235 566 219 565T182 558T149 538T130 501Q119 462 117 355V322Z" />
<glyph unicode="P" glyph-name="P" d="M30 26Q30 53 62 53Q62 53 101 53V558H62Q30 558 30 585Q30 611 61 611H289Q379 611 430 556T481 432Q481 404 471 375T438 317T376 271T284 253H162V53H198Q232 53 232 27Q232 0 200 0H63Q30 0 30 26ZM162 306H271Q346 306
383 346T420 432Q420 481 381 519T276 558H162V306Z" />
<glyph unicode="Q" glyph-name="Q" d="M56 298V320Q56 392 58 438T71 520T93 574T130 603T183 616T259 619H269Q326 619 362 613T422 585Q446 563 457 508T468 327V263Q465 124 450 74T388 6Q454 -118 455 -123Q455 -139 433 -139H414Q395 -139 382 -116Q329 -17
324 -7Q304 -8 274 -8H249Q203 -8 175 -5T124 12T88 43T68 99T58 181T56 298ZM117 306Q117 244 118 208T125 139T138 91T164 63T202 48T257 45H295Q240 147 240 155Q240 171 265 171H281Q293 171 298 164T333 104Q348 77 358 60Q387 80 397 126T407 300Q407 378
405 419T395 494T371 541T331 560T267 566Q231 566 210 564T170 552T143 526T127 480T119 409T117 306Z" />
<glyph unicode="R" glyph-name="R" d="M25 26Q25 53 57 53Q57 53 90 53V558H58Q25 558 25 584Q25 593 31 602T56 611H230Q284 611 325 595T389 553T423 500T434 445Q434 397 407 360T343 304V303Q407 261 407 187V124Q407 45 438 45H439Q457 45 461 94Q463 120
491 120H493Q522 120 522 91Q522 55 500 24T439 -8Q346 -8 346 127V185Q347 221 322 250T232 279H152V53H182Q217 53 217 27Q217 0 184 0H58Q25 0 25 26ZM152 332H227Q300 332 336 368T373 445T336 522T226 558H152V332Z" />
<glyph unicode="S" glyph-name="S" d="M52 27V171Q52 203 82 203Q97 203 104 196T112 184T114 169Q118 110 164 78T284 45Q346 45 380 81T415 161Q415 196 392 227T328 270Q314 274 249 289T166 310Q121 326 87 364T52 458Q52 523 104 571T237 619Q323 619 384
567Q394 607 403 614Q409 619 419 619Q446 619 446 584V439Q446 408 415 408Q405 408 399 410T390 418T386 429T383 444T379 461Q351 566 237 566Q183 566 147 536T110 463Q110 426 134 402T185 368Q190 366 324 335Q397 318 434 269T472 165Q472 98 421 45T284
-8Q181 -8 113 43Q112 39 110 31T107 20T104 11T100 3T95 -3T88 -7T79 -8Q52 -8 52 27Z" />
<glyph unicode="T" glyph-name="T" d="M26 494V577Q26 611 58 611H466Q498 611 498 577V495Q498 464 469 464H468Q438 464 437 494V558H293V53H354Q371 53 378 45T385 27Q385 0 353 0H171Q139 0 139 27Q139 53 169 53H231V558H87V494Q87 464 56 464H55Q27 464 26 494Z" />
<glyph unicode="U" glyph-name="U" d="M8 584Q8 611 42 611H179Q210 611 210 585Q210 558 175 558H140V215Q140 130 178 88T262 45Q279 45 298 53T337 78T371 132T385 216V558H348Q314 558 314 585Q314 611 348 611H485Q516 611 516 584Q516 558 481 558H446V216Q446
157 428 112T381 42T322 5T262 -8Q191 -8 135 50T79 212V558H42Q8 558 8 584Z" />
<glyph unicode="V" glyph-name="V" d="M17 585Q17 611 49 611H161Q193 611 193 584Q193 558 160 558H136L240 157L258 82L262 61Q271 115 302 230L387 558H364Q331 558 331 584Q331 611 363 611H474Q506 611 506 585Q506 558 473 558H451L311 28Q305 6 297 -1T268
-8H255Q246 -8 239 -6T229 -2T222 6T217 15T213 26T210 37L72 558H48Q17 558 17 585Z" />
<glyph unicode="W" glyph-name="W" d="M11 584Q11 611 42 611H134Q164 611 164 584Q164 558 133 558H98L157 145L164 82L166 61Q168 94 195 215T228 347Q237 367 263 367Q286 367 296 349Q302 338 328 219T359 61L362 96L426 558H392Q360 558 360 584Q360 611
391 611H482Q513 611 513 584Q513 558 480 558H477L399 26Q394 -8 365 -8Q339 -8 330 11T300 126Q290 172 283 201Q267 269 262 305Q257 266 200 24Q192 -8 160 -8Q130 -8 125 26L48 558H44Q11 558 11 584Z" />
<glyph unicode="X" glyph-name="X" d="M25 27Q25 53 59 53H86L220 314Q225 324 220 335L98 558H68Q36 558 36 584Q36 611 68 611H180Q213 611 213 585Q213 558 182 558H167L256 393L339 558H323Q291 558 291 585Q291 611 324 611H436Q468 611 468 584Q468 558
436 558H407L293 335Q288 324 293 314L421 81Q431 63 436 53H464Q497 53 497 27Q497 0 465 0H353Q320 0 320 26Q320 53 352 53H367L257 263H256L153 53H170Q202 53 202 26Q202 0 169 0H57Q25 0 25 27Z" />
<glyph unicode="Y" glyph-name="Y" d="M17 584Q17 611 49 611H162Q194 611 194 584Q194 558 162 558H146L247 345L260 313L262 306H263L265 313L277 345L379 558H363Q331 558 331 584Q331 611 363 611H475Q507 611 507 584Q507 558 474 558H447L300 259L294 244L293
233V53H324Q358 53 358 27Q358 0 325 0H199Q166 0 166 27Q166 53 198 53H232V233L231 244L77 558H51Q17 558 17 584Z" />
<glyph unicode="Z" glyph-name="Z" d="M47 30Q47 42 55 55L397 558H120V495Q120 464 91 464H88Q60 464 59 493V579Q59 611 93 611H444Q476 611 476 584Q476 570 468 556L126 53H420V133Q420 166 449 166H451Q481 166 481 134V32Q481 17 475 10T463 1T447 0H78Q47
0 47 30Z" />
<glyph unicode="[" glyph-name="bracketleft" d="M230 -51V662Q230 694 263 694H450Q483 694 483 668Q483 641 450 641H291V-30H450Q483 -30 483 -57Q483 -83 450 -83H261Q230 -83 230 -51Z" />
<glyph unicode="\" glyph-name="backslash" d="M59 668Q59 680 67 687T85 694Q90 694 94 692T100 688T106 682T110 676T113 669T116 663L455 -28Q466 -50 466 -57Q466 -68 458 -75T439 -83Q422 -83 412 -62L68 642Q59 660 59 668Z" />
<glyph unicode="]" glyph-name="bracketright" d="M41 -57Q41 -30 74 -30H233V641H73Q41 641 41 668Q41 694 74 694H263Q294 694 294 662V-51Q295 -83 263 -83H73Q41 -83 41 -57Z" />
<glyph unicode="^" glyph-name="asciicircum" d="M80 463Q80 480 105 491Q253 565 262 565Q270 565 418 491Q419 491 422 489T427 487T431 484T436 481T439 478T442 473T443 468T444 462Q443 451 435 440T414 428Q406 428 275 498Q267 503 264 503Q262 503 259
502T251 499T239 494T222 485T199 473T169 457T131 436Q117 428 109 428Q97 428 89 440T80 463Z" />
<glyph unicode="_" glyph-name="underscore" d="M56 -60Q56 -30 94 -30H430Q452 -30 460 -40T468 -60Q468 -66 466 -72T454 -84T429 -91H93Q72 -90 64 -80T56 -60Z" />
<glyph unicode="`" glyph-name="grave" d="M107 605Q107 617 116 626T137 635Q145 635 163 626T293 559Q301 555 305 553T313 544T318 530Q317 519 309 508T288 496Q281 496 201 538Q162 558 135 572Q107 586 107 605Z" />
<glyph unicode="a" glyph-name="a" d="M59 122Q59 147 72 170T115 216T208 253T359 270Q359 317 339 341Q303 384 232 384Q187 384 163 378Q164 374 164 365Q164 348 153 337T126 326Q109 326 98 338T87 367Q87 407 124 422T231 437Q262 437 292 430T352 406T401
356T420 278V76Q420 67 423 63T439 56T483 53H496Q510 53 517 45T524 27Q524 0 492 0H479Q431 0 406 7T366 36Q310 -4 221 -4Q152 -4 106 31T59 122ZM121 122Q121 90 151 70T227 49Q270 49 311 64T358 111Q359 116 359 126V218Q252 216 187 191T121 122Z" />
<glyph unicode="b" glyph-name="b" d="M15 585Q15 611 47 611H130Q135 611 139 610T146 608T151 605T155 602T158 597T159 593T160 588T161 583T161 578V574V380Q220 435 291 435Q369 435 426 372T484 216Q484 121 423 59T281 -4Q209 -4 161 53V33Q161 0 132 0H131Q100
0 100 35V558H45Q15 558 15 585ZM161 184Q161 143 192 96T278 49Q335 49 379 96T423 216Q423 285 383 333T288 382Q235 382 198 345T161 267V184Z" />
<glyph unicode="c" glyph-name="c" d="M77 215Q77 300 136 368T300 437Q324 437 338 437T378 433T417 422T442 401T454 366Q454 349 443 338T415 326T388 337T377 366Q377 374 378 378Q355 384 298 384Q223 384 181 332T138 215Q138 145 185 97T298 49Q378 49
403 110Q412 134 435 134Q465 134 465 110Q465 99 457 82T430 45T376 10T293 -4Q203 -4 140 60T77 215Z" />
<glyph unicode="d" glyph-name="d" d="M40 214Q40 306 99 370T243 435Q310 435 363 384V558H308Q278 559 278 585T311 611H391Q424 611 424 580V53H478Q509 53 509 27Q509 0 476 0H396Q380 0 373 6T364 18T363 35V58Q313 -4 233 -4Q156 -4 98 58T40 214ZM101 215Q101
146 141 98T236 49Q292 49 327 95T363 188V261Q363 313 327 347T246 382Q189 382 145 335T101 215Z" />
<glyph unicode="e" glyph-name="e" d="M59 127T59 217T121 372T271 437Q360 437 412 380T464 226Q464 206 455 201T433 195H122Q134 124 183 87T290 49Q328 49 358 66T401 111Q411 134 433 134Q464 134 464 110Q464 77 416 37T286 -4Q188 -4 124 61ZM123 247H402Q388
384 270 384Q222 384 179 350T123 247Z" />
<glyph unicode="f" glyph-name="f" d="M43 404Q43 431 77 431H188V485Q188 548 233 581T343 615Q437 615 437 561Q437 545 427 534T400 523Q365 523 363 561Q355 562 339 562Q305 562 277 545T249 486V431H381Q415 431 415 404Q415 378 383 378H249V53H358Q390
53 390 27Q390 16 382 8T359 0H77Q46 1 46 27T79 53H188V378H75Q43 378 43 404Z" />
<glyph unicode="g" glyph-name="g" d="M29 -83Q29 -53 46 -18T109 42Q83 76 83 114Q83 151 104 182Q71 224 71 277Q71 340 117 387T233 435Q284 435 331 404Q380 439 441 439Q473 439 491 426T510 390Q510 376 500 366T475 355T452 364T441 386Q406 385 367 366Q395
322 395 278Q395 215 349 168T233 120Q183 120 142 147Q134 129 134 114Q134 93 145 78T172 60Q180 58 210 58H275Q369 57 419 34T487 -37Q496 -60 496 -83Q496 -145 428 -186T263 -227T98 -187T29 -83ZM80 -80Q80 -119 132 -147T262 -175Q352 -175 398 -146T444
-83Q444 8 275 8H193Q160 8 136 -2T100 -28T85 -57T80 -80ZM133 324T133 278T163 202T233 172Q273 172 303 201T334 277T303 353T233 383T164 354Z" />
<glyph unicode="h" glyph-name="h" d="M15 27Q15 53 48 53H100V558H45Q15 558 15 585Q15 611 47 611H130Q162 611 161 577Q161 575 161 574V402Q161 398 161 390T162 377Q212 435 293 435Q366 435 395 395T424 281V53H477Q509 53 509 27Q509 0 476 0H310Q278 0
278 26Q278 53 308 53H363V286Q363 334 349 358T290 382Q271 382 251 375T210 353T175 307T161 234V53H216Q246 52 246 26T214 0H48Q15 0 15 27Z" />
<glyph unicode="i" glyph-name="i" d="M219 567Q219 585 231 597T262 610Q279 610 292 598T305 567T292 537T262 525Q243 525 231 537T219 567ZM82 26Q82 53 115 53H244V378H131Q130 378 127 378T122 377Q90 377 90 404T122 431H272Q305 431 305 399V53H416Q450
53 450 26Q450 0 419 0H114Q82 0 82 26Z" />
<glyph unicode="j" glyph-name="j" d="M47 -158Q47 -141 58 -130T86 -118Q102 -118 113 -129T125 -157Q125 -160 123 -168Q147 -174 186 -174Q220 -174 234 -168Q266 -156 284 -123T303 -41V378H164Q133 378 133 404Q133 431 165 431H332Q364 431 364 396V-38Q364
-129 314 -178T194 -227H189Q120 -227 84 -212T47 -158ZM278 550T278 568T290 598T321 611Q340 611 352 598T364 568Q364 550 352 538T321 525Q304 525 291 537Z" />
<glyph unicode="k" glyph-name="k" d="M24 27Q24 52 54 53H113V558H54Q24 559 24 584Q24 596 32 603T53 611H131Q147 611 154 604T162 591T163 575V211L341 378H288Q258 378 258 404Q258 431 290 431H458Q486 430 486 404T448 378H424Q416 378 406 370T353 321Q313
284 284 256L439 53H475Q508 53 508 27Q508 0 475 0H349Q315 0 315 26Q315 53 350 53H377L248 222Q170 150 168 146Q163 140 163 129V53H222Q252 53 252 26Q252 0 220 0H56Q24 0 24 27Z" />
<glyph unicode="l" glyph-name="l" d="M61 27Q61 53 94 53H231V558H101Q61 558 61 585Q61 611 93 611H260Q292 611 292 579V53H432Q462 53 462 26Q462 0 429 0H93Q61 0 61 27Z" />
<glyph unicode="m" glyph-name="m" d="M0 27Q0 53 33 53H57V378Q57 378 34 378Q0 378 0 404Q0 431 33 431H75Q90 431 97 424T105 411T106 394Q145 435 195 435Q251 435 275 378Q313 435 377 435Q434 435 457 377Q468 349 468 290V53H492Q525 53 525 27Q525 0 493
0H393Q362 0 362 27Q362 53 395 53H419V291Q419 382 374 382Q342 382 315 347T287 240V53H311Q344 53 344 26Q344 0 312 0H212Q181 0 181 27Q181 53 214 53H238V291Q238 382 193 382Q161 382 134 347T106 240V53H131Q163 53 163 26Q163 0 131 0H31Q0 0 0 27Z" />
<glyph unicode="n" glyph-name="n" d="M15 27Q15 53 48 53H100V378H46Q15 378 15 404Q15 416 23 423T44 431H122Q146 431 153 425T161 396Q161 393 161 387T162 377Q212 435 293 435Q366 435 395 395T424 281V53H477Q509 53 509 27Q509 0 476 0H310Q278 0 278
26Q278 53 308 53H363V286Q363 334 349 358T290 382Q271 382 251 375T210 353T175 307T161 234V53H216Q246 52 246 26T214 0H48Q15 0 15 27Z" />
<glyph unicode="o" glyph-name="o" d="M61 216Q61 306 119 371T262 437T405 372T463 216Q463 122 403 59T262 -4Q182 -4 122 59T61 216ZM122 223Q122 150 163 100T262 49T360 100T402 223Q402 289 361 336T262 384Q203 384 163 337T122 223Z" />
<glyph unicode="p" glyph-name="p" d="M15 -196Q15 -169 48 -169H100V378H46Q15 378 15 404Q15 431 48 431H133Q161 431 161 396V380Q220 435 291 435Q369 435 426 372T484 216Q484 121 423 59T281 -4Q209 -4 161 53V-169H216Q246 -170 246 -196T214 -222H48Q15
-222 15 -196ZM161 184Q161 143 192 96T278 49Q335 49 379 96T423 216Q423 285 383 333T288 382Q235 382 198 345T161 267V184Z" />
<glyph unicode="q" glyph-name="q" d="M44 215Q44 309 108 372T256 435Q329 435 384 373V401Q384 435 413 435H416Q445 435 445 401V-169H504Q534 -170 534 -196T503 -222H326Q295 -222 295 -195Q295 -169 325 -169H384V62Q324 -4 246 -4Q162 -4 103 60T44 215ZM105
215Q105 148 146 99T249 49Q308 49 346 96T384 194V233Q386 283 352 332T259 382Q197 382 151 334T105 215Z" />
<glyph unicode="r" glyph-name="r" d="M35 1T35 27T68 53H156V378H65Q35 378 35 404Q35 431 69 431H184Q200 431 208 425T217 412T218 395V346Q288 435 394 435Q487 435 487 378Q487 362 477 351T450 340Q443 340 436 342T421 355T413 381Q406 382 393 382Q325
381 272 331T218 182V53H337Q369 53 369 27Q369 0 337 0H66Q35 1 35 27Z" />
<glyph unicode="s" glyph-name="s" d="M72 29V139Q72 158 77 167T104 176Q127 176 135 150Q163 49 269 49Q340 49 373 71T406 123Q406 151 378 169T316 194T233 208T164 223Q72 252 72 322Q72 367 115 402T262 437Q330 437 374 412Q378 421 380 425T389 433T403
437Q429 437 429 405V323Q429 313 429 310T426 299T417 288T399 285Q387 285 380 290T371 299T368 315T366 327Q355 384 262 384Q194 384 160 366T125 323Q125 306 138 294T177 274T226 263T282 254T331 245Q380 234 419 205T459 124Q459 75 416 36T270 -4H269Q185
-4 133 40Q122 6 113 0Q107 -4 98 -4Q72 -4 72 29Z" />
<glyph unicode="t" glyph-name="t" d="M25 404Q25 431 58 431H157V521Q157 554 186 554Q186 554 189 554Q218 554 218 521V431H396Q427 431 427 405Q427 378 396 378H218V118Q218 106 220 97T229 75T254 56T301 49Q333 49 360 64T388 115V128Q388 165 417 165H419Q450
165 450 131V113Q450 55 404 26T297 -4Q157 -4 157 121V378H60Q25 378 25 404Z" />
<glyph unicode="u" glyph-name="u" d="M15 404Q15 431 48 431H128Q143 431 150 425T159 413T161 397V120Q161 104 162 95T171 74T196 55T245 49Q295 49 326 75T362 135Q363 144 363 163V378H307Q278 378 278 404Q278 431 310 431H392Q424 431 424 396V53H478Q509
53 509 26Q509 0 477 0H394Q379 0 372 7T364 20T363 38Q314 -4 241 -4Q202 -4 174 5T132 27T111 59T102 90T100 118V378H46Q15 378 15 404Z" />
<glyph unicode="v" glyph-name="v" d="M22 404Q22 431 56 431H181Q213 431 213 404Q213 378 181 378H144L261 44H262L379 378H344Q310 378 310 404Q310 431 343 431H468Q501 431 501 404Q501 378 469 378H432Q428 365 418 339L311 34Q302 10 293 3T263 -4H258Q224
-4 215 26L105 338Q97 360 91 378H57Q22 378 22 404Z" />
<glyph unicode="w" glyph-name="w" d="M15 404Q15 431 48 431H178Q208 431 208 404Q208 379 178 378H116L175 61Q179 81 202 157T229 239Q239 258 263 258Q295 258 303 226Q342 97 351 61L408 378H346Q316 379 316 404Q316 415 324 423T348 431H476Q509 431 509
404Q509 378 477 378H459L393 28Q387 -4 357 -4H356Q329 -4 320 11T289 98Q282 124 277 139Q268 172 263 197Q260 173 238 98T210 14Q200 -4 173 -4H167Q159 -4 153 -2T143 3T136 12T132 22T130 33T128 43L72 342L65 378H47Q15 378 15 404Z" />
<glyph unicode="x" glyph-name="x" d="M25 27Q25 53 57 53Q57 53 92 53Q100 53 110 64T170 139Q208 188 235 222Q226 233 117 367Q107 378 90 378H63Q31 378 31 404Q31 415 39 423T63 431H188Q222 431 222 404Q222 378 190 378H170L260 263L346 378H326Q293 378
293 404Q293 431 327 431H452Q484 431 484 404Q484 378 453 378H426Q425 378 423 378Q408 378 399 367L285 222L412 64Q421 53 435 53H467Q498 53 498 27Q498 0 468 0H341Q308 0 308 27Q308 53 341 53H361L259 189L161 53H183Q216 53 216 26Q216 0 184 0H58Q25
0 25 27Z" />
<glyph unicode="y" glyph-name="y" d="M24 404Q24 431 57 431H183Q215 431 215 403Q215 378 183 378H148L250 118L271 61Q279 93 380 378H344Q310 378 310 404Q310 431 343 431H470Q501 431 501 404Q501 378 466 378H432L272 -73Q220 -227 125 -227Q92 -227 67
-206T42 -151Q42 -134 53 -124T80 -113Q97 -113 107 -124T118 -151Q118 -158 113 -170Q120 -173 129 -173Q142 -173 154 -168T176 -152T193 -130T208 -101T220 -72T231 -41T241 -13Q245 -2 240 13L94 378H57Q24 378 24 404Z" />
<glyph unicode="z" glyph-name="z" d="M32 29Q32 36 34 41T37 49T46 58T55 68L380 378H110V342Q110 310 80 310Q48 310 48 353Q48 357 48 365T49 379V398Q49 412 54 420T66 429T82 431H440Q472 431 472 402Q472 396 471 392T468 383T464 377T457 370T449 363L124
53H413V98Q413 132 444 132T475 99V36Q475 25 474 20T466 7T442 0H64Q32 0 32 29Z" />
<glyph unicode="{" glyph-name="braceleft" d="M61 305Q61 332 92 332H95Q156 333 191 348T231 388Q232 395 232 410V570Q232 693 432 694Q463 694 463 668Q463 648 445 643Q442 642 418 641T371 636T324 622T295 592Q293 587 293 567V406Q295 339 231 305Q293
276 293 205V43Q293 29 296 20T311 -2T353 -22T431 -30Q463 -30 463 -57Q463 -83 434 -83Q232 -83 232 40V202Q232 216 231 223T221 242T195 261Q172 271 145 275T101 279T73 283T61 305Z" />
<glyph unicode="|" glyph-name="bar" d="M231 -46V655Q231 694 262 694Q268 694 273 692T285 681T292 657V-39Q292 -83 262 -83Q256 -83 251 -81T238 -70T231 -46Z" />
<glyph unicode="}" glyph-name="braceright" d="M61 -56Q61 -37 80 -32Q81 -32 106 -30T154 -25T200 -11T229 19Q232 27 232 44V205Q231 243 246 266T294 306Q232 335 232 406V568Q232 582 231 589T221 607T195 625Q172 635 145 638T101 642T73 647T61 668Q61
694 95 694H96Q293 694 293 571V409Q293 394 294 387T303 369T329 350Q352 340 379 336T423 332T451 328T463 306Q463 279 432 279H429Q369 278 334 263T294 223Q293 216 293 201V40Q293 -19 247 -50T93 -83Q61 -83 61 -56Z" />
<glyph unicode="~" glyph-name="asciitilde" d="M72 526Q72 544 110 577T191 611Q224 611 269 584T334 556Q358 556 387 583T425 610Q435 610 443 602T452 584Q452 567 413 533T333 499Q301 499 255 526T189 554Q164 554 136 527T98 500T80 508T72 526Z" />
</font>
</defs>
</svg>
