<?xml version="1.0" encoding="UTF-8" standalone="no"?><!-- Generator: Gravit.io --><svg xmlns="http://www.w3.org/2000/svg" xmlns:xlink="http://www.w3.org/1999/xlink" style="isolation:isolate" viewBox="0 0 204 120" width="204pt" height="120pt"><path d=" M 14.709 119.191 C 11.915 119.191 9.124 119.04 6.349 118.745 C 4.55 118.553 2.762 118.247 1 117.827 L 1 104.693 C 2.36 104.973 3.728 105.191 5.106 105.349 C 6.891 105.552 8.689 105.655 10.488 105.655 C 11.45 105.655 12.409 105.589 13.364 105.46 C 14.116 105.357 14.86 105.187 15.586 104.951 C 16.331 104.708 17.046 104.383 17.717 103.982 C 18.31 103.62 18.86 103.185 19.343 102.684 C 19.803 102.205 20.205 101.674 20.544 101.099 C 20.913 100.476 21.219 99.816 21.451 99.127 C 21.694 98.404 21.871 97.664 21.982 96.908 C 22.115 95.983 22.181 95.046 22.181 94.106 L 22.181 20.393 L 42.54 20.393 L 42.54 96.919 C 42.54 97.888 42.492 98.858 42.4 99.824 C 42.315 100.683 42.186 101.534 42.009 102.374 C 41.85 103.145 41.648 103.904 41.408 104.653 C 41.18 105.349 40.914 106.031 40.612 106.695 C 40.317 107.336 39.985 107.963 39.62 108.564 C 39.259 109.161 38.865 109.732 38.437 110.281 C 38.002 110.838 37.534 111.369 37.036 111.874 C 36.513 112.401 35.964 112.895 35.385 113.363 C 34.825 113.813 34.246 114.233 33.641 114.624 C 33.007 115.033 32.355 115.413 31.68 115.755 C 30.961 116.128 30.224 116.463 29.472 116.762 C 28.65 117.086 27.81 117.377 26.962 117.628 C 26.567 117.742 26.169 117.853 25.771 117.952 C 25.355 118.059 24.935 118.155 24.511 118.247 C 23.051 118.561 21.576 118.789 20.091 118.933 C 18.303 119.102 16.508 119.191 14.709 119.191 Z " fill="rgb(255,255,255)"/><path d=" M 112.916 92.042 L 112.916 92.042 L 99.431 92.042 L 99.431 50.3 C 99.431 49.087 99.361 47.874 99.218 46.672 C 99.111 45.751 98.934 44.844 98.69 43.948 C 98.447 43.067 98.123 42.212 97.717 41.394 C 97.389 40.734 96.984 40.111 96.516 39.543 C 96.298 39.281 96.066 39.034 95.819 38.802 C 95.572 38.57 95.31 38.353 95.034 38.15 C 94.746 37.943 94.448 37.752 94.138 37.578 C 93.803 37.394 93.456 37.228 93.099 37.081 C 92.313 36.76 91.491 36.524 90.655 36.38 C 89.53 36.189 88.391 36.093 87.252 36.093 C 86.062 36.093 84.875 36.17 83.691 36.321 C 82.751 36.443 81.819 36.638 80.908 36.904 C 80.65 36.981 80.396 37.062 80.142 37.151 C 79.898 37.236 79.662 37.328 79.423 37.424 C 78.91 37.634 78.409 37.877 77.926 38.15 C 77.476 38.4 77.045 38.684 76.636 38.994 C 76.238 39.293 75.862 39.617 75.508 39.967 C 75.15 40.314 74.822 40.69 74.516 41.084 C 73.809 41.991 73.23 42.99 72.795 44.051 C 72.165 45.592 71.682 47.192 71.357 48.821 C 71.092 50.152 70.904 51.498 70.79 52.85 C 70.635 54.642 70.561 56.441 70.561 58.24 L 70.561 92.042 L 46.516 92.042 L 46.516 20.312 L 65.061 20.312 L 68.047 29.251 L 68.158 29.251 C 68.703 28.536 69.297 27.858 69.923 27.22 C 70.675 26.457 71.483 25.746 72.334 25.097 C 73.234 24.415 74.177 23.796 75.165 23.246 C 76.242 22.646 77.358 22.115 78.505 21.658 C 79.57 21.234 80.658 20.865 81.76 20.552 C 82.936 20.216 84.126 19.94 85.328 19.719 C 86.633 19.479 87.949 19.302 89.272 19.188 C 90.732 19.063 92.192 19 93.659 19 C 95.557 19 97.452 19.096 99.343 19.287 C 100.921 19.446 102.487 19.704 104.035 20.058 C 104.485 20.161 104.939 20.272 105.385 20.393 C 105.812 20.508 106.236 20.633 106.66 20.766 C 107.585 21.057 108.496 21.392 109.384 21.776 C 110.21 22.126 111.01 22.52 111.791 22.959 C 112.525 23.372 113.236 23.822 113.922 24.312 C 114.582 24.78 115.216 25.289 115.817 25.83 C 116.414 26.365 116.981 26.933 117.516 27.534 C 118.043 28.123 118.537 28.746 118.994 29.395 C 119.459 30.048 119.886 30.729 120.27 31.434 C 120.671 32.16 121.033 32.912 121.35 33.678 C 121.685 34.486 121.98 35.315 122.227 36.156 C 122.492 37.062 122.717 37.984 122.89 38.917 C 123.086 39.945 123.23 40.984 123.322 42.028 C 123.425 43.196 123.477 44.372 123.477 45.548 L 123.477 78.615 L 112.916 92.042 L 112.916 92.042 L 112.916 92.042 Z " fill="rgb(255,255,255)"/><path d=" M 117.874 91.946 L 146.128 55.387 L 119.319 20.404 L 143.333 20.404 L 160.437 44.5 L 177.695 20.404 L 201.702 20.404 L 174.595 55.387 L 203 91.946 L 178.924 91.946 L 160.441 66.076 L 141.88 91.946 L 117.874 91.946 Z " fill="rgb(255,255,255)"/></svg>