<?xml version="1.0" encoding="UTF-8" standalone="no"?>
<!-- Created with Inkscape (http://www.inkscape.org/) -->

<svg
   xmlns:dc="http://purl.org/dc/elements/1.1/"
   xmlns:cc="http://creativecommons.org/ns#"
   xmlns:rdf="http://www.w3.org/1999/02/22-rdf-syntax-ns#"
   xmlns:svg="http://www.w3.org/2000/svg"
   xmlns="http://www.w3.org/2000/svg"
   xmlns:sodipodi="http://sodipodi.sourceforge.net/DTD/sodipodi-0.dtd"
   xmlns:inkscape="http://www.inkscape.org/namespaces/inkscape"
   width="50.664463mm"
   height="50.575432mm"
   viewBox="0 0 179.51975 179.20429"
   id="svg2"
   version="1.1"
   inkscape:version="0.91 r13725"
   sodipodi:docname="Blogger.svg">
  <title
     id="title4226">Blogger logo</title>
  <defs
     id="defs4" />
  <sodipodi:namedview
     id="base"
     pagecolor="#ffffff"
     bordercolor="#666666"
     borderopacity="1.0"
     inkscape:pageopacity="0.0"
     inkscape:pageshadow="2"
     inkscape:zoom="1.4"
     inkscape:cx="103.69453"
     inkscape:cy="94.716359"
     inkscape:document-units="px"
     inkscape:current-layer="g4149"
     showgrid="false"
     fit-margin-top="0"
     fit-margin-left="0"
     fit-margin-right="0"
     fit-margin-bottom="0"
     inkscape:window-width="1366"
     inkscape:window-height="705"
     inkscape:window-x="-8"
     inkscape:window-y="-8"
     inkscape:window-maximized="1" />
  <metadata
     id="metadata7">
    <rdf:RDF>
      <cc:Work
         rdf:about="">
        <dc:format>image/svg+xml</dc:format>
        <dc:type
           rdf:resource="http://purl.org/dc/dcmitype/StillImage" />
        <dc:title>Blogger logo</dc:title>
        <cc:license
           rdf:resource="http://creativecommons.org/licenses/by-sa/3.0/" />
        <dc:date>14/11/2016</dc:date>
        <dc:creator>
          <cc:Agent>
            <dc:title>Google, Inc.</dc:title>
          </cc:Agent>
        </dc:creator>
        <dc:publisher>
          <cc:Agent>
            <dc:title>CMetalCore</dc:title>
          </cc:Agent>
        </dc:publisher>
      </cc:Work>
      <cc:License
         rdf:about="http://creativecommons.org/licenses/by-sa/3.0/">
        <cc:permits
           rdf:resource="http://creativecommons.org/ns#Reproduction" />
        <cc:permits
           rdf:resource="http://creativecommons.org/ns#Distribution" />
        <cc:requires
           rdf:resource="http://creativecommons.org/ns#Notice" />
        <cc:requires
           rdf:resource="http://creativecommons.org/ns#Attribution" />
        <cc:permits
           rdf:resource="http://creativecommons.org/ns#DerivativeWorks" />
        <cc:requires
           rdf:resource="http://creativecommons.org/ns#ShareAlike" />
      </cc:License>
    </rdf:RDF>
  </metadata>
  <g
     inkscape:label="Capa 1"
     inkscape:groupmode="layer"
     id="layer1"
     transform="translate(-157.76392,-165.65276)">
    <g
       id="g4149"
       transform="translate(233.34014,-698.87178)">
      <path
         style="fill:#f06a35"
         d="m -55.063807,1043.0234 c -3.359449,-0.8837 -6.258272,-2.1837 -8.931866,-4.0056 -2.256922,-1.5379 -5.555601,-4.7174 -6.810077,-6.5637 -1.532132,-2.255 -3.293254,-6.1168 -4.010994,-8.795 -0.732062,-2.7319 -0.743927,-3.8198 -0.757063,-69.39501 -0.01306,-65.24411 0.0018,-66.67877 0.719335,-69.48264 2.53752,-9.91559 10.395271,-17.45981 20.529599,-19.71045 2.913842,-0.64711 133.079792,-0.76029 136.222893,-0.11843 8.508999,1.73759 15.197718,6.84619 19.06824,14.56362 3.07712,6.13545 2.80203,-0.61622 2.94296,72.23085 0.0897,46.34991 0.007,65.80856 -0.28883,68.23286 -1.38576,11.3442 -9.210679,20.1431 -20.470153,23.0183 -2.880202,0.7354 -3.882129,0.7459 -69.275121,0.7259 -63.227195,-0.019 -66.474476,-0.052 -68.938923,-0.7007 z"
         id="path4195" />
      <path
         style="fill:#fefefe;fill-opacity:0"
         d="m -158.57144,952.36221 0,-171.89999 510,0 510,0 0,171.89999 0,171.89999 -510,0 -510,0 0,-171.89999 z"
         id="path4165"
         inkscape:connector-curvature="0" />
      <path
         style="fill:#ffffff"
         d="m 39.58546,1009.3592 c 8.064748,-1.1001 14.384531,-4.3325 20.313328,-10.3896 4.288999,-4.38181 6.973811,-9.12472 8.728379,-15.41921 0.728903,-2.6149 0.790018,-3.88807 0.923587,-19.24149 0.100809,-11.58796 0.01669,-17.01514 -0.285075,-18.38528 -0.437344,-1.98593 -1.67711,-3.83016 -3.091687,-4.59911 -0.435299,-0.23661 -3.224334,-0.53819 -6.197859,-0.67015 -4.982681,-0.22115 -5.540155,-0.31832 -7.11287,-1.24 -2.494681,-1.46198 -3.181724,-3.04069 -3.188544,-7.32677 -0.01304,-8.1894 -3.421087,-15.79237 -10.154891,-22.65435 -4.797263,-4.8886 -10.14889,-8.19759 -16.256563,-10.05172 -1.462167,-0.44388 -4.736105,-0.59493 -15.7023605,-0.72452 -17.2069763,-0.20332 -21.0264035,0.14939 -26.8842785,2.48265 -10.799733,4.30168 -18.559563,13.36742 -21.390152,24.98992 -0.531646,2.18295 -0.634845,5.6815 -0.760427,25.77865 -0.157327,25.17748 0.01622,28.87467 1.589422,33.86414 1.299798,4.12233 2.611223,6.64844 5.312916,10.23388 5.146805,6.83036 12.860236,11.76336 20.572006,13.15646 3.669923,0.6631 48.94793,0.829 53.585069,0.1965 z"
         id="path4163" />
      <path
         style="fill:#f06a35"
         d="m -8.0012107,940.24201 c -4.1229413,-1.13646 -5.6634683,-7.05179 -2.6332273,-10.11109 1.9367555,-1.95536 2.4721802,-2.02981 14.5952492,-2.02981 10.8833578,0 11.2491898,0.0238 12.8478758,0.83129 2.310253,1.16711 3.314106,2.81263 3.314106,5.43252 0,2.36619 -0.942769,4.0244 -3.045645,5.35691 -1.129143,0.71549 -1.803912,0.76002 -12.4672419,0.82265 -6.5844803,0.0387 -11.829856,-0.0872 -12.6111168,-0.30247 z"
         id="path4168" />
      <path
         style="fill:#f06a35"
         d="m -8.5177926,980.05059 c -1.7697484,-0.77113 -3.4178244,-2.91327 -3.7026534,-4.81263 -0.271319,-1.80929 0.637963,-4.29669 2.031786,-5.55809 1.7569755,-1.59003 2.5280723,-1.64307 24.134743,-1.66008 22.226353,-0.0174 22.11068,-0.0268 24.218307,1.94113 2.976827,2.77944 2.348939,7.7279 -1.238363,9.75964 l -3.686323,0.59948 -19.213121,0.22489 c -16.8830622,0.19762 -21.6656419,-0.1114 -22.5443756,-0.49433 z"
         id="path4166" />
    </g>
  </g>
</svg>
