<?xml version="1.0" standalone="no"?> <!DOCTYPE svg PUBLIC "-//W3C//DTD SVG 1.0//EN" "http://www.w3.org/TR/2001/REC-SVG-20010904/DTD/svg10.dtd" > <svg xmlns="http://www.w3.org/2000/svg" width="100%" height="100%">
<defs >
<font id="cmunbl" horiz-adv-x="510" ><font-face
    font-family="CMU Serif Extra"
    units-per-em="1000"
    panose-1="2 0 8 3 0 0 0 0 0 0"
    ascent="937"
    descent="-308"
    alphabetic="0" />
<missing-glyph horiz-adv-x="760" d="M10 10V765H750V10H10ZM70 112L346 388L70 663V112ZM105 70H655L380 346L105 70ZM105 705L380 429L655 705H105ZM414 388L690 112V663L414 388Z" />
<glyph unicode=" " glyph-name="space" horiz-adv-x="383" />
<glyph unicode="!" glyph-name="exclam" horiz-adv-x="350" d="M109 69Q109 104 136 130T197 156Q227 156 246 136T266 87Q266 50 239 25T178 0Q149 0 129 19T109 69ZM191 250Q191 269 193 345L201 604Q201 634 204 644Q211 670 236 687T290 705T338 687T359 642Q359
636 348 596L244 255Q238 237 233 232T214 226Q191 226 191 250Z" />
<glyph unicode="&quot;" glyph-name="quotedbl" horiz-adv-x="575" d="M232 359Q233 443 233 545Q233 649 237 659V660Q244 683 264 696T309 710Q331 710 347 697T363 661Q363 645 353 617L268 359H232ZM424 359L425 389V433Q426 509 426 624Q426 651 434 670T456
696T480 707T501 710Q523 710 539 697T556 661Q556 649 540 598T498 473T461 359H424Z" />
<glyph unicode="#" glyph-name="numbersign" horiz-adv-x="958" d="M87 139Q87 157 115 157H320L409 343H154Q125 343 125 361T158 379H427L562 660Q578 693 591 693Q607 693 607 675Q607 670 597 647L468 379H697L832 660Q832 661 834 666T839 675T844 683T851
690T860 693Q877 693 877 675Q877 672 866 647L737 379H924Q952 379 952 361T923 343H719L630 157H885Q915 157 915 138Q915 120 881 120H612L477 -160Q476 -162 474 -165T471 -171T468 -178T464 -184T460 -188T456 -192T450 -193H447Q432 -191 432 -175Q432 -172
443 -147L571 120H342L207 -160Q206 -162 204 -165T201 -171T198 -178T194 -184T190 -188T186 -192T180 -193H177Q163 -191 163 -175Q163 -170 173 -147L302 120H116Q87 120 87 139ZM361 157H590L679 343H450L361 157Z" />
<glyph unicode="$" glyph-name="dollar" horiz-adv-x="575" d="M92 154Q92 209 114 230T166 252Q189 252 205 238T221 199Q221 173 202 150T145 127H144Q168 52 271 43L312 294Q245 309 210 335Q144 383 144 469T208 624T380 699L388 750H436L427 699Q477 695
512 680T566 643T592 598T600 550Q600 498 577 477T526 456Q502 456 487 470T471 509T488 556T546 581Q516 644 420 651L419 650L382 428H384Q477 410 520 344Q548 301 548 243Q548 154 485 79T310 -5L302 -55H254L262 -5Q168 4 130 49T92 154ZM234 529Q234 458
337 439L372 650Q330 645 301 630T258 594T239 558T234 529ZM318 44Q354 50 381 64T422 93T445 128T456 159T458 182Q458 194 455 205T443 233T413 262T358 283L318 44Z" />
<glyph unicode="%" glyph-name="percent" horiz-adv-x="958" d="M151 503Q151 600 208 675T359 750Q403 750 438 720Q531 644 645 644Q776 644 862 738Q874 750 886 750Q899 750 908 741T917 719Q917 707 903 693L212 -42Q200 -56 186 -56Q175 -56 166 -48T156
-25Q156 -12 168 0L756 625L755 626Q701 608 644 608Q559 608 475 651Q479 634 479 602Q479 538 458 481T394 386T296 347Q235 347 193 387T151 503ZM248 458Q248 383 300 383Q358 383 395 453T433 605Q433 655 414 684T359 714Q299 714 272 616Q266 594 257 540T248
458ZM594 100Q594 199 652 273T801 347Q852 347 887 310T922 199Q922 100 872 22T739 -56Q678 -56 636 -16T594 100ZM691 55Q691 -20 743 -20Q800 -20 838 49T876 202Q876 255 856 283T802 311Q741 311 715 213Q709 192 700 138T691 55Z" />
<glyph unicode="&amp;" glyph-name="ampersand" horiz-adv-x="894" d="M70 121Q70 188 140 240Q140 240 271 339Q255 401 255 461Q255 564 299 621Q329 660 374 682T466 705Q510 705 534 675T559 596Q559 563 546 537T487 466Q445 424 383 378Q396 329 432 268T487
182T519 141Q612 217 752 388Q725 397 682 397L690 444Q756 441 811 441Q862 441 910 444L902 397Q837 397 810 388Q696 253 652 206T547 108Q549 103 564 88T611 55T676 36Q718 36 756 57T802 118H849Q839 61 786 25T666 -11Q559 -11 466 52Q362 -11 258 -11Q181
-11 126 23T70 121ZM202 134Q202 36 271 36Q345 36 429 80Q330 168 283 302Q241 274 222 228T202 134ZM365 499Q365 459 373 416Q430 460 465 498Q513 551 513 601Q513 669 468 669Q443 669 421 652T384 610Q365 573 365 499Z" />
<glyph unicode="&apos;" glyph-name="quotesingle" horiz-adv-x="319" d="M200 359V411Q200 418 201 492T202 586V612Q202 658 212 675Q232 710 277 710H278Q302 709 316 696T331 661Q331 660 331 660Q331 648 288 515Q258 425 237 359H200Z" />
<glyph unicode="(" glyph-name="parenleft" horiz-adv-x="447" d="M140 140Q140 249 172 351T251 522T349 645T437 724T487 750Q504 750 504 736Q504 731 502 728Q500 726 483 711Q409 649 357 562T279 385T244 225T233 94Q233 -102 335 -220Q343 -229 343 -235Q343
-249 325 -249Q306 -249 263 -203T189 -93Q140 9 140 140Z" />
<glyph unicode=")" glyph-name="parenright" horiz-adv-x="447" d="M25 -235Q25 -229 39 -217Q154 -118 213 16Q296 205 296 407Q296 602 196 720Q187 732 187 736Q187 750 205 750T265 705T335 605Q389 497 389 361Q389 251 357 149T277 -23T180 -146T92 -224T43
-249Q25 -249 25 -235Z" />
<glyph unicode="*" glyph-name="asterisk" horiz-adv-x="575" d="M146 432Q146 467 183 479L333 528L203 576Q176 585 176 609Q176 630 192 647T229 664Q233 664 236 663T242 662L244 661L361 560V696Q361 722 375 735Q390 750 412 750Q429 750 439 740T450 717Q450
712 446 699L400 560L539 653Q555 664 566 664Q583 664 593 652T604 624Q604 589 567 577L417 528L547 480Q574 471 574 447Q574 426 558 409T521 392Q517 392 514 393T508 394L506 395L389 496V360Q389 334 375 321Q360 306 338 306Q321 306 311 316T300 339Q300
346 302 352L350 496L226 413Q196 392 184 392Q167 392 157 404T146 432Z" />
<glyph unicode="+" glyph-name="plus" horiz-adv-x="894" d="M106 232T106 250T139 268H473Q473 271 501 441T531 616Q537 632 549 632Q566 632 566 610Q566 601 563 586L510 268H837Q870 268 870 250T838 232H504L503 231Q498 198 472 42T445 -118Q440 -132 427
-132Q410 -132 410 -112Q410 -104 420 -46T444 96T466 232H137Q106 232 106 250Z" />
<glyph unicode="," glyph-name="comma" horiz-adv-x="319" d="M82 -174Q82 -167 94 -158Q189 -90 216 18Q216 18 213 16Q210 14 206 12T195 7T180 2T162 0Q130 0 112 18T93 67Q93 101 118 128T182 156Q219 156 238 128T258 59Q258 13 237 -36T188 -118T135 -172T100
-194Q94 -194 88 -187T82 -174Z" />
<glyph unicode="-" glyph-name="hyphen" horiz-adv-x="383" d="M41 174L57 271H363L347 174H41Z" />
<glyph unicode="." glyph-name="period" horiz-adv-x="319" d="M94 68Q94 101 120 128T183 156Q211 156 231 137T251 88Q251 54 225 27T163 0Q133 0 114 19T94 68Z" />
<glyph unicode="/" glyph-name="slash" horiz-adv-x="575" d="M26 -238T26 -231T33 -214L575 701Q577 704 582 714T590 728T598 738T607 746T615 749Q622 749 626 744T631 731T619 704L71 -221Q55 -249 43 -249Q36 -249 31 -244Z" />
<glyph unicode="0" glyph-name="zero" horiz-adv-x="575" d="M86 198Q86 260 106 363T166 529Q246 655 396 655Q595 655 595 443Q595 420 591 375T568 250T519 119Q443 -11 285 -11Q86 -11 86 198ZM202 124Q202 72 230 49T291 25T355 45T405 102Q425 143 452 304T480
522Q480 549 472 569T452 598T426 612T404 618T390 619Q352 619 319 596T272 536Q252 479 227 326T202 124Z" />
<glyph unicode="1" glyph-name="one" horiz-adv-x="575" d="M96 0L104 47H243L328 563Q264 544 195 544H176L183 591H203Q339 591 424 655Q437 655 443 655T454 650T460 636Q460 635 460 633T459 628T458 622L362 47H502L494 0Q450 3 295 3T96 0Z" />
<glyph unicode="2" glyph-name="two" horiz-adv-x="575" d="M57 0L62 29Q64 39 75 50L320 264Q459 386 459 496Q459 546 431 577T350 608Q323 608 297 600T259 584T240 572Q286 559 286 513Q286 478 261 454T203 429Q181 429 161 443T140 490Q140 555 208 605T379
655Q476 655 536 612T597 492Q597 453 583 419T537 355T483 308T418 264Q325 203 218 125H363Q457 125 467 131Q486 143 507 222H554L486 0H57Z" />
<glyph unicode="3" glyph-name="three" horiz-adv-x="575" d="M70 122Q70 168 96 192T158 217T209 197T226 153Q226 124 207 98T153 66Q198 32 272 32Q345 32 380 99Q391 120 398 155T408 212T410 242Q410 330 321 330H278Q250 330 250 344Q250 364 262 366Q264
366 267 366T282 367T311 369Q349 371 378 394T420 450T440 509T447 555Q447 616 376 616Q311 616 258 579Q266 577 275 573T294 555T305 521Q305 489 283 465T225 441Q198 441 181 457T164 500Q164 556 224 605T383 655Q477 655 529 621T581 532T536 427T413 351Q482
335 520 298T558 203Q558 168 542 132T493 63T403 10T275 -11Q187 -11 129 24T70 122Z" />
<glyph unicode="4" glyph-name="four" horiz-adv-x="575" d="M58 156L66 204L491 643Q499 652 504 654T524 656Q551 656 551 641L550 627L479 203H576L568 156H471L453 47H550L542 0Q507 3 380 3Q246 3 208 0L216 47H328L346 156H58ZM118 203H365L417 513L118 203Z" />
<glyph unicode="5" glyph-name="five" horiz-adv-x="575" d="M82 138Q82 163 89 181T107 208T130 222T149 228T160 229Q182 229 200 215T219 172Q219 144 200 120T140 94Q176 32 258 32Q356 32 391 124Q401 150 410 211T420 298Q420 373 351 373Q264 373 207 317Q196
305 184 305Q162 305 162 325Q162 330 165 346L212 631Q216 655 229 655Q232 655 245 649Q312 623 392 623T549 650Q560 655 564 655Q579 655 579 640Q579 627 559 606T520 571T485 547Q405 499 320 499Q293 499 245 507L224 376Q283 409 355 409Q452 409 503 361T554
237Q554 135 474 62T259 -11Q180 -11 131 31T82 138Z" />
<glyph unicode="6" glyph-name="six" horiz-adv-x="575" d="M91 212Q91 416 195 535T456 655Q522 655 554 626T587 550Q587 506 565 486T515 466Q486 466 473 482T459 519Q459 526 461 534T469 556T490 578T526 590Q505 616 456 616Q370 616 312 546Q266 489 242
345Q294 418 372 418Q466 418 515 369T564 249Q564 136 488 63T291 -11Q190 -11 141 48T91 212ZM212 119Q212 75 236 54T292 32Q378 32 406 117Q414 143 425 213T437 311Q437 382 361 382Q294 382 253 307T212 119Z" />
<glyph unicode="7" glyph-name="seven" horiz-adv-x="575" d="M134 422L212 676H259Q259 657 279 653Q288 650 362 647T461 644H665Q662 618 659 611T645 592L445 395Q410 354 385 290T351 184T329 65Q318 -11 257 -11Q234 -11 218 3T201 43Q201 93 250 205T398
417Q460 481 501 519H333Q231 519 223 512Q206 500 181 422H134Z" />
<glyph unicode="8" glyph-name="eight" horiz-adv-x="575" d="M72 134Q72 171 86 203T118 256T162 293T202 316T231 329Q158 377 158 456Q158 490 172 523T213 587T287 636T396 655Q481 655 531 623T581 530Q581 429 455 369Q480 353 493 342T525 312T551 269T560
214Q560 178 545 141T499 68T413 11T286 -11Q189 -11 131 26T72 134ZM159 135Q159 80 197 56T292 32Q378 32 420 66T463 147Q463 174 448 190T383 235L275 302Q225 278 192 234T159 135ZM244 527Q244 499 280 476L413 395Q506 450 506 530Q506 571 476 593T390
616Q310 616 277 588T244 527Z" />
<glyph unicode="9" glyph-name="nine" horiz-adv-x="575" d="M95 96Q95 140 117 159T167 178Q193 178 207 164T222 125Q222 98 205 79T162 54Q190 32 240 32Q316 32 370 95Q414 148 440 301Q390 227 310 227Q212 227 165 279T117 396Q117 508 194 581T396 655Q493
655 542 598T591 436Q591 250 499 122Q457 64 389 27T240 -11Q178 -11 137 14T95 96ZM245 336Q245 325 246 317T254 294T277 271T320 263Q370 263 405 306T456 408T471 532Q471 569 451 592T395 616Q308 616 279 538Q269 508 257 437T245 336Z" />
<glyph unicode=":" glyph-name="colon" horiz-adv-x="319" d="M93 68Q93 102 120 129T182 156Q213 156 232 137T251 88Q251 54 224 27T162 0Q131 0 112 19T93 68ZM141 356Q141 390 168 417T230 444Q261 444 280 425T299 376Q299 342 272 315T210 288Q179 288 160
307T141 356Z" />
<glyph unicode=";" glyph-name="semicolon" horiz-adv-x="319" d="M398 357Q398 391 424 417T486 444Q515 444 535 426T555 377Q555 341 527 315T466 289Q437 289 418 308T398 357ZM82 -174Q82 -167 94 -158Q189 -90 216 18Q216 18 213 16Q210 14 206 12T195 7T180
2T162 0Q130 0 112 18T93 67Q93 101 118 128T182 156Q219 156 238 128T258 59Q258 13 237 -36T188 -118T135 -172T100 -194Q94 -194 88 -187T82 -174Z" />
<glyph unicode="&lt;" glyph-name="less" horiz-adv-x="894" d="M138 250Q138 263 162 272L850 566Q862 572 871 572Q888 572 888 555Q888 543 865 533L198 248Q214 241 278 209L767 -35Q786 -46 786 -56Q786 -62 781 -67T769 -73Q765 -73 761 -72T751 -67T743
-63L160 227Q138 239 138 250Z" />
<glyph unicode="=" glyph-name="equal" horiz-adv-x="894" d="M87 139Q87 157 117 157H825Q851 157 851 139T826 120H115Q87 120 87 139ZM124 343T124 361T153 379H862Q888 378 888 361T862 343H152Q124 343 124 361Z" />
<glyph unicode="&gt;" glyph-name="greater" horiz-adv-x="894" d="M88 -56Q88 -44 110 -34L678 209Q689 214 709 222T745 237T777 251Q767 256 686 296L226 525Q193 541 190 552Q188 560 193 566T207 572L234 562L816 272Q838 260 838 250Q838 236 814 227L126
-67Q114 -73 105 -73Q88 -73 88 -56Z" />
<glyph unicode="?" glyph-name="question" horiz-adv-x="543" d="M158 562Q158 611 212 655T377 700Q575 700 575 587Q575 514 495 472Q442 443 407 414T355 353T333 306T322 262Q318 236 317 235Q315 230 312 229Q308 226 295 226Q272 226 272 242Q272 270 285
315Q314 420 406 500Q450 537 450 615Q450 625 449 631T440 646T416 659T369 664Q301 664 249 631Q285 619 285 581Q285 550 264 530T214 509Q189 509 174 524T158 562ZM189 68Q189 103 215 129T278 156Q308 156 327 136T347 88Q347 53 321 27T258 0Q228 0 209
20T189 68Z" />
<glyph unicode="@" glyph-name="at" horiz-adv-x="894" d="M116 284Q116 359 144 431T225 564T365 662T561 700Q709 700 800 625T892 410Q892 379 885 338T861 247T808 162T722 128Q632 128 604 173Q550 128 468 128Q382 128 327 174T271 308Q271 371 299 428T390
526T537 566Q645 566 686 482H724Q735 482 740 482T749 478T754 466Q754 444 732 334Q710 202 710 198Q710 164 734 164Q767 164 791 197T825 276T840 357T845 411Q845 536 766 600T559 664Q464 664 386 630T261 540T189 418T163 283Q163 171 235 101T453 30Q604
30 755 86Q772 93 790 93H814Q824 93 829 93T838 89T842 79Q842 70 831 65Q648 -6 452 -6Q285 -6 201 75T116 284ZM383 287Q383 235 405 200T473 164Q536 164 586 211Q600 224 602 240L638 457Q639 466 641 473Q609 530 538 530Q468 530 426 453T383 287Z" />
<glyph unicode="A" glyph-name="A" horiz-adv-x="869" d="M41 0L49 47H70Q96 47 122 50Q141 52 147 55T159 69L508 675Q521 698 550 698Q569 698 575 693T586 670L738 47H835L827 0Q792 3 665 3Q526 3 488 0L495 47H590L555 193H287L210 58Q226 51 252 49Q270
47 298 47L290 0Q253 3 159 3Q145 3 126 3T81 1T41 0ZM315 240H543L475 518L315 240Z" />
<glyph unicode="B" glyph-name="B" horiz-adv-x="818" d="M39 0L46 47H155L253 639H145L153 686H587Q681 686 744 649T808 536Q808 472 756 424T608 358Q691 351 738 312T786 210Q786 131 712 66T503 0H39ZM286 47H470Q553 47 596 99T640 225Q640 257 630 280T608
314T578 331T550 338T529 339H335L286 47ZM341 375H497Q577 375 622 425T667 542Q667 639 566 639H385L341 375Z" />
<glyph unicode="C" glyph-name="C" horiz-adv-x="830" d="M116 284Q116 361 147 434T235 566T381 661T579 697Q692 697 766 629L855 697Q880 697 880 682Q880 680 878 670L841 448Q838 432 834 429T813 426Q806 426 803 426T793 429T786 437T787 453Q783 552 728
601T598 650Q524 650 458 622T351 542Q327 511 310 468T284 391T271 318T266 266T265 243Q265 144 320 92Q379 36 493 36Q543 36 594 53T693 118T758 234Q761 248 782 248Q805 248 805 233Q805 231 804 223T796 196T780 158T749 113T701 66Q600 -11 467 -11Q309
-11 213 66T116 284Z" />
<glyph unicode="D" glyph-name="D" horiz-adv-x="881" d="M39 0L46 47H155L253 639H145L153 686H584Q638 686 687 672T781 627T852 540T879 407Q879 238 766 119T470 0H39ZM291 47H437Q484 47 524 58T590 84T639 123T673 167T695 214T709 254T717 286Q738 412
738 452Q738 549 682 595Q628 639 535 639H390L291 47Z" />
<glyph unicode="E" glyph-name="E" horiz-adv-x="755" d="M39 0L46 47H155L252 633H144L152 680H773L764 439H717Q718 448 718 472Q718 558 682 595T547 633H395L352 376H407Q471 376 497 402T532 493H579L532 212H485Q491 239 491 260Q491 301 468 315T399 329H344L297
47H449Q505 47 547 59T615 88T662 140T694 199T722 274H769L677 0H39Z" />
<glyph unicode="F" glyph-name="F" horiz-adv-x="723" d="M39 0L46 47H155L252 633H144L152 680H757L748 439H701Q702 449 702 475Q702 559 668 596T534 633H395L350 364H400Q463 364 489 389T524 481H571L524 200H477Q483 229 483 249Q483 288 461 302T392 317H342L297
47H432L424 0Q380 3 223 3Q77 3 39 0Z" />
<glyph unicode="G" glyph-name="G" horiz-adv-x="904" d="M116 284Q116 361 146 433T233 565T380 661T579 697Q691 697 765 629L854 697Q879 697 879 682Q879 680 877 670L840 448Q837 432 833 429T812 426Q805 426 802 426T792 429T785 437T786 453Q783 547 730
598T597 650Q561 650 524 643T435 610T350 541Q327 512 310 471T284 395T271 323T266 270T265 245Q265 144 324 90Q385 36 497 36Q562 36 603 64Q626 80 633 95T647 145Q650 159 654 187T661 229H518L525 276H526Q570 273 729 273Q856 273 891 276L883 229H803L769
22Q765 0 753 0Q750 0 735 7T698 27T664 52Q594 -11 468 -11Q307 -11 212 66T116 284Z" />
<glyph unicode="H" glyph-name="H" horiz-adv-x="900" d="M39 0L46 47H155L253 639H145L153 686Q191 683 332 683Q474 683 512 686L504 639H396L353 380H673L716 639H608L616 686Q654 683 795 683Q937 683 975 686L967 639H859L760 47H868L860 0Q822 3 681 3T502
0L509 47H618L665 333H345L297 47H405L397 0Q359 3 218 3T39 0Z" />
<glyph unicode="I" glyph-name="I" horiz-adv-x="436" d="M33 0L41 47H155L253 639H140L148 686Q186 683 332 683Q479 683 517 686L509 639H396L297 47H411L402 0Q364 3 218 3Q74 3 33 0Z" />
<glyph unicode="J" glyph-name="J" horiz-adv-x="594" d="M41 100Q41 143 68 167T128 191Q154 191 175 174T196 125Q196 65 135 41Q171 25 212 25Q262 25 293 59T334 146L416 639H276L283 686H284Q328 683 482 683Q606 683 642 686L634 639H553L471 146Q460 75
392 32T218 -11Q137 -11 89 18T41 100Z" />
<glyph unicode="K" glyph-name="K" horiz-adv-x="901" d="M39 0L46 47H155L253 639H145L153 686Q191 683 332 683Q474 683 512 686L504 639H396L342 319L764 628V629Q738 639 694 639L702 686Q738 683 848 683Q899 683 950 686L943 639H925Q854 639 829 621L555
421L766 66Q771 58 775 55T792 49T831 47H860L852 0Q815 3 706 3Q571 3 530 0L538 47Q612 47 612 58Q612 62 607 69L445 340L332 258L297 47H405L397 0Q359 3 218 3T39 0Z" />
<glyph unicode="L" glyph-name="L" horiz-adv-x="691" d="M39 0L46 47H155L253 639H145L153 686Q191 683 336 683Q491 683 539 686L531 639H396L297 47H400Q443 47 478 58T538 91T580 133T610 185T629 232T642 274H689L612 0H39Z" />
<glyph unicode="M" glyph-name="M" horiz-adv-x="1091" d="M40 0L47 47H73Q132 47 157 57L254 639H146L154 686H377Q399 686 405 682T416 659L568 132L897 662Q907 679 916 682T944 686H1166L1158 639H1050L951 47H1059L1051 0Q1015 3 881 3Q746 3 710 0L717 47H826L924
637L923 638L541 23Q528 0 507 0Q497 0 491 4T483 13T478 29L307 625H306L211 57Q236 47 291 47H317L309 0Q271 3 175 3Q81 3 40 0Z" />
<glyph unicode="N" glyph-name="N" horiz-adv-x="900" d="M39 0L46 47H72Q131 47 156 57L253 639H145L153 686H380Q396 686 401 684T413 672L733 203L801 613L802 625Q802 639 723 639H697L705 686Q746 683 840 683Q936 683 975 686L967 639H941Q914 639 889 636Q867
634 862 631T855 615L757 26Q754 9 749 5T728 0Q716 0 713 2T701 15L300 601L210 57Q235 47 290 47H316L308 0Q270 3 174 3Q80 3 39 0Z" />
<glyph unicode="O" glyph-name="O" horiz-adv-x="863" d="M115 271Q115 350 143 425T225 561T362 660T547 697Q693 697 777 621T862 410Q862 332 834 258T754 124T618 26T430 -11Q290 -11 203 60T115 271ZM264 237Q264 144 303 93Q351 31 437 31Q489 31 544 59T640
153Q670 202 688 277T711 395T716 461Q716 518 700 559T655 620T599 648T541 657Q468 657 401 610T301 463Q283 409 274 342T264 237Z" />
<glyph unicode="P" glyph-name="P" horiz-adv-x="786" d="M39 0L46 47H155L253 639H145L153 686H570Q674 686 739 643T805 519Q805 426 722 364T516 302H340L297 47H405L397 0Q359 3 218 3T39 0ZM341 343H474Q573 343 616 391Q634 412 645 462T657 551Q657 639
524 639H390L341 343Z" />
<glyph unicode="Q" glyph-name="Q" horiz-adv-x="863" d="M115 271Q115 350 143 425T225 561T362 660T547 697Q693 697 777 621T862 410Q862 284 791 172T593 17Q607 -10 623 -23T649 -39T674 -41Q755 -41 768 -1Q774 18 787 18Q794 18 799 13T805 -1Q805 -14
796 -42T768 -106T716 -168T639 -194Q615 -194 598 -188T569 -167T550 -139T538 -98T532 -54T527 -2Q479 -11 430 -11Q290 -11 203 60T115 271ZM257 232Q257 98 347 50Q345 60 345 64Q345 101 377 128T454 155Q483 155 506 141T541 111T567 69Q610 96 641 146T687
242T710 343T719 417T720 451Q720 509 704 551T659 616T602 647T541 657Q422 657 342 550Q296 486 277 388T257 232ZM382 64Q382 29 436 29Q479 29 522 45Q516 84 500 101T455 119T404 103T382 64Z" />
<glyph unicode="R" glyph-name="R" horiz-adv-x="862" d="M39 0L46 47H155L253 639H145L153 686H533Q651 686 726 643T802 522Q802 456 746 408T604 339Q699 304 699 218Q699 206 697 166T695 114Q695 73 705 49T748 25Q770 25 793 41T827 100Q832 117 851 117Q874
117 874 99Q874 90 868 75T848 39T806 4T740 -11Q540 -11 540 105Q540 119 548 164Q558 222 558 234Q558 269 535 297T457 325H337L291 47H399L391 0Q355 3 215 3T39 0ZM344 361H459Q558 361 608 405Q632 426 642 472T652 546Q652 590 621 614T507 639H390L344
361Z" />
<glyph unicode="S" glyph-name="S" horiz-adv-x="638" d="M65 3L98 206Q100 221 104 224T123 228Q147 228 147 213Q147 212 146 203T144 179Q144 133 167 102T227 58T292 41T350 36Q393 36 425 51T473 88T496 133T504 174Q504 201 494 220T466 250T438 264T412
272Q360 283 327 291Q289 299 271 304T230 321T188 354Q144 401 144 468Q144 504 159 542T203 616T284 674T401 697Q501 697 565 641L619 688Q629 697 638 697Q656 697 656 682Q656 680 654 670L623 481Q621 470 618 465T611 459T597 458Q585 458 581 460T575 467T574
484Q571 654 400 654Q324 654 288 614T251 531Q251 497 274 475T333 444L468 414Q536 399 573 349T611 237Q611 198 596 157T552 77T469 14T348 -11Q223 -11 155 44Q138 28 102 -2Q91 -11 82 -11Q65 -11 65 3Z" />
<glyph unicode="T" glyph-name="T" horiz-adv-x="800" d="M114 434L176 675H848L829 434H782Q786 466 786 501Q786 529 783 547T767 586T726 617T652 628H576L479 47H632L624 0Q570 3 400 3T176 0L184 47H337L433 628H357Q322 628 295 623T249 603T217 575T194
535T177 490T161 434H114Z" />
<glyph unicode="U" glyph-name="U" horiz-adv-x="884" d="M145 639L153 686Q191 683 332 683Q474 683 512 686L504 639H396L326 219Q320 181 320 161Q320 36 469 36Q579 36 643 91T722 229L786 613L787 625Q787 639 708 639H682L690 686Q731 683 825 683Q921 683
960 686L952 639H926Q900 639 874 636Q852 634 847 631T840 615L775 224Q768 183 748 145T691 70T596 11T463 -11Q325 -11 254 48T182 196Q182 210 185 229L253 639H145Z" />
<glyph unicode="V" glyph-name="V" horiz-adv-x="869" d="M132 639L140 686Q175 683 298 683Q437 683 475 686L468 639H374L506 160L784 616Q790 625 790 627Q790 639 705 639L713 686Q750 683 843 683Q858 683 877 683T920 685T957 686L949 639H930Q895 639 876
636T853 629T843 617L477 17Q467 1 459 -3T433 -8Q413 -8 407 -3T397 18L225 639H132Z" />
<glyph unicode="W" glyph-name="W" horiz-adv-x="1188" d="M131 639L139 686Q175 683 291 683Q428 683 466 686L459 639H363L463 181L658 533L634 639H549L557 686Q593 683 709 683Q846 683 884 686L877 639H781L881 181L1121 614L1127 629Q1096 639 1028 639L1036
686Q1073 683 1171 683Q1200 683 1278 686L1270 639Q1228 639 1209 637T1184 631T1173 617L840 17Q834 7 831 3T821 -4T802 -8Q788 -8 781 -3T770 19L672 468L422 17Q416 7 413 3T403 -4T384 -8Q370 -8 363 -3T352 19L216 639H131Z" />
<glyph unicode="X" glyph-name="X" horiz-adv-x="869" d="M34 0L42 47H71Q100 47 131 50Q156 52 163 55T179 67L424 333L254 639H156L163 686H164Q199 683 325 683Q468 683 506 686L498 639H415L525 442L697 628Q664 639 607 639L614 686H615Q650 683 766 683Q858
683 900 686L892 639H863Q831 639 801 636Q778 634 771 631T757 620L550 397L745 47H843L834 0Q799 3 673 3Q533 3 492 0L500 47H583L449 288L238 58Q272 47 328 47L320 0Q284 3 168 3Q76 3 34 0Z" />
<glyph unicode="Y" glyph-name="Y" horiz-adv-x="869" d="M126 639L134 686Q169 683 298 683Q440 683 481 686L473 639H388L542 342L784 628Q783 628 783 629T782 631T777 632Q757 639 709 639L717 686Q756 683 849 683Q861 683 963 686L955 639H935Q909 639 879
636Q861 634 856 632T841 618L548 274L510 47H619L610 0Q574 3 434 3T258 0L265 47H374L412 274L223 639H126Z" />
<glyph unicode="Z" glyph-name="Z" horiz-adv-x="702" d="M67 16Q67 34 82 52L579 639H449Q349 639 287 595T201 445H154L206 686H720Q749 686 749 671Q749 654 736 637L239 51H379Q422 51 457 59T517 78T562 109T594 146T617 191T633 236T645 284H692L627 0H96Q85
0 81 0T72 4T67 16Z" />
<glyph unicode="[" glyph-name="bracketleft" horiz-adv-x="319" d="M63 -250L230 750H418L413 714H332L178 -214H258L252 -250H63Z" />
<glyph unicode="\" glyph-name="backslash" horiz-adv-x="575" d="M186 730Q186 738 191 743T203 749Q211 749 216 743T222 732T224 724L469 -217Q470 -222 470 -230Q470 -249 454 -249Q446 -249 441 -243T435 -232T433 -224L188 717Q186 725 186 730Z" />
<glyph unicode="]" glyph-name="bracketright" horiz-adv-x="319" d="M-16 -250L-10 -214H70L225 714H145L151 750H339L173 -250H-16Z" />
<glyph unicode="^" glyph-name="asciicircum" horiz-adv-x="703" d="M216 502L456 632L653 502V501L624 460L442 550L231 460L216 502Z" />
<glyph unicode="_" glyph-name="underscore" horiz-adv-x="894" d="M50 -278Q50 -247 90 -247H709Q750 -247 750 -278Q750 -308 710 -308H90Q50 -308 50 -278Z" />
<glyph unicode="`" glyph-name="grave" horiz-adv-x="575" d="M212 590Q212 615 233 638T281 662Q300 662 323 640Q329 633 420 535V534L389 494Q364 503 323 518Q246 546 229 556T212 590Z" />
<glyph unicode="a" glyph-name="a" horiz-adv-x="559" d="M49 95Q49 139 84 175T175 230Q212 243 247 250T309 259T401 265Q410 317 410 333Q410 417 319 417Q303 417 285 416T256 412T244 409T245 406T247 403Q258 389 258 370Q258 339 237 319T187 298Q162 298
147 313T131 351Q131 453 324 453Q431 453 477 415T523 323Q523 305 514 258Q505 204 504 196Q482 86 482 65Q482 47 538 47Q563 47 563 28Q563 15 558 9T547 1T529 0H481Q384 0 384 56Q384 64 386 74Q385 71 380 64T360 45T329 21T285 2T227 -6Q203 -6 179 -3T122
9T69 40T49 95ZM166 95Q166 66 188 48T243 30Q296 30 337 64Q373 93 382 150Q384 164 389 192T396 234Q325 231 276 214T205 173T175 130T166 95Z" />
<glyph unicode="b" glyph-name="b" horiz-adv-x="638" d="M106 0L205 596Q208 612 208 618Q208 629 203 632T184 638Q173 639 143 639L151 686L330 694L282 404Q355 450 433 450Q528 450 584 400T641 263Q641 155 562 75T349 -6Q259 -6 213 57Q203 47 192 38Q172
20 154 0H106ZM237 100Q237 96 243 86T260 62T293 40T341 30Q382 30 418 51T476 109Q497 147 508 215T519 309Q519 322 517 334T507 367T477 401T421 414Q341 414 278 348L239 112Q237 102 237 100Z" />
<glyph unicode="c" glyph-name="c" horiz-adv-x="511" d="M72 183Q72 230 89 276T141 363T233 428T364 453Q526 453 526 372Q526 337 504 318T455 298Q430 298 415 313T399 351Q399 387 427 408Q397 413 366 413Q276 413 236 334Q220 302 210 256T198 187T196
155Q196 93 227 64T309 34Q352 34 389 55T446 112Q454 126 458 128T474 131Q497 131 497 117Q497 113 491 101T470 71T432 35T371 6T287 -6Q195 -6 134 41T72 183Z" />
<glyph unicode="d" glyph-name="d" horiz-adv-x="638" d="M72 181Q72 295 153 372T362 450Q440 450 491 404L523 596Q526 612 526 618Q526 629 521 632T502 638Q491 639 461 639L469 686L648 694L546 81Q546 78 546 75T545 71T544 68Q544 53 556 50T609 47L601
0L417 -6L424 41Q356 -6 279 -6Q194 -6 133 39T72 181ZM193 135Q193 90 216 60T290 30Q340 30 383 59Q433 91 438 121L477 355Q441 414 371 414Q333 414 296 395T236 335Q215 297 204 229T193 135Z" />
<glyph unicode="e" glyph-name="e" horiz-adv-x="527" d="M66 187Q66 234 84 280T136 365T226 428T351 453Q440 453 489 413T538 288Q538 239 531 229T501 218H197Q189 170 189 148Q189 90 219 63Q251 34 305 34Q318 34 332 36T372 45T423 72T465 120Q476 135
490 135Q513 135 513 117Q513 111 506 98T482 67T440 33T378 6T295 -6Q189 -6 128 46T66 187ZM202 251H441Q446 296 446 306Q446 417 352 417Q234 417 202 251Z" />
<glyph unicode="f" glyph-name="f" horiz-adv-x="351" d="M48 0L55 47H125L183 397H108L116 444H191L208 550Q219 617 281 658T437 700Q489 700 514 677T540 623Q540 591 518 571T470 551Q449 551 432 564T415 604Q415 642 446 662Q442 664 433 664Q387 664 354
634T312 557L293 444H414L406 397H291L233 47H320L311 0Q272 3 174 3Q138 3 48 0Z" />
<glyph unicode="g" glyph-name="g" horiz-adv-x="575" d="M19 -85Q19 -46 50 -21T120 12Q91 43 91 88Q91 147 140 198Q105 233 105 283Q105 348 163 399T327 450Q412 450 457 417Q509 455 568 455Q600 455 612 438T625 404Q625 384 612 369T576 354Q560 354 549
363T538 391Q538 407 545 417Q514 414 480 396Q506 363 506 321Q506 257 449 206T283 154Q209 154 165 180Q147 159 147 134Q147 83 210 83H276Q310 83 327 83T376 80T426 73T467 59T502 35T523 0T532 -49Q532 -92 507 -123T440 -170T353 -194T256 -201Q131 -201
75 -167T19 -85ZM105 -86Q105 -121 143 -143T257 -165Q352 -165 398 -133T444 -65Q444 -13 312 -13H196Q166 -13 146 -22T118 -46T108 -70T105 -86ZM212 253Q212 243 213 235T221 215T244 197T285 190Q316 190 340 203T375 237Q384 254 390 283T397 329T399 351Q399
414 326 414Q265 414 237 370Q226 351 219 312T212 253Z" />
<glyph unicode="h" glyph-name="h" horiz-adv-x="638" d="M45 0L52 47H122L213 596Q216 612 216 618Q216 629 211 632T192 638Q181 639 151 639L159 686L338 694L282 357H283Q296 375 315 393T376 430T465 450Q540 450 570 422T600 342Q600 323 597 305L554 47H623L615
0Q531 3 489 3Q412 3 363 0L370 47H440L487 331Q489 343 489 361Q489 387 481 400T448 414Q391 414 340 373T273 270Q270 245 236 47H305L297 0Q213 3 171 3Q94 3 45 0Z" />
<glyph unicode="i" glyph-name="i" horiz-adv-x="319" d="M47 0L54 47H124L176 363Q176 365 177 369T178 375Q178 389 166 392T116 395L124 442L299 450L232 47H294L286 0Q190 3 169 3Q122 3 47 0ZM180 607Q180 642 207 668T269 695Q299 695 318 675T338 627Q338
593 312 566T249 539Q219 539 200 559T180 607Z" />
<glyph unicode="j" glyph-name="j" horiz-adv-x="351" d="M-75 -118Q-75 -88 -55 -67T-4 -46Q22 -46 37 -62T52 -100Q52 -135 28 -153Q21 -158 21 -159Q21 -164 54 -164Q96 -164 120 -125T151 -46L218 356Q221 372 221 374Q221 382 216 386T207 392T193 394T149
395L156 442L342 450L260 -46Q248 -115 189 -157T56 -200Q-1 -200 -38 -179T-75 -118ZM213 607Q213 643 240 669T302 695Q332 695 351 675T371 626Q371 593 345 566T282 539Q253 539 233 558T213 607Z" />
<glyph unicode="k" glyph-name="k" horiz-adv-x="606" d="M37 0L44 47H114L205 596Q208 612 208 618Q208 629 203 632T184 638Q173 639 143 639L151 686L330 694L254 238L457 378Q466 385 466 387Q466 398 435 398L443 444Q518 441 557 441Q612 441 636 444L628
397Q559 397 535 380L388 278L523 66Q528 59 530 57T537 52T550 48Q561 47 594 47L587 0Q534 3 484 3Q409 3 361 0L369 47Q402 47 402 57L400 60Q399 62 398 64T396 68L301 218L238 174L217 47H286L278 0Q167 3 158 3Q136 3 37 0Z" />
<glyph unicode="l" glyph-name="l" horiz-adv-x="319" d="M47 0L54 47H124L215 596Q218 612 218 618Q218 629 213 632T194 638Q183 639 153 639L161 686L340 694L232 47H301L293 0Q191 3 170 3Q125 3 47 0Z" />
<glyph unicode="m" glyph-name="m" horiz-adv-x="958" d="M45 0L52 47H122L174 362Q176 372 176 375Q176 389 163 392T110 395L118 442L292 450L275 347H276Q281 354 285 360T308 385T346 416T398 439T465 450Q538 450 567 425T601 355Q606 362 611 368T634 390T671
419T720 440T784 450Q860 450 890 422T920 342Q920 323 917 305L874 47H943L935 0Q851 3 809 3Q732 3 683 0L690 47H760L807 331Q809 343 809 360Q809 388 800 401T767 414Q711 414 659 373T592 270Q589 245 555 47H624L616 0Q532 3 490 3Q414 3 364 0L371 47H441L488
331Q490 343 490 360Q490 388 481 401T448 414Q392 414 340 373T273 270Q270 245 236 47H305L297 0Q213 3 171 3Q94 3 45 0Z" />
<glyph unicode="n" glyph-name="n" horiz-adv-x="638" d="M45 0L52 47H122L174 362Q176 372 176 375Q176 389 163 392T110 395L118 442L292 450L275 347H276Q303 388 351 419T465 450Q540 450 570 422T600 342Q600 323 597 305L554 47H623L615 0Q531 3 489 3Q412
3 363 0L370 47H440L487 331Q489 343 489 361Q489 387 481 400T448 414Q391 414 340 373T273 270Q270 245 236 47H305L297 0Q213 3 171 3Q94 3 45 0Z" />
<glyph unicode="o" glyph-name="o" horiz-adv-x="575" d="M65 178Q65 283 144 368T362 453Q461 453 521 404T582 261Q582 154 504 74T286 -6Q183 -6 124 43T65 178ZM188 137Q188 122 190 110T200 78T232 46T293 34Q334 34 369 53T421 110Q439 148 450 216T462
316Q462 327 462 335T455 360T439 388T408 408T356 417Q262 417 224 336Q211 308 200 241T188 137Z" />
<glyph unicode="p" glyph-name="p" horiz-adv-x="638" d="M4 -194L12 -147H81L166 362Q168 372 168 375Q168 386 162 389T143 394Q132 395 102 395L110 442L289 450L282 403Q356 450 437 450Q531 450 586 400T641 264Q641 155 562 75T349 -6Q273 -6 227 40L196
-147H265L257 -194Q206 -191 131 -191Q67 -191 4 -194ZM237 96Q269 30 340 30Q394 30 435 69T495 165T515 283Q515 303 511 322T498 363T468 397T419 410Q348 410 290 358Q277 345 275 330L237 96Z" />
<glyph unicode="q" glyph-name="q" horiz-adv-x="606" d="M72 182Q72 294 152 372T360 450Q453 450 499 370Q503 374 548 428Q554 438 566 450H607L508 -147H577L569 -194Q518 -191 443 -191Q379 -191 316 -194L324 -147H393L425 46Q358 -6 279 -6Q243 -6 209
3T143 32T92 90T72 182ZM197 159Q197 102 221 66T291 30Q317 30 342 39T385 63T417 91T438 116T445 128Q445 129 449 155Q467 260 467 263Q473 287 473 301Q473 306 471 316T463 343T446 374T416 399T370 410Q294 410 246 335T197 159Z" />
<glyph unicode="r" glyph-name="r" horiz-adv-x="473" d="M37 0L44 47H114L166 362Q168 372 168 375Q168 389 155 392T102 395L110 442L278 450L261 344Q318 450 408 450Q447 450 475 431T504 377Q504 346 483 327T435 307Q415 307 398 319T381 359Q381 392 406
414Q374 413 347 395T303 353T275 301T258 256T252 228L222 47H309L300 0Q261 3 163 3Q127 3 37 0Z" />
<glyph unicode="s" glyph-name="s" horiz-adv-x="453" d="M40 8L41 22L61 138Q63 153 67 156T86 160T104 157T110 140Q116 95 136 69T179 37T233 30Q269 30 296 39T335 58T354 84T362 105T363 117Q363 131 356 142T340 159T310 172T275 182T231 190Q90 214 90
306Q90 315 91 325T103 361T134 404T195 438T295 453Q357 453 394 434Q432 453 441 453Q459 453 459 437Q459 436 459 435T458 430T457 424L443 339Q440 324 436 321T418 317Q394 317 394 332Q394 333 395 340T396 350Q396 421 294 421Q259 421 233 414T195 399T177
378T169 360T168 349Q168 335 176 325T202 309T233 299T274 291Q310 285 325 282T360 270T397 248Q440 212 440 159Q440 148 438 135T425 94T393 47T331 10T231 -6Q162 -6 119 26Q116 24 105 18T90 9Q66 -6 57 -6Q40 -6 40 8Z" />
<glyph unicode="t" glyph-name="t" horiz-adv-x="447" d="M87 397Q87 397 90 414Q93 431 93 433Q166 435 214 496T276 635H323L291 444H437L429 397H283L237 116Q234 99 234 86Q234 34 279 34Q319 34 343 84Q352 103 364 177H411Q401 111 395 91T370 46Q328 -6
263 -6Q121 -6 121 98Q121 109 124 126L169 397H87Z" />
<glyph unicode="u" glyph-name="u" horiz-adv-x="638" d="M110 395L118 442L303 450L244 95Q242 83 242 69Q242 60 243 55T250 44T271 34T311 30Q371 30 411 70T459 162L492 362Q492 365 492 367T493 372T494 375Q494 389 481 392T428 395L436 442L621 450L560
81Q560 78 560 75T559 71T558 68Q558 53 570 50T623 47L615 0L437 -6L449 67H448Q393 -6 295 -6Q260 -6 234 -2T183 12T145 44T132 98Q132 109 135 126L174 362Q174 365 174 367T175 372T176 375Q176 389 163 392T110 395Z" />
<glyph unicode="v" glyph-name="v" horiz-adv-x="606" d="M92 397L101 444Q212 441 213 441Q299 441 338 444L330 397H276L358 124L516 375Q522 383 522 386Q522 397 476 397L485 444Q536 441 574 441Q616 441 654 444L645 397Q615 397 599 395T579 389T569 376L344
21Q338 12 335 8T323 0T303 -4Q293 -4 288 -3T277 4T268 22L156 397H92Z" />
<glyph unicode="w" glyph-name="w" horiz-adv-x="830" d="M91 397L99 444Q201 441 208 441Q283 441 331 444L323 397H267L329 139L440 333Q446 339 446 345L434 397H375L383 444Q431 441 483 441Q504 441 597 444L589 397H533L601 117L749 374L755 387Q736 397
699 397L707 444Q743 441 802 441Q844 441 879 444L871 397Q843 397 828 394T809 388T800 376L596 20Q582 -4 557 -4Q540 -4 534 1T524 24L462 282L312 20Q298 -4 273 -4Q256 -4 250 2T240 24L150 397H91Z" />
<glyph unicode="x" glyph-name="x" horiz-adv-x="606" d="M22 0L30 47Q70 47 91 49T119 55T133 66L289 213L164 397H93L102 444Q180 441 211 441Q254 441 332 444L324 397H285L363 282L472 386Q466 392 457 395Q444 398 436 398L444 444Q528 441 547 441Q593 441
638 444L631 397H630Q591 397 570 395T542 389T528 378L387 246L522 47H593L585 0Q483 3 476 3Q427 3 355 0L362 47H402L314 177L198 67Q192 61 189 56Q206 46 225 46L217 0Q133 3 114 3Q74 3 22 0Z" />
<glyph unicode="y" glyph-name="y" horiz-adv-x="606" d="M3 -121Q3 -88 23 -69T71 -50Q91 -50 105 -61T120 -97Q120 -119 108 -136T79 -160Q88 -164 102 -164Q160 -164 205 -107Q215 -95 233 -69T263 -22T276 1Q276 5 273 14L156 397H92L101 444Q212 441 213
441Q292 441 338 444L330 397H276L358 127L516 375L523 388Q507 397 476 397L484 444Q547 441 574 441Q616 441 654 444L646 397Q615 397 600 395T579 389T569 376L275 -84Q243 -134 195 -167T96 -200Q55 -200 29 -178T3 -121Z" />
<glyph unicode="z" glyph-name="z" horiz-adv-x="511" d="M35 16Q35 29 49 45L394 408H304Q226 408 192 378T140 269H93L134 444H501Q512 444 516 444T525 440T530 428Q530 416 516 402L173 40H264Q312 40 344 50T397 83T427 132T449 202H496L444 0H64Q53 0 49
0T40 4T35 16Z" />
<glyph unicode="{" glyph-name="braceleft" horiz-adv-x="575" d="M119 249Q119 255 121 259T128 265T137 267T149 268T162 270Q204 276 239 300T288 360Q293 372 312 498T339 642Q351 672 378 694T434 726T500 742T555 749T593 750Q618 750 618 733Q618 721 611
718T585 712T552 707Q458 684 444 597Q405 363 401 352Q376 280 264 249Q366 222 366 143Q366 122 345 4T324 -131Q324 -166 353 -187T431 -213Q457 -215 457 -230Q457 -250 432 -250Q305 -249 257 -215T209 -133Q209 -117 230 5T252 143Q252 175 225 200T149 231Q148
231 144 231T138 232T133 232T127 234T123 238T120 242T119 249Z" />
<glyph unicode="|" glyph-name="bar" horiz-adv-x="319" d="M93 -218Q93 -208 97 -188L246 704Q251 749 279 749Q291 749 300 741T309 718Q309 716 306 695L157 -199L156 -204Q155 -210 155 -211T154 -217T152 -224T150 -230T146 -236T142 -241T137 -245T130 -248T122
-249Q110 -249 102 -241T93 -218Z" />
<glyph unicode="}" glyph-name="braceright" horiz-adv-x="575" d="M40 -233Q40 -221 46 -217T73 -212T106 -207Q181 -189 205 -133Q212 -117 231 8T257 150Q262 163 269 174T284 194T302 210T322 223T341 233T359 241T375 246T387 250L393 251Q291 280 291 357Q291
371 312 493T334 631Q334 668 302 689T226 713Q200 715 200 730Q200 750 225 750Q351 750 399 715T448 633Q448 617 427 495T406 357Q406 324 433 299T508 269Q509 269 513 269T519 268T524 268T530 266T534 262T537 258T538 251Q538 245 536 241T529 235T521 233T509
232T496 230Q454 224 419 200T370 140Q365 127 345 1T318 -142Q277 -250 64 -250Q40 -250 40 -233Z" />
<glyph unicode="~" glyph-name="asciitilde" horiz-adv-x="703" d="M197 611Q203 617 221 634T245 656T266 671T291 684T317 690T352 694Q392 694 472 677T594 660Q622 660 645 667T674 679T695 694L717 670V669Q711 663 696 649T675 630T658 615T638 602T618
594T592 588T562 586Q522 586 442 603T320 620Q262 620 219 586L197 611Z" />
</font>
</defs>
</svg>
