<?xml version="1.0" standalone="no"?> <!DOCTYPE svg PUBLIC "-//W3C//DTD SVG 1.0//EN" "http://www.w3.org/TR/2001/REC-SVG-20010904/DTD/svg10.dtd" > <svg xmlns="http://www.w3.org/2000/svg" width="100%" height="100%">
<defs >
<font id="cmunsl" horiz-adv-x="441" ><font-face
    font-family="CMU Serif Extra"
    units-per-em="1000"
    panose-1="2 0 6 3 0 0 0 0 0 0"
    ascent="935"
    descent="-250"
    alphabetic="0" />
<missing-glyph horiz-adv-x="760" d="M10 10V765H750V10H10ZM70 112L346 388L70 663V112ZM105 70H655L380 346L105 70ZM105 705L380 429L655 705H105ZM414 388L690 112V663L414 388Z" />
<glyph unicode=" " glyph-name="space" horiz-adv-x="333" />
<glyph unicode="!" glyph-name="exclam" horiz-adv-x="278" d="M95 46Q95 70 113 87T154 105Q174 105 187 92T201 59Q201 36 183 18T141 0Q122 0 109 13T95 46ZM160 205V216L195 651Q197 678 210 693T234 712T256 716Q275 716 289 704T303 673Q303 662 300 652L188
210Q183 189 172 188Q160 188 160 205Z" />
<glyph unicode="&quot;" glyph-name="quotedbl" horiz-adv-x="500" d="M212 347Q212 356 220 504T230 663Q234 686 249 698T283 710H284Q300 710 311 701T323 674Q323 665 309 613T271 478T235 347H212ZM379 347Q382 391 384 432T388 502T391 556T393 598T394
628T396 651T398 665T401 676T404 683T409 690Q424 710 451 710H452Q468 710 479 701T490 674Q490 667 468 585T424 425L402 347H379Z" />
<glyph unicode="#" glyph-name="numbersign" horiz-adv-x="833" d="M82 153Q82 164 105 164H288L363 336H138Q115 336 115 347Q115 359 139 359H374L505 656Q520 692 529 692T538 682Q538 670 527 648L399 359H612L744 656Q759 692 768 692T777 682T765 648L637
359H808Q832 359 832 347Q832 336 810 336H627L551 164H776Q800 164 800 153Q800 141 776 141H540L399 -179L392 -190L388 -192H384Q376 -190 375 -182L379 -170L515 141H302L161 -179L153 -190L150 -192H145Q138 -191 137 -182L140 -170L277 141H106Q82 141 82
153ZM312 164H526L602 336H388L312 164Z" />
<glyph unicode="$" glyph-name="dollar" horiz-adv-x="500" d="M82 144Q82 187 96 207Q111 228 138 228Q156 228 167 217T178 189Q178 167 163 153T125 138Q120 138 108 140Q110 120 115 104T132 68T172 36T238 20L287 319L280 320Q274 322 268 323T250 329T230
337T209 349T188 365T169 386T153 412T142 444T138 483Q138 560 197 628T352 705L359 750H390L382 705Q428 701 460 686T507 647T528 603T534 559Q534 480 479 480Q462 480 451 490T439 519Q439 540 453 555T492 570Q502 570 508 569Q497 665 377 674L332 403Q439
382 469 294Q479 265 479 230Q479 149 421 75T263 -10L256 -55H225L232 -10Q186 -6 154 11T108 52T88 98T82 144ZM196 521Q196 507 199 495T207 473T218 455T232 441T248 430T264 422T278 417T291 413T300 411L303 410L347 673Q277 663 237 618T196 521ZM269 21Q335
30 378 80T422 191Q422 220 411 243T388 277T356 298T331 308T317 311L269 21Z" />
<glyph unicode="%" glyph-name="percent" horiz-adv-x="833" d="M133 -44T133 -36T144 -15L701 650V651Q637 619 568 619Q487 619 421 663Q429 635 429 599Q429 504 379 426T262 347Q215 347 180 388T144 505Q144 602 201 676T326 750Q365 750 396 715Q462 641
568 641Q640 641 692 670T771 733Q784 750 795 750Q803 750 809 744T815 730T803 708L175 -42Q163 -56 153 -56Q145 -56 139 -50ZM201 472Q201 426 218 398T264 369Q315 369 359 440T404 600Q404 654 383 691T327 728Q299 728 274 702T232 638Q218 603 210 551T201
472ZM519 101Q519 195 575 271T702 347Q751 347 778 302T805 196Q805 102 755 23T638 -56Q586 -56 553 -11T519 101ZM577 69Q577 27 593 -3T640 -34Q691 -34 735 37T780 197Q780 250 759 287T703 325Q674 325 648 298T606 231Q593 196 585 145T577 69Z" />
<glyph unicode="&amp;" glyph-name="ampersand" horiz-adv-x="777" d="M62 108Q62 172 116 221L263 354Q249 411 249 474Q249 577 283 633Q305 668 341 692T417 716Q455 716 471 688T487 621Q487 578 467 539T382 435Q346 402 328 384Q340 328 372 259T421 162T448
118Q504 168 630 340Q638 348 638 362Q638 375 629 384T607 396T587 400T574 401L580 431Q625 428 702 428Q744 428 799 431Q798 426 797 416T794 400Q729 400 684 364Q671 354 641 313T562 210T462 96Q525 9 585 9Q630 9 669 40T716 121H741Q729 58 682 18T578
-22Q489 -22 414 54Q322 -22 221 -22Q154 -22 108 14T62 108ZM148 120Q148 108 149 96T158 60T183 23T231 9Q316 9 397 75Q366 114 327 187T269 329Q206 276 188 251Q148 194 148 120ZM316 497Q316 456 323 409Q413 492 437 536T462 624Q462 694 418 694Q409 694
399 692T373 677T345 646T325 587T316 497Z" />
<glyph unicode="&apos;" glyph-name="quotesingle" horiz-adv-x="278" d="M185 347Q189 406 192 465T196 557T199 620T203 664T211 686Q227 710 257 710Q274 710 285 701T296 674Q296 666 274 585T230 425L208 347H185Z" />
<glyph unicode="(" glyph-name="parenleft" horiz-adv-x="388" d="M129 119Q129 277 188 424T331 657Q370 697 403 723T444 750Q454 750 454 740Q454 736 441 724Q371 664 320 581T243 425T204 274T187 156T184 88Q184 -104 281 -225Q291 -236 291 -240Q291 -250
281 -250Q269 -250 234 -207T175 -113Q129 -11 129 119Z" />
<glyph unicode=")" glyph-name="parenright" horiz-adv-x="388" d="M17 -240Q17 -237 31 -223Q92 -172 139 -102T214 37T258 179T281 309T287 411Q287 612 188 727Q180 736 180 740Q180 750 191 750Q198 750 217 731T264 672T308 585Q342 492 342 380Q342 327
333 267T303 132T236 -24T128 -170Q106 -192 71 -221T27 -250Q17 -250 17 -240Z" />
<glyph unicode="*" glyph-name="asterisk" horiz-adv-x="500" d="M138 437Q138 456 166 468L317 535L189 600Q169 610 169 623Q169 635 178 645T201 656Q210 656 223 645L331 555L342 712Q347 750 374 750Q386 750 392 743T398 728Q398 725 395 713L353 555L494
646Q508 656 516 656Q526 656 532 649T539 632Q539 612 512 601L361 534L488 469Q508 458 508 446Q508 433 498 423T476 413Q467 413 454 424L347 514L335 357Q331 319 303 319Q292 319 286 325T280 340Q280 347 282 355L324 514L183 423Q169 413 161 413Q151 413
145 420T138 437Z" />
<glyph unicode="+" glyph-name="plus" horiz-adv-x="778" d="M99 238T99 250T123 262Q126 262 131 262T137 261H421Q422 270 446 415T471 566Q474 581 483 581Q494 581 494 566L443 261H724Q725 261 730 261T738 262Q761 262 761 250T737 238Q734 238 729 238T723
239H440L392 -45Q392 -47 391 -54T389 -67T385 -76T377 -81Q366 -81 366 -66Q366 -61 370 -41L417 239H137Q136 239 131 239T122 238Q99 238 99 250Z" />
<glyph unicode="," glyph-name="comma" horiz-adv-x="277" d="M71 -182Q71 -177 77 -173Q171 -91 183 17Q168 0 141 0Q117 0 106 14T94 45Q94 68 111 87T155 106Q206 106 206 33Q206 -22 178 -78T120 -163T82 -193Q71 -193 71 -182Z" />
<glyph unicode="-" glyph-name="hyphen" horiz-adv-x="333" d="M41 186L51 245H317L307 186H41Z" />
<glyph unicode="." glyph-name="period" horiz-adv-x="278" d="M95 46Q95 68 112 86T154 105Q175 105 188 92T201 59Q201 37 183 19T141 0Q119 0 107 14T95 46Z" />
<glyph unicode="/" glyph-name="slash" horiz-adv-x="500" d="M17 -237Q17 -234 25 -218L521 700Q540 734 545 741T556 748Q565 748 565 737Q565 736 559 721L49 -221Q34 -248 27 -248Q17 -248 17 -237Z" />
<glyph unicode="0" glyph-name="zero" horiz-adv-x="500" d="M79 190Q79 249 97 348T144 505Q224 666 360 666Q410 666 445 646T496 591T520 523T527 452Q527 430 523 386T503 268T463 140Q426 57 369 18T246 -22Q203 -22 171 -6T121 34T94 88T82 143T79 190ZM153
129Q153 90 163 62T189 22T220 5T250 0Q270 0 290 6T340 43T388 125Q407 182 431 323T455 519Q455 559 444 586T416 624T385 640T357 644Q338 644 318 638T271 607T225 541Q203 488 178 338T153 129Z" />
<glyph unicode="1" glyph-name="one" horiz-adv-x="500" d="M95 0L100 31H131Q196 31 212 39T232 75L319 597Q261 571 185 571Q186 576 187 586T190 602Q311 602 382 666Q403 666 403 653Q403 648 401 639L308 84Q305 68 305 61Q305 44 321 38T394 31H424Q423
26 421 15T419 0Q384 3 257 3T95 0Z" />
<glyph unicode="2" glyph-name="two" horiz-adv-x="500" d="M50 0Q50 22 65 37L279 237Q369 322 404 386T440 511Q440 565 413 600T332 635Q287 635 245 608T179 533Q183 534 190 534Q211 534 223 522T236 490Q236 463 218 446T176 429Q168 429 159 431T140 445T130
474Q130 533 192 599T347 666Q423 666 476 624T530 503Q530 399 416 300Q405 291 312 217T142 77H318Q336 77 356 77T390 79L404 80Q413 82 417 86Q434 106 453 174H478L421 0H50Z" />
<glyph unicode="3" glyph-name="three" horiz-adv-x="500" d="M63 116Q63 160 84 176T128 193Q153 193 165 179T178 146Q178 118 156 98T101 82Q119 40 161 23T241 6Q309 6 348 74T388 226Q388 277 363 308Q339 337 291 337H251Q242 337 239 337T231 338T226 341T225
347Q225 356 234 358Q239 360 262 361Q291 363 305 365T340 380T379 417Q405 452 417 493T429 561Q429 601 407 621T350 641Q335 641 316 639T263 621T207 579Q260 579 260 536Q260 515 245 497T201 478Q178 478 167 491T156 521Q156 571 212 618T355 666Q428 666
474 630T520 545Q520 515 504 480T447 407T349 352Q413 338 450 295T488 196Q488 114 415 46T242 -22Q167 -22 115 16T63 116Z" />
<glyph unicode="4" glyph-name="four" horiz-adv-x="500" d="M56 165Q56 191 68 206L444 662Q452 673 455 675T467 677Q482 677 482 666Q482 661 480 652L404 196H504L499 165H399Q399 162 394 135T385 84T381 59Q381 42 395 37T454 31H473Q472 26 471 16T468
0Q427 3 333 3Q236 3 197 0L202 31H221Q265 31 281 36T303 58Q304 61 307 82T315 130T321 165H56ZM88 196H333L395 569L88 196Z" />
<glyph unicode="5" glyph-name="five" horiz-adv-x="500" d="M75 135Q75 214 133 214Q155 214 166 202T177 172Q177 152 163 134T120 116Q108 116 101 119Q109 63 145 35T229 6Q268 6 303 29T358 89Q382 130 392 193T403 288Q403 340 382 369T325 398Q242 398
185 329Q176 319 170 319Q156 319 156 331Q156 337 158 346L208 643Q211 665 220 665Q224 665 236 660Q294 634 360 634Q428 634 497 661Q506 665 510 665Q519 665 519 655Q519 650 509 639T480 612T437 584T379 561T311 551Q270 551 227 565L194 370Q252 420 327
420Q399 420 442 369T486 241Q486 133 407 56T229 -22Q161 -22 118 22T75 135Z" />
<glyph unicode="6" glyph-name="six" horiz-adv-x="500" d="M84 202Q84 309 115 399T195 546T301 634T414 666Q462 666 494 644T526 575Q526 557 521 544T509 524T494 515T481 511T473 510Q456 510 444 521T432 549Q432 571 447 586T485 602Q493 602 496 601Q478
641 415 641Q337 641 271 559Q245 526 227 481T202 407T188 332Q209 370 244 398T327 426Q409 426 452 370T495 249Q495 132 414 52Q337 -22 249 -22Q202 -22 168 -1T116 55T92 126T84 202ZM162 124Q162 61 188 34T251 6Q326 6 373 92Q390 131 401 201T412 298Q412
339 393 371T324 404Q242 404 194 300Q162 230 162 124Z" />
<glyph unicode="7" glyph-name="seven" horiz-adv-x="500" d="M134 470L202 676H227Q227 664 231 659T263 649T352 644H592Q592 624 579 609L402 406Q374 373 352 327T314 221T292 129T275 40Q272 22 269 13T254 -9T220 -22Q200 -22 190 -10T179 17Q179 25 184
49T203 120T238 210Q288 310 350 389Q372 417 436 490T504 567H301Q233 567 210 564Q202 563 198 560T183 535T159 470H134Z" />
<glyph unicode="8" glyph-name="eight" horiz-adv-x="500" d="M65 127Q65 254 243 336L207 362Q150 404 150 475Q150 550 213 608T359 666Q425 666 471 631T518 537Q518 436 369 362Q396 341 411 332Q431 318 443 306T471 263T487 195Q487 107 414 43T247 -22Q172
-22 119 19T65 127ZM115 127Q115 75 153 41T250 6Q321 6 376 49T431 151Q431 174 421 193T401 220T371 244L265 320Q199 290 157 237T115 127ZM201 523Q201 504 210 489T229 465T261 440L347 377Q404 405 439 447T474 538Q474 582 442 611T357 641Q294 641 248
606T201 523Z" />
<glyph unicode="9" glyph-name="nine" horiz-adv-x="500" d="M80 70Q80 96 91 112T113 131T134 134Q149 134 161 125T174 95Q174 71 158 57T122 42Q115 42 112 43Q135 6 204 6Q286 6 349 99Q394 164 419 315Q396 274 361 246T280 218T201 236T148 284T120 341T111
395Q111 508 188 587T362 666Q438 666 480 609T523 446Q523 257 434 125Q388 56 328 17T204 -22Q154 -22 117 -1T80 70ZM195 348Q195 299 217 270T282 241Q372 241 420 363Q446 433 446 528Q446 578 424 609T361 641Q328 641 299 623T258 589T236 556Q219 523 207
452T195 348Z" />
<glyph unicode=":" glyph-name="colon" horiz-adv-x="277" d="M94 46Q94 69 112 87T155 106Q173 106 187 94T201 60Q201 35 183 18T141 0Q120 0 107 14T94 46ZM148 371Q148 394 166 412T209 431Q231 431 243 417T256 385Q256 362 238 344T195 325Q173 325 161
339T148 371Z" />
<glyph unicode=";" glyph-name="semicolon" horiz-adv-x="278" d="M149 371Q149 393 166 411T208 430Q229 430 242 417T255 384Q255 362 237 344T195 325Q173 325 161 339T149 371ZM71 -182Q71 -177 77 -173Q171 -91 183 17Q168 0 141 0Q117 0 106 14T94 45Q94
68 111 87T155 106Q206 106 206 33Q206 -22 178 -78T120 -163T82 -193Q71 -193 71 -182Z" />
<glyph unicode="&lt;" glyph-name="less" horiz-adv-x="778" d="M127 242T127 250T156 271L752 524Q757 529 767 529Q778 529 778 519Q778 513 773 510T751 499L164 249L671 -2Q689 -12 689 -20Q689 -29 678 -29Q677 -29 662 -23L144 234Q127 242 127 250Z" />
<glyph unicode="=" glyph-name="equal" horiz-adv-x="778" d="M82 152Q82 164 105 164H715Q734 164 738 162Q745 158 745 153Q745 141 717 141H109Q82 141 82 152ZM115 347Q115 359 135 359H747Q776 359 776 347Q776 336 751 336H135Q115 336 115 347Z" />
<glyph unicode="&gt;" glyph-name="greater" horiz-adv-x="778" d="M82 -19Q82 -16 83 -14T87 -10T93 -6T100 -3T109 1L697 251L190 502Q172 511 172 520T182 529Q184 529 199 523L716 267Q733 257 733 250Q733 241 705 229L108 -24Q103 -29 93 -29Q82 -29 82 -19Z" />
<glyph unicode="?" glyph-name="question" horiz-adv-x="472" d="M150 563Q150 609 202 657T342 705Q356 705 369 705T411 698T460 680T496 645T512 588Q512 515 439 467Q389 434 355 399T305 329T283 274T272 224T264 191Q261 187 255 187Q243 187 243 198Q243
237 265 306Q297 409 379 482Q406 507 418 536Q432 572 432 615Q432 683 339 683Q293 683 255 664T196 615Q244 615 244 576Q244 558 230 541T191 524Q171 524 161 536T150 563ZM177 46Q177 69 195 87T237 106Q256 106 270 94T284 59Q284 34 266 17T224 0Q203 0
190 14T177 46Z" />
<glyph unicode="@" glyph-name="at" horiz-adv-x="777" d="M109 285Q109 452 230 578T504 705Q625 705 704 622T784 409Q784 320 750 226Q714 128 642 128Q609 128 582 145T552 198Q491 128 410 128Q342 128 293 177T244 309Q244 412 317 489T480 566Q568 566
608 481H641Q652 481 656 481T663 478T666 471Q666 452 643 329L630 251Q629 244 627 229T623 203T621 189Q621 150 646 150Q705 150 731 242Q739 266 749 319T759 409Q759 529 687 606T504 683Q412 683 326 629T187 482T134 285Q134 165 206 88T393 11Q526 11
669 71Q683 78 704 78Q714 78 718 78T725 77T730 74T731 68Q731 61 718 56Q552 -11 394 -11Q264 -11 187 74T109 285ZM311 297Q311 236 338 193T413 150Q486 150 544 224Q559 242 562 262L594 451Q582 492 552 518T482 544Q417 544 364 468T311 297Z" />
<glyph unicode="A" glyph-name="A" horiz-adv-x="750" d="M32 0Q33 5 34 15T37 31Q125 31 161 99L467 696Q473 708 478 712T494 716T508 712T514 693L626 75Q631 47 643 39T706 31H722Q722 27 720 16T717 0Q654 3 586 3Q477 3 442 0Q443 5 445 16T447 31Q536 31
536 64Q536 73 534 79L507 228H260Q255 219 200 112Q187 86 187 76Q187 57 203 46T232 32T254 30L248 0Q164 3 134 3Q95 3 32 0ZM276 259H501L443 584L276 259Z" />
<glyph unicode="B" glyph-name="B" horiz-adv-x="708" d="M36 0L41 31Q95 31 114 34Q135 37 141 45T151 75L239 600L242 624Q242 639 234 643T204 651Q188 652 145 652L150 683H513Q602 683 656 640T711 534Q711 470 654 421T517 357Q586 350 634 310T683 205Q683
127 608 64T427 0H36ZM231 52Q231 42 238 37T252 32T278 31H399Q480 31 532 87T584 215Q584 233 580 252T564 294T527 330T465 344H280L234 72Q231 57 231 52ZM283 366H426Q509 366 561 419T614 539Q614 555 610 572T594 608T559 640T501 652H381Q346 652 338 646T325
615L283 366Z" />
<glyph unicode="C" glyph-name="C" horiz-adv-x="722" d="M108 281Q108 392 167 491T322 647T519 705Q620 705 681 629Q689 621 690 621L699 630L753 692Q754 693 756 696T760 700Q763 705 769 705Q781 705 781 694L735 423Q731 420 721 420Q707 420 706 430Q706
435 706 443T707 455Q707 545 661 609T529 674Q461 674 399 639T298 551Q257 496 235 418T210 306T207 246Q207 182 226 134T278 59T345 21T417 9Q506 9 586 77Q655 136 680 241Q682 250 693 250Q705 250 705 239Q705 232 700 210T669 141T603 58Q513 -22 402 -22Q278
-22 193 62T108 281Z" />
<glyph unicode="D" glyph-name="D" horiz-adv-x="763" d="M35 0L40 31Q94 31 113 34Q134 37 140 45T150 75L238 600L241 624Q241 639 233 643T203 651Q187 652 144 652L149 683H512Q627 683 697 603T768 401Q768 295 716 202T579 54T399 0H35ZM233 52Q233 42 240
37T254 32T280 31H377Q510 31 591 139Q626 186 646 262T670 378T673 442Q673 550 618 601T480 652H383Q348 652 340 646T327 615L236 72Q233 57 233 52Z" />
<glyph unicode="E" glyph-name="E" horiz-adv-x="680" d="M33 0Q34 5 35 15T38 31H60Q116 31 130 39T148 75L237 607Q239 616 239 621Q239 637 225 643T163 649H141L146 680H709L700 455H675Q676 467 676 498Q676 583 643 616T509 649H384Q350 649 341 643T327
611L287 369H375Q441 369 467 392T504 486H529L485 221H460Q466 255 466 273Q466 311 444 324T369 338H282L237 72Q234 57 234 52Q234 42 241 37T255 32T281 31H411Q526 31 577 78T670 258H695L610 0H33Z" />
<glyph unicode="F" glyph-name="F" horiz-adv-x="652" d="M33 0L38 31H60Q116 31 130 39T148 75L237 607Q239 616 239 621Q239 637 225 643T163 649H141L146 680H695L686 455H661Q662 467 662 499Q662 583 630 616T500 649H384Q350 649 341 643T327 611L285 356H369Q436
356 460 379T496 473H521L477 208H452Q458 244 458 261Q458 298 436 311T363 325H279L239 84Q236 68 236 61Q236 44 253 38T327 31H359L354 0Q316 3 185 3Q68 3 33 0Z" />
<glyph unicode="G" glyph-name="G" horiz-adv-x="784" d="M108 281Q108 391 167 490T322 647T520 705Q624 705 691 619L754 692Q766 705 770 705Q782 705 782 694L736 423Q732 420 722 420Q708 420 707 431V454Q707 547 660 610T530 674Q466 674 402 640T293 544Q269
511 252 468T226 390T213 320T208 270T207 247Q207 183 227 135T279 61T348 22T422 9Q478 9 526 34T592 102Q598 122 607 183Q612 208 612 213Q612 230 594 236T523 242H492L497 273Q518 271 575 271Q589 271 616 271T658 270Q712 270 781 273Q781 269 779 258T776
242Q728 242 717 236T700 202L669 20Q667 7 666 4T658 1Q650 1 632 23T604 63Q577 25 522 2T404 -22Q277 -22 193 63T108 281Z" />
<glyph unicode="H" glyph-name="H" horiz-adv-x="750" d="M33 0L38 31H60Q116 31 130 39T148 75L236 600L239 624Q239 640 225 646T163 652H142Q143 657 145 668T147 683Q183 680 294 680Q407 680 442 683L437 652H415Q359 652 345 644T327 609L287 371H586L624
600L627 624Q627 640 613 646T551 652H530Q531 657 533 668T535 683Q571 680 682 680Q795 680 830 683L825 652H803Q747 652 733 644T715 609L626 76Q624 60 624 59Q624 42 638 37T700 31H721Q721 27 719 16T716 0Q680 3 569 3Q456 3 421 0L426 31H448Q504 31 518
39T536 75L580 340H282L238 76Q236 60 236 59Q236 42 250 37T312 31H333Q333 27 331 16T328 0Q292 3 181 3Q68 3 33 0Z" />
<glyph unicode="I" glyph-name="I" horiz-adv-x="361" d="M28 0L33 31H57Q114 31 129 39T148 74L236 600L239 624Q239 640 224 646T160 652H137Q138 657 140 668T142 683Q177 680 294 680T447 683L442 652H418Q359 652 345 644T327 608L239 84L236 60Q236 43 250
37T315 31H338Q337 26 335 15T333 0Q298 3 181 3T28 0Z" />
<glyph unicode="J" glyph-name="J" horiz-adv-x="513" d="M58 96Q58 135 79 152T123 170T159 157T173 123Q173 97 155 78T109 58Q101 58 97 59Q112 25 141 13T197 0Q238 0 276 39T326 148L402 600Q405 616 405 622Q405 633 399 639T377 648T349 651T311 652H277Q277
656 279 667T282 683Q305 681 366 681Q380 681 407 681T449 680Q513 680 579 683L574 652Q522 652 509 646T490 610L413 147Q401 73 338 26T200 -22Q137 -22 98 12T58 96Z" />
<glyph unicode="K" glyph-name="K" horiz-adv-x="777" d="M33 0L38 31H60Q116 31 130 39T148 75L236 600L239 624Q239 640 225 646T163 652H142Q143 657 145 668T147 683Q183 680 294 680Q407 680 442 683L437 652H415Q359 652 345 644T327 609L273 288L637 587Q659
604 659 623Q659 636 648 643T630 652T619 653L625 683Q660 680 750 680Q808 680 835 683L830 652Q749 648 679 591L470 420L643 80Q660 47 680 39T741 31L735 0Q723 0 680 1T621 3L551 2Q496 2 478 0L483 31Q547 31 547 65Q547 80 536 100L401 363L268 253L238
76Q236 60 236 59Q236 42 250 37T312 31H333Q333 27 331 16T328 0Q292 3 181 3Q68 3 33 0Z" />
<glyph unicode="L" glyph-name="L" horiz-adv-x="625" d="M33 0Q34 5 35 15T38 31H60Q116 31 130 39T148 75L236 600L239 624Q239 640 225 646T163 652H142Q143 657 145 668T147 683Q183 680 298 680Q431 680 467 683L462 652H430Q363 652 347 644T327 608L237
72Q234 57 234 52Q234 42 241 37T255 32T281 31H360Q389 31 414 35T458 46T494 66T522 89T545 119T563 151T577 186T589 221T600 258H625L554 0H33Z" />
<glyph unicode="M" glyph-name="M" horiz-adv-x="916" d="M37 0Q38 5 39 15T42 31Q78 31 102 37T136 57T150 78T156 100L240 600L243 624Q243 640 229 646T167 652H146Q147 657 149 668T151 683H318Q338 683 342 680T351 659L475 101L786 663Q794 677 800 680T825
683H993L988 652H966Q910 652 896 644T878 609L789 76Q787 60 787 59Q787 42 801 37T863 31H884Q884 27 882 16T879 0Q842 3 736 3Q628 3 592 0L597 31H619Q675 31 689 39T707 75L804 651H803L451 17Q440 0 430 0T414 22L277 643H276L186 108L183 84Q183 31 276
31L270 0Q177 3 154 3Q142 3 37 0Z" />
<glyph unicode="N" glyph-name="N" horiz-adv-x="750" d="M33 0Q34 5 35 15T38 31Q74 31 98 37T132 56T146 78T152 100L243 645Q217 652 169 652H142Q143 657 145 668T147 683H313Q330 683 334 681T345 667L610 150L681 576Q684 592 684 599Q684 652 591 652L597
683Q690 680 713 680Q725 680 830 683L825 652Q789 652 765 645T730 625T716 603T710 580L617 23Q615 8 612 4T601 0Q594 0 591 2T583 16L282 603Q281 605 279 609T274 617T269 625L182 108L179 84Q179 31 272 31L266 0Q173 3 150 3Q138 3 33 0Z" />
<glyph unicode="O" glyph-name="O" horiz-adv-x="777" d="M107 274Q107 384 163 484T312 644T506 705Q625 705 704 622T783 405Q783 294 726 195T577 37T385 -22Q265 -22 186 61T107 274ZM208 248Q208 135 259 70T389 4Q444 4 500 38T602 142Q643 206 664 291T685
446Q685 565 630 622T501 680Q448 680 390 647T285 543Q253 494 235 425T212 317T208 248Z" />
<glyph unicode="P" glyph-name="P" horiz-adv-x="680" d="M35 0L40 31H62Q118 31 132 39T150 75L238 600L241 624Q241 640 227 646T165 652H144Q145 657 147 668T149 683H500Q596 683 652 635T709 521Q709 439 629 378T447 316H280L240 76Q238 60 238 59Q238 42
252 37T314 31H335Q335 27 333 16T330 0Q294 3 183 3Q70 3 35 0ZM281 342H417Q566 342 596 460Q609 511 609 547Q609 652 469 652H383Q348 652 340 646T327 615L281 342Z" />
<glyph unicode="Q" glyph-name="Q" horiz-adv-x="777" d="M107 274Q107 384 163 484T312 644T506 705Q625 705 704 622T783 405Q783 280 710 169T518 6Q530 -49 548 -70T597 -91Q634 -91 664 -67T703 -9Q708 11 716 11Q727 11 727 -2Q727 -10 720 -37T697 -101T649
-166T576 -194Q521 -194 502 -156T483 -53V-7Q436 -22 385 -22Q265 -22 186 61T107 274ZM204 243Q204 151 237 95T326 15Q318 26 318 51Q318 91 346 119T412 148Q453 148 475 121T510 42Q563 77 600 131T655 245T679 351T686 437Q686 561 630 620T502 680Q440 680
383 642T288 545Q254 494 234 428T209 320T204 243ZM340 51Q340 3 389 3Q434 3 482 26Q479 74 465 100T413 126Q383 126 362 104T340 51Z" />
<glyph unicode="R" glyph-name="R" horiz-adv-x="736" d="M35 0L40 31H62Q118 31 132 39T150 75L238 600L241 624Q241 640 227 646T165 652H144L149 683H461Q562 683 628 637T695 523Q695 457 634 408T491 340Q542 323 569 287Q586 263 590 244T594 188Q594 176
594 153T593 117Q593 84 594 66T599 31T614 7T640 0Q666 0 688 24T721 86Q723 94 724 96T727 102T735 105Q747 105 747 93Q747 86 742 70T724 31T689 -6T635 -22Q575 -22 532 7T488 96Q488 107 496 158Q507 221 507 231Q507 238 507 245T500 269T483 298T449 321T394
331H279L237 76Q235 60 235 59Q235 42 249 37T311 31H332L327 0Q291 3 181 3T35 0ZM283 353H392Q487 353 540 399T594 541Q594 573 582 595T553 628T508 644T462 651T413 652Q361 652 352 650Q342 648 337 643T331 634T327 615L283 353Z" />
<glyph unicode="S" glyph-name="S" horiz-adv-x="555" d="M54 -11Q54 -6 56 3L90 205Q92 219 94 223T105 227Q117 227 117 216Q117 210 115 195T113 173Q113 92 166 51T301 9Q369 9 416 62T463 179Q463 260 395 288L315 309Q247 327 223 337T177 373Q139 419 139
481Q139 570 207 637T367 705Q469 705 515 635L560 692Q571 705 576 705Q588 705 588 694L548 459Q544 456 537 456Q525 456 525 474Q525 482 525 484T526 495Q526 578 486 627T366 677Q302 677 256 630T209 523Q209 487 227 462T273 424Q301 416 333 408L371 398Q424
385 448 374T493 337Q533 289 533 220Q533 128 464 53T300 -22Q251 -22 212 -8T159 18T127 48L81 -11Q72 -22 65 -22Q54 -22 54 -11Z" />
<glyph unicode="T" glyph-name="T" horiz-adv-x="722" d="M111 452L168 677H779L760 452H735Q740 495 740 529Q740 602 709 624T587 646Q541 646 532 644Q522 642 517 637T511 628T507 609L418 77Q416 66 416 61Q416 44 435 38T517 31H555L550 0Q509 3 361 3L265
2Q196 2 171 0L176 31H214Q266 31 290 36T319 49T328 76L416 600Q419 624 419 625Q419 636 414 639T393 645Q387 646 349 646Q324 646 305 645T270 640T241 634T218 622T199 608T184 587T171 563T160 531T148 496T136 452H111Z" />
<glyph unicode="U" glyph-name="U" horiz-adv-x="750" d="M142 652Q143 657 145 668T147 683Q183 680 294 680Q407 680 442 683L437 652H415Q359 652 345 644T327 609L260 204Q257 186 257 160Q257 114 271 82T309 35T351 15T389 9Q466 9 534 69T620 231L678 576Q681
592 681 599Q681 652 588 652L594 683Q684 680 711 680Q773 680 830 683L825 652Q789 652 765 645T730 625T716 603T710 580L651 225Q635 126 558 52T386 -22Q296 -22 234 36T171 189Q171 213 174 231L236 600L239 624Q239 640 225 646T163 652H142Z" />
<glyph unicode="V" glyph-name="V" horiz-adv-x="750" d="M128 652L133 683Q202 680 259 680Q368 680 403 683L398 652Q311 652 311 620Q311 618 314 603L421 100L683 582Q693 601 693 609Q693 625 678 638T627 652L632 683Q704 680 746 680Q798 680 844 683L839
652Q755 652 719 586L398 -2Q391 -15 387 -18T371 -22T356 -18T349 1L220 611Q214 640 199 646T128 652Z" />
<glyph unicode="W" glyph-name="W" horiz-adv-x="1027" d="M127 652L132 683Q198 680 253 680Q361 680 396 683Q395 678 393 667T391 652Q301 652 301 618Q301 611 303 601L380 117L585 532Q591 543 591 549Q591 556 585 591T575 633Q569 645 555 648T497 652L502
683Q568 680 623 680Q731 680 766 683Q765 678 763 667T761 652Q671 652 671 618Q671 614 673 603L750 117L978 580Q986 594 986 605Q986 623 970 634T941 648T916 652Q909 653 909 657L913 683Q967 680 1031 680Q1085 680 1123 683Q1122 678 1121 668T1118 652Q1082
652 1057 638T1024 613T1007 584L718 -2Q708 -22 695 -22Q686 -22 683 -18T678 3L598 506L348 -2Q338 -22 325 -22Q316 -22 313 -17T308 1L212 607Q207 639 193 645T127 652Z" />
<glyph unicode="X" glyph-name="X" horiz-adv-x="750" d="M24 0Q25 5 26 15T29 31Q129 31 181 92L390 339L255 611Q242 637 226 644T162 652H146Q146 656 148 667T151 683Q210 680 280 680Q391 680 427 683L422 652Q391 651 371 641T351 620Q351 616 358 604L453
414L595 583Q609 599 609 611Q609 644 564 651Q555 653 555 657L559 683Q599 680 686 680Q689 680 797 683L792 652Q692 652 635 585L466 386L624 68Q635 45 652 38T714 31H731Q730 26 729 16T726 0Q668 3 597 3Q485 3 450 0Q450 4 452 15T455 31Q486 32 505 42T525
62Q525 65 519 77L404 311L226 101Q212 84 212 72Q212 52 230 42T268 30L262 0Q222 3 135 3Q132 3 24 0Z" />
<glyph unicode="Y" glyph-name="Y" horiz-adv-x="750" d="M120 652L125 683Q180 680 255 680Q367 680 402 683L397 652Q323 652 323 624Q323 618 329 605L459 315L669 584Q685 605 685 618Q685 652 634 652L639 683Q717 680 753 680Q804 680 851 683L846 652Q757
650 707 586L463 273Q428 63 428 60Q428 45 436 40T462 33Q482 31 525 31L520 0Q484 3 374 3T228 0L233 31Q297 31 319 36Q337 41 343 75Q358 158 376 274L224 614Q213 639 196 645T120 652Z" />
<glyph unicode="Z" glyph-name="Z" horiz-adv-x="611" d="M58 11Q58 23 70 38L561 652H406Q303 652 248 609T170 458H145L194 683H640Q656 683 661 682T666 672Q666 660 655 647L164 34H327Q394 34 439 49T511 98T552 169T579 267H604L543 0H84Q67 0 63 1T58 11Z" />
<glyph unicode="[" glyph-name="bracketleft" horiz-adv-x="278" d="M62 -250L229 750H380L376 727H292L133 -227H217L213 -250H62Z" />
<glyph unicode="\" glyph-name="backslash" horiz-adv-x="500" d="M179 734Q179 748 189 748Q198 748 204 724L400 -222Q402 -230 402 -234Q402 -248 392 -248Q384 -248 378 -224L181 722Q179 730 179 734Z" />
<glyph unicode="]" glyph-name="bracketright" horiz-adv-x="278" d="M-20 -250L-16 -227H68L227 727H143L147 750H298L131 -250H-20Z" />
<glyph unicode="^" glyph-name="asciicircum" horiz-adv-x="611" d="M198 484L409 628L573 484V483L555 463L401 575H400L209 463L198 484Z" />
<glyph unicode="_" glyph-name="underscore" horiz-adv-x="778" d="M48 -233T48 -213T78 -193H627Q657 -193 657 -213Q657 -232 628 -233H77Q48 -233 48 -213Z" />
<glyph unicode="`" glyph-name="grave" horiz-adv-x="500" d="M201 600Q201 617 214 629T242 642Q254 642 264 632T322 566Q351 532 370 510L352 490Q345 494 228 567L224 570Q219 573 217 574T212 579T206 585T203 592T201 600Z" />
<glyph unicode="a" glyph-name="a" horiz-adv-x="500" d="M57 82Q57 153 138 204T341 260Q366 261 368 262Q371 264 375 292T379 329Q379 369 356 397T292 426Q264 426 231 415T177 380Q219 378 219 340Q219 319 204 304T167 288Q146 288 136 300T126 327Q126
372 174 410T295 448Q359 448 403 413T447 322Q447 293 418 138L407 66Q407 25 436 25Q448 25 460 36T478 68Q482 80 492 145H517Q509 96 507 87Q499 38 469 16T410 -6Q396 -6 384 -2T359 22T346 73Q338 60 325 44T277 9T202 -11Q181 -11 159 -7T112 6T73 35T57
82ZM134 80Q134 50 155 31T209 11Q262 11 303 52Q341 89 351 150L366 240Q301 237 253 219T184 181T150 134T136 97T134 80Z" />
<glyph unicode="b" glyph-name="b" horiz-adv-x="555" d="M106 0L205 594Q208 612 208 620Q208 640 194 646T137 652Q137 656 139 668T144 682Q146 684 162 684L288 694L236 379Q299 442 381 442Q455 442 507 390T560 253Q560 147 480 68T298 -11Q216 -11 178
63Q136 7 134 4Q129 0 106 0ZM192 96Q192 93 194 85T204 64T222 40T252 20T295 11Q332 11 370 33T434 97Q453 127 464 173T478 245T481 288Q481 359 449 389T376 420Q301 420 248 358Q232 340 229 320L194 113Q192 105 192 96Z" />
<glyph unicode="c" glyph-name="c" horiz-adv-x="444" d="M67 178Q67 283 144 365T324 448Q379 448 420 424T462 353Q462 325 446 310T409 294T378 306T368 333Q368 339 370 345T377 362T394 378T425 386Q394 423 324 423Q248 423 198 343T148 157Q148 83 181
49T259 14Q304 14 343 40T407 115Q414 129 422 129Q434 129 434 119Q434 115 428 102T407 70T372 32T320 2T249 -11Q172 -11 120 41T67 178Z" />
<glyph unicode="d" glyph-name="d" horiz-adv-x="555" d="M67 178Q67 285 148 363T329 442Q407 442 446 379L482 594Q485 612 485 620Q485 640 471 646T414 652Q414 656 416 668T421 682Q423 684 439 684L565 694L464 90Q461 72 461 63Q461 43 474 37T532 31Q532
28 530 15T525 1Q523 -1 507 -1L378 -11L388 53Q324 -11 246 -11Q172 -11 120 40T67 178ZM146 143Q146 71 179 41T251 11Q324 11 379 77Q391 92 394 97T399 118L434 325Q436 336 436 341Q436 348 428 364T394 400T332 420Q299 420 263 401T200 345Q178 314 165
266T149 189T146 143Z" />
<glyph unicode="e" glyph-name="e" horiz-adv-x="444" d="M61 182Q61 283 135 365T309 448Q372 448 416 412T460 294Q460 272 457 250Q455 236 451 234T428 231H150Q141 186 141 151Q141 78 176 46T254 14Q267 14 283 17T322 30T368 62T408 117Q415 131 423 131Q434
131 434 120Q434 112 422 92T388 49T329 7T248 -11Q169 -11 115 44T61 182ZM154 252H390Q395 286 395 308Q395 426 308 426Q295 426 278 421T236 400T189 346T154 252Z" />
<glyph unicode="f" glyph-name="f" horiz-adv-x="305" d="M34 0L39 31Q92 31 105 37T124 74L178 400H100L105 431H184Q195 505 204 553Q216 620 269 662T383 705Q415 705 439 689T463 643Q463 618 449 605T414 591T385 602T375 628T385 657T414 677Q398 683 382
683Q341 683 302 635Q284 610 277 587T262 521L247 431H364L359 400H245L191 78Q188 64 188 59Q188 48 194 43T205 36T222 33Q240 31 280 31L275 0Q227 3 149 3Q136 3 117 3T73 1T34 0Z" />
<glyph unicode="g" glyph-name="g" horiz-adv-x="500" d="M14 -90Q14 -55 43 -24T123 22Q93 46 93 91Q93 148 139 194Q108 227 108 276Q108 342 164 392T294 442Q359 442 395 406Q448 453 508 453Q526 453 537 444T550 426T553 410Q553 392 543 383T520 374Q507
374 500 382T493 400T500 419T512 430V431Q453 431 409 391Q435 356 435 315Q435 250 379 200T249 149Q192 149 154 180Q127 153 127 119Q127 97 139 82T173 65H229Q263 65 281 65T331 61T382 50T421 30T450 -5T460 -56Q460 -95 436 -125T374 -172T296 -197T217
-206Q128 -206 71 -173T14 -90ZM66 -91Q66 -128 108 -155T218 -183Q294 -183 350 -148T407 -66Q407 -48 401 -35T379 -15T349 -2T310 4T269 6T224 7Q166 7 149 5T113 -12Q66 -44 66 -91ZM179 249Q179 209 200 191T250 172Q274 172 298 186T336 226Q346 244 353
272T361 316T363 342Q363 384 341 401T293 419Q241 419 208 368Q193 344 186 305T179 249Z" />
<glyph unicode="h" glyph-name="h" horiz-adv-x="555" d="M32 0L37 31H38Q92 31 104 38T122 74L209 594Q212 612 212 620Q212 640 198 646T141 652Q141 656 143 668T148 682Q150 684 166 684L292 694L234 349L235 348Q256 383 296 412T393 442Q511 442 511 340Q511
321 508 303L469 71Q467 61 467 56Q467 39 482 35T540 31L534 0Q438 3 423 3Q412 3 310 0L315 31H316Q366 31 380 36T399 69L433 269Q444 340 444 353Q444 420 385 420Q332 420 284 377Q233 328 221 249Q213 205 199 117Q198 109 196 94T191 68T189 56Q189 39 204
35T262 31L256 0Q160 3 145 3Q134 3 32 0Z" />
<glyph unicode="i" glyph-name="i" horiz-adv-x="277" d="M33 0L38 31H39Q93 31 105 38T123 74L168 342Q171 360 171 368Q171 388 158 394T104 400Q104 401 106 412T108 425Q109 432 128 433L251 442L190 78Q187 62 187 55Q187 38 200 35T252 31L246 0Q162 3 143
3Q129 3 33 0ZM178 609Q178 635 197 652T238 669Q259 669 272 655T285 623Q285 600 267 582T225 563Q205 563 192 575T178 609Z" />
<glyph unicode="j" glyph-name="j" horiz-adv-x="305" d="M-62 -134Q-62 -112 -48 -96T-9 -79Q11 -79 21 -90T32 -118T22 -150T-13 -170Q10 -183 39 -183Q79 -183 102 -144T135 -51L201 342Q204 366 204 367Q204 388 188 394T125 400Q125 403 127 416T132 430Q134
432 150 432L284 442L202 -51Q191 -117 145 -161T41 -205Q-3 -205 -32 -186T-62 -134ZM206 609Q206 633 224 651T266 669Q286 669 299 657T313 623Q313 599 295 581T253 563Q233 563 220 576T206 609Z" />
<glyph unicode="k" glyph-name="k" horiz-adv-x="527" d="M28 0L33 31H34Q88 31 100 38T118 74L205 594Q208 612 208 620Q208 640 194 646T137 652Q137 656 139 668T144 682Q146 684 162 684L288 694L208 215L350 322Q370 338 376 343T390 359T398 379Q398 389
391 395T372 401L378 431Q444 428 489 428Q529 428 559 431L554 400Q491 396 427 351Q326 278 326 274Q326 273 332 261L429 84Q448 50 464 41T516 31L510 0Q470 3 424 3Q397 3 316 0L321 31Q361 31 361 59Q361 72 346 98Q295 195 272 234L199 179Q179 72 179 56Q179
39 194 35T252 31L246 0Q168 3 138 3Q127 3 28 0Z" />
<glyph unicode="l" glyph-name="l" horiz-adv-x="277" d="M33 0L38 31H39Q93 31 105 38T123 74L210 594Q213 612 213 620Q213 640 199 646T142 652Q142 656 144 668T149 682Q151 684 167 684L293 694L189 71Q187 61 187 56Q187 39 202 35T260 31L254 0Q146 3 144
3Q132 3 33 0Z" />
<glyph unicode="m" glyph-name="m" horiz-adv-x="833" d="M32 0L37 31H38Q92 31 104 38T122 74L167 342Q170 360 170 368Q170 388 156 394T99 400Q99 404 101 416T106 430Q108 432 124 432L247 442L230 343L231 342Q242 361 259 380T313 421T393 442Q508 442 512
345Q535 384 576 413T671 442Q789 442 789 340Q789 321 786 303L747 71Q745 61 745 56Q745 39 760 35T818 31L812 0Q716 3 701 3Q690 3 588 0L593 31H594Q644 31 658 36T677 69L711 269Q722 340 722 353Q722 420 663 420Q610 420 562 377Q511 328 499 249Q491 205
477 117Q476 109 474 94T469 68T467 56Q467 39 482 35T540 31L534 0Q438 3 423 3Q412 3 310 0L315 31H316Q366 31 380 36T399 69L433 269Q444 340 444 353Q444 420 385 420Q332 420 284 377Q233 328 221 249Q213 205 199 117Q198 109 196 94T191 68T189 56Q189
39 204 35T262 31L256 0Q160 3 145 3Q134 3 32 0Z" />
<glyph unicode="n" glyph-name="n" horiz-adv-x="555" d="M32 0L37 31Q68 31 81 32T105 39T119 59Q120 62 129 113Q170 359 170 368Q170 388 156 394T99 400L104 431L247 442L230 343L231 342Q242 361 259 380T313 421T393 442Q511 442 511 340Q511 326 501 261L486
172Q467 71 467 56Q467 39 482 35T540 31L535 0Q433 3 423 3Q412 3 310 0L315 31Q366 31 380 36T399 69L433 269Q444 340 444 353Q444 420 385 420Q332 420 284 377Q233 328 221 249Q213 205 199 117Q198 109 196 94T191 68T189 56Q189 39 204 35T262 31L257 0Q155
3 145 3Q134 3 32 0Z" />
<glyph unicode="o" glyph-name="o" horiz-adv-x="500" d="M60 176Q60 278 140 363T324 448Q405 448 457 393T510 254Q510 147 430 68T248 -11Q165 -11 113 43T60 176ZM140 144Q140 102 153 74T186 34T222 18T252 14Q292 14 329 37T390 102Q413 145 423 206T433
299Q433 338 421 365T388 405T352 421T320 426Q310 426 298 424T265 415T223 389T184 342Q163 308 152 245T140 144Z" />
<glyph unicode="p" glyph-name="p" horiz-adv-x="555" d="M-4 -194L1 -163Q52 -163 66 -158T85 -123L164 348L167 372Q167 390 153 395T95 400L100 431L246 442L235 377Q245 388 260 400T311 427T383 442Q458 442 509 390T560 254Q560 146 479 68T298 -11Q222
-11 184 51Q153 -135 153 -138Q153 -154 165 -158T226 -163L221 -194Q116 -191 108 -191Q98 -191 -4 -194ZM191 95Q202 58 228 35T294 11Q362 11 420 87T478 267Q478 334 449 375T375 417Q340 417 301 398T232 336L191 95Z" />
<glyph unicode="q" glyph-name="q" horiz-adv-x="527" d="M67 178Q67 284 147 363T327 442Q414 442 448 350L493 429Q500 441 503 441Q504 442 523 442L430 -114L427 -138Q427 -154 439 -158T500 -163L494 -194Q395 -191 382 -191Q372 -191 270 -194Q271 -189
273 -178T275 -163Q318 -163 334 -160T356 -140Q364 -109 389 59Q382 50 369 38T320 7T246 -11Q172 -11 120 40T67 178ZM148 162Q148 102 175 57T251 11Q330 11 388 95Q402 115 405 135L429 276Q432 291 432 298Q432 308 429 324T416 363T385 401T332 417Q263 417
206 341T148 162Z" />
<glyph unicode="r" glyph-name="r" horiz-adv-x="391" d="M28 0L33 31H34Q88 31 100 38T118 74L163 342Q166 360 166 368Q166 388 152 394T95 400Q95 401 97 412T99 425Q100 432 119 433L241 442L224 338L225 337Q245 381 281 411T362 442Q391 442 409 427T428
387Q428 365 414 351T379 337Q366 337 354 345T341 374Q341 407 368 419V420Q265 420 219 270Q215 253 199 161T182 59Q182 42 196 37T255 31H274Q273 26 272 16T269 0Q221 3 143 3Q130 3 111 3T67 1T28 0Z" />
<glyph unicode="s" glyph-name="s" horiz-adv-x="394" d="M33 0Q33 6 35 15L58 149Q60 163 62 166T72 170Q80 170 82 166T85 149Q89 68 120 40T199 11Q269 11 299 45T330 116Q330 138 321 153T294 177T262 189T226 198Q197 204 183 207T152 217T122 236Q86 267
86 310Q86 330 94 352T122 396T178 433T266 448Q323 448 356 420L376 435Q391 448 397 448Q408 448 408 437Q408 432 406 423L389 322Q387 312 386 308T382 302T374 299Q362 299 362 309L363 320Q364 330 364 338Q364 429 266 429Q230 429 204 420T166 399T148
373T140 352T139 342Q139 324 147 312T174 292T204 281T240 272Q287 263 308 256T349 227Q383 195 383 147Q383 125 374 100T346 49T289 6T199 -11Q130 -11 96 33Q83 20 71 10Q49 -11 44 -11Q33 -11 33 0Z" />
<glyph unicode="t" glyph-name="t" horiz-adv-x="388" d="M86 400L89 422Q153 424 195 480T250 615H275L245 431H388Q387 426 386 416T383 400H240L191 104Q189 90 189 82Q189 14 241 14Q281 14 310 68Q323 93 337 181H362Q352 115 347 96T329 54Q295 -11 233
-11Q217 -11 202 -8T167 4T135 37T122 94Q122 109 125 127L170 400H86Z" />
<glyph unicode="u" glyph-name="u" horiz-adv-x="555" d="M99 400Q99 404 101 416T106 430Q108 432 124 432L253 442L195 96Q193 88 193 68Q193 58 194 51T202 33T224 17T267 11Q319 11 361 53Q381 73 394 100T410 141T418 180L439 306Q440 313 442 328T446 354T448
368Q448 388 434 394T377 400Q377 404 379 416T384 430Q386 432 402 432L531 442L472 90Q469 72 469 63Q469 43 482 37T540 31Q540 28 538 15T533 1Q531 -1 515 -1L389 -11L403 73L402 74Q397 65 390 56T364 29T320 0T262 -11Q128 -11 128 93Q128 105 144 206Q170
349 170 368Q170 388 156 394T99 400Z" />
<glyph unicode="v" glyph-name="v" horiz-adv-x="527" d="M86 400L92 431Q164 428 187 428T297 431Q296 426 295 416T292 400Q231 400 231 370Q231 369 232 363T233 355L299 78L442 330Q454 351 454 364Q454 380 444 389T426 399T413 401L419 431Q461 428 505
428Q546 428 580 431L575 400Q507 399 472 334L287 9Q276 -11 262 -11Q257 -11 254 -10T249 -5T246 1T243 11L161 360Q155 387 143 393T86 400Z" />
<glyph unicode="w" glyph-name="w" horiz-adv-x="722" d="M85 400L91 431Q136 428 183 428Q216 428 291 431L286 400Q223 400 223 368Q223 358 227 346L276 88L402 330Q392 382 386 388Q377 400 328 400L334 431Q378 428 421 428Q444 428 525 431L520 400Q457
400 457 368Q457 358 461 346L512 75L646 331Q648 333 650 340Q653 345 654 356Q655 357 655 360Q655 377 642 387T620 399T604 401L610 431Q658 428 702 428Q741 428 774 431Q773 426 772 416T769 400Q707 398 675 336L503 8Q494 -11 481 -11Q471 -11 469 -7T463
12L409 292L261 9Q251 -11 238 -11Q229 -11 226 -7T219 13L154 357Q148 386 138 393T85 400Z" />
<glyph unicode="x" glyph-name="x" horiz-adv-x="527" d="M12 0Q13 5 15 16T17 31Q97 32 161 98Q167 104 216 154T269 210L178 362Q162 388 146 394T84 400L89 431Q161 428 184 428Q214 428 292 431Q291 426 289 415T287 400Q267 399 257 391T247 372Q247 367
256 354L315 256Q318 260 341 284T367 311Q411 353 411 375Q411 398 387 401L392 431Q428 428 487 428Q528 428 570 431Q569 426 568 416T565 400Q491 400 433 346L327 236L381 145Q433 60 434 57Q447 39 463 35T521 31L515 0Q474 3 421 3Q402 3 312 0L317 31Q338
32 347 40T357 59Q357 67 340 91L281 189L191 96Q171 76 171 56Q171 33 195 30L190 0Q154 3 95 3Q54 3 12 0Z" />
<glyph unicode="y" glyph-name="y" horiz-adv-x="527" d="M-3 -135Q-3 -109 12 -95T47 -81Q83 -81 83 -115Q83 -132 72 -147T36 -165Q53 -183 81 -183Q132 -183 179 -118Q187 -107 204 -78T235 -25T249 1Q249 2 246 16L160 364Q154 388 143 394T86 400L92 431Q131
428 188 428Q207 428 297 431Q296 426 294 415T292 400Q231 400 231 370Q231 367 234 355L300 87L441 330Q454 353 454 365Q454 379 445 388T427 399T413 401L419 431Q461 428 505 428Q548 428 579 431L574 400Q508 397 472 336L222 -95Q156 -205 77 -205Q43 -205
20 -185T-3 -135Z" />
<glyph unicode="z" glyph-name="z" horiz-adv-x="444" d="M30 11Q30 17 42 31L388 409H273Q195 409 163 382T112 270H87L125 431H443Q452 431 455 431T463 430T468 427T469 421Q469 414 458 402L112 25H231Q318 25 351 59T407 187H432L384 0H56Q39 0 35 1T30 11Z" />
<glyph unicode="{" glyph-name="braceleft" horiz-adv-x="500" d="M115 250Q115 257 119 259T136 262T158 265Q198 273 229 299T273 360Q277 373 297 500T325 645Q346 697 407 723T531 750Q549 750 549 738Q549 731 543 729T519 725T486 718Q418 695 395 641Q388
625 368 496T341 350Q316 282 207 250Q307 218 307 143Q307 130 286 4T264 -136Q264 -169 289 -194T363 -226Q384 -228 386 -238Q386 -250 366 -250Q332 -250 297 -242T228 -205T194 -134Q194 -120 215 6T237 144Q237 183 209 207T143 237Q115 240 115 250Z" />
<glyph unicode="|" glyph-name="bar" horiz-adv-x="278" d="M81 -226Q81 -226 84 -202L237 713Q243 749 260 749Q266 749 272 744T279 727Q279 722 277 710L122 -216Q115 -249 100 -249Q94 -249 88 -244T81 -226Z" />
<glyph unicode="}" glyph-name="braceright" horiz-adv-x="500" d="M33 -239Q33 -232 39 -230T63 -226T96 -218Q162 -196 187 -141Q194 -125 214 4T241 150Q266 218 375 250Q275 280 275 357Q275 371 296 497T318 636Q318 675 289 698T219 726Q203 729 201 730Q196
733 196 738Q196 750 216 750Q280 750 333 722T388 636Q388 621 367 496T345 356Q345 317 373 293T438 263Q467 260 467 250Q467 243 463 241T446 238T424 235Q385 226 353 201T309 140Q307 135 267 -104L266 -112Q264 -121 264 -123T261 -134T256 -148T249 -161T239
-176T225 -189T208 -204Q144 -250 51 -250Q33 -250 33 -239Z" />
<glyph unicode="~" glyph-name="asciitilde" horiz-adv-x="611" d="M181 589Q184 592 196 604T214 621T230 635T250 649T270 658T294 666T320 668Q354 668 418 644T516 620Q539 620 560 628T591 643T621 668L636 653V652Q633 649 624 640T610 628T598 616T584
605T569 595T553 586T536 580T517 576T497 574Q463 574 399 597T301 621Q250 621 196 574L181 589Z" />
</font>
</defs>
</svg>
