<?xml version="1.0" standalone="no"?> <!DOCTYPE svg PUBLIC "-//W3C//DTD SVG 1.0//EN" "http://www.w3.org/TR/2001/REC-SVG-20010904/DTD/svg10.dtd" > <svg xmlns="http://www.w3.org/2000/svg" width="100%" height="100%">
<defs >
<font id="cmunssdc" horiz-adv-x="398" ><font-face
    font-family="CMU Sans Serif Demi Condensed"
    units-per-em="1000"
    panose-1="2 0 7 6 0 0 0 0 0 0"
    ascent="913"
    descent="-310"
    alphabetic="0" />
<missing-glyph horiz-adv-x="760" d="M10 10V765H750V10H10ZM70 112L346 388L70 663V112ZM105 70H655L380 346L105 70ZM105 705L380 429L655 705H105ZM414 388L690 112V663L414 388Z" />
<glyph unicode=" " glyph-name="space" horiz-adv-x="317" />
<glyph unicode="!" glyph-name="exclam" horiz-adv-x="306" d="M99 48V63Q99 82 107 92T122 104T143 106H163Q184 106 194 97T204 81T205 58V43Q205 31 204 24T192 8T163 0H142Q126 0 117 4T104 17T100 32T99 48ZM99 659V673Q99 693 119 694H182Q190 694 194 693T202
688T205 674L195 212Q195 204 195 201T193 193T186 185T172 183H164Q160 183 153 183T141 182Q117 182 114 187T109 222L99 659Z" />
<glyph unicode="&quot;" glyph-name="quotedbl" horiz-adv-x="475" d="M102 677Q102 694 121 694H190Q212 694 212 676Q212 674 212 671T211 667L191 417Q190 405 189 401T182 393T166 389H152Q133 389 129 394T123 417Q102 664 102 677ZM261 675Q261 681 262
684T267 691T281 694H350Q371 694 371 677V668L350 417Q349 405 348 401T342 393T326 389H312Q292 389 288 393T282 417Q261 663 261 675Z" />
<glyph unicode="#" glyph-name="numbersign" horiz-adv-x="792" d="M53 151Q53 183 94 183H238L280 345H156Q149 345 137 345T120 344Q85 344 69 350T53 378Q53 409 96 409H296L297 410Q299 418 359 656Q366 693 395 693Q408 693 417 685T426 662Q426 654 363
409H502V410Q504 419 507 433T516 467T535 539T565 656Q572 693 600 693Q613 693 622 685T631 662Q631 654 568 409H689Q703 409 710 408Q721 406 729 397T737 377Q737 371 735 365T724 352T698 345H552L551 344L510 183H675Q706 183 721 177T737 150Q737 118 694
118H492Q490 110 430 -128Q422 -166 395 -166Q382 -166 373 -157T363 -134Q363 -127 426 118H287Q285 110 225 -128Q217 -166 189 -166Q177 -166 168 -157T158 -134Q158 -127 221 118H100Q87 118 80 119Q69 121 61 130T53 151ZM304 183H444L485 345H346V344L304
183Z" />
<glyph unicode="$" glyph-name="dollar" horiz-adv-x="475" d="M43 75Q49 143 64 143Q69 143 85 130T132 101T205 79V306Q129 324 91 380T53 507Q53 532 57 556T75 614T122 671T205 702V708Q205 749 238 749Q270 749 270 703Q322 696 363 674T404 633Q400 565
385 565Q379 565 367 575T329 597T270 616V416Q344 398 383 338T422 202Q422 19 270 -8Q270 -55 238 -55Q205 -55 205 -8Q147 -1 95 27T43 75ZM152 525Q152 489 168 466T205 434V612Q152 593 152 525ZM270 83Q322 107 322 183Q322 256 270 287V83Z" />
<glyph unicode="%" glyph-name="percent" horiz-adv-x="879" d="M53 549Q53 642 91 694Q133 750 208 750Q244 750 272 738T315 703T341 661T354 613T359 574T360 548Q360 535 359 523T355 484T341 436T316 394T272 360T208 347Q159 347 125 369T77 426T58 490T53
549ZM154 576T154 548T155 504T160 462T177 424T208 411Q265 411 265 549Q265 592 259 621T244 663T226 681T208 686Q189 686 177 673T161 635T155 593ZM173 -21Q173 -10 183 5L640 728Q655 750 673 750Q688 750 698 740T708 715Q708 704 698 689L241 -34Q228 -56
208 -56Q194 -56 184 -46T173 -21ZM518 146Q518 239 556 291Q598 347 673 347Q709 347 737 335T780 300T806 258T819 210T824 171T825 145Q825 132 824 120T820 81T806 33T781 -9T737 -43T673 -56Q624 -56 590 -34T542 23T523 87T518 146ZM619 173T619 145T620
101T625 59T642 21T673 8Q730 8 730 146Q730 189 724 218T709 260T691 278T673 283Q654 283 642 270T626 232T620 190Z" />
<glyph unicode="&amp;" glyph-name="ampersand" horiz-adv-x="716" d="M40 144Q40 216 92 262L178 337Q137 434 137 532Q137 613 184 663T296 713Q359 713 398 665T438 557Q438 511 401 462T285 344Q325 265 411 159Q501 252 544 422Q548 439 550 443T560 448Q562
448 575 445T603 437T621 432Q632 426 632 419Q632 415 626 393T605 327T569 243Q532 168 472 100Q514 67 557 67Q596 67 640 81Q648 85 652 85Q663 85 663 59V25Q663 7 658 2T623 -10Q590 -19 554 -19Q471 -19 398 37Q306 -19 213 -19Q139 -19 90 29T40 144ZM151
168Q151 159 152 148T159 115T179 81T216 67Q276 67 333 98Q262 177 206 276Q188 261 178 251T160 219T151 168ZM233 551Q233 491 258 407Q301 448 322 482T343 557Q343 588 332 618T296 649Q270 649 252 622T233 551Z" />
<glyph unicode="&apos;" glyph-name="quotesingle" horiz-adv-x="264" d="M77 677Q77 694 96 694H165Q187 694 187 677Q187 676 187 673T186 668L165 417Q163 397 158 393T128 389Q108 389 104 393T98 418Q77 664 77 677Z" />
<glyph unicode="(" glyph-name="parenleft" horiz-adv-x="369" d="M72 264Q72 520 189 676Q204 696 220 713T246 739T259 749Q260 750 276 750H290Q304 750 309 749T314 739Q314 734 304 722Q244 644 214 536T183 264Q183 164 194 84T227 -50T266 -136T308 -198Q314
-206 314 -211Q314 -219 309 -220T290 -222H276Q258 -222 256 -220Q243 -210 230 -198T186 -143T132 -50T91 84T72 264Z" />
<glyph unicode=")" glyph-name="parenright" horiz-adv-x="369" d="M54 -211Q54 -206 64 -194Q123 -116 154 -9T185 264Q185 364 174 444T141 579T102 663T60 726Q54 734 54 739Q54 750 79 750H92Q110 750 112 748Q125 738 138 726T182 671T236 578T277 444T296
264Q296 8 179 -148Q164 -168 148 -185T122 -211T109 -221Q108 -222 92 -222H79Q54 -222 54 -211Z" />
<glyph unicode="*" glyph-name="asterisk" horiz-adv-x="475" d="M57 422Q57 444 82 457L210 514L82 571Q57 584 57 606Q57 623 70 637T101 652Q115 652 129 638L221 546L198 690Q195 707 195 713Q195 731 208 740T237 750T265 741T279 713Q279 707 276 690L253
546L346 638Q360 652 373 652Q391 652 404 638T417 606Q417 584 392 571L264 514L392 457Q417 444 417 422Q417 405 404 391T373 376Q359 376 345 390L253 482Q279 330 279 315Q279 297 266 288T237 278T209 287T195 315Q195 321 198 338L221 482L128 390Q114 376
101 376Q83 376 70 390T57 422Z" />
<glyph unicode="+" glyph-name="plus" horiz-adv-x="739" d="M53 264Q53 296 97 296H336V535Q336 580 368 580T400 536V296H642Q683 296 684 264Q684 232 640 232H400V-8Q400 -51 368 -52Q336 -52 336 -8V232H97Q73 232 64 240Q53 249 53 264Z" />
<glyph unicode="," glyph-name="comma" horiz-adv-x="263" d="M79 26V80Q79 99 82 102T104 106H160Q178 106 181 103T185 80V26Q185 8 177 -9Q145 -77 135 -95Q130 -106 126 -108T106 -111Q95 -111 91 -111T83 -108T79 -99Q79 -91 107 0Q87 0 83 3T79 26Z" />
<glyph unicode="-" glyph-name="hyphen" horiz-adv-x="317" d="M11 204T11 236T52 268H222Q262 268 262 236T221 204H52Q11 204 11 236Z" />
<glyph unicode="." glyph-name="period" horiz-adv-x="264" d="M78 23Q78 23 78 66Q78 85 79 91T84 101T98 106H162Q184 106 184 85V33Q184 19 183 14T178 4T164 0H100Q86 0 82 5T78 23Z" />
<glyph unicode="/" glyph-name="slash" horiz-adv-x="475" d="M53 -190Q53 -182 60 -159L350 705Q354 718 356 724T368 739T389 749Q402 749 411 741T420 718Q420 707 414 691L119 -189Q109 -221 84 -221Q74 -221 64 -214T53 -190Z" />
<glyph unicode="0" glyph-name="zero" horiz-adv-x="475" d="M37 305T37 343T37 403T42 469T53 541T74 605T109 662T163 698T237 713T311 698T364 662T399 605T421 541T432 470T436 404T437 343T437 283T432 218T421 148T400 86T365 31T311 -4T237 -19T163 -5T110
30T75 86T53 148T42 218T38 283ZM148 317T148 297T149 242T152 187T159 142T169 101T185 72T208 51T237 45T266 51T288 72T304 101T315 141T321 187T325 241T326 297T326 357Q326 395 326 414T325 467T322 517T315 560T305 598T289 624T266 643T237 649Q170 649
154 535Q148 482 148 357Q148 317 148 297Z" />
<glyph unicode="1" glyph-name="one" horiz-adv-x="475" d="M67 612Q67 623 75 633T102 644Q190 648 230 696Q244 713 265 713Q283 713 292 705T302 690T303 669V64H364Q408 64 408 32T364 0H124Q79 0 79 32T124 64H191V595Q148 580 108 580Q67 580 67 612Z" />
<glyph unicode="2" glyph-name="two" horiz-adv-x="475" d="M40 551Q40 555 45 570T64 613T96 661Q145 713 224 713Q318 713 372 648T427 490Q427 442 406 398T355 319T250 202L153 92Q160 93 173 93H295Q305 93 326 93T357 94Q402 94 414 88T427 50V44Q427 18
418 9T383 0H92Q65 0 56 9T47 45Q47 65 56 75L227 290Q312 397 312 489Q312 502 310 518T299 563T267 609T210 627Q162 627 138 594T101 506Q98 494 96 491T87 487T72 499Q40 546 40 551Z" />
<glyph unicode="3" glyph-name="three" horiz-adv-x="475" d="M40 89Q40 91 46 127Q48 144 50 149T60 154Q65 154 75 140Q98 107 131 88T185 65T224 61Q254 61 274 75T301 116T310 160T312 202Q312 275 291 309T217 343H183Q165 343 162 346T158 369V381Q158 401
164 405Q168 407 192 409Q213 411 223 413T247 424T270 450Q293 487 293 548Q293 566 291 579T283 607T263 630T225 638Q214 638 202 636T171 626T134 600T104 553Q99 541 92 541T70 566T54 596T60 612T80 642T113 675T163 702T229 713Q314 713 361 669T408 548Q408
489 379 446T308 376Q434 338 434 200Q434 91 377 36T228 -19Q193 -19 161 -9T108 15T71 45T48 72T40 89Z" />
<glyph unicode="4" glyph-name="four" horiz-adv-x="475" d="M26 210V228Q26 247 33 261L230 670Q238 686 245 690T272 694H324Q350 694 359 685T368 650V247H404Q418 247 425 246T440 235T448 206Q448 192 445 183T433 171T420 167T404 166H368V44Q368 18 359
9T324 0H307Q280 0 272 9T263 44V166H70Q43 166 35 175T26 210ZM114 247H269V604Q269 591 238 517Q218 467 192 410T141 303T114 247Z" />
<glyph unicode="5" glyph-name="five" horiz-adv-x="475" d="M33 96Q33 97 39 112T55 143T71 159Q80 159 82 150Q95 119 115 99T156 72T188 63T208 61Q231 61 248 68T276 89T292 116T301 152T304 187T305 223Q305 257 304 276T298 325T279 369T243 384Q190 384
153 324Q146 311 138 308T114 304Q94 304 84 311T73 327T71 350V648Q71 675 80 684T116 694H351Q376 694 385 686T395 651T386 617T351 608H176V433Q208 448 245 448Q290 448 326 430T383 384Q427 323 427 220Q427 105 370 42Q313 -19 211 -19Q176 -19 145 -8T95
18T61 51T40 80T33 96Z" />
<glyph unicode="6" glyph-name="six" horiz-adv-x="475" d="M40 339Q40 513 96 605Q131 660 182 686T289 713Q321 713 345 703Q367 694 371 689T376 666V642Q376 616 365 616Q361 616 349 623Q325 638 292 638Q262 638 239 627T201 593T177 548T164 493T158 440T155
391Q188 474 266 474Q353 474 400 395Q434 337 434 233Q434 170 425 130T383 47Q333 -19 240 -19Q40 -19 40 339ZM157 251Q157 61 239 61Q262 61 278 72T302 97T314 139T318 183T319 233Q319 275 318 297T310 350T287 395T243 410Q157 410 157 251Z" />
<glyph unicode="7" glyph-name="seven" horiz-adv-x="475" d="M40 644V651Q40 683 52 689T117 695H153Q354 695 386 694Q401 694 407 693T421 688T431 675T434 651Q434 630 425 618Q246 345 243 22Q243 -10 199 -10H170Q150 -10 140 -4T128 11T126 36Q126 342
327 602Q320 601 304 601H175Q165 601 144 601T112 600Q64 600 52 606T40 644Z" />
<glyph unicode="8" glyph-name="eight" horiz-adv-x="475" d="M40 199Q40 337 156 375Q53 409 53 524Q53 612 100 662T237 713Q326 713 373 663T421 524Q421 408 318 375Q434 337 434 199Q434 94 382 38T237 -19Q145 -19 93 37T40 199ZM154 201Q154 177 154 163T159
127T172 93T196 71T237 61T277 70T302 92T314 127T319 163T320 201Q320 231 319 248T310 291T285 330T237 343T190 330T164 292T156 249T154 201ZM156 523Q156 498 157 484T166 449T190 418T237 407T283 417T308 449T316 484T318 523Q318 549 317 563T308 597T284
628T237 638Q214 638 198 630T173 613T161 585T157 555T156 523Z" />
<glyph unicode="9" glyph-name="nine" horiz-adv-x="475" d="M40 462Q40 501 42 524T55 581T90 645Q144 713 239 713Q434 713 434 357Q434 305 432 269T415 176T373 77Q345 34 299 8T197 -19Q158 -19 127 -5T83 22T70 41Q70 45 86 73T109 102Q115 102 121 96Q150
61 196 61Q229 61 257 83T299 148Q306 170 310 194T315 236T319 303Q282 220 208 220Q120 220 72 304Q40 359 40 462ZM155 461Q155 420 156 398T164 344T187 299T231 284Q261 284 281 304T307 357T316 407T318 441Q318 638 240 638Q219 638 204 631T180 609T166
580T158 542T156 503T155 461Z" />
<glyph unicode=":" glyph-name="colon" horiz-adv-x="263" d="M79 26V80Q79 99 82 102T104 106H160Q178 106 181 103T185 80V26Q185 7 182 4T160 0H105Q86 0 83 3T79 26ZM79 392V446Q79 465 82 468T105 472H160Q178 472 181 469T185 446V392Q185 373 182 370T160
366H104Q86 366 83 369T79 392Z" />
<glyph unicode=";" glyph-name="semicolon" horiz-adv-x="264" d="M78 389Q78 389 78 432Q78 451 79 457T84 467T98 472H162Q184 472 184 451V399Q184 385 183 380T178 370T164 366H100Q86 366 82 371T78 389ZM79 26V80Q79 99 82 102T104 106H160Q178 106 181
103T185 80V26Q185 8 177 -9Q145 -77 135 -95Q130 -106 126 -108T106 -111Q95 -111 91 -111T83 -108T79 -99Q79 -91 107 0Q87 0 83 3T79 26Z" />
<glyph unicode="&lt;" glyph-name="less" horiz-adv-x="739" d="M80 259T80 264T81 273T85 281T91 287T98 292T105 297T111 301L603 600Q616 608 627 608Q640 608 649 599T658 577Q658 558 627 539L173 264L245 221L627 -11Q658 -29 658 -49Q658 -62 649 -71T627
-81Q620 -81 603 -72L112 226Q111 227 106 230T99 234T92 239T86 246T82 254Z" />
<glyph unicode="=" glyph-name="equal" horiz-adv-x="739" d="M53 119T53 151T95 183H644Q660 183 669 176T681 163T684 150Q684 118 641 118Q639 118 635 118T628 119H95Q53 119 53 151ZM53 345T53 377T95 409H644Q660 409 669 402T681 389T684 377Q684 345 641
345H95Q53 345 53 377Z" />
<glyph unicode="&gt;" glyph-name="greater" horiz-adv-x="739" d="M80 -49Q80 -30 111 -11L565 264L493 307L111 539Q80 557 80 577Q80 590 89 599T111 608Q122 608 135 600L626 302Q627 301 632 298T639 294T646 289T652 282T656 274T658 264Q658 260 657 256T654
249T650 243T644 237T639 233T632 229L627 226L135 -72Q120 -81 111 -81Q98 -81 89 -72T80 -49Z" />
<glyph unicode="?" glyph-name="question" horiz-adv-x="448" d="M54 642Q54 649 73 663T131 690T215 704Q395 704 395 552Q395 477 349 438Q254 359 254 244V210Q254 190 251 187T228 183H194Q176 183 173 186T169 207V250Q169 365 260 477Q270 490 273 496T280
517T284 557Q284 601 271 620T212 640Q143 640 97 587Q90 577 84 577Q79 577 76 581T65 606Q54 639 54 642ZM158 45V62Q158 88 167 97T202 106H220Q247 106 255 97T264 62V44Q264 18 255 9T220 0H203Q176 0 167 9T158 45Z" />
<glyph unicode="@" glyph-name="at" horiz-adv-x="633" d="M53 347Q53 506 124 597Q208 704 366 704Q408 704 441 693T497 663T535 617T559 562T573 498T579 433T580 367T579 308T569 254T542 193Q495 120 396 120Q304 120 254 189Q213 246 213 347Q213 367 214
384T225 440T252 504T307 552T397 574Q430 574 457 565Q448 598 424 619T366 640Q254 640 195 542Q154 474 154 347Q154 329 154 315T159 269T170 211T194 155T233 104T290 69T370 54Q448 54 512 98H555Q569 98 574 97T579 87Q579 83 570 73T542 48T499 21T440
-1T367 -10Q289 -10 223 19T118 106Q53 198 53 347ZM314 347Q314 305 320 272T345 211T397 184Q405 184 412 185T432 196T454 220T471 269T479 347Q479 389 473 422T448 483T396 510Q388 510 381 509T361 498T339 474T322 425T314 347Z" />
<glyph unicode="A" glyph-name="A" horiz-adv-x="636" d="M35 25Q35 25 39 41L232 657Q244 694 289 694H346Q360 694 368 693T386 683T403 656L596 39Q600 28 600 25Q600 0 562 0H528Q497 0 487 11T463 64L430 171H188L146 40Q142 26 138 19T122 6T89 0H73Q35
0 35 25ZM211 246H407L351 431Q314 554 309 588H308Q303 554 269 439L211 246Z" />
<glyph unicode="B" glyph-name="B" horiz-adv-x="634" d="M81 45V649Q81 676 90 685T126 694H326Q444 694 499 643T555 516Q555 457 519 418T418 363Q505 348 543 301T581 192Q581 112 527 56T351 0H126Q99 0 90 9T81 45ZM197 75H321Q391 75 429 105T467 194Q467
232 452 259T419 300T373 320T333 328T305 329H197V75ZM197 393H296Q373 393 408 427T444 514Q444 550 426 574T377 606T330 617T296 619H197V393Z" />
<glyph unicode="C" glyph-name="C" horiz-adv-x="606" d="M53 347Q53 513 126 606Q209 713 371 713Q449 713 523 685Q540 678 544 675T548 665Q548 647 535 591Q532 577 523 577Q518 577 509 584Q446 627 372 627Q332 627 300 614T247 581T212 532T191 479T180
424T176 379T175 347Q175 311 178 279T194 206T227 136T286 87T375 67T457 77T525 114Q537 123 542 123Q550 123 553 111Q559 69 559 51Q559 45 556 42T537 27Q495 0 461 -9T373 -19Q224 -19 137 74Q53 165 53 347Z" />
<glyph unicode="D" glyph-name="D" horiz-adv-x="687" d="M81 45V649Q81 676 90 685T126 694H344Q413 694 472 667T569 587Q633 495 633 342Q633 174 554 85Q481 0 345 0H126Q99 0 90 9T81 45ZM200 75H312Q354 75 387 86T440 113T476 155T498 203T509 255T513
301T514 342T514 383T509 431T498 485T476 534T440 579T386 607T311 619H200V75Z" />
<glyph unicode="E" glyph-name="E" horiz-adv-x="566" d="M81 45V646Q81 673 90 682T126 691H469Q497 691 505 681T513 646Q513 624 506 614T491 603T461 601Q438 601 355 602T249 604H203V399H443Q457 399 464 398T479 387T487 358Q487 344 484 335T472 323T459
319T443 318H203V92Q221 94 335 94Q358 94 405 95T476 96Q495 96 503 95T519 83T526 52V44Q526 18 517 9T482 0H126Q99 0 90 9T81 45Z" />
<glyph unicode="F" glyph-name="F" horiz-adv-x="540" d="M81 45V646Q81 673 90 682T126 691H455Q483 691 491 681T499 646Q499 624 492 614T477 603T448 601Q425 601 346 602T243 604H203V386H416Q430 386 437 385T452 374T460 345Q460 331 457 322T445 310T432
306T416 305H203V44Q203 18 194 9T159 0H126Q99 0 90 9T81 45Z" />
<glyph unicode="G" glyph-name="G" horiz-adv-x="633" d="M53 347Q53 523 136 619Q219 713 370 713Q463 713 535 674Q554 664 557 661T561 651Q561 633 548 577Q545 563 536 563Q531 563 523 569Q457 627 372 627Q332 627 300 614T247 581T212 532T191 479T180
424T176 379T175 347T175 316T180 271T190 216T212 163T247 114T299 81T372 67Q416 67 458 78V257H396Q376 257 373 261T369 285V310Q369 330 373 334T397 338H542Q562 338 565 334T569 310V58Q569 41 566 36T546 23Q463 -19 369 -19Q212 -19 128 85Q53 178 53
347Z" />
<glyph unicode="H" glyph-name="H" horiz-adv-x="677" d="M81 45V649Q81 676 90 685T126 694H159Q186 694 194 685T203 650V401H474V650Q474 676 483 685T518 694H552Q579 694 587 685T596 650V44Q596 18 587 9T552 0H518Q491 0 483 9T474 44V320H203V44Q203 18
194 9T159 0H126Q99 0 90 9T81 45Z" />
<glyph unicode="I" glyph-name="I" horiz-adv-x="283" d="M80 45V649Q80 676 89 685T125 694H158Q185 694 193 685T202 650V44Q202 18 193 9T158 0H125Q98 0 89 9T80 45Z" />
<glyph unicode="J" glyph-name="J" horiz-adv-x="450" d="M40 36Q40 56 52 104Q55 116 64 116Q70 116 77 106Q116 60 175 60Q249 60 249 153V650Q249 676 258 685T293 694H324Q351 694 359 685T368 650V147Q368 69 323 25T203 -19Q132 -19 62 15Q42 26 41 31Q40
33 40 36Z" />
<glyph unicode="K" glyph-name="K" horiz-adv-x="662" d="M81 45V649Q81 676 90 685T126 694H148Q175 694 183 685T192 650V361L478 673Q497 694 530 694H567Q600 694 600 675Q600 668 588 655L361 407L605 27Q605 14 600 8T590 1T571 0H532Q512 0 504 3T486 23L289
329L192 223V44Q192 18 183 9T148 0H126Q99 0 90 9T81 45Z" />
<glyph unicode="L" glyph-name="L" horiz-adv-x="513" d="M81 45V649Q81 676 90 685T126 694H159Q186 694 194 685T203 650V87Q228 87 317 89T431 91Q451 91 460 84T471 68T473 45Q473 20 465 10T429 0H126Q99 0 90 9T81 45Z" />
<glyph unicode="M" glyph-name="M" horiz-adv-x="836" d="M81 45V649Q81 676 90 685T126 694H188Q202 694 210 693T229 682T247 655L337 392L381 256Q412 157 416 126H417Q420 147 450 248L490 371L587 652Q592 667 596 674T612 687T646 694H710Q737 694 745 685T754
650V44Q754 18 745 9T710 0H694Q667 0 659 9T650 44V584Q650 572 616 463T575 339L479 61Q470 35 458 27T416 19Q404 19 397 19T381 23T365 35T353 58L263 322Q240 388 221 454Q189 562 186 584H185V44Q185 18 176 9T141 0H126Q99 0 90 9T81 45Z" />
<glyph unicode="N" glyph-name="N" horiz-adv-x="677" d="M81 45V649Q81 676 90 685T126 694H198Q225 694 238 686T261 654L450 212Q481 137 491 106H492V650Q492 676 501 685T536 694H552Q579 694 587 685T596 650V44Q596 18 587 9T552 0H479Q452 0 439 8T416
40L227 482Q196 557 186 588H185V44Q185 18 176 9T141 0H126Q99 0 90 9T81 45Z" />
<glyph unicode="O" glyph-name="O" horiz-adv-x="697" d="M53 342Q53 505 119 603Q155 656 215 684T348 713Q508 713 586 588Q643 497 643 342Q643 165 564 72Q487 -19 348 -19Q210 -19 135 68Q53 163 53 342ZM175 358Q175 228 205 157Q230 98 270 76T348 53T426
75T491 156Q521 227 521 358Q521 490 487 556Q442 643 348 643Q257 643 212 561Q175 496 175 358Z" />
<glyph unicode="P" glyph-name="P" horiz-adv-x="608" d="M81 45V649Q81 676 90 685T126 694H332Q441 694 497 638T554 484Q554 427 535 385T483 320T416 288T341 278H203V44Q203 18 194 9T159 0H126Q99 0 90 9T81 45ZM200 347H302Q348 347 377 358T419 392T436
434T440 483Q440 513 436 533T419 575T377 608T302 619H200V347Z" />
<glyph unicode="Q" glyph-name="Q" horiz-adv-x="697" d="M53 342Q53 505 119 603Q155 656 215 684T348 713Q508 713 586 588Q643 497 643 342Q643 232 613 156Q580 71 520 32L584 -62Q598 -84 598 -90Q598 -111 565 -111H505Q482 -111 476 -106T451 -74L415 -13Q382
-19 348 -19Q210 -19 135 68Q53 163 53 342ZM172 343Q172 215 203 149Q248 51 348 51Q372 51 372 55Q372 60 346 99L322 138Q305 165 305 173Q305 194 339 194H385Q401 194 406 193T417 182L467 107Q524 173 524 343Q524 477 489 552Q468 595 430 619T348 643Q307
643 272 623T215 566Q172 492 172 343Z" />
<glyph unicode="R" glyph-name="R" horiz-adv-x="613" d="M81 45V649Q81 676 90 685T126 694H325Q441 694 500 641T560 500Q560 365 417 324L567 37Q573 25 573 22Q573 0 538 0H496Q475 0 468 4T453 24L305 315H200V44Q200 18 191 9T156 0H126Q99 0 90 9T81 45ZM200
379H310Q391 379 418 411T446 499Q446 556 419 587T311 619H200V379Z" />
<glyph unicode="S" glyph-name="S" horiz-adv-x="527" d="M42 63Q42 81 55 137Q58 151 67 151Q72 151 83 141Q162 74 262 74Q322 74 345 106T369 184Q369 224 349 251T302 290Q299 291 288 294T261 301T237 308Q188 320 162 332T104 378Q97 385 88 397T66 442T53
512Q53 600 104 656T265 713Q350 713 418 673Q435 663 438 660T442 651Q442 633 429 577Q426 563 417 563Q412 563 405 570Q345 626 266 626Q216 626 187 602T158 527Q158 488 191 452Q203 440 218 435T282 416Q317 407 334 402T376 381T420 343Q474 279 474 195Q474
99 421 40T263 -19Q161 -19 71 36Q50 49 46 52T42 63Z" />
<glyph unicode="T" glyph-name="T" horiz-adv-x="644" d="M34 643Q34 670 43 679T79 688H565Q593 688 601 678T609 643Q609 615 600 607T563 598Q543 598 473 599T383 601V44Q383 18 374 9T339 0H306Q279 0 270 9T261 45V601Q252 601 167 600T81 598Q53 598 44
606T34 643Z" />
<glyph unicode="U" glyph-name="U" horiz-adv-x="656" d="M81 228V649Q81 676 90 685T126 694H159Q186 694 194 685T203 650V227Q203 56 331 56Q464 56 464 228V650Q464 676 473 685T508 694H531Q558 694 566 685T575 650V228Q575 119 513 50T330 -19T145 49T81 228Z" />
<glyph unicode="V" glyph-name="V" horiz-adv-x="636" d="M23 669Q23 694 60 694H94Q108 694 116 693T135 682T152 655L267 303Q276 278 298 200Q320 131 324 106H325Q335 162 395 341L498 654Q506 680 518 687T556 694H575Q612 694 612 669Q612 664 607 650L406
39Q400 21 389 12T369 2T348 0H287Q273 0 265 1T246 12T229 40L28 650Q23 664 23 669Z" />
<glyph unicode="W" glyph-name="W" horiz-adv-x="900" d="M20 668Q20 694 59 694H80Q93 694 101 693T119 683T134 656L217 304Q251 158 255 109H256Q261 162 309 366L377 654Q381 673 391 682T410 692T432 694H475Q488 694 496 693T514 682T529 655L608 322Q646
159 653 107H654Q661 164 700 327L778 656Q782 674 792 683T811 693T836 694Q879 694 879 668Q879 664 876 654L728 39Q724 21 714 12T696 2T674 0H626Q615 0 609 1T595 5T581 17T571 41L494 365Q455 526 447 587H446Q442 552 424 469T400 368L323 43Q319 28 314
19T300 6T285 1T268 0H225Q211 0 204 1T186 12T171 39L23 654Q20 664 20 668Z" />
<glyph unicode="X" glyph-name="X" horiz-adv-x="636" d="M31 21Q31 28 39 40L252 367L54 654Q45 667 45 674Q45 694 79 694H135Q155 694 162 691T179 673L311 471L439 676Q450 694 482 694H531Q565 694 565 673Q565 669 557 656L370 367L603 27Q603 14 599 8T589
1T570 0H514Q494 0 487 3T469 22L311 274L158 22Q152 11 145 7T132 1T113 0H65Q54 0 49 0T37 6T31 21Z" />
<glyph unicode="Y" glyph-name="Y" horiz-adv-x="636" d="M19 673Q19 694 54 694H95Q143 694 165 658L278 469Q314 408 326 380Q332 400 374 472T454 606T495 671Q515 694 556 694H581Q616 694 616 673Q616 668 607 653L377 277V43Q377 16 367 8T333 0H302Q276
0 267 9T258 44V278L25 657Q19 666 19 673Z" />
<glyph unicode="Z" glyph-name="Z" horiz-adv-x="580" d="M53 45Q53 66 62 80L386 613H350Q312 613 235 612T120 610Q98 610 89 611T73 622T66 652Q66 671 73 681T88 692T111 694H483Q507 694 517 686T527 651Q527 632 518 618L195 87L483 91Q512 91 522 84T533
45Q533 20 525 10T489 0H97Q70 0 62 10T53 45Z" />
<glyph unicode="[" glyph-name="bracketleft" horiz-adv-x="293" d="M76 -177V706Q76 730 86 740T119 750H228Q270 750 270 718T227 686H185V-158H229Q270 -158 270 -190T228 -222H118Q103 -222 94 -218T82 -207T77 -193T76 -177Z" />
<glyph unicode="\" glyph-name="backslash" horiz-adv-x="475" d="M53 718Q53 732 62 740T84 749Q95 749 102 743T113 731T120 713L400 -124Q420 -187 420 -190Q420 -203 411 -212T389 -221T369 -212T358 -198T351 -179L60 689Q53 709 53 718Z" />
<glyph unicode="]" glyph-name="bracketright" horiz-adv-x="293" d="M21 -222T21 -190T64 -158H106V686H64Q21 686 21 718T63 750H172Q191 750 201 742T213 726T215 705V-178Q215 -200 207 -211T172 -222H62Q21 -222 21 -190Z" />
<glyph unicode="^" glyph-name="asciicircum" horiz-adv-x="581" d="M144 484Q144 492 238 607Q249 620 267 620H314Q330 620 343 605Q432 494 434 489Q435 487 435 484Q435 472 409 472H397Q384 472 376 477T333 515Q308 538 290 554Q276 541 254 521Q215 485
206 479T182 472H166Q144 472 144 484Z" />
<glyph unicode="_" glyph-name="underscore" horiz-adv-x="739" d="M80 -275Q80 -268 82 -262T95 -248T124 -240H615Q658 -240 658 -276Q658 -310 613 -310H123Q80 -310 80 -275Z" />
<glyph unicode="`" glyph-name="grave" horiz-adv-x="475" d="M94 681Q94 692 112 692H180Q193 692 198 688T218 664Q291 563 293 557Q294 555 294 553Q294 542 274 542H256Q238 542 220 558Q100 669 96 673Q94 677 94 681Z" />
<glyph unicode="a" glyph-name="a" horiz-adv-x="452" d="M26 132Q26 167 40 194T82 238T134 266T193 282T242 288T276 291Q284 292 285 294T287 310V330Q287 364 281 386T261 416T240 426T220 428Q146 428 95 378Q84 368 79 368Q72 368 70 373T66 397Q63 421
63 433Q63 441 67 444T87 456Q151 487 224 487Q312 487 355 446T398 331V44Q398 18 389 9T354 0H334Q307 0 299 9T290 44V69Q274 40 240 15T157 -10Q100 -10 63 33T26 132ZM131 134Q131 101 150 78T198 54Q208 54 220 57T248 70T276 101T287 155V256Q269 255 252
252T212 241T172 221T143 186T131 134Z" />
<glyph unicode="b" glyph-name="b" horiz-adv-x="483" d="M56 45V649Q56 676 65 685T101 694H120Q147 694 155 685T164 650V427Q210 482 281 482Q332 482 367 458T419 394T443 316T450 237Q450 128 410 68Q358 -10 262 -10Q203 -10 167 35Q167 19 159 11T143 1T123
0H101Q74 0 65 9T56 45ZM167 94Q192 54 235 54Q265 54 286 68T317 99T332 147T338 193T339 238Q339 260 339 273T336 311T327 351T311 384T285 409T245 418Q218 418 193 403Q175 390 171 383T167 361V94Z" />
<glyph unicode="c" glyph-name="c" horiz-adv-x="422" d="M32 237Q32 357 85 422T242 487Q287 487 313 479T372 452Q388 439 389 434Q389 432 382 397Q379 379 377 374T368 369Q363 369 354 378Q327 399 304 408T243 417Q209 417 188 401T157 354T146 298T143
238Q143 214 143 199T149 154T163 107T192 75T240 60Q309 60 366 117Q373 126 379 126Q386 126 388 121T392 98Q395 74 395 62Q395 56 389 49T374 36T357 24T342 14L335 11Q291 -10 238 -10Q138 -10 85 54Q32 119 32 237Z" />
<glyph unicode="d" glyph-name="d" horiz-adv-x="483" d="M32 236Q32 349 75 412Q123 482 213 482Q277 482 318 433V650Q318 676 327 685T362 694H382Q409 694 417 685T426 650V44Q426 18 417 9T382 0H359Q332 0 324 9T315 44Q311 38 301 28T265 4T208 -10Q116
-10 67 71Q32 130 32 236ZM143 235Q143 213 143 200T146 161T155 121T171 88T197 63T237 54Q285 54 315 101V384Q281 418 247 418Q217 418 196 404T165 373T150 325T144 279T143 235Z" />
<glyph unicode="e" glyph-name="e" horiz-adv-x="438" d="M26 239Q26 309 45 360T96 438T161 475T231 487Q318 487 364 433T411 275Q411 249 402 241T367 232H129Q129 219 129 208T133 173T144 131T164 94T197 65T247 54Q324 54 376 116Q384 125 389 125Q396 125
397 122T401 105Q402 102 402 101Q405 74 405 65Q405 42 342 12Q293 -10 243 -10Q212 -10 183 -3T125 22T74 67T40 138T26 239ZM130 279H325Q324 301 323 314T317 351T302 387T275 412T232 423Q184 423 159 382T130 279Z" />
<glyph unicode="f" glyph-name="f" horiz-adv-x="290" d="M25 425T25 440T34 462T53 471T78 472V549Q78 622 120 663T244 704Q274 704 300 699Q321 694 325 690T329 668V640Q329 615 318 615Q313 615 305 621Q279 640 244 640Q227 640 215 635T196 624T187 608T184
591T183 574V472H227Q271 472 271 440T227 408H186V44Q186 18 177 9T142 0H123Q96 0 87 9T78 45V408Q61 408 53 409T35 417Z" />
<glyph unicode="g" glyph-name="g" horiz-adv-x="483" d="M32 238Q32 346 76 409Q126 482 221 482Q282 482 318 424Q318 459 324 470T362 482H382Q409 482 417 473T426 438V27Q426 -65 380 -126T233 -187Q151 -187 82 -154Q71 -148 69 -144T66 -124V-101Q66 -75
77 -75Q82 -75 90 -82Q156 -123 231 -123Q315 -123 315 0V93H314Q286 21 214 21Q124 21 75 84Q32 140 32 238ZM143 238Q143 219 145 202T154 153T183 104T236 85Q314 85 315 248Q315 262 318 272V335Q318 368 298 393T247 418T195 401T163 356T148 299T143 238Z"
/>
<glyph unicode="h" glyph-name="h" horiz-adv-x="483" d="M54 45V649Q54 676 63 685T99 694H118Q145 694 153 685T162 650V387H163Q207 482 300 482Q372 482 400 446T428 342V44Q428 18 419 9T384 0H361Q334 0 326 9T317 44V338Q317 381 306 399T263 418Q224 418
195 383T165 283V44Q165 18 156 9T121 0H99Q72 0 63 9T54 45Z" />
<glyph unicode="i" glyph-name="i" horiz-adv-x="219" d="M48 615V653Q48 678 57 686T92 695H125Q152 695 161 686T170 648V620Q170 591 161 582T125 573H92Q65 573 57 582T48 615ZM55 45V427Q55 454 64 463T100 472H119Q146 472 154 463T163 428V44Q163 18 154
9T119 0H100Q73 0 64 9T55 45Z" />
<glyph unicode="j" glyph-name="j" horiz-adv-x="245" d="M-62 -136Q-62 -134 -55 -106Q-51 -84 -41 -84Q-38 -84 -27 -90Q-6 -104 25 -104Q45 -104 57 -99T75 -82T81 -62T82 -41V428Q82 454 91 463T126 472H146Q173 472 181 463T190 428V-25Q190 -100 156 -138T62
-177Q24 -177 -19 -163T-62 -136ZM68 617V651Q68 677 77 686T112 695H146Q173 695 181 686T190 651V617Q190 591 181 582T146 573H112Q85 573 77 582T68 617Z" />
<glyph unicode="k" glyph-name="k" horiz-adv-x="456" d="M61 45V649Q61 676 70 685T106 694H115Q142 694 150 685T159 650V305L293 452Q302 462 310 466T325 471T344 472H377Q410 472 410 453Q410 446 398 433L262 285L417 37Q424 27 424 21Q424 0 390 0H362Q331
0 321 15L198 213L156 169V44Q156 18 147 9T112 0H106Q79 0 70 9T61 45Z" />
<glyph unicode="l" glyph-name="l" horiz-adv-x="219" d="M55 45V649Q55 676 64 685T100 694H119Q146 694 154 685T163 650V44Q163 18 154 9T119 0H100Q73 0 64 9T55 45Z" />
<glyph unicode="m" glyph-name="m" horiz-adv-x="747" d="M54 45V433Q54 460 63 469T99 478H115Q142 478 150 469T159 434V381L160 380Q203 482 300 482Q412 482 426 385Q472 482 564 482Q635 482 664 447T693 342V44Q693 18 684 9T649 0H627Q600 0 591 9T582
45V338Q582 381 571 399T528 418Q488 418 459 383T429 283V44Q429 18 420 9T385 0H363Q336 0 327 9T318 45V338Q318 381 307 399T264 418Q224 418 195 383T165 283V44Q165 18 156 9T121 0H99Q72 0 63 9T54 45Z" />
<glyph unicode="n" glyph-name="n" horiz-adv-x="483" d="M54 45V433Q54 460 63 469T99 478H115Q142 478 150 469T159 434V380H160Q206 482 300 482Q372 482 400 446T428 342V44Q428 18 419 9T384 0H361Q334 0 326 9T317 44V338Q317 381 306 399T263 418Q224 418
195 383T165 283V44Q165 18 156 9T121 0H99Q72 0 63 9T54 45Z" />
<glyph unicode="o" glyph-name="o" horiz-adv-x="475" d="M26 232Q26 348 77 415Q130 487 237 487Q341 487 396 417Q448 352 448 232Q448 114 392 52Q337 -10 237 -10Q133 -10 79 54Q26 119 26 232ZM137 273T137 244T137 198T143 152T158 105T188 74T237 60T286
73T315 104T330 151T336 198T337 244Q337 267 337 280T334 319T325 359T308 390T279 415T237 423Q208 423 188 410T159 381T144 335T138 290Z" />
<glyph unicode="p" glyph-name="p" horiz-adv-x="483" d="M56 -122V427Q56 454 65 463T101 472H120Q141 472 151 465T162 450T164 424Q217 482 288 482Q336 482 369 459T419 397T443 320T450 238Q450 131 409 66Q385 30 346 10T263 -10Q209 -10 167 35V-123Q167
-149 158 -158T123 -167H101Q74 -167 65 -158T56 -122ZM167 93Q193 54 235 54Q271 54 294 76T326 136T337 194T339 236T337 278T328 333T299 390T244 412Q199 412 167 375V93Z" />
<glyph unicode="q" glyph-name="q" horiz-adv-x="483" d="M32 235Q32 337 69 400Q118 482 217 482Q282 482 318 420V438Q318 464 327 473T362 482H382Q409 482 417 473T426 438V-123Q426 -149 417 -158T382 -167H359Q332 -167 324 -158T315 -123V43Q274 -10 211
-10Q158 -10 121 13T65 76T40 154T32 235ZM143 234Q143 184 151 146T181 81T238 54Q290 54 318 109V330Q318 362 298 387T246 412Q210 412 187 390T156 332T145 276T143 234Z" />
<glyph unicode="r" glyph-name="r" horiz-adv-x="320" d="M56 45V433Q56 460 65 469T101 478H115Q142 478 150 469T159 434V368H160Q180 426 216 454T291 482Q302 482 304 478T307 456V427Q307 409 305 406T289 401Q235 396 200 355T164 246V44Q164 18 155 9T120
0H101Q74 0 65 9T56 45Z" />
<glyph unicode="s" glyph-name="s" horiz-adv-x="364" d="M26 50Q26 53 31 79T37 109Q37 121 48 121Q54 121 64 111Q116 59 186 59T256 124Q256 144 250 157T229 179T204 190T174 198Q32 227 32 346Q32 487 187 487Q253 487 305 460Q320 453 323 450T326 441Q326
425 319 404Q316 386 314 382T305 377Q300 377 294 382Q245 425 181 425Q118 425 118 366Q118 348 123 336T143 316T167 305T199 297Q224 292 237 288T270 273T305 243Q342 200 342 140Q342 -10 188 -10Q138 -10 91 7Q26 31 26 50Z" />
<glyph unicode="t" glyph-name="t" horiz-adv-x="345" d="M18 408T18 440T63 472H82V562Q82 589 91 598T127 607H140Q167 607 175 598T184 563V472H258Q302 472 302 440T258 408H184V139Q184 60 218 60Q257 60 281 88Q289 100 296 100Q302 100 304 96T311 79Q311
78 314 65T318 50Q318 42 298 29T241 3T167 -10Q79 -10 79 121V408H62Q18 408 18 440Z" />
<glyph unicode="u" glyph-name="u" horiz-adv-x="483" d="M54 129V427Q54 454 63 463T99 472H121Q148 472 156 463T165 428V122Q165 75 176 59T225 43Q271 43 294 84T317 181V428Q317 454 326 463T361 472H384Q411 472 419 463T428 428V44Q428 18 419 9T384 0H364Q337
0 329 9T320 44V75Q282 -10 200 -10Q125 -10 90 22T54 129Z" />
<glyph unicode="v" glyph-name="v" horiz-adv-x="430" d="M21 447Q24 464 33 468T59 472H71Q98 472 108 463T126 432L216 111L306 431Q314 457 326 464T362 472H371Q409 472 409 447Q409 444 406 432L295 39Q290 21 280 12T261 2T239 0H191Q177 0 169 1T151 12T135
39L21 447Z" />
<glyph unicode="w" glyph-name="w" horiz-adv-x="641" d="M20 446Q20 472 59 472H70Q91 472 102 466T117 452T124 429L182 183Q191 145 195 115H196Q199 136 215 207L267 427Q271 443 274 450T288 465T318 472Q359 472 368 433L444 113L520 433Q524 451 534 460T553
470T578 472Q621 472 621 446Q621 445 618 430L525 39Q521 21 511 12T492 2T471 0H423Q385 0 373 24Q371 29 356 92T325 236T305 354Q305 321 289 239T256 92T238 23Q226 0 189 0H170Q157 0 149 1T131 12T116 39L24 428Q20 445 20 446Z" />
<glyph unicode="x" glyph-name="x" horiz-adv-x="430" d="M19 20Q19 29 27 40L169 244L33 433Q25 445 25 452Q25 472 58 472H82Q104 472 111 468T127 451L212 326L293 450Q303 464 310 468T338 472H362Q395 472 395 451Q395 444 387 433L255 244L403 38Q411 27
411 20Q411 0 377 0H353Q333 0 325 4T308 22L212 178L121 23Q115 12 108 7T95 1T76 0H52Q19 0 19 20Z" />
<glyph unicode="y" glyph-name="y" horiz-adv-x="430" d="M24 448Q24 472 61 472H73Q106 472 117 460T146 399Q226 188 229 118Q234 179 270 303L307 432Q314 459 327 465T366 472Q380 472 387 471T401 465T408 447Q408 443 403 428L260 -51Q243 -106 203 -141T107
-177Q53 -177 40 -167Q37 -164 34 -139T31 -103Q31 -89 43 -89Q44 -89 46 -90Q48 -91 50 -92Q80 -106 108 -106Q149 -106 168 -72Q173 -64 182 -36T192 -1Q192 2 188 14L29 430Q24 443 24 448Z" />
<glyph unicode="z" glyph-name="z" horiz-adv-x="411" d="M26 38Q26 53 36 68L260 407H222Q208 407 157 406T92 405Q76 405 67 406T49 415T40 438Q40 472 85 472H335Q348 472 355 471T371 461T379 434Q379 419 369 404L145 65H191Q214 65 260 66T328 67Q345 67
354 66T372 57T381 33Q381 0 337 0H70Q57 0 50 1T34 11T26 38Z" />
<glyph unicode="{" glyph-name="braceleft" horiz-adv-x="475" d="M46 260V268Q46 287 49 291T71 297T105 304Q133 313 153 334T179 383Q181 392 181 409V612Q181 625 181 632T186 655T198 682T224 708T267 732Q315 750 390 750H406Q427 750 427 728V713Q427 704
427 701T425 694T419 688T406 686Q366 684 341 677T307 658T295 636T293 611V412Q293 393 291 381T280 345T245 299T176 264Q293 224 293 120V-82Q293 -104 294 -108Q297 -120 306 -128T324 -142T349 -150T373 -155T396 -157L411 -158Q427 -160 427 -180Q427 -182
427 -187T428 -194Q428 -211 424 -216T405 -222H373Q339 -222 308 -216T247 -196T199 -154T181 -88V117Q181 170 151 198T69 231Q54 233 50 237T46 260Z" />
<glyph unicode="|" glyph-name="bar" horiz-adv-x="264" d="M96 -175V692Q96 722 99 728Q108 750 131 750Q166 750 166 703V-177Q166 -222 131 -222T96 -175Z" />
<glyph unicode="}" glyph-name="braceright" horiz-adv-x="475" d="M46 -185Q46 -174 47 -170T52 -162T68 -158Q107 -156 131 -150T166 -131T178 -110T181 -83V121Q181 223 298 264Q181 304 181 407V610Q181 628 179 636Q177 646 171 654T154 667T136 675T114
681T94 683T75 685T62 686Q46 688 46 708V723Q46 739 50 744T68 750H100Q134 750 165 744T227 724T275 682T293 616V411Q293 377 304 356Q334 304 405 297Q420 296 423 291T427 268V260Q427 248 426 243T421 235T411 232T393 230T369 224Q293 198 293 122V-84Q293
-100 292 -109T284 -139T258 -175T207 -204Q159 -222 83 -222H68Q56 -222 51 -218T46 -200V-185Z" />
<glyph unicode="~" glyph-name="asciitilde" horiz-adv-x="581" d="M80 592Q80 628 113 661T202 694Q248 694 303 667T379 639Q401 639 416 650T435 677Q438 689 443 691T464 694Q466 694 470 694T476 695Q500 695 500 677Q500 641 467 608T377 574Q332 574 276
601T200 629Q181 629 165 620T144 592Q141 581 136 578T115 574H102Q80 574 80 592Z" />
</font>
</defs>
</svg>
