<?xml version="1.0" standalone="no"?> <!DOCTYPE svg PUBLIC "-//W3C//DTD SVG 1.0//EN" "http://www.w3.org/TR/2001/REC-SVG-20010904/DTD/svg10.dtd" > <svg xmlns="http://www.w3.org/2000/svg" width="100%" height="100%">
<defs >
<font id="cmunobx" horiz-adv-x="510" ><font-face
    font-family="CMU Concrete"
    units-per-em="1000"
    panose-1="2 0 8 3 0 0 0 0 0 0"
    ascent="1000"
    descent="-341"
    alphabetic="0" />
<missing-glyph horiz-adv-x="760" d="M10 10V765H750V10H10ZM70 112L346 388L70 663V112ZM105 70H655L380 346L105 70ZM105 705L380 429L655 705H105ZM414 388L690 112V663L414 388Z" />
<glyph unicode=" " glyph-name="space" horiz-adv-x="383" />
<glyph unicode="!" glyph-name="exclam" horiz-adv-x="361" d="M113 67Q113 93 132 113T180 133Q207 133 226 115T246 67Q246 39 226 20T180 0Q151 0 132 20T113 67ZM113 638Q113 672 134 688T180 705Q205 705 225 688T246 639Q246 628 244 606L219 244Q217 224
214 219T193 214H170Q154 214 148 217T141 235L116 601Q113 637 113 638Z" />
<glyph unicode="&quot;" glyph-name="quotedbl" horiz-adv-x="575" d="M140 649Q140 678 155 690T190 703Q208 703 225 690T242 648L229 399H153Q151 450 148 510T142 604T140 649ZM332 648Q332 677 348 690T384 703T419 691T435 649Q435 645 433 602T427 497T421
399H346Q332 636 332 648Z" />
<glyph unicode="#" glyph-name="numbersign" horiz-adv-x="958" d="M64 131Q64 169 109 169H289L338 330H116Q97 330 88 333Q64 341 64 368Q64 406 112 406H362Q364 413 437 654Q437 654 438 658Q439 662 440 664T443 672T449 680T456 687T465 692T478 694Q493
694 504 683T515 657Q515 649 497 587T460 465L441 406H612Q614 413 687 654L688 658Q689 662 690 664T693 672T699 680T706 687T715 692T728 694Q743 694 754 683T765 657Q765 649 747 587T710 465L691 406H838Q858 406 862 405Q874 403 883 393T893 368Q893 361
891 354T878 338T848 330H667L618 169H841Q862 169 868 167Q879 163 886 153T893 131Q893 94 845 94H594Q592 87 518 -157Q505 -194 479 -194Q463 -194 453 -183T442 -160Q442 -147 451 -115T481 -19T515 94H344Q327 33 268 -158Q255 -194 229 -194Q212 -194 202
-183T191 -158Q191 -149 202 -112T233 -12T265 94H119Q99 94 95 95Q83 97 74 107T64 131ZM368 169H539L588 330H417L368 169Z" />
<glyph unicode="$" glyph-name="dollar" horiz-adv-x="575" d="M63 192Q63 221 79 234T115 248Q136 248 151 234T166 197Q166 175 145 154Q170 87 249 73V320Q165 336 114 386T63 510Q63 582 112 635T249 698V750H324V698Q382 690 422 668T479 617T503 564T510
516Q510 487 494 474T459 461Q437 461 422 475T407 512Q407 533 428 554Q399 610 324 622V403Q414 386 462 328T510 199Q510 181 507 162T493 115T462 65T408 23T324 -3V-55H249V-3Q191 4 151 28T94 84T70 142T63 192ZM146 521Q146 488 172 460T249 420V622Q206
614 181 593T151 555T146 521ZM324 73Q358 81 381 96T412 131T424 163T427 187Q427 225 402 257T325 303L324 268V73Z" />
<glyph unicode="%" glyph-name="percent" horiz-adv-x="958" d="M63 549Q63 644 109 697T225 750Q255 750 274 742T323 715Q430 646 543 646Q658 646 728 720Q729 721 734 727T743 737T753 745T767 749Q780 749 789 740T797 711Q803 703 803 699Q803 692 793 680T770
657T745 635T731 623Q727 619 723 613T700 583T657 528L220 -35Q205 -55 189 -55Q177 -55 169 -46T160 -25Q160 -14 188 22L622 581Q586 575 548 575Q473 575 378 608Q383 576 383 548Q383 457 339 402T225 347Q156 347 110 400T63 549ZM148 544Q148 423 225 423Q258
423 284 452T311 549Q311 615 284 644T225 674Q200 674 184 663T160 630T151 590T148 544ZM574 147Q574 241 620 294T736 347Q803 347 848 295T893 146Q893 49 848 -3T737 -55T623 -5T574 147ZM659 141Q659 20 736 20Q769 20 795 49T822 146Q822 212 795 241T736
271Q711 271 695 260T671 227T662 187T659 141Z" />
<glyph unicode="&amp;" glyph-name="ampersand" horiz-adv-x="897" d="M47 160Q47 175 49 188T57 214T67 236T81 255T96 271T111 285T125 295T138 304T148 311Q153 314 177 331T215 357Q182 448 182 518Q182 597 231 651T348 705Q411 705 448 656T486 548Q486
449 321 340Q372 247 475 153Q490 169 502 183T524 209T546 236T564 261T583 290T602 320T625 356T650 397H577V472H836V397H728Q616 205 525 114Q607 65 668 65Q750 65 758 125H830Q827 61 780 25T665 -11Q614 -11 568 5T493 38T460 54Q456 54 430 38T357 6T257
-11Q166 -11 107 39T47 160ZM145 169Q145 123 186 94T284 65Q342 65 407 100Q313 180 249 288H247Q241 284 224 272T201 256T183 242T167 226T156 210T147 191T145 169ZM263 540Q263 489 288 409Q307 422 330 438T383 489T414 549Q414 578 396 604T346 630Q316
630 290 607T263 540Z" />
<glyph unicode="&apos;" glyph-name="quotesingle" horiz-adv-x="319" d="M107 648Q107 677 123 690T159 703T194 690T210 648Q210 615 197 399H121Q107 631 107 648Z" />
<glyph unicode="(" glyph-name="parenleft" horiz-adv-x="447" d="M90 250Q90 405 145 531T297 736Q316 750 331 750H359Q381 750 381 739Q381 735 360 716T310 660T250 572T199 435T178 250Q178 166 194 91T230 -31T280 -122T326 -182T359 -214Q362 -216 371
-225T381 -240Q381 -250 359 -250H332Q314 -250 298 -237Q193 -153 142 -24T90 250Z" />
<glyph unicode=")" glyph-name="parenright" horiz-adv-x="447" d="M65 -239Q65 -232 83 -217T134 -165T194 -76Q268 66 268 250Q268 319 258 381T231 490T195 574T154 640T116 685T86 715T70 729Q65 735 65 739Q65 750 83 750H114Q132 750 148 737Q253 653 304
524T356 250T305 -24T148 -237Q131 -251 114 -251Q112 -251 108 -251T101 -250H86Q65 -250 65 -239Z" />
<glyph unicode="*" glyph-name="asterisk" horiz-adv-x="575" d="M75 416Q75 434 89 444T174 487Q209 504 231 514Q225 516 217 520T179 538T107 572Q75 587 75 611Q75 628 86 640T113 652Q124 652 138 643T259 561Q247 709 247 711Q247 727 258 738T286 749Q300
749 313 740T326 709Q326 702 325 687T320 637T314 561Q439 647 449 650Q454 652 460 652H461Q475 651 487 640T499 611Q499 593 485 583T404 542Q367 525 343 514Q348 512 356 508T394 490T466 456Q499 441 499 417Q499 400 487 388T460 376Q449 376 431 387T314
466Q316 432 319 399T324 349T326 322Q326 304 318 294T303 281T287 278Q270 278 259 290T247 316Q247 318 259 466Q156 395 141 386T113 376Q99 376 87 387T75 416Z" />
<glyph unicode="+" glyph-name="plus" horiz-adv-x="894" d="M64 212T64 250T112 288H409V580Q409 633 447 633Q484 633 484 585V288H776Q829 288 829 250Q829 224 804 215Q795 212 777 212H484V-80Q484 -133 447 -133Q409 -133 409 -86V212H113Q64 212 64 250Z" />
<glyph unicode="," glyph-name="comma" horiz-adv-x="319" d="M92 67Q92 94 110 113T158 133Q194 133 216 100T238 9Q238 -42 219 -91T178 -166T146 -192Q137 -192 118 -172T99 -145Q99 -141 113 -124T144 -75T162 0Q124 1 108 22T92 67Z" />
<glyph unicode="-" glyph-name="hyphen" horiz-adv-x="383" d="M12 192V280H318V192H12Z" />
<glyph unicode="." glyph-name="period" horiz-adv-x="319" d="M92 67Q92 95 112 114T159 133T205 114T225 67T205 20T159 0Q130 0 111 20T92 67Z" />
<glyph unicode="/" glyph-name="slash" horiz-adv-x="575" d="M64 -212Q64 -206 73 -179L428 703Q445 749 473 749Q487 749 498 738T510 712Q510 702 502 684L146 -200Q146 -201 143 -209T138 -220T132 -230T125 -240T115 -246T101 -249Q87 -249 76 -238T64 -212Z" />
<glyph unicode="0" glyph-name="zero" horiz-adv-x="575" d="M44 342Q44 388 46 422T57 503T82 583T129 647T203 692Q241 705 286 705Q335 705 373 691T437 656T480 601T507 538T522 468T528 402T529 343Q529 298 527 265T516 186T491 108T445 46T373 3T287 -11Q240
-11 202 2T139 35T96 85T68 145T53 212T46 279T44 342ZM142 326Q143 278 145 247T158 172T189 106Q227 65 287 65Q351 65 388 111Q432 166 432 330V390Q432 426 431 451T421 513T399 573T356 613T287 630Q215 630 178 578Q144 529 142 380V326Z" />
<glyph unicode="1" glyph-name="one" horiz-adv-x="575" d="M105 560V636Q162 637 202 648T259 671T290 694T317 705H321Q333 705 339 700T346 689T347 672V75H490V0H111V75H255V594Q189 561 105 560Z" />
<glyph unicode="2" glyph-name="two" horiz-adv-x="575" d="M57 0Q57 0 57 57Q57 68 77 87T239 234Q246 240 278 268T322 307T357 344T390 388T409 431T418 483Q418 553 361 591T232 630Q168 630 140 561Q163 541 163 516Q163 493 148 478T110 463Q91 463 74 476T57
520Q57 593 118 649T272 705Q375 705 446 644T517 486Q517 454 506 424T484 374T442 325T398 284T342 240Q295 203 172 95H375L427 96Q433 116 442 172H517L492 0H57Z" />
<glyph unicode="3" glyph-name="three" horiz-adv-x="575" d="M47 151Q47 181 64 194T101 208Q124 208 139 193T155 154T137 112V110Q188 59 284 59Q361 59 393 99T426 197Q426 337 274 337H227Q202 337 197 341T191 363V375Q191 376 191 379T190 385Q190 404
198 409T224 415H244Q280 415 310 427Q346 441 371 474T397 551Q397 587 373 614T284 641H283Q212 640 171 610V609Q185 590 185 572Q185 549 169 535T132 520Q110 520 95 535T79 575Q79 633 136 668T285 705H286Q344 705 387 690T452 651T484 601T494 550Q494
448 383 375Q454 355 490 307T526 197Q526 114 466 52T286 -11Q185 -11 116 34T47 151Z" />
<glyph unicode="4" glyph-name="four" horiz-adv-x="575" d="M31 185Q31 185 31 245Q31 260 43 278L315 665Q326 681 329 685T339 692T358 695H394Q412 695 419 690T427 665V261H542V185H427V75H539V0H226V75H337V185H31ZM121 261H343V623Q332 565 200 374Q184
351 150 303Q131 275 121 261Z" />
<glyph unicode="5" glyph-name="five" horiz-adv-x="575" d="M57 152Q57 178 72 192T109 207T146 193T162 155Q162 133 144 115Q185 59 267 59Q333 59 376 94T419 215Q419 364 298 364Q252 364 223 350T179 316T160 296Q154 293 132 293H128Q115 293 110 294T100
302T96 326V674Q96 704 108 704Q113 704 136 696T198 680T284 671T370 679T433 696T459 704Q472 704 472 676V653Q472 640 468 635T447 623Q355 584 250 584Q203 584 172 590V400Q233 440 301 440Q398 440 457 378T517 215Q517 112 449 51T269 -11Q176 -11 117
37T57 152Z" />
<glyph unicode="6" glyph-name="six" horiz-adv-x="575" d="M47 345Q47 425 66 489T117 592T189 658T269 694T349 705Q420 705 458 672T497 588Q497 560 481 547T446 533Q425 533 410 547T394 584Q394 602 408 621V622Q381 641 349 641Q258 641 203 571T147 381Q219
471 339 471Q424 471 475 405T526 231Q526 165 509 124T455 50Q391 -11 290 -11Q175 -11 113 72Q47 160 47 345ZM150 250Q150 216 156 185T177 124T221 77T290 59Q361 59 396 104Q427 143 427 221Q427 224 427 232T428 245Q428 326 394 361T295 396Q232 396 191
354T150 250Z" />
<glyph unicode="7" glyph-name="seven" horiz-adv-x="575" d="M63 522L92 720H167Q170 703 178 699T216 695H238Q239 695 263 695T345 694L558 695V648Q558 642 558 638T555 629T551 623T545 615T539 607Q416 452 400 430Q362 375 340 304T313 179T308 79T304
25Q299 6 284 -2T255 -11Q245 -11 235 -8T214 10T203 49Q207 284 335 457Q338 461 342 466T354 481T372 504T403 543T448 600H210L153 599Q147 580 138 522H63Z" />
<glyph unicode="8" glyph-name="eight" horiz-adv-x="575" d="M47 179Q47 221 60 255T100 313T144 350T189 377Q169 389 156 398T122 426T90 473T79 534Q79 611 135 658T286 706Q374 706 434 665T494 541Q494 506 482 477T449 428T413 398T379 376Q380 375 396
366T418 353T438 340T461 322T480 303T499 279T512 253T523 221T526 185Q526 97 461 43T286 -11Q183 -11 115 37T47 179ZM134 180Q134 120 178 90T286 59Q366 59 402 92T439 169Q439 182 436 193T430 212T416 231T399 247T374 265T346 283T309 305T267 330Q221
314 191 291T151 244T137 206T134 180ZM160 553Q160 543 162 535T168 519T179 504T193 491T214 477T238 461T269 442T305 421Q413 464 413 541Q413 591 377 616T286 641Q220 641 190 615T160 553Z" />
<glyph unicode="9" glyph-name="nine" horiz-adv-x="575" d="M47 465Q47 578 118 644Q183 705 289 705Q455 705 506 530Q526 462 526 354Q526 271 507 205T458 100T389 34T312 -1T237 -11Q153 -11 115 24T76 107Q76 132 91 146T127 161Q149 161 164 147T179 110Q179
93 167 75Q194 59 237 59Q270 59 298 69T356 104T405 183T427 314Q350 223 234 223Q150 223 98 290Q68 328 58 368T47 465ZM145 440Q145 415 150 393T169 348T210 312T276 299Q343 299 383 342T423 447Q423 481 417 512T397 574T355 623T289 641Q218 641 180 596Q146
556 146 473V455Q146 454 146 449T145 440Z" />
<glyph unicode=":" glyph-name="colon" horiz-adv-x="319" d="M92 406Q92 434 112 453T159 472T205 453T225 406T205 359T159 339Q130 339 111 359T92 406ZM92 67Q92 95 112 114T159 133T205 114T225 67T205 20T159 0Q130 0 111 20T92 67Z" />
<glyph unicode=";" glyph-name="semicolon" horiz-adv-x="319" d="M92 406Q92 434 112 453T159 472T205 453T225 406T205 359T159 339Q130 339 111 359T92 406ZM92 67Q92 94 110 113T158 133Q194 133 216 100T238 9Q238 -42 219 -91T178 -166T146 -192Q137 -192
118 -172T99 -145Q99 -141 113 -124T144 -75T162 0Q124 1 108 22T92 67Z" />
<glyph unicode="&lt;" glyph-name="less" horiz-adv-x="894" d="M96 250Q96 255 97 260T101 269T106 275T114 281T120 286T128 290L134 293L734 604Q750 612 760 612Q775 612 786 601T797 574Q797 568 795 563T791 554T783 546T775 541T766 536T759 532L215 250Q222
247 234 240T252 230L759 -32Q760 -32 765 -35T773 -39T781 -45T789 -53T794 -63T797 -75Q797 -90 786 -101T760 -112Q749 -112 666 -69Q633 -52 612 -41L135 206Q126 211 123 213T111 220T100 233T96 250Z" />
<glyph unicode="=" glyph-name="equal" horiz-adv-x="894" d="M64 131Q64 138 66 145T79 161T109 169H784Q803 169 814 161T827 146T829 132Q829 94 780 94H114Q64 94 64 131ZM64 330T64 368T113 406H782Q801 406 812 398T826 383T829 368Q829 360 827 353T813
338T784 330H110Q64 330 64 368Z" />
<glyph unicode="&gt;" glyph-name="greater" horiz-adv-x="894" d="M96 -75Q96 -63 104 -53T116 -41T133 -32L678 250L640 269L133 532Q132 533 127 535T120 539T114 543T107 549T101 555T97 564T96 574Q96 589 107 600T133 612Q141 612 159 603L758 293L765 290Q772
286 774 285T782 279T790 271T794 262T797 250Q797 245 796 240T792 231T787 225T780 219T774 215T766 210L759 207L159 -104Q143 -112 133 -112Q118 -112 107 -101T96 -75Z" />
<glyph unicode="?" glyph-name="question" horiz-adv-x="543" d="M63 555Q63 615 117 657T259 700Q325 700 371 686T439 648T469 602T478 553Q478 500 446 464Q436 453 407 432T355 392T313 337T293 258V244Q293 224 289 219T263 214H241Q226 214 222 220T217
238V260Q217 408 336 490Q337 490 343 495T352 501T360 508T368 517T374 527T378 540T380 555Q380 597 349 611T267 625H264Q192 625 152 589Q166 568 166 553Q166 530 151 516T115 502Q93 502 78 516T63 555ZM188 67Q188 93 207 113T255 133Q282 133 301 115T321
67Q321 39 301 20T255 0Q226 0 207 20T188 67Z" />
<glyph unicode="@" glyph-name="at" horiz-adv-x="894" d="M63 347Q63 505 167 602T445 700H446Q622 700 726 602T830 347Q830 250 788 186T679 121Q628 121 599 174Q527 120 445 120Q343 120 280 182T217 348Q217 449 279 511T446 574Q511 574 561 547T638 472H651Q664
472 670 467T676 447V232Q676 197 703 197Q758 197 758 340Q758 475 672 550T448 625Q302 625 219 547T135 347Q135 310 143 274T175 200T232 134T323 88T452 70Q559 70 661 88T768 106H807Q828 106 828 96Q828 88 808 78Q638 -5 450 -5Q272 -5 168 91T63 347ZM304
347Q304 278 343 237T447 196Q509 196 548 230T588 309V381Q588 434 546 466T447 499Q383 499 344 458T304 347Z" />
<glyph unicode="A" glyph-name="A" horiz-adv-x="847" d="M40 0V75H125L370 666Q377 682 385 688T411 695H432Q454 695 461 688T479 656L720 75H805V0H565V75H618L564 206H260L206 75H259V0H40ZM292 282H532L429 537L412 586Q396 538 346 416T292 282Z" />
<glyph unicode="B" glyph-name="B" horiz-adv-x="807" d="M75 0V75H153V619H75V695H446Q522 695 576 678T658 632T697 576T709 517Q709 407 557 364Q633 353 687 309T742 191Q742 151 721 107T642 33Q578 0 468 0H75ZM245 75H441Q587 75 630 145Q644 168 644 194Q644
214 637 233T612 274T554 310T454 324H245V75ZM245 399H421Q524 399 569 435T614 516Q614 558 582 583T502 616Q482 619 442 619H245V399Z" />
<glyph unicode="C" glyph-name="C" horiz-adv-x="831" d="M63 348Q63 509 169 607T449 705Q578 705 677 620Q714 681 724 693T747 705Q766 705 766 682V458Q766 443 761 439T743 434Q742 434 740 434T738 435H736Q713 435 706 435T694 439T689 450T685 472T672
507Q651 553 603 591T478 630Q413 630 358 614T258 564T188 476T163 348Q163 283 183 232T234 150T309 100T393 73T480 65Q562 65 622 108T689 221Q691 239 695 243T717 248H740Q755 248 760 244T765 226Q765 138 679 64T448 -11Q387 -11 331 3T226 46T141 117T84
218T63 348Z" />
<glyph unicode="D" glyph-name="D" horiz-adv-x="871" d="M74 0V75H152V619H74V695H434Q612 695 709 599Q806 502 806 342Q806 196 722 105T494 2Q474 0 434 0H74ZM247 75H418Q493 78 525 86Q708 131 708 341Q708 619 417 619H247V75Z" />
<glyph unicode="E" glyph-name="E" horiz-adv-x="733" d="M73 0V75H151V616H73V692H644L669 461H593Q586 520 583 545T573 588T560 607T538 612Q503 616 379 616H248V397H305Q384 397 397 401T413 431Q414 448 414 482V490H489V228H414V237Q414 289 411 303T391
319Q374 322 305 322Q296 322 277 322T248 321V75H402Q496 75 534 78T581 86T597 108Q607 137 625 257H701L663 0H73Z" />
<glyph unicode="F" glyph-name="F" horiz-adv-x="701" d="M73 0V75H151V616H73V692H628L653 461H578Q563 590 550 603T386 616H248V384Q257 384 275 384T303 383Q378 383 391 387T406 419Q408 457 408 477H483V215H408Q408 283 403 294T364 307Q362 307 360 307Q341
308 303 308H248V75H346V0H73Z" />
<glyph unicode="G" glyph-name="G" horiz-adv-x="899" d="M63 347Q63 509 169 607T449 705Q578 705 677 620Q714 681 724 693T747 705Q766 705 766 682V458Q766 443 761 439T743 434Q742 434 740 434T738 435H735Q709 435 702 437T692 443T687 465T674 504Q654
550 605 590T479 630Q340 630 252 560T163 348Q163 226 230 156T414 69Q443 65 503 65Q574 65 610 74T657 96T668 137V215H524V290H846V215H766V32Q766 2 754 2Q741 2 705 40Q641 -11 458 -11Q357 -11 279 19T155 101T86 215T63 347Z" />
<glyph unicode="H" glyph-name="H" horiz-adv-x="889" d="M73 0V75H151V619H73V695H326V619H248V399H640V619H562V695H815V619H738V75H815V0H562V75H640V324H248V75H326V0H73Z" />
<glyph unicode="I" glyph-name="I" horiz-adv-x="400" d="M69 0V75H151V619H69V695H330V619H249V75H330V0H69Z" />
<glyph unicode="J" glyph-name="J" horiz-adv-x="583" d="M66 113Q66 138 82 154T120 170T158 155T174 116Q174 100 163 81Q198 65 249 65Q351 65 351 159V619H250V695H504V619H446V156Q446 74 392 32T251 -11Q172 -11 119 23T66 113Z" />
<glyph unicode="K" glyph-name="K" horiz-adv-x="879" d="M75 0V75H153V619H75V695H323V619H245V318L599 619H583V695H814V619H726Q714 619 710 617T683 596L468 413V412L741 75H830V0H607V75H633L404 358L263 239Q250 227 248 222T245 204V75H323V0H75Z" />
<glyph unicode="L" glyph-name="L" horiz-adv-x="669" d="M73 0V75H151V619H73V695H346V619H248V75H368Q438 75 469 78T510 88T525 111Q534 142 546 257H621L596 0H73Z" />
<glyph unicode="M" glyph-name="M" horiz-adv-x="1081" d="M80 0V75H158V619H80V695H246Q264 695 272 690T289 666L516 149Q537 102 540 94L564 148L790 665Q798 683 807 689T834 695H1000V619H922V75H1000V0H760V75H838V546L837 615Q832 603 822 581T810 553L580
28Q572 10 564 5T536 0H530Q509 0 501 7T482 39L232 609V75H310V0H80Z" />
<glyph unicode="N" glyph-name="N" horiz-adv-x="889" d="M75 0V75H153V619H75V695H227Q241 695 247 692T263 675L660 159V619H582V695H812V619H734V34Q734 23 733 17T726 6T707 0H689Q675 0 669 3T653 20L227 573V75H305V0H75Z" />
<glyph unicode="O" glyph-name="O" horiz-adv-x="853" d="M63 342Q63 506 162 605T427 705Q591 705 689 606T788 342Q788 183 689 86T424 -11Q261 -11 162 85T63 342ZM163 360Q163 225 233 149T425 73Q549 73 618 149T688 360Q688 490 616 557T426 625Q308 625
236 558T163 360Z" />
<glyph unicode="P" glyph-name="P" horiz-adv-x="775" d="M74 0V75H152V619H74V695H424Q546 695 615 652Q710 594 710 483Q710 447 698 414T656 347T568 293T427 272H249V75H327V0H74ZM247 347H401Q468 347 514 358T587 406Q610 438 610 483Q610 521 595 548T559
588T507 609T456 618T410 619H247V347Z" />
<glyph unicode="Q" glyph-name="Q" horiz-adv-x="853" d="M63 343Q63 506 161 605T426 705Q586 705 687 608T788 342Q788 216 727 131T568 12Q588 -48 611 -71T665 -94Q699 -94 725 -72T758 -10Q760 17 776 17Q783 17 788 10T794 -8Q794 -33 788 -61T768 -121T726
-173T659 -194Q644 -194 632 -191T609 -183T589 -169T573 -153T560 -131T549 -109T539 -83T532 -57T524 -29T517 -2Q463 -11 425 -11Q260 -11 162 86T63 343ZM161 343Q161 249 199 183T308 91Q314 133 348 155T425 177Q497 177 539 90Q610 116 650 181T690 342Q690
477 619 550T425 624Q304 624 233 551T161 343ZM386 85Q386 70 423 70H427Q453 70 483 75Q460 101 425 101Q386 101 386 85Z" />
<glyph unicode="R" glyph-name="R" horiz-adv-x="839" d="M74 0V75H152V619H74V695H377Q575 695 653 607Q694 560 694 502Q694 452 663 409T572 341V340Q620 309 635 271T651 185Q651 179 651 169T650 153Q650 111 663 92Q681 65 721 65Q738 65 747 73T759 95T764
110Q770 118 789 118H806Q834 118 834 94Q834 59 805 24T721 -11Q653 -11 607 19T553 107Q551 129 551 140V201Q551 235 539 254Q502 310 375 310H247V75H324V0H74ZM247 385H375Q458 385 509 400T582 455Q594 478 594 502Q594 562 536 593Q487 619 381 619H247V385Z"
/>
<glyph unicode="S" glyph-name="S" horiz-adv-x="639" d="M63 13V210Q64 224 69 227T87 231H108Q130 231 135 224Q137 221 138 204T148 164T175 122Q231 65 347 65Q420 65 453 100T487 181Q487 217 466 244T416 286Q395 296 307 313T194 341Q141 362 102 407T63
517Q63 597 122 651T287 705Q395 705 471 637Q488 671 498 686T511 703T523 705Q542 705 542 681V485Q541 470 535 467T500 463H493Q476 463 470 470Q469 472 465 491T451 533T423 580T370 619T286 635Q224 635 187 606T150 530Q150 492 177 466T238 430Q255 425
330 409T426 387Q485 368 529 317T574 193Q574 107 516 48T347 -11Q216 -11 133 55Q109 9 102 -1T82 -11Q63 -11 63 13Z" />
<glyph unicode="T" glyph-name="T" horiz-adv-x="789" d="M41 458L58 689H730L747 458H671Q667 516 664 543T657 586T648 604T632 609Q606 614 522 614H443V75H553V0H235V75H345V614H241Q149 614 137 601Q126 589 116 458H41Z" />
<glyph unicode="U" glyph-name="U" horiz-adv-x="868" d="M73 619V695H326V619H248V243Q248 65 441 65Q641 65 641 243V619H563V695H794V619H717V244Q717 171 691 119T621 40T532 1T439 -11Q400 -11 363 -5T286 20T217 65T170 139T151 243V619H73Z" />
<glyph unicode="V" glyph-name="V" horiz-adv-x="847" d="M25 619V695H262V619H211L405 178L434 109L464 182L656 619H605V695H821V619H739L477 28Q469 11 460 6T434 0H419Q394 0 385 6T364 39L107 619H25Z" />
<glyph unicode="W" glyph-name="W" horiz-adv-x="1167" d="M23 619V695H248V619H193L311 283Q362 131 366 109Q375 158 539 619H476V695H701V619H645L758 298Q813 133 819 109L829 147L878 295L992 619H928V695H1142V619H1068L857 28Q851 11 843 6T817 0H801Q782
0 774 7T758 36L576 545Q553 447 404 27Q398 11 390 6T365 0H347Q340 0 335 0T325 4T319 8T314 15T310 22T306 32T303 42L97 619H23Z" />
<glyph unicode="X" glyph-name="X" horiz-adv-x="847" d="M35 0V75H138L361 360V361L152 619H52V695H296V619H270L420 435L565 619H533V695H764V619H677Q665 619 660 616T642 595L469 374L711 75H811V0H567V75H592L410 300L234 75H265V0H35Z" />
<glyph unicode="Y" glyph-name="Y" horiz-adv-x="847" d="M21 619V695H267V619H237L436 356L633 619H604V695H825V619H728L483 294Q474 282 473 277T471 253V75H548V0H298V75H376V252Q376 271 375 276T364 293L118 619H21Z" />
<glyph unicode="Z" glyph-name="Z" horiz-adv-x="703" d="M63 29V42Q63 46 63 49T64 55T65 60T66 64T69 68T71 71T74 75T78 80L502 619H379Q251 619 211 613Q191 610 182 601T165 561T155 464H79L89 695H607Q627 695 632 688T638 657Q638 638 622 618L201 81H338Q472
81 513 87Q534 90 543 101T558 148T569 268H644L629 0H94Q77 0 70 5T63 29Z" />
<glyph unicode="[" glyph-name="bracketleft" horiz-adv-x="319" d="M114 -250V750H293V675H204V-175H293V-250H114Z" />
<glyph unicode="\" glyph-name="backslash" horiz-adv-x="575" d="M64 712Q64 728 75 738T101 749Q127 749 142 711L498 -175Q510 -204 510 -212Q510 -226 499 -237T472 -249Q462 -249 456 -246T443 -234T436 -222T429 -206L72 681Q64 699 64 712Z" />
<glyph unicode="]" glyph-name="bracketright" horiz-adv-x="319" d="M25 -175H115V675H25V750H204V-250H25V-175Z" />
<glyph unicode="^" glyph-name="asciicircum" horiz-adv-x="703" d="M128 538L351 639L574 538L543 469Q356 550 351 550T159 469L128 538Z" />
<glyph unicode="_" glyph-name="underscore" horiz-adv-x="894" d="M96 -311Q96 -280 135 -280H756Q796 -280 796 -311Q796 -341 756 -341H135Q96 -341 96 -311Z" />
<glyph unicode="`" glyph-name="grave" horiz-adv-x="575" d="M120 648Q120 666 133 681T165 696Q176 696 192 687T269 637Q311 609 338 591L300 526Q295 528 284 534T240 558T158 602Q120 621 120 648Z" />
<glyph unicode="a" glyph-name="a" horiz-adv-x="562" d="M46 140Q46 182 76 213T156 259T258 282T368 289V312Q368 365 328 388Q299 405 239 405Q213 405 185 403Q184 373 168 360T133 347Q112 347 97 361T82 399Q82 480 247 480Q280 480 308 476T365 460T414
430T447 382T460 313V104Q461 87 473 82T529 75Q544 75 551 70T558 47V30Q558 12 552 6T529 0H501Q433 0 408 15T376 59Q302 -6 181 -6Q134 -6 102 20T58 78T46 140ZM139 142Q139 116 165 93T241 70Q260 70 279 73T319 86T354 114T368 159V233Q301 232 253 223T182
199T149 171T139 142Z" />
<glyph unicode="b" glyph-name="b" horiz-adv-x="644" d="M42 608V684L207 695V425Q300 478 420 478Q504 478 554 413T605 238Q605 126 546 61T388 -5Q283 -5 200 63L192 0H117V570Q117 594 106 601T54 608H42ZM209 177Q210 141 250 106T346 70Q507 70 507 237Q507
402 357 402Q304 402 257 378T209 318V177Z" />
<glyph unicode="c" glyph-name="c" horiz-adv-x="511" d="M38 237Q38 269 45 300T70 365T116 423T190 465T295 481Q327 481 349 479T402 470T448 445T465 400Q465 377 450 362T414 347Q398 347 382 358T363 398H362Q322 400 302 400Q136 400 136 238Q136 192 153
158T197 107T253 83T313 75Q348 75 368 92T397 130T409 153Q414 156 442 156H455Q477 156 477 143Q477 138 472 123T453 86T419 44T364 10T285 -5Q175 -5 107 60T38 237Z" />
<glyph unicode="d" glyph-name="d" horiz-adv-x="644" d="M38 236Q38 340 90 409T241 478Q354 478 437 427V572Q436 596 424 602T368 608H362V684L526 695V114Q526 89 537 82T589 75H601V0L434 -5V59Q345 -5 238 -5Q203 -5 170 7T107 45T57 121T38 236ZM136 235Q136
70 284 70Q344 70 389 106T434 180V318Q434 339 420 354Q376 402 298 402Q136 402 136 235Z" />
<glyph unicode="e" glyph-name="e" horiz-adv-x="512" d="M31 239Q31 347 97 413T271 480Q330 480 373 460T438 407T469 337T479 261Q479 244 473 239T451 232H129Q130 219 131 212T136 186T148 155T169 127T201 100T248 83T312 76Q346 76 367 90T398 125T411
146Q417 151 432 151H441Q477 151 477 132Q477 119 465 98T432 53T371 12T285 -5Q175 -5 103 60T31 239ZM134 296H395Q377 405 271 405Q157 405 134 296Z" />
<glyph unicode="f" glyph-name="f" horiz-adv-x="351" d="M36 397V472H119V533Q119 585 143 620Q199 700 344 700Q380 700 394 677T408 629T394 591T358 577Q314 577 308 625Q206 624 206 536V472H334V397H209V75H302V0H44V75H119V397H36Z" />
<glyph unicode="g" glyph-name="g" horiz-adv-x="575" d="M31 -64Q31 5 101 40Q78 77 78 115Q78 158 105 196Q66 243 66 307Q66 383 117 430T255 478Q320 478 373 445Q424 483 484 483Q515 483 536 466T557 422Q557 402 544 390T513 378Q485 378 471 408L414 405Q443
357 443 307Q443 230 392 183T255 135Q197 135 142 164Q137 150 137 135Q137 109 154 95T200 80H308Q346 80 373 78T439 66T502 32T538 -30Q542 -45 542 -63Q542 -86 530 -108T492 -151T412 -186T286 -200Q149 -200 90 -158T31 -64ZM115 -62Q115 -94 160 -113T281
-133H283Q349 -133 391 -121T445 -94T458 -64Q458 -5 296 -5H201Q156 -5 136 -21Q115 -38 115 -62ZM156 308Q156 203 254 203Q353 203 353 305Q353 410 255 410Q156 410 156 308Z" />
<glyph unicode="h" glyph-name="h" horiz-adv-x="644" d="M46 0V75H121V573Q120 595 109 601T57 608H46V684L211 695V403Q278 478 377 478Q418 478 448 468T494 443T519 405T530 362T532 316V75H607V0H365V75H440V313Q440 333 438 345T425 373T392 395T332 402Q286
402 250 371T213 265V75H288V0H46Z" />
<glyph unicode="i" glyph-name="i" horiz-adv-x="325" d="M47 0V75H122V352Q122 377 112 384T59 391H51V467L212 478V75H279V0H47ZM86 628Q86 654 105 674T152 695Q179 695 198 676T218 628Q218 600 198 581T152 562Q123 562 105 581T86 628Z" />
<glyph unicode="j" glyph-name="j" horiz-adv-x="357" d="M-41 -120Q-41 -97 -26 -83T11 -69Q30 -69 46 -81T62 -124Q66 -124 73 -124T83 -125Q161 -125 161 -37V356Q160 378 148 384T91 391H79V467L250 478V-15Q250 -18 250 -25T251 -37Q251 -83 231 -117T178
-168T116 -192T58 -200Q15 -200 -13 -177T-41 -120ZM117 602T117 628T136 674T183 695Q210 695 230 676T250 628Q250 600 230 581T184 562Q155 562 136 582Z" />
<glyph unicode="k" glyph-name="k" horiz-adv-x="612" d="M45 0V75H120V573Q119 595 108 601T56 608H45V684L205 695V261L358 397H327V472H567V397H481Q469 397 459 390T415 352T343 288Q344 287 419 190T500 87Q510 75 522 75H593V0H382V75H407L284 234H283Q261
213 241 196T215 174T206 163T202 147V75H277V0H45Z" />
<glyph unicode="l" glyph-name="l" horiz-adv-x="325" d="M47 0V75H122V573Q121 595 110 601T58 608H47V684L212 695V75H287V0H47Z" />
<glyph unicode="m" glyph-name="m" horiz-adv-x="964" d="M46 0V75H121V352Q121 378 110 384T55 391H46V467L208 478V399Q275 478 376 478Q415 478 443 471T486 449T510 423T524 395Q592 478 696 478Q739 478 769 467T816 441T840 401T850 359T852 315V75H927V0H685V75H760V313Q760
359 740 380T655 402Q606 402 570 371T533 265V75H608V0H366V75H441V313Q441 357 421 379T335 402Q285 402 249 371T213 265V75H288V0H46Z" />
<glyph unicode="n" glyph-name="n" horiz-adv-x="644" d="M46 0V75H121V352Q121 378 110 384T55 391H46V467L208 478V399Q275 478 377 478Q420 478 450 467T496 441T520 401T530 359T532 315V75H607V0H365V75H440V313Q440 333 438 345T425 373T392 395T332 402Q286
402 250 371T213 265V75H288V0H46Z" />
<glyph unicode="o" glyph-name="o" horiz-adv-x="575" d="M31 232Q31 344 101 412T287 480Q402 480 472 412T542 232Q542 125 473 60T286 -5Q170 -5 101 60T31 232ZM129 245Q129 75 286 75Q374 75 409 121T444 245Q444 405 288 405Q129 405 129 245Z" />
<glyph unicode="p" glyph-name="p" horiz-adv-x="644" d="M42 -119H117V357Q116 379 105 385T53 391H42V467L207 478V425Q299 478 430 478Q512 478 558 412T605 239Q605 117 543 56T389 -5Q291 -5 209 55V-119H284V-195H42V-119ZM209 176Q209 141 249 106T345
70Q416 70 461 114T507 236Q507 310 466 353T355 397Q302 397 264 378T213 337Q209 331 209 316V176Z" />
<glyph unicode="q" glyph-name="q" horiz-adv-x="612" d="M38 236Q38 348 94 413T244 478Q357 478 445 408L453 478H526V-119H601V-195H359V-119H434V62Q347 -5 240 -5Q149 -5 94 60T38 236ZM136 235Q136 160 177 115T286 70Q345 70 383 104T434 171Q437 180 437
199V282Q437 325 395 361T298 397Q229 397 183 355T136 235Z" />
<glyph unicode="r" glyph-name="r" horiz-adv-x="454" d="M42 0V75H117V352Q117 378 106 384T51 391H42V467L201 478V433L202 398Q255 478 334 478H335Q369 478 395 457T421 405Q421 383 406 369T370 355Q330 355 321 401Q265 388 236 343T206 227Q206 224 206
216T207 205V75H300V0H42Z" />
<glyph unicode="s" glyph-name="s" horiz-adv-x="454" d="M38 21V157Q39 170 44 174T67 178Q80 178 88 178T101 177T109 172T113 167T116 157T120 145Q147 70 230 70Q286 70 308 89T330 135Q330 154 320 167T291 187T254 199T209 208T167 216Q115 229 77 261T38
347Q38 370 45 391T71 433T128 467T222 480Q284 480 328 453H329Q331 455 335 459T340 465T345 470T350 474T355 477T361 479T367 480Q379 480 382 475T386 456V346Q385 334 380 330T358 326Q329 326 319 330T310 340T308 360T290 387Q265 411 215 411Q123 411
123 358Q123 338 141 325T182 307T239 296T291 285Q341 271 378 235T415 143Q415 118 408 95T382 47T325 9T231 -6Q158 -6 104 39Q102 36 98 30T91 22T86 15T81 8T77 4T72 0T68 -2T63 -4T57 -5Q48 -5 44 -1T39 7T38 21Z" />
<glyph unicode="t" glyph-name="t" horiz-adv-x="447" d="M21 397V472Q128 479 130 675H206V472H363V397H206V159Q206 105 226 87Q239 76 255 76Q276 76 292 95T308 164Q308 168 308 175T307 187H383V162Q383 115 365 80T319 28T266 3T217 -5Q140 -5 120 82Q113
112 113 161V397H21Z" />
<glyph unicode="u" glyph-name="u" horiz-adv-x="644" d="M46 391V467L213 478V132Q213 95 228 83T303 70Q360 70 400 96T440 176V355Q440 379 428 385T374 391H365V467L532 478V112Q532 88 545 82T598 75H607V0L443 -5V63Q367 -5 242 -5Q207 -5 183 5T147 27T129
63T122 99T121 137V354Q121 379 109 385T50 391H46Z" />
<glyph unicode="v" glyph-name="v" horiz-adv-x="612" d="M25 397V472H245V397H195L295 150L313 95Q321 132 431 397H381V472H587V397H509L358 31Q350 13 342 7T316 0H297Q282 0 274 5T262 15T252 36L103 397H25Z" />
<glyph unicode="w" glyph-name="w" horiz-adv-x="836" d="M23 397V472H238V397H185L243 228L263 164L275 117L280 95Q284 142 374 397H313V472H520V397H466Q560 119 565 95Q569 119 589 179T634 311T664 397H603V472H812V397H740L612 32Q605 13 598 7T574 0H554Q536
0 529 6T514 30L411 323Q399 251 321 30Q315 12 307 6T280 0H264Q246 0 238 7T222 35L95 397H23Z" />
<glyph unicode="x" glyph-name="x" horiz-adv-x="612" d="M20 0V75H103Q116 76 125 84Q132 91 255 241V242Q248 249 140 379Q130 391 126 394T109 397H27V472H247V397H225L304 302L381 397H357V472H573V397H485Q476 397 463 382T398 304Q369 268 351 245L477 95Q493
77 500 76Q504 75 509 75H591V0H371V75H393L302 185L212 75H235V0H20Z" />
<glyph unicode="y" glyph-name="y" horiz-adv-x="612" d="M25 -116Q25 -93 39 -80T75 -66Q92 -66 108 -78T124 -119V-125Q143 -125 159 -122T187 -114T208 -102T224 -87T236 -69T245 -52T253 -33T260 -16Q265 -4 265 0Q265 6 259 19L103 397H25V472H245V397H195L295
150L313 95Q322 130 431 397H381V472H587V397H509L333 -29Q330 -39 326 -49T305 -89T267 -141T210 -181T132 -200Q89 -200 57 -176T25 -116Z" />
<glyph unicode="z" glyph-name="z" horiz-adv-x="512" d="M31 28Q31 28 31 43Q31 48 32 52T33 60T37 67T41 72T46 79T52 85L322 397H259Q156 397 142 390Q132 384 128 359Q128 357 128 356Q124 322 122 286H47L57 472H428Q443 472 450 467T458 457T459 438T457
417T452 406T438 391L169 81H256Q342 81 358 87T379 127Q381 142 386 210H462L447 0H64Q52 0 47 1T36 8T31 28Z" />
<glyph unicode="{" glyph-name="braceleft" horiz-adv-x="575" d="M58 237Q58 237 58 264Q58 282 65 285T101 289T160 302Q189 312 207 326T232 357T240 382T241 406V610Q241 624 241 631T246 655T260 684T288 710T335 733Q384 750 466 750H495Q508 750 512 745T516
725V699Q516 682 510 679T488 675H476Q389 675 361 660T333 614V427Q333 424 333 417T334 407Q334 385 331 370T317 330T278 286T205 250Q242 237 268 220T306 187T325 151T332 120T333 93V-115Q333 -134 339 -144T381 -165T486 -175H492Q507 -175 511 -179T516
-198V-226Q516 -242 511 -246T492 -250H463Q406 -250 364 -241T299 -219T262 -185T245 -149T241 -112V103Q241 142 215 167T157 200T97 210T66 215Q58 220 58 237Z" />
<glyph unicode="|" glyph-name="bar" horiz-adv-x="319" d="M129 -209V705Q129 749 159 749T189 710V-205Q189 -249 159 -249T129 -209Z" />
<glyph unicode="}" glyph-name="braceright" horiz-adv-x="575" d="M58 -199Q58 -187 61 -182T68 -176T82 -175Q176 -174 208 -162T241 -114V93Q241 115 243 130T257 169T296 214T369 250Q332 262 306 280T268 313T249 349T242 380T241 407V615Q241 650 210 661T90
675Q78 675 74 675T65 678T60 684T58 698V726Q58 740 62 745T81 750H111Q168 750 210 741T276 719T312 685T329 649T333 612V402Q333 346 383 316Q413 298 442 293T485 289T507 285T516 259V235Q516 221 511 217T495 212T463 210T415 198Q386 188 368 174T343 143T335
118T333 94V-110Q333 -124 333 -131T328 -155T315 -184T287 -210T240 -233Q191 -250 106 -250H79Q66 -249 62 -244T58 -225V-199Z" />
<glyph unicode="~" glyph-name="asciitilde" horiz-adv-x="703" d="M95 564Q101 571 119 590T144 618T167 641T192 663T215 678T242 690T268 694Q299 694 351 660T433 625Q455 625 478 637T513 660T550 695L605 643Q598 635 577 612T548 581T521 556T492 532T464
519T433 513Q402 513 351 548T268 583Q246 583 222 570T186 546T150 513L95 564Z" />
</font>
</defs>
</svg>
