<?xml version="1.0" standalone="no"?> <!DOCTYPE svg PUBLIC "-//W3C//DTD SVG 1.0//EN" "http://www.w3.org/TR/2001/REC-SVG-20010904/DTD/svg10.dtd" > <svg xmlns="http://www.w3.org/2000/svg" width="100%" height="100%">
<defs >
<font id="cmuntt" horiz-adv-x="525" ><font-face
    font-family="CMU Typewriter Text"
    units-per-em="1000"
    panose-1="2 0 6 9 0 0 0 0 0 0"
    ascent="827"
    descent="-233"
    alphabetic="0" />
<missing-glyph d="M10 10V765H515V10H10ZM70 112L232 388L70 663V112ZM105 70H420L262 337L105 70ZM105 705L262 438L420 705H105ZM292 388L455 112V663L292 388Z" />
<glyph unicode=" " glyph-name="space" />
<glyph unicode="!" glyph-name="exclam" d="M199 63Q199 87 217 106T262 125Q287 125 305 107T324 63Q324 39 307 20T262 0Q237 0 218 18T199 63ZM199 548V557Q199 588 219 605T262 622Q286 622 305 605T324 557L312 236Q311 220 304 212T291 203T275 202H245Q238
202 232 203T223 208T217 215T214 223T212 231T212 240T211 247L199 548Z" />
<glyph unicode="&quot;" glyph-name="quotedbl" d="M129 575Q129 597 142 609T174 621Q191 621 204 609T218 575L206 368Q203 335 186 330Q181 328 174 328Q146 328 142 365Q140 394 137 446T132 535T129 575ZM305 579Q305 596 318 608T350 621Q365 621 379 610T394
575Q394 572 392 536T386 449T381 368Q380 356 379 350T371 336T349 328Q318 328 318 365Q315 412 312 467T307 548T305 579Z" />
<glyph unicode="#" glyph-name="numbersign" d="M35 167T35 198T75 229H132L152 382H72Q35 382 35 414Q35 426 45 435T73 444H160L161 445Q161 446 165 480T175 549T181 588Q188 610 210 610Q223 610 231 602T240 581Q240 574 238 558T232 508T223 444H339L340
445Q340 446 344 480T353 549T359 588Q366 610 389 610Q401 610 410 602T419 581Q419 574 417 558T411 508T402 444H451Q489 444 489 413Q489 395 472 386Q465 382 443 382H393L372 229H452Q489 229 489 198T452 167H364Q359 132 355 95T348 41T343 19Q335 0 315
0Q303 0 294 9T284 32Q284 38 286 54T293 101T302 167H185Q180 132 176 95T169 41T164 19Q156 0 136 0Q124 0 115 9T105 32Q105 38 107 54T114 101T123 167H74Q35 167 35 198ZM194 229H310L331 382H214L194 229Z" />
<glyph unicode="$" glyph-name="dollar" d="M58 168Q58 194 72 205T102 216Q121 216 134 204T147 172Q147 160 141 150T135 134Q135 127 139 115T168 84T231 58V288Q176 299 139 320T85 368T64 413T58 451Q58 506 101 554T231 615V653Q231 662 231 665T234 677T243
690T262 694Q293 694 293 654V615Q373 606 419 566T466 455Q466 430 452 419T421 407Q403 407 390 419T377 452Q377 459 379 465T383 475T388 482L391 485Q369 544 293 553V347Q378 333 422 282T466 172Q466 110 420 59T293 -3V-42Q293 -83 262 -83T231 -43V-4Q153
2 106 50T58 168ZM123 456Q123 425 150 398T231 360V552Q182 545 153 517T123 456ZM293 59Q344 68 372 100T401 167T374 233T293 275V59Z" />
<glyph unicode="%" glyph-name="percent" d="M35 561Q35 617 60 655T122 694Q158 694 183 656T209 560Q209 504 184 466T122 427Q86 427 61 465T35 561ZM87 -48Q87 -41 93 -26L366 663Q379 694 402 694Q417 694 427 684T437 659Q437 652 431 637L157 -54Q146 -83
122 -83Q108 -83 98 -73T87 -48ZM91 561Q91 530 101 510T122 489T142 509T153 561Q153 590 143 611T122 632T101 611T91 561ZM315 -6T315 50T340 144T402 183T464 145T489 50T464 -44T402 -83T340 -45ZM371 80T371 50T381 0T402 -21T422 -1T433 50T423 100T402
121T382 101Z" />
<glyph unicode="&amp;" glyph-name="ampersand" d="M28 137Q28 198 63 242Q64 242 79 258T111 293T131 315Q103 399 103 477Q103 547 134 584T207 622Q255 622 277 581T299 485Q299 403 198 298Q215 252 272 160Q300 215 359 370Q347 370 340 371T326 379T318
401Q318 431 358 431H450Q462 431 468 430T482 422T490 400Q490 370 450 370H419L359 214Q334 151 308 108Q352 50 392 50Q426 50 431 107Q431 138 459 138Q463 138 467 137T479 128T487 105Q487 63 462 26T392 -11Q334 -11 275 59Q218 -11 151 -11Q96 -11 62 33T28
137ZM97 140Q97 123 101 105T118 68T152 50Q199 50 239 108Q222 131 195 180Q165 230 155 252Q117 210 107 192T97 140ZM159 477Q159 419 175 364Q243 440 243 485Q243 492 242 501T238 526T227 551T207 561Q188 561 174 539T159 477Z" />
<glyph unicode="&apos;" glyph-name="quotesingle" d="M217 575Q217 596 230 608T262 621T293 609T306 575Q306 572 304 536T298 449T293 368Q293 367 293 364T292 358T292 352T290 346T288 341T284 336T278 332T271 329T262 328Q255 328 250 329T242 334T237
340T233 347T232 354T230 360V365Q228 394 225 446T220 535T217 575Z" />
<glyph unicode="(" glyph-name="parenleft" d="M173 306Q173 378 194 444T246 554T311 631T370 679T406 694Q423 694 430 685T437 666Q437 659 434 654T428 646T414 636Q351 593 311 532T256 417T242 306Q242 213 283 125T412 -23Q423 -31 427 -33T434 -41T437
-54Q437 -63 430 -72T406 -82Q386 -82 339 -44T254 47Q173 163 173 306Z" />
<glyph unicode=")" glyph-name="parenright" d="M88 -54Q88 -39 111 -24Q203 38 243 127T283 306Q283 338 278 372T256 455T201 553T104 641Q88 651 88 666Q88 675 95 684T119 694Q139 694 186 656T271 565Q352 449 352 306Q352 234 331 168T279 58T214 -19T155
-67T119 -82Q103 -82 96 -73T88 -54Z" />
<glyph unicode="*" glyph-name="asterisk" d="M68 214Q68 223 72 230T80 239T93 247L201 306L92 365Q68 378 68 397Q68 409 77 419T101 430Q110 430 124 421L232 358Q229 397 229 479Q229 521 262 521T295 479Q295 397 292 358L416 430Q456 430 456 397Q456 379
431 364L323 305Q330 301 357 287T408 261T442 241Q456 234 456 214Q456 202 447 192T423 181Q413 181 386 197Q301 248 292 253Q295 214 295 132Q295 90 262 90T229 132Q229 214 232 253L108 181Q68 181 68 214Z" />
<glyph unicode="+" glyph-name="plus" d="M37 306Q37 337 77 337H231V489Q231 503 233 509Q240 530 262 530Q293 530 293 489V337H447Q486 337 486 306T449 275H293V122Q293 109 291 103Q284 81 262 81T233 103Q231 109 231 122V275H80Q64 275 60 276Q37 283 37 306Z" />
<glyph unicode="," glyph-name="comma" d="M180 -107Q180 -87 208 -79Q267 -59 282 3Q272 0 262 0Q236 0 218 17T200 63Q200 88 217 106T263 125Q297 125 321 97T346 25Q346 -47 297 -93T212 -139Q200 -139 190 -129T180 -107Z" />
<glyph unicode="-" glyph-name="hyphen" d="M87 186T87 216T122 246H403Q436 246 436 216Q436 185 401 185H120Q87 186 87 216Z" />
<glyph unicode="." glyph-name="period" d="M199 63Q199 87 217 106T262 125Q287 125 305 107T324 63Q324 39 307 20T262 0Q237 0 218 18T199 63Z" />
<glyph unicode="/" glyph-name="slash" d="M58 -53Q58 -44 67 -26L404 669Q418 694 435 694Q447 694 456 686T465 664Q465 656 458 640L121 -57Q107 -83 89 -83Q77 -83 68 -75T58 -53Z" />
<glyph unicode="0" glyph-name="zero" d="M50 306Q50 440 113 531T262 622Q347 622 410 532T474 305Q474 171 411 80T262 -11Q177 -11 114 79T50 306ZM119 316Q119 206 161 128T262 50T363 128T405 316Q405 423 362 492T262 561T162 492T119 316Z" />
<glyph unicode="1" glyph-name="one" d="M105 469Q105 498 142 500Q210 507 251 598Q261 622 281 622Q311 622 311 581V61H402Q414 61 420 60T434 52T442 30Q442 0 402 0H151Q111 0 111 30Q111 44 118 51T132 60T151 61H242V483Q191 439 138 439Q105 439 105 469Z" />
<glyph unicode="2" glyph-name="two" d="M52 31Q52 45 67 58L288 244Q403 340 403 427Q403 490 357 525T244 561Q203 561 171 540T127 484Q141 473 141 452Q141 432 128 420T97 407Q81 407 67 418T52 455Q52 521 107 571T249 622Q343 622 407 569T472 427Q472
324 363 227Q339 205 264 143T165 61H403Q403 79 404 86T413 101T438 108Q461 108 466 98T472 67V41Q472 17 464 9T432 0H93Q52 0 52 31Z" />
<glyph unicode="3" glyph-name="three" d="M44 136Q44 159 57 171T89 183T120 170T133 139Q133 120 121 108Q138 77 181 64T264 50Q329 50 370 87T411 174Q411 222 371 260T261 299H215Q203 299 197 300T183 308T175 330Q175 350 187 355T247 363Q307 366 340
393Q382 427 382 480Q382 514 349 537T264 561Q184 561 153 530Q162 521 162 503Q162 483 149 471T118 458T87 470T73 505Q73 558 123 590T263 622Q346 622 398 581T451 481Q451 439 430 400T367 334Q418 311 449 269T480 174Q480 101 420 45T264 -11Q170 -11 107
29T44 136Z" />
<glyph unicode="4" glyph-name="four" d="M29 209Q29 231 38 244L266 602Q275 617 282 620T308 623H336Q361 623 369 615T377 582V230H455Q467 230 473 229T487 221T495 199Q495 169 455 169H377V61H439Q451 61 457 60T471 52T479 30Q479 0 439 0H259Q219 0 219
30Q219 44 226 51T240 60T259 61H321V169H69Q45 169 37 177T29 209ZM99 230H321V579L99 230Z" />
<glyph unicode="5" glyph-name="five" d="M52 142Q52 168 66 179T97 190Q114 190 127 178T141 145Q141 126 128 113Q160 50 248 50Q312 50 357 90T403 190Q403 243 369 285T276 328Q192 328 150 278Q138 263 120 263Q105 263 98 270T89 284T88 304V570Q88 594
96 602T128 611H397Q409 611 415 610T429 602T437 580Q437 550 397 550H157V360Q211 389 277 389Q362 389 417 329T472 190Q472 107 407 48T248 -11Q165 -11 109 34T52 142Z" />
<glyph unicode="6" glyph-name="six" d="M53 299Q53 444 133 533T321 622Q388 622 421 592T454 519Q454 497 441 485T409 472T378 485T365 516Q365 535 375 545Q359 561 320 561Q250 561 192 500T124 338Q188 396 273 396Q356 396 413 337T471 193Q471 105 410
47T264 -11Q224 -11 189 5T122 54T72 151T53 299ZM132 222Q132 212 135 191L134 182L135 178Q136 175 137 169T140 160Q176 50 264 50Q320 50 361 90T402 193Q402 251 365 292T268 334Q211 334 172 302T132 222Z" />
<glyph unicode="7" glyph-name="seven" d="M44 544V586Q44 599 45 606T54 620T78 627Q104 627 110 611H440Q452 611 458 610T472 602T480 580Q480 570 477 565T458 546Q435 523 412 497T357 421T300 317T258 187T239 29Q239 9 229 -1T205 -11Q170 -11 170 36Q170
84 178 138T208 263T272 409T377 550H113Q113 532 112 525T103 510T78 503Q55 503 50 513T44 544Z" />
<glyph unicode="8" glyph-name="eight" d="M44 174Q44 228 84 270T183 329Q124 348 91 383T58 462Q58 525 116 573T262 622T407 574T466 462Q466 419 434 384T341 329Q400 312 440 270T480 174Q480 100 418 45T262 -11Q170 -11 107 44T44 174ZM113 175Q113 123
156 87T262 50T367 86T411 175Q411 224 370 261T262 299Q197 299 155 261T113 175ZM127 461Q127 419 167 390T262 360T357 389T397 461Q397 501 358 531T262 561Q204 561 166 531T127 461Z" />
<glyph unicode="9" glyph-name="nine" d="M53 418Q53 506 116 564T265 622Q303 622 337 607T403 559T452 462T471 312Q471 169 395 79T216 -11Q171 -11 140 0T95 29T76 62T70 92Q70 114 83 126T115 139T146 126T159 95Q159 78 150 67Q172 50 216 50Q287 50 339
114T400 273Q336 215 251 215Q168 215 111 274T53 418ZM122 418Q122 360 159 319T256 277Q316 277 354 311T393 389Q393 394 391 405T389 419Q389 422 389 424T390 428Q390 432 386 446T373 481T352 518Q318 561 265 561Q208 561 165 521T122 418Z" />
<glyph unicode=":" glyph-name="colon" d="M199 369Q199 393 217 412T262 431Q287 431 305 413T324 369Q324 345 307 326T262 306Q237 306 218 324T199 369ZM199 63Q199 87 217 106T262 125Q287 125 305 107T324 63Q324 39 307 20T262 0Q237 0 218 18T199 63Z" />
<glyph unicode=";" glyph-name="semicolon" d="M199 368Q199 392 217 411T262 430Q287 430 305 412T324 368Q324 344 307 325T262 305Q237 305 218 323T199 368ZM180 -107Q180 -87 208 -79Q267 -59 282 3Q272 0 262 0Q236 0 218 17T200 63Q200 88 217 106T263
125Q297 125 321 97T346 25Q346 -47 297 -93T212 -139Q200 -139 190 -129T180 -107Z" />
<glyph unicode="&lt;" glyph-name="less" d="M56 306Q56 312 58 316T63 325T69 331T76 336L81 338L414 543Q428 551 437 551Q448 551 458 543T468 521Q468 505 446 490L146 305Q149 304 169 291L446 121Q468 106 468 90Q468 77 458 69T437 60Q428 60 414 68L81
273Q56 287 56 306Z" />
<glyph unicode="=" glyph-name="equal" d="M37 382Q37 412 78 412H447Q486 412 486 381Q486 370 478 360T452 350H74Q37 350 37 382ZM38 230Q38 261 74 261H449Q464 261 473 254T484 242T486 230Q486 199 446 199H75Q38 200 38 230Z" />
<glyph unicode="&gt;" glyph-name="greater" d="M56 90Q56 106 78 121L378 306Q375 308 355 320L78 490Q56 505 56 521Q56 532 65 541T87 551Q96 551 110 543L443 339Q468 325 468 306Q468 290 443 273L110 68Q96 60 87 60Q75 60 66 68T56 90Z" />
<glyph unicode="?" glyph-name="question" d="M62 495Q62 544 108 580T252 617Q317 617 362 604T427 569T454 529T462 493Q462 432 396 396Q287 336 287 241V224Q287 199 279 192T247 184Q219 184 213 194T207 236Q207 254 208 266T216 303T238 349T281 395T352
445Q365 452 372 456T386 471T393 493Q393 519 358 537T252 556Q172 556 141 521Q151 509 151 493Q151 473 138 461T107 448Q89 448 76 460T62 495ZM197 29T197 50T211 85T247 100T282 86T297 50T283 15T247 0T212 14Z" />
<glyph unicode="@" glyph-name="at" d="M44 174T44 306T121 527T304 617Q480 617 480 321Q480 260 465 215T425 148T379 116T335 106Q277 106 234 162T191 306Q191 390 233 447T336 505Q370 505 400 485Q373 556 304 556Q224 556 162 485T100 305Q100 200 161
128T305 55Q365 55 412 98Q422 108 442 108Q480 108 480 80Q480 56 425 25T306 -6Q199 -6 122 84ZM247 305Q247 247 273 207T336 167Q370 167 397 206T424 305T397 404T335 444Q301 444 274 405T247 305Z" />
<glyph unicode="A" glyph-name="A" d="M27 30Q27 50 44 59Q50 61 87 61L208 585Q212 603 220 611T236 621T262 623T288 622T304 611T316 584L437 61Q474 61 480 58Q497 51 497 30Q497 0 454 0H352Q339 0 332 1T318 9T310 30Q310 45 317 52T334 60T366 61L343 165H181L158
61Q180 61 189 60T206 52T214 30Q214 16 207 9T192 1T172 0H70Q27 0 27 30ZM196 226H328L262 540L196 226Z" />
<glyph unicode="B" glyph-name="B" d="M23 30Q23 61 64 61H91V550H64Q23 550 23 581Q23 611 63 611H289Q367 611 414 564T461 456Q461 410 432 374T353 320Q412 306 447 263T482 167Q482 103 435 52T309 0H63Q23 0 23 30ZM160 61H287Q347 61 380 94T413 169T384
249T298 287H160V61ZM160 348H263Q328 348 360 382T392 455Q392 489 367 519T285 550H160V348Z" />
<glyph unicode="C" glyph-name="C" d="M40 306Q40 440 111 531T281 622Q354 622 411 574Q417 585 420 591T424 601T426 605Q438 622 454 622Q484 622 484 581V442Q484 429 483 422T474 408T449 401Q435 401 427 406T418 417T414 434Q404 493 368 527T285 561Q216
561 163 488T109 306Q109 197 162 124T286 50Q328 50 369 78T415 172Q417 201 449 201Q484 201 484 168Q484 98 426 44T282 -11Q183 -11 112 80T40 306Z" />
<glyph unicode="D" glyph-name="D" d="M19 30Q19 61 60 61H82V550H60Q19 550 19 580Q19 611 60 611H266Q362 611 423 519T485 301Q485 177 424 89T266 0H60Q19 0 19 30ZM151 61H247Q326 61 371 133T416 301Q416 397 371 473T247 550H151V61Z" />
<glyph unicode="E" glyph-name="E" d="M26 30Q26 61 67 61H97V550H67Q26 550 26 581Q26 611 67 611H440Q465 611 472 603T480 570V497Q480 484 479 477T470 463T445 456Q422 456 417 466T411 497V550H166V347H297Q297 372 298 381T307 397T332 404Q355 404 360
394T366 363V270Q366 257 365 250T356 236T332 229Q308 229 303 240T297 286H166V61H433V130Q433 143 434 150T443 164T468 171Q491 171 496 161T502 130V41Q502 17 494 9T462 0H67Q26 0 26 30Z" />
<glyph unicode="F" glyph-name="F" d="M28 30Q28 61 69 61H102V550H69Q28 550 28 580Q28 611 69 611H450Q475 611 482 603T490 570V497Q490 484 489 477T480 463T455 456Q432 456 427 466T421 497V550H171V336H307Q307 361 308 370T317 386T342 393Q365 393 370
383T376 352V259Q376 246 375 239T366 225T342 218Q318 218 313 229T307 275H171V61H223Q235 61 241 60T255 52T263 30Q263 0 223 0H69Q28 0 28 30Z" />
<glyph unicode="G" glyph-name="G" d="M38 306Q38 440 104 531T261 622Q326 622 378 577Q390 605 397 613T419 622Q449 622 449 581V442Q449 429 448 422T439 408T414 401Q383 401 380 430Q369 502 335 531T265 561Q204 561 156 488T107 305Q107 197 154 124T264
50Q307 50 338 89T378 209H336Q324 209 318 210T304 218T296 240Q296 270 336 270H455Q496 270 496 240Q496 226 489 219T473 210T449 209V41Q449 28 448 21T439 7T415 0T391 7T381 21T380 42Q334 -11 261 -11Q170 -11 104 80T38 306Z" />
<glyph unicode="H" glyph-name="H" d="M22 30Q22 44 29 51T43 60T62 61H87V550H62Q22 550 22 580Q22 594 29 601T43 610T62 611H181Q193 611 199 610T213 602T221 580Q221 550 181 550H156V348H368V550H343Q331 550 325 551T311 559T303 581Q303 611 343 611H462Q474
611 480 610T494 602T502 580Q502 550 462 550H437V61H462Q474 61 480 60T494 52T502 30Q502 0 462 0H343Q331 0 325 1T311 9T303 31Q303 61 343 61H368V287H156V61H181Q193 61 199 60T213 52T221 30Q221 0 181 0H62Q22 0 22 30Z" />
<glyph unicode="I" glyph-name="I" d="M79 31Q79 61 120 61H228V550H120Q79 550 79 581Q79 611 120 611H405Q446 611 446 580Q446 550 405 550H297V61H405Q446 61 446 30Q446 0 405 0H120Q79 0 79 31Z" />
<glyph unicode="J" glyph-name="J" d="M71 99Q71 122 84 134T116 146T147 133T160 102Q160 86 152 76Q181 50 237 50Q249 50 261 52T293 62T325 90T338 140V550H256Q215 550 215 581Q215 611 256 611H437Q478 611 478 581Q478 550 437 550H407V134Q407 68 357
29T237 -11Q163 -11 117 20T71 99Z" />
<glyph unicode="K" glyph-name="K" d="M26 31Q26 61 67 61H89V550H67Q26 550 26 581Q26 611 67 611H167Q208 611 208 580Q208 550 167 550H145V284L356 550Q315 550 315 580Q315 611 356 611H444Q485 611 485 581Q485 566 477 559T460 551T428 550L276 358L436
73Q436 72 439 68T443 61Q462 61 470 60T487 52T495 30Q495 0 454 0H379Q338 0 338 31Q338 61 378 61L238 311L145 194V61H167Q208 61 208 30Q208 0 167 0H67Q26 0 26 31Z" />
<glyph unicode="L" glyph-name="L" d="M32 30Q32 44 39 51T53 60T72 61H109V550H72Q32 550 32 580Q32 594 39 601T53 610T72 611H234Q275 611 275 580Q275 550 234 550H178V61H419V130Q419 144 420 151T429 164T454 171Q477 171 482 161T488 130V41Q488 17 480
9T448 0H72Q32 0 32 30Z" />
<glyph unicode="M" glyph-name="M" d="M17 30Q17 45 24 52T41 60T70 61V550Q50 550 41 551T25 559T17 581Q17 611 57 611H113Q152 611 162 587Q255 308 262 275H263Q270 309 290 369L357 571Q363 587 366 593T380 605T411 611H467Q507 611 507 581Q507 566 500
559T483 551T454 550V61Q474 61 483 60T499 52T507 30Q507 0 467 0H385Q345 0 345 30Q345 45 352 52T369 60T398 61V538H397Q392 514 368 438T321 296T297 226Q284 204 262 204Q243 204 232 219Q227 225 206 287Q205 289 194 325T169 400T144 481T127 538H126V61Q146
61 155 60T171 52T179 30Q179 0 139 0H57Q17 0 17 30Z" />
<glyph unicode="N" glyph-name="N" d="M28 31Q28 61 68 61H93V550H68Q56 550 50 551T36 559T28 581Q28 611 68 611H136Q159 611 170 605T190 575L374 75H375V550H350Q310 550 310 580Q310 594 317 601T331 610T350 611H456Q468 611 474 610T488 602T496 580Q496
550 456 550H431V41Q431 14 423 7T389 0Q373 0 366 1T349 11T334 36L150 536H149V61H174Q186 61 192 60T206 52T214 30Q214 0 174 0H68Q56 0 50 1T36 9T28 31Z" />
<glyph unicode="O" glyph-name="O" d="M56 227T56 305T58 429T69 515T89 573T127 603T182 619T262 622Q300 622 324 621T372 613T408 599T434 572T451 533T461 477T467 402T468 305Q468 227 466 181T455 95T435 38T397 8T342 -8T262 -11Q211 -11 182 -8T127 7T90
38T69 95T58 180ZM125 314Q125 172 137 121Q146 82 172 66T262 50Q327 50 353 67T388 127Q399 181 399 314Q399 450 387 497Q376 536 349 548T262 561Q198 561 172 547T136 490Q125 444 125 314Z" />
<glyph unicode="P" glyph-name="P" d="M26 30Q26 61 67 61H97V550H67Q26 550 26 581Q26 611 67 611H291Q374 611 427 556T480 428T428 300T291 245H166V61H196Q237 61 237 30Q237 0 196 0H67Q26 0 26 30ZM166 306H272Q338 306 374 344T411 428T375 512T272 550H166V306Z" />
<glyph unicode="Q" glyph-name="Q" d="M56 227T56 305T58 429T69 515T89 573T127 603T182 619T262 622Q300 622 324 621T372 613T408 599T434 572T451 533T461 477T467 402T468 305Q468 192 462 138Q455 77 440 47T391 4Q418 -47 424 -56Q455 -118 455 -120Q455
-139 423 -139H414Q387 -139 379 -127Q379 -126 365 -99T336 -44T318 -10Q307 -11 262 -11Q211 -11 182 -8T127 7T90 38T69 95T58 180ZM125 305Q125 183 134 132Q142 88 166 69T254 50H286L240 139Q236 146 236 152Q236 171 268 171H279Q294 171 298 169T309 155L357
68Q371 78 378 90T392 155T399 306Q399 428 390 479Q382 528 356 544T262 561T170 545T135 486Q125 438 125 305Z" />
<glyph unicode="R" glyph-name="R" d="M22 30Q22 44 29 51T43 60T62 61H87V550H62Q22 550 22 580Q22 594 29 601T43 610T62 611H239Q324 611 378 561T433 443Q433 406 413 368T348 304Q383 276 397 243Q406 220 406 149Q406 123 406 110T409 81T418 57T434 50Q453
50 453 95Q454 125 487 125Q522 125 522 93Q522 57 500 23T435 -11Q382 -11 356 35Q343 57 340 81T337 162Q337 188 336 199T331 224T315 247Q283 275 234 275H156V61H181Q193 61 199 60T213 52T221 30Q221 0 181 0H62Q22 0 22 30ZM156 336H228Q292 336 328 369T364
443T328 517T228 550H156V336Z" />
<glyph unicode="S" glyph-name="S" d="M52 30V162Q52 175 53 182T62 196T87 203Q102 203 110 197T119 185T121 168Q124 109 168 81Q214 50 285 50Q341 50 374 84T407 161Q407 250 296 274Q247 284 181 301Q121 318 87 362T52 458Q52 524 104 573T238 622Q323 622
378 575Q383 593 386 601T396 615T415 622Q445 622 445 581V449Q445 436 444 429T435 415T410 408Q380 408 376 436Q373 453 371 462T358 492T335 526T296 550T237 561Q185 561 151 532T117 462Q117 428 140 403T197 368L278 350Q342 335 368 324T424 285Q472 233
472 166Q472 96 420 43T284 -11Q180 -11 119 35Q112 9 105 -1T82 -11Q52 -11 52 30Z" />
<glyph unicode="T" glyph-name="T" d="M26 497V570Q26 595 34 603T67 611H458Q483 611 490 603T498 570V497Q498 484 497 477T488 463T463 456Q440 456 435 466T429 497V550H297V61H349Q361 61 367 60T381 52T389 30Q389 0 349 0H176Q164 0 158 1T144 9T136 31Q136
61 176 61H228V550H95V497Q95 484 94 477T85 463T60 456Q37 456 32 466T26 497Z" />
<glyph unicode="U" glyph-name="U" d="M4 581Q4 611 45 611H174Q215 611 215 581Q215 550 174 550H144V209Q144 134 180 92T262 50Q306 50 343 92T380 209V550H350Q309 550 309 581Q309 611 350 611H479Q520 611 520 581Q520 550 479 550H449V204Q449 113 394
51T262 -11T131 51T75 204V550H45Q4 550 4 581Z" />
<glyph unicode="V" glyph-name="V" d="M18 581Q18 611 59 611H161Q202 611 202 581Q202 566 194 559T177 551T146 550L243 161Q256 108 261 72H262Q268 111 301 244L378 550Q356 550 347 551T330 559T322 581Q322 611 363 611H465Q506 611 506 581Q506 566 498
559T481 551T449 550L317 29Q313 11 304 3T287 -6T262 -8Q244 -8 236 -7T220 3T207 30L75 550Q53 550 44 551T26 559T18 581Z" />
<glyph unicode="W" glyph-name="W" d="M11 580Q11 611 52 611H131Q143 611 149 610T163 602T171 580Q171 550 131 550H106L158 154Q166 92 166 76H167Q169 104 182 169T208 288T222 345Q232 367 262 367Q294 367 303 344Q303 343 311 309T328 232T346 144T357
76H358Q359 102 374 217L418 550H393Q353 550 353 580Q353 594 360 601T374 610T393 611H472Q513 611 513 580Q513 550 475 550L403 27Q398 -8 362 -8Q329 -8 322 17Q321 19 308 77T280 204T263 293H262Q259 267 232 143T201 12Q191 -8 162 -8Q126 -8 121 27L49
550H48Q11 550 11 580Z" />
<glyph unicode="X" glyph-name="X" d="M27 30Q27 44 34 51T48 60T67 61H89L222 325L102 550H79Q38 550 38 581Q38 611 79 611H183Q223 611 223 581Q223 567 216 560T201 551T180 550L257 404L328 550Q313 550 305 551T290 559T282 581Q282 611 322 611H426Q467
611 467 580Q467 550 426 550H404L291 326L432 61H455Q496 61 496 30Q496 0 455 0H351Q311 0 311 30Q311 44 318 51T333 60T356 61L257 255L165 61Q180 61 188 60T204 52T212 30Q212 0 171 0H67Q27 0 27 30Z" />
<glyph unicode="Y" glyph-name="Y" d="M19 581Q19 611 59 611H163Q203 611 203 581Q203 566 196 559T181 551T157 550Q252 351 262 314L367 550Q351 550 344 551T329 559T321 581Q321 611 361 611H465Q477 611 483 610T497 602T505 580Q505 550 465 550H444L297
244V61H322Q334 61 340 60T354 52T362 30Q362 0 322 0H203Q191 0 185 1T171 9T163 31Q163 61 203 61H228V244L80 550H59Q47 550 41 551T27 559T19 581Z" />
<glyph unicode="Z" glyph-name="Z" d="M48 18T48 34T58 65L387 550H129V497Q129 484 128 477T119 463T94 456Q71 456 66 466T60 497V570Q60 595 68 603T101 611H435Q448 611 455 610T469 601T476 577T466 546L137 61H412V133Q412 146 413 153T422 167T447 174Q470
174 475 164T481 133V41Q481 17 473 9T441 0H89Q76 0 69 1T55 10Z" />
<glyph unicode="[" glyph-name="bracketleft" d="M222 -49V660Q222 694 259 694H446Q483 694 483 663T450 632H292V-22H450Q483 -22 483 -53Q483 -83 448 -83H257Q220 -83 222 -49Z" />
<glyph unicode="\" glyph-name="backslash" d="M58 663Q58 676 68 685T89 694Q93 694 96 693T102 691T107 688T111 684T115 678T118 673T121 668T123 663L456 -24Q465 -42 465 -53Q465 -66 456 -74T435 -83Q414 -83 399 -50L67 638Q58 659 58 663Z" />
<glyph unicode="]" glyph-name="bracketright" d="M40 -53Q40 -41 48 -32T74 -22H232V633H75L74 632Q56 632 48 641T40 663Q40 694 76 694H266Q304 694 302 660V-49Q302 -83 265 -83H78Q40 -83 40 -53Z" />
<glyph unicode="^" glyph-name="asciicircum" d="M76 462Q76 482 104 493Q123 502 142 511T173 526T198 538T217 547T232 554T244 559T251 562T257 564T262 565H263Q269 565 420 493Q448 480 448 462Q448 450 438 436T414 422H413Q406 422 350 451Q308 473 276
489Q274 490 272 491T268 493T264 494T259 493T251 490T240 485T223 477T201 465T172 450T134 430Q120 422 110 422Q96 422 86 436T76 462Z" />
<glyph unicode="_" glyph-name="underscore" d="M56 -60Q56 -53 58 -47T70 -33T98 -25H427Q450 -25 459 -37T468 -61Q468 -74 459 -84T425 -95H97Q56 -94 56 -60Z" />
<glyph unicode="`" glyph-name="grave" d="M108 604Q108 619 118 629T142 639H144Q150 639 293 577Q321 564 321 546Q321 533 312 520T288 506H287Q282 506 139 568Q129 573 125 575T115 586T108 604Z" />
<glyph unicode="a" glyph-name="a" d="M55 128Q55 198 136 236T355 277Q355 328 321 353T227 379Q205 379 191 378Q176 377 173 375T170 367Q169 342 155 332T126 321Q107 321 94 333T81 367Q81 440 226 440Q325 440 374 393T424 285V69Q445 61 484 61Q524 61
524 31Q524 16 517 9T501 1T474 0Q389 0 366 32Q308 -6 220 -6Q146 -6 101 34T55 128ZM124 128Q124 98 153 77T227 55Q280 55 316 72Q334 80 343 91T353 111T355 134V218Q248 215 186 190T124 128Z" />
<glyph unicode="b" glyph-name="b" d="M12 580Q12 611 53 611H126Q151 611 158 603T166 570V388Q220 437 293 437Q373 437 430 373T488 216Q488 122 427 58T282 -6Q216 -6 166 45Q166 29 165 22T156 7T132 0T108 7T98 21T97 41V550H52Q12 550 12 580ZM166 191Q166
146 196 101T279 55Q334 55 376 101T419 216Q419 282 381 329T287 376Q240 376 203 342T166 264V191Z" />
<glyph unicode="c" glyph-name="c" d="M73 216Q73 252 85 288T124 360T197 418T305 440Q454 440 454 367Q454 346 441 334T409 321Q366 321 365 370Q365 379 305 379Q258 379 224 361T173 315T149 263T142 216Q142 148 188 102T299 55Q370 55 398 115Q403 129
410 133T431 137Q466 137 466 109Q466 100 458 84T433 46T378 9T293 -6Q200 -6 137 59T73 216Z" />
<glyph unicode="d" glyph-name="d" d="M36 215Q36 309 97 373T241 437Q307 437 358 392V550H313Q273 550 273 580Q273 611 314 611H387Q412 611 419 603T427 570V61H472Q512 61 512 31Q512 0 471 0H398Q370 0 364 10T358 50Q304 -6 232 -6Q152 -6 94 58T36 215ZM105
215Q105 149 143 102T236 55Q289 55 323 100T358 194V265Q358 308 325 342T245 376Q190 376 148 330T105 215Z" />
<glyph unicode="e" glyph-name="e" d="M55 125T55 217T118 374T270 440Q363 440 413 380T464 228Q464 215 461 207T452 196T440 192T424 191H126Q138 129 185 92T292 55Q370 55 396 115Q401 129 408 133T429 137Q464 137 464 109Q464 98 454 81T425 43T368 8T285
-6Q189 -6 122 59ZM127 251H393Q387 321 352 350T270 379Q218 379 178 343T127 251Z" />
<glyph unicode="f" glyph-name="f" d="M42 31Q42 61 83 61H184V370H83Q43 370 43 400Q43 431 84 431H184V484Q184 546 230 581T341 617Q437 617 437 557Q437 537 424 525T394 513T368 523T354 543T350 556Q333 556 322 555T292 547T263 523T253 478V431H375Q387
431 393 430T407 422T415 400Q415 370 375 370H253V61H354Q395 61 395 30Q395 0 354 0H83Q42 0 42 31Z" />
<glyph unicode="g" glyph-name="g" d="M29 -82Q29 -3 103 42Q80 73 80 114Q80 153 100 182Q68 223 68 277Q68 342 116 389T233 437Q286 437 330 407Q377 442 436 442Q473 442 491 426T509 388Q509 368 497 358T469 347Q458 347 446 355T430 381Q397 378 372 364Q398
321 398 277Q398 210 350 163T233 116Q180 116 143 141Q137 126 137 113Q137 92 149 77Q161 63 182 63Q190 61 211 61H281Q372 61 426 32Q461 13 478 -18T495 -82Q495 -145 427 -187T262 -229T97 -188T29 -82ZM87 -82Q87 -116 138 -142T262 -169T386 -143T437 -82Q437
-52 420 -33T367 -7T306 2T235 4Q178 4 162 2T128 -12Q87 -38 87 -82ZM137 276Q137 236 165 206T233 176Q272 176 300 205T329 277Q329 317 301 347T233 377Q194 377 166 348T137 276Z" />
<glyph unicode="h" glyph-name="h" d="M12 30Q12 61 53 61H97V550H52Q12 550 12 580Q12 611 53 611H126Q151 611 158 603T166 570V384Q219 437 297 437Q427 437 427 293V61H471Q512 61 512 30Q512 0 472 0H319Q278 0 278 30Q278 61 319 61H358V288Q358 335 344
355T291 376Q245 376 206 341T166 238V61H210Q251 61 251 30Q251 0 211 0H52Q12 0 12 30Z" />
<glyph unicode="i" glyph-name="i" d="M78 30Q78 61 119 61H240V370H127Q86 370 86 401Q86 431 127 431H269Q294 431 301 423T309 390V61H414Q455 61 455 30Q455 0 414 0H119Q78 0 78 30ZM209 541T209 562T223 597T259 612T294 598T309 562T295 527T259 512T224 526Z" />
<glyph unicode="j" glyph-name="j" d="M48 -152Q48 -131 61 -119T93 -106Q110 -106 123 -118T137 -151Q137 -160 136 -163Q166 -167 192 -167Q246 -167 273 -129Q299 -94 299 -39V370H169Q129 370 129 400Q129 431 170 431H328Q353 431 360 423T368 390V-44Q368
-65 364 -88T346 -136T314 -182T261 -215T187 -228Q48 -228 48 -152ZM268 541T268 562T282 597T318 612T353 598T368 562T354 527T318 512T283 526Z" />
<glyph unicode="k" glyph-name="k" d="M21 31Q21 61 61 61H110V550H61Q49 550 43 551T29 559T21 581Q21 611 61 611H126Q151 611 158 603T166 570V218L328 370H291Q251 370 251 400Q251 414 258 421T272 430T291 431H445Q486 431 486 400Q486 370 445 370H410L287
255L436 61H467Q508 61 508 30Q508 0 467 0H349Q309 0 309 30Q309 45 316 52T333 60T365 61L246 216L166 142V61H215Q227 61 233 60T247 52T255 30Q255 0 215 0H61Q49 0 43 1T29 9T21 31Z" />
<glyph unicode="l" glyph-name="l" d="M58 30Q58 61 99 61H228V550H98Q58 550 58 580Q58 611 99 611H257Q282 611 289 603T297 570V61H427Q439 61 445 60T459 52T467 30Q467 0 427 0H98Q58 0 58 30Z" />
<glyph unicode="m" glyph-name="m" d="M-4 30Q-4 45 4 52T21 60T53 61V370Q31 370 22 371T4 379T-4 401Q-4 431 37 431H69Q81 431 87 430T101 422T109 401Q148 437 201 437T277 385Q296 412 325 424T382 437Q413 437 433 421T460 377T469 334T471 303V61Q493 61
502 60T520 52T528 30Q528 0 487 0H407Q366 0 366 30Q366 44 374 51T391 60T415 61V294Q415 340 406 358T378 376Q344 376 317 340T290 240V61Q312 61 321 60T339 52T347 30Q347 0 306 0H226Q185 0 185 30Q185 44 193 51T210 60T234 61V294Q234 340 225 358T197
376Q163 376 136 340T109 240V61Q131 61 140 60T158 52T166 30Q166 0 125 0H37Q-4 0 -4 30Z" />
<glyph unicode="n" glyph-name="n" d="M12 30Q12 61 53 61H97V370H52Q12 370 12 400Q12 431 53 431H126Q154 431 160 422T166 384Q219 437 297 437Q427 437 427 293V61H471Q512 61 512 30Q512 0 472 0H319Q278 0 278 30Q278 61 319 61H358V288Q358 335 344 355T291
376Q245 376 206 341T166 238V61H210Q251 61 251 30Q251 0 211 0H52Q12 0 12 30Z" />
<glyph unicode="o" glyph-name="o" d="M57 216Q57 309 117 374T262 440T406 375T467 216T407 59T262 -6T118 58T57 216ZM126 223Q126 154 166 105T262 55T358 104T398 223Q398 290 358 334T262 379T167 335T126 223Z" />
<glyph unicode="p" glyph-name="p" d="M12 -192Q12 -161 53 -161H97V370H52Q12 370 12 400Q12 431 53 431H126Q152 431 159 422T166 388Q220 437 293 437Q373 437 430 373T488 216Q488 122 427 58T282 -6Q216 -6 166 45V-161H210Q251 -161 251 -192Q251 -222 211
-222H52Q12 -222 12 -192ZM166 191Q166 146 196 101T279 55Q334 55 376 101T419 216Q419 282 381 329T287 376Q240 376 203 342T166 264V191Z" />
<glyph unicode="q" glyph-name="q" d="M40 215Q40 308 104 372T254 437Q328 437 379 382Q379 400 379 407T383 423T394 434T414 437Q437 437 442 427T448 396V-161H497Q509 -161 515 -162T529 -170T537 -192Q537 -222 497 -222H330Q318 -222 312 -221T298 -213T290
-191Q290 -161 330 -161H379V54Q324 -6 244 -6Q161 -6 101 58T40 215ZM109 215Q109 148 150 102T248 55Q305 55 342 100T379 194V233Q379 287 346 331T259 376Q198 376 154 330T109 215Z" />
<glyph unicode="r" glyph-name="r" d="M32 31Q32 61 72 61H153V370H72Q60 370 54 371T40 379T32 401Q32 431 72 431H182Q207 431 214 423T222 390V356Q293 437 392 437Q421 437 441 431T471 414T483 394T487 375Q487 356 475 344T445 332Q427 332 415 345T402
376Q317 376 270 320T222 186V61H333Q374 61 374 30Q374 0 333 0H72Q60 0 54 1T40 9T32 31Z" />
<glyph unicode="s" glyph-name="s" d="M72 35V132Q72 145 73 152T82 166T107 173Q125 173 131 167T142 144Q171 55 270 55Q334 55 366 75T398 125Q398 144 386 157T351 179T312 191T269 199Q233 205 213 208T161 221T114 243T85 275T72 322Q72 335 75 348T91 379T122
409T178 431T262 440Q325 440 369 419Q375 440 399 440Q429 440 429 399V330Q429 317 428 310T419 296T394 289Q380 289 372 294T363 306T360 323Q354 379 260 379Q195 379 164 362T133 322Q133 280 230 267Q237 266 298 255Q459 230 459 125Q459 109 455 93T438
59T405 26T349 3T269 -6Q191 -6 139 32Q127 -6 102 -6Q72 -6 72 35Z" />
<glyph unicode="t" glyph-name="t" d="M25 400Q25 431 66 431H153V513Q153 526 154 533T163 547T188 554Q211 554 216 544T222 513V431H386Q398 431 404 430T418 422T426 400Q426 370 386 370H222V132Q222 118 223 109T231 85T255 63T299 55Q315 55 331 59T363
81T380 127Q380 138 381 145T391 158T414 165Q430 165 438 158T448 145T449 126Q449 64 402 29T294 -6T193 26T153 126V370H65Q25 370 25 400Z" />
<glyph unicode="u" glyph-name="u" d="M12 400Q12 431 53 431H126Q151 431 158 423T166 390V120Q166 104 167 96T175 76T199 60T245 55Q260 55 276 58T313 71T345 103T358 157V370H313Q273 370 273 400Q273 431 314 431H387Q412 431 419 423T427 390V61H472Q512
61 512 31Q512 0 471 0H398Q386 0 380 1T366 9T358 32Q308 -6 239 -6Q97 -6 97 114V370H52Q12 370 12 400Z" />
<glyph unicode="v" glyph-name="v" d="M24 400Q24 414 31 421T45 430T64 431H181Q193 431 199 430T213 422T221 400Q221 370 181 370H153L262 48L371 370H343Q331 370 325 371T311 379T303 401Q303 431 343 431H460Q472 431 478 430T492 422T500 400Q500 370 460
370H430L315 29Q310 14 300 6T283 -3T262 -4Q248 -4 241 -3T225 6T209 30L94 370H64Q24 370 24 400Z" />
<glyph unicode="w" glyph-name="w" d="M16 401Q16 415 23 422T38 430T58 431H173Q186 431 193 430T207 422T215 400T208 379T193 371T173 370H124L176 72H177Q180 86 200 158T224 237Q235 259 264 259Q289 259 297 247T320 185Q344 101 349 72H350L400 370H351Q338
370 331 371T317 379T309 401T316 422T331 430T351 431H466Q479 431 486 430T500 422T508 401Q508 386 501 379T485 371T457 370L397 34Q394 20 392 14T380 2T353 -4Q323 -4 311 13Q306 24 287 90T265 190H264Q258 148 235 66Q221 18 212 7T174 -4Q159 -4 150 -2T137
7T131 18T127 34L67 370Q48 370 40 371T24 379T16 401Z" />
<glyph unicode="x" glyph-name="x" d="M27 30Q27 61 68 61H108L232 222L114 370H74Q33 370 33 400Q33 431 74 431H191Q231 431 231 401Q231 386 224 379T208 371T183 370L259 269L333 370Q316 370 308 371T292 379T284 401Q284 431 324 431H441Q482 431 482 400Q482
370 441 370H401L287 222L415 61H455Q496 61 496 30Q496 0 455 0H338Q298 0 298 30Q298 45 305 52T321 60T348 61L259 184L173 61Q193 61 201 60T217 52T225 30Q225 0 185 0H68Q27 0 27 30Z" />
<glyph unicode="y" glyph-name="y" d="M26 400Q26 414 33 421T47 430T66 431H183Q195 431 201 430T215 422T223 400Q223 370 183 370H158L251 130Q270 78 272 71H273Q281 105 299 157L371 370H343Q331 370 325 371T311 379T303 401Q303 431 343 431H460Q472 431
478 430T492 422T500 400Q500 370 460 370H430L275 -85Q271 -96 268 -105T250 -139T221 -182T180 -213T126 -228Q90 -228 67 -204T43 -146Q43 -126 55 -114T87 -102Q106 -102 118 -114T130 -145Q130 -151 129 -156T126 -164L125 -167Q176 -164 205 -109Q211 -98
220 -71T236 -23T243 0Q243 3 239 13L97 370H66Q26 370 26 400Z" />
<glyph unicode="z" glyph-name="z" d="M33 34Q33 47 36 53T55 74L367 370H118V344Q118 331 117 324T108 310T83 303Q60 303 55 313T49 344V390Q49 415 57 423T90 431H430Q443 431 450 430T464 421T471 397Q471 384 468 378T449 357L137 61H406V99Q406 112 407
119T416 133T441 140Q464 140 469 130T475 99V41Q475 6 453 0H74Q61 0 54 1T40 10T33 34Z" />
<glyph unicode="{" glyph-name="braceleft" d="M56 305Q56 330 78 335Q79 335 95 335T131 338T171 346T207 362T226 389Q227 396 227 409V568Q227 629 274 661T432 694Q467 694 467 664Q467 641 450 636T395 630T329 617Q297 604 297 570V409Q297 337 239 306V305Q297
273 297 202V45Q297 32 297 27T306 11T333 -7Q359 -17 395 -18T449 -25T467 -52Q467 -82 434 -83H423Q317 -81 272 -49T227 42V202Q227 215 226 222T217 240T191 258Q164 270 128 271T74 278T56 305Z" />
<glyph unicode="|" glyph-name="bar" d="M227 -42V648Q227 659 228 665Q230 676 239 685T262 694Q268 694 275 692T289 680T297 653V-37Q297 -49 296 -55Q294 -65 285 -74T262 -83Q256 -83 249 -81T235 -68T227 -42Z" />
<glyph unicode="}" glyph-name="braceright" d="M56 -52Q56 -31 73 -24Q75 -23 112 -22T184 -10T225 23Q227 30 227 46V202Q227 222 229 236T244 270T284 305V306Q227 337 227 403V565Q227 579 225 586T212 606T171 624T92 632Q56 632 56 663Q56 693 89 694H101Q208
692 252 660T297 568V409Q297 399 297 396T301 381T312 365T334 352T373 341T431 336H432Q467 336 467 306Q467 281 445 276Q444 276 420 274T372 269T325 254T298 222Q297 215 297 202V43Q297 -27 243 -54T91 -83Q56 -83 56 -52Z" />
<glyph unicode="~" glyph-name="asciitilde" d="M71 522Q71 541 109 576T191 611Q224 611 269 585T333 558T367 571T395 597T420 610T442 601T452 579Q452 560 414 526T332 491Q296 491 253 517T192 544Q168 544 141 518T103 491Q91 491 81 500T71 522Z" />
</font>
</defs>
</svg>
