<?xml version="1.0" standalone="no"?> <!DOCTYPE svg PUBLIC "-//W3C//DTD SVG 1.0//EN" "http://www.w3.org/TR/2001/REC-SVG-20010904/DTD/svg10.dtd" > <svg xmlns="http://www.w3.org/2000/svg" width="100%" height="100%">
<defs >
<font id="cmuntb" horiz-adv-x="525" ><font-face
    font-family="CMU Typewriter Text"
    units-per-em="1000"
    panose-1="2 0 8 9 0 0 0 0 0 0"
    ascent="866"
    descent="-230"
    alphabetic="0" />
<missing-glyph d="M10 10V765H515V10H10ZM70 112L232 388L70 663V112ZM105 70H420L262 337L105 70ZM105 705L262 438L420 705H105ZM292 388L455 112V663L292 388Z" />
<glyph unicode=" " glyph-name="space" />
<glyph unicode="!" glyph-name="exclam" d="M187 43T187 75T209 128T262 149T314 128T336 75Q336 45 315 23T262 0Q232 0 210 21ZM187 545Q187 578 210 598T262 619Q292 619 314 599T336 545V526L322 257Q320 222 284 222Q282 222 279 222T275 223H247Q246 223
244 223T240 222Q226 222 218 225T206 238T202 251T201 267L188 527Q188 530 188 536T187 545Z" />
<glyph unicode="&quot;" glyph-name="quotedbl" d="M132 537T132 547T132 564Q132 591 146 601T174 611Q189 611 202 601T216 565Q216 559 216 548T216 521T214 465T212 373Q210 336 175 336Q166 336 160 337T149 342T142 348T138 357T137 365T136 375T136 384Q135
432 134 469T133 522ZM308 565Q308 588 321 599T350 611Q365 611 378 601T392 565Q392 559 392 548T392 521T390 465T388 373Q388 357 381 348T367 338T348 336H346Q323 336 317 354Q308 379 308 549Q308 554 308 565Z" />
<glyph unicode="#" glyph-name="numbersign" d="M35 194Q35 217 55 227Q64 232 85 232H129L147 379H79Q61 379 50 387T37 403T35 416Q35 423 37 431T51 447T82 455H157Q157 460 158 467T163 504T172 571Q172 575 173 582T184 600T210 610Q227 610 237 599T247
574Q247 560 233 455H329Q329 460 330 467T335 504T344 571Q344 575 345 582T356 600T382 610Q396 610 407 600T419 575Q419 561 405 455H440Q461 455 470 450Q489 439 489 417Q489 394 469 384Q460 379 439 379H395L377 232H445Q463 232 474 224T487 208T489 195Q489
188 487 181T473 165T443 156H367Q365 135 353 40Q347 0 315 0Q299 0 289 11T278 36Q278 52 292 156H195Q193 135 181 40Q175 0 143 0Q127 0 117 11T106 36Q106 52 120 156H85Q64 156 55 161Q35 173 35 194ZM205 232H301L319 379H223L205 232Z" />
<glyph unicode="$" glyph-name="dollar" d="M58 172Q58 196 71 206T100 217Q134 217 141 184Q141 182 142 168T146 144T156 119T181 93T224 75V283Q143 298 101 344T58 448Q58 463 61 478T74 516T101 557T150 591T224 613V652Q224 694 260 694Q275 694 284 690T296
678T299 665T300 651V613Q351 607 387 587T438 541T460 493T466 452Q466 430 454 418T424 406Q394 406 385 434Q384 436 382 454T376 486T352 514T300 536V353Q383 336 424 286T466 175Q466 102 420 55T300 -2V-40Q300 -52 299 -59T289 -74T262 -83T235 -74T225
-59T224 -41V-2Q148 7 103 55T58 172ZM137 452Q137 425 159 402T224 368V537Q188 531 167 513T141 480T137 452ZM300 75Q337 82 358 103T383 140T387 171Q387 202 365 228T300 267V75Z" />
<glyph unicode="%" glyph-name="percent" d="M35 491T35 561T62 662T122 694T182 663T210 561T183 460T123 428T63 459ZM81 -42Q81 -34 87 -18L357 653Q373 694 402 694Q418 694 430 683T443 653Q443 643 437 629L166 -45Q151 -83 122 -83Q107 -83 94 -72T81 -42ZM103
563Q103 537 109 521T123 505Q132 505 137 521T142 559Q142 616 122 616Q103 616 103 563ZM315 -20T315 50T342 151T402 183T462 152T490 50T463 -51T402 -83T342 -52ZM382 52Q382 26 388 10T402 -6Q411 -6 416 10T422 48Q422 105 402 105T382 52Z" />
<glyph unicode="&amp;" glyph-name="ampersand" d="M27 145Q27 184 42 216T72 263T123 313Q97 388 97 465Q97 532 128 575T210 619Q262 619 286 575T311 475Q311 388 205 288L224 252L268 178Q282 206 345 373Q329 385 329 407Q329 444 367 444H453Q490 444 490
406Q491 369 453 369H415Q367 220 313 116Q357 68 389 68Q404 68 410 79T417 102T426 126T453 137Q486 137 486 103Q486 67 463 30T392 -8Q337 -8 272 57Q218 -8 149 -8Q90 -7 59 39T27 145ZM111 147Q111 67 153 67Q188 67 228 114V115Q182 182 154 238Q152 236
145 229T135 219T128 210T121 198T116 185T112 168T111 147ZM164 467Q164 416 177 367Q243 429 243 475Q243 498 235 520T209 543Q192 543 178 524T164 467Z" />
<glyph unicode="&apos;" glyph-name="quotesingle" d="M220 538T220 548T220 565Q220 589 234 600T262 611Q277 611 290 601T304 565Q304 559 304 548T304 521T302 465T300 373Q299 336 261 336Q255 336 251 337T243 339T237 342T232 346T229 352T227 357T226
364T225 370T224 377T224 384Q223 432 222 470T221 523Z" />
<glyph unicode="(" glyph-name="parenleft" d="M166 190T166 306T219 522T366 684Q382 694 398 694H400Q436 694 436 665Q436 661 435 657T432 651T428 645T423 640T417 636T411 632Q333 577 292 492T250 306T293 118T416 -24Q436 -38 436 -54Q436 -82 402 -83H398Q382
-83 365 -72Q271 -11 219 89Z" />
<glyph unicode=")" glyph-name="parenright" d="M87 -54Q87 -47 91 -41T98 -31T109 -24T117 -18Q193 36 233 122T274 306Q274 406 231 493T108 635Q87 649 87 665Q87 670 89 676T100 688T124 694H125Q142 694 159 683Q255 620 306 520T358 306Q358 190 305 89T158
-73Q142 -83 125 -83Q87 -83 87 -54Z" />
<glyph unicode="*" glyph-name="asterisk" d="M67 214Q67 236 95 251L198 305V306L95 359Q67 372 67 397Q67 413 78 424T105 435Q115 435 128 427T230 361L229 386Q228 412 227 443T225 489V500Q233 527 262 527Q281 527 290 516T299 494V483L294 361Q317 376
349 397Q407 435 417 435Q433 435 444 424T456 397Q456 374 428 359L325 306V305L428 251Q456 236 456 214Q456 198 445 187T418 175Q407 175 357 209Q321 232 294 250L295 224Q296 198 297 167T299 121V111Q291 84 262 84Q243 84 234 95T224 117V128L230 250Q207
235 175 214Q116 175 106 175Q92 175 80 185T67 214Z" />
<glyph unicode="+" glyph-name="plus" d="M37 305Q37 318 46 329T69 342Q76 343 91 343H224V484Q224 511 236 520T262 530Q276 530 286 521T299 498Q300 491 300 477V343H433Q448 343 455 342Q468 340 477 330T486 305Q486 298 484 291T471 276T442 268H300V127Q300
81 262 81Q248 81 238 90T225 113Q224 120 224 134V268H82Q63 268 52 276T39 291T37 305Z" />
<glyph unicode="," glyph-name="comma" d="M175 -111T175 -97T186 -75T212 -64T245 -44T275 1Q274 1 270 1T265 0Q227 0 207 22T187 75Q187 107 207 128T262 149Q300 149 328 119T357 39Q357 -38 305 -88T215 -138Q203 -138 189 -125Z" />
<glyph unicode="-" glyph-name="hyphen" d="M87 219Q87 260 126 260H399Q437 260 437 223T401 185H122Q87 186 87 219Z" />
<glyph unicode="." glyph-name="period" d="M187 75Q187 104 208 126T262 149Q292 149 314 128T336 75Q336 45 315 23T262 0Q232 0 210 21T187 75Z" />
<glyph unicode="/" glyph-name="slash" d="M58 -46Q58 -36 66 -20L386 656Q386 657 388 661T392 668T396 675T402 682T409 688T417 692T428 694Q444 694 455 683T466 657Q466 644 459 632L133 -55Q120 -83 96 -83Q81 -83 70 -72T58 -46Z" />
<glyph unicode="0" glyph-name="zero" d="M42 306Q42 392 63 456T118 554T189 603T262 619Q300 619 336 603T406 554T461 456T482 306Q482 219 461 154T405 56T334 8T262 -8Q225 -8 190 7T120 55T64 153T42 306ZM126 315Q126 184 168 126T262 67Q313 67 355 125T398
315Q398 380 385 428T349 499T305 533T261 544Q210 544 168 491T126 315Z" />
<glyph unicode="1" glyph-name="one" d="M97 460Q97 475 103 483T114 494T133 497T151 500Q212 515 249 592Q261 619 284 619Q318 619 318 580V75H411Q451 75 449 38Q449 0 412 0H136Q119 1 111 11T102 37Q102 75 141 75H234V460Q183 422 134 422Q97 422 97 460Z" />
<glyph unicode="2" glyph-name="two" d="M52 36Q52 58 69 73Q99 98 140 132T203 184T254 227T298 265T331 298T358 330T374 359T385 389T388 420Q388 480 341 512T233 544Q189 544 164 517T136 455Q136 448 135 441T124 421T94 408Q78 408 65 418T52 454Q52 516
107 567T249 619Q344 619 408 564T472 421Q472 394 467 371T445 322T416 279T371 232T320 187T254 133T183 75H388V84Q388 109 399 116T428 123H430Q443 123 450 122T464 111T472 84V43Q472 31 471 24T461 9T433 0H91Q53 0 52 36Z" />
<glyph unicode="3" glyph-name="three" d="M43 138Q43 160 55 171T85 183T113 173T126 147V139Q127 131 129 127T135 114T147 99T168 86Q208 67 262 67Q333 67 364 101T396 180T365 258T251 292H207Q174 292 174 330Q174 341 177 348T185 359T199 365T217 368T240
370T267 372Q307 375 337 404T367 474Q367 501 344 522T263 544Q170 544 158 508L157 502Q156 495 154 489T147 475T135 463T114 458Q94 458 84 471T73 505Q73 548 118 583T263 619Q352 619 401 578T451 474Q451 386 372 331Q431 307 455 265T480 179Q480 100 423
46T262 -8Q167 -8 105 32T43 138Z" />
<glyph unicode="4" glyph-name="four" d="M29 207Q29 207 29 228Q29 236 30 240T32 247T37 257T45 269L251 594Q261 610 269 614T294 619H346Q363 619 372 612T382 597T384 575V243H459Q495 243 495 206T458 168H384V75H439Q440 75 443 75T448 76Q488 76 486 38Q486
0 447 0H252Q241 0 235 1T221 12T214 38Q214 76 252 76Q254 76 257 76T261 75H316V168H67Q56 168 49 169T36 180T29 207ZM115 243H316V560L115 243Z" />
<glyph unicode="5" glyph-name="five" d="M52 137Q52 156 64 168T94 181Q106 181 115 177T128 164T134 149T137 134L138 125Q145 100 174 84T245 67Q307 67 347 99T388 190Q388 236 361 273T273 310Q197 310 159 267Q148 253 142 251T119 248Q105 248 97 252T85
264T81 278T80 294V572Q79 611 119 611H397Q437 611 437 574Q437 535 400 535H164V360Q212 386 274 386Q365 386 418 331T472 189Q472 101 409 47T245 -8Q163 -8 108 33T52 137Z" />
<glyph unicode="6" glyph-name="six" d="M45 301Q45 388 71 453T140 552T228 603T321 619Q392 619 423 588T454 519Q454 496 440 486T412 475Q393 475 383 487T371 508T369 522Q363 544 319 544Q291 544 263 535T205 504T155 440T130 340Q195 398 286 398Q373
398 424 344Q479 288 479 195Q479 85 391 25Q342 -8 265 -8Q235 -8 208 -2T150 24T97 77T60 167T45 301ZM137 220Q137 199 143 175T161 126T201 84T264 67Q323 67 360 103Q395 137 395 197Q395 266 343 304Q314 323 268 323Q212 323 175 292T137 220Z" />
<glyph unicode="7" glyph-name="seven" d="M43 532V587Q43 599 44 606T55 620T82 627Q107 627 116 619T134 611H440Q480 611 480 574Q480 561 476 553T465 538T438 512T398 466Q340 394 305 311T260 173T247 70T243 21Q233 -8 203 -8Q195 -8 187 -6T170 9T161
42Q163 175 213 303T364 535H127V527Q127 502 116 495T87 488H83Q64 488 55 496T44 512T43 532Z" />
<glyph unicode="8" glyph-name="eight" d="M43 179Q43 286 166 330Q112 346 85 381T58 457Q58 526 111 572T261 619Q317 619 359 604T423 563T455 511T465 457Q465 366 357 330Q420 311 450 270T480 179Q480 98 422 45T262 -8Q158 -8 101 45T43 179ZM127 180Q127
125 167 96T262 67Q322 67 359 97T396 179Q396 230 360 261T262 292Q199 292 163 261T127 180ZM142 456Q142 413 177 390T262 367Q313 367 347 390T382 456Q382 499 347 521T262 544Q211 544 177 521T142 456Z" />
<glyph unicode="9" glyph-name="nine" d="M45 416Q45 525 132 584Q183 619 265 619Q294 619 320 613T377 587T428 535T464 445T479 310Q479 239 462 182T418 91T356 33T286 1T215 -8Q135 -8 103 22T70 92Q70 115 83 125T111 136Q130 136 141 124T153 103T155 89Q160
67 216 67Q245 67 271 76T324 107T370 170T394 271Q328 212 237 212Q173 212 128 243Q45 302 45 416ZM129 414Q129 355 165 320Q198 288 253 288Q312 288 349 319T387 391Q387 422 378 454T339 515T264 544Q196 544 163 508T129 422V414Z" />
<glyph unicode=":" glyph-name="colon" d="M187 75Q187 104 208 126T262 149Q292 149 314 128T336 75Q336 45 315 23T262 0Q232 0 210 21T187 75ZM187 370Q187 399 208 421T262 444Q292 444 314 423T336 370Q336 340 315 318T262 295Q232 295 210 316T187 370Z" />
<glyph unicode=";" glyph-name="semicolon" d="M187 370Q187 399 208 421T262 444Q292 444 314 423T336 370Q336 340 315 318T262 295Q232 295 210 316T187 370ZM175 -111T175 -97T186 -75T212 -64T245 -44T275 1Q274 1 270 1T265 0Q227 0 207 22T187 75Q187 107
207 128T262 149Q300 149 328 119T357 39Q357 -38 305 -88T215 -138Q203 -138 189 -125Z" />
<glyph unicode="&lt;" glyph-name="less" d="M56 305Q56 327 85 345L403 555Q418 565 430 565Q445 565 456 554T468 527Q468 520 466 514T459 504T451 496T441 489T433 484L163 306V305L433 126Q434 126 441 122T451 115T459 107T466 96T468 83Q468 69 458 58T430
46Q423 46 417 48T401 57T390 64L85 266Q56 284 56 305Z" />
<glyph unicode="=" glyph-name="equal" d="M37 228Q37 258 69 264Q76 265 91 265H443Q461 265 471 257T484 242T486 228Q486 190 440 190H82Q64 190 53 198T40 213T37 228ZM37 383Q37 391 39 398T53 413T85 421H438Q486 421 486 383Q486 376 484 369T471 354T442
346H80Q55 346 46 358T37 383Z" />
<glyph unicode="&gt;" glyph-name="greater" d="M56 83Q56 90 58 96T65 106T73 114T83 121T91 126L361 305V306L91 484Q90 485 85 488T77 493T69 499T62 507T58 516T56 528Q56 544 67 554T94 565Q101 565 107 563T123 554T134 547L439 345Q468 327 468 305Q468
284 439 266L121 56Q106 46 94 46Q79 46 68 56T56 83Z" />
<glyph unicode="?" glyph-name="question" d="M61 493Q61 513 70 533T99 572T159 603T252 615Q428 615 458 519Q462 506 462 490Q462 457 445 433T403 395T354 364T312 320T294 253V242Q294 228 292 220T282 206T258 200H233Q198 200 198 236V257Q198 373 336
448Q338 449 342 451T349 455T355 458T361 462T366 466T370 471T374 477T377 484Q378 486 378 491Q378 512 348 526T252 540Q158 540 146 499Q146 498 145 492T142 479T136 465T124 454T103 449Q85 449 73 461T61 493ZM186 60Q186 83 203 101T246 120T288 103T306
60Q306 37 289 19T246 0Q220 0 203 18T186 60Z" />
<glyph unicode="@" glyph-name="at" d="M43 306Q43 456 120 535T303 615Q480 615 480 329V313Q480 253 465 209T426 144T379 114T332 105Q270 105 227 157T184 305Q184 410 230 458T332 506Q356 506 383 496Q357 539 303 539Q270 539 238 527T177 489T129 416T111
306Q111 241 129 193T178 119T240 83T303 71Q341 71 365 82T406 105T440 117Q480 117 480 89Q480 64 426 30T305 -4Q257 -4 212 13T129 66T67 164T43 306ZM252 372T252 305T276 209T332 180Q362 180 387 209T412 305T388 401T332 431T277 402Z" />
<glyph unicode="A" glyph-name="A" d="M27 38Q26 75 65 75H89L98 119L199 576Q202 587 203 592T210 605T224 616T247 619H280Q297 619 307 611T320 595T325 576L424 125Q430 99 435 75H457Q498 75 497 38Q497 0 458 0H334Q294 0 294 35Q294 75 333 75H349L333
150H190L175 75H190Q229 75 229 38Q229 0 190 0H65Q25 0 27 38ZM207 225H317Q314 242 300 312T274 444T262 541Q259 498 247 431T222 298T207 225Z" />
<glyph unicode="B" glyph-name="B" d="M16 40Q16 75 53 75H84V535H57Q45 535 38 536T24 546T16 572Q16 611 53 611H288Q337 611 373 596T427 555T453 505T461 454Q461 356 364 320Q421 307 451 267T482 169Q482 140 474 113T448 60T394 17T309 0H53Q16 1 16 40ZM168
75H287Q350 75 374 104T398 172Q398 216 375 248T295 280H168V75ZM168 355H267Q329 355 353 385T378 453Q378 486 358 510T289 535H168V355Z" />
<glyph unicode="C" glyph-name="C" d="M40 305Q40 375 56 431T96 521T153 578T217 610T279 619Q345 619 404 578Q406 581 410 588T416 597T422 605T428 611T434 615T442 618T452 619Q484 619 484 580V448Q484 439 484 434T480 422T468 411T445 407Q444 407 441
407T436 406Q422 406 414 412T403 425T398 445T392 467Q382 496 358 520T295 544Q273 544 251 538T206 514T165 470T136 402T124 306Q124 240 140 191T184 116T239 79T296 67Q339 67 367 93T400 161Q401 178 408 186T421 194T439 195H445Q456 195 463 194T477 185T484
162Q484 94 425 43T280 -8Q177 -8 109 73T40 305Z" />
<glyph unicode="D" glyph-name="D" d="M15 40Q15 76 52 76Q53 76 54 76L56 75H78V535H54Q15 535 15 571Q15 611 54 611H260Q312 611 352 592T417 541T458 468T480 386T486 302Q486 246 476 197T441 101T371 28T260 0H53Q15 0 15 40ZM162 75H242Q288 75 321 96T370
152T394 224T402 302Q402 344 395 382T371 456T321 513T242 535H162V75Z" />
<glyph unicode="E" glyph-name="E" d="M18 41Q18 75 57 75H89V535H60Q48 535 40 536T25 547T18 572Q18 582 19 588T30 603T58 611H442Q460 611 469 603T479 589T480 570V477Q481 441 444 441H440Q424 441 415 444T402 455T398 468T397 487V535H173V354H290V372Q290
389 297 398T311 409T328 411H333Q359 411 366 401T374 371V260Q374 222 335 222H331Q312 222 302 230T291 244T290 262V279H173V75H419V149Q419 165 426 173T441 183T463 185Q503 185 503 149V43Q503 30 502 22T491 7T464 0H55Q18 0 18 41Z" />
<glyph unicode="F" glyph-name="F" d="M21 40Q21 75 58 75H95V535H59Q21 535 21 572Q21 583 22 590T33 604T60 611H452Q470 611 479 603T489 589T490 570V478Q491 441 454 441H450Q429 441 419 448T408 462T406 487V535H178V343H300V361Q300 378 307 387T321 398T338
400H343Q369 400 376 390T384 360V249Q384 211 345 211H341Q322 211 312 219T301 233T300 251V268H178V75H231Q242 75 249 74T263 64T271 38Q272 18 262 9T232 0H60Q35 0 28 10T21 40Z" />
<glyph unicode="G" glyph-name="G" d="M37 306Q37 393 58 457T115 554T186 603T259 619Q318 619 372 581Q387 606 394 612T416 619Q449 619 449 580V443Q449 433 448 427T437 414T410 407H406Q376 407 368 424Q367 425 364 440T356 471T341 504T313 532T270 543Q214
543 168 487T121 305Q121 239 135 190T173 116T221 79T269 67Q340 67 362 193H324L322 192H320Q281 192 281 230Q281 253 291 260T319 268H454Q468 268 475 267T489 256T496 227Q496 192 457 192Q456 192 453 192T449 193V40Q449 28 449 22T439 8T412 -1H402Q368
-1 365 31Q320 -8 259 -8Q230 -8 202 1T143 32T89 89T52 180T37 306Z" />
<glyph unicode="H" glyph-name="H" d="M15 36Q15 47 16 53T26 67T55 75H80V535H54Q15 535 15 573T55 611H191Q230 611 230 575Q230 535 190 535H164V355H360V535H334Q294 535 294 573T334 611H470Q509 611 509 575Q509 564 508 558T497 543T468 535H443V75H471Q509
75 509 40Q509 0 469 0H333Q294 0 294 36Q294 47 295 53T305 67T334 75H360V280H164V75H192Q230 75 230 40Q230 0 190 0H54Q15 0 15 36Z" />
<glyph unicode="I" glyph-name="I" d="M71 38Q71 75 110 75H220V535H110Q71 535 71 575Q72 611 109 611H415Q452 611 452 573T414 535H304V75H414Q436 75 444 66T452 37Q452 0 414 0H108Q71 0 71 38Z" />
<glyph unicode="J" glyph-name="J" d="M76 100Q76 118 88 130T118 143Q128 143 135 140T147 132T154 121T159 110T160 100L161 96Q171 67 241 67Q324 67 324 136V535H238Q201 535 201 573T240 611H439Q480 611 478 573Q478 556 471 547T457 537T440 535H407V139Q407
97 392 67T351 21T298 -1T241 -8Q167 -8 122 21T76 100Z" />
<glyph unicode="K" glyph-name="K" d="M19 38Q19 75 58 75H82V535H57Q19 535 19 571Q19 611 59 611H175Q213 611 213 573T173 535H150V302L334 535Q302 538 302 574Q302 611 342 611H447Q456 611 462 610T477 600T485 573T478 547T464 537T445 535H436Q424 535
421 534T410 522L279 356L436 75H456Q495 75 495 38Q495 20 487 11T471 1T450 0H363Q325 0 325 39Q323 72 359 75L234 298Q231 294 226 288T203 259T161 205Q150 191 150 175V75H173Q213 75 213 40Q213 0 174 0H56Q19 0 19 38Z" />
<glyph unicode="L" glyph-name="L" d="M24 39Q23 55 31 63T46 73T66 75H101V535H66Q54 535 47 536T32 547T24 573Q24 595 34 603T62 611H242Q282 611 282 575Q282 557 275 548T261 537T240 535H185V75H405V149Q405 165 412 173T425 183T443 185H447Q460 185 467
184T481 175T489 149V41Q489 28 487 21T476 7T449 0H61Q24 0 24 39Z" />
<glyph unicode="M" glyph-name="M" d="M12 38Q12 75 48 75H65V535H49Q12 535 12 574Q12 583 13 589T24 603T50 611H129Q138 611 145 610T157 604T166 597T173 588T177 578T180 568T183 560Q256 329 262 274Q265 318 341 561L343 568Q345 574 345 575T348 582T352
590T357 596T363 602T372 606T382 610T395 611H474Q485 611 492 609T505 598T512 571Q512 535 475 535H459V75H475Q514 75 512 38Q512 29 511 23T501 8T473 0H375Q338 0 338 38Q338 75 374 75H391V515L390 541Q388 514 367 437T326 297T302 228Q288 204 262 204Q255
204 249 206T238 210T230 217T223 226T217 239T213 252T208 268T202 285Q140 481 133 541V75H149Q188 75 186 38Q186 29 185 23T175 8T147 0H50Q12 0 12 38Z" />
<glyph unicode="N" glyph-name="N" d="M21 36Q21 44 22 49T26 61T38 71T61 75H86V535H60Q21 535 21 573T59 611H150Q157 611 163 610T173 607T181 603T188 597T193 591T197 585T199 579T202 573L203 569L325 215Q364 97 369 70V535H342Q303 535 303 573T343 611H464Q502
611 502 575Q502 567 501 562T497 550T485 539T462 535H437V38Q437 0 398 0H375Q367 0 361 0T350 3T342 8T334 15T328 24T322 36T317 51T311 69T303 90L205 374Q162 504 154 541V75H182Q220 75 220 40Q220 0 180 0H59Q21 0 21 36Z" />
<glyph unicode="O" glyph-name="O" d="M56 275V313Q56 431 63 492T91 579Q124 619 246 619H261Q386 619 421 591T465 453Q468 416 468 305Q468 225 467 180T457 95T437 38T400 9T345 -6T264 -8H249Q154 -8 119 10T72 75Q56 137 56 275ZM140 316Q140 267 140 241T142
184T147 140T156 109T171 87T193 75T223 68T263 67Q299 67 320 72T354 89T373 124T381 179T384 260Q384 268 384 272V330Q384 382 383 412T378 470T366 509T345 530T314 542T269 544Q236 544 219 543T184 533T160 513T148 473T141 413T140 323V316Z" />
<glyph unicode="P" glyph-name="P" d="M18 38Q18 75 57 75H89V535H57Q18 535 18 572Q18 611 55 611H289Q343 611 382 593T442 545T471 484T480 421Q480 387 471 357T442 296T381 248T285 230H173V75H205Q243 75 243 40Q243 29 242 23T232 8T203 0H57Q18 0 18 38ZM173
305H267Q339 305 368 340T397 420Q397 438 392 455T374 492T333 523T265 535H173V305Z" />
<glyph unicode="Q" glyph-name="Q" d="M56 284V337Q57 408 58 446T68 522T87 574T122 601T176 616T255 619H270Q309 619 331 618T386 606T434 577Q468 533 468 333V292Q468 177 460 118T438 39T394 6Q403 -11 412 -29T426 -57T437 -78T445 -94T450 -105T453 -114T454
-119Q454 -139 427 -139H394Q378 -139 371 -135T356 -115Q338 -78 326 -53T309 -20T303 -8H249Q192 -8 158 -2T104 20T77 57T64 113Q56 167 56 284ZM140 304Q140 244 141 213T146 150T156 106T177 83T209 70T256 67H266Q258 84 247 105T232 136T228 151Q228 171
257 171H294Q306 170 310 165T337 116Q347 98 353 86Q363 96 369 108T379 162T384 275V332Q384 387 383 421T374 480T360 517T335 535T301 543T252 544Q212 544 192 539T160 510T144 452T140 348V304Z" />
<glyph unicode="R" glyph-name="R" d="M15 36Q15 47 16 53T26 67T55 75H80V535H54Q15 535 15 573T54 611H237Q338 611 385 560T433 439Q433 345 360 299L364 294Q369 290 370 289T375 282T382 273T388 264T394 252T398 240T402 225T405 208T406 189V133Q406 95
412 83T432 67Q435 75 437 95T448 123T481 131Q522 131 522 95Q522 56 498 24T432 -8Q389 -8 356 23T322 131V205Q321 216 315 228T287 254T234 268H164V75H192Q230 75 230 40Q230 0 190 0H54Q15 0 15 36ZM164 343H224Q293 343 321 372T349 439Q349 477 322 506T224
536Q222 536 219 536T215 535H164V343Z" />
<glyph unicode="S" glyph-name="S" d="M52 30V167Q53 203 90 203Q116 203 126 195T136 175T140 144T159 109Q199 67 284 67Q342 67 367 97T392 165Q392 200 375 222T338 253Q322 261 250 277T159 301Q120 317 86 355T52 454Q52 520 99 569T236 619Q316 619 372
578Q385 609 395 615Q402 619 413 619Q445 619 445 581V444Q445 434 444 428T433 414T407 407H397Q370 407 363 429Q363 430 361 441T356 464T344 491T323 517T287 536T235 544Q180 544 156 518T132 458Q132 427 153 405T201 375Q222 368 254 362T309 350T358 335T405
309T443 266Q472 222 472 170Q472 96 424 44T285 -8Q191 -8 126 32Q125 30 122 24T118 14T113 6T106 -1T97 -6T84 -8Q52 -8 52 30Z" />
<glyph unicode="T" glyph-name="T" d="M26 480V573Q26 611 64 611H461Q479 611 488 602T497 586T498 568V483Q498 441 461 441H455Q437 441 428 447T416 461T414 481V535H304V75H357Q396 75 396 38Q396 15 386 8T358 0H166Q127 0 128 38Q128 55 135 63T149 73T167
75H220V535H110V481Q110 456 100 449T66 441H63Q26 441 26 480Z" />
<glyph unicode="U" glyph-name="U" d="M-3 573Q-4 611 36 611H183Q222 611 222 575Q222 566 221 561T217 549T205 539T182 535H152V212Q152 131 185 99T263 67Q282 67 299 73T335 93T363 139T374 214V535H342Q303 535 303 573T341 611H489Q528 611 528 573Q528
556 521 547T507 537T490 535H457V215Q457 162 444 121T410 56T362 17T311 -3T263 -8Q231 -8 201 1T139 33T88 102T68 214V535H35Q-4 535 -3 573Z" />
<glyph unicode="V" glyph-name="V" d="M18 573Q18 595 28 603T56 611H180Q219 611 217 573Q217 535 181 535H163L231 245L249 161L260 96L262 70Q263 107 282 198T330 407T361 535H344Q305 535 307 573Q306 591 316 601T344 611H468Q506 611 506 575Q506 567 505
562T501 550T489 539T466 535H447L326 39Q318 7 301 -1Q292 -5 280 -5H247Q233 -5 224 -2T210 10T203 22T198 38L88 488Q79 523 77 535H56Q18 535 18 573Z" />
<glyph unicode="W" glyph-name="W" d="M11 574Q11 584 12 590T23 604T49 611H147Q183 611 183 572Q184 535 146 535H118L156 237L168 123L170 92L171 70Q172 118 183 185T204 297L215 341Q225 367 258 367H263Q297 367 308 342Q314 328 331 237T352 99Q352 94
352 85T353 70Q357 144 364 215T386 396T405 535H378Q341 535 341 572Q341 594 351 602T387 611H474Q483 611 489 610T504 600T512 572Q514 535 473 535Q470 515 465 475T457 415L407 35Q405 17 397 8T381 -3T361 -5H355Q347 -5 342 -4T331 -1T323 5T316 14T311
26T306 42T302 62T297 86T291 115Q266 229 261 297Q260 265 248 197T223 75L211 22Q201 -5 168 -5H162Q150 -5 143 -3T127 8T117 35L50 535Q40 535 33 536T19 547T11 574Z" />
<glyph unicode="X" glyph-name="X" d="M27 38Q26 75 66 75H95L215 327L107 535H78Q38 535 38 571Q38 596 49 603T88 611H200Q211 611 218 610T232 599T239 572Q240 557 232 546T201 535L257 426L307 535Q287 535 278 543T267 557T266 574Q266 611 303 611H428Q438
611 444 610T458 599T466 573Q466 535 427 535H398L298 326L426 75H453Q476 75 485 68T495 37Q495 0 458 0H334Q323 0 316 1T302 12T295 39Q295 75 335 75L256 237L185 75Q199 75 206 74T220 64T227 37Q229 0 191 0H65Q25 0 27 38Z" />
<glyph unicode="Y" glyph-name="Y" d="M19 571Q19 611 57 611H183Q219 611 219 573T182 535H178L235 405L250 364L259 332L262 314L264 326Q282 392 346 535Q331 535 322 539T309 551T306 562T305 574Q303 611 342 611H467Q505 611 505 573T466 535H439L311 259L305
244L304 223V75H331Q369 75 369 40Q369 0 330 0H194Q155 0 155 36Q155 47 156 53T166 67T195 75H220V223L219 244L86 535H57Q19 535 19 571Z" />
<glyph unicode="Z" glyph-name="Z" d="M47 40Q47 46 47 51T48 59T52 67T57 74T64 86T74 100L367 535H143V477Q144 441 104 441H97Q87 441 81 442T67 453T59 479V574Q59 584 61 591T72 604T98 611H437Q455 611 464 604T475 590T477 572Q477 551 467 536L157 75H397V150Q397
174 408 181T440 189Q452 189 459 188T474 177T481 150V38Q481 0 443 0H83Q47 1 47 40Z" />
<glyph unicode="[" glyph-name="bracketleft" d="M209 -48V655Q209 677 218 685T247 694H445Q484 694 484 658Q484 632 474 626T439 619H293V-8H439Q451 -8 457 -8T470 -12T481 -24T484 -47Q484 -83 447 -83H247Q209 -83 209 -48Z" />
<glyph unicode="\" glyph-name="backslash" d="M58 657Q58 673 70 683T96 694Q120 694 135 662L457 -18Q466 -36 466 -46Q466 -60 455 -71T428 -83Q403 -83 388 -50L66 631Q58 645 58 657Z" />
<glyph unicode="]" glyph-name="bracketright" d="M40 -45Q40 -8 79 -8H232V619H79Q68 619 61 620T47 630T40 655Q40 679 50 686T79 694H278Q315 694 315 659V-38Q315 -39 315 -41T316 -44Q316 -66 307 -74T278 -83H80Q40 -83 40 -45Z" />
<glyph unicode="^" glyph-name="asciicircum" d="M72 476Q72 490 80 497T105 510Q256 569 261 569H262Q266 569 422 508Q451 498 451 476Q451 465 442 445T413 425H411Q402 425 334 455T264 485Q255 485 189 455T111 425Q92 425 82 445T72 476Z" />
<glyph unicode="_" glyph-name="underscore" d="M56 -72Q56 -64 59 -56T73 -39T105 -30H419Q438 -30 450 -38T465 -55T468 -72T465 -88T451 -105T419 -114H105Q77 -114 67 -100T56 -72Z" />
<glyph unicode="`" glyph-name="grave" d="M110 599Q110 615 122 628T152 641H153Q158 641 290 610Q294 609 299 608T314 598T323 578Q323 571 322 561T311 539T288 526H287Q282 526 150 557Q110 565 110 599Z" />
<glyph unicode="a" glyph-name="a" d="M47 138Q47 177 74 205T148 247T244 268T347 275Q347 290 347 297T340 322T323 349T289 367T231 375Q210 375 197 375T177 372T168 369T163 363T159 355Q147 338 125 338Q108 338 96 350T83 380Q83 422 122 436T234 450Q272
450 304 442T367 416T414 363T431 277V81Q445 76 472 76T512 70T524 37Q524 0 488 0H465Q418 0 391 9T352 43Q283 -4 203 -4Q133 -4 90 40T47 138ZM131 138Q131 110 158 91T225 71Q241 71 259 74T298 86T333 113T347 157V211Q248 209 190 190T131 138Z" />
<glyph unicode="b" glyph-name="b" d="M4 573Q3 596 15 603T44 611H131Q146 611 155 608T168 598T172 585T173 570V397Q233 448 304 448Q387 448 440 388T493 223Q493 111 433 54T292 -4Q225 -4 173 48V40Q173 0 137 0H128Q89 0 89 37V535H40Q2 535 4 573ZM173
187Q173 153 201 112T279 71Q338 71 373 112T409 222Q409 301 373 337T289 373Q243 373 208 342T173 278V187Z" />
<glyph unicode="c" glyph-name="c" d="M65 222Q65 321 125 385T295 450H302Q332 450 351 449T398 441T439 420T454 380Q454 362 442 350T412 338Q379 338 371 370Q350 375 300 375Q218 375 184 330T149 223Q149 151 195 111T310 71Q362 71 381 120Q388 138 396
142T419 147H423Q465 147 465 118Q465 108 457 90T430 50T375 12T290 -4Q189 -4 127 58T65 222Z" />
<glyph unicode="d" glyph-name="d" d="M31 220Q31 282 50 328T99 399T163 436T230 448Q298 448 351 401V535H304Q266 535 266 574Q264 610 301 611H397Q415 611 424 603T434 587T435 566V75H480Q520 75 520 37Q522 0 483 0H385Q351 0 351 37V54Q295 -4 222 -4Q138
-4 85 58T31 220ZM115 222Q115 143 151 107T235 71Q288 71 320 115T351 191V279Q351 311 320 342T245 373Q186 373 151 332T115 222Z" />
<glyph unicode="e" glyph-name="e" d="M47 224Q47 326 109 388T269 450Q293 450 315 446T366 428T415 389T449 321T464 218Q464 183 425 183H135Q153 122 199 97T302 71Q350 71 374 111Q377 116 382 126T389 138T400 144T422 147H425Q463 147 463 116Q463 81 415
39T283 -4Q177 -4 112 58T47 224ZM133 252H378Q370 375 269 375Q212 375 176 342T133 252Z" />
<glyph unicode="f" glyph-name="f" d="M35 38Q35 75 73 75H177V369H81Q43 369 43 404Q43 444 81 444H177V477Q177 516 193 544T236 587T292 608T353 615Q399 615 418 597T437 557Q437 539 425 527T396 514Q371 514 358 539Q349 540 337 540Q309 540 292 534T268
514T261 495T260 478V444H376Q416 444 416 405Q416 369 376 369H260V75H365Q374 75 380 74T394 64T402 37Q402 0 362 0H72Q35 0 35 38Z" />
<glyph unicode="g" glyph-name="g" d="M29 -79Q29 2 93 42Q71 74 71 111T92 180V182Q60 226 60 283Q60 357 108 402T234 448Q293 448 336 420H337Q378 452 435 452Q468 452 489 436T510 395Q510 377 498 365T468 353Q444 353 430 377L408 375L384 370Q406 327
406 283Q406 209 358 164T233 118Q181 118 138 141Q134 128 134 116Q134 97 145 82T185 67H273Q390 67 444 28Q495 -10 495 -80Q495 -104 484 -128T448 -175T376 -212T263 -227Q138 -227 84 -181T29 -79ZM99 -76Q99 -108 136 -134T264 -160Q339 -160 382 -138T425
-78Q425 -53 412 -37T373 -14T324 -5T267 -3H187Q136 -3 118 -26T99 -76ZM144 283Q144 241 166 213T233 185Q274 185 298 211T322 284Q322 326 300 353T233 381Q197 381 171 358T144 283Z" />
<glyph unicode="h" glyph-name="h" d="M4 37Q4 75 43 75Q43 75 89 75V535H42Q4 535 4 575Q5 611 43 611H135Q153 611 162 602T172 587T173 569V392Q231 448 305 448Q348 448 376 433T416 391T431 341T435 288V75H482Q520 75 520 38Q520 0 483 0H323Q284 0 284
35Q284 47 285 53T295 67T324 75H352V287Q352 331 341 352T289 373Q247 373 210 340T173 231V75H219Q258 75 258 38Q258 0 219 0H42Q4 0 4 37Z" />
<glyph unicode="i" glyph-name="i" d="M71 38Q71 59 80 67T110 75H233V369H120Q79 369 79 404Q79 412 80 417T84 429T96 440T119 444H280Q316 444 316 405V75H423Q464 75 462 38Q462 0 424 0H108Q71 0 71 38ZM197 548T197 565T211 596T257 611Q283 611 299 598T316
565Q316 548 302 534T256 520Q225 520 211 534Z" />
<glyph unicode="j" glyph-name="j" d="M47 -155Q47 -136 59 -124T89 -112Q121 -112 130 -145Q152 -151 190 -151H197Q244 -151 267 -119T291 -35V369H160Q121 369 121 406Q121 444 159 444H337Q375 444 375 405V-36Q375 -122 322 -174T188 -226H181Q102 -226 73
-205Q47 -186 47 -155ZM255 548T255 565T269 596T316 611Q342 611 358 598T375 565Q375 548 361 534T314 520Q283 520 269 534Z" />
<glyph unicode="k" glyph-name="k" d="M14 38Q13 75 54 75Q54 75 104 75V535H54Q42 535 35 537T21 548T14 575Q15 611 52 611H132Q172 611 172 572V233L304 369H273Q236 369 236 408Q236 424 243 432T258 442T277 444H446Q485 444 485 406Q485 369 449 369H412Q401
368 386 353Q384 351 293 259L428 75H465Q507 75 507 38Q507 0 469 0H332Q295 0 295 37Q295 76 334 76Q336 76 339 76T344 75L245 210Q235 200 226 191T210 175T198 162T189 153T183 146T178 140T175 136T174 133T173 130T172 125V75H222Q262 75 261 38Q262 15
250 8T221 0H54Q43 0 36 2T21 13T14 38Z" />
<glyph unicode="l" glyph-name="l" d="M50 36Q50 54 57 63T71 73T90 75H220V535H88Q77 535 71 536T57 547T50 575Q50 611 89 611H266Q304 611 304 570V75H435Q474 75 474 38Q474 21 467 12T453 2T436 0H88Q51 0 50 36Z" />
<glyph unicode="m" glyph-name="m" d="M-11 38Q-11 75 26 75Q26 75 46 75V369H28Q14 369 5 373T-7 385T-10 397T-11 410Q-11 444 26 444H67H70Q74 445 76 445Q112 445 114 410Q154 448 204 448Q256 448 283 394Q322 448 387 448Q445 448 467 391Q479 358 479 297V75H496Q515
75 524 67T535 53T536 37Q536 0 499 0H409Q371 0 371 39Q370 59 381 67T412 75V291Q412 315 411 330T400 359T375 373Q341 373 319 335T297 232V75H315Q354 75 354 38Q354 0 314 0H226Q188 0 188 39Q187 59 198 67T229 75V291Q229 315 228 330T217 359T192 373Q157
373 136 334T114 232V75H132Q170 75 170 38Q170 0 133 0H27Q-11 0 -11 38Z" />
<glyph unicode="n" glyph-name="n" d="M4 37Q4 75 43 75Q43 75 89 75V369H44Q32 369 25 370T11 381T4 409Q4 444 40 444H135Q173 444 173 408V392Q231 448 305 448Q348 448 376 433T416 391T431 341T435 288V75H482Q520 75 520 38Q520 0 483 0H323Q284 0 284 35Q284
47 285 53T295 67T324 75H352V287Q352 331 341 352T289 373Q247 373 210 339T173 231V75H219Q258 75 258 38Q258 0 219 0H42Q4 0 4 37Z" />
<glyph unicode="o" glyph-name="o" d="M52 222Q52 328 110 389T262 450Q355 450 413 388T472 222T414 57T261 -4Q167 -4 110 57T52 222ZM136 231Q136 148 175 110T262 71Q317 71 352 113T388 230Q388 297 353 336T262 375Q211 375 174 340T136 231Z" />
<glyph unicode="p" glyph-name="p" d="M4 -187Q4 -169 11 -160T25 -149T43 -147H89V369H43Q20 369 12 378T4 409Q4 444 46 444H132Q158 444 165 434T173 405V397Q233 448 304 448Q386 448 439 387T493 223Q493 110 433 53T292 -4Q225 -4 173 48V-147H219Q258 -147
258 -184Q258 -222 219 -222H44Q4 -222 4 -187ZM173 187Q173 153 201 112T279 71Q338 71 373 112T409 222Q409 301 373 337T289 373Q242 373 208 342T173 278V187Z" />
<glyph unicode="q" glyph-name="q" d="M33 222Q33 330 95 389T244 448Q315 448 372 391V408Q372 426 379 435T393 446T412 448H417Q431 448 439 445T451 433T454 420T455 405V-147H506Q546 -147 545 -184Q545 -200 538 -209T524 -220T506 -222H321Q282 -222 282
-186Q282 -168 289 -159T303 -149T321 -147H372V52Q308 -4 232 -4Q146 -4 90 57T33 222ZM117 222Q117 152 153 112T247 71Q297 71 334 106T372 175V240Q372 287 340 330T257 373Q196 373 157 334T117 222Z" />
<glyph unicode="r" glyph-name="r" d="M24 40Q24 75 62 75H145V369H62Q44 369 35 376T25 391T24 410Q24 444 63 444H193Q229 444 229 402V365Q256 401 298 424T393 448Q443 448 465 429T487 384Q487 366 475 354T446 342Q415 342 405 372Q404 372 400 372T395
373Q327 373 278 321T229 173V75H342Q352 75 358 74T373 64T381 36Q381 0 341 0H62Q45 0 36 7T25 21T24 40Z" />
<glyph unicode="s" glyph-name="s" d="M72 32V129Q72 153 82 160T119 167Q143 167 152 151Q154 148 159 135T170 114T187 94T219 77T269 71Q379 71 379 130Q379 144 363 160Q341 178 291 186T188 207T104 250Q72 280 72 324Q72 374 114 412T264 450Q323 450 365
433Q378 450 397 450Q430 450 430 415V346Q430 327 425 318T412 307T391 305H383Q363 305 355 312T346 329T341 350T318 368T261 375Q152 375 152 329Q152 308 183 296Q204 287 256 280T355 258T431 209Q459 176 459 134Q459 110 451 89T424 45T365 10T269 -4Q201
-4 144 28Q133 9 126 3T104 -4Q72 -4 72 32Z" />
<glyph unicode="t" glyph-name="t" d="M25 404Q25 444 63 444H145V534Q145 551 153 560T168 570T187 571H192Q199 571 203 570T215 566T225 555T229 534V444H391Q428 444 428 406Q428 369 393 369H229V162Q229 146 229 137T233 113T243 91T263 77T296 71Q318 71
342 90Q355 107 360 119T365 143T367 159Q374 182 406 182Q450 182 450 147Q450 90 402 43T282 -4Q264 -4 247 0T207 14T169 51T148 115Q145 140 145 165V369H63Q25 369 25 404Z" />
<glyph unicode="u" glyph-name="u" d="M4 368T4 406T38 444H136Q154 444 163 435T172 420T173 401V115Q173 100 176 92T195 78T244 71Q292 71 319 90T351 134Q352 142 352 157V369H305Q266 369 266 406Q266 444 305 444H398Q435 444 435 406V75H482Q500 75 509
67T519 53T520 38Q521 15 509 8T480 0H390Q354 0 352 33Q298 -4 225 -4Q160 -4 125 20T89 113V369H56Q55 369 52 369T45 368Q4 368 4 406Z" />
<glyph unicode="v" glyph-name="v" d="M23 406Q23 429 33 436T61 444H193Q210 444 222 437T233 406Q234 369 194 369H167L262 69L356 369H329Q290 369 290 404Q290 416 291 423T302 437T330 444H462Q481 444 490 436T500 406Q500 369 463 369H427Q423 354 416
335L322 36Q310 -3 271 -3H252Q213 -3 201 33L107 332Q100 353 96 369H62Q23 369 23 406Z" />
<glyph unicode="w" glyph-name="w" d="M15 409Q15 444 52 444H189Q229 444 227 406Q227 389 220 381T206 371T188 369H137L176 111L179 89L180 70Q181 108 212 223Q217 243 226 253T242 265T263 267H269Q277 267 283 266T293 263T302 257T308 250T313 240T316
231T319 219T323 207Q342 132 346 70Q348 107 353 149T363 221T375 297T387 369H335Q324 369 317 370T304 381T297 408Q297 444 335 444H471Q509 444 509 405Q509 369 470 369H456Q453 347 445 303L401 35Q397 14 387 6T357 -3H342Q334 -3 328 -2T317 1T308 8T302
16T297 27T293 38T290 52T286 67Q267 143 265 197Q265 153 251 90T228 15Q215 -3 189 -3H168Q129 -3 123 35L79 303Q71 347 68 369H53Q43 369 37 370T23 381T15 409Z" />
<glyph unicode="x" glyph-name="x" d="M27 39Q27 75 66 75H102Q108 75 111 76T116 79T122 86T129 95Q162 141 185 172T215 214T226 229V230L122 369H73Q33 369 33 404Q33 415 34 421T44 436T71 444H207Q244 444 244 407Q244 390 237 381T223 371T206 369H202L260
289L314 369Q286 369 279 379T271 407Q271 444 308 444H443Q482 444 482 406Q483 369 443 369H406Q402 369 399 369T394 366T390 363T385 358T381 351L292 230Q298 221 350 152T406 79Q411 75 420 75H450L452 76Q455 76 457 76Q495 76 495 37Q495 0 457 0H320Q284
0 284 37Q284 62 295 68T325 75H330L259 181L191 75H199Q238 75 238 37Q238 0 201 0H65Q27 0 27 39Z" />
<glyph unicode="y" glyph-name="y" d="M26 406Q26 444 64 444H196Q236 444 236 406Q236 369 196 369H174L238 192L256 136L269 91L273 70Q274 86 285 128T307 209T336 301T357 369H331Q291 369 291 407Q291 430 301 437T331 444H463Q473 444 480 443T494 432T501
406Q501 369 464 369H427Q424 360 419 343T411 318L293 -55Q239 -226 126 -226Q86 -226 64 -201T42 -148Q42 -125 55 -115T84 -105Q100 -105 112 -115T125 -141Q125 -148 124 -151Q141 -150 154 -146T178 -132T196 -114T209 -90T219 -67T227 -41T234 -18Q238 -7
238 -1Q238 4 234 15L115 333Q113 339 108 351T101 369H66Q55 369 49 370T34 380T26 406Z" />
<glyph unicode="z" glyph-name="z" d="M32 39Q32 52 34 59T39 69T49 80L344 369H132V341Q132 323 125 314T111 303T91 301H88Q73 301 64 304T52 317T49 330T48 345V399Q48 410 48 415T52 428T64 440T87 444H433Q450 444 459 437T469 423T471 405Q471 396 471 391T467
380T461 372T452 362T440 351L160 75H391V115Q391 128 392 134T404 147T433 154Q445 154 452 153T467 143T475 117Q475 116 475 113T474 109V47Q474 46 474 43T475 38Q475 0 436 0H68Q32 1 32 39Z" />
<glyph unicode="{" glyph-name="braceleft" d="M49 305Q49 331 65 340Q69 342 103 343T172 354T216 386Q220 395 220 416V569Q220 603 235 627T270 664T322 684T377 692T430 694H438Q458 694 466 685T474 660Q475 640 468 630T439 619H425Q368 618 340 610T308
593T304 566V409Q306 341 243 306V305Q304 273 304 201V40Q304 24 309 16T341 1T423 -8H438Q474 -8 474 -45T440 -83H419Q238 -83 221 16Q220 20 220 43V197Q220 211 220 217T211 234T184 252Q160 262 132 264T87 267T60 274T49 305Z" />
<glyph unicode="|" glyph-name="bar" d="M220 -32V644Q220 665 229 677T246 691T262 694T278 692T294 677T303 645V-30Q303 -83 262 -83Q220 -83 220 -32Z" />
<glyph unicode="}" glyph-name="braceright" d="M49 -82T49 -45T86 -8H100Q155 -7 182 0T215 16T220 40V201Q218 270 280 305V306Q220 338 220 409V566Q220 584 216 592T184 609T98 619H85Q49 619 49 654V660Q49 694 87 694H99Q210 694 257 662T304 569V409Q304
397 306 389T318 372T349 355Q377 346 412 345T461 338T474 307Q474 279 458 271Q454 269 420 268T352 257T308 227Q304 220 304 197V43Q304 -17 260 -49T95 -83H83Q49 -82 49 -45Z" />
<glyph unicode="~" glyph-name="asciitilde" d="M71 509Q71 529 114 570T201 611Q234 611 272 582T323 553Q342 553 369 581T410 610Q425 610 438 597T452 571Q452 550 408 509T322 468Q289 468 252 497T201 526Q182 526 154 498T112 469Q99 469 85 481T71 509Z" />
</font>
</defs>
</svg>
