<?xml version="1.0" standalone="no"?> <!DOCTYPE svg PUBLIC "-//W3C//DTD SVG 1.0//EN" "http://www.w3.org/TR/2001/REC-SVG-20010904/DTD/svg10.dtd" > <svg xmlns="http://www.w3.org/2000/svg" width="100%" height="100%">
<defs >
<font id="cmunit" horiz-adv-x="525" ><font-face
    font-family="CMU Typewriter Text"
    units-per-em="1000"
    panose-1="2 0 6 9 0 0 0 0 0 0"
    ascent="827"
    descent="-233"
    alphabetic="0" />
<missing-glyph d="M10 10V765H515V10H10ZM70 112L232 388L70 663V112ZM105 70H420L262 337L105 70ZM105 705L262 438L420 705H105ZM292 388L455 112V663L292 388Z" />
<glyph unicode=" " glyph-name="space" />
<glyph unicode="!" glyph-name="exclam" d="M214 55Q214 82 235 103T286 125Q309 125 325 110T341 71Q341 41 319 21T270 0Q246 0 230 16T214 55ZM270 231Q270 235 272 243T274 253L338 557Q346 593 367 607T410 622Q433 622 449 607T466 569Q466 564 461 544L373
238Q367 217 361 210T333 202H305Q270 202 270 231Z" />
<glyph unicode="&quot;" glyph-name="quotedbl" d="M233 356Q233 363 269 557L270 562Q271 568 271 571T274 582T278 593T285 603T294 612T306 618T322 621Q339 621 351 610T363 581Q363 573 297 362Q297 361 296 357T293 350T289 343T283 335T275 330T263 328Q250
328 242 335T233 356ZM408 356Q408 360 445 557L446 562Q447 568 447 571T450 582T454 593T461 603T470 612T482 618T498 621Q516 621 527 610T539 581Q539 572 473 362Q473 361 472 357T469 350T465 343T459 335T451 330T439 328Q425 328 417 336T408 356Z" />
<glyph unicode="#" glyph-name="numbersign" d="M120 197Q120 229 159 229H205L260 382H214Q174 382 174 414Q174 420 176 426T188 438T211 444H282Q283 448 285 455T292 473T305 511T327 572Q332 586 334 591T344 603T362 610Q374 610 383 602T393 580Q393 573
348 444H428Q429 448 431 455T438 473T451 511T473 572Q478 586 480 591T490 603T508 610Q520 610 529 602T538 580Q538 573 493 444H517Q555 444 555 413T517 382H470L416 229H462Q501 229 501 198T465 167H394Q344 26 341 20Q329 1 313 0Q301 0 292 9T283 31Q283
40 328 167H248Q237 135 221 88Q200 26 193 13T168 0Q156 0 147 9T137 31Q137 38 183 167H159Q121 167 120 197ZM271 229H351L405 382H325L271 229Z" />
<glyph unicode="$" glyph-name="dollar" d="M127 125Q127 216 182 216Q200 216 211 205T223 176Q223 151 197 133V126Q197 71 245 59L303 291Q250 304 225 341T199 420Q199 484 249 543T384 615Q395 664 402 679T429 694Q443 694 451 686T459 666Q459 661 447
613Q482 606 505 590T536 553T548 519T551 491Q551 407 497 407Q479 407 468 418T457 447Q457 473 482 490Q482 512 473 526T456 544T432 553L380 344Q426 333 453 297T481 209Q481 134 425 71T293 -3Q285 -40 281 -53T269 -74T248 -83Q232 -83 225 -74T218 -55Q218
-54 229 -2Q183 7 155 39T127 125ZM265 427Q265 375 320 360L367 548Q323 533 294 499T265 427ZM310 64Q355 81 385 120T415 202Q415 256 363 275L310 64Z" />
<glyph unicode="%" glyph-name="percent" d="M97 -49Q97 -38 108 -20L509 670Q523 694 544 694Q558 694 568 684T578 659Q578 651 569 633L167 -58Q152 -83 132 -83Q118 -83 108 -73T97 -49ZM203 509Q203 566 234 630T310 694Q331 694 348 676T365 612Q365 553
333 491T258 428Q203 428 203 509ZM261 514Q261 506 263 492Q283 511 295 544T307 608Q307 616 305 630Q282 606 272 573T261 514ZM311 -3Q311 60 343 121T417 183Q446 183 459 159T472 102Q472 40 440 -21T365 -83Q337 -83 324 -60T311 -3ZM368 3Q368 -8 371 -18Q393
4 404 37T415 97Q415 111 413 118Q391 96 380 63T368 3Z" />
<glyph unicode="&amp;" glyph-name="ampersand" d="M88 167Q88 210 109 264T160 355Q156 374 156 396Q156 476 208 549T324 622Q362 622 388 598T414 537Q414 505 398 491T363 476Q346 476 334 488T322 517Q322 536 339 553V554Q329 560 321 560Q295 560 265 516T227
416Q254 430 278 430Q303 430 317 414T332 370Q332 334 310 302T254 270Q226 270 197 291Q158 217 158 167Q158 116 194 84T288 51Q354 51 408 91T487 222Q475 220 469 220Q435 220 408 244T381 307Q381 326 387 343T406 374T428 397T455 419T477 436Q508 462 526
495T548 552T562 593T593 610Q606 610 616 601T626 577Q626 571 621 550T599 489T555 416Q577 383 577 336Q577 303 566 246T534 147Q512 100 479 67T411 18T346 -4T287 -11Q195 -11 142 41T88 167ZM236 345L244 337L250 332L257 347L262 364L250 357L236 345ZM451
308Q451 297 460 285Q469 289 477 289T501 280Q507 314 507 331Q507 347 500 367Q451 331 451 308Z" />
<glyph unicode="&apos;" glyph-name="quotesingle" d="M321 356Q321 363 357 557Q357 557 358 562Q359 568 359 571T362 582T366 593T373 603T382 612T394 618T410 621Q427 621 439 610T451 581Q451 573 385 362Q385 361 384 357T381 350T377 343T371 335T363
330T351 328Q338 328 330 335T321 356Z" />
<glyph unicode="(" glyph-name="parenleft" d="M242 177Q242 318 316 460T519 685Q532 694 545 694Q559 694 567 686T575 667Q575 649 552 634Q438 556 375 425T311 171Q311 114 324 71T353 7T382 -29T395 -54Q395 -67 387 -75T365 -83Q344 -83 311 -41Q242 46 242 177Z" />
<glyph unicode=")" glyph-name="parenright" d="M102 -55Q102 -38 128 -21Q241 58 303 189T366 441Q366 497 353 540T324 603T295 640T282 667Q282 678 290 686T312 694Q333 694 364 655Q435 568 435 432T365 159T175 -62Q172 -64 166 -68T155 -75T145 -80T132
-83Q119 -83 111 -75T102 -55Z" />
<glyph unicode="*" glyph-name="asterisk" d="M150 209Q150 232 188 253Q276 301 284 305Q204 365 199 373Q195 378 195 386Q195 402 208 415T237 428Q245 428 251 424T288 393Q308 376 322 364Q326 380 330 399T336 430T342 455T347 476T353 492T360 505T368
513T379 518T392 520Q406 520 412 512T418 498Q418 491 409 458T392 394L383 364Q398 373 414 383T440 398T458 410T473 418T484 423T493 427T500 428Q512 428 519 421T526 402Q525 385 512 374T443 333Q412 317 393 306Q473 246 478 238Q482 233 482 225Q482 210
469 197T440 184Q430 184 419 192T354 247Q350 225 329 134Q319 91 285 91Q259 91 259 116Q259 122 263 136T276 183T293 247Q195 187 185 185Q181 184 176 184Q166 184 158 191T150 209Z" />
<glyph unicode="+" glyph-name="plus" d="M150 305Q150 337 188 337H314L355 499Q363 530 387 530Q399 530 408 522T417 499Q417 494 400 423T378 337H484Q498 337 504 335Q527 328 527 306Q527 300 525 294T514 282T490 275H362L322 112Q314 81 290 81Q277 81
268 89T259 112Q259 131 299 275H190Q150 275 150 305Z" />
<glyph unicode="," glyph-name="comma" d="M162 -107Q162 -94 173 -86T199 -73T236 -48T275 0Q240 1 227 17T214 53Q214 81 235 103T286 125Q315 125 333 104T352 50Q352 3 314 -52T209 -134Q197 -138 192 -138Q181 -138 172 -129T162 -107Z" />
<glyph unicode="-" glyph-name="hyphen" d="M168 213Q168 246 204 246H427Q463 246 463 217Q463 211 461 205T451 192T427 185H203Q183 185 176 194T168 213Z" />
<glyph unicode="." glyph-name="period" d="M214 55Q214 82 235 103T286 125Q309 125 325 110T341 71Q341 41 319 21T270 0Q246 0 230 16T214 55Z" />
<glyph unicode="/" glyph-name="slash" d="M78 -52Q78 -43 91 -22L536 670Q552 694 568 694Q580 694 589 685T599 663Q599 651 588 636L142 -56Q141 -57 139 -61T135 -67T130 -72T124 -78T117 -81T108 -83Q96 -83 87 -74T78 -52Z" />
<glyph unicode="0" glyph-name="zero" d="M139 179Q139 284 182 388T291 557T417 622Q473 622 505 569T537 431Q537 331 496 227T389 56T259 -11Q202 -11 171 43T139 179ZM210 181Q210 163 212 145T220 104T240 66T274 51Q319 51 365 117T440 272T469 432Q469
489 452 524T402 560Q358 560 313 501T239 353T210 181Z" />
<glyph unicode="1" glyph-name="one" d="M137 29Q137 62 172 62H254L354 464Q308 435 274 435Q241 435 241 465Q241 490 262 496Q264 497 275 498T297 503T323 516T358 547T397 599Q410 619 427 619Q439 619 448 611T457 591Q457 590 454 575L339 113Q331 79 326
62H394Q427 61 427 33Q427 0 391 0H172Q137 0 137 29Z" />
<glyph unicode="2" glyph-name="two" d="M85 18Q85 36 100 72T159 161T262 246Q272 252 301 267T349 291T393 320T434 357T460 402T472 459Q472 505 448 532T384 560Q339 560 295 524T235 435Q234 433 232 427T229 419T226 413T220 407T210 404T197 402Q179 402
171 410T163 430Q163 450 179 480T221 543T291 598T382 622H384Q454 622 497 576T541 457Q541 410 525 372T476 302T408 249T320 199Q279 178 253 158T199 103Q234 99 286 78T364 57Q393 57 420 85T462 161Q468 184 483 189Q489 192 497 192H498Q533 192 533 163Q533
151 523 125T493 67T439 12T363 -11Q324 -11 265 15T189 42Q184 42 181 41Q166 38 156 14T121 -11Q85 -11 85 18Z" />
<glyph unicode="3" glyph-name="three" d="M110 114Q110 151 125 169T161 188Q178 188 190 177T203 148Q203 125 180 107Q186 51 245 51Q300 51 354 90T408 202Q408 287 332 287H301Q264 287 264 317Q264 330 272 339T296 348H330Q400 348 440 395T481 488Q481
519 462 539T408 560Q370 560 334 539T283 483Q282 481 280 474T276 466T272 460T266 454T258 452T244 450Q211 450 211 479Q211 524 269 573T409 622Q470 622 510 585T551 487Q551 435 519 387T435 311Q477 267 477 200Q477 150 455 108T397 41T322 3T244 -11Q184
-11 147 24T110 114Z" />
<glyph unicode="4" glyph-name="four" d="M62 32Q62 38 64 44T72 55T80 62T90 69L96 73Q162 126 216 196T302 333T355 455T388 553T400 598Q410 622 434 622Q447 622 457 613T468 589Q468 585 462 557T437 476T392 365T321 236T222 107L195 80Q212 79 229 76T256
69T284 58T311 48Q311 50 329 121T350 199Q360 219 382 219Q396 219 406 210T416 186Q416 180 411 159T396 99T379 31H380Q399 31 418 39T443 47Q456 47 465 37T474 16Q474 -6 442 -18T380 -30H363L321 -198Q311 -222 288 -222Q273 -222 264 -213T254 -189Q254
-179 296 -12Q288 -9 267 -1T237 9T213 15T180 18Q150 18 134 15T114 9T105 3T92 0Q80 0 71 11T62 32Z" />
<glyph unicode="5" glyph-name="five" d="M118 115Q118 156 134 172T171 189Q189 189 200 177T211 149Q211 124 188 108Q199 51 253 51Q314 51 368 109T423 243Q423 275 408 301T359 327Q333 327 310 319T275 301T250 281T236 268Q228 262 214 262Q183 262 183
292Q183 295 185 305L253 578Q257 596 264 603T290 611H519Q554 611 554 582Q553 549 518 549H317L273 369Q317 389 362 389Q423 389 457 346T492 239Q492 137 417 63T252 -11Q195 -11 157 24T118 115Z" />
<glyph unicode="6" glyph-name="six" d="M135 162Q135 215 156 305Q188 441 277 531T459 622Q504 622 530 599T556 538Q556 503 541 488T505 472Q488 472 476 483T464 512Q464 534 483 551V552Q472 560 457 560Q409 560 346 507T244 355Q302 395 363 395Q394 395
419 384T458 357T483 319T496 280T500 246Q500 174 461 110Q434 66 383 28T268 -11Q245 -11 224 -4T182 21T148 75T135 162ZM204 155Q204 131 208 111T228 71T270 51Q330 51 380 113T430 246Q430 276 413 305T358 334Q308 334 264 297T211 208L204 166V155Z" />
<glyph unicode="7" glyph-name="seven" d="M139 430Q139 438 173 509Q197 558 214 594Q222 611 229 616T254 622Q281 622 287 597Q344 622 379 622Q404 622 420 611T442 587T455 563T473 552Q486 552 500 558T527 573T548 592T564 609T572 617Q580 622 593 622H594Q628
622 628 593Q628 587 626 582T617 569T611 560Q425 299 354 28Q343 -11 315 -11Q301 -11 292 -2T282 22Q282 32 295 80T348 227T444 425L484 491Q479 490 467 490Q446 490 431 500T409 521T394 543T377 553Q343 553 295 524T212 430L210 426Q207 421 206 420T203
415T198 410T193 406T185 403T175 402Q139 402 139 430Z" />
<glyph unicode="8" glyph-name="eight" d="M116 130Q116 193 158 246T280 330Q243 343 223 371T202 432Q202 500 268 561T417 622Q476 622 514 588T553 497Q553 444 517 400T409 330Q455 312 474 279T494 211Q494 133 423 61T259 -11Q196 -11 156 28T116 130ZM188
142Q188 102 212 77T276 51Q330 51 377 98T424 207Q424 247 400 273T336 299Q282 299 235 251T188 142ZM273 437Q273 403 295 382T352 361Q402 361 441 399T481 484Q481 518 459 539T401 560Q351 560 312 522T273 437Z" />
<glyph unicode="9" glyph-name="nine" d="M121 75Q121 109 137 124T172 139Q188 139 200 128T213 99Q213 78 195 61Q209 51 230 51Q284 51 342 110T434 256Q372 215 314 215Q246 215 212 262T177 364Q177 465 250 543T414 622Q464 622 503 584T543 451Q543 369
508 258Q470 144 391 67T229 -11Q182 -11 152 11T121 75ZM247 365Q247 335 264 306T319 277Q371 277 414 315T466 404Q474 446 474 455Q474 560 411 560Q367 560 324 523Q247 457 247 365Z" />
<glyph unicode=":" glyph-name="colon" d="M214 55Q214 82 235 103T286 125Q309 125 325 110T341 71Q341 41 319 21T270 0Q246 0 230 16T214 55ZM291 359Q291 389 313 409T362 430Q385 430 401 415T418 376Q418 346 395 326T346 305Q322 305 307 320T291 359Z" />
<glyph unicode=";" glyph-name="semicolon" d="M162 -107Q162 -94 173 -86T199 -73T236 -48T275 0Q240 1 227 17T214 53Q214 81 235 103T286 125Q315 125 333 104T352 50Q352 3 314 -52T209 -134Q197 -138 192 -138Q181 -138 172 -129T162 -107ZM290 360Q290 390
312 410T362 430Q385 430 401 415T417 376Q417 346 395 326T346 305Q322 305 306 321T290 360Z" />
<glyph unicode="&lt;" glyph-name="less" d="M165 305Q165 310 166 314T170 321T175 327T181 332T186 336L190 338L513 543Q525 551 535 551Q547 551 556 543T566 521Q566 505 544 490L246 301L436 124Q437 123 440 120T446 115T452 108T456 100T458 90Q458 78
449 69T427 60T393 80L184 275Q165 294 165 305Z" />
<glyph unicode="=" glyph-name="equal" d="M130 230Q130 242 138 250T156 260Q162 261 174 261H470Q485 261 494 255T505 243T507 231Q507 199 468 199H166Q145 200 138 210T130 230ZM168 381Q168 412 209 412H504Q545 412 545 381Q545 375 543 369T532 357T508
350H203Q189 350 181 356T170 369T168 381Z" />
<glyph unicode="&gt;" glyph-name="greater" d="M112 90Q112 106 133 121L409 296Q423 306 431 310L241 487Q219 507 219 521Q219 533 227 542T249 551T284 531L493 337Q511 320 511 306Q511 289 487 273L164 68Q152 60 142 60Q130 60 121 68T112 90Z" />
<glyph unicode="?" glyph-name="question" d="M209 470Q209 516 267 569T409 622Q464 622 498 589T532 506Q532 432 467 379Q454 368 406 338T334 291Q319 269 319 252Q319 251 319 249T320 245Q342 248 354 258T368 278T379 296T404 305Q439 305 439 277Q439
247 403 215T317 183Q289 183 272 203T255 254Q255 305 290 340Q293 343 412 422Q468 459 468 508Q468 532 452 546T408 560Q369 560 333 537T296 500Q296 497 297 491T299 479Q299 460 285 446T250 431Q234 431 222 441T209 470ZM224 45Q224 67 241 83T279 100Q298
100 311 88T325 55Q325 33 308 17T269 0Q250 0 237 13T224 45Z" />
<glyph unicode="@" glyph-name="at" d="M141 207Q141 304 185 399T300 555T444 616Q486 616 518 586T550 475Q550 393 512 266Q489 199 445 153T355 107Q314 107 289 143T263 237Q263 329 318 416T440 504Q469 504 493 484Q492 498 491 506T485 527T469 547T442
554Q359 554 279 445T198 210Q198 142 227 99T305 56Q331 56 353 67T390 92T409 107Q418 110 428 110Q448 110 457 101T466 81Q466 58 414 27T305 -5Q232 -5 187 54T141 207ZM321 241Q321 169 358 169Q394 169 434 234T474 370Q474 441 437 441Q401 441 361 376T321
241Z" />
<glyph unicode="A" glyph-name="A" d="M71 29Q71 62 109 62H129Q133 72 152 115L354 577Q361 593 364 599T379 614T410 623H426Q445 623 452 616T459 593V583L429 115Q428 106 427 89T425 62H428Q467 62 467 33Q467 27 465 21T455 7T432 0H332Q298 0 298 29Q298
62 335 62H354L361 164H244L200 62H202Q241 62 241 33Q241 0 203 0H106Q71 0 71 29ZM271 225H365L376 368L385 456L392 515L397 541Q376 472 271 225Z" />
<glyph unicode="B" glyph-name="B" d="M62 29Q62 62 101 62H127L248 549H234Q215 549 208 558T200 578Q200 584 201 590T211 603T234 611H434Q496 611 522 576T549 496Q549 448 518 398T417 320Q494 296 494 210Q494 138 437 69T300 0H96Q77 1 70 10T62 29ZM198
62H296Q354 62 389 108T424 210Q424 240 411 263T365 287H255L198 62ZM270 348H347Q407 348 442 393T477 485Q477 549 417 549H320L270 348Z" />
<glyph unicode="C" glyph-name="C" d="M137 195Q137 292 177 391T286 556T426 622H427Q481 621 521 581Q523 584 528 592T536 602T542 610T550 617T557 620T567 622Q579 622 588 614T597 594Q597 589 558 432L556 427Q555 422 555 421T553 416T550 411T546 407T540
403T532 401T522 400Q487 400 487 432Q487 438 488 450T489 470Q489 560 428 560Q379 560 327 504T241 362T207 193Q207 141 226 96T288 51Q327 51 365 84T419 166Q419 167 420 171T422 177T424 182T427 187T430 192T434 196T440 199T446 201T455 202H457Q492 202
492 173Q492 171 490 161Q467 80 405 35T283 -11Q216 -11 177 46T137 195Z" />
<glyph unicode="D" glyph-name="D" d="M61 29Q61 62 99 62H121L243 549H236Q199 549 199 579Q199 592 207 601T233 611H415Q489 611 521 537Q542 488 542 424Q542 325 503 226T398 64T266 0H97Q76 0 69 9T61 29ZM193 62H260Q297 62 326 82Q383 122 426 216T470
409Q470 430 467 451T456 494T434 530T399 548Q394 549 383 549H315L193 62Z" />
<glyph unicode="E" glyph-name="E" d="M65 29Q65 62 104 62H131L253 549H238Q202 549 202 577Q202 583 204 589T215 603T239 611H556Q591 611 591 582Q591 575 578 526T562 470Q554 454 530 454Q516 454 507 461T497 482Q497 488 512 549H324L274 348H371Q372
349 374 364T385 391T413 404H414Q449 404 449 375Q449 371 421 259Q419 250 417 246T407 235T387 229H386Q351 229 351 259Q351 266 356 286H259V285L203 62H409Q427 141 434 156T463 172H467Q485 172 492 163T499 144Q499 135 474 37Q468 15 462 8T436 0H99Q80
0 73 9T65 29Z" />
<glyph unicode="F" glyph-name="F" d="M66 29Q66 62 106 62H136L257 549H238Q204 549 204 578Q204 611 241 611H563Q584 611 591 602T599 582Q599 578 575 484Q568 455 541 455H540Q505 455 505 483Q505 489 520 549H329L276 336H377Q385 372 392 382T418 393H419Q455
393 455 364Q455 360 427 248Q425 239 423 235T413 224T393 218H391Q356 218 356 247Q356 257 361 275H261L207 62H239Q276 62 276 33Q276 0 239 0H103Q66 0 66 29Z" />
<glyph unicode="G" glyph-name="G" d="M133 187Q133 283 172 384T276 554T409 622Q457 622 494 585Q509 607 517 614T537 622T558 614T567 594Q567 589 528 432Q525 421 523 416T513 406T490 400Q457 400 457 428Q457 432 459 449T461 480Q461 560 411 560Q365
560 316 500T234 352T202 184Q202 166 204 147T213 104T234 66T269 51Q296 51 320 70T360 119T385 169T399 207H374Q338 207 338 236Q338 269 374 269H483Q518 269 518 240Q518 207 482 207H472Q472 205 427 28Q420 0 393 0Q368 0 358 21Q306 -11 264 -11Q204 -11
169 43T133 187Z" />
<glyph unicode="H" glyph-name="H" d="M62 29Q62 62 99 62H124L245 549H233Q199 549 199 578Q199 611 236 611H344Q379 611 379 582Q379 549 341 549H317L267 348H431L481 549H469Q434 549 434 578Q434 611 471 611H580Q614 611 614 582Q614 549 576 549H552L431
62H443Q477 62 477 33Q477 0 440 0H332Q297 0 297 29Q297 62 335 62H359L415 287H251L195 62H207Q221 62 229 56T240 45T242 33Q242 0 204 0H96Q62 0 62 29Z" />
<glyph unicode="I" glyph-name="I" d="M109 29Q109 35 111 41T122 55T146 62H242L363 549H281Q247 549 247 578Q247 584 248 590T258 604T282 611H530Q567 611 567 582Q567 549 531 549H435L313 62H395Q430 62 430 33Q430 27 428 21T418 7T394 0H147Q109 0 109 29Z" />
<glyph unicode="J" glyph-name="J" d="M110 85Q110 116 126 131T161 146Q179 146 190 134T202 106Q202 89 185 70Q207 51 239 51Q272 51 305 74T350 146L450 549H400Q378 549 371 553Q356 561 356 578Q356 611 392 611H552Q589 611 589 582Q589 549 550 549H522Q516
521 512 507L418 131Q400 59 347 24T238 -11T146 15T110 85Z" />
<glyph unicode="K" glyph-name="K" d="M66 29Q66 62 103 62H125L247 549H238Q203 549 203 578Q203 611 240 611H331Q351 611 358 602T366 582Q366 549 328 549H305L243 300L471 549Q457 550 450 559T442 579T450 600T480 611H559Q595 611 595 582Q595 549 557
549H555Q539 549 528 537Q384 377 365 358L429 62H431Q466 62 466 33Q466 27 464 21T453 7T429 0H358Q324 0 324 29Q324 62 362 62H366L314 302L231 211L219 196Q215 183 184 62H193Q228 62 228 33Q228 0 191 0H100Q66 0 66 29Z" />
<glyph unicode="L" glyph-name="L" d="M70 29Q70 62 109 62H142L263 549H243Q207 549 207 578Q207 611 246 611H387Q423 611 423 582Q423 549 385 549H335L213 62H397Q410 119 417 140T431 166T454 172Q488 172 488 144Q488 139 463 38Q457 11 447 5Q439 0 425
0H103Q85 0 78 9T70 29Z" />
<glyph unicode="M" glyph-name="M" d="M59 29Q59 62 97 62H111L233 549H231Q197 549 197 578Q197 611 233 611H255Q270 611 277 610Q283 611 295 611Q322 611 329 599T336 549V405Q336 317 331 274Q343 317 476 574Q495 611 532 611H583Q617 611 617 582Q617 549
581 549H566L444 62H445Q480 62 480 33Q480 27 478 21T468 7T444 0H390Q353 0 346 6Q334 15 334 29Q334 62 372 62H386L502 529Q489 494 425 366T352 226Q336 204 313 204Q294 204 289 218T283 261V340L282 356V408Q282 433 286 529L169 62H170Q188 62 197 54T206
33Q206 27 204 21T194 7T170 0H116Q78 0 71 6Q59 15 59 29Z" />
<glyph unicode="N" glyph-name="N" d="M68 29Q68 62 105 62H130L251 549H239Q205 549 205 578Q205 611 242 611H272Q287 611 295 610Q301 611 315 611Q322 611 327 610T337 608T344 604T349 597T352 588T354 576T355 560T356 540T356 516T358 487Q372 171 372
111Q372 104 372 94T371 76L489 549H477Q443 549 443 578Q443 611 480 611H575Q595 611 602 602T610 582Q610 549 572 549H547Q545 540 541 522T534 495L418 31Q414 15 408 8T387 1H382Q376 0 364 0H359Q351 0 346 1T336 5T330 11T325 22T323 35T322 51T321 71T320
96T319 124Q308 372 305 501Q305 506 305 515T306 529V534L188 62H200Q234 62 234 33Q234 0 197 0H102Q68 1 68 29Z" />
<glyph unicode="O" glyph-name="O" d="M122 74Q122 134 156 271T213 476Q245 568 284 595T417 622Q446 622 463 621T500 616T530 602T548 577T555 538Q555 477 521 337T463 131Q431 41 391 15T258 -11Q185 -11 154 5T122 74ZM198 107Q198 80 215 65T275 50Q308
50 329 58T366 85T389 125T409 182Q429 244 455 354T481 507Q481 560 403 560Q364 560 340 548T307 524T290 491Q270 443 234 302T198 107Z" />
<glyph unicode="P" glyph-name="P" d="M65 29Q65 62 101 62Q101 62 131 62L253 549H237Q202 549 202 578Q202 611 238 611H437Q495 611 527 574T559 478Q559 398 498 321T339 244H248L203 62H219Q254 62 254 33Q254 0 216 0H100Q65 0 65 29ZM264 305H339Q406 305
446 356T487 462Q487 496 467 522T401 549H324L264 305Z" />
<glyph unicode="Q" glyph-name="Q" d="M122 74Q122 134 158 281T220 495Q248 569 285 595T407 622H429Q506 622 530 601T555 536Q555 469 494 234Q464 119 439 72T375 6Q395 -99 395 -111Q395 -139 362 -139H344Q320 -139 316 -125T296 -10Q284 -11 261 -11Q225
-11 204 -9T162 1T132 27T122 74ZM197 107Q197 50 274 50Q276 50 279 50T285 51Q281 78 277 100T272 131T270 144T271 153T281 165T304 171H327Q341 171 345 161Q349 153 361 78Q376 93 390 128Q413 187 446 323T480 504Q480 530 465 545T402 560Q388 560 376 559T354
554T337 547T323 539T313 530T306 520T301 512T296 504L294 499Q274 456 236 309T197 107Z" />
<glyph unicode="R" glyph-name="R" d="M62 29Q62 62 99 62H124L245 549H231Q199 549 199 579Q199 585 201 591T211 604T235 611H389Q461 611 491 572T522 485Q522 430 490 380T407 301Q436 266 436 223Q436 198 420 141T404 60V51Q416 53 422 65T431 91T442 115T469
126Q488 126 496 117T505 97Q505 73 478 31T407 -11Q379 -11 358 7T336 68Q336 96 351 153T366 224Q366 275 315 275H249L195 62H207Q221 62 229 56T240 45T242 33Q242 0 204 0H96Q62 0 62 29ZM264 336H311Q377 336 413 380T450 470Q450 500 431 524T367 549H317L264
336Z" />
<glyph unicode="S" glyph-name="S" d="M91 17Q91 23 128 172Q131 183 133 188T143 198T165 203Q199 203 199 175Q199 171 197 156T194 129Q194 86 221 68T286 50Q336 50 377 98T418 203Q418 226 412 240T391 262T362 275T321 286T274 301Q243 313 220 343T196
422Q196 499 255 560T390 622Q446 622 494 582Q495 584 498 591T504 600T509 608T516 616T524 620T535 622Q547 622 556 614T565 593Q565 592 527 439Q525 433 525 433T523 426T519 419T514 414T505 409T492 407H491Q456 407 456 437Q456 442 457 456T459 478Q459
560 389 560Q339 560 301 518T263 428Q263 402 276 387T306 366T355 351T409 334Q444 320 465 288T486 209Q486 127 426 58T285 -11Q212 -11 163 31Q162 30 159 23T154 14T149 7T143 -1T137 -6T129 -10T120 -11Q105 -11 98 -2T91 17Z" />
<glyph unicode="T" glyph-name="T" d="M157 29Q157 62 196 62H242L364 549H272Q258 485 250 470T222 455H220Q185 455 185 483Q185 491 197 540T213 596Q222 611 245 611H572Q592 611 599 602T606 582Q606 577 582 481Q576 455 548 455Q513 455 513 483Q513 493
527 549H435L314 62H347Q383 62 383 33Q383 0 345 0H194Q157 0 157 29Z" />
<glyph unicode="U" glyph-name="U" d="M141 143Q141 170 156 234L234 549H219Q183 549 183 578Q183 611 221 611H338Q373 611 373 582Q373 549 334 549H306Q303 536 223 218Q211 172 211 140Q211 101 226 76T267 51Q298 51 333 82Q359 105 377 138T400 186T413
235L491 549H476Q441 549 441 578Q441 611 478 611H595Q630 611 630 582Q630 549 591 549H563Q561 541 481 219Q455 111 395 51Q334 -11 266 -11Q210 -11 176 32T141 143Z" />
<glyph unicode="V" glyph-name="V" d="M201 578Q201 611 237 611H333Q367 611 367 582Q367 549 330 549H312Q311 540 308 452T298 264T285 108Q284 102 282 90T280 72L291 106L350 247L485 549H482Q446 549 446 578Q446 611 481 611H578Q612 611 612 582Q612 549
575 549H557L324 37Q317 21 314 15T298 0T267 -8H249Q217 -8 217 24V33L240 549H237Q201 549 201 578Z" />
<glyph unicode="W" glyph-name="W" d="M148 17V27L212 495Q214 504 216 522T220 550Q196 558 196 578Q196 584 197 590T207 604T231 611H306Q341 611 341 582Q341 549 301 549H277Q270 481 252 362T218 158L204 72Q217 123 259 228T311 346Q327 367 352 367Q372
367 379 359T386 332Q386 325 385 310T383 287Q379 232 375 193T369 138T362 102T357 73L376 135L411 239L522 549H509Q474 549 474 578Q474 611 513 611H584Q618 611 618 582Q618 549 583 549H579Q573 531 559 495L393 35Q379 -8 344 -8Q324 -8 317 0T310 25Q310
35 312 61Q319 173 335 294Q322 241 227 25Q212 -8 177 -8H176Q148 -8 148 17Z" />
<glyph unicode="X" glyph-name="X" d="M71 29Q71 62 107 62H132Q138 72 152 92L298 315Q303 322 303 334Q303 344 299 365T284 437T264 549H252Q217 549 217 578Q217 611 253 611H350Q385 611 385 582Q385 549 348 549H340L363 422L445 549Q430 549 422 558T413
579Q413 611 450 611H549Q562 611 571 603T580 582Q580 556 556 550Q551 549 541 549H519L380 337L375 326V314L421 62H433Q467 62 467 33Q467 0 433 0H335Q300 0 300 29Q300 62 337 62H347L317 240L205 62H206Q222 62 230 53T238 32Q238 0 202 0H102Q89 0 80 8T71
29Z" />
<glyph unicode="Y" glyph-name="Y" d="M180 29Q180 62 217 62H242L287 244L245 549H236Q201 549 201 578Q201 611 237 611H334Q368 611 368 582Q368 570 360 560T333 549H321L338 404L342 360V337L341 314Q353 351 477 549H476Q461 549 453 558T445 579T453 601T480
611H576Q613 611 613 582Q613 570 605 560T579 549H566Q553 549 545 537L366 257Q357 244 328 125Q318 86 312 62H325Q339 62 347 56T358 45T360 33Q360 20 352 10T322 0H214Q180 0 180 29Z" />
<glyph unicode="Z" glyph-name="Z" d="M87 22Q87 40 103 61L494 549H299Q285 484 277 470T249 455H247Q212 455 212 483Q212 491 235 582Q242 611 273 611H560Q588 611 588 589Q588 571 571 548L182 62H390Q411 152 420 164Q427 175 445 175H447Q482 175 482 147Q482
141 454 30Q450 12 442 6T415 0H114Q87 0 87 22Z" />
<glyph unicode="[" glyph-name="bracketleft" d="M209 -55Q209 -50 214 -30L386 658Q391 678 398 686T425 694H578Q614 694 614 665Q614 632 577 632H452L288 -22H401Q435 -22 435 -51Q435 -83 397 -83H245Q209 -83 209 -55Z" />
<glyph unicode="\" glyph-name="backslash" d="M256 662Q256 676 266 685T287 694Q314 694 320 650L418 -36Q420 -46 420 -52Q420 -66 411 -74T389 -83Q361 -83 356 -40L258 647Q256 657 256 662Z" />
<glyph unicode="]" glyph-name="bracketright" d="M63 -54Q63 -22 100 -22H225L388 633H281Q280 633 279 633T276 632Q258 632 250 641T241 661Q241 694 279 694H431Q467 694 467 666Q467 661 462 641L290 -48Q285 -70 277 -76T252 -83H97Q63 -83 63 -54Z" />
<glyph unicode="^" glyph-name="asciicircum" d="M216 462Q216 481 240 492Q386 565 396 565Q407 565 487 512Q505 499 516 492Q538 479 538 462Q538 450 526 436T501 422H500H499Q491 422 465 441Q459 445 443 457Q413 479 391 495Q377 487 266 428Q254 422 248
422Q231 422 224 436T216 462Z" />
<glyph unicode="_" glyph-name="underscore" d="M73 -60Q73 -53 75 -47T88 -33T117 -25H377Q420 -25 420 -60Q420 -67 418 -73T405 -87T378 -95H115Q92 -95 83 -84T73 -60Z" />
<glyph unicode="`" glyph-name="grave" d="M285 603Q285 617 296 628T322 639Q333 639 365 619Q372 615 389 603Q416 586 434 575Q454 562 454 546Q454 533 442 520T417 506H414Q408 506 370 531Q335 553 308 570Q285 585 285 603Z" />
<glyph unicode="a" glyph-name="a" d="M125 148Q125 254 191 345T339 436Q383 436 423 396Q434 421 458 421Q471 421 481 412T492 388Q492 382 489 370L425 114Q419 90 419 84Q419 73 423 67T432 59T439 57Q459 57 482 143Q491 172 516 172H520Q553 172 553 143Q553
140 550 126T539 89T518 46T485 10T438 -5Q379 -5 357 47Q302 -5 243 -5Q190 -5 158 38T125 148ZM195 145Q195 111 206 84T245 57Q292 57 340 131T388 285Q388 326 374 350T336 374Q288 374 242 299T195 145Z" />
<glyph unicode="b" glyph-name="b" d="M129 578Q129 611 166 611H268Q304 611 304 582Q304 575 301 566L260 399Q316 436 363 436Q422 436 459 391T496 276Q496 171 425 83T267 -5Q208 -5 172 40T135 154Q135 186 148 240L225 549H163Q129 549 129 578ZM204 152Q204
109 222 83T269 56Q322 56 374 126T426 280Q426 321 409 347T361 374Q307 374 256 303T204 152Z" />
<glyph unicode="c" glyph-name="c" d="M136 163Q136 266 214 351T391 436Q443 436 477 410T511 342Q511 311 495 296T460 281Q443 281 431 292T419 320Q419 340 435 357V358Q416 374 390 374Q324 374 265 308T206 162Q206 138 212 117T242 76T305 56Q359 56 396
64T447 82T472 100T491 109Q505 109 516 97T528 73Q528 59 512 45Q485 22 445 11T377 -3T305 -5Q257 -5 222 11T170 55T144 108T136 163Z" />
<glyph unicode="d" glyph-name="d" d="M125 148Q125 253 192 344T339 436Q389 436 423 396L461 549H412Q376 549 376 578Q376 611 414 611H505Q540 611 540 583Q540 574 537 564L423 108Q419 92 419 84Q419 57 438 57Q452 57 462 79T479 129T492 162Q502 172 517
172Q553 172 553 143Q553 140 550 127T539 90T519 46T486 10T438 -5Q379 -5 357 47Q298 -5 243 -5Q190 -5 158 38T125 148ZM195 145Q195 111 206 84T245 57Q291 57 339 130T388 285Q388 326 374 350T336 374Q288 374 242 299T195 145Z" />
<glyph unicode="e" glyph-name="e" d="M137 165Q137 271 216 353T391 436Q444 436 479 407T515 332Q515 278 473 241Q446 218 402 206T324 191T233 189H209Q207 187 207 163Q207 122 229 89T301 56H303Q359 56 396 64T447 82T471 100T493 109Q505 109 516 97T528
73Q528 55 499 36T435 7Q389 -5 305 -5Q257 -5 222 11T170 55T145 110T137 165ZM227 250Q261 250 282 250T338 255T393 268T429 292T445 331Q445 350 430 362T389 374Q342 374 297 339T227 250Z" />
<glyph unicode="f" glyph-name="f" d="M45 -155Q45 -128 60 -114T95 -100Q111 -100 123 -111T136 -140Q136 -148 130 -162Q150 -166 154 -166Q165 -166 178 -156Q209 -130 226 -59T291 285Q301 339 306 369H241Q208 370 208 398Q208 404 209 410T219 423T243 430H317Q333
531 348 561Q376 616 454 616Q501 616 535 599T570 543Q570 520 557 505T521 489Q502 489 491 500T480 528Q480 538 485 551Q465 555 453 555Q422 555 413 537T393 459Q390 441 388 430H471Q506 430 506 402Q506 396 504 390T493 376T469 369H377Q327 63 304 -34T256
-167Q212 -227 154 -227Q113 -227 79 -211T45 -155Z" />
<glyph unicode="g" glyph-name="g" d="M67 -164Q67 -143 80 -127T116 -111Q134 -111 145 -122T157 -152Q157 -160 156 -164Q186 -166 202 -166Q296 -166 337 -92Q346 -78 372 36Q318 0 269 0Q210 0 173 45T136 159Q136 262 206 349T363 436Q419 436 461 390Q469
421 498 421Q511 421 521 412T531 389L528 371L422 -55Q411 -96 405 -110Q382 -159 329 -193T207 -228Q206 -228 205 -228T202 -227Q176 -227 158 -226T116 -219T80 -200T67 -164ZM206 157Q206 114 223 88T270 62Q324 62 375 131T427 279Q427 323 409 348T362 374Q309
374 258 306T206 157Z" />
<glyph unicode="h" glyph-name="h" d="M88 28Q88 34 93 57L203 494Q207 508 216 549H173Q152 549 144 554Q131 563 131 578Q131 584 133 590T144 604T168 611H255Q259 611 266 611T284 603T295 582Q295 576 250 396Q300 436 363 436Q413 436 442 408T472 329Q472
283 438 184T404 77Q404 57 417 57Q433 57 449 75Q465 94 473 120T489 159T515 172H519Q553 172 553 143Q553 110 514 53T414 -5Q378 -5 356 19T334 78Q334 98 368 195T402 329Q402 375 361 375T286 342T230 259T193 160T168 68T154 17Q143 -5 121 -5Q107 -5 98
4T88 28Z" />
<glyph unicode="i" glyph-name="i" d="M142 288Q146 332 192 384T301 436Q342 436 370 411T399 348V342Q399 326 351 210T303 82T311 64T332 57Q357 57 382 81T418 139Q418 140 419 143T420 147T422 152T424 156T426 160T430 164T434 167T440 170T447 171T455
172Q490 172 490 143Q490 107 444 51T331 -5Q292 -5 263 19T233 82Q233 107 280 221T328 349Q328 360 320 367T299 374Q272 374 249 349T214 292Q213 290 211 284T208 276T205 270T199 264T189 261T176 259Q142 259 142 288ZM359 563Q359 581 373 596T408 611Q425
611 436 599T448 570Q448 551 434 537T400 522Q384 522 372 534T359 563Z" />
<glyph unicode="j" glyph-name="j" d="M90 -164Q90 -141 105 -126T139 -111Q157 -111 169 -122T181 -151Q181 -155 179 -165Q180 -165 183 -165T188 -166Q201 -166 216 -161T253 -143T293 -98T324 -20L410 324Q410 326 411 329T412 336T413 342Q413 374 378 374Q351
374 319 351T268 286L266 282Q265 279 265 278T262 273T257 268T252 264T244 260T233 259H232Q196 259 196 286Q196 319 251 377T379 436Q423 436 453 410T483 341Q483 327 474 291L393 -32Q386 -63 379 -81Q357 -138 305 -182T186 -227Q145 -227 118 -212T90 -164ZM452
563Q452 583 467 597T501 611Q517 611 529 600T542 571Q542 551 527 537T493 522Q476 522 464 534T452 563Z" />
<glyph unicode="k" glyph-name="k" d="M96 28Q96 31 96 33T98 39T99 45L213 500L225 549H162Q146 549 138 558T129 579Q129 611 169 611H268Q304 611 304 582Q304 581 298 554L226 264Q250 279 282 310T340 368T400 415T472 436Q505 436 522 414T539 357Q539 272
486 272Q469 272 457 282T445 312Q445 332 458 345T471 374Q449 372 428 361T395 338T348 292T293 238Q336 227 366 201T396 132Q396 122 394 109T391 90Q391 76 399 67T421 57Q438 57 452 75Q465 92 472 112T481 143T492 163T519 172H520Q553 172 553 143Q553
134 546 112T524 63T482 16T421 -5Q379 -5 350 21T321 89Q321 99 323 112T325 131Q325 178 207 188Q166 21 162 15Q151 -5 130 -5Q115 -5 106 5T96 28Z" />
<glyph unicode="l" glyph-name="l" d="M195 578Q195 611 233 611H370Q405 611 405 582Q405 578 403 568L288 106Q286 94 286 91Q286 84 293 72Q317 56 339 56Q351 56 361 63T379 79T393 102T402 125T409 143T412 153Q420 172 445 172H448Q465 172 472 163T479
143T471 111T447 62T402 15T339 -5Q287 -5 251 21T215 90Q215 98 226 145L327 549H231Q195 549 195 578Z" />
<glyph unicode="m" glyph-name="m" d="M50 22Q50 35 66 92T95 191T111 243Q119 277 132 328Q149 400 155 415T180 430Q191 430 198 423T206 411T208 402Q249 436 295 436Q314 436 328 431T352 414T365 395T374 375Q423 436 486 436Q519 436 544 414T570 339Q570
293 538 197T505 81Q505 70 511 65T523 59T536 52T542 33T533 11T510 0Q487 0 468 18T448 76Q448 111 480 205T513 335Q513 374 486 374Q450 374 416 320T363 203T327 78T309 12Q300 -5 276 -5H274Q258 -5 250 3T242 23Q242 41 281 173T321 335Q321 374 294 374Q258
374 224 320T171 202T135 77T117 12Q108 -5 84 -5H83Q52 -5 50 22Z" />
<glyph unicode="n" glyph-name="n" d="M79 287Q79 290 81 303T91 339T110 384T142 420T188 436Q244 436 265 381Q320 436 385 436Q430 436 457 409T485 331Q485 288 451 185T417 73Q417 64 420 57Q441 57 455 78T478 127T488 158Q497 172 515 172H517Q553 172
553 143Q553 134 545 112T523 62T481 15T422 -5Q389 -5 368 17T347 76Q347 96 381 196T415 333Q415 374 383 374Q338 374 301 321T244 204T208 79T188 11Q177 -5 158 -5Q145 -5 135 4T124 28Q124 34 129 51L195 317Q201 337 201 349Q201 372 188 372Q171 372 152
300Q151 297 150 291T147 282T144 273T138 266T129 261T116 259H114Q79 259 79 287Z" />
<glyph unicode="o" glyph-name="o" d="M126 158Q126 263 200 349T363 436Q426 436 465 390T505 273Q505 168 432 82T269 -5Q205 -5 166 41T126 158ZM196 153Q196 114 214 85T269 56Q326 56 380 124T435 277Q435 321 415 347T361 374Q304 374 250 306T196 153Z" />
<glyph unicode="p" glyph-name="p" d="M10 -193Q10 -160 47 -160H88L100 -110L209 327Q212 336 212 346Q212 373 192 373Q170 373 152 301Q151 299 150 293T148 285T145 277T141 270T135 264T126 260T113 259Q79 259 79 288Q79 296 85 317T102 367T138 415T193
436Q247 436 274 383Q332 436 388 436Q441 436 473 393T506 283Q506 178 440 87T292 -5Q246 -5 208 35L159 -160H203Q221 -160 229 -164Q244 -173 244 -189Q244 -222 207 -222H47Q10 -222 10 -193ZM243 145Q243 112 255 85T294 57Q341 57 388 131T436 285Q436 327
422 350T385 374Q337 374 290 299T243 145Z" />
<glyph unicode="q" glyph-name="q" d="M135 154Q135 259 206 347T364 436Q426 436 466 383Q483 425 495 432Q501 435 508 435Q520 435 528 427T536 407L533 392L395 -160H448Q470 -160 477 -164Q492 -173 492 -189Q492 -195 490 -201T480 -215T456 -222H247Q212
-222 212 -193Q212 -160 247 -160H324L372 32Q316 -5 268 -5Q209 -5 172 39T135 154ZM205 152Q205 109 222 83T269 56Q322 56 374 126T427 280Q427 321 410 347T362 374Q308 374 257 303T205 152Z" />
<glyph unicode="r" glyph-name="r" d="M93 287Q93 293 99 314T117 363T156 414T214 436Q245 436 269 420T304 378Q362 436 435 436Q498 436 538 408T578 334Q578 302 563 287T528 272Q510 272 499 284T487 312Q487 333 504 350Q477 374 434 374Q385 374 346 322T287
209T251 85T231 15Q220 -5 199 -5Q174 -5 167 19Q164 27 169 47L238 323Q241 335 241 343Q241 356 233 364T214 373Q205 373 196 368Q182 348 174 325T164 289T153 268T126 259Q93 259 93 287Z" />
<glyph unicode="s" glyph-name="s" d="M97 91Q97 122 113 137T148 152Q164 152 176 141T189 112Q189 97 174 77Q208 56 269 56Q351 56 386 85T422 144Q422 166 397 178T322 199T266 210Q232 219 207 242T182 303Q182 352 227 394T364 436Q421 436 463 416T505
349Q505 324 491 309T457 294Q441 294 430 304T418 332Q418 343 428 360Q400 374 361 374Q301 374 273 352T244 305Q244 278 303 265Q309 264 353 256Q428 243 456 212T484 145Q484 90 431 43T270 -5Q97 -5 97 91Z" />
<glyph unicode="t" glyph-name="t" d="M156 397Q156 430 192 430H290Q297 460 308 506Q325 579 334 597T365 616Q378 616 388 607T398 583Q398 576 393 553T377 492T362 430H445Q480 430 480 402Q480 369 443 369H346Q342 349 325 281T293 154T278 89Q278 75 288
66T314 56Q346 56 376 82T423 145Q430 160 436 166T457 172H458Q494 172 494 144Q494 111 440 53T312 -5Q267 -5 238 21T208 89Q208 90 208 91Q208 105 245 253Q262 323 274 369H190Q156 369 156 397Z" />
<glyph unicode="u" glyph-name="u" d="M79 287Q79 302 92 335T138 402T213 436Q248 436 269 413T290 354Q290 332 259 244T228 113Q228 56 269 56Q296 56 318 77T356 138T380 203T398 271Q402 288 407 308T415 341T421 367T427 388T432 404T439 416T446 424T456
429T467 430Q479 430 489 421T500 398Q500 390 496 374L430 111Q425 94 425 82T430 64T441 57Q460 57 479 130Q480 132 481 138T484 148T487 157T493 165T503 170T516 172H520Q553 172 553 143Q553 140 551 127T540 90T520 46T488 10T441 -5Q391 -5 367 38Q322
-5 268 -5Q226 -5 192 22T158 114Q158 165 189 256T221 356Q221 373 209 373Q193 373 174 346Q162 327 155 303T140 269T113 259Q79 259 79 287Z" />
<glyph unicode="v" glyph-name="v" d="M79 287Q79 299 89 322T116 372T163 417T226 436Q264 436 289 412T314 349Q314 330 283 247T252 124Q252 56 322 56Q344 56 371 78Q387 97 396 112T420 166T450 265T465 354Q465 369 462 381T458 399Q458 413 469 424T495
435Q536 435 536 357Q536 329 525 276T490 156T422 43T320 -5Q297 -5 275 1T231 20T196 61T182 125Q182 173 213 258T244 351Q244 374 224 374Q210 374 197 364Q178 350 167 331T153 296T141 270T116 259H114Q79 259 79 287Z" />
<glyph unicode="w" glyph-name="w" d="M96 118Q96 169 124 243T153 338Q153 344 153 348T150 356T147 362T143 365T139 367T134 369L129 370Q107 374 107 399Q107 412 115 421T139 430Q166 430 188 409T211 344Q211 308 182 235T153 122Q153 58 216 56Q254 56
277 116T342 342Q351 380 356 400Q364 430 386 430Q398 430 406 421T414 403Q414 391 382 270T350 119Q350 56 407 56Q440 56 463 103T507 234Q526 307 526 339Q526 359 520 376T513 400Q513 415 524 425T550 435Q589 435 589 368Q589 327 564 227T515 78Q474 -5
406 -5Q337 -5 307 50Q269 -5 215 -5Q170 -5 133 23T96 118Z" />
<glyph unicode="x" glyph-name="x" d="M79 287Q79 326 130 381T253 436Q312 436 346 394H347Q392 436 449 436Q494 436 522 408T551 338Q551 303 535 288T500 272Q483 272 471 283T459 312Q459 337 479 352Q468 374 448 374Q427 374 408 359T379 321Q376 316 353
221T329 112Q329 87 342 72T379 56Q410 56 439 80T481 140L482 145Q484 150 485 152T489 158T495 165T503 170T515 172H518Q553 172 553 143Q553 104 501 50T378 -5Q319 -5 285 37Q240 -5 182 -5Q139 -5 110 22T81 92Q81 127 96 142T132 158Q150 158 161 146T173
117Q173 95 153 79Q162 57 184 57Q204 57 224 72T252 109Q255 116 278 210T302 318Q302 341 289 357T252 374Q222 374 193 350T151 291Q146 277 144 273T133 264T112 259Q79 259 79 287Z" />
<glyph unicode="y" glyph-name="y" d="M79 287Q79 298 88 321T114 370T159 416T221 436Q258 436 281 412T305 351Q305 330 274 245T242 117Q242 56 294 56Q337 56 371 106T422 217T452 339T473 411Q485 430 505 430Q518 430 528 421T538 397Q538 388 534 374L443
12Q424 -61 392 -112T325 -186T262 -218T213 -227Q168 -227 139 -201T109 -131Q109 -100 124 -84T161 -67Q178 -67 189 -77T201 -107Q201 -129 182 -146Q193 -166 218 -166Q263 -166 308 -115T373 19Q332 -5 293 -5Q247 -5 210 24T172 119Q172 169 203 257T235
353Q235 373 218 373Q202 373 185 355Q170 339 162 320T150 288T139 268T116 259H113Q79 259 79 287Z" />
<glyph unicode="z" glyph-name="z" d="M95 12T95 23T105 47Q136 96 185 145T299 250T392 332Q379 337 351 351T306 365Q285 365 266 349T237 308L235 302Q233 297 232 295T227 288T218 281T204 279H200Q167 279 167 307Q167 343 209 389T309 436Q343 436 380 412T429
387T447 399T466 424T495 436H496Q513 436 521 427T529 407Q529 389 489 339T370 221L285 148L239 105Q263 102 300 84T357 65Q382 65 409 87Q430 104 442 124T458 158T469 180T494 190H499Q516 190 523 181T530 162Q530 139 510 102T446 30T352 -5Q318 -5 280
19T223 44T191 37T171 20T155 3T129 -5H128Q111 -5 103 3Z" />
<glyph unicode="{" glyph-name="braceleft" d="M160 303Q160 330 183 335Q183 335 191 336Q199 336 209 337T233 340T260 346T287 357T310 374T325 397Q328 405 350 497T380 605Q395 635 424 655T487 683T539 692T571 694Q590 694 598 685T606 665Q606 646 589
636Q586 635 556 632T495 619T448 585Q442 577 398 400Q382 333 316 302Q353 271 353 232Q353 218 329 122T304 19Q304 0 327 -9T380 -22L409 -24Q427 -31 427 -51Q427 -57 425 -63T415 -76T391 -83Q329 -83 282 -60T234 17Q234 34 258 129T282 231Q282 248 260
260Q246 268 226 271T193 274T170 281T160 303Z" />
<glyph unicode="|" glyph-name="bar" d="M215 -49Q215 -42 219 -28L390 657Q399 694 427 694Q441 694 451 684T461 659Q461 656 460 650T458 643L287 -44Q279 -83 250 -83Q236 -83 226 -74T215 -49Z" />
<glyph unicode="}" glyph-name="braceright" d="M71 -54Q71 -31 90 -24Q92 -23 112 -22T154 -17T198 -2T231 29Q235 35 278 211Q284 234 294 252T318 281T339 297T360 309Q324 337 324 380Q324 397 348 491T372 591Q372 608 351 619Q334 627 306 629T264 637T249
662Q249 694 287 694Q345 694 394 671T443 594Q443 577 419 482T394 380Q394 365 409 355T442 341T478 336T497 334Q516 327 516 307Q516 282 495 276Q494 276 463 274T403 259Q382 250 370 238T354 217T346 192Q301 15 298 8Q284 -22 256 -42T194 -70T141 -80T108
-83H106Q71 -83 71 -54Z" />
<glyph unicode="~" glyph-name="asciitilde" d="M233 522Q233 534 248 551Q304 611 350 611Q380 611 412 585T454 558Q471 558 497 584T536 610T557 601T567 580Q567 561 527 526T450 491Q421 491 389 517T346 544Q329 544 303 518T264 492Q253 492 243 500T233 522Z" />
</font>
</defs>
</svg>
